<svg width="501" height="502" viewBox="0 0 501 502" fill="none" xmlns="http://www.w3.org/2000/svg">
<path d="M-8.57446e-06 251C-4.23452e-06 201.357 14.6916 152.829 42.2169 111.552C69.7422 70.2751 108.865 38.1038 154.638 19.1062C200.411 0.108647 250.778 -4.86199 299.37 4.82292C347.962 14.5078 392.597 38.4132 427.63 73.5162C462.663 108.619 486.521 153.343 496.187 202.032C505.852 250.722 500.892 301.189 481.932 347.054C462.972 392.918 430.865 432.119 389.67 459.699C348.476 487.279 300.044 502 250.5 502L250.5 426.991C285.238 426.991 319.197 416.669 348.081 397.331C376.965 377.993 399.477 350.507 412.771 318.349C426.065 286.191 429.543 250.805 422.766 216.666C415.989 182.527 399.26 151.168 374.697 126.556C350.133 101.943 318.837 85.1812 284.766 78.3905C250.695 71.5999 215.379 75.0851 183.285 88.4054C151.191 101.726 123.76 124.283 104.46 153.225C85.1606 182.166 74.8595 216.192 74.8595 251L-8.57446e-06 251Z" fill="#4559A6"/>
<path d="M250.5 394.5C274.181 394.5 297.496 388.68 318.381 377.556C339.266 366.431 357.075 350.346 370.232 330.724C383.388 311.103 391.485 288.551 393.807 265.065C396.128 241.58 392.601 217.887 383.539 196.085C374.476 174.283 360.158 155.044 341.853 140.073C323.547 125.102 301.819 114.861 278.593 110.257C255.367 105.653 231.36 106.829 208.699 113.679C186.038 120.529 165.422 132.843 148.677 149.53L201.625 202.294C209.662 194.285 219.558 188.374 230.436 185.086C241.313 181.798 252.836 181.234 263.985 183.444C275.133 185.653 285.563 190.569 294.349 197.755C303.136 204.941 310.009 214.176 314.359 224.641C318.708 235.106 320.401 246.479 319.287 257.751C318.173 269.024 314.286 279.849 307.971 289.268C301.656 298.686 293.108 306.407 283.083 311.747C273.058 317.086 261.867 319.88 250.5 319.88L250.5 394.5Z" fill="#0EA1E6"/>
<g clip-path="url(#clip0_10_239)">
<path d="M278.237 226.461C273.894 221.537 268.04 218.237 261.634 217.074C257.934 215.113 253.718 214.001 249.247 214.001C248.367 214.001 228.482 214.001 228.482 214.001C217.923 213.873 212.334 227.767 220.373 234.821C221.191 235.564 222.05 236.298 222.93 237.022C222.776 238.178 222.695 239.356 222.695 240.552V273.19C223.214 291.73 249.47 293.408 252.382 275.129C252.94 270.837 255.251 267.415 258.935 265.372C265.999 272.298 276.606 269.874 281.507 260.52C287.695 249.739 286.578 235.679 278.237 226.461ZM223.293 231.608C218.258 226.947 221.667 218.411 228.482 218.342H234.714C229.738 221.609 225.921 226.501 224.023 232.259C223.777 232.043 223.533 231.826 223.293 231.608ZM248.076 274.569C246.008 287.528 227.399 286.319 227.037 273.19V240.552C227.037 240.458 227.039 240.365 227.04 240.272C227.231 240.419 227.422 240.567 227.612 240.713C232.279 244.313 236.786 247.79 239.572 251.791C234.54 250.988 229.832 255.025 229.876 260.128C229.85 267.371 238.582 271.235 243.905 266.426C245.435 265.256 246.341 264.021 247.141 262.931C248.473 261.114 249.624 259.545 254.027 258.174C261.964 256.023 267.503 248.784 267.503 240.552C267.607 224.511 247.728 216.206 236.418 227.564C234.447 229.661 237.35 232.597 239.469 230.652C248.093 221.995 263.241 228.329 263.161 240.552C263.161 246.838 258.925 252.364 252.86 253.992C252.833 253.999 252.806 254.007 252.78 254.015C249.781 254.944 247.861 256.039 246.487 257.174C244.896 247.609 235.049 241.067 227.674 235.265C230.053 225.563 238.822 218.342 249.247 218.342C273.111 218.583 279.961 250.923 258.297 260.841C252.606 263.384 248.881 268.388 248.076 274.569ZM242.397 260.128C242.397 262.383 240.563 264.217 238.307 264.217C232.889 264.012 232.89 256.242 238.307 256.038C240.563 256.038 242.397 257.872 242.397 260.128ZM277.729 258.381C274.925 263.696 269.054 267.435 263.071 263.226C275.612 255.967 279.695 238.017 271.509 226.1C281.294 233.441 283.999 247.559 277.729 258.381Z" fill="black"/>
</g>
<defs>
<clipPath id="clip0_10_239">
<rect width="74" height="74" fill="white" transform="translate(214 214)"/>
</clipPath>
</defs>
</svg>
