<svg width="343" height="218" viewBox="0 0 343 218" fill="none" xmlns="http://www.w3.org/2000/svg">
<g clip-path="url(#clip0_4133_145377)">
<path d="M119.465 78.9415C114.987 81.4526 119.268 92.0787 119.465 94.0143L114.748 97.1753C114.748 97.1753 114.003 100.335 116.237 102.159C119.135 104.958 125.471 115.542 126.788 118.326L122.161 120.403L120.831 121L119.341 116.624L114.624 111.154C110.186 110.507 108.783 108.11 105.686 112.491C102.039 107.597 97.0802 106.216 92.2804 100.091C87.2553 95.3223 91.8877 95.3447 86.6941 92.6767C84.779 88.1628 84.0575 86.7663 78.541 84.7352L66.7915 83.1959C67.4359 81.5387 65.9833 79.5642 65.0534 78.3328C60.0007 79.6551 57.8327 73.8566 54.8745 71.2016C53.1967 76.3159 52.6041 73.6833 48.5029 72.9036L45.5242 75.0102C48.8365 75.8099 50.8733 81.0103 52.144 83.6005C48.5426 84.2881 50.2192 82.9482 48.0066 80.358C44.91 78.1323 44.0813 77.6487 41.1376 79.0629C41.1376 79.0629 42.2132 80.2778 40.9726 82.2228C39.0069 85.207 39.2177 83.3469 39.5658 85.6269C36.3667 86.272 27.8728 87.7594 24.1727 90.0842C19.3657 90.7058 20.8857 103.916 24.5858 105.4C22.2684 111.224 5.08073 104.962 1 104.995L10.2382 10.5754L59.3925 0L104.264 32.2723C104.264 32.2723 103.891 34.0958 104.822 35.9181C110.138 41.9854 121.816 59.0209 127.654 63.0194C131.026 63.0583 130.888 63.0701 132 65.0847C128.685 65.6473 122.07 76.3371 119.463 78.9426L119.465 78.9415Z" fill="#1B9C9F"/>
<path d="M119.465 78.9415C114.987 81.4526 119.268 92.0787 119.465 94.0143L114.748 97.1753C114.748 97.1753 114.003 100.335 116.237 102.159C119.135 104.958 125.471 115.542 126.788 118.326L122.161 120.403L120.831 121L119.341 116.624L114.624 111.154C110.186 110.507 108.783 108.11 105.686 112.491C102.039 107.597 97.0802 106.216 92.2804 100.091C87.2553 95.3223 91.8877 95.3447 86.6941 92.6767C84.779 88.1628 84.0575 86.7663 78.541 84.7352L66.7915 83.1959C67.4359 81.5387 65.9833 79.5642 65.0534 78.3328C60.0007 79.6551 57.8327 73.8566 54.8745 71.2016C53.1967 76.3159 52.6041 73.6833 48.5029 72.9036L45.5242 75.0102C48.8365 75.8099 50.8733 81.0103 52.144 83.6005C48.5426 84.2881 50.2192 82.9482 48.0066 80.358C44.91 78.1323 44.0813 77.6487 41.1376 79.0629C41.1376 79.0629 42.2132 80.2778 40.9726 82.2228C39.0069 85.207 39.2177 83.3469 39.5658 85.6269C36.3667 86.272 27.8728 87.7594 24.1727 90.0842C19.3657 90.7058 20.8857 103.916 24.5858 105.4C22.2684 111.224 5.08073 104.962 1 104.995L10.2382 10.5754L59.3925 0L104.264 32.2723C104.264 32.2723 103.891 34.0958 104.822 35.9181C110.138 41.9854 121.816 59.0209 127.654 63.0194C131.026 63.0583 130.888 63.0701 132 65.0847C128.685 65.6473 122.07 76.3371 119.463 78.9426L119.465 78.9415Z" fill="white" fill-opacity="0.8"/>
<path d="M119.465 78.9415C114.987 81.4526 119.268 92.0787 119.465 94.0143L114.748 97.1753C114.748 97.1753 114.003 100.335 116.237 102.159C119.135 104.958 125.471 115.542 126.788 118.326L122.161 120.403L120.831 121L119.341 116.624L114.624 111.154C110.186 110.507 108.783 108.11 105.686 112.491C102.039 107.597 97.0802 106.216 92.2804 100.091C87.2553 95.3223 91.8877 95.3447 86.6941 92.6767C84.779 88.1628 84.0575 86.7663 78.541 84.7352L66.7915 83.1959C67.4359 81.5387 65.9833 79.5642 65.0534 78.3328C60.0007 79.6551 57.8327 73.8566 54.8745 71.2016C53.1967 76.3159 52.6041 73.6833 48.5029 72.9036L45.5242 75.0102C48.8365 75.8099 50.8733 81.0103 52.144 83.6005C48.5426 84.2881 50.2192 82.9482 48.0066 80.358C44.91 78.1323 44.0813 77.6487 41.1376 79.0629C41.1376 79.0629 42.2132 80.2778 40.9726 82.2228C39.0069 85.207 39.2177 83.3469 39.5658 85.6269C36.3667 86.272 27.8728 87.7594 24.1727 90.0842C19.3657 90.7058 20.8857 103.916 24.5858 105.4C22.2684 111.224 5.08073 104.962 1 104.995L10.2382 10.5754L59.3925 0L104.264 32.2723C104.264 32.2723 103.891 34.0958 104.822 35.9181C110.138 41.9854 121.816 59.0209 127.654 63.0194C131.026 63.0583 130.888 63.0701 132 65.0847C128.685 65.6473 122.07 76.3371 119.463 78.9426L119.465 78.9415Z" stroke="white" stroke-width="0.5" stroke-miterlimit="10"/>
<path d="M125.998 126.743C125.844 130.913 126.231 130.611 122.05 132C120.715 128.377 119.345 123.865 118.198 120.096C118.615 118.618 113.429 114.482 112.833 114.175C107.627 111.389 108.612 113.005 105.159 116.27C103.274 113.613 91.8482 114.361 89.065 114.175C84.9112 111.003 77.6378 109.816 83.7016 103.622C83.0529 102.105 81.6487 100.738 83.2883 99.1911L86.2602 99.836L83.5358 96.1296C83.4085 96.2187 77.6162 94.3297 81.0601 93.5523C81.0961 92.4572 80.9292 89.989 82.2157 89.3628L79 86C80.2433 86.0868 81.2943 86.8173 82.7934 87.7107C86.5208 89.7005 85.1719 91.5954 86.8788 93.6321C89.2308 95.3921 89.7605 94.4212 89.7257 97.1368C92.5617 103.732 102.298 108.529 105.821 113.33C108.973 108.909 110.366 111.414 114.735 112C116.79 114.068 120.652 118.773 120.924 121.788C122.615 119.685 125.1 126.104 126 126.743H125.998Z" fill="#1B9C9F"/>
<path d="M125.998 126.743C125.844 130.913 126.231 130.611 122.05 132C120.715 128.377 119.345 123.865 118.198 120.096C118.615 118.618 113.429 114.482 112.833 114.175C107.627 111.389 108.612 113.005 105.159 116.27C103.274 113.613 91.8482 114.361 89.065 114.175C84.9112 111.003 77.6378 109.816 83.7016 103.622C83.0529 102.105 81.6487 100.738 83.2883 99.1911L86.2602 99.836L83.5358 96.1296C83.4085 96.2187 77.6162 94.3297 81.0601 93.5523C81.0961 92.4572 80.9292 89.989 82.2157 89.3628L79 86C80.2433 86.0868 81.2943 86.8173 82.7934 87.7107C86.5208 89.7005 85.1719 91.5954 86.8788 93.6321C89.2308 95.3921 89.7605 94.4212 89.7257 97.1368C92.5617 103.732 102.298 108.529 105.821 113.33C108.973 108.909 110.366 111.414 114.735 112C116.79 114.068 120.652 118.773 120.924 121.788C122.615 119.685 125.1 126.104 126 126.743H125.998Z" fill="white" fill-opacity="0.8"/>
<path d="M125.998 126.743C125.844 130.913 126.231 130.611 122.05 132C120.715 128.377 119.345 123.865 118.198 120.096C118.615 118.618 113.429 114.482 112.833 114.175C107.627 111.389 108.612 113.005 105.159 116.27C103.274 113.613 91.8482 114.361 89.065 114.175C84.9112 111.003 77.6378 109.816 83.7016 103.622C83.0529 102.105 81.6487 100.738 83.2883 99.1911L86.2602 99.836L83.5358 96.1296C83.4085 96.2187 77.6162 94.3297 81.0601 93.5523C81.0961 92.4572 80.9292 89.989 82.2157 89.3628L79 86C80.2433 86.0868 81.2943 86.8173 82.7934 87.7107C86.5208 89.7005 85.1719 91.5954 86.8788 93.6321C89.2308 95.3921 89.7605 94.4212 89.7257 97.1368C92.5617 103.732 102.298 108.529 105.821 113.33C108.973 108.909 110.366 111.414 114.735 112C116.79 114.068 120.652 118.773 120.924 121.788C122.615 119.685 125.1 126.104 126 126.743H125.998Z" stroke="white" stroke-width="0.5" stroke-miterlimit="10"/>
<path d="M216.954 128.308C216.848 128.567 216.709 128.853 216.563 129.156C212.285 126.827 212.879 136.769 210.487 132.453C209.145 129.279 207.918 133.755 206.008 133.305C205.138 133.183 205.263 130.624 204.144 131.111C201.33 132.088 202.762 138.237 200.785 140.132C199.12 143.91 202.386 146.549 197.302 145.616C196.059 145.495 194.069 144.521 194.069 144.521L193.821 146.471L188.969 143.179C188.366 143.94 189.783 153.515 184.741 148.908C184.371 151.894 184.469 150.081 181.008 150.981C179.268 151.59 182.998 152.687 183.994 154.027C184.988 155.368 182.872 160 182.872 160L179.018 158.416C179.018 158.416 180.511 156.221 180.262 155.612C180.184 154.438 173.107 155.017 172.426 153.539L172.923 151.468C168.045 145.315 174.743 147.937 175.909 143.91C175.613 140.854 175.589 140.702 177.035 139.279C176.779 134.847 177.22 136.389 180.483 137.45C180.483 137.45 183.358 135.5 183.73 135.135C185.985 131.706 191.825 130.14 183.371 128.431C182.749 128.674 181.008 131.356 178.893 130.625C172.651 127.994 173.662 123.719 172.924 119.288C170.743 117.463 170.594 121.206 170.436 121.849C164.757 121.706 165.057 120.715 164.964 126.602L157.874 126.481C157.125 125.884 160.031 123.646 159.243 122.945C158.286 119.83 152.873 125.285 153.396 127.09C154.141 128.796 155.137 130.747 153.644 130.747C150.237 131.329 149.718 128.057 150.162 126.359L139.589 120.142L136.978 122.702C135.477 122.54 135.86 117.856 135.611 117.338C135.611 117.338 132.501 115.144 132.376 113.316C132.252 111.487 132.128 109.171 132.128 109.171L123.327 111.844C121.054 107.294 114.148 101.413 115.087 97.349L119.814 94.1793C115.852 80.8122 117.503 83.0464 125.413 71.5078C127.781 66.6834 134.482 66.2281 131.256 63.3411C129.219 63.5433 125.852 62.9567 124.044 59.8047C113.764 53.3589 144.244 54.505 145.254 52.7415C154.286 53.6913 170.367 57.2134 177.9 50C180.188 53.5754 185.694 59.8083 189.654 61.5197L194.691 71.2097L200.474 69.1979C200.624 75.8259 198.607 87.3183 199.541 93.6967C208.485 94.3662 209.47 91.5324 210.174 101.925C210.219 102.611 213.829 114.587 213.555 115.262C213.555 115.264 215.877 115.589 215.877 115.589L216.291 117.296C211.711 120.019 217.568 124.494 216.954 128.307V128.308Z" fill="#1B9C9F"/>
<path d="M216.954 128.308C216.848 128.567 216.709 128.853 216.563 129.156C212.285 126.827 212.879 136.769 210.487 132.453C209.145 129.279 207.918 133.755 206.008 133.305C205.138 133.183 205.263 130.624 204.144 131.111C201.33 132.088 202.762 138.237 200.785 140.132C199.12 143.91 202.386 146.549 197.302 145.616C196.059 145.495 194.069 144.521 194.069 144.521L193.821 146.471L188.969 143.179C188.366 143.94 189.783 153.515 184.741 148.908C184.371 151.894 184.469 150.081 181.008 150.981C179.268 151.59 182.998 152.687 183.994 154.027C184.988 155.368 182.872 160 182.872 160L179.018 158.416C179.018 158.416 180.511 156.221 180.262 155.612C180.184 154.438 173.107 155.017 172.426 153.539L172.923 151.468C168.045 145.315 174.743 147.937 175.909 143.91C175.613 140.854 175.589 140.702 177.035 139.279C176.779 134.847 177.22 136.389 180.483 137.45C180.483 137.45 183.358 135.5 183.73 135.135C185.985 131.706 191.825 130.14 183.371 128.431C182.749 128.674 181.008 131.356 178.893 130.625C172.651 127.994 173.662 123.719 172.924 119.288C170.743 117.463 170.594 121.206 170.436 121.849C164.757 121.706 165.057 120.715 164.964 126.602L157.874 126.481C157.125 125.884 160.031 123.646 159.243 122.945C158.286 119.83 152.873 125.285 153.396 127.09C154.141 128.796 155.137 130.747 153.644 130.747C150.237 131.329 149.718 128.057 150.162 126.359L139.589 120.142L136.978 122.702C135.477 122.54 135.86 117.856 135.611 117.338C135.611 117.338 132.501 115.144 132.376 113.316C132.252 111.487 132.128 109.171 132.128 109.171L123.327 111.844C121.054 107.294 114.148 101.413 115.087 97.349L119.814 94.1793C115.852 80.8122 117.503 83.0464 125.413 71.5078C127.781 66.6834 134.482 66.2281 131.256 63.3411C129.219 63.5433 125.852 62.9567 124.044 59.8047C113.764 53.3589 144.244 54.505 145.254 52.7415C154.286 53.6913 170.367 57.2134 177.9 50C180.188 53.5754 185.694 59.8083 189.654 61.5197L194.691 71.2097L200.474 69.1979C200.624 75.8259 198.607 87.3183 199.541 93.6967C208.485 94.3662 209.47 91.5324 210.174 101.925C210.219 102.611 213.829 114.587 213.555 115.262C213.555 115.264 215.877 115.589 215.877 115.589L216.291 117.296C211.711 120.019 217.568 124.494 216.954 128.307V128.308Z" fill="white" fill-opacity="0.8"/>
<path d="M216.954 128.308C216.848 128.567 216.709 128.853 216.563 129.156C212.285 126.827 212.879 136.769 210.487 132.453C209.145 129.279 207.918 133.755 206.008 133.305C205.138 133.183 205.263 130.624 204.144 131.111C201.33 132.088 202.762 138.237 200.785 140.132C199.12 143.91 202.386 146.549 197.302 145.616C196.059 145.495 194.069 144.521 194.069 144.521L193.821 146.471L188.969 143.179C188.366 143.94 189.783 153.515 184.741 148.908C184.371 151.894 184.469 150.081 181.008 150.981C179.268 151.59 182.998 152.687 183.994 154.027C184.988 155.368 182.872 160 182.872 160L179.018 158.416C179.018 158.416 180.511 156.221 180.262 155.612C180.184 154.438 173.107 155.017 172.426 153.539L172.923 151.468C168.045 145.315 174.743 147.937 175.909 143.91C175.613 140.854 175.589 140.702 177.035 139.279C176.779 134.847 177.22 136.389 180.483 137.45C180.483 137.45 183.358 135.5 183.73 135.135C185.985 131.706 191.825 130.14 183.371 128.431C182.749 128.674 181.008 131.356 178.893 130.625C172.651 127.994 173.662 123.719 172.924 119.288C170.743 117.463 170.594 121.206 170.436 121.849C164.757 121.706 165.057 120.715 164.964 126.602L157.874 126.481C157.125 125.884 160.031 123.646 159.243 122.945C158.286 119.83 152.873 125.285 153.396 127.09C154.141 128.796 155.137 130.747 153.644 130.747C150.237 131.329 149.718 128.057 150.162 126.359L139.589 120.142L136.978 122.702C135.477 122.54 135.86 117.856 135.611 117.338C135.611 117.338 132.501 115.144 132.376 113.316C132.252 111.487 132.128 109.171 132.128 109.171L123.327 111.844C121.054 107.294 114.148 101.413 115.087 97.349L119.814 94.1793C115.852 80.8122 117.503 83.0464 125.413 71.5078C127.781 66.6834 134.482 66.2281 131.256 63.3411C129.219 63.5433 125.852 62.9567 124.044 59.8047C113.764 53.3589 144.244 54.505 145.254 52.7415C154.286 53.6913 170.367 57.2134 177.9 50C180.188 53.5754 185.694 59.8083 189.654 61.5197L194.691 71.2097L200.474 69.1979C200.624 75.8259 198.607 87.3183 199.541 93.6967C208.485 94.3662 209.47 91.5324 210.174 101.925C210.219 102.611 213.829 114.587 213.555 115.262C213.555 115.264 215.877 115.589 215.877 115.589L216.291 117.296C211.711 120.019 217.568 124.494 216.954 128.307V128.308Z" stroke="white" stroke-width="0.5" stroke-miterlimit="10"/>
<path d="M186.754 132.005C186.383 132.74 185.268 133.597 184.403 133.841C183.538 134.086 183.407 135.311 183.036 135.678C182.666 136.045 179.81 138.004 179.81 138.004C176.444 136.853 176.169 135.495 176.384 139.841C173.202 142.732 178.016 146.001 170.94 147.554C169.639 151.463 173.291 150.414 171.804 154.165C172.351 155.617 179.522 155.048 179.589 156.245C178.234 160.619 177.678 158.402 182.183 160.654C180.27 163.668 174.009 164.019 175.009 168.49C172.975 170.856 167.438 168.344 166.544 173.477C166.459 172.514 162.599 174.025 162.166 174C153.723 167.509 137.03 151.779 127.689 145.719L125.96 135.923C125.822 135.576 121.676 132.635 122.02 132.066L125.713 130.659C126.796 126.77 124.156 124.023 122.218 121.119C128.245 118.76 127.165 119.186 123.025 112.284C138.153 106.968 127.214 111.815 135.228 117.804C135.551 118.389 135.044 122.981 136.587 123.19L139.181 120.619L149.686 126.863C149.289 128.611 149.7 131.837 153.145 131.27C154.628 131.27 153.639 129.312 152.898 127.597C152.359 125.774 157.775 120.31 158.705 123.435C159.516 124.096 156.564 126.428 157.347 126.987L164.391 127.109C164.485 121.234 164.169 122.176 169.827 122.335C170.163 117.403 173.703 118.746 172.544 124.416C173.12 129.251 179.779 133.692 182.677 128.944C183.98 129.038 188.036 129.856 186.752 132.006L186.754 132.005Z" fill="#1B9C9F"/>
<path d="M186.754 132.005C186.383 132.74 185.268 133.597 184.403 133.841C183.538 134.086 183.407 135.311 183.036 135.678C182.666 136.045 179.81 138.004 179.81 138.004C176.444 136.853 176.169 135.495 176.384 139.841C173.202 142.732 178.016 146.001 170.94 147.554C169.639 151.463 173.291 150.414 171.804 154.165C172.351 155.617 179.522 155.048 179.589 156.245C178.234 160.619 177.678 158.402 182.183 160.654C180.27 163.668 174.009 164.019 175.009 168.49C172.975 170.856 167.438 168.344 166.544 173.477C166.459 172.514 162.599 174.025 162.166 174C153.723 167.509 137.03 151.779 127.689 145.719L125.96 135.923C125.822 135.576 121.676 132.635 122.02 132.066L125.713 130.659C126.796 126.77 124.156 124.023 122.218 121.119C128.245 118.76 127.165 119.186 123.025 112.284C138.153 106.968 127.214 111.815 135.228 117.804C135.551 118.389 135.044 122.981 136.587 123.19L139.181 120.619L149.686 126.863C149.289 128.611 149.7 131.837 153.145 131.27C154.628 131.27 153.639 129.312 152.898 127.597C152.359 125.774 157.775 120.31 158.705 123.435C159.516 124.096 156.564 126.428 157.347 126.987L164.391 127.109C164.485 121.234 164.169 122.176 169.827 122.335C170.163 117.403 173.703 118.746 172.544 124.416C173.12 129.251 179.779 133.692 182.677 128.944C183.98 129.038 188.036 129.856 186.752 132.006L186.754 132.005Z" fill="white" fill-opacity="0.8"/>
<path d="M186.754 132.005C186.383 132.74 185.268 133.597 184.403 133.841C183.538 134.086 183.407 135.311 183.036 135.678C182.666 136.045 179.81 138.004 179.81 138.004C176.444 136.853 176.169 135.495 176.384 139.841C173.202 142.732 178.016 146.001 170.94 147.554C169.639 151.463 173.291 150.414 171.804 154.165C172.351 155.617 179.522 155.048 179.589 156.245C178.234 160.619 177.678 158.402 182.183 160.654C180.27 163.668 174.009 164.019 175.009 168.49C172.975 170.856 167.438 168.344 166.544 173.477C166.459 172.514 162.599 174.025 162.166 174C153.723 167.509 137.03 151.779 127.689 145.719L125.96 135.923C125.822 135.576 121.676 132.635 122.02 132.066L125.713 130.659C126.796 126.77 124.156 124.023 122.218 121.119C128.245 118.76 127.165 119.186 123.025 112.284C138.153 106.968 127.214 111.815 135.228 117.804C135.551 118.389 135.044 122.981 136.587 123.19L139.181 120.619L149.686 126.863C149.289 128.611 149.7 131.837 153.145 131.27C154.628 131.27 153.639 129.312 152.898 127.597C152.359 125.774 157.775 120.31 158.705 123.435C159.516 124.096 156.564 126.428 157.347 126.987L164.391 127.109C164.485 121.234 164.169 122.176 169.827 122.335C170.163 117.403 173.703 118.746 172.544 124.416C173.12 129.251 179.779 133.692 182.677 128.944C183.98 129.038 188.036 129.856 186.752 132.006L186.754 132.005Z" stroke="white" stroke-width="0.5" stroke-miterlimit="10"/>
<path d="M235.489 176.358C234.741 177.453 232.746 175.628 232.746 175.628C230.44 175.8 230.862 179.378 230.501 180.863C230.501 180.863 227.382 181.35 226.261 181.472C225.138 181.593 226.261 184.516 226.261 184.516C225.181 192.947 221.204 183.849 221.146 193.648C220.648 195.11 216.906 194.866 215.784 194.623C215.057 194.466 213.913 195.94 213.196 197C208.573 196.283 206.557 194.977 203.561 192.187L199.072 190.848C192.779 195.432 185.497 185.582 180.737 182.69L172.88 179.28C170.657 176.716 164.536 172.547 170.619 170.026C172.366 170.026 175.741 169.905 176.115 168.687C175.114 164.238 181.422 163.896 183.355 160.893L192.337 161.258C195.862 160.41 196.511 157.98 198.448 163.573C199.437 167.922 205.222 159.816 205.433 163.206C204.301 165.934 206.692 165.813 206.929 163.328C207.854 161.087 210.217 165.632 211.544 164.424C215.135 158.298 218.4 161.194 222.02 165.032C223.838 160.532 225.347 161.999 229.004 163.45C229.026 163.783 229.575 164.144 228.994 164.302V166.007L235.484 168.077C235.723 171.266 236.835 170.692 233.994 172.825C235.075 173.237 236.892 174.425 235.489 176.357V176.358Z" fill="#1B9C9F"/>
<path d="M235.489 176.358C234.741 177.453 232.746 175.628 232.746 175.628C230.44 175.8 230.862 179.378 230.501 180.863C230.501 180.863 227.382 181.35 226.261 181.472C225.138 181.593 226.261 184.516 226.261 184.516C225.181 192.947 221.204 183.849 221.146 193.648C220.648 195.11 216.906 194.866 215.784 194.623C215.057 194.466 213.913 195.94 213.196 197C208.573 196.283 206.557 194.977 203.561 192.187L199.072 190.848C192.779 195.432 185.497 185.582 180.737 182.69L172.88 179.28C170.657 176.716 164.536 172.547 170.619 170.026C172.366 170.026 175.741 169.905 176.115 168.687C175.114 164.238 181.422 163.896 183.355 160.893L192.337 161.258C195.862 160.41 196.511 157.98 198.448 163.573C199.437 167.922 205.222 159.816 205.433 163.206C204.301 165.934 206.692 165.813 206.929 163.328C207.854 161.087 210.217 165.632 211.544 164.424C215.135 158.298 218.4 161.194 222.02 165.032C223.838 160.532 225.347 161.999 229.004 163.45C229.026 163.783 229.575 164.144 228.994 164.302V166.007L235.484 168.077C235.723 171.266 236.835 170.692 233.994 172.825C235.075 173.237 236.892 174.425 235.489 176.357V176.358Z" fill="white" fill-opacity="0.8"/>
<path d="M235.489 176.358C234.741 177.453 232.746 175.628 232.746 175.628C230.44 175.8 230.862 179.378 230.501 180.863C230.501 180.863 227.382 181.35 226.261 181.472C225.138 181.593 226.261 184.516 226.261 184.516C225.181 192.947 221.204 183.849 221.146 193.648C220.648 195.11 216.906 194.866 215.784 194.623C215.057 194.466 213.913 195.94 213.196 197C208.573 196.283 206.557 194.977 203.561 192.187L199.072 190.848C192.779 195.432 185.497 185.582 180.737 182.69L172.88 179.28C170.657 176.716 164.536 172.547 170.619 170.026C172.366 170.026 175.741 169.905 176.115 168.687C175.114 164.238 181.422 163.896 183.355 160.893L192.337 161.258C195.862 160.41 196.511 157.98 198.448 163.573C199.437 167.922 205.222 159.816 205.433 163.206C204.301 165.934 206.692 165.813 206.929 163.328C207.854 161.087 210.217 165.632 211.544 164.424C215.135 158.298 218.4 161.194 222.02 165.032C223.838 160.532 225.347 161.999 229.004 163.45C229.026 163.783 229.575 164.144 228.994 164.302V166.007L235.484 168.077C235.723 171.266 236.835 170.692 233.994 172.825C235.075 173.237 236.892 174.425 235.489 176.357V176.358Z" stroke="white" stroke-width="0.5" stroke-miterlimit="10"/>
<path d="M249.998 191.58C249.102 195.351 248.964 198.492 245.669 198.52C243.148 207.899 239.023 205.354 239.609 216.783C238.073 218.376 235.519 215.259 233.795 217.27C232.523 216.547 233.032 215.609 230.951 216.905C225.972 219.874 227.407 216.036 224.024 214.47C220.31 212.961 221.577 213.576 217.345 214.694C214.791 214.777 213.893 214.333 212.494 214.432C212.561 213.362 212.067 212.38 213.621 212.523C211.163 211.131 212.216 205.437 212.271 203.269C213.889 200.923 216.67 198.805 212.427 197.002C213.947 192.87 218.227 196.306 220.313 193.651C220.809 192.19 220.313 189.389 221.056 188.781C225.049 188.829 224.774 187.232 225.385 184.52C225.385 184.52 224.271 181.597 225.385 181.475C226.497 181.354 229.59 180.867 229.59 180.867C229.952 179.437 229.505 175.815 231.816 175.632C234.777 178.782 236.52 173.621 233.054 172.831L235.223 171C236.914 172.266 241.278 171.696 243.195 171.37C243.97 171.784 246.64 176.085 243.566 176.242L243.689 183.059L246.286 187.93C246.286 187.93 250.121 189.878 249.997 191.582L249.998 191.58Z" fill="#1B9C9F"/>
<path d="M249.998 191.58C249.102 195.351 248.964 198.492 245.669 198.52C243.148 207.899 239.023 205.354 239.609 216.783C238.073 218.376 235.519 215.259 233.795 217.27C232.523 216.547 233.032 215.609 230.951 216.905C225.972 219.874 227.407 216.036 224.024 214.47C220.31 212.961 221.577 213.576 217.345 214.694C214.791 214.777 213.893 214.333 212.494 214.432C212.561 213.362 212.067 212.38 213.621 212.523C211.163 211.131 212.216 205.437 212.271 203.269C213.889 200.923 216.67 198.805 212.427 197.002C213.947 192.87 218.227 196.306 220.313 193.651C220.809 192.19 220.313 189.389 221.056 188.781C225.049 188.829 224.774 187.232 225.385 184.52C225.385 184.52 224.271 181.597 225.385 181.475C226.497 181.354 229.59 180.867 229.59 180.867C229.952 179.437 229.505 175.815 231.816 175.632C234.777 178.782 236.52 173.621 233.054 172.831L235.223 171C236.914 172.266 241.278 171.696 243.195 171.37C243.97 171.784 246.64 176.085 243.566 176.242L243.689 183.059L246.286 187.93C246.286 187.93 250.121 189.878 249.997 191.582L249.998 191.58Z" fill="white" fill-opacity="0.8"/>
<path d="M249.998 191.58C249.102 195.351 248.964 198.492 245.669 198.52C243.148 207.899 239.023 205.354 239.609 216.783C238.073 218.376 235.519 215.259 233.795 217.27C232.523 216.547 233.032 215.609 230.951 216.905C225.972 219.874 227.407 216.036 224.024 214.47C220.31 212.961 221.577 213.576 217.345 214.694C214.791 214.777 213.893 214.333 212.494 214.432C212.561 213.362 212.067 212.38 213.621 212.523C211.163 211.131 212.216 205.437 212.271 203.269C213.889 200.923 216.67 198.805 212.427 197.002C213.947 192.87 218.227 196.306 220.313 193.651C220.809 192.19 220.313 189.389 221.056 188.781C225.049 188.829 224.774 187.232 225.385 184.52C225.385 184.52 224.271 181.597 225.385 181.475C226.497 181.354 229.59 180.867 229.59 180.867C229.952 179.437 229.505 175.815 231.816 175.632C234.777 178.782 236.52 173.621 233.054 172.831L235.223 171C236.914 172.266 241.278 171.696 243.195 171.37C243.97 171.784 246.64 176.085 243.566 176.242L243.689 183.059L246.286 187.93C246.286 187.93 250.121 189.878 249.997 191.582L249.998 191.58Z" stroke="white" stroke-width="0.5" stroke-miterlimit="10"/>
<path d="M230.603 154.267C230.677 154.713 232.39 156.877 231.265 157.349C231.653 158.329 230.317 159.392 229.687 159.938C229.715 160.385 229.847 165.534 228.726 163.143C224.969 161.657 223.599 160.179 221.725 164.745C221.725 164.745 218.099 161.171 217.599 160.923C214.049 159.342 213.142 161.917 211.223 164.13C209.894 165.369 207.521 160.737 206.596 163.02C206.346 164.129 206.095 164.868 205.345 164.991C204.595 165.116 204.72 163.882 205.095 162.896C204.883 159.469 199.084 167.665 198.094 163.266C197.093 160.677 196.094 159.445 196.094 159.445C193.462 161.312 185.986 160.763 182.964 160.554C187.376 152.07 180.132 154.183 181.088 151.432C184.576 150.49 184.459 152.415 184.84 149.336C189.84 153.851 188.545 144.554 189.092 143.543L193.969 146.871C194.125 143.69 194.456 145.593 197.469 146.008C202.556 146.93 199.33 144.314 200.97 140.46C202.943 138.533 201.535 132.336 204.347 131.337C205.471 130.845 205.346 133.433 206.221 133.556C208.144 134.017 209.369 129.48 210.723 132.694C213.112 137.044 212.554 127.013 216.831 129.361C213.979 133.248 219.6 133.393 218.85 136.021C217.974 137.624 216.473 139.35 218.099 140.336C219.725 141.322 221.475 140.213 221.725 141.322C221.975 142.431 220.975 143.911 222.6 144.28C226.973 144.815 222.048 146.345 225.226 148.595C227.461 151.016 231.473 146.406 232.852 149.582C233.895 152.913 229.022 151.214 230.602 154.266L230.603 154.267Z" fill="#1B9C9F"/>
<path d="M230.603 154.267C230.677 154.713 232.39 156.877 231.265 157.349C231.653 158.329 230.317 159.392 229.687 159.938C229.715 160.385 229.847 165.534 228.726 163.143C224.969 161.657 223.599 160.179 221.725 164.745C221.725 164.745 218.099 161.171 217.599 160.923C214.049 159.342 213.142 161.917 211.223 164.13C209.894 165.369 207.521 160.737 206.596 163.02C206.346 164.129 206.095 164.868 205.345 164.991C204.595 165.116 204.72 163.882 205.095 162.896C204.883 159.469 199.084 167.665 198.094 163.266C197.093 160.677 196.094 159.445 196.094 159.445C193.462 161.312 185.986 160.763 182.964 160.554C187.376 152.07 180.132 154.183 181.088 151.432C184.576 150.49 184.459 152.415 184.84 149.336C189.84 153.851 188.545 144.554 189.092 143.543L193.969 146.871C194.125 143.69 194.456 145.593 197.469 146.008C202.556 146.93 199.33 144.314 200.97 140.46C202.943 138.533 201.535 132.336 204.347 131.337C205.471 130.845 205.346 133.433 206.221 133.556C208.144 134.017 209.369 129.48 210.723 132.694C213.112 137.044 212.554 127.013 216.831 129.361C213.979 133.248 219.6 133.393 218.85 136.021C217.974 137.624 216.473 139.35 218.099 140.336C219.725 141.322 221.475 140.213 221.725 141.322C221.975 142.431 220.975 143.911 222.6 144.28C226.973 144.815 222.048 146.345 225.226 148.595C227.461 151.016 231.473 146.406 232.852 149.582C233.895 152.913 229.022 151.214 230.602 154.266L230.603 154.267Z" fill="white" fill-opacity="0.8"/>
<path d="M230.603 154.267C230.677 154.713 232.39 156.877 231.265 157.349C231.653 158.329 230.317 159.392 229.687 159.938C229.715 160.385 229.847 165.534 228.726 163.143C224.969 161.657 223.599 160.179 221.725 164.745C221.725 164.745 218.099 161.171 217.599 160.923C214.049 159.342 213.142 161.917 211.223 164.13C209.894 165.369 207.521 160.737 206.596 163.02C206.346 164.129 206.095 164.868 205.345 164.991C204.595 165.116 204.72 163.882 205.095 162.896C204.883 159.469 199.084 167.665 198.094 163.266C197.093 160.677 196.094 159.445 196.094 159.445C193.462 161.312 185.986 160.763 182.964 160.554C187.376 152.07 180.132 154.183 181.088 151.432C184.576 150.49 184.459 152.415 184.84 149.336C189.84 153.851 188.545 144.554 189.092 143.543L193.969 146.871C194.125 143.69 194.456 145.593 197.469 146.008C202.556 146.93 199.33 144.314 200.97 140.46C202.943 138.533 201.535 132.336 204.347 131.337C205.471 130.845 205.346 133.433 206.221 133.556C208.144 134.017 209.369 129.48 210.723 132.694C213.112 137.044 212.554 127.013 216.831 129.361C213.979 133.248 219.6 133.393 218.85 136.021C217.974 137.624 216.473 139.35 218.099 140.336C219.725 141.322 221.475 140.213 221.725 141.322C221.975 142.431 220.975 143.911 222.6 144.28C226.973 144.815 222.048 146.345 225.226 148.595C227.461 151.016 231.473 146.406 232.852 149.582C233.895 152.913 229.022 151.214 230.602 154.266L230.603 154.267Z" stroke="white" stroke-width="0.5" stroke-miterlimit="10"/>
<path d="M256.538 142.144C254.225 143.56 259.173 144.801 258.389 147.154C256.892 148.915 256.92 144.133 255.304 144.71C256.785 151.372 256.084 146.431 253.203 148.742C253.124 150.775 254.351 153.75 251.721 154.852C251.721 154.852 251.721 156.561 249.868 156.317C244.786 156.08 233.932 153.809 231.275 157C227.471 149.974 232.528 154.209 232.331 149.597C230.987 146.437 226.981 151.029 224.797 148.618C221.655 146.391 226.525 144.871 222.202 144.342C220.598 143.975 221.585 142.509 221.338 141.41C221.091 140.309 219.362 141.41 217.757 140.431C215.127 137.728 221.842 135.899 216.15 132.978C215.175 131.757 216.359 129.994 216.893 128.702C216.958 124.669 210.767 117.056 220.434 121.247C225.528 121.79 223.136 125.158 225.619 126.055C227.373 124.805 229.785 125.951 231.3 125.567C232.482 123.47 235.142 125.407 236.075 122.959C236.694 119.565 238.739 120.876 239.37 118.153C239.37 116.931 241.18 116.768 241.674 117.256C242.447 125.025 236.039 122.199 246.924 128.01C246.411 129.699 242.737 130.047 242.497 131.431C243.238 133.659 240.8 136.395 241.344 138.03C242.533 141.123 247.166 138.584 248.261 137.459C251.156 136.874 251.383 141.03 254.313 140.921C256.12 139.955 258.526 140.069 260 140.556V142.266C257.988 141.769 258.217 143.23 256.537 142.144H256.538Z" fill="#1B9C9F"/>
<path d="M256.538 142.144C254.225 143.56 259.173 144.801 258.389 147.154C256.892 148.915 256.92 144.133 255.304 144.71C256.785 151.372 256.084 146.431 253.203 148.742C253.124 150.775 254.351 153.75 251.721 154.852C251.721 154.852 251.721 156.561 249.868 156.317C244.786 156.08 233.932 153.809 231.275 157C227.471 149.974 232.528 154.209 232.331 149.597C230.987 146.437 226.981 151.029 224.797 148.618C221.655 146.391 226.525 144.871 222.202 144.342C220.598 143.975 221.585 142.509 221.338 141.41C221.091 140.309 219.362 141.41 217.757 140.431C215.127 137.728 221.842 135.899 216.15 132.978C215.175 131.757 216.359 129.994 216.893 128.702C216.958 124.669 210.767 117.056 220.434 121.247C225.528 121.79 223.136 125.158 225.619 126.055C227.373 124.805 229.785 125.951 231.3 125.567C232.482 123.47 235.142 125.407 236.075 122.959C236.694 119.565 238.739 120.876 239.37 118.153C239.37 116.931 241.18 116.768 241.674 117.256C242.447 125.025 236.039 122.199 246.924 128.01C246.411 129.699 242.737 130.047 242.497 131.431C243.238 133.659 240.8 136.395 241.344 138.03C242.533 141.123 247.166 138.584 248.261 137.459C251.156 136.874 251.383 141.03 254.313 140.921C256.12 139.955 258.526 140.069 260 140.556V142.266C257.988 141.769 258.217 143.23 256.537 142.144H256.538Z" fill="white" fill-opacity="0.8"/>
<path d="M256.538 142.144C254.225 143.56 259.173 144.801 258.389 147.154C256.892 148.915 256.92 144.133 255.304 144.71C256.785 151.372 256.084 146.431 253.203 148.742C253.124 150.775 254.351 153.75 251.721 154.852C251.721 154.852 251.721 156.561 249.868 156.317C244.786 156.08 233.932 153.809 231.275 157C227.471 149.974 232.528 154.209 232.331 149.597C230.987 146.437 226.981 151.029 224.797 148.618C221.655 146.391 226.525 144.871 222.202 144.342C220.598 143.975 221.585 142.509 221.338 141.41C221.091 140.309 219.362 141.41 217.757 140.431C215.127 137.728 221.842 135.899 216.15 132.978C215.175 131.757 216.359 129.994 216.893 128.702C216.958 124.669 210.767 117.056 220.434 121.247C225.528 121.79 223.136 125.158 225.619 126.055C227.373 124.805 229.785 125.951 231.3 125.567C232.482 123.47 235.142 125.407 236.075 122.959C236.694 119.565 238.739 120.876 239.37 118.153C239.37 116.931 241.18 116.768 241.674 117.256C242.447 125.025 236.039 122.199 246.924 128.01C246.411 129.699 242.737 130.047 242.497 131.431C243.238 133.659 240.8 136.395 241.344 138.03C242.533 141.123 247.166 138.584 248.261 137.459C251.156 136.874 251.383 141.03 254.313 140.921C256.12 139.955 258.526 140.069 260 140.556V142.266C257.988 141.769 258.217 143.23 256.537 142.144H256.538Z" stroke="white" stroke-width="0.5" stroke-miterlimit="10"/>
<path d="M265.964 137.194C266.331 139.098 263.844 136.855 261.707 137.685C259.361 137.824 253.004 140.599 250.996 137.645C249.852 136.453 249.36 136.612 248.952 136.93C247.877 138.011 243.255 140.515 242.084 137.486C241.524 135.941 243.973 133.176 243.227 131.048C243.459 129.7 247.119 129.355 247.623 127.711C249.645 128.731 249.38 129.245 250.342 128.029L252.222 129.062C252.222 129.062 253.449 127.313 252.632 126.28C251.205 125.062 251.739 122.274 251.405 120.876L252.777 120C253.446 121.063 254.315 121.75 255.492 122.068C256.676 124.08 259.9 126.599 261.952 127.87C262.277 129.407 261.237 133.026 263.424 133.434C261.919 134.56 264.284 137.156 265.964 137.194Z" fill="#1B9C9F"/>
<path d="M265.964 137.194C266.331 139.098 263.844 136.855 261.707 137.685C259.361 137.824 253.004 140.599 250.996 137.645C249.852 136.453 249.36 136.612 248.952 136.93C247.877 138.011 243.255 140.515 242.084 137.486C241.524 135.941 243.973 133.176 243.227 131.048C243.459 129.7 247.119 129.355 247.623 127.711C249.645 128.731 249.38 129.245 250.342 128.029L252.222 129.062C252.222 129.062 253.449 127.313 252.632 126.28C251.205 125.062 251.739 122.274 251.405 120.876L252.777 120C253.446 121.063 254.315 121.75 255.492 122.068C256.676 124.08 259.9 126.599 261.952 127.87C262.277 129.407 261.237 133.026 263.424 133.434C261.919 134.56 264.284 137.156 265.964 137.194Z" fill="white" fill-opacity="0.8"/>
<path d="M265.964 137.194C266.331 139.098 263.844 136.855 261.707 137.685C259.361 137.824 253.004 140.599 250.996 137.645C249.852 136.453 249.36 136.612 248.952 136.93C247.877 138.011 243.255 140.515 242.084 137.486C241.524 135.941 243.973 133.176 243.227 131.048C243.459 129.7 247.119 129.355 247.623 127.711C249.645 128.731 249.38 129.245 250.342 128.029L252.222 129.062C252.222 129.062 253.449 127.313 252.632 126.28C251.205 125.062 251.739 122.274 251.405 120.876L252.777 120C253.446 121.063 254.315 121.75 255.492 122.068C256.676 124.08 259.9 126.599 261.952 127.87C262.277 129.407 261.237 133.026 263.424 133.434C261.919 134.56 264.284 137.156 265.964 137.194Z" stroke="white" stroke-width="0.5" stroke-miterlimit="10"/>
<path d="M300.429 86.1588L294.145 89.1778C294.717 92.2218 293.269 92.5566 290.922 93.0113C287.134 100.678 280.883 100.637 282.076 103.534C284.653 103.68 286.105 103.553 287.678 105.96C286.305 109.191 289.325 110.843 289.435 113.975C289.157 115.838 289.692 117.398 287.533 115.444L286.789 115.933C287.348 120.494 282.406 121.035 278.604 123.519C271.884 128.041 276.502 129.333 268.436 122.908C266.526 123.942 266.306 126.432 266.081 128.29C265.683 128.701 263.411 129.508 264.469 130.37C265.752 130.319 267.773 135.677 266.95 136.366C264.585 136.16 265.312 136.031 266.08 137.712C265.221 139.107 261.63 135.025 263.476 134.205C261.278 133.766 262.306 130.087 261.988 128.493C261.575 127.922 259.673 127.271 258.764 126.209C257.222 124.141 256.537 124.713 255.456 122.539C253.756 121.999 251.606 120.388 254.217 119.44C253.346 116.812 258.626 113.753 260.086 112.669L259.756 108.836C260.943 108.415 265.786 104.94 267.113 105.98L266.782 103.778C271.328 98.1875 281.416 98.7455 283.73 89.8296C286.251 88.5427 286.732 87.9265 289.352 89.7489C291.434 84.41 292.21 85.4761 297.372 82L302 84.7721L300.43 86.1588H300.429Z" fill="#1B9C9F"/>
<path d="M300.429 86.1588L294.145 89.1778C294.717 92.2218 293.269 92.5566 290.922 93.0113C287.134 100.678 280.883 100.637 282.076 103.534C284.653 103.68 286.105 103.553 287.678 105.96C286.305 109.191 289.325 110.843 289.435 113.975C289.157 115.838 289.692 117.398 287.533 115.444L286.789 115.933C287.348 120.494 282.406 121.035 278.604 123.519C271.884 128.041 276.502 129.333 268.436 122.908C266.526 123.942 266.306 126.432 266.081 128.29C265.683 128.701 263.411 129.508 264.469 130.37C265.752 130.319 267.773 135.677 266.95 136.366C264.585 136.16 265.312 136.031 266.08 137.712C265.221 139.107 261.63 135.025 263.476 134.205C261.278 133.766 262.306 130.087 261.988 128.493C261.575 127.922 259.673 127.271 258.764 126.209C257.222 124.141 256.537 124.713 255.456 122.539C253.756 121.999 251.606 120.388 254.217 119.44C253.346 116.812 258.626 113.753 260.086 112.669L259.756 108.836C260.943 108.415 265.786 104.94 267.113 105.98L266.782 103.778C271.328 98.1875 281.416 98.7455 283.73 89.8296C286.251 88.5427 286.732 87.9265 289.352 89.7489C291.434 84.41 292.21 85.4761 297.372 82L302 84.7721L300.43 86.1588H300.429Z" fill="white" fill-opacity="0.8"/>
<path d="M300.429 86.1588L294.145 89.1778C294.717 92.2218 293.269 92.5566 290.922 93.0113C287.134 100.678 280.883 100.637 282.076 103.534C284.653 103.68 286.105 103.553 287.678 105.96C286.305 109.191 289.325 110.843 289.435 113.975C289.157 115.838 289.692 117.398 287.533 115.444L286.789 115.933C287.348 120.494 282.406 121.035 278.604 123.519C271.884 128.041 276.502 129.333 268.436 122.908C266.526 123.942 266.306 126.432 266.081 128.29C265.683 128.701 263.411 129.508 264.469 130.37C265.752 130.319 267.773 135.677 266.95 136.366C264.585 136.16 265.312 136.031 266.08 137.712C265.221 139.107 261.63 135.025 263.476 134.205C261.278 133.766 262.306 130.087 261.988 128.493C261.575 127.922 259.673 127.271 258.764 126.209C257.222 124.141 256.537 124.713 255.456 122.539C253.756 121.999 251.606 120.388 254.217 119.44C253.346 116.812 258.626 113.753 260.086 112.669L259.756 108.836C260.943 108.415 265.786 104.94 267.113 105.98L266.782 103.778C271.328 98.1875 281.416 98.7455 283.73 89.8296C286.251 88.5427 286.732 87.9265 289.352 89.7489C291.434 84.41 292.21 85.4761 297.372 82L302 84.7721L300.43 86.1588H300.429Z" stroke="white" stroke-width="0.5" stroke-miterlimit="10"/>
<path d="M323 112.671C322.599 118.918 315.222 114.325 312.125 117.451C304.966 128.454 305.758 119.187 297.096 122.07C295.306 122.841 294.522 122.781 292.795 121.912C291.692 121.306 292.18 120.777 291.919 120.12C290.723 118.082 288.081 115.996 289.08 113.548C288.078 108.548 284.028 106.555 291 103.672C298.008 108.064 288.545 108.362 299.683 110.681C301.767 111.854 302.149 113.432 302.939 110.203C303.91 110.895 304.29 112.946 305.068 110.681L306.947 111.995L306.821 105.423L309.451 107.096L310.203 103.87C309.722 102.333 308.795 99.476 311.58 100.083L311.831 103.291C313.859 101.083 316.79 108.097 317.717 109.488C323.211 106.804 321.698 107.095 322.999 112.671H323Z" fill="#1B9C9F"/>
<path d="M323 112.671C322.599 118.918 315.222 114.325 312.125 117.451C304.966 128.454 305.758 119.187 297.096 122.07C295.306 122.841 294.522 122.781 292.795 121.912C291.692 121.306 292.18 120.777 291.919 120.12C290.723 118.082 288.081 115.996 289.08 113.548C288.078 108.548 284.028 106.555 291 103.672C298.008 108.064 288.545 108.362 299.683 110.681C301.767 111.854 302.149 113.432 302.939 110.203C303.91 110.895 304.29 112.946 305.068 110.681L306.947 111.995L306.821 105.423L309.451 107.096L310.203 103.87C309.722 102.333 308.795 99.476 311.58 100.083L311.831 103.291C313.859 101.083 316.79 108.097 317.717 109.488C323.211 106.804 321.698 107.095 322.999 112.671H323Z" fill="white" fill-opacity="0.8"/>
<path d="M323 112.671C322.599 118.918 315.222 114.325 312.125 117.451C304.966 128.454 305.758 119.187 297.096 122.07C295.306 122.841 294.522 122.781 292.795 121.912C291.692 121.306 292.18 120.777 291.919 120.12C290.723 118.082 288.081 115.996 289.08 113.548C288.078 108.548 284.028 106.555 291 103.672C298.008 108.064 288.545 108.362 299.683 110.681C301.767 111.854 302.149 113.432 302.939 110.203C303.91 110.895 304.29 112.946 305.068 110.681L306.947 111.995L306.821 105.423L309.451 107.096L310.203 103.87C309.722 102.333 308.795 99.476 311.58 100.083L311.831 103.291C313.859 101.083 316.79 108.097 317.717 109.488C323.211 106.804 321.698 107.095 322.999 112.671H323Z" stroke="white" stroke-width="0.5" stroke-miterlimit="10"/>
<path d="M325.993 126.159C326.074 127.848 325.453 127.263 324.43 126.675C323.205 127.351 321.604 127.572 322.21 129.293C321.16 130.079 319.505 131.407 319.741 132.863C317.378 132.889 316.149 134.217 314.806 135.839C313.648 133.815 314.221 132.101 311.844 134.649C305.18 129.99 299.382 136.58 293.213 135.958L290.869 132.386C285.406 132.049 286.262 130.021 290.129 127.625C293.218 122.143 299.86 119.99 305.347 123.065C306.971 123.384 308.682 122.773 309.311 121C313.756 121.177 323.631 121.176 325.993 126.157V126.159Z" fill="#1B9C9F"/>
<path d="M325.993 126.159C326.074 127.848 325.453 127.263 324.43 126.675C323.205 127.351 321.604 127.572 322.21 129.293C321.16 130.079 319.505 131.407 319.741 132.863C317.378 132.889 316.149 134.217 314.806 135.839C313.648 133.815 314.221 132.101 311.844 134.649C305.18 129.99 299.382 136.58 293.213 135.958L290.869 132.386C285.406 132.049 286.262 130.021 290.129 127.625C293.218 122.143 299.86 119.99 305.347 123.065C306.971 123.384 308.682 122.773 309.311 121C313.756 121.177 323.631 121.176 325.993 126.157V126.159Z" fill="white" fill-opacity="0.8"/>
<path d="M325.993 126.159C326.074 127.848 325.453 127.263 324.43 126.675C323.205 127.351 321.604 127.572 322.21 129.293C321.16 130.079 319.505 131.407 319.741 132.863C317.378 132.889 316.149 134.217 314.806 135.839C313.648 133.815 314.221 132.101 311.844 134.649C305.18 129.99 299.382 136.58 293.213 135.958L290.869 132.386C285.406 132.049 286.262 130.021 290.129 127.625C293.218 122.143 299.86 119.99 305.347 123.065C306.971 123.384 308.682 122.773 309.311 121C313.756 121.177 323.631 121.176 325.993 126.157V126.159Z" stroke="white" stroke-width="0.5" stroke-miterlimit="10"/>
<path d="M342.597 116.793C341.355 117.879 336.141 121.017 336.141 121.017C335.736 122.484 336.804 124.514 334.278 123.31L333.284 125.603C332.694 125.715 327.456 121.738 327.698 123.914L329.808 126.931C328.772 129.511 329.054 129.463 326.604 127.964C327.904 124.032 319.848 122.167 317.102 121.822C315.978 121.665 310.337 121.433 310 121.419C312.124 117.269 315.209 116.068 319.503 116.834C321.694 116.948 323.349 115.426 323.497 113.131C325.267 113.341 325.595 112.351 325.835 111C327.099 111.57 330.125 112.781 330.553 114.258C332.643 116.032 345.411 114.668 342.597 116.793Z" fill="#1B9C9F"/>
<path d="M342.597 116.793C341.355 117.879 336.141 121.017 336.141 121.017C335.736 122.484 336.804 124.514 334.278 123.31L333.284 125.603C332.694 125.715 327.456 121.738 327.698 123.914L329.808 126.931C328.772 129.511 329.054 129.463 326.604 127.964C327.904 124.032 319.848 122.167 317.102 121.822C315.978 121.665 310.337 121.433 310 121.419C312.124 117.269 315.209 116.068 319.503 116.834C321.694 116.948 323.349 115.426 323.497 113.131C325.267 113.341 325.595 112.351 325.835 111C327.099 111.57 330.125 112.781 330.553 114.258C332.643 116.032 345.411 114.668 342.597 116.793Z" fill="white" fill-opacity="0.8"/>
<path d="M342.597 116.793C341.355 117.879 336.141 121.017 336.141 121.017C335.736 122.484 336.804 124.514 334.278 123.31L333.284 125.603C332.694 125.715 327.456 121.738 327.698 123.914L329.808 126.931C328.772 129.511 329.054 129.463 326.604 127.964C327.904 124.032 319.848 122.167 317.102 121.822C315.978 121.665 310.337 121.433 310 121.419C312.124 117.269 315.209 116.068 319.503 116.834C321.694 116.948 323.349 115.426 323.497 113.131C325.267 113.341 325.595 112.351 325.835 111C327.099 111.57 330.125 112.781 330.553 114.258C332.643 116.032 345.411 114.668 342.597 116.793Z" stroke="white" stroke-width="0.5" stroke-miterlimit="10"/>
<path d="M292.001 145.174C292.001 145.174 293.135 148.151 293.746 147.994C294.357 147.838 295.23 146.897 295.491 146.583C295.753 146.27 296.538 145.095 295.404 145.016C294.27 144.937 292 145.172 292 145.172L292.001 145.174Z" fill="#1B9C9F"/>
<path d="M292.001 145.174C292.001 145.174 293.135 148.151 293.746 147.994C294.357 147.838 295.23 146.897 295.491 146.583C295.753 146.27 296.538 145.095 295.404 145.016C294.27 144.937 292 145.172 292 145.172L292.001 145.174Z" fill="white" fill-opacity="0.8"/>
<path d="M301.311 141.344C301.045 141.263 301.134 141.022 301.311 140.459C301.488 139.896 301.577 139.977 301.134 139.494C300.691 139.012 301.489 137 301.489 137L304.33 138.69C304.33 138.69 307.17 138.368 306.992 139.253C306.815 140.138 306.105 141.184 306.105 141.184C306.105 141.184 306.903 142.712 306.549 143.196C306.194 143.678 305.572 144 304.596 144C303.619 144 302.643 143.678 302.732 142.954C302.821 142.231 303.708 141.667 302.998 141.587C302.287 141.506 301.312 141.345 301.312 141.345L301.311 141.344Z" fill="#1B9C9F"/>
<path d="M301.311 141.344C301.045 141.263 301.134 141.022 301.311 140.459C301.488 139.896 301.577 139.977 301.134 139.494C300.691 139.012 301.489 137 301.489 137L304.33 138.69C304.33 138.69 307.17 138.368 306.992 139.253C306.815 140.138 306.105 141.184 306.105 141.184C306.105 141.184 306.903 142.712 306.549 143.196C306.194 143.678 305.572 144 304.596 144C303.619 144 302.643 143.678 302.732 142.954C302.821 142.231 303.708 141.667 302.998 141.587C302.287 141.506 301.312 141.345 301.312 141.345L301.311 141.344Z" fill="white" fill-opacity="0.8"/>
<path d="M315 141.823C315 141.823 316.24 139.912 316.653 140.003C317.067 140.095 317.136 141.186 316.723 141.731C316.309 142.277 315 141.823 315 141.823Z" fill="#1B9C9F"/>
<path d="M315 141.823C315 141.823 316.24 139.912 316.653 140.003C317.067 140.095 317.136 141.186 316.723 141.731C316.309 142.277 315 141.823 315 141.823Z" fill="white" fill-opacity="0.8"/>
<circle cx="270" cy="107" r="4" fill="#FF0000" fill-opacity="0.5"/>
<g >
<g clip-path="url(#clip1_4133_145377)" >
<path fill-rule="evenodd" clip-rule="evenodd" d="M151.919 97.0781C153.89 97.0781 155.459 98.6764 155.488 100.647C155.53 103.49 152.047 105.108 151.919 105.108C151.781 105.108 148.35 103.199 148.35 100.647C148.35 98.6762 149.947 97.0781 151.919 97.0781Z" fill="#03C421"/>
<path d="M154.452 100.622C154.452 99.2237 153.318 98.0898 151.919 98.0898C150.52 98.0898 149.387 99.2237 149.387 100.622C149.387 102.021 150.52 103.155 151.919 103.155C153.318 103.155 154.452 102.021 154.452 100.622Z" fill="white"/>
</g>
<g clip-path="url(#clip2_4133_145377)" >
<path fill-rule="evenodd" clip-rule="evenodd" d="M287.436 100.281C289.408 100.281 290.977 101.88 291.006 103.85C291.047 106.693 287.564 108.311 287.436 108.311C287.299 108.311 283.867 106.403 283.867 103.85C283.867 101.879 285.465 100.281 287.436 100.281Z" fill="#03C421"/>
<path d="M289.969 103.825C289.969 102.427 288.835 101.293 287.437 101.293C286.038 101.293 284.904 102.427 284.904 103.825C284.904 105.224 286.038 106.358 287.437 106.358C288.835 106.358 289.969 105.224 289.969 103.825Z" fill="white"/>
</g>
<g clip-path="url(#clip3_4133_145377)" >
<path fill-rule="evenodd" clip-rule="evenodd" d="M237.284 124.82C239.255 124.82 240.824 126.419 240.853 128.39C240.895 131.232 237.412 132.85 237.284 132.85C237.146 132.85 233.715 130.942 233.715 128.39C233.715 126.418 235.313 124.82 237.284 124.82Z" fill="#03C421"/>
<path d="M239.817 128.365C239.817 126.966 238.683 125.832 237.284 125.832C235.886 125.832 234.752 126.966 234.752 128.365C234.752 129.763 235.886 130.897 237.284 130.897C238.683 130.897 239.817 129.763 239.817 128.365Z" fill="white"/>
</g>
<g clip-path="url(#clip4_4133_145377)" >
<path fill-rule="evenodd" clip-rule="evenodd" d="M205.272 134.422C207.243 134.422 208.813 136.02 208.842 137.991C208.883 140.834 205.4 142.451 205.272 142.451C205.135 142.451 201.703 140.543 201.703 137.991C201.703 136.02 203.301 134.422 205.272 134.422Z" fill="#03C421"/>
<path d="M207.805 137.966C207.805 136.567 206.671 135.434 205.273 135.434C203.874 135.434 202.74 136.567 202.74 137.966C202.74 139.365 203.874 140.499 205.273 140.499C206.671 140.499 207.805 139.365 207.805 137.966Z" fill="white"/>
</g>
<g clip-path="url(#clip5_4133_145377)" >
<path fill-rule="evenodd" clip-rule="evenodd" d="M160.454 161.102C162.425 161.102 163.994 162.7 164.023 164.671C164.065 167.513 160.582 169.131 160.454 169.131C160.316 169.131 156.885 167.223 156.885 164.671C156.885 162.7 158.483 161.102 160.454 161.102Z" fill="#03C421"/>
<path d="M162.987 164.646C162.987 163.247 161.853 162.113 160.454 162.113C159.056 162.113 157.922 163.247 157.922 164.646C157.922 166.044 159.056 167.178 160.454 167.178C161.853 167.178 162.987 166.044 162.987 164.646Z" fill="white"/>
</g>
<g clip-path="url(#clip6_4133_145377)" >
<path fill-rule="evenodd" clip-rule="evenodd" d="M76.1571 83.2031C78.1283 83.2031 79.6975 84.8014 79.7263 86.7723C79.7679 89.615 76.2851 91.2325 76.1571 91.2325C76.0194 91.2325 72.5879 89.3245 72.5879 86.7723C72.5879 84.8012 74.1858 83.2031 76.1571 83.2031Z" fill="#03C421"/>
<path d="M78.6898 86.7474C78.6898 85.3487 77.5559 84.2148 76.1573 84.2148C74.7587 84.2148 73.625 85.3487 73.625 86.7474C73.625 88.146 74.7587 89.2799 76.1573 89.2799C77.5559 89.2799 78.6898 88.146 78.6898 86.7474Z" fill="white"/>
</g>
<g clip-path="url(#clip7_4133_145377)" >
<path fill-rule="evenodd" clip-rule="evenodd" d="M224.479 167.508C226.451 167.508 228.02 169.106 228.049 171.077C228.09 173.92 224.607 175.537 224.479 175.537C224.342 175.537 220.91 173.629 220.91 171.077C220.91 169.106 222.508 167.508 224.479 167.508Z" fill="#03C421"/>
<path d="M227.012 171.052C227.012 169.653 225.878 168.52 224.48 168.52C223.081 168.52 221.947 169.653 221.947 171.052C221.947 172.451 223.081 173.585 224.48 173.585C225.878 173.585 227.012 172.451 227.012 171.052Z" fill="white"/>
</g>
<g clip-path="url(#clip8_4133_145377)" >
<path fill-rule="evenodd" clip-rule="evenodd" d="M239.419 179.242C241.39 179.242 242.959 180.84 242.988 182.811C243.03 185.654 239.547 187.272 239.419 187.272C239.281 187.272 235.85 185.364 235.85 182.811C235.85 180.84 237.447 179.242 239.419 179.242Z" fill="#03C421"/>
<path d="M241.952 182.786C241.952 181.388 240.818 180.254 239.419 180.254C238.02 180.254 236.887 181.388 236.887 182.786C236.887 184.185 238.02 185.319 239.419 185.319C240.818 185.319 241.952 184.185 241.952 182.786Z" fill="white"/>
</g>
<g clip-path="url(#clip9_4133_145377)" >
<path fill-rule="evenodd" clip-rule="evenodd" d="M314.114 99.2109C316.085 99.2109 317.655 100.809 317.683 102.78C317.725 105.623 314.242 107.24 314.114 107.24C313.976 107.24 310.545 105.332 310.545 102.78C310.545 100.809 312.143 99.2109 314.114 99.2109Z" fill="#03C421"/>
<path d="M316.647 102.755C316.647 101.357 315.513 100.223 314.114 100.223C312.716 100.223 311.582 101.357 311.582 102.755C311.582 104.154 312.716 105.288 314.114 105.288C315.513 105.288 316.647 104.154 316.647 102.755Z" fill="white"/>
</g>
<g clip-path="url(#clip10_4133_145377)" >
<path fill-rule="evenodd" clip-rule="evenodd" d="M257.558 116.289C259.529 116.289 261.098 117.887 261.127 119.858C261.168 122.701 257.685 124.318 257.558 124.318C257.42 124.318 253.988 122.41 253.988 119.858C253.988 117.887 255.586 116.289 257.558 116.289Z" fill="#03C421"/>
<path d="M260.09 119.833C260.09 118.435 258.956 117.301 257.558 117.301C256.159 117.301 255.025 118.435 255.025 119.833C255.025 121.232 256.159 122.366 257.558 122.366C258.956 122.366 260.09 121.232 260.09 119.833Z" fill="white"/>
</g>
<g clip-path="url(#clip11_4133_145377)" >
<path fill-rule="evenodd" clip-rule="evenodd" d="M320.516 109.883C322.488 109.883 324.057 111.481 324.086 113.452C324.127 116.295 320.644 117.912 320.516 117.912C320.379 117.912 316.947 116.004 316.947 113.452C316.947 111.481 318.545 109.883 320.516 109.883Z" fill="#03C421"/>
<path d="M323.049 113.427C323.049 112.028 321.915 110.895 320.517 110.895C319.118 110.895 317.984 112.028 317.984 113.427C317.984 114.826 319.118 115.96 320.517 115.96C321.915 115.96 323.049 114.826 323.049 113.427Z" fill="white"/>
</g>
<g clip-path="url(#clip12_4133_145377)" >
<path fill-rule="evenodd" clip-rule="evenodd" d="M326.919 118.422C328.89 118.422 330.459 120.02 330.488 121.991C330.53 124.834 327.047 126.451 326.919 126.451C326.781 126.451 323.35 124.543 323.35 121.991C323.35 120.02 324.947 118.422 326.919 118.422Z" fill="#03C421"/>
<path d="M329.452 121.966C329.452 120.567 328.318 119.434 326.919 119.434C325.52 119.434 324.387 120.567 324.387 121.966C324.387 123.365 325.52 124.499 326.919 124.499C328.318 124.499 329.452 123.365 329.452 121.966Z" fill="white"/>
</g>
<g clip-path="url(#clip13_4133_145377)" >
<path fill-rule="evenodd" clip-rule="evenodd" d="M250.089 122.688C252.06 122.688 253.629 124.286 253.658 126.257C253.7 129.099 250.217 130.717 250.089 130.717C249.951 130.717 246.52 128.809 246.52 126.257C246.52 124.286 248.117 122.688 250.089 122.688Z" fill="#03C421"/>
<path d="M252.621 126.232C252.621 124.833 251.488 123.699 250.089 123.699C248.69 123.699 247.557 124.833 247.557 126.232C247.557 127.63 248.69 128.764 250.089 128.764C251.488 128.764 252.621 127.63 252.621 126.232Z" fill="white"/>
</g>
<g clip-path="url(#clip14_4133_145377)" >
<path fill-rule="evenodd" clip-rule="evenodd" d="M221.278 152.562C223.249 152.562 224.819 154.161 224.847 156.132C224.889 158.974 221.406 160.592 221.278 160.592C221.14 160.592 217.709 158.684 217.709 156.132C217.709 154.161 219.307 152.562 221.278 152.562Z" fill="#03C421"/>
<path d="M223.811 156.107C223.811 154.708 222.677 153.574 221.278 153.574C219.88 153.574 218.746 154.708 218.746 156.107C218.746 157.505 219.88 158.639 221.278 158.639C222.677 158.639 223.811 157.505 223.811 156.107Z" fill="white"/>
</g>
<g clip-path="url(#clip15_4133_145377)" >
<path fill-rule="evenodd" clip-rule="evenodd" d="M184.997 151.5C186.968 151.5 188.537 153.098 188.566 155.069C188.608 157.912 185.125 159.529 184.997 159.529C184.859 159.529 181.428 157.621 181.428 155.069C181.428 153.098 183.026 151.5 184.997 151.5Z" fill="#03C421"/>
<path d="M187.53 155.044C187.53 153.646 186.396 152.512 184.997 152.512C183.599 152.512 182.465 153.646 182.465 155.044C182.465 156.443 183.599 157.577 184.997 157.577C186.396 157.577 187.53 156.443 187.53 155.044Z" fill="white"/>
</g>
<g clip-path="url(#clip16_4133_145377)" >
<path fill-rule="evenodd" clip-rule="evenodd" d="M212.741 184.578C214.712 184.578 216.282 186.176 216.31 188.147C216.352 190.99 212.869 192.608 212.741 192.608C212.603 192.608 209.172 190.699 209.172 188.147C209.172 186.176 210.77 184.578 212.741 184.578Z" fill="#03C421"/>
<path d="M215.274 188.122C215.274 186.724 214.14 185.59 212.741 185.59C211.343 185.59 210.209 186.724 210.209 188.122C210.209 189.521 211.343 190.655 212.741 190.655C214.14 190.655 215.274 189.521 215.274 188.122Z" fill="white"/>
</g>
<g clip-path="url(#clip17_4133_145377)" >
<path fill-rule="evenodd" clip-rule="evenodd" d="M191.399 180.312C193.37 180.312 194.94 181.911 194.969 183.882C195.01 186.724 191.527 188.342 191.399 188.342C191.262 188.342 187.83 186.434 187.83 183.882C187.83 181.911 189.428 180.312 191.399 180.312Z" fill="#03C421"/>
<path d="M193.932 183.857C193.932 182.458 192.798 181.324 191.4 181.324C190.001 181.324 188.867 182.458 188.867 183.857C188.867 185.255 190.001 186.389 191.4 186.389C192.798 186.389 193.932 185.255 193.932 183.857Z" fill="white"/>
</g>
<g clip-path="url(#clip18_4133_145377)" >
<path fill-rule="evenodd" clip-rule="evenodd" d="M166.856 129.094C168.827 129.094 170.397 130.692 170.426 132.663C170.467 135.506 166.984 137.123 166.856 137.123C166.719 137.123 163.287 135.215 163.287 132.663C163.287 130.692 164.885 129.094 166.856 129.094Z" fill="#03C421"/>
<path d="M169.389 132.638C169.389 131.239 168.255 130.105 166.857 130.105C165.458 130.105 164.324 131.239 164.324 132.638C164.324 134.037 165.458 135.17 166.857 135.17C168.255 135.17 169.389 134.037 169.389 132.638Z" fill="white"/>
</g>
<g clip-path="url(#clip19_4133_145377)" >
<path fill-rule="evenodd" clip-rule="evenodd" d="M65.4852 53.3281C67.4564 53.3281 69.0257 54.9264 69.0545 56.8973C69.096 59.74 65.6132 61.3575 65.4852 61.3575C65.3475 61.3575 61.916 59.4495 61.916 56.8973C61.916 54.9262 63.5139 53.3281 65.4852 53.3281Z" fill="#03C421"/>
<path d="M68.018 56.8724C68.018 55.4737 66.8841 54.3398 65.4854 54.3398C64.0868 54.3398 62.9531 55.4737 62.9531 56.8724C62.9531 58.271 64.0868 59.4049 65.4854 59.4049C66.8841 59.4049 68.018 58.271 68.018 56.8724Z" fill="white"/>
</g>
<g clip-path="url(#clip20_4133_145377)" >
<path fill-rule="evenodd" clip-rule="evenodd" d="M139.112 141.896C141.083 141.896 142.653 143.495 142.681 145.466C142.723 148.308 139.24 149.926 139.112 149.926C138.974 149.926 135.543 148.018 135.543 145.466C135.543 143.495 137.141 141.896 139.112 141.896Z" fill="#008CD0"/>
<path d="M141.645 145.441C141.645 144.042 140.511 142.908 139.112 142.908C137.714 142.908 136.58 144.042 136.58 145.441C136.58 146.839 137.714 147.973 139.112 147.973C140.511 147.973 141.645 146.839 141.645 145.441Z" fill="white"/>
</g>
<g clip-path="url(#clip21_4133_145377)" >
<path fill-rule="evenodd" clip-rule="evenodd" d="M269.502 93.873C272.642 93.873 275.143 96.5368 275.189 99.8218C275.255 104.56 269.706 107.255 269.502 107.255C269.282 107.255 263.814 104.075 263.814 99.8218C263.814 96.5365 266.361 93.873 269.502 93.873Z" fill="#008CD0"/>
<g clip-path="url(#clip22_4133_145377)">
<rect x="265.486" y="95.5449" width="8.02938" height="8.02938" rx="4.01469" fill="white"/>
<path d="M268.022 99.1078C268.022 98.8432 268.039 98.5828 268.073 98.3267C268.112 98.0706 268.176 97.8294 268.265 97.6032C268.355 97.3727 268.479 97.17 268.637 96.995C268.795 96.8157 268.993 96.677 269.232 96.5788C269.475 96.4764 269.77 96.4252 270.116 96.4252C270.205 96.4252 270.304 96.4294 270.41 96.438C270.521 96.4465 270.611 96.4615 270.679 96.4828V96.963C270.602 96.9374 270.515 96.9182 270.417 96.9054C270.323 96.8926 270.227 96.8862 270.129 96.8862C269.834 96.8862 269.589 96.9352 269.392 97.0334C269.196 97.1316 269.04 97.266 268.925 97.4368C268.814 97.6075 268.733 97.8038 268.682 98.0258C268.63 98.2477 268.598 98.4846 268.586 98.7365H268.624C268.688 98.634 268.769 98.5423 268.867 98.4612C268.965 98.3801 269.083 98.316 269.219 98.2691C269.36 98.2221 269.522 98.1987 269.706 98.1987C269.971 98.1987 270.201 98.2541 270.397 98.3651C270.598 98.4718 270.754 98.6298 270.865 98.8389C270.976 99.0438 271.031 99.2935 271.031 99.588C271.031 99.9038 270.972 100.177 270.852 100.407C270.733 100.638 270.564 100.815 270.346 100.939C270.133 101.063 269.877 101.125 269.578 101.125C269.36 101.125 269.158 101.084 268.97 101.003C268.782 100.922 268.615 100.798 268.47 100.632C268.329 100.465 268.218 100.256 268.137 100.004C268.061 99.748 268.022 99.4493 268.022 99.1078ZM269.572 100.651C269.84 100.651 270.058 100.565 270.225 100.395C270.391 100.22 270.474 99.9508 270.474 99.588C270.474 99.2977 270.4 99.0673 270.25 98.8965C270.105 98.7258 269.885 98.6404 269.591 98.6404C269.39 98.6404 269.215 98.6831 269.066 98.7685C268.916 98.8496 268.799 98.9541 268.714 99.0822C268.633 99.2102 268.592 99.3426 268.592 99.4791C268.592 99.62 268.611 99.7587 268.65 99.8953C268.692 100.032 268.754 100.158 268.835 100.273C268.921 100.388 269.023 100.48 269.143 100.548C269.266 100.617 269.409 100.651 269.572 100.651Z" fill="#2E2E2E"/>
</g>
</g>
<g clip-path="url(#clip23_4133_145377)" >
<path fill-rule="evenodd" clip-rule="evenodd" d="M333.319 106.678C335.29 106.678 336.86 108.276 336.888 110.247C336.93 113.09 333.447 114.707 333.319 114.707C333.181 114.707 329.75 112.799 329.75 110.247C329.75 108.276 331.348 106.678 333.319 106.678Z" fill="#008CD0"/>
<path d="M335.852 110.222C335.852 108.823 334.718 107.689 333.319 107.689C331.921 107.689 330.787 108.823 330.787 110.222C330.787 111.621 331.921 112.754 333.319 112.754C334.718 112.754 335.852 111.621 335.852 110.222Z" fill="white"/>
</g>
<g clip-path="url(#clip24_4133_145377)" >
<path fill-rule="evenodd" clip-rule="evenodd" d="M322.649 100.279C324.62 100.279 326.19 101.878 326.219 103.849C326.26 106.691 322.777 108.309 322.649 108.309C322.512 108.309 319.08 106.401 319.08 103.849C319.08 101.877 320.678 100.279 322.649 100.279Z" fill="#008CD0"/>
<path d="M325.182 103.824C325.182 102.425 324.048 101.291 322.65 101.291C321.251 101.291 320.117 102.425 320.117 103.824C320.117 105.222 321.251 106.356 322.65 106.356C324.048 106.356 325.182 105.222 325.182 103.824Z" fill="white"/>
</g>
<g clip-path="url(#clip25_4133_145377)" >
<path fill-rule="evenodd" clip-rule="evenodd" d="M297.038 98.1465C299.009 98.1465 300.578 99.7448 300.607 101.716C300.649 104.558 297.166 106.176 297.038 106.176C296.9 106.176 293.469 104.268 293.469 101.716C293.469 99.7446 295.067 98.1465 297.038 98.1465Z" fill="#008CD0"/>
<path d="M299.571 101.691C299.571 100.292 298.437 99.1582 297.038 99.1582C295.64 99.1582 294.506 100.292 294.506 101.691C294.506 103.089 295.64 104.223 297.038 104.223C298.437 104.223 299.571 103.089 299.571 101.691Z" fill="white"/>
</g>
<g clip-path="url(#clip26_4133_145377)" >
<path fill-rule="evenodd" clip-rule="evenodd" d="M299.173 121.623C301.144 121.623 302.713 123.221 302.742 125.192C302.784 128.035 299.301 129.652 299.173 129.652C299.035 129.652 295.604 127.744 295.604 125.192C295.604 123.221 297.201 121.623 299.173 121.623Z" fill="#008CD0"/>
<path d="M301.705 125.167C301.705 123.769 300.572 122.635 299.173 122.635C297.774 122.635 296.641 123.769 296.641 125.167C296.641 126.566 297.774 127.7 299.173 127.7C300.572 127.7 301.705 126.566 301.705 125.167Z" fill="white"/>
</g>
<g clip-path="url(#clip27_4133_145377)" >
<path fill-rule="evenodd" clip-rule="evenodd" d="M212.741 140.826C214.712 140.826 216.282 142.424 216.31 144.395C216.352 147.238 212.869 148.856 212.741 148.856C212.603 148.856 209.172 146.948 209.172 144.395C209.172 142.424 210.77 140.826 212.741 140.826Z" fill="#008CD0"/>
<path d="M215.274 144.37C215.274 142.972 214.14 141.838 212.741 141.838C211.343 141.838 210.209 142.972 210.209 144.37C210.209 145.769 211.343 146.903 212.741 146.903C214.14 146.903 215.274 145.769 215.274 144.37Z" fill="white"/>
</g>
<g clip-path="url(#clip28_4133_145377)" >
<path fill-rule="evenodd" clip-rule="evenodd" d="M184.997 165.369C186.968 165.369 188.537 166.967 188.566 168.938C188.608 171.781 185.125 173.399 184.997 173.399C184.859 173.399 181.428 171.49 181.428 168.938C181.428 166.967 183.026 165.369 184.997 165.369Z" fill="#008CD0"/>
<path d="M187.53 168.913C187.53 167.515 186.396 166.381 184.997 166.381C183.599 166.381 182.465 167.515 182.465 168.913C182.465 170.312 183.599 171.446 184.997 171.446C186.396 171.446 187.53 170.312 187.53 168.913Z" fill="white"/>
</g>
<g clip-path="url(#clip29_4133_145377)" >
<path fill-rule="evenodd" clip-rule="evenodd" d="M80.4227 91.7422C82.3939 91.7422 83.9632 93.3405 83.992 95.3114C84.0335 98.1541 80.5507 99.7716 80.4227 99.7716C80.285 99.7716 76.8535 97.8635 76.8535 95.3114C76.8535 93.3403 78.4514 91.7422 80.4227 91.7422Z" fill="#008CD0"/>
<path d="M82.9555 95.2864C82.9555 93.8878 81.8216 92.7539 80.4229 92.7539C79.0243 92.7539 77.8906 93.8878 77.8906 95.2864C77.8906 96.685 79.0243 97.8189 80.4229 97.8189C81.8216 97.8189 82.9555 96.685 82.9555 95.2864Z" fill="white"/>
</g>
<g clip-path="url(#clip30_4133_145377)" >
<path fill-rule="evenodd" clip-rule="evenodd" d="M65.4833 63.998C67.4544 63.998 69.0237 65.5963 69.0525 67.5673C69.0941 70.41 65.6112 72.0274 65.4833 72.0274C65.3455 72.0274 61.9141 70.1194 61.9141 67.5673C61.9141 65.5961 63.5119 63.998 65.4833 63.998Z" fill="#008CD0"/>
<path d="M68.016 67.5423C68.016 66.1437 66.8821 65.0098 65.4835 65.0098C64.0849 65.0098 62.9512 66.1437 62.9512 67.5423C62.9512 68.9409 64.0849 70.0748 65.4835 70.0748C66.8821 70.0748 68.016 68.9409 68.016 67.5423Z" fill="white"/>
</g>
<g clip-path="url(#clip31_4133_145377)" >
<path fill-rule="evenodd" clip-rule="evenodd" d="M58.0145 58.6621C59.9857 58.6621 61.555 60.2604 61.5838 62.2313C61.6253 65.074 58.1425 66.6915 58.0145 66.6915C57.8768 66.6915 54.4453 64.7834 54.4453 62.2313C54.4453 60.2602 56.0432 58.6621 58.0145 58.6621Z" fill="#008CD0"/>
<path d="M60.5472 62.2063C60.5472 60.8077 59.4134 59.6738 58.0147 59.6738C56.6161 59.6738 55.4824 60.8077 55.4824 62.2063C55.4824 63.605 56.6161 64.7389 58.0147 64.7389C59.4134 64.7389 60.5472 63.605 60.5472 62.2063Z" fill="white"/>
</g>
<g clip-path="url(#clip32_4133_145377)" >
<path fill-rule="evenodd" clip-rule="evenodd" d="M233.015 188.846C234.986 188.846 236.555 190.444 236.584 192.415C236.625 195.258 233.142 196.875 233.015 196.875C232.877 196.875 229.445 194.967 229.445 192.415C229.445 190.444 231.043 188.846 233.015 188.846Z" fill="#008CD0"/>
<path d="M235.547 192.39C235.547 190.991 234.413 189.857 233.015 189.857C231.616 189.857 230.482 190.991 230.482 192.39C230.482 193.789 231.616 194.922 233.015 194.922C234.413 194.922 235.547 193.789 235.547 192.39Z" fill="white"/>
</g>
<g clip-path="url(#clip33_4133_145377)" >
<path fill-rule="evenodd" clip-rule="evenodd" d="M177.526 84.2715C179.497 84.2715 181.067 85.8698 181.095 87.8407C181.137 90.6834 177.654 92.3009 177.526 92.3009C177.389 92.3009 173.957 90.3928 173.957 87.8407C173.957 85.8696 175.555 84.2715 177.526 84.2715Z" fill="#008CD0"/>
<path d="M180.059 87.8157C180.059 86.4171 178.925 85.2832 177.526 85.2832C176.128 85.2832 174.994 86.4171 174.994 87.8157C174.994 89.2143 176.128 90.3482 177.526 90.3482C178.925 90.3482 180.059 89.2143 180.059 87.8157Z" fill="white"/>
</g>
<g clip-path="url(#clip34_4133_145377)" >
<path fill-rule="evenodd" clip-rule="evenodd" d="M279.966 94.9434C281.937 94.9434 283.506 96.5416 283.535 98.5126C283.576 101.355 280.094 102.973 279.966 102.973C279.828 102.973 276.396 101.065 276.396 98.5126C276.396 96.5414 277.994 94.9434 279.966 94.9434Z" fill="#008CD0"/>
<path d="M282.498 98.4876C282.498 97.089 281.365 95.9551 279.966 95.9551C278.567 95.9551 277.434 97.089 277.434 98.4876C277.434 99.8862 278.567 101.02 279.966 101.02C281.365 101.02 282.498 99.8862 282.498 98.4876Z" fill="white"/>
</g>
<g clip-path="url(#clip35_4133_145377)" >
<path fill-rule="evenodd" clip-rule="evenodd" d="M260.759 125.889C262.73 125.889 264.299 127.487 264.328 129.458C264.369 132.301 260.887 133.918 260.759 133.918C260.621 133.918 257.189 132.01 257.189 129.458C257.189 127.487 258.787 125.889 260.759 125.889Z" fill="#008CD0"/>
<path d="M263.291 129.433C263.291 128.034 262.157 126.9 260.759 126.9C259.36 126.9 258.227 128.034 258.227 129.433C258.227 130.832 259.36 131.965 260.759 131.965C262.157 131.965 263.291 130.832 263.291 129.433Z" fill="white"/>
</g>
<g clip-path="url(#clip36_4133_145377)" >
<path fill-rule="evenodd" clip-rule="evenodd" d="M244.753 140.826C246.724 140.826 248.293 142.424 248.322 144.395C248.364 147.238 244.881 148.856 244.753 148.856C244.615 148.856 241.184 146.948 241.184 144.395C241.184 142.424 242.781 140.826 244.753 140.826Z" fill="#008CD0"/>
<path d="M247.286 144.37C247.286 142.972 246.152 141.838 244.753 141.838C243.354 141.838 242.221 142.972 242.221 144.37C242.221 145.769 243.354 146.903 244.753 146.903C246.152 146.903 247.286 145.769 247.286 144.37Z" fill="white"/>
</g>
<g clip-path="url(#clip37_4133_145377)" >
<path fill-rule="evenodd" clip-rule="evenodd" d="M91.0946 101.346C93.0658 101.346 94.635 102.944 94.6638 104.915C94.7054 107.758 91.2226 109.375 91.0946 109.375C90.9569 109.375 87.5254 107.467 87.5254 104.915C87.5254 102.944 89.1233 101.346 91.0946 101.346Z" fill="#008CD0"/>
<path d="M93.6273 104.89C93.6273 103.491 92.4934 102.357 91.0948 102.357C89.6962 102.357 88.5625 103.491 88.5625 104.89C88.5625 106.289 89.6962 107.422 91.0948 107.422C92.4934 107.422 93.6273 106.289 93.6273 104.89Z" fill="white"/>
</g>
</g>
</g>
<defs>
<clipPath id="clip0_4133_145377">
<rect width="343" height="218" fill="white"/>
</clipPath>
<clipPath id="clip1_4133_145377">
<rect width="81.0976" height="81.0976" fill="white" transform="translate(147.904 97.0781)"/>
</clipPath>
<clipPath id="clip2_4133_145377">
<rect width="81.0976" height="81.0976" fill="white" transform="translate(283.422 100.281)"/>
</clipPath>
<clipPath id="clip3_4133_145377">
<rect width="81.0976" height="81.0976" fill="white" transform="translate(233.27 124.82)"/>
</clipPath>
<clipPath id="clip4_4133_145377">
<rect width="81.0976" height="81.0976" fill="white" transform="translate(201.258 134.422)"/>
</clipPath>
<clipPath id="clip5_4133_145377">
<rect width="81.0976" height="81.0976" fill="white" transform="translate(156.439 161.102)"/>
</clipPath>
<clipPath id="clip6_4133_145377">
<rect width="81.0976" height="81.0976" fill="white" transform="translate(72.1426 83.2031)"/>
</clipPath>
<clipPath id="clip7_4133_145377">
<rect width="81.0976" height="81.0976" fill="white" transform="translate(220.465 167.508)"/>
</clipPath>
<clipPath id="clip8_4133_145377">
<rect width="81.0976" height="81.0976" fill="white" transform="translate(235.404 179.242)"/>
</clipPath>
<clipPath id="clip9_4133_145377">
<rect width="81.0976" height="81.0976" fill="white" transform="translate(310.1 99.2109)"/>
</clipPath>
<clipPath id="clip10_4133_145377">
<rect width="81.0976" height="81.0976" fill="white" transform="translate(253.543 116.289)"/>
</clipPath>
<clipPath id="clip11_4133_145377">
<rect width="81.0976" height="81.0976" fill="white" transform="translate(316.502 109.883)"/>
</clipPath>
<clipPath id="clip12_4133_145377">
<rect width="81.0976" height="81.0976" fill="white" transform="translate(322.904 118.422)"/>
</clipPath>
<clipPath id="clip13_4133_145377">
<rect width="81.0976" height="81.0976" fill="white" transform="translate(246.074 122.688)"/>
</clipPath>
<clipPath id="clip14_4133_145377">
<rect width="81.0976" height="81.0976" fill="white" transform="translate(217.264 152.562)"/>
</clipPath>
<clipPath id="clip15_4133_145377">
<rect width="81.0976" height="81.0976" fill="white" transform="translate(180.982 151.5)"/>
</clipPath>
<clipPath id="clip16_4133_145377">
<rect width="81.0976" height="81.0976" fill="white" transform="translate(208.727 184.578)"/>
</clipPath>
<clipPath id="clip17_4133_145377">
<rect width="81.0976" height="81.0976" fill="white" transform="translate(187.385 180.312)"/>
</clipPath>
<clipPath id="clip18_4133_145377">
<rect width="81.0976" height="81.0976" fill="white" transform="translate(162.842 129.094)"/>
</clipPath>
<clipPath id="clip19_4133_145377">
<rect width="81.0976" height="81.0976" fill="white" transform="translate(61.4707 53.3281)"/>
</clipPath>
<clipPath id="clip20_4133_145377">
<rect width="8.53659" height="8.53659" fill="white" transform="translate(135.098 141.896)"/>
</clipPath>
<clipPath id="clip21_4133_145377">
<rect width="12.8049" height="13.872" fill="white" transform="translate(263.146 93.873)"/>
</clipPath>
<clipPath id="clip22_4133_145377">
<rect x="265.486" y="95.5449" width="8.02938" height="8.02938" rx="4.01469" fill="white"/>
</clipPath>
<clipPath id="clip23_4133_145377">
<rect width="8.53659" height="8.53659" fill="white" transform="translate(329.305 106.678)"/>
</clipPath>
<clipPath id="clip24_4133_145377">
<rect width="8.53659" height="8.53659" fill="white" transform="translate(318.635 100.279)"/>
</clipPath>
<clipPath id="clip25_4133_145377">
<rect width="8.53659" height="8.53659" fill="white" transform="translate(293.023 98.1465)"/>
</clipPath>
<clipPath id="clip26_4133_145377">
<rect width="8.53659" height="8.53659" fill="white" transform="translate(295.158 121.623)"/>
</clipPath>
<clipPath id="clip27_4133_145377">
<rect width="8.53659" height="8.53659" fill="white" transform="translate(208.727 140.826)"/>
</clipPath>
<clipPath id="clip28_4133_145377">
<rect width="8.53659" height="8.53659" fill="white" transform="translate(180.982 165.369)"/>
</clipPath>
<clipPath id="clip29_4133_145377">
<rect width="8.53659" height="8.53659" fill="white" transform="translate(76.4082 91.7422)"/>
</clipPath>
<clipPath id="clip30_4133_145377">
<rect width="8.53659" height="8.53659" fill="white" transform="translate(61.4688 63.998)"/>
</clipPath>
<clipPath id="clip31_4133_145377">
<rect width="8.53659" height="8.53659" fill="white" transform="translate(54 58.6621)"/>
</clipPath>
<clipPath id="clip32_4133_145377">
<rect width="8.53659" height="8.53659" fill="white" transform="translate(229 188.846)"/>
</clipPath>
<clipPath id="clip33_4133_145377">
<rect width="8.53659" height="8.53659" fill="white" transform="translate(173.512 84.2715)"/>
</clipPath>
<clipPath id="clip34_4133_145377">
<rect width="8.53659" height="8.53659" fill="white" transform="translate(275.951 94.9434)"/>
</clipPath>
<clipPath id="clip35_4133_145377">
<rect width="8.53659" height="8.53659" fill="white" transform="translate(256.744 125.889)"/>
</clipPath>
<clipPath id="clip36_4133_145377">
<rect width="8.53659" height="8.53659" fill="white" transform="translate(240.738 140.826)"/>
</clipPath>
<clipPath id="clip37_4133_145377">
<rect width="8.53659" height="8.53659" fill="white" transform="translate(87.0801 101.346)"/>
</clipPath>
</defs>
</svg>
