<svg width="27" height="26" viewBox="0 0 27 26" fill="none" xmlns="http://www.w3.org/2000/svg">
<path d="M4.55213 12.5474C2.15066 13.9351 0.956482 15.7548 0.943359 17.5746L0.982726 8.25334C0.982726 6.4336 2.1769 4.61387 4.57837 3.22615C9.40757 0.437636 17.255 0.437636 22.1105 3.22615C24.5513 4.64005 25.7717 6.48597 25.7717 8.33189L25.7455 17.64C25.7455 15.7941 24.5251 13.9482 22.0842 12.5474C17.2288 9.74578 9.38133 9.74578 4.55213 12.5474Z" fill="#F7FFFD"/>
<path d="M25.7717 8.3227L25.7455 17.6308C25.7324 19.4506 24.5382 21.2703 22.1367 22.658C17.3206 25.4596 9.46006 25.4596 4.60462 22.658C2.16378 21.2572 0.943359 19.4113 0.943359 17.5654L0.982726 8.24414C0.969603 10.0901 2.19002 11.936 4.63087 13.3499C9.48631 16.1515 17.3469 16.1515 22.163 13.3499C24.5644 11.9622 25.7586 10.1424 25.7717 8.3227Z" fill="#39A5D6"/>
<path d="M26.5971 8.3227L26.5708 17.6308C26.5577 19.5815 25.2848 21.5191 22.7259 22.9984C17.5817 25.9833 9.20936 25.9833 4.02584 22.9984C1.4144 21.4929 0.115234 19.5291 0.115234 17.5654L0.141482 8.24414C0.141482 10.2079 1.44064 12.1847 4.05208 13.6903C9.23559 16.6752 17.608 16.6752 22.7521 13.6903C25.3111 12.2109 26.584 10.2603 26.5971 8.3227Z" fill="#DFE4E5"/>
<path fill-rule="evenodd" clip-rule="evenodd" d="M22.6847 2.87343C27.8682 5.85833 27.8945 10.7022 22.7503 13.6871C17.6062 16.672 9.2338 16.672 4.05029 13.6871C-1.13323 10.7022 -1.15947 5.85833 3.98467 2.87343C9.12882 -0.111457 17.5012 -0.111457 22.6847 2.87343ZM4.6277 13.3467C9.48314 16.1483 17.3437 16.1483 22.1598 13.3467C26.989 10.5451 26.9627 6.01543 22.1073 3.21382C17.2518 0.4253 9.4044 0.4253 4.5752 3.21382C-0.253998 6.01543 -0.227749 10.5451 4.6277 13.3467Z" fill="#A6ABAD"/>
<path d="M4.57474 4.52222C9.40394 1.72062 17.2514 1.72062 22.1068 4.52222C24.259 5.76593 25.4663 7.35002 25.7156 8.97338C26.0306 6.91799 24.8364 4.79715 22.1068 3.22615C17.2514 0.437636 9.40394 0.437636 4.57474 3.22615C1.88457 4.78406 0.703516 6.87872 1.01846 8.90792C1.28092 7.31074 2.46197 5.75284 4.57474 4.52222Z" fill="#888D8E"/>
<path d="M4.62635 13.3541C9.4818 16.1557 17.3424 16.1557 22.1584 13.3541C24.2712 12.1235 25.4523 10.5656 25.7147 8.96838C25.4654 7.34501 24.2581 5.76093 22.1059 4.51722C17.2505 1.71561 9.40306 1.71561 4.57386 4.51722C2.46109 5.74784 1.28003 7.30574 1.01758 8.90292C1.28003 10.5263 2.47421 12.1104 4.62635 13.3541Z" fill="#C4E7F1"/>
<path d="M4.62635 13.3541C9.4818 16.1557 17.3424 16.1557 22.1584 13.3541C24.2712 12.1235 25.4523 10.5656 25.7147 8.96838C25.4654 7.34501 24.2581 5.76093 22.1059 4.51722C17.2505 1.71561 9.40306 1.71561 4.57386 4.51722C2.46109 5.74784 1.28003 7.30574 1.01758 8.90292C1.28003 10.5263 2.47421 12.1104 4.62635 13.3541Z" fill="#99D7DE"/>
<path d="M1.71622 11.8686C0.666394 10.7427 0.141482 9.48589 0.141482 8.24219L0.115234 17.5634C0.115234 18.8202 0.653272 20.077 1.71622 21.2029V11.8686Z" fill="#C9CECF"/>
<path d="M22.7525 13.6879C22.6213 13.7577 22.4857 13.8319 22.3457 13.9104V23.2055C22.4769 23.1357 22.6038 23.0659 22.7263 22.996C25.2852 21.5167 26.5581 19.5791 26.5712 17.6285L26.5975 8.32031C26.5844 10.2579 25.3115 12.2085 22.7525 13.6879Z" fill="#C9CECF"/>
<path d="M21.2099 24.1688C21.1443 24.1688 21.0918 24.1164 21.0918 24.051V14.2585C21.0918 14.193 21.1443 14.1406 21.2099 14.1406C21.2755 14.1406 21.328 14.193 21.328 14.2585V24.051C21.328 24.1164 21.2755 24.1688 21.2099 24.1688Z" fill="#636769"/>
<path d="M18.9442 16.2552C18.9048 16.2552 18.8523 16.229 18.8392 16.1766C18.8261 16.1242 18.8523 16.0587 18.9179 16.0325L21.1093 15.2728C21.1749 15.2597 21.2405 15.2859 21.2667 15.3514C21.2799 15.4038 21.2536 15.4693 21.188 15.4955L18.9836 16.2552C18.9748 16.2552 18.9617 16.2552 18.9442 16.2552Z" fill="#959A9C"/>
<path d="M18.9442 17.5145C18.9048 17.5145 18.8523 17.4883 18.8392 17.449C18.8261 17.3835 18.8523 17.318 18.9179 17.3049L21.1093 16.5452C21.1749 16.519 21.2405 16.5452 21.2667 16.6107C21.2799 16.6762 21.2536 16.7417 21.188 16.7548L18.9836 17.5145C18.9748 17.5232 18.9617 17.5232 18.9442 17.5145Z" fill="#959A9C"/>
<path d="M18.9442 18.7837C18.9048 18.7837 18.8523 18.7444 18.8392 18.7051C18.8261 18.6396 18.8523 18.5741 18.9179 18.561L21.1093 17.8013C21.1749 17.7751 21.2405 17.8144 21.2667 17.8668C21.2799 17.9323 21.2536 17.9978 21.188 18.0109L18.9836 18.7706C18.9748 18.7793 18.9617 18.7837 18.9442 18.7837Z" fill="#959A9C"/>
<path d="M18.9442 20.0415C18.9048 20.0415 18.8523 20.0153 18.8392 19.9629C18.8261 19.8974 18.8523 19.8319 18.9179 19.8188L21.1093 19.0591C21.1749 19.0329 21.2405 19.0722 21.2667 19.1246C21.2799 19.1901 21.2536 19.2556 21.188 19.2687L18.9836 20.0284C18.9748 20.0371 18.9617 20.0415 18.9442 20.0415Z" fill="#959A9C"/>
<path d="M18.9442 21.2942C18.9048 21.2942 18.8523 21.268 18.8392 21.2156C18.8261 21.1632 18.8523 21.0977 18.9179 21.0716L21.1093 20.3119C21.1749 20.2988 21.2405 20.325 21.2667 20.3905C21.2799 20.4428 21.2536 20.5083 21.188 20.5345L18.9836 21.2942C18.9748 21.2942 18.9617 21.2942 18.9442 21.2942Z" fill="#959A9C"/>
<path d="M18.9442 22.5442C18.9048 22.5442 18.8523 22.518 18.8392 22.4656C18.8261 22.4132 18.8523 22.3477 18.9179 22.3216L21.1093 21.5619C21.1749 21.5488 21.2405 21.575 21.2667 21.6405C21.2799 21.6928 21.2536 21.7583 21.188 21.7845L18.9836 22.5442C18.9748 22.5442 18.9617 22.5442 18.9442 22.5442Z" fill="#959A9C"/>
<path d="M18.9442 23.802C18.9048 23.802 18.8523 23.7758 18.8392 23.7234C18.8261 23.6711 18.8523 23.6056 18.9179 23.5794L21.1093 22.8197C21.1749 22.8066 21.2405 22.8328 21.2667 22.8983C21.2799 22.9507 21.2536 23.0162 21.188 23.0423L18.9836 23.802C18.9748 23.802 18.9617 23.802 18.9442 23.802Z" fill="#959A9C"/>
<path d="M18.9429 24.8973C18.8904 24.8973 18.8379 24.845 18.8379 24.7795V14.987C18.8379 14.9215 18.8904 14.8691 18.9429 14.8691C19.0085 14.8691 19.061 14.9215 19.061 14.987V24.7795C19.061 24.845 19.0085 24.8973 18.9429 24.8973Z" fill="#777B7E"/>
<g style="mix-blend-mode:screen">
<path d="M7.2931 15.0694C7.09188 15.0083 6.89067 14.9429 6.68945 14.873V24.1943C6.89067 24.2641 7.09188 24.3296 7.2931 24.3907V15.0694Z" fill="#75787B"/>
</g>
<g style="mix-blend-mode:screen" opacity="0.4">
<path d="M16.2569 8.24966C16.2569 10.5407 13.0943 12.4128 9.19679 12.4128C5.29932 12.4128 2.13672 10.5407 2.13672 8.24966C2.13672 5.95862 5.29932 4.09961 9.19679 4.09961C13.0943 4.09961 16.2569 5.95862 16.2569 8.24966Z" fill="#D8EEF2"/>
</g>
<g style="mix-blend-mode:screen" opacity="0.4">
<path d="M16.7298 13.0277C16.7298 13.3683 16.2574 13.6564 15.6669 13.6564C15.0896 13.6564 14.6172 13.3683 14.6172 13.0277C14.6172 12.6872 15.0896 12.4121 15.6669 12.4121C16.2574 12.4121 16.7298 12.6872 16.7298 13.0277Z" fill="#D8EEF2"/>
</g>
<g style="mix-blend-mode:multiply" opacity="0.4">
<path d="M4.82603 3.08203C4.7473 3.12567 4.66418 3.16931 4.5767 3.21295C1.88652 4.77085 0.705469 6.86551 1.02042 8.89471C1.28287 7.29754 2.46392 5.73963 4.5767 4.50902C4.66418 4.46538 4.7473 4.41738 4.82603 4.36501V3.08203Z" fill="#888D8E"/>
</g>
<g style="mix-blend-mode:multiply" opacity="0.4">
<path d="M22.1145 3.23239C21.5633 2.9182 20.9728 2.64327 20.3691 2.39453V3.6906C20.9728 3.93934 21.5633 4.21427 22.1145 4.52847C24.2666 5.77217 25.4739 7.35626 25.7232 8.97962C26.0382 6.92423 24.844 4.80339 22.1145 3.23239Z" fill="#888D8E"/>
</g>
<g style="mix-blend-mode:multiply" opacity="0.5">
<path d="M25.168 11.7542V21.0362C26.0997 19.9627 26.559 18.7975 26.5721 17.6324L26.5984 8.32422C26.5852 9.50247 26.1128 10.6807 25.168 11.7542Z" fill="#C9CECF"/>
</g>
</svg>
