<svg width="52" height="48" viewBox="0 0 52 48" fill="none" xmlns="http://www.w3.org/2000/svg">
<path d="M9.04459 23.3358C4.42302 26.0115 2.12486 29.5202 2.09961 33.0288L2.17537 15.0564C2.17537 11.5478 4.47352 8.03914 9.09509 5.36348C18.3887 -0.0130867 33.4909 -0.0130867 42.8351 5.36348C47.5324 8.08963 49.8811 11.6488 49.8811 15.2079L49.8306 33.155C49.8306 29.5959 47.4819 26.0367 42.7846 23.3358C33.4404 17.934 18.3382 17.934 9.04459 23.3358Z" fill="#F7FFFD"/>
<path d="M49.8811 15.2081L49.8306 33.1552C49.8053 36.6639 47.5072 40.1725 42.8856 42.8482C33.6172 48.25 18.4898 48.25 9.1456 42.8482C4.44827 40.1473 2.09961 36.5881 2.09961 33.029L2.17537 15.0566C2.15012 18.6158 4.49878 22.1749 9.19611 24.9011C18.5403 30.3029 33.6677 30.3029 42.9361 24.9011C47.5577 22.2254 49.8558 18.7168 49.8811 15.2081Z" fill="#39A5D6"/>
<path d="M51.4714 15.2081L51.4208 33.1552C51.3956 36.9163 48.9459 40.6521 44.0213 43.5045C34.1215 49.2597 18.0092 49.2597 8.03366 43.5045C3.00802 40.6016 0.507812 36.8153 0.507812 33.029L0.558325 15.0566C0.558325 18.843 3.05852 22.6545 8.08416 25.5574C18.0597 31.3126 34.172 31.3126 44.0718 25.5574C48.9964 22.705 51.4461 18.9439 51.4714 15.2081Z" fill="#DFE4E5"/>
<path fill-rule="evenodd" clip-rule="evenodd" d="M43.9462 4.70702C53.9218 10.4622 53.9723 19.8018 44.0725 25.557C34.1728 31.3122 18.0604 31.3122 8.08487 25.557C-1.89065 19.8018 -1.94116 10.4622 7.9586 4.70702C17.8584 -1.04817 33.9707 -1.04817 43.9462 4.70702ZM9.19608 24.9007C18.5402 30.3025 33.6677 30.3025 42.9361 24.9007C52.2297 19.4989 52.1792 10.7651 42.835 5.36332C33.4909 -0.0132471 18.3887 -0.0132471 9.09505 5.36332C-0.198598 10.7651 -0.148083 19.4989 9.19608 24.9007Z" fill="#A6ABAD"/>
<path d="M9.09588 7.86244C18.3895 2.46064 33.4917 2.46064 42.8359 7.86244C46.9776 10.2604 49.301 13.3147 49.7809 16.4448C50.387 12.4817 48.0888 8.39253 42.8359 5.36348C33.4917 -0.0130867 18.3895 -0.0130867 9.09588 5.36348C3.91871 8.36729 1.64581 12.406 2.25192 16.3185C2.75701 13.239 5.02991 10.2352 9.09588 7.86244Z" fill="#888D8E"/>
<path d="M9.19694 24.9013C18.5411 30.3031 33.6685 30.3031 42.9369 24.9013C47.0029 22.5285 49.2758 19.5247 49.7809 16.4452C49.301 13.3152 46.9776 10.2609 42.8359 7.86288C33.4917 2.46107 18.3896 2.46107 9.09591 7.86288C5.02994 10.2356 2.75704 13.2394 2.25195 16.319C2.75704 19.449 5.0552 22.5033 9.19694 24.9013Z" fill="#C4E7F1"/>
<path d="M9.19694 24.9013C18.5411 30.3031 33.6685 30.3031 42.9369 24.9013C47.0029 22.5285 49.2758 19.5247 49.7809 16.4452C49.301 13.3152 46.9776 10.2609 42.8359 7.86288C33.4917 2.46107 18.3896 2.46107 9.09591 7.86288C5.02994 10.2356 2.75704 13.2394 2.25195 16.319C2.75704 19.449 5.0552 22.5033 9.19694 24.9013Z" fill="#99D7DE"/>
<path d="M3.59082 22.0487C1.57046 19.8779 0.560278 17.4546 0.560278 15.0566L0.509766 33.029C0.509766 35.4523 1.5452 37.8755 3.59082 40.0463V22.0487Z" fill="#C9CECF"/>
<path d="M44.0739 25.5573C43.8214 25.6919 43.5604 25.8349 43.291 25.9864V43.9083C43.5436 43.7736 43.7877 43.639 44.0234 43.5044C48.948 40.652 51.3977 36.9162 51.4229 33.1551L51.4735 15.208C51.4482 18.9438 48.9985 22.7049 44.0739 25.5573Z" fill="#C9CECF"/>
<path d="M41.0945 45.7505C40.9682 45.7505 40.8672 45.6495 40.8672 45.5233V26.6422C40.8672 26.516 40.9682 26.415 41.0945 26.415C41.2208 26.415 41.3217 26.516 41.3217 26.6422V45.5233C41.3217 45.6495 41.2208 45.7505 41.0945 45.7505Z" fill="#636769"/>
<path d="M36.722 30.4795C36.6463 30.4795 36.5452 30.4291 36.52 30.3281C36.4947 30.2271 36.5452 30.1009 36.6715 30.0504L40.889 28.5864C41.0153 28.5611 41.1415 28.6116 41.192 28.7378C41.2173 28.8388 41.1668 28.965 41.0405 29.0155L36.7978 30.4795C36.7809 30.4795 36.7557 30.4795 36.722 30.4795Z" fill="#959A9C"/>
<path d="M36.722 32.9029C36.6463 32.9029 36.5452 32.8524 36.52 32.7767C36.4947 32.6505 36.5452 32.5243 36.6715 32.499L40.889 31.035C41.0153 30.9845 41.1415 31.035 41.192 31.1612C41.2173 31.2874 41.1668 31.4136 41.0405 31.4389L36.7978 32.9029C36.7809 32.9197 36.7557 32.9197 36.722 32.9029Z" fill="#959A9C"/>
<path d="M36.722 35.3506C36.6463 35.3506 36.5452 35.2749 36.52 35.1992C36.4947 35.073 36.5452 34.9468 36.6715 34.9215L40.889 33.4575C41.0153 33.407 41.1415 33.4827 41.192 33.5837C41.2173 33.7099 41.1668 33.8361 41.0405 33.8613L36.7978 35.3254C36.7809 35.3422 36.7557 35.3506 36.722 35.3506Z" fill="#959A9C"/>
<path d="M36.722 37.7745C36.6463 37.7745 36.5452 37.724 36.52 37.623C36.4947 37.4968 36.5452 37.3706 36.6715 37.3453L40.889 35.8813C41.0153 35.8308 41.1415 35.9065 41.192 36.0075C41.2173 36.1337 41.1668 36.2599 41.0405 36.2852L36.7978 37.7492C36.7809 37.7661 36.7557 37.7745 36.722 37.7745Z" fill="#959A9C"/>
<path d="M36.722 40.1973C36.6463 40.1973 36.5452 40.1468 36.52 40.0459C36.4947 39.9449 36.5452 39.8187 36.6715 39.7682L40.889 38.3042C41.0153 38.2789 41.1415 38.3294 41.192 38.4556C41.2173 38.5566 41.1668 38.6828 41.0405 38.7333L36.7978 40.1973C36.7809 40.1973 36.7557 40.1973 36.722 40.1973Z" fill="#959A9C"/>
<path d="M36.722 42.6211C36.6463 42.6211 36.5452 42.5707 36.52 42.4697C36.4947 42.3687 36.5452 42.2425 36.6715 42.192L40.889 40.728C41.0153 40.7027 41.1415 40.7532 41.192 40.8794C41.2173 40.9804 41.1668 41.1066 41.0405 41.1571L36.7978 42.6211C36.7809 42.6211 36.7557 42.6211 36.722 42.6211Z" fill="#959A9C"/>
<path d="M36.722 45.044C36.6463 45.044 36.5452 44.9935 36.52 44.8926C36.4947 44.7916 36.5452 44.6654 36.6715 44.6149L40.889 43.1508C41.0153 43.1256 41.1415 43.1761 41.192 43.3023C41.2173 43.4033 41.1668 43.5295 41.0405 43.58L36.7978 45.044C36.7809 45.044 36.7557 45.044 36.722 45.044Z" fill="#959A9C"/>
<path d="M36.7235 47.1392C36.6225 47.1392 36.5215 47.0382 36.5215 46.912V28.0309C36.5215 27.9047 36.6225 27.8037 36.7235 27.8037C36.8498 27.8037 36.9508 27.9047 36.9508 28.0309V46.912C36.9508 47.0382 36.8498 47.1392 36.7235 47.1392Z" fill="#777B7E"/>
<g style="mix-blend-mode:screen">
<path d="M14.3258 28.2077C13.9385 28.0899 13.5513 27.9637 13.1641 27.8291V45.8015C13.5513 45.9361 13.9385 46.0623 14.3258 46.1801V28.2077Z" fill="#75787B"/>
</g>
<g style="mix-blend-mode:screen" opacity="0.4">
<path d="M31.5742 15.0564C31.5742 19.4738 25.4879 23.0834 17.9873 23.0834C10.4867 23.0834 4.40039 19.4738 4.40039 15.0564C4.40039 10.6391 10.4867 7.05469 17.9873 7.05469C25.4879 7.05469 31.5742 10.6391 31.5742 15.0564Z" fill="#D8EEF2"/>
</g>
<g style="mix-blend-mode:screen" opacity="0.4">
<path d="M32.484 24.2694C32.484 24.9257 31.5748 25.481 30.4383 25.481C29.3271 25.481 28.418 24.9257 28.418 24.2694C28.418 23.6131 29.3271 23.083 30.4383 23.083C31.5748 23.083 32.484 23.6131 32.484 24.2694Z" fill="#D8EEF2"/>
</g>
<g style="mix-blend-mode:multiply" opacity="0.4">
<path d="M9.57768 5.11133C9.42615 5.19547 9.2662 5.27961 9.09784 5.36375C3.92067 8.36756 1.64777 12.4063 2.25388 16.3188C2.75896 13.2393 5.03186 10.2355 9.09784 7.86271C9.2662 7.77857 9.42615 7.68603 9.57768 7.58506V5.11133Z" fill="#888D8E"/>
</g>
<g style="mix-blend-mode:multiply" opacity="0.4">
<path d="M42.8373 5.36354C41.7767 4.75773 40.6402 4.22765 39.4785 3.74805V6.24701C40.6402 6.72661 41.7767 7.25669 42.8373 7.8625C46.9791 10.2605 49.3025 13.3148 49.7823 16.4448C50.3884 12.4818 48.0903 8.39259 42.8373 5.36354Z" fill="#888D8E"/>
</g>
<g style="mix-blend-mode:multiply" opacity="0.5">
<path d="M48.7227 21.8214V39.7181C50.5157 37.6482 51.3996 35.4017 51.4249 33.1551L51.4754 15.208C51.4501 17.4798 50.541 19.7516 48.7227 21.8214Z" fill="#C9CECF"/>
</g>
</svg>
