<svg width="59" height="56" viewBox="0 0 59 56" fill="none" xmlns="http://www.w3.org/2000/svg">
<path d="M34.203 24.4715L16.5932 14.2617L16.6285 23.4858L34.2383 33.678L34.203 24.4715Z" fill="#898884"/>
<path d="M58.7109 10.3543L41.1012 0.144531L16.5922 14.2622L34.2019 24.472L58.7109 10.3543Z" fill="#CECDC8"/>
<path d="M56.4492 10.2801L41.1686 1.42578L18.8829 14.2585L33.9341 23.2537L56.4492 10.2801Z" fill="#898884"/>
<path d="M19.924 14.8746L18.8829 14.2585L41.1686 1.42578L56.4492 10.2801L55.3905 10.8963L41.1686 2.6404L19.924 14.8746Z" fill="#A1A3A4"/>
<path d="M19.9272 14.8746L18.8862 14.2585L41.1719 1.42578V2.6404L19.9272 14.8746Z" fill="#898884"/>
<path d="M19.928 14.8865L41.1726 2.65234L55.3945 10.9082L33.9381 23.2656L19.928 14.8865Z" fill="#E5E4DE"/>
<path d="M34.2018 24.4575L34.237 33.664L18.5859 42.6768L18.6388 55.6855L34.2723 46.6727L35.4546 46.0038L58.7637 32.5726L58.7107 10.3398L34.2018 24.4575Z" fill="#E5E4DE"/>
<path d="M34.2383 33.6727L16.6285 23.4805L0.99501 32.4757L18.5871 42.6855L34.2383 33.6727Z" fill="#CECDC8"/>
<path d="M4.87894 33.5381L3.06149 32.4819L16.7541 24.6133L32.1582 33.5381L30.3408 34.5943L16.7541 26.7081L4.87894 33.5381Z" fill="#A1A3A4"/>
<path d="M4.87894 33.5381L3.06149 32.4819L16.7541 24.6133L32.1582 33.5381L30.3408 34.5943L16.7541 26.7081L4.87894 33.5381Z" fill="#A1A3A4"/>
<path d="M4.87879 33.5381L3.06134 32.4819L16.7539 24.6133V26.7081L4.87879 33.5381Z" fill="#898884"/>
<path d="M4.88194 33.5449L16.7571 26.7148L30.3438 34.601L18.4686 41.4311L4.88194 33.5449Z" fill="#E5E4DE"/>
<path d="M18.5877 42.6922L0.995567 32.4824L1.03085 45.4911L18.6406 55.7009L18.5877 42.6922Z" fill="#898884"/>
<path d="M32.9785 25.2786V28.0422L17.1685 18.9414L17.1862 16.1777L32.9785 25.2786Z" fill="#A1A3A4"/>
<path d="M32.9797 25.2623L33.6855 24.8574V27.6211L32.9797 28.026V25.2623Z" fill="#E5E4DE"/>
<path d="M17.1874 16.1685L17.8756 15.7637L33.6855 24.8645L32.9797 25.2694L17.1874 16.1685Z" fill="#CECDC8"/>
<path d="M32.9785 29.8098V32.5911L17.1685 23.4727L17.1862 20.709L32.9785 29.8098Z" fill="#A1A3A4"/>
<path d="M32.9797 29.8404L33.6855 29.4355V32.2168L32.9797 32.6217V29.8404Z" fill="#E5E4DE"/>
<path d="M17.1874 20.7232L17.8756 20.3184L33.6855 29.4192L32.9797 29.824L17.1874 20.7232Z" fill="#CECDC8"/>
<path d="M52.0721 28.5454L51.4722 28.1934L51.4898 36.7485L52.1074 37.1005L52.0721 28.5454Z" fill="#323334"/>
<path d="M49.0019 30.3287L49.0372 38.8838L52.1074 37.1235L52.0721 28.5684L49.0019 30.3287Z" fill="#BFD3DE"/>
<path d="M52.0703 28.5454L51.4704 28.1934L48.4002 29.9537L49.0001 30.3057L52.0703 28.5454Z" fill="#5AB2D4"/>
<path d="M49.0018 30.3267L48.4019 29.9746L48.4195 38.5297L49.0371 38.8818L49.0018 30.3267Z" fill="#519FBE"/>
<path d="M48.6874 30.5298L48.0874 30.1777L48.1051 38.7329L48.7227 39.0849L48.6874 30.5298Z" fill="#323334"/>
<path d="M48.6836 30.5298L48.0837 30.1777L45.0134 31.938L45.6133 32.2901L48.6836 30.5298Z" fill="#5AB2D4"/>
<path d="M45.6171 32.2896L45.6524 40.8447L48.7227 39.0844L48.6874 30.5293L45.6171 32.2896Z" fill="#BFD3DE"/>
<path d="M45.6073 32.2954L45.0073 31.9434L45.025 40.4985L45.6426 40.8505L45.6073 32.2954Z" fill="#519FBE"/>
<path d="M52.4824 28.0605L45.2302 32.2325L45.2479 41.0516L45.6537 40.8228L45.6184 32.2677L48.6887 30.5074L48.724 39.0625L49.0416 38.8689L49.0063 30.3137L52.0765 28.5534L52.1118 37.1086L52.5 36.8797L52.4824 28.0605Z" fill="#7E8082"/>
<path d="M45.2226 32.2564L44.6227 31.9043L44.6403 40.7235L45.2402 41.0755L45.2226 32.2564Z" fill="#57585A"/>
<path d="M52.4746 28.0689L51.857 27.7168L44.6226 31.8887L45.2225 32.2408L52.4746 28.0689Z" fill="#8C8E91"/>
<path d="M57.2675 14.5703L57.2852 19.6752L54.3208 21.3827L54.3031 16.2954L57.2675 14.5703Z" fill="#87AEC1"/>
<path d="M54.321 21.3745L54.1622 21.2865L57.144 19.5781L57.2852 19.6662L54.321 21.3745Z" fill="#8C8E91"/>
<path d="M57.2852 19.6753L57.144 19.5873L57.1263 14.5L57.2675 14.5704L57.2852 19.6753Z" fill="#57585A"/>
<path d="M54.3015 16.2964L54.1603 16.2083L57.1245 14.5L57.2656 14.5704L54.3015 16.2964Z" fill="#96C2D6"/>
<path d="M54.3145 21.3628L54.1556 21.2748V16.1875L54.2968 16.2755L54.3145 21.3628Z" fill="#5D7885"/>
<path d="M54.1816 21.6877L54.0405 21.5997L54.0229 16.0547L54.164 16.1251L54.1816 21.6877Z" fill="#57585A"/>
<path d="M54.1618 16.1346L54.0206 16.0641L57.267 14.1797L57.4082 14.2677L54.1618 16.1346Z" fill="#8C8E91"/>
<path d="M55.7812 15.4063V20.5113L55.6577 20.4584L55.6754 15.3359L55.7812 15.4063Z" fill="#666666"/>
<path d="M55.7788 15.4063L55.9199 15.3359L55.9023 20.4408L55.7788 20.5113V15.4063Z" fill="#7E8082"/>
<path d="M55.6729 15.3362L55.7964 15.2656L55.9199 15.3362L55.7788 15.4067L55.6729 15.3362Z" fill="#A5A5A5"/>
<path fill-rule="evenodd" clip-rule="evenodd" d="M54.1791 21.6844L57.4258 19.8008L57.4081 14.2559L54.1614 16.1218L54.1791 21.6844ZM57.2846 19.6776L54.3203 21.3851L54.3026 16.2802L57.267 14.5727L57.2846 19.6776Z" fill="#7E8082"/>
<path d="M51.2519 18.1094L51.2695 23.2143L48.2875 24.9218L48.2699 19.8169L51.2519 18.1094Z" fill="#87AEC1"/>
<path d="M48.2878 24.9136L48.1466 24.8255L51.1108 23.1172L51.2695 23.2052L48.2878 24.9136Z" fill="#8C8E91"/>
<path d="M51.2695 23.1851L51.1107 23.0971L51.0931 17.9922L51.2519 18.0802L51.2695 23.1851Z" fill="#57585A"/>
<path d="M48.276 19.7886L48.1349 19.7005L51.099 17.9922L51.2578 18.0802L48.276 19.7886Z" fill="#96C2D6"/>
<path d="M48.291 24.896L48.1498 24.808L48.1322 19.7031L48.2734 19.7911L48.291 24.896Z" fill="#5D7885"/>
<path d="M48.1562 25.2033L48.0151 25.1329L47.9974 19.5703L48.1386 19.6583L48.1562 25.2033Z" fill="#57585A"/>
<path d="M48.1422 19.6502L48.001 19.5622L51.2475 17.6953L51.4062 17.7834L48.1422 19.6502Z" fill="#8C8E91"/>
<path d="M49.7832 18.9767L49.7656 24.0816L49.6597 24.0288V18.9062L49.7832 18.9767Z" fill="#666666"/>
<path d="M49.7866 18.9708L49.9102 18.8828V24.0053L49.769 24.0757L49.7866 18.9708Z" fill="#7E8082"/>
<path d="M49.6631 18.9065L49.8043 18.8359L49.9102 18.8888L49.7866 18.977L49.6631 18.9065Z" fill="#A5A5A5"/>
<path fill-rule="evenodd" clip-rule="evenodd" d="M48.1497 25.2058L51.4141 23.3399L51.3964 17.7949L48.1321 19.6609L48.1497 25.2058ZM51.2729 23.1991L48.2909 24.9066V19.8017L51.2553 18.0942L51.2729 23.1991Z" fill="#7E8082"/>
<path d="M45.2206 21.5391L45.2383 26.644L42.2739 28.3515L42.2563 23.2466L45.2206 21.5391Z" fill="#87AEC1"/>
<path d="M42.2741 28.3433L42.1154 28.2552L45.0971 26.5469L45.2383 26.6349L42.2741 28.3433Z" fill="#8C8E91"/>
<path d="M45.2383 26.6382L45.0971 26.5502L45.0795 21.4453L45.2206 21.5333L45.2383 26.6382Z" fill="#57585A"/>
<path d="M42.2624 23.2417L42.1036 23.1536L45.0854 21.4453L45.2266 21.5334L42.2624 23.2417Z" fill="#96C2D6"/>
<path d="M42.2773 28.357L42.1186 28.269L42.1009 23.1641L42.2597 23.2521L42.2773 28.357Z" fill="#5D7885"/>
<path d="M42.127 28.6564L41.9681 28.5684L41.9505 23.0234L42.1093 23.1115L42.127 28.6564Z" fill="#57585A"/>
<path d="M42.1188 23.1033L41.96 23.0153L45.2241 21.1484L45.3652 21.2365L42.1188 23.1033Z" fill="#8C8E91"/>
<path d="M43.7324 22.4142V27.5191L43.6089 27.4663L43.6266 22.3438L43.7324 22.4142Z" fill="#666666"/>
<path d="M43.7358 22.4083L43.877 22.3203L43.8593 27.4428L43.7358 27.5132V22.4083Z" fill="#7E8082"/>
<path d="M43.6299 22.344L43.7534 22.2734L43.877 22.3263L43.7358 22.4145L43.6299 22.344Z" fill="#A5A5A5"/>
<path fill-rule="evenodd" clip-rule="evenodd" d="M42.1283 28.6511L45.375 26.7852L45.3573 21.2402L42.1107 23.1062L42.1283 28.6511ZM45.2338 26.6268L42.2695 28.3519L42.2518 23.247L45.2162 21.5395L45.2338 26.6268Z" fill="#7E8082"/>
<path d="M39.3534 25.0859L39.3711 30.1732L36.4067 31.8983L36.3891 26.7934L39.3534 25.0859Z" fill="#87AEC1"/>
<path d="M36.4069 31.9156L36.2482 31.8275L39.2299 30.1016L39.3711 30.1896L36.4069 31.9156Z" fill="#8C8E91"/>
<path d="M39.3711 30.1753L39.2299 30.0873L39.2123 25L39.3534 25.088L39.3711 30.1753Z" fill="#57585A"/>
<path d="M36.3835 26.7964L36.2424 26.7083L39.2065 25L39.3477 25.0881L36.3835 26.7964Z" fill="#96C2D6"/>
<path d="M36.4102 31.9039L36.2513 31.8158V26.7109L36.3925 26.799L36.4102 31.9039Z" fill="#5D7885"/>
<path d="M36.2656 32.2111L36.1245 32.1231L36.1068 26.5781L36.248 26.6661L36.2656 32.2111Z" fill="#57585A"/>
<path d="M36.2418 26.6522L36.1007 26.5641L39.3471 24.6797L39.4883 24.7677L36.2418 26.6522Z" fill="#8C8E91"/>
<path d="M37.873 25.9512V31.0738L37.7495 31.0209L37.7672 25.8984L37.873 25.9512Z" fill="#666666"/>
<path d="M37.8706 25.9454L38.0117 25.875L37.9941 30.9799L37.8706 31.0679V25.9454Z" fill="#7E8082"/>
<path d="M37.7647 25.8929L37.8882 25.8047L38.0117 25.8752L37.8706 25.9458L37.7647 25.8929Z" fill="#A5A5A5"/>
<path fill-rule="evenodd" clip-rule="evenodd" d="M36.2689 32.2L39.5156 30.3341L39.498 24.7715L36.2513 26.655L36.2689 32.2ZM39.3745 30.1756L36.4101 31.8831L36.3925 26.7958L39.3568 25.0707L39.3745 30.1756Z" fill="#7E8082"/>
<path d="M57.2675 24.9922L57.2852 30.0971L54.3208 31.8046L54.3031 26.6997L57.2675 24.9922Z" fill="#87AEC1"/>
<path d="M54.321 31.8198L54.1622 31.7318L57.144 30.0234L57.2852 30.1115L54.321 31.8198Z" fill="#8C8E91"/>
<path d="M57.2852 30.0914L57.144 30.0033L57.1263 24.8984L57.2675 24.9865L57.2852 30.0914Z" fill="#57585A"/>
<path d="M54.3015 26.6948L54.1603 26.6068L57.1245 24.8984L57.2656 24.9865L54.3015 26.6948Z" fill="#96C2D6"/>
<path d="M54.3145 31.7867L54.1556 31.6987V26.5938L54.2968 26.6818L54.3145 31.7867Z" fill="#5D7885"/>
<path d="M54.1816 32.0861L54.0405 31.9981L54.0229 26.4531L54.164 26.5411L54.1816 32.0861Z" fill="#57585A"/>
<path d="M54.1618 26.5565L54.0206 26.4684L57.267 24.6016L57.4082 24.6896L54.1618 26.5565Z" fill="#8C8E91"/>
<path d="M55.7812 25.8263V30.9488L55.6577 30.8959L55.6754 25.7734L55.7812 25.8263Z" fill="#666666"/>
<path d="M55.7788 25.8439L55.9199 25.7734L55.9023 30.8783L55.7788 30.9664V25.8439Z" fill="#7E8082"/>
<path d="M55.6729 25.7913L55.7964 25.7031L55.9199 25.7737L55.7788 25.8442L55.6729 25.7913Z" fill="#A5A5A5"/>
<path fill-rule="evenodd" clip-rule="evenodd" d="M54.1791 32.0965L57.4258 30.2305L57.4081 24.6855L54.1614 26.5515L54.1791 32.0965ZM57.2846 30.0721L54.3203 31.7796L54.3026 26.6923L57.267 24.9848L57.2846 30.0721Z" fill="#7E8082"/>
<path d="M40.2383 34.916V39.7393L37.4327 41.3588L37.4151 36.5355L40.2383 34.916Z" fill="#87AEC1"/>
<path d="M37.433 41.3509L37.2918 41.2805L40.0971 39.6426L40.2383 39.7306L37.433 41.3509Z" fill="#8C8E91"/>
<path d="M40.2383 39.7335L40.0971 39.6455V34.8223L40.2383 34.9103V39.7335Z" fill="#57585A"/>
<path d="M37.4153 36.5306L37.2742 36.4425L40.0971 34.8223L40.2383 34.9103L37.4153 36.5306Z" fill="#96C2D6"/>
<path d="M37.4395 41.3585L37.2983 41.2881L37.2806 36.4473L37.4218 36.5353L37.4395 41.3585Z" fill="#5D7885"/>
<path d="M37.2949 41.658L37.1538 41.57V36.3066L37.2949 36.3947V41.658Z" fill="#57585A"/>
<path d="M37.2952 36.3981L37.1541 36.31L40.2241 34.5488L40.3652 34.6193L37.2952 36.3981Z" fill="#8C8E91"/>
<path d="M38.8359 35.7442L38.8183 40.5851L38.7124 40.5323L38.7301 35.6738L38.8359 35.7442Z" fill="#666666"/>
<path d="M38.8296 35.7442L38.9531 35.6738V40.5147L38.812 40.5851L38.8296 35.7442Z" fill="#7E8082"/>
<path d="M38.7237 35.6741L38.8473 35.6035L38.9531 35.6741L38.8296 35.7446L38.7237 35.6741Z" fill="#A5A5A5"/>
<path fill-rule="evenodd" clip-rule="evenodd" d="M37.291 41.6506L40.3789 39.8727L40.3613 34.6094L37.291 36.3873V41.6506ZM40.2201 39.7319L37.4145 41.369L37.3969 36.5281L40.2201 34.9086V39.7319Z" fill="#7E8082"/>
<path d="M34.537 38.2598L34.5547 43.083L31.7315 44.7025V39.8793L34.537 38.2598Z" fill="#87AEC1"/>
<path d="M31.7317 44.7181L31.5905 44.63L34.4135 43.0098L34.5547 43.0978L31.7317 44.7181Z" fill="#8C8E91"/>
<path d="M34.5547 43.0773L34.4135 42.9893L34.3959 38.166L34.537 38.254L34.5547 43.0773Z" fill="#57585A"/>
<path d="M31.7298 39.8744L31.5887 39.7863L34.394 38.166L34.5352 38.2541L31.7298 39.8744Z" fill="#96C2D6"/>
<path d="M31.7324 44.7023L31.5913 44.6143V39.791L31.7324 39.879V44.7023Z" fill="#5D7885"/>
<path d="M31.6133 45.0017L31.4721 44.9137L31.4545 39.6504L31.5956 39.7384L31.6133 45.0017Z" fill="#57585A"/>
<path d="M31.5921 39.7418L31.451 39.6537L34.5386 37.8926L34.6621 37.963L31.5921 39.7418Z" fill="#8C8E91"/>
<path d="M33.1152 39.088V43.9288L33.0093 43.876V39.0176L33.1152 39.088Z" fill="#666666"/>
<path d="M33.1187 39.088L33.2422 39.0176V43.8584L33.1187 43.9288V39.088Z" fill="#7E8082"/>
<path d="M33.0128 38.9944L33.1363 38.9238L33.2422 38.9944L33.1187 39.0649L33.0128 38.9944Z" fill="#A5A5A5"/>
<path fill-rule="evenodd" clip-rule="evenodd" d="M31.5997 45.01L34.6699 43.2321L34.6523 37.9688L31.582 39.7467L31.5997 45.01ZM34.5464 43.0913L31.7408 44.7283L31.7232 39.8875L34.5288 38.268L34.5464 43.0913Z" fill="#7E8082"/>
<path d="M28.8301 41.5254V46.3662L26.0245 47.9857L26.0069 43.1449L28.8301 41.5254Z" fill="#87AEC1"/>
<path d="M26.0247 47.9837L25.8836 47.8957L28.6889 46.2754L28.8301 46.3634L26.0247 47.9837Z" fill="#8C8E91"/>
<path d="M28.8301 46.3663L28.6889 46.2783V41.4551L28.8301 41.5255V46.3663Z" fill="#57585A"/>
<path d="M26.0071 43.1458L25.8659 43.0754L28.6889 41.4551L28.8301 41.5255L26.0071 43.1458Z" fill="#96C2D6"/>
<path d="M26.0273 47.9679L25.8862 47.8799L25.8685 43.0566L26.0097 43.1271L26.0273 47.9679Z" fill="#5D7885"/>
<path d="M25.8809 48.2498L25.7397 48.1617V42.916L25.8809 42.9864V48.2498Z" fill="#57585A"/>
<path d="M25.8871 42.984L25.7459 42.9135L28.8159 41.1348L28.957 41.2228L25.8871 42.984Z" fill="#8C8E91"/>
<path d="M27.416 42.3438V47.1847L27.2925 47.1319L27.3101 42.291L27.416 42.3438Z" fill="#666666"/>
<path d="M27.4097 42.338L27.5332 42.2676V47.1084L27.4097 47.1788V42.338Z" fill="#7E8082"/>
<path d="M27.3038 42.2912L27.4273 42.2207L27.5332 42.2736L27.4097 42.3442L27.3038 42.2912Z" fill="#A5A5A5"/>
<path fill-rule="evenodd" clip-rule="evenodd" d="M25.8789 48.2502L28.9668 46.4723L28.9491 41.2266L25.8789 42.9869V48.2502ZM28.808 46.3491L26.0024 47.9686L25.9848 43.1453L28.808 41.5258V46.3491Z" fill="#7E8082"/>
<path d="M23.2636 44.9004L23.2812 49.7412L20.4757 51.3607L20.458 46.5199L23.2636 44.9004Z" fill="#87AEC1"/>
<path d="M20.4759 51.3587L20.3348 51.2707L23.1401 49.6504L23.2812 49.7384L20.4759 51.3587Z" fill="#8C8E91"/>
<path d="M23.2852 49.7179L23.144 49.6299L23.1263 44.8066L23.2675 44.8771L23.2852 49.7179Z" fill="#57585A"/>
<path d="M20.4642 46.4974L20.323 46.4269L23.1284 44.8066L23.2695 44.8771L20.4642 46.4974Z" fill="#96C2D6"/>
<path d="M20.4785 51.3663L20.3374 51.2783L20.3197 46.4551L20.4609 46.5255L20.4785 51.3663Z" fill="#5D7885"/>
<path d="M20.3398 51.6482L20.1987 51.5602L20.181 46.3145L20.3222 46.3849L20.3398 51.6482Z" fill="#57585A"/>
<path d="M20.3206 46.359L20.1794 46.2885L23.267 44.5098L23.4082 44.5978L20.3206 46.359Z" fill="#8C8E91"/>
<path d="M21.8652 45.7579L21.8476 50.5987L21.7417 50.5459L21.7594 45.7051L21.8652 45.7579Z" fill="#666666"/>
<path d="M21.8648 45.7521L21.9883 45.6816L21.9706 50.5225L21.8471 50.5929L21.8648 45.7521Z" fill="#7E8082"/>
<path d="M21.7589 45.7053L21.8824 45.6348L21.9883 45.6877L21.8648 45.7582L21.7589 45.7053Z" fill="#A5A5A5"/>
<path fill-rule="evenodd" clip-rule="evenodd" d="M20.3398 51.6408L23.4277 49.8629L23.4101 44.6172L20.3222 46.3775L20.3398 51.6408ZM23.2866 49.7397L20.481 51.3592L20.4634 46.5359L23.2689 44.9164L23.2866 49.7397Z" fill="#7E8082"/>
<path d="M15.9641 32.3094L21.7164 35.6364L27.4863 32.3094L21.7517 28.9824L15.9641 32.3094Z" fill="#F7F1E0"/>
<path d="M15.9704 32.3184L15.988 34.818L21.7227 38.145V35.6453L15.9704 32.3184Z" fill="#BFBFBF"/>
<path d="M21.73 35.6453V38.145L27.5176 34.818L27.4999 32.3184L21.73 35.6453Z" fill="#A1A3A4"/>
</svg>
