<svg width="112" height="108" viewBox="0 0 112 108" fill="none" xmlns="http://www.w3.org/2000/svg">
<path d="M64.6255 47.0421L30.736 27.3564L30.8039 45.1414L64.6934 64.7931L64.6255 47.0421Z" fill="#898884"/>
<path d="M111.791 19.8214L77.9015 0.135742L30.7347 27.3562L64.6242 47.0418L111.791 19.8214Z" fill="#CECDC8"/>
<path d="M107.443 19.6855L78.0363 2.61328L35.148 27.3561L64.1137 44.6998L107.443 19.6855Z" fill="#898884"/>
<path d="M37.1515 28.544L35.148 27.3561L78.0363 2.61328L107.443 19.6855L105.406 20.8734L78.0363 4.95519L37.1515 28.544Z" fill="#A1A3A4"/>
<path d="M37.1524 28.544L35.1489 27.3561L78.0371 2.61328V4.95519L37.1524 28.544Z" fill="#898884"/>
<path d="M37.1538 28.5439L78.0385 4.95508L105.408 20.8733L64.116 44.6997L37.1538 28.5439Z" fill="#E5E4DE"/>
<path d="M64.6239 47.0418L64.6918 64.7928L34.5716 82.1704L34.6735 107.253L64.7597 89.875L67.0349 88.5852L111.893 62.6884L111.791 19.8213L64.6239 47.0418Z" fill="#E5E4DE"/>
<path d="M64.6934 64.7933L30.8039 45.1416L0.717648 62.4853L34.5732 82.171L64.6934 64.7933Z" fill="#CECDC8"/>
<path d="M8.18741 64.5556L4.68978 62.5192L31.0407 47.3477L60.6855 64.5556L57.1879 66.5921L31.0407 51.3866L8.18741 64.5556Z" fill="#A1A3A4"/>
<path d="M8.18741 64.5556L4.68978 62.5192L31.0407 47.3477L60.6855 64.5556L57.1879 66.5921L31.0407 51.3866L8.18741 64.5556Z" fill="#A1A3A4"/>
<path d="M8.18771 64.5556L4.69008 62.5192L31.041 47.3477V51.3866L8.18771 64.5556Z" fill="#898884"/>
<path d="M8.18895 64.5557L31.0423 51.3867L57.1895 66.5922L34.3361 79.7612L8.18895 64.5557Z" fill="#E5E4DE"/>
<path d="M34.5739 82.17L0.718384 62.4844L0.786282 87.5666L34.6758 107.252L34.5739 82.17Z" fill="#898884"/>
<path d="M62.252 48.603V53.9317L31.8261 36.3844L31.8601 31.0557L62.252 48.603Z" fill="#A1A3A4"/>
<path d="M62.253 48.6029L63.6113 47.8223V53.151L62.253 53.9316V48.6029Z" fill="#E5E4DE"/>
<path d="M31.8612 31.055L33.1855 30.2744L63.6113 47.8218L62.253 48.6024L31.8612 31.055Z" fill="#CECDC8"/>
<path d="M62.252 57.3589V62.7215L31.8261 45.1402L31.8601 39.8115L62.252 57.3589Z" fill="#A1A3A4"/>
<path d="M62.253 57.3597L63.6113 56.5791V61.9417L62.253 62.7224V57.3597Z" fill="#E5E4DE"/>
<path d="M31.8612 39.8119L33.1855 39.0312L63.6113 56.5786L62.253 57.3592L31.8612 39.8119Z" fill="#CECDC8"/>
<path d="M98.9887 54.9503L97.8342 54.2715L97.8681 70.7667L99.0566 71.4455L98.9887 54.9503Z" fill="#323334"/>
<path d="M93.0801 58.3443L93.148 74.8395L99.0566 71.4454L98.9887 54.9502L93.0801 58.3443Z" fill="#BFD3DE"/>
<path d="M98.9922 54.9503L97.8377 54.2715L91.9291 57.6656L93.0836 58.3444L98.9922 54.9503Z" fill="#5AB2D4"/>
<path d="M93.0825 58.3439L91.9279 57.665L91.9619 74.1602L93.1504 74.8391L93.0825 58.3439Z" fill="#519FBE"/>
<path d="M92.4731 58.7169L91.3186 58.0381L91.3525 74.5333L92.541 75.2121L92.4731 58.7169Z" fill="#323334"/>
<path d="M92.4707 58.7169L91.3161 58.0381L85.4075 61.4322L86.5621 62.111L92.4707 58.7169Z" fill="#5AB2D4"/>
<path d="M86.5645 62.1118L86.6325 78.607L92.541 75.213L92.4731 58.7178L86.5645 62.1118Z" fill="#BFD3DE"/>
<path d="M86.561 62.1114L85.4064 61.4326L85.4404 77.9278L86.6289 78.6066L86.561 62.1114Z" fill="#519FBE"/>
<path d="M99.7727 54L85.8162 62.044L85.8502 79.0483L86.6312 78.607L86.5633 62.1118L92.4719 58.7178L92.5397 75.213L93.151 74.8396L93.0831 58.3444L98.9917 54.9503L99.0596 71.4455L99.8066 71.0043L99.7727 54Z" fill="#7E8082"/>
<path d="M85.8137 62.044L84.6591 61.3652L84.6931 78.3695L85.8477 79.0484L85.8137 62.044Z" fill="#57585A"/>
<path d="M99.7695 53.9991L98.581 53.3203L84.6585 61.3643L85.813 62.0431L99.7695 53.9991Z" fill="#8C8E91"/>
<path d="M109.005 27.8652L109.039 37.708L103.334 41.0003L103.3 31.1914L109.005 27.8652Z" fill="#87AEC1"/>
<path d="M103.334 41L103.029 40.8303L108.767 37.5381L109.039 37.7078L103.334 41Z" fill="#8C8E91"/>
<path d="M109.039 37.7081L108.767 37.5384L108.733 27.7295L109.005 27.8653L109.039 37.7081Z" fill="#57585A"/>
<path d="M103.303 31.1914L103.031 31.0217L108.736 27.7295L109.008 27.8653L103.303 31.1914Z" fill="#96C2D6"/>
<path d="M103.334 41.001L103.028 40.8313V31.0225L103.3 31.1922L103.334 41.001Z" fill="#5D7885"/>
<path d="M103.064 41.611L102.793 41.4413L102.759 30.75L103.031 30.8858L103.064 41.611Z" fill="#57585A"/>
<path d="M103.029 30.8856L102.758 30.7498L109.006 27.1182L109.277 27.2879L103.029 30.8856Z" fill="#8C8E91"/>
<path d="M106.152 29.5283V39.3712L105.915 39.2693L105.949 29.3926L106.152 29.5283Z" fill="#666666"/>
<path d="M106.15 29.5283L106.422 29.3926L106.388 39.2354L106.15 39.3712V29.5283Z" fill="#7E8082"/>
<path d="M105.946 29.3926L106.184 29.2568L106.422 29.3926L106.15 29.5284L105.946 29.3926Z" fill="#A5A5A5"/>
<path fill-rule="evenodd" clip-rule="evenodd" d="M103.068 41.6111L109.316 37.9794L109.282 27.2881L103.034 30.8858L103.068 41.6111ZM109.045 37.7418L103.34 41.0341L103.306 31.1913L109.011 27.899L109.045 37.7418Z" fill="#7E8082"/>
<path d="M97.425 34.7227L97.459 44.5655L91.7202 47.8577L91.6862 38.0149L97.425 34.7227Z" fill="#87AEC1"/>
<path d="M91.7202 47.8565L91.4485 47.6868L97.1534 44.3945L97.459 44.5642L91.7202 47.8565Z" fill="#8C8E91"/>
<path d="M97.459 44.5653L97.1534 44.3956L97.1194 34.5527L97.425 34.7224L97.459 44.5653Z" fill="#57585A"/>
<path d="M91.6889 38.0147L91.4173 37.845L97.1221 34.5527L97.4277 34.7224L91.6889 38.0147Z" fill="#96C2D6"/>
<path d="M91.7207 47.8572L91.449 47.6875L91.4151 37.8447L91.6867 38.0144L91.7207 47.8572Z" fill="#5D7885"/>
<path d="M91.4512 48.4343L91.1795 48.2985L91.1455 37.5732L91.4172 37.7429L91.4512 48.4343Z" fill="#57585A"/>
<path d="M91.4151 37.743L91.1435 37.5733L97.3916 33.9756L97.6973 34.1453L91.4151 37.743Z" fill="#8C8E91"/>
<path d="M94.5742 36.3848L94.5403 46.2276L94.3365 46.1258V36.249L94.5742 36.3848Z" fill="#666666"/>
<path d="M94.5748 36.3845L94.8125 36.2148V46.0916L94.5408 46.2274L94.5748 36.3845Z" fill="#7E8082"/>
<path d="M94.3371 36.249L94.6088 36.1133L94.8125 36.2151L94.5748 36.3848L94.3371 36.249Z" fill="#A5A5A5"/>
<path fill-rule="evenodd" clip-rule="evenodd" d="M91.4542 48.4336L97.7363 44.8359L97.7024 34.1445L91.4203 37.7423L91.4542 48.4336ZM97.4647 44.5643L91.7259 47.8566V38.0138L97.4307 34.7215L97.4647 44.5643Z" fill="#7E8082"/>
<path d="M85.8137 41.374L85.8477 51.2168L80.1428 54.5091L80.1088 44.6663L85.8137 41.374Z" fill="#87AEC1"/>
<path d="M80.1428 54.5088L79.8372 54.3391L85.576 51.0469L85.8477 51.2166L80.1428 54.5088Z" fill="#8C8E91"/>
<path d="M85.8477 51.2166L85.576 51.0469L85.542 41.2041L85.8137 41.3738L85.8477 51.2166Z" fill="#57585A"/>
<path d="M80.1115 44.6661L79.8059 44.4964L85.5447 41.2041L85.8164 41.3738L80.1115 44.6661Z" fill="#96C2D6"/>
<path d="M80.1426 54.5086L79.837 54.3389L79.803 44.4961L80.1086 44.6658L80.1426 54.5086Z" fill="#5D7885"/>
<path d="M79.873 55.0856L79.5674 54.9159L79.5335 44.2246L79.8391 44.3943L79.873 55.0856Z" fill="#57585A"/>
<path d="M79.8378 44.3944L79.5322 44.2247L85.8143 40.627L86.0859 40.7967L79.8378 44.3944Z" fill="#8C8E91"/>
<path d="M82.9629 43.0371V52.88L82.7252 52.7781L82.7592 42.9014L82.9629 43.0371Z" fill="#666666"/>
<path d="M82.9607 43.0369L83.2324 42.8672L83.1984 52.7439L82.9607 52.8797V43.0369Z" fill="#7E8082"/>
<path d="M82.757 42.9014L82.9947 42.7656L83.2324 42.8675L82.9607 43.0372L82.757 42.9014Z" fill="#A5A5A5"/>
<path fill-rule="evenodd" clip-rule="evenodd" d="M79.8768 55.0859L86.125 51.4882L86.091 40.7969L79.8429 44.3946L79.8768 55.0859ZM85.8533 51.1827L80.1485 54.5089L80.1145 44.6661L85.8194 41.3739L85.8533 51.1827Z" fill="#7E8082"/>
<path d="M74.5402 48.2637L74.5742 58.0725L68.8694 61.3987L68.8354 51.5559L74.5402 48.2637Z" fill="#87AEC1"/>
<path d="M68.8694 61.3982L68.5637 61.2285L74.3025 57.9023L74.5742 58.072L68.8694 61.3982Z" fill="#8C8E91"/>
<path d="M74.5742 58.0723L74.3025 57.9026L74.2686 48.0938L74.5402 48.2635L74.5742 58.0723Z" fill="#57585A"/>
<path d="M68.8323 51.5557L68.5606 51.386L74.2655 48.0938L74.5371 48.2635L68.8323 51.5557Z" fill="#96C2D6"/>
<path d="M68.8691 61.3983L68.5635 61.2286V51.3857L68.8352 51.5554L68.8691 61.3983Z" fill="#5D7885"/>
<path d="M68.5996 61.9753L68.328 61.8056L68.294 51.1143L68.5657 51.284L68.5996 61.9753Z" fill="#57585A"/>
<path d="M68.5643 51.2838L68.2927 51.1141L74.5408 47.4824L74.8125 47.6521L68.5643 51.2838Z" fill="#8C8E91"/>
<path d="M71.6875 49.8928V59.7696L71.4498 59.6678L71.4837 49.791L71.6875 49.8928Z" fill="#666666"/>
<path d="M71.6854 49.8926L71.957 49.7568L71.9231 59.5997L71.6854 59.7694V49.8926Z" fill="#7E8082"/>
<path d="M71.4816 49.7908L71.7193 49.6211L71.957 49.7569L71.6854 49.8926L71.4816 49.7908Z" fill="#A5A5A5"/>
<path fill-rule="evenodd" clip-rule="evenodd" d="M68.5956 61.9753L74.8438 58.3776L74.8098 47.6523L68.5616 51.284L68.5956 61.9753ZM74.5721 58.0722L68.8673 61.3644L68.8333 51.5555L74.5381 48.2293L74.5721 58.0722Z" fill="#7E8082"/>
<path d="M109.005 48.0264L109.039 57.8692L103.334 61.1614L103.3 51.3186L109.005 48.0264Z" fill="#87AEC1"/>
<path d="M103.334 61.1612L103.029 60.9915L108.767 57.6992L109.039 57.8689L103.334 61.1612Z" fill="#8C8E91"/>
<path d="M109.039 57.869L108.767 57.6993L108.733 47.8564L109.005 48.0261L109.039 57.869Z" fill="#57585A"/>
<path d="M103.303 51.3184L103.031 51.1487L108.736 47.8564L109.008 48.0261L103.303 51.3184Z" fill="#96C2D6"/>
<path d="M103.334 61.161L103.028 60.9913V51.1484L103.3 51.3181L103.334 61.161Z" fill="#5D7885"/>
<path d="M103.064 61.738L102.793 61.5683L102.759 50.877L103.031 51.0467L103.064 61.738Z" fill="#57585A"/>
<path d="M103.029 51.0467L102.758 50.877L109.006 47.2793L109.277 47.449L103.029 51.0467Z" fill="#8C8E91"/>
<path d="M106.152 49.6555V59.5323L105.915 59.4305L105.949 49.5537L106.152 49.6555Z" fill="#666666"/>
<path d="M106.15 49.6553L106.422 49.5195L106.388 59.3623L106.15 59.532V49.6553Z" fill="#7E8082"/>
<path d="M105.946 49.5535L106.184 49.3838L106.422 49.5195L106.15 49.6553L105.946 49.5535Z" fill="#A5A5A5"/>
<path fill-rule="evenodd" clip-rule="evenodd" d="M103.068 61.7383L109.316 58.1406L109.282 47.4492L103.034 51.0469L103.068 61.7383ZM109.045 57.8351L103.34 61.1273L103.306 51.3185L109.011 48.0262L109.045 57.8351Z" fill="#7E8082"/>
<path d="M76.2422 67.1689V76.4687L70.843 79.5913L70.809 70.2915L76.2422 67.1689Z" fill="#87AEC1"/>
<path d="M70.843 79.5911L70.5713 79.4553L75.9706 76.2988L76.2422 76.4685L70.843 79.5911Z" fill="#8C8E91"/>
<path d="M76.2422 76.4685L75.9706 76.2988V66.999L76.2422 67.1687V76.4685Z" fill="#57585A"/>
<path d="M70.809 70.2913L70.5374 70.1216L75.9706 66.999L76.2422 67.1687L70.809 70.2913Z" fill="#96C2D6"/>
<path d="M70.8379 79.5915L70.5662 79.4558L70.5323 70.1221L70.8039 70.2918L70.8379 79.5915Z" fill="#5D7885"/>
<path d="M70.5684 80.1686L70.2967 79.9989V69.8506L70.5684 70.0203V80.1686Z" fill="#57585A"/>
<path d="M70.5719 70.0198L70.3002 69.8501L76.2088 66.4561L76.4805 66.5918L70.5719 70.0198Z" fill="#8C8E91"/>
<path d="M73.5215 68.7305L73.4875 78.0642L73.2838 77.9624L73.3177 68.5947L73.5215 68.7305Z" fill="#666666"/>
<path d="M73.522 68.7305L73.7598 68.5947V77.9284L73.4881 78.0642L73.522 68.7305Z" fill="#7E8082"/>
<path d="M73.3183 68.5947L73.556 68.459L73.7598 68.5947L73.522 68.7305L73.3183 68.5947Z" fill="#A5A5A5"/>
<path fill-rule="evenodd" clip-rule="evenodd" d="M70.5672 80.1691L76.5098 76.7411L76.4758 66.5928L70.5672 70.0208V80.1691ZM76.2041 76.4695L70.8049 79.626L70.771 70.2923L76.2041 67.1698V76.4695Z" fill="#7E8082"/>
<path d="M65.2356 73.6514L65.2695 82.9511L59.8363 86.0737V76.7739L65.2356 73.6514Z" fill="#87AEC1"/>
<path d="M59.8363 86.0735L59.5647 85.9038L64.9979 82.7812L65.2695 82.951L59.8363 86.0735Z" fill="#8C8E91"/>
<path d="M65.2695 82.9509L64.9979 82.7812L64.9639 73.4814L65.2356 73.6511L65.2695 82.9509Z" fill="#57585A"/>
<path d="M59.8371 76.7737L59.5654 76.604L64.9647 73.4814L65.2363 73.6511L59.8371 76.7737Z" fill="#96C2D6"/>
<path d="M59.8398 86.074L59.5682 85.9043V76.6045L59.8398 76.7742V86.074Z" fill="#5D7885"/>
<path d="M59.6016 86.651L59.3299 86.4813L59.296 76.333L59.5676 76.5027L59.6016 86.651Z" fill="#57585A"/>
<path d="M59.566 76.5023L59.2944 76.3326L65.2369 72.9385L65.4746 73.0742L59.566 76.5023Z" fill="#8C8E91"/>
<path d="M62.5156 75.2129V84.5466L62.3118 84.4448V75.0771L62.5156 75.2129Z" fill="#666666"/>
<path d="M62.5162 75.2129L62.7539 75.0771V84.4109L62.5162 84.5466V75.2129Z" fill="#7E8082"/>
<path d="M62.3124 75.0772L62.5502 74.9414L62.7539 75.0772L62.5162 75.2129L62.3124 75.0772Z" fill="#A5A5A5"/>
<path fill-rule="evenodd" clip-rule="evenodd" d="M59.5973 86.6505L65.5059 83.2225L65.4719 73.0742L59.5633 76.5022L59.5973 86.6505ZM65.2682 82.951L59.8689 86.1075L59.835 76.7738L65.2342 73.6512L65.2682 82.951Z" fill="#7E8082"/>
<path d="M54.2656 79.9307V89.2644L48.8664 92.3869L48.8324 83.0532L54.2656 79.9307Z" fill="#87AEC1"/>
<path d="M48.8664 92.387L48.5948 92.2173L53.9939 89.0947L54.2656 89.2644L48.8664 92.387Z" fill="#8C8E91"/>
<path d="M54.2656 89.2644L53.9939 89.0947V79.7949L54.2656 79.9307V89.2644Z" fill="#57585A"/>
<path d="M48.8324 83.0532L48.5608 82.9175L53.9939 79.7949L54.2656 79.9307L48.8324 83.0532Z" fill="#96C2D6"/>
<path d="M48.8672 92.3865L48.5956 92.2168L48.5616 82.917L48.8332 83.0528L48.8672 92.3865Z" fill="#5D7885"/>
<path d="M48.5977 92.9296L48.326 92.7599V82.6455L48.5977 82.7813V92.9296Z" fill="#57585A"/>
<path d="M48.5954 82.7816L48.3237 82.6458L54.2323 79.2178L54.5039 79.3875L48.5954 82.7816Z" fill="#8C8E91"/>
<path d="M51.5566 81.4915V90.8252L51.319 90.7234L51.3529 81.3896L51.5566 81.4915Z" fill="#666666"/>
<path d="M51.5572 81.4912L51.7949 81.3555V90.6892L51.5572 90.8249V81.4912Z" fill="#7E8082"/>
<path d="M51.3535 81.3897L51.5912 81.2539L51.7949 81.3557L51.5572 81.4915L51.3535 81.3897Z" fill="#A5A5A5"/>
<path fill-rule="evenodd" clip-rule="evenodd" d="M48.6004 92.9301L54.543 89.502L54.509 79.3877L48.6004 82.7818V92.9301ZM54.2373 89.2645L48.8381 92.387L48.8042 83.0872L54.2373 79.9647V89.2645Z" fill="#7E8082"/>
<path d="M43.5676 86.4473L43.6016 95.781L38.2023 98.9035L38.1684 89.5698L43.5676 86.4473Z" fill="#87AEC1"/>
<path d="M38.2023 98.9036L37.9307 98.7339L43.3299 95.6113L43.6016 95.781L38.2023 98.9036Z" fill="#8C8E91"/>
<path d="M43.6016 95.781L43.3299 95.6113L43.2959 86.3115L43.5676 86.4473L43.6016 95.781Z" fill="#57585A"/>
<path d="M38.1711 89.5698L37.8994 89.4341L43.2986 86.3115L43.5703 86.4473L38.1711 89.5698Z" fill="#96C2D6"/>
<path d="M38.2031 98.9031L37.9315 98.7334L37.8975 89.4336L38.1692 89.5694L38.2031 98.9031Z" fill="#5D7885"/>
<path d="M37.9336 99.4461L37.6619 99.2764L37.628 89.1621L37.8996 89.2979L37.9336 99.4461Z" fill="#57585A"/>
<path d="M37.8973 89.2982L37.6256 89.1624L43.5682 85.7344L43.8398 85.9041L37.8973 89.2982Z" fill="#8C8E91"/>
<path d="M40.8926 88.0081L40.8586 97.3418L40.6549 97.24L40.6888 87.9062L40.8926 88.0081Z" fill="#666666"/>
<path d="M40.8931 88.0078L41.1309 87.8721L41.0969 97.2058L40.8592 97.3415L40.8931 88.0078Z" fill="#7E8082"/>
<path d="M40.6894 87.9063L40.9271 87.7705L41.1309 87.8723L40.8931 88.0081L40.6894 87.9063Z" fill="#A5A5A5"/>
<path fill-rule="evenodd" clip-rule="evenodd" d="M37.9364 99.4466L43.8789 96.0186L43.845 85.9043L37.9024 89.2984L37.9364 99.4466ZM43.6072 95.7811L38.208 98.9036L38.174 89.6038L43.5733 86.4813L43.6072 95.7811Z" fill="#7E8082"/>
<path d="M29.5153 62.1453L40.5854 68.5601L51.6895 62.1453L40.6533 55.7305L29.5153 62.1453Z" fill="#F7F1E0"/>
<path d="M29.5139 62.1455L29.5478 66.9651L40.584 73.3799V68.5603L29.5139 62.1455Z" fill="#BFBFBF"/>
<path d="M40.5827 68.5603V73.3799L51.7207 66.9651L51.6868 62.1455L40.5827 68.5603Z" fill="#A1A3A4"/>
</svg>
