<svg width="112" height="215" viewBox="0 0 112 215" fill="none" xmlns="http://www.w3.org/2000/svg">
<path d="M68.2956 13.7573L67.0039 69.1095H73.1772L69.3213 12.4688L68.2956 13.7573Z" fill="#331C10"/>
<path d="M76.5174 13.25L69.3184 23.2365L69.5843 25.5484L76.5174 13.25Z" fill="#331C10"/>
<path d="M61.875 13.496L69.0741 26.0597L68.5612 29.1296L61.875 12.9844V13.496Z" fill="#331C10"/>
<path d="M56.4792 26.3206L69.3197 41.6888V44.5123L60.5821 34.2605L49.793 28.1018L60.3351 32.9719L56.4792 26.3206Z" fill="#331C10"/>
<path d="M82.1614 28.3672L70.0996 38.8653V41.9542L82.1614 28.3672Z" fill="#331C10"/>
<path d="M74.7148 36.041L75.2847 35.7757L88.4102 29.4844L75.9875 34.3355L74.7148 36.041Z" fill="#331C10"/>
<path d="M70.3449 49.6247L77.278 44.2429L81.9888 39.4297L78.3228 44.7546L89.4728 39.4865L78.8356 45.5315L70.3449 52.9598L69.832 49.3783" fill="#331C10"/>
<path d="M50.3242 40.3413L59.8217 48.357L69.0722 53.2271L69.3191 50.9152L60.5815 47.3337L58.0172 38.3516L59.3088 46.2915L50.3242 40.3413Z" fill="#331C10"/>
<path d="M61.875 13.4963L62.6347 14.8424L61.875 12.9844V13.4963Z" fill="#331C10"/>
<path d="M89.4733 39.4911L78.3233 44.7591L81.9893 39.4342L77.2786 44.2475L71.7701 48.5301L71.2382 40.647L75.797 35.5306L88.4096 29.4856L77.3166 33.8251L82.1603 28.3676L71.0672 38.032L70.1365 24.5397L76.5188 13.2457L69.9845 22.3037L69.3197 12.4688L68.294 13.7573L68.0471 24.2744L62.6335 14.8375C67.9521 27.8938 68.389 25.2598 67.6862 39.7374L56.4792 26.321L60.3351 32.9724L49.793 28.1023L60.5821 34.261L67.6292 42.5231L67.4582 50.1408L60.5821 47.3363L58.0178 38.3541L59.3094 46.2941L50.3248 40.3438L59.8223 48.3596L67.4012 52.339L67.0023 69.1095H73.1757L71.979 51.5431L78.8362 45.5361L89.4733 39.4911Z" fill="#331C10"/>
<g style="mix-blend-mode:multiply">
<path d="M61.8691 13.4963L62.6289 14.8424L61.8691 12.9844V13.4963Z" fill="#331C10"/>
<path d="M71.9727 51.5442L78.8299 45.5372L89.467 39.4922L77.7851 45.5372L71.1179 50.9189L69.4844 69.1106H73.1694L71.9727 51.5442Z" fill="#331C10"/>
<path d="M70.0938 38.8701L70.3977 49.084L71.7274 47.8712L71.2335 40.6513L75.7923 35.5349L88.4049 29.4899L77.3119 33.8294L82.1556 28.3719L71.0626 38.0363L70.1318 24.544L76.5141 13.25L69.543 24.2409L70.0938 38.8701Z" fill="#331C10"/>
</g>
<mask id="mask0_100_27208" style="mask-type:luminance" maskUnits="userSpaceOnUse" x="48" y="0" width="43" height="18">
<path d="M85.2532 6.94157C84.5846 6.94157 83.9482 7.06853 83.3575 7.29214C81.817 3.9892 77.2981 2.37468 73.9493 4.08205C70.1181 -2.3097 59.3024 -0.274495 58.1133 7.11022C55.7218 6.45077 53.074 7.73367 52.0463 9.86362C45.8559 10.7258 48.9559 20.0472 54.4359 17.0266C56.6051 18.1845 59.6158 17.4473 61.0176 15.5163C63.9428 18.1788 69.1398 18.2489 72.1372 15.6566C74.4907 18.0385 78.9279 18.2186 81.4694 16.0147C89.244 22.4595 95.3395 7.92127 85.2532 6.94157Z" fill="white"/>
</mask>
<g mask="url(#mask0_100_27208)">
<path d="M85.2496 6.94914C84.5848 6.94914 83.939 7.06284 83.3502 7.29024C81.8116 3.99298 77.2908 2.38226 73.9477 4.08773C70.1107 -2.29833 59.3026 -0.270708 58.1059 7.11969C55.7126 6.45645 53.0723 7.74504 52.0466 9.86741C45.8542 10.7201 48.9504 20.0434 54.4399 17.0304C56.6053 18.1863 59.6255 17.4473 61.0121 15.5144C63.9374 18.1863 69.142 18.2432 72.1432 15.666C74.4985 18.0347 78.9243 18.2242 81.4697 16.0071C89.2386 22.469 95.3359 7.91558 85.2496 6.94914Z" fill="#769914"/>
<g style="mix-blend-mode:multiply">
<path d="M88.6119 8.12695C90.2835 13.0918 83.7112 17.1849 79.9692 13.6224C77.5759 15.9911 73.1311 16.1048 70.6238 13.8687C67.8125 16.6543 62.6079 16.9196 59.5307 14.4372C58.2391 16.4648 55.2949 17.3934 53.0535 16.3701C52.3317 16.8817 51.3629 17.147 50.4512 17.0333C51.5909 17.7724 53.2814 17.7724 54.4401 17.0333C56.6055 18.1893 59.6257 17.4502 61.0123 15.5174C63.9375 18.1893 69.1422 18.2461 72.1433 15.669C74.4987 18.0377 78.9245 18.2272 81.4698 16.01C86.7124 21.1644 94.2724 12.7886 88.6119 8.12695Z" fill="#A3C02D"/>
</g>
<g style="mix-blend-mode:multiply">
<path d="M77.0051 2.10105L73.947 4.09077C73.947 4.09077 70.5469 5.01931 69.5781 7.91862C70.072 4.31817 72.9022 1.62731 77.0051 2.10105Z" fill="#A3C02D"/>
</g>
<g style="mix-blend-mode:multiply">
<path d="M88.6472 4.37079L85.589 6.34156C85.589 6.34156 82.1699 7.2701 81.2012 10.1694C81.714 6.56896 84.5443 3.87809 88.6472 4.37079Z" fill="#A3C02D"/>
</g>
</g>
<mask id="mask1_100_27208" style="mask-type:luminance" maskUnits="userSpaceOnUse" x="73" y="19" width="22" height="13">
<path d="M90.1959 22.4871C89.8844 22.4871 89.5817 22.5174 89.2879 22.578C86.8661 17.0977 77.9157 18.6801 77.6156 24.7383C70.6064 24.9619 75.0494 35.0867 79.9633 30.1295C81.9217 31.7573 85.2078 31.8539 87.2612 30.3341C93.8638 35.1967 98.3922 23.1465 90.1959 22.4871Z" fill="white"/>
</mask>
<g mask="url(#mask1_100_27208)">
<path d="M89.9097 25.2972C89.7768 33.3698 77.734 33.3698 77.582 25.2972C77.734 17.2056 89.7768 17.2056 89.9097 25.2972Z" fill="#769914"/>
<path d="M94.6765 26.9639C94.6575 32.8193 85.7299 32.8193 85.7109 26.9639C85.7299 21.1084 94.6575 21.1084 94.6765 26.9639Z" fill="#769914"/>
<path d="M80.6779 28.0833C80.7349 32.4417 73.8778 32.4417 73.9538 28.0833C73.8778 23.7248 80.7349 23.7248 80.6779 28.0833Z" fill="#769914"/>
<g style="mix-blend-mode:multiply">
<path d="M92.4354 20.5319L89.7761 22.2374C89.7761 22.2374 86.8319 23.0522 85.9961 25.5536C86.376 22.4838 88.9403 20.0771 92.4354 20.5319Z" fill="#A3C02D"/>
</g>
<g style="mix-blend-mode:multiply">
<path d="M93.4774 23.9238C94.4651 27.7138 89.8113 30.8405 86.6582 28.6234C84.8347 30.4046 81.5676 30.7647 79.4022 29.4193C78.7373 30.6699 77.0658 31.39 75.6602 30.9921C77.0278 31.8259 79.0412 31.39 79.953 30.1204C81.9095 31.7501 85.1956 31.8448 87.266 30.3288C91.3309 34.024 97.3143 27.8654 93.4774 23.9238Z" fill="#A3C02D"/>
</g>
</g>
<mask id="mask2_100_27208" style="mask-type:luminance" maskUnits="userSpaceOnUse" x="74" y="34" width="24" height="11">
<path d="M93.8514 37.2023C93.5969 37.2023 93.3506 37.2275 93.1125 37.2781C91.6822 33.96 86.4985 33.5469 84.5591 36.6054C82.3082 34.5531 78.2547 35.7375 77.455 38.6425C71.4393 38.8699 74.9078 47.7289 79.4856 43.8498C81.2217 44.9186 83.7879 44.4581 85.0473 42.9118C86.5821 44.6268 89.6061 44.9451 91.477 43.5523C96.8184 47.4901 100.486 37.7367 93.8514 37.2023Z" fill="white"/>
</mask>
<g mask="url(#mask2_100_27208)">
<path d="M93.6266 39.4647C93.5886 45.9644 83.6733 45.9644 83.6543 39.4647C83.6733 32.9649 93.5886 32.9649 93.6266 39.4647Z" fill="#769914"/>
<path d="M97.4871 40.8332C97.5441 45.5138 90.1551 45.5138 90.2311 40.8332C90.1551 36.1337 97.5441 36.1337 97.4871 40.8332Z" fill="#769914"/>
<path d="M86.1469 39.9935C86.1279 45.8111 77.2763 45.8111 77.2383 39.9935C77.2763 34.1949 86.1279 34.1949 86.1469 39.9935Z" fill="#769914"/>
<path d="M80.371 41.6994C80.428 45.6978 74.1407 45.6978 74.1977 41.6994C74.1407 37.72 80.428 37.72 80.371 41.6994Z" fill="#769914"/>
<g style="mix-blend-mode:multiply">
<path d="M99.5372 34.5378L96.289 36.6413C96.289 36.6413 92.68 37.6077 91.6543 40.6776C92.1862 36.8876 95.1873 34.0262 99.5372 34.5378Z" fill="#A3C02D"/>
</g>
<g style="mix-blend-mode:multiply">
<path d="M88.1571 31.7285L86.2006 35.0447C86.2006 35.0447 83.4273 37.5461 83.9022 40.7486C82.6486 37.1102 84.0352 33.2066 88.1571 31.7285Z" fill="#A3C02D"/>
</g>
<g style="mix-blend-mode:multiply">
<path d="M97.105 39.2363C96.6492 41.6619 93.42 42.8747 91.4636 41.3397C89.716 42.8936 86.6769 42.8368 84.9863 41.2639C83.8846 42.9126 81.3583 43.5948 79.5348 42.6852C78.1102 44.5802 74.7861 43.9169 74.1972 41.624C74.0263 44.3528 77.6733 45.8498 79.4778 43.8601C81.2253 44.9213 83.7896 44.4665 85.0433 42.9126C86.5819 44.637 89.6021 44.9402 91.4826 43.5569C94.2748 46.153 98.9096 42.6473 97.105 39.2363Z" fill="#A3C02D"/>
</g>
</g>
<mask id="mask3_100_27208" style="mask-type:luminance" maskUnits="userSpaceOnUse" x="44" y="34" width="22" height="10">
<path d="M62.0893 36.4252C61.8627 36.4252 61.643 36.4473 61.4302 36.4915C60.1519 33.5297 55.5228 33.1602 53.7905 35.8908C51.7808 34.0584 48.1604 35.1177 47.4462 37.71C42.0725 37.9147 45.1725 45.8243 49.2583 42.3622C50.8102 43.3172 53.1029 42.906 54.2254 41.5246C55.5988 43.0557 58.298 43.34 59.9676 42.095C64.7391 45.612 68.0157 36.9008 62.0893 36.4252Z" fill="white"/>
</mask>
<g mask="url(#mask3_100_27208)">
<path d="M61.8871 38.4608C61.8491 44.2595 52.9975 44.2595 52.9785 38.4608C52.9975 32.6433 61.8681 32.6433 61.8871 38.4608Z" fill="#769914"/>
<path d="M65.3292 39.6747C65.3862 43.8626 58.7949 43.8626 58.8519 39.6747C58.7949 35.4678 65.3862 35.4678 65.3292 39.6747Z" fill="#769914"/>
<path d="M55.2035 38.9371C55.1845 44.1294 47.2827 44.1294 47.2637 38.9371C47.2827 33.7449 55.1845 33.7449 55.2035 38.9371Z" fill="#769914"/>
<path d="M50.0361 40.4578C50.093 44.0203 44.4895 44.0203 44.5275 40.4578C44.4895 36.9142 50.093 36.8952 50.0361 40.4578Z" fill="#769914"/>
<g style="mix-blend-mode:multiply">
<path d="M65.8211 34.0073L63.2377 35.6749C63.2377 35.6749 60.3695 36.4518 59.5527 38.8963C59.9326 35.9212 62.421 33.5715 65.8211 34.0073Z" fill="#A3C02D"/>
</g>
<g style="mix-blend-mode:multiply">
<path d="M56.6074 31.8223L54.9738 34.4184C54.9738 34.4184 52.7134 36.3323 52.9983 38.8905C52.0866 36.0291 53.3402 32.8645 56.6074 31.8223Z" fill="#A3C02D"/>
</g>
<g style="mix-blend-mode:multiply">
<path d="M64.8344 37.9629C64.9673 40.559 61.7002 42.2076 59.6868 40.6159C58.1102 41.9802 55.4129 41.9044 53.9123 40.4832C52.9056 41.9613 50.6452 42.5487 49.0306 41.7149C48.0809 42.9467 45.9535 43.0225 44.9277 41.8665C45.7445 43.3636 48.1189 43.6478 49.2586 42.3782C50.8162 43.3257 53.0955 42.9088 54.2352 41.5254C55.6029 43.0604 58.3001 43.3446 59.9717 42.0939C62.612 44.5385 66.8288 40.9759 64.8344 37.9629Z" fill="#A3C02D"/>
</g>
</g>
<mask id="mask4_100_27208" style="mask-type:luminance" maskUnits="userSpaceOnUse" x="39" y="19" width="28" height="14">
<path d="M62.3696 23.6602C62.162 23.6627 61.9587 23.6797 61.7599 23.7113C60.265 17.7782 51.2367 18.1742 50.2851 24.2343C48.2108 22.9192 45.1584 23.9975 44.3416 26.2506C42.3053 24.9601 39.42 26.5708 39.4884 29.0002C39.3782 32.0833 43.7318 33.3681 45.3483 30.8118C47.263 32.7731 50.9936 31.9981 51.9775 29.4739C53.7137 31.2723 56.9352 31.6759 59.0816 30.3153C64.8333 36.3015 70.6514 24.5944 62.3696 23.6602Z" fill="white"/>
</mask>
<g mask="url(#mask4_100_27208)">
<path d="M61.9624 25.2579C61.9244 32.9515 50.2235 32.9515 50.1855 25.2579C50.2235 17.5833 61.9434 17.5833 61.9624 25.2579Z" fill="#769914"/>
<path d="M52.332 27.8025C52.313 33.2221 44.0692 33.2221 44.0312 27.8025C44.0692 22.4018 52.313 22.4018 52.332 27.8025Z" fill="#769914"/>
<path d="M66.5195 27.8025C66.5005 33.2221 58.2377 33.2221 58.2188 27.8025C58.2377 22.4018 66.5005 22.4018 66.5195 27.8025Z" fill="#769914"/>
<path d="M45.9109 29.0115C45.9679 33.1615 39.4336 33.1615 39.4906 29.0115C39.4336 24.8425 45.9679 24.8425 45.9109 29.0115Z" fill="#769914"/>
<g style="mix-blend-mode:multiply">
<path d="M65.4376 21.5295L62.9112 23.1592C62.9112 23.1592 60.1 23.9361 59.2832 26.3428C59.6631 23.4055 62.1134 21.0937 65.4376 21.5295Z" fill="#A3C02D"/>
</g>
<g style="mix-blend-mode:multiply">
<path d="M48.1538 21.7188L46.3113 24.1064C46.3113 24.1064 44.0319 24.9971 43.9369 28.2754C43.3291 25.395 44.8676 22.4009 48.1538 21.7188Z" fill="#A3C02D"/>
</g>
<g style="mix-blend-mode:multiply">
<path d="M65.3807 24.9473C65.7226 28.5477 60.9169 30.7459 58.3906 28.1877C56.5101 29.8742 53.262 30.0068 51.2485 28.5098C50.7927 30.5374 48.5323 32.0155 46.4238 31.5418C48.4563 32.5651 51.1536 31.5039 51.9703 29.4573C53.7179 31.2575 56.928 31.6744 59.0744 30.31C62.5885 34.8011 69.2747 29.1162 65.3807 24.9473Z" fill="#A3C02D"/>
</g>
</g>
<path d="M65.6861 69.6363C65.6861 69.6363 65.4581 66.3959 63.7676 64.9178C63.7676 64.9178 66.1609 66.8886 66.3319 67.2865C66.3319 67.2865 65.971 64.1977 65.2872 63.3829C65.2872 63.3829 66.8068 64.7093 67.1107 65.4294C67.1107 65.4294 66.6358 63.1934 66.1799 62.4543C66.1799 62.4543 67.5476 64.3493 67.7565 65.6568C67.7565 65.6568 67.9845 62.0943 67.5286 60.7109C67.5286 60.7109 68.7632 64.5956 68.7632 66.3201C68.7632 66.3201 68.8202 63.0039 69.789 61.7532C69.789 61.7532 69.599 64.9746 69.751 66.1495C69.751 66.1495 70.2258 64.4251 70.2069 63.3639C70.2069 63.3639 70.8147 65.5431 70.6247 66.6043C70.6247 66.6043 71.4795 64.6525 71.1186 61.9806C71.1186 61.9806 71.8404 64.065 71.7834 65.8084C71.7834 65.8084 72.3723 64.2735 73.1511 63.4018C73.1511 63.4018 72.1063 66.2443 72.0873 67.1539C72.0873 67.1539 72.5052 66.0358 73.303 65.5431C73.303 65.5431 72.2773 67.4381 72.0494 68.2719C72.0494 68.2719 72.9231 67.097 74.3287 66.6422C74.3287 66.6422 72.7712 68.5751 72.7332 69.6363H65.6861Z" fill="#769914"/>
<path d="M70.9468 69.6173C70.9468 69.6173 70.7949 67.3623 69.6172 66.32C69.6172 66.32 71.2887 67.7034 71.4027 67.9876C71.4027 67.9876 71.1558 65.8273 70.6809 65.2399C70.6809 65.2399 71.7256 66.1874 71.9536 66.6801C71.9536 66.6801 71.6116 65.1262 71.2887 64.6145C71.2887 64.6145 72.2575 65.9221 72.3904 66.8506C72.3904 66.8506 72.5614 64.3492 72.2385 63.3828C72.2385 63.3828 73.1122 66.0926 73.1122 67.3054C73.1122 67.3054 73.1502 64.9935 73.834 64.1029C73.834 64.1029 73.6821 66.3579 73.7961 67.1917C73.7961 67.1917 74.138 65.9789 74.119 65.2399C74.119 65.2399 74.5369 66.7748 74.4229 67.5139C74.4229 67.5139 75.0117 66.1495 74.7458 64.2734C74.7458 64.2734 75.2587 65.7326 75.2207 66.9454C75.2207 66.9454 75.6386 65.8842 76.1894 65.2778C76.1894 65.2778 75.4486 67.2675 75.4296 67.8928C75.4296 67.8928 75.7335 67.1159 76.2844 66.7559C76.2844 66.7559 75.5626 68.1013 75.4106 68.6698C75.4106 68.6698 76.0185 67.855 77.0062 67.5328C77.0062 67.5328 75.9045 68.8782 75.8855 69.6173H70.9468Z" fill="#769914"/>
<path d="M62.7467 39.4526L61.4551 94.8049H67.6284L63.7725 38.1641L62.7467 39.4526Z" fill="#331C10"/>
<path d="M70.9686 38.9453L63.7695 48.9318L64.0355 51.2437L70.9686 38.9453Z" fill="#331C10"/>
<path d="M56.3262 39.1913L63.5252 51.755L63.0124 54.8249L56.3262 38.6797V39.1913Z" fill="#331C10"/>
<path d="M50.9303 52.0159L63.7709 67.3841V70.2076L55.0332 59.9558L44.2441 53.7971L54.7863 58.6672L50.9303 52.0159Z" fill="#331C10"/>
<path d="M76.6125 54.0625L64.5508 64.5607V67.6495L76.6125 54.0625Z" fill="#331C10"/>
<path d="M69.166 61.7363L69.7359 61.471L82.8613 55.1797L70.4387 60.0308L69.166 61.7363Z" fill="#331C10"/>
<path d="M64.7961 75.32L71.7292 69.9382L76.4399 65.125L72.7739 70.4499L83.9239 65.1819L73.2868 71.2268L64.7961 78.6551L64.2832 75.0736" fill="#331C10"/>
<path d="M44.7754 66.0366L54.2728 74.0523L63.5234 78.9224L63.7703 76.6106L55.0326 73.0291L52.4683 64.0469L53.76 71.9868L44.7754 66.0366Z" fill="#331C10"/>
<path d="M56.3262 39.1916L57.0859 40.5377L56.3262 38.6797V39.1916Z" fill="#331C10"/>
<path d="M83.9245 65.1864L72.7745 70.4544L76.4405 65.1296L71.7297 69.9428L66.2212 74.2254L65.6894 66.3423L70.2481 61.2259L82.8607 55.1809L71.7677 59.5204L76.6114 54.0629L65.5184 63.7273L64.5877 50.2351L70.97 38.941L64.4357 47.999L63.7709 38.1641L62.7452 39.4526L62.4982 49.9698L57.0847 40.5328C62.4032 53.5892 62.8401 50.9551 62.1373 65.4327L50.9303 52.0163L54.7863 58.6677L44.2441 53.7976L55.0332 59.9563L62.0803 68.2184L61.9094 75.8362L55.0332 73.0316L52.4689 64.0494L53.7606 71.9894L44.776 66.0391L54.2734 74.0549L61.8524 78.0343L61.4535 94.8049H67.6268L66.4302 77.2384L73.2873 71.2314L83.9245 65.1864Z" fill="#331C10"/>
<g style="mix-blend-mode:multiply">
<path d="M56.3281 39.1838L57.0879 40.5299L56.3281 38.6719V39.1838Z" fill="#331C10"/>
<path d="M66.4317 77.2317L73.2888 71.2247L83.926 65.1797L72.2441 71.2247L65.5769 76.6064L63.9434 94.7981H67.6284L66.4317 77.2317Z" fill="#331C10"/>
<path d="M64.5528 64.5576L64.8567 74.7715L66.1864 73.5587L65.6925 66.3388L70.2513 61.2224L82.8639 55.1774L71.7709 59.5169L76.6146 54.0594L65.5215 63.7238L64.5908 50.2315L70.9731 38.9375L64.002 49.9284L64.5528 64.5576Z" fill="#331C10"/>
</g>
<mask id="mask5_100_27208" style="mask-type:luminance" maskUnits="userSpaceOnUse" x="43" y="25" width="42" height="19">
<path d="M79.7141 32.6388C79.0455 32.6388 78.4092 32.7658 77.8184 32.9894C76.278 29.6865 71.7591 28.0719 68.4103 29.7793C64.579 23.3876 53.7633 25.4228 52.5742 32.8075C50.1828 32.148 47.5349 33.4309 46.5073 35.5609C40.3168 36.4231 43.4168 45.7445 48.8968 42.7239C51.066 43.8817 54.0767 43.1446 55.4786 41.2136C58.4038 43.876 63.6008 43.9461 66.5982 41.3538C68.9516 43.7358 73.3888 43.9158 75.9304 41.712C83.705 48.1568 89.8004 33.6185 79.7141 32.6388Z" fill="white"/>
</mask>
<g mask="url(#mask5_100_27208)">
<path d="M79.7106 32.6464C79.0458 32.6464 78.3999 32.7601 77.8111 32.9875C76.2725 29.6902 71.7517 28.0795 68.4086 29.785C64.5716 23.3989 53.7635 25.4266 52.5669 32.817C50.1735 32.1537 47.5332 33.4423 46.5075 35.5647C40.3152 36.4174 43.4113 45.7407 48.9009 42.7277C51.0663 43.8836 54.0865 43.1446 55.4731 41.2117C58.3983 43.8836 63.6029 43.9405 66.6041 41.3633C68.9595 43.732 73.3853 43.9215 75.9306 41.7044C83.6995 48.1663 89.7969 33.6128 79.7106 32.6464Z" fill="#769914"/>
<g style="mix-blend-mode:multiply">
<path d="M83.0748 33.832C84.7464 38.7969 78.1741 42.89 74.4321 39.3275C72.0388 41.6962 67.594 41.8099 65.0866 39.5738C62.2754 42.3594 57.0708 42.6247 53.9936 40.1423C52.702 42.1699 49.7578 43.0985 47.5164 42.0752C46.7946 42.5868 45.8258 42.8521 44.9141 42.7384C46.0538 43.4775 47.7443 43.4775 48.903 42.7384C51.0684 43.8943 54.0886 43.1553 55.4752 41.2224C58.4004 43.8943 63.605 43.9512 66.6062 41.374C68.9616 43.7427 73.3874 43.9322 75.9327 41.7151C81.1753 46.8695 88.7353 38.4937 83.0748 33.832Z" fill="#A3C02D"/>
</g>
<g style="mix-blend-mode:multiply">
<path d="M71.4661 27.7983L68.4079 29.788C68.4079 29.788 65.0078 30.7166 64.0391 33.6159C64.5329 30.0154 67.3632 27.3246 71.4661 27.7983Z" fill="#A3C02D"/>
</g>
<g style="mix-blend-mode:multiply">
<path d="M83.1081 30.0681L80.0499 32.0388C80.0499 32.0388 76.6308 32.9674 75.6621 35.8667C76.175 32.2662 79.0052 29.5754 83.1081 30.0681Z" fill="#A3C02D"/>
</g>
</g>
<mask id="mask6_100_27208" style="mask-type:luminance" maskUnits="userSpaceOnUse" x="68" y="44" width="22" height="14">
<path d="M84.6451 48.1999C84.3336 48.1999 84.0309 48.2303 83.7371 48.2909C81.3153 42.8106 72.3649 44.3929 72.0648 50.4512C65.0557 50.6748 69.4986 60.7996 74.4126 55.8424C76.3709 57.4702 79.657 57.5668 81.7104 56.047C88.313 60.9095 92.8414 48.8594 84.6451 48.1999Z" fill="white"/>
</mask>
<g mask="url(#mask6_100_27208)">
<path d="M84.357 51.0023C84.224 59.0748 72.1813 59.0748 72.0293 51.0023C72.1813 42.9107 84.224 42.9107 84.357 51.0023Z" fill="#769914"/>
<path d="M89.1238 52.6689C89.1048 58.5244 80.1772 58.5244 80.1582 52.6689C80.1772 46.8135 89.1048 46.8135 89.1238 52.6689Z" fill="#769914"/>
<path d="M75.1252 53.7884C75.1822 58.1468 68.325 58.1468 68.401 53.7884C68.325 49.4299 75.1822 49.4299 75.1252 53.7884Z" fill="#769914"/>
<g style="mix-blend-mode:multiply">
<path d="M86.8865 46.2448L84.2273 47.9503C84.2273 47.9503 81.283 48.7651 80.4473 51.2665C80.8272 48.1966 83.3915 45.79 86.8865 46.2448Z" fill="#A3C02D"/>
</g>
<g style="mix-blend-mode:multiply">
<path d="M87.9285 49.6367C88.9163 53.4267 84.2625 56.5534 81.1094 54.3363C79.2859 56.1175 76.0187 56.4776 73.8533 55.1321C73.1885 56.3828 71.517 57.1029 70.1113 56.705C71.479 57.5388 73.4924 57.1029 74.4042 55.8333C76.3606 57.463 79.6468 57.5577 81.7172 56.0417C85.7821 59.7369 91.7655 53.5783 87.9285 49.6367Z" fill="#A3C02D"/>
</g>
</g>
<mask id="mask7_100_27208" style="mask-type:luminance" maskUnits="userSpaceOnUse" x="68" y="60" width="24" height="11">
<path d="M88.3065 62.8995C88.052 62.8995 87.8057 62.9248 87.5676 62.9753C86.1373 59.6572 80.9536 59.2441 79.0142 62.3026C76.7633 60.2504 72.7098 61.4347 71.9101 64.3397C65.8944 64.5671 69.3629 73.4261 73.9406 69.5471C75.6768 70.6159 78.243 70.1554 79.5024 68.6091C81.0371 70.3241 84.0611 70.6424 85.9321 69.2496C91.2735 73.1874 94.9414 63.4339 88.3065 62.8995Z" fill="white"/>
</mask>
<g mask="url(#mask7_100_27208)">
<path d="M88.0797 65.1619C88.0418 71.6617 78.1264 71.6617 78.1074 65.1619C78.1264 58.6622 88.0418 58.6622 88.0797 65.1619Z" fill="#769914"/>
<path d="M91.9402 66.5305C91.9972 71.2111 84.6082 71.2111 84.6842 66.5305C84.6082 61.831 91.9972 61.831 91.9402 66.5305Z" fill="#769914"/>
<path d="M80.6 65.6908C80.581 71.5083 71.7294 71.5083 71.6914 65.6908C71.7294 59.8921 80.581 59.8921 80.6 65.6908Z" fill="#769914"/>
<path d="M74.8241 67.3967C74.8811 71.3951 68.5938 71.3951 68.6508 67.3967C68.5938 63.4172 74.8811 63.4172 74.8241 67.3967Z" fill="#769914"/>
<g style="mix-blend-mode:multiply">
<path d="M93.9903 60.2351L90.7422 62.3385C90.7422 62.3385 87.1331 63.305 86.1074 66.3748C86.6393 62.5849 89.6405 59.7235 93.9903 60.2351Z" fill="#A3C02D"/>
</g>
<g style="mix-blend-mode:multiply">
<path d="M82.6102 57.4258L80.6537 60.742C80.6537 60.742 77.8805 63.2434 78.3553 66.4459C77.1017 62.8075 78.4883 58.9039 82.6102 57.4258Z" fill="#A3C02D"/>
</g>
<g style="mix-blend-mode:multiply">
<path d="M91.5582 64.9336C91.1023 67.3592 87.8732 68.5719 85.9167 67.037C84.1692 68.5909 81.13 68.534 79.4394 66.9612C78.3377 68.6098 75.8114 69.292 73.9879 68.3824C72.5633 70.2774 69.2392 69.6142 68.6503 67.3213C68.4794 70.05 72.1264 71.5471 73.9309 69.5573C75.6784 70.6185 78.2428 70.1637 79.4964 68.6098C81.035 70.3343 84.0552 70.6375 85.9357 69.2541C88.7279 71.8502 93.3627 68.3445 91.5582 64.9336Z" fill="#A3C02D"/>
</g>
</g>
<mask id="mask8_100_27208" style="mask-type:luminance" maskUnits="userSpaceOnUse" x="39" y="59" width="21" height="10">
<path d="M56.5464 62.1381C56.3197 62.1381 56.1 62.1602 55.8872 62.2044C54.6089 59.2426 49.9798 58.873 48.2475 61.6037C46.2378 59.7713 42.6174 60.8306 41.9032 63.4229C36.5295 63.6275 39.6295 71.5372 43.7153 68.075C45.2672 69.0301 47.5599 68.6189 48.6825 67.2375C50.0558 68.7686 52.755 69.0529 54.4246 67.8079C59.1962 71.3249 62.4728 62.6137 56.5464 62.1381Z" fill="white"/>
</mask>
<g mask="url(#mask8_100_27208)">
<path d="M56.3461 64.1503C56.3081 69.9489 47.4565 69.9489 47.4375 64.1503C47.4565 58.3327 56.3271 58.3327 56.3461 64.1503Z" fill="#769914"/>
<path d="M59.7862 65.3641C59.8432 69.552 53.252 69.552 53.309 65.3641C53.252 61.1573 59.8432 61.1573 59.7862 65.3641Z" fill="#769914"/>
<path d="M49.6606 64.6266C49.6416 69.8188 41.7397 69.8188 41.7207 64.6266C41.7397 59.4344 49.6416 59.4344 49.6606 64.6266Z" fill="#769914"/>
<path d="M44.4931 66.1472C44.5501 69.7098 38.9466 69.7098 38.9846 66.1472C38.9466 62.6036 44.5501 62.5847 44.4931 66.1472Z" fill="#769914"/>
<g style="mix-blend-mode:multiply">
<path d="M60.2781 59.7046L57.6948 61.3721C57.6948 61.3721 54.8265 62.1491 54.0098 64.5936C54.3897 61.6185 56.878 59.2687 60.2781 59.7046Z" fill="#A3C02D"/>
</g>
<g style="mix-blend-mode:multiply">
<path d="M51.0644 57.5195L49.4308 60.1156C49.4308 60.1156 47.1704 62.0296 47.4554 64.5878C46.5436 61.7264 47.7973 58.5618 51.0644 57.5195Z" fill="#A3C02D"/>
</g>
<g style="mix-blend-mode:multiply">
<path d="M59.2895 63.6602C59.4224 66.2563 56.1553 67.9049 54.1418 66.3131C52.5653 67.6775 49.868 67.6017 48.3674 66.1805C47.3607 67.6586 45.1003 68.246 43.4857 67.4122C42.536 68.6439 40.4085 68.7197 39.3828 67.5638C40.1996 69.0608 42.574 69.3451 43.7137 68.0754C45.2712 69.0229 47.5506 68.606 48.6903 67.2227C50.0579 68.7576 52.7552 69.0419 54.4268 67.7912C57.0671 70.2357 61.2839 66.6732 59.2895 63.6602Z" fill="#A3C02D"/>
</g>
</g>
<mask id="mask9_100_27208" style="mask-type:luminance" maskUnits="userSpaceOnUse" x="33" y="45" width="28" height="13">
<path d="M56.8247 49.3731C56.617 49.3756 56.4138 49.3926 56.215 49.4242C54.7201 43.4911 45.6918 43.8871 44.7402 49.9472C42.6659 48.6321 39.6134 49.7104 38.7967 51.9635C36.7604 50.673 33.8751 52.2837 33.9435 54.7131C33.8333 57.7962 38.1869 59.081 39.8034 56.5247C41.7181 58.486 45.4487 57.7109 46.4326 55.1868C48.1687 56.9852 51.3903 57.3888 53.5367 56.0282C59.2883 62.0144 65.1065 50.3073 56.8247 49.3731Z" fill="white"/>
</mask>
<g mask="url(#mask9_100_27208)">
<path d="M56.4155 50.9708C56.3775 58.6644 44.6767 58.6644 44.6387 50.9708C44.6767 43.2962 56.3965 43.2962 56.4155 50.9708Z" fill="#769914"/>
<path d="M46.7851 53.5154C46.7661 58.935 38.5224 58.935 38.4844 53.5154C38.5224 48.1147 46.7661 48.1147 46.7851 53.5154Z" fill="#769914"/>
<path d="M60.9726 53.5154C60.9536 58.935 52.6909 58.935 52.6719 53.5154C52.6909 48.1147 60.9536 48.1147 60.9726 53.5154Z" fill="#769914"/>
<path d="M40.364 54.7244C40.421 58.8744 33.8867 58.8744 33.9437 54.7244C33.8867 50.5554 40.421 50.5554 40.364 54.7244Z" fill="#769914"/>
<g style="mix-blend-mode:multiply">
<path d="M59.8926 47.2346L57.3663 48.8643C57.3663 48.8643 54.5551 49.6412 53.7383 52.0478C54.1182 49.1106 56.5685 46.7988 59.8926 47.2346Z" fill="#A3C02D"/>
</g>
<g style="mix-blend-mode:multiply">
<path d="M42.6088 47.4238L40.7663 49.8115C40.7663 49.8115 38.4869 50.7021 38.392 53.9804C37.7841 51.1001 39.3227 48.106 42.6088 47.4238Z" fill="#A3C02D"/>
</g>
<g style="mix-blend-mode:multiply">
<path d="M59.8358 50.6602C60.1777 54.2606 55.372 56.4588 52.8457 53.9006C50.9652 55.5871 47.7171 55.7197 45.7036 54.2227C45.2477 56.2503 42.9873 57.7284 40.8789 57.2547C42.9114 58.278 45.6086 57.2168 46.4254 55.1702C48.1729 56.9704 51.3831 57.3873 53.5295 56.0229C57.0436 60.514 63.7298 54.8291 59.8358 50.6602Z" fill="#A3C02D"/>
</g>
</g>
<path d="M60.149 95.3394C60.149 95.3394 59.921 92.099 58.2305 90.6209C58.2305 90.6209 60.6238 92.5917 60.7948 92.9896C60.7948 92.9896 60.4339 89.9008 59.7501 89.086C59.7501 89.086 61.2697 90.4125 61.5736 91.1325C61.5736 91.1325 61.0987 88.8965 60.6428 88.1574C60.6428 88.1574 62.0105 90.0524 62.2194 91.3599C62.2194 91.3599 62.4473 87.7974 61.9915 86.4141C61.9915 86.4141 63.2261 90.2988 63.2261 92.0232C63.2261 92.0232 63.2831 88.707 64.2519 87.4563C64.2519 87.4563 64.0619 90.6778 64.2139 91.8526C64.2139 91.8526 64.6887 90.1282 64.6697 89.067C64.6697 89.067 65.2776 91.2462 65.0876 92.3074C65.0876 92.3074 65.9424 90.3556 65.5815 87.6837C65.5815 87.6837 66.3033 89.7682 66.2463 91.5115C66.2463 91.5115 66.8352 89.9766 67.6139 89.1049C67.6139 89.1049 66.5692 91.9474 66.5502 92.857C66.5502 92.857 66.9681 91.7389 67.7659 91.2462C67.7659 91.2462 66.7402 93.1412 66.5122 93.975C66.5122 93.975 67.386 92.8001 68.7916 92.3453C68.7916 92.3453 67.234 94.2782 67.1961 95.3394H60.149Z" fill="#769914"/>
<path d="M65.4097 95.3204C65.4097 95.3204 65.2578 93.0654 64.0801 92.0231C64.0801 92.0231 65.7516 93.4065 65.8656 93.6907C65.8656 93.6907 65.6187 91.5305 65.1438 90.943C65.1438 90.943 66.1885 91.8905 66.4164 92.3832C66.4164 92.3832 66.0745 90.8293 65.7516 90.3177C65.7516 90.3177 66.7204 91.6252 66.8533 92.5537C66.8533 92.5537 67.0243 90.0524 66.7014 89.0859C66.7014 89.0859 67.5751 91.7957 67.5751 93.0085C67.5751 93.0085 67.6131 90.6967 68.2969 89.806C68.2969 89.806 68.145 92.061 68.259 92.8948C68.259 92.8948 68.6009 91.6821 68.5819 90.943C68.5819 90.943 68.9998 92.4779 68.8858 93.217C68.8858 93.217 69.4746 91.8526 69.2087 89.9766C69.2087 89.9766 69.7216 91.4357 69.6836 92.6485C69.6836 92.6485 70.1015 91.5873 70.6523 90.9809C70.6523 90.9809 69.9115 92.9706 69.8925 93.596C69.8925 93.596 70.1964 92.819 70.7473 92.459C70.7473 92.459 70.0255 93.8044 69.8735 94.3729C69.8735 94.3729 70.4814 93.5581 71.4691 93.2359C71.4691 93.2359 70.3674 94.5814 70.3484 95.3204H65.4097Z" fill="#769914"/>
<path d="M81.8717 77.6108L80.5801 132.963H86.7534L82.8975 76.3223L81.8717 77.6108Z" fill="#331C10"/>
<path d="M90.0936 77.1035L82.8945 87.09L83.1605 89.4019L90.0936 77.1035Z" fill="#331C10"/>
<path d="M75.4512 77.3495L82.6502 89.9132L82.1374 92.9831L75.4512 76.8379V77.3495Z" fill="#331C10"/>
<path d="M70.0553 90.1741L82.8959 105.542V108.366L74.1582 98.114L63.3691 91.9553L73.9113 96.8254L70.0553 90.1741Z" fill="#331C10"/>
<path d="M95.7375 92.2207L83.6758 102.719V105.808L95.7375 92.2207Z" fill="#331C10"/>
<path d="M88.291 99.8945L88.8609 99.6292L101.986 93.3379L89.5637 98.189L88.291 99.8945Z" fill="#331C10"/>
<path d="M83.9211 113.478L90.8542 108.096L95.5649 103.283L91.8989 108.608L103.049 103.34L92.4118 109.385L83.9211 116.813L83.4082 113.232" fill="#331C10"/>
<path d="M63.9004 104.195L73.3978 112.211L82.6484 117.081L82.8953 114.769L74.1576 111.187L71.5933 102.205L72.885 110.145L63.9004 104.195Z" fill="#331C10"/>
<path d="M75.4512 77.3498L76.2109 78.6959L75.4512 76.8379V77.3498Z" fill="#331C10"/>
<path d="M103.049 103.345L91.8995 108.613L95.5655 103.288L90.8547 108.101L85.3462 112.384L84.8144 104.501L89.3731 99.3841L101.986 93.3391L90.8927 97.6786L95.7364 92.2211L84.6434 101.885L83.7127 88.3933L90.095 77.0992L83.5607 86.1572L82.8959 76.3223L81.8702 77.6108L81.6232 88.128L76.2097 78.691C81.5282 91.7474 81.9651 89.1133 81.2623 103.591L70.0553 90.1745L73.9113 96.8259L63.3691 91.9558L74.1582 98.1145L81.2053 106.377L81.0344 113.994L74.1582 111.19L71.5939 102.208L72.8856 110.148L63.901 104.197L73.3984 112.213L80.9774 116.193L80.5785 132.963H86.7518L85.5552 115.397L92.4123 109.39L103.049 103.345Z" fill="#331C10"/>
<g style="mix-blend-mode:multiply">
<path d="M75.4512 77.3498L76.2109 78.6959L75.4512 76.8379V77.3498Z" fill="#331C10"/>
<path d="M85.5547 115.398L92.4119 109.391L103.049 103.346L91.3672 109.391L84.7 114.772L83.0664 132.964H86.7514L85.5547 115.398Z" fill="#331C10"/>
<path d="M83.6759 102.724L83.9798 112.937L85.3094 111.725L84.8156 104.505L89.3743 99.3884L101.987 93.3434L90.8939 97.6829L95.7376 92.2254L84.6446 101.89L83.7138 88.3976L90.0961 77.1035L83.125 88.0944L83.6759 102.724Z" fill="#331C10"/>
</g>
<mask id="mask10_100_27208" style="mask-type:luminance" maskUnits="userSpaceOnUse" x="62" y="64" width="43" height="18">
<path d="M98.8333 70.8127C98.1646 70.8127 97.5283 70.9396 96.9376 71.1632C95.3971 67.8603 90.8782 66.2458 87.5294 67.9531C83.6982 61.5614 72.8825 63.5966 71.6934 70.9813C69.3019 70.3219 66.654 71.6048 65.6264 73.7347C59.436 74.5969 62.5359 83.9183 68.016 80.8977C70.1852 82.0555 73.1959 81.3184 74.5977 79.3874C77.5229 82.0499 82.7199 82.12 85.7173 79.5277C88.0708 81.9096 92.508 82.0897 95.0495 79.8858C102.824 86.3306 108.92 71.7924 98.8333 70.8127Z" fill="white"/>
</mask>
<g mask="url(#mask10_100_27208)">
<path d="M98.8297 70.8124C98.1649 70.8124 97.5191 70.9261 96.9302 71.1535C95.3916 67.8563 90.8709 66.2455 87.5278 67.951C83.6908 61.5649 72.8827 63.5926 71.686 70.983C69.2927 70.3197 66.6524 71.6083 65.6266 73.7307C59.4343 74.5834 62.5305 83.9067 68.02 80.8937C70.1854 82.0496 73.2056 81.3106 74.5922 79.3777C77.5174 82.0496 82.722 82.1065 85.7232 79.5293C88.0786 81.898 92.5044 82.0875 95.0497 79.8704C102.819 86.3323 108.916 71.7789 98.8297 70.8124Z" fill="#769914"/>
<g style="mix-blend-mode:multiply">
<path d="M102.19 71.9902C103.862 76.9551 97.2894 81.0482 93.5474 77.4857C91.154 79.8544 86.7092 79.9681 84.2019 77.732C81.3906 80.5176 76.186 80.7829 73.1089 78.3005C71.8172 80.3281 68.873 81.2567 66.6316 80.2334C65.9098 80.745 64.9411 81.0103 64.0293 80.8966C65.169 81.6357 66.8595 81.6357 68.0182 80.8966C70.1836 82.0526 73.2038 81.3135 74.5905 79.3806C77.5157 82.0526 82.7203 82.1094 85.7215 79.5322C88.0768 81.901 92.5026 82.0904 95.048 79.8733C100.291 85.0277 107.851 76.6519 102.19 71.9902Z" fill="#A3C02D"/>
</g>
<g style="mix-blend-mode:multiply">
<path d="M90.5852 65.9643L87.527 67.9541C87.527 67.9541 84.1269 68.8826 83.1582 71.7819C83.6521 68.1815 86.4823 65.4906 90.5852 65.9643Z" fill="#A3C02D"/>
</g>
<g style="mix-blend-mode:multiply">
<path d="M102.227 68.2341L99.1691 70.2048C99.1691 70.2048 95.75 71.1334 94.7812 74.0327C95.2941 70.4322 98.1243 67.7414 102.227 68.2341Z" fill="#A3C02D"/>
</g>
</g>
<mask id="mask11_100_27208" style="mask-type:luminance" maskUnits="userSpaceOnUse" x="87" y="83" width="22" height="13">
<path d="M103.774 86.3582C103.462 86.3582 103.16 86.3885 102.866 86.4491C100.444 80.9688 91.4938 82.5511 91.1937 88.6094C84.1846 88.833 88.6275 98.9578 93.5415 94.0006C95.4998 95.6284 98.7859 95.725 100.839 94.2052C107.442 99.0677 111.97 87.0176 103.774 86.3582Z" fill="white"/>
</mask>
<g mask="url(#mask11_100_27208)">
<path d="M103.488 89.1605C103.355 97.233 91.3121 97.233 91.1602 89.1605C91.3121 81.0689 103.355 81.0689 103.488 89.1605Z" fill="#769914"/>
<path d="M108.255 90.8272C108.236 96.6826 99.3081 96.6826 99.2891 90.8272C99.3081 84.9717 108.236 84.9717 108.255 90.8272Z" fill="#769914"/>
<path d="M94.2561 91.9466C94.313 96.305 87.4559 96.305 87.5319 91.9466C87.4559 87.5881 94.313 87.5881 94.2561 91.9466Z" fill="#769914"/>
<g style="mix-blend-mode:multiply">
<path d="M106.015 84.3952L103.356 86.1007C103.356 86.1007 100.412 86.9155 99.5762 89.4169C99.9561 86.347 102.52 83.9404 106.015 84.3952Z" fill="#A3C02D"/>
</g>
<g style="mix-blend-mode:multiply">
<path d="M107.057 87.7949C108.045 91.5849 103.391 94.7116 100.238 92.4945C98.4148 94.2757 95.1476 94.6358 92.9822 93.2903C92.3174 94.541 90.6459 95.2611 89.2402 94.8632C90.6079 95.697 92.6213 95.2611 93.5331 93.9915C95.4895 95.6212 98.7757 95.7159 100.846 94.1999C104.911 97.8951 110.894 91.7365 107.057 87.7949Z" fill="#A3C02D"/>
</g>
</g>
<mask id="mask12_100_27208" style="mask-type:luminance" maskUnits="userSpaceOnUse" x="87" y="98" width="25" height="11">
<path d="M107.43 101.058C107.175 101.058 106.929 101.083 106.691 101.134C105.26 97.8154 100.077 97.4023 98.1372 100.461C95.8863 98.4086 91.8328 99.5929 91.0331 102.498C85.0175 102.725 88.4859 111.584 93.0637 107.705C94.7998 108.774 97.366 108.314 98.6254 106.767C100.16 108.482 103.184 108.801 105.055 107.408C110.397 111.346 114.064 101.592 107.43 101.058Z" fill="white"/>
</mask>
<g mask="url(#mask12_100_27208)">
<path d="M107.203 103.32C107.165 109.82 97.2495 109.82 97.2305 103.32C97.2495 96.8204 107.165 96.8204 107.203 103.32Z" fill="#769914"/>
<path d="M111.063 104.689C111.12 109.369 103.731 109.369 103.807 104.689C103.731 99.9892 111.12 99.9892 111.063 104.689Z" fill="#769914"/>
<path d="M99.7231 103.849C99.7041 109.667 90.8524 109.667 90.8145 103.849C90.8524 98.0503 99.7041 98.0503 99.7231 103.849Z" fill="#769914"/>
<path d="M93.9472 105.555C94.0041 109.553 87.7168 109.553 87.7738 105.555C87.7168 101.575 94.0041 101.575 93.9472 105.555Z" fill="#769914"/>
<g style="mix-blend-mode:multiply">
<path d="M113.113 98.4011L109.865 100.505C109.865 100.505 106.256 101.471 105.23 104.541C105.762 100.751 108.764 97.8895 113.113 98.4011Z" fill="#A3C02D"/>
</g>
<g style="mix-blend-mode:multiply">
<path d="M101.733 95.5918L99.7768 98.908C99.7768 98.908 97.0035 101.409 97.4784 104.612C96.2247 100.974 97.6114 97.0699 101.733 95.5918Z" fill="#A3C02D"/>
</g>
<g style="mix-blend-mode:multiply">
<path d="M110.681 103.1C110.225 105.525 106.996 106.738 105.04 105.203C103.292 106.757 100.253 106.7 98.5625 105.127C97.4608 106.776 94.9345 107.458 93.1109 106.548C91.6863 108.443 88.3622 107.78 87.7734 105.487C87.6024 108.216 91.2494 109.713 93.054 107.723C94.8015 108.785 97.3658 108.33 98.6195 106.776C100.158 108.5 103.178 108.803 105.059 107.42C107.851 110.016 112.486 106.511 110.681 103.1Z" fill="#A3C02D"/>
</g>
</g>
<mask id="mask13_100_27208" style="mask-type:luminance" maskUnits="userSpaceOnUse" x="58" y="97" width="21" height="11">
<path d="M75.6636 100.296C75.4369 100.296 75.2172 100.318 75.0044 100.363C73.7261 97.4008 69.097 97.0313 67.3647 99.7619C65.355 97.9295 61.7346 98.9888 61.0204 101.581C55.6467 101.786 58.7467 109.695 62.8325 106.233C64.3844 107.188 66.6771 106.777 67.7997 105.396C69.173 106.927 71.8722 107.211 73.5418 105.966C78.3133 109.483 81.59 100.772 75.6636 100.296Z" fill="white"/>
</mask>
<g mask="url(#mask13_100_27208)">
<path d="M75.4672 102.316C75.4292 108.115 66.5776 108.115 66.5586 102.316C66.5776 96.4987 75.4482 96.4987 75.4672 102.316Z" fill="#769914"/>
<path d="M78.9073 103.53C78.9643 107.718 72.3731 107.718 72.4301 103.53C72.3731 99.3233 78.9643 99.3233 78.9073 103.53Z" fill="#769914"/>
<path d="M68.7817 102.793C68.7627 107.985 60.8608 107.985 60.8418 102.793C60.8608 97.6004 68.7627 97.6004 68.7817 102.793Z" fill="#769914"/>
<path d="M63.6142 104.313C63.6712 107.876 58.0677 107.876 58.1057 104.313C58.0677 100.77 63.6712 100.751 63.6142 104.313Z" fill="#769914"/>
<g style="mix-blend-mode:multiply">
<path d="M79.3992 97.8706L76.8159 99.5382C76.8159 99.5382 73.9476 100.315 73.1309 102.76C73.5108 99.7845 75.9991 97.4347 79.3992 97.8706Z" fill="#A3C02D"/>
</g>
<g style="mix-blend-mode:multiply">
<path d="M70.1874 95.6855L68.5539 98.2817C68.5539 98.2817 66.2935 100.196 66.5784 102.754C65.6667 99.8924 66.9203 96.7278 70.1874 95.6855Z" fill="#A3C02D"/>
</g>
<g style="mix-blend-mode:multiply">
<path d="M78.4125 101.826C78.5455 104.422 75.2784 106.071 73.2649 104.479C71.6883 105.844 68.991 105.768 67.4904 104.346C66.4837 105.825 64.2233 106.412 62.6088 105.578C61.659 106.81 59.5316 106.886 58.5059 105.73C59.3226 107.227 61.697 107.511 62.8367 106.241C64.3943 107.189 66.6737 106.772 67.8134 105.389C69.181 106.924 71.8783 107.208 73.5498 105.957C76.1901 108.402 80.407 104.839 78.4125 101.826Z" fill="#A3C02D"/>
</g>
</g>
<mask id="mask14_100_27208" style="mask-type:luminance" maskUnits="userSpaceOnUse" x="53" y="83" width="28" height="14">
<path d="M75.9517 87.5156C75.744 87.5182 75.5407 87.5352 75.3419 87.5668C73.847 81.6336 64.8188 82.0297 63.8671 88.0898C61.7929 86.7747 58.7404 87.8529 57.9236 90.1061C55.8874 88.8156 53.002 90.4263 53.0704 92.8557C52.9602 95.9388 57.3139 97.2236 58.9303 94.6673C60.845 96.6286 64.5756 95.8535 65.5596 93.3294C67.2957 95.1277 70.5172 95.5314 72.6636 94.1708C78.4153 100.157 84.2334 88.4499 75.9517 87.5156Z" fill="white"/>
</mask>
<g mask="url(#mask14_100_27208)">
<path d="M75.5464 89.1212C75.5084 96.8148 63.8075 96.8148 63.7695 89.1212C63.8075 81.4466 75.5274 81.4466 75.5464 89.1212Z" fill="#769914"/>
<path d="M65.916 91.6657C65.897 97.0854 57.6532 97.0854 57.6152 91.6657C57.6532 86.2651 65.897 86.2651 65.916 91.6657Z" fill="#769914"/>
<path d="M80.1035 91.6657C80.0845 97.0854 71.8217 97.0854 71.8027 91.6657C71.8217 86.2651 80.0845 86.2651 80.1035 91.6657Z" fill="#769914"/>
<path d="M59.4949 92.8748C59.5519 97.0248 53.0176 97.0248 53.0746 92.8748C53.0176 88.7058 59.5519 88.7058 59.4949 92.8748Z" fill="#769914"/>
<g style="mix-blend-mode:multiply">
<path d="M79.0176 85.385L76.4913 87.0147C76.4913 87.0147 73.6801 87.7916 72.8633 90.1982C73.2432 87.261 75.6935 84.9491 79.0176 85.385Z" fill="#A3C02D"/>
</g>
<g style="mix-blend-mode:multiply">
<path d="M61.7358 85.5742L59.8933 87.9619C59.8933 87.9619 57.6139 88.8525 57.5189 92.1308C56.9111 89.2505 58.4497 86.2564 61.7358 85.5742Z" fill="#A3C02D"/>
</g>
<g style="mix-blend-mode:multiply">
<path d="M78.9628 88.8105C79.3047 92.411 74.499 94.6092 71.9726 92.051C70.0921 93.7375 66.844 93.8701 64.8306 92.3731C64.3747 94.4007 62.1143 95.8788 60.0059 95.4051C62.0383 96.4283 64.7356 95.3672 65.5524 93.3206C67.2999 95.1208 70.51 95.5377 72.6565 94.1733C76.1705 98.6644 82.8567 92.9795 78.9628 88.8105Z" fill="#A3C02D"/>
</g>
</g>
<path d="M79.2681 133.498C79.2681 133.498 79.0402 130.257 77.3496 128.779C77.3496 128.779 79.743 130.75 79.9139 131.148C79.9139 131.148 79.553 128.059 78.8692 127.244C78.8692 127.244 80.3888 128.571 80.6927 129.291C80.6927 129.291 80.2178 127.055 79.762 126.316C79.762 126.316 81.1296 128.211 81.3385 129.518C81.3385 129.518 81.5665 125.956 81.1106 124.572C81.1106 124.572 82.3453 128.457 82.3453 130.181C82.3453 130.181 82.4023 126.865 83.371 125.615C83.371 125.615 83.181 128.836 83.333 130.011C83.333 130.011 83.8079 128.286 83.7889 127.225C83.7889 127.225 84.3967 129.404 84.2068 130.466C84.2068 130.466 85.0615 128.514 84.7006 125.842C84.7006 125.842 85.4224 127.926 85.3655 129.67C85.3655 129.67 85.9543 128.135 86.7331 127.263C86.7331 127.263 85.6884 130.106 85.6694 131.015C85.6694 131.015 86.0873 129.897 86.885 129.404C86.885 129.404 85.8593 131.299 85.6314 132.133C85.6314 132.133 86.5052 130.958 87.9108 130.504C87.9108 130.504 86.3532 132.436 86.3152 133.498H79.2681Z" fill="#769914"/>
<path d="M84.5289 133.479C84.5289 133.479 84.3769 131.224 83.1992 130.181C83.1992 130.181 84.8708 131.565 84.9847 131.849C84.9847 131.849 84.7378 129.689 84.2629 129.101C84.2629 129.101 85.3076 130.049 85.5356 130.541C85.5356 130.541 85.1937 128.988 84.8708 128.476C84.8708 128.476 85.8395 129.783 85.9725 130.712C85.9725 130.712 86.1434 128.211 85.8205 127.244C85.8205 127.244 86.6943 129.954 86.6943 131.167C86.6943 131.167 86.7323 128.855 87.4161 127.964C87.4161 127.964 87.2641 130.219 87.3781 131.053C87.3781 131.053 87.72 129.84 87.701 129.101C87.701 129.101 88.1189 130.636 88.0049 131.375C88.0049 131.375 88.5938 130.011 88.3278 128.135C88.3278 128.135 88.8407 129.594 88.8027 130.807C88.8027 130.807 89.2206 129.746 89.7714 129.139C89.7714 129.139 89.0306 131.129 89.0117 131.754C89.0117 131.754 89.3156 130.977 89.8664 130.617C89.8664 130.617 89.1446 131.963 88.9927 132.531C88.9927 132.531 89.6005 131.716 90.5882 131.394C90.5882 131.394 89.4865 132.74 89.4675 133.479H84.5289Z" fill="#769914"/>
<path d="M73.5592 112.722L72.2676 168.074H78.4409L74.585 111.434L73.5592 112.722Z" fill="#331C10"/>
<path d="M81.7811 112.215L74.582 122.201L74.848 124.513L81.7811 112.215Z" fill="#331C10"/>
<path d="M67.1387 112.461L74.3377 125.025L73.8249 128.094L67.1387 111.949V112.461Z" fill="#331C10"/>
<path d="M61.7428 125.285L74.5834 140.654V143.477L65.8457 133.225L55.0566 127.067L65.5988 131.937L61.7428 125.285Z" fill="#331C10"/>
<path d="M87.425 127.332L75.3633 137.83V140.919L87.425 127.332Z" fill="#331C10"/>
<path d="M79.9785 135.006L80.5484 134.741L93.6738 128.449L81.2512 133.3L79.9785 135.006Z" fill="#331C10"/>
<path d="M75.6086 148.589L82.5417 143.208L87.2524 138.395L83.5864 143.719L94.7364 138.451L84.0993 144.496L75.6086 151.925L75.0957 148.343" fill="#331C10"/>
<path d="M55.5879 139.306L65.0853 147.322L74.3359 152.192L74.5828 149.88L65.8451 146.299L63.2808 137.316L64.5725 145.256L55.5879 139.306Z" fill="#331C10"/>
<path d="M67.1387 112.461L67.8984 113.807L67.1387 111.949V112.461Z" fill="#331C10"/>
<path d="M94.737 138.456L83.587 143.724L87.253 138.399L82.5422 143.212L77.0337 147.495L76.5019 139.612L81.0606 134.495L93.6732 128.45L82.5802 132.79L87.4239 127.332L76.3309 136.997L75.4002 123.505L81.7825 112.211L75.2482 121.269L74.5834 111.434L73.5577 112.722L73.3107 123.239L67.8972 113.802C73.2157 126.859 73.6526 124.225 72.9498 138.702L61.7428 125.286L65.5988 131.937L55.0566 127.067L65.8457 133.226L72.8928 141.488L72.7219 149.106L65.8457 146.301L63.2814 137.319L64.5731 145.259L55.5885 139.309L65.0859 147.324L72.6649 151.304L72.266 168.074H78.4393L77.2427 150.508L84.0998 144.501L94.737 138.456Z" fill="#331C10"/>
<g style="mix-blend-mode:multiply">
<path d="M67.1367 112.445L67.8965 113.791L67.1367 111.933V112.445Z" fill="#331C10"/>
<path d="M77.2403 150.493L84.0974 144.486L94.7346 138.441L83.0527 144.486L76.3855 149.868L74.752 168.06H78.437L77.2403 150.493Z" fill="#331C10"/>
<path d="M75.3614 137.819L75.6653 148.033L76.995 146.82L76.5011 139.6L81.0599 134.484L93.6725 128.439L82.5795 132.778L87.4232 127.321L76.3301 136.985L75.3994 123.493L81.7817 112.199L74.8105 123.19L75.3614 137.819Z" fill="#331C10"/>
</g>
<mask id="mask15_100_27208" style="mask-type:luminance" maskUnits="userSpaceOnUse" x="53" y="99" width="43" height="18">
<path d="M90.5227 105.908C89.8541 105.908 89.2178 106.035 88.627 106.259C87.0866 102.956 82.5677 101.341 79.2189 103.049C75.3876 96.6571 64.5719 98.6923 63.3828 106.077C60.9914 105.418 58.3435 106.7 57.3159 108.83C51.1254 109.693 54.2254 119.014 59.7054 115.993C61.8746 117.151 64.8853 116.414 66.2871 114.483C69.2124 117.146 74.4094 117.216 77.4068 114.623C79.7602 117.005 84.1974 117.185 86.7389 114.982C94.5136 121.426 100.609 106.888 90.5227 105.908Z" fill="white"/>
</mask>
<g mask="url(#mask15_100_27208)">
<path d="M90.5192 105.908C89.8544 105.908 89.2085 106.022 88.6197 106.249C87.0811 102.952 82.5603 101.341 79.2172 103.047C75.3802 96.6607 64.5721 98.6883 63.3755 106.079C60.9821 105.415 58.3418 106.704 57.3161 108.826C51.1238 109.679 54.2199 119.002 59.7095 115.989C61.8749 117.145 64.8951 116.406 66.2817 114.473C69.2069 117.145 74.4115 117.202 77.4127 114.625C79.7681 116.994 84.1939 117.183 86.7392 114.966C94.5081 121.428 100.605 106.875 90.5192 105.908Z" fill="#769914"/>
<g style="mix-blend-mode:multiply">
<path d="M93.8834 107.094C95.555 112.059 88.9827 116.152 85.2407 112.589C82.8474 114.958 78.4026 115.072 75.8952 112.836C73.084 115.621 67.8794 115.886 64.8022 113.404C63.5106 115.432 60.5664 116.36 58.325 115.337C57.6032 115.849 56.6344 116.114 55.7227 116C56.8623 116.739 58.5529 116.739 59.7116 116C61.877 117.156 64.8972 116.417 66.2838 114.484C69.209 117.156 74.4136 117.213 77.4148 114.636C79.7702 117.004 84.196 117.194 86.7413 114.977C91.9839 120.131 99.5439 111.755 93.8834 107.094Z" fill="#A3C02D"/>
</g>
<g style="mix-blend-mode:multiply">
<path d="M82.2747 101.06L79.2165 103.05C79.2165 103.05 75.8164 103.978 74.8477 106.878C75.3415 103.277 78.1718 100.586 82.2747 101.06Z" fill="#A3C02D"/>
</g>
<g style="mix-blend-mode:multiply">
<path d="M93.9167 103.33L90.8585 105.301C90.8585 105.301 87.4394 106.229 86.4707 109.128C86.9836 105.528 89.8138 102.837 93.9167 103.33Z" fill="#A3C02D"/>
</g>
</g>
<mask id="mask16_100_27208" style="mask-type:luminance" maskUnits="userSpaceOnUse" x="79" y="118" width="21" height="13">
<path d="M95.4596 121.454C95.148 121.454 94.8454 121.484 94.5516 121.545C92.1297 116.065 83.1793 117.647 82.8792 123.705C75.8701 123.929 80.313 134.054 85.227 129.096C87.1854 130.724 90.4715 130.821 92.5248 129.301C99.1275 134.163 103.656 122.113 95.4596 121.454Z" fill="white"/>
</mask>
<g mask="url(#mask16_100_27208)">
<path d="M95.1753 124.256C95.0424 132.329 82.9996 132.329 82.8477 124.256C82.9996 116.165 95.0424 116.165 95.1753 124.256Z" fill="#769914"/>
<path d="M99.9422 125.923C99.9232 131.778 90.9956 131.778 90.9766 125.923C90.9956 120.067 99.9232 120.067 99.9422 125.923Z" fill="#769914"/>
<path d="M85.9436 127.042C86.0005 131.401 79.1434 131.401 79.2194 127.042C79.1434 122.684 86.0005 122.684 85.9436 127.042Z" fill="#769914"/>
<g style="mix-blend-mode:multiply">
<path d="M97.699 119.499L95.0398 121.204C95.0398 121.204 92.0955 122.019 91.2598 124.52C91.6397 121.451 94.204 119.044 97.699 119.499Z" fill="#A3C02D"/>
</g>
<g style="mix-blend-mode:multiply">
<path d="M98.7469 122.898C99.7346 126.688 95.0809 129.815 91.9277 127.598C90.1042 129.379 86.8371 129.739 84.6717 128.394C84.0069 129.645 82.3353 130.365 80.9297 129.967C82.2973 130.8 84.3108 130.365 85.2225 129.095C87.179 130.725 90.4651 130.819 92.5356 129.303C96.6005 132.999 102.584 126.84 98.7469 122.898Z" fill="#A3C02D"/>
</g>
</g>
<mask id="mask17_100_27208" style="mask-type:luminance" maskUnits="userSpaceOnUse" x="79" y="133" width="24" height="11">
<path d="M99.119 136.153C98.8645 136.153 98.6182 136.179 98.3801 136.229C96.9498 132.911 91.7661 132.498 89.8267 135.557C87.5758 133.504 83.5223 134.689 82.7226 137.594C76.7069 137.821 80.1754 146.68 84.7531 142.801C86.4893 143.87 89.0555 143.409 90.3149 141.863C91.8496 143.578 94.8736 143.896 96.7446 142.504C102.086 146.441 105.754 136.688 99.119 136.153Z" fill="white"/>
</mask>
<g mask="url(#mask17_100_27208)">
<path d="M98.8922 138.416C98.8543 144.916 88.9389 144.916 88.9199 138.416C88.9389 131.916 98.8543 131.916 98.8922 138.416Z" fill="#769914"/>
<path d="M102.753 139.784C102.81 144.465 95.4207 144.465 95.4967 139.784C95.4207 135.085 102.81 135.085 102.753 139.784Z" fill="#769914"/>
<path d="M91.4125 138.945C91.3935 144.762 82.5419 144.762 82.5039 138.945C82.5419 133.146 91.3935 133.146 91.4125 138.945Z" fill="#769914"/>
<path d="M85.6366 140.651C85.6936 144.649 79.4063 144.649 79.4633 140.651C79.4063 136.671 85.6936 136.671 85.6366 140.651Z" fill="#769914"/>
<g style="mix-blend-mode:multiply">
<path d="M104.803 133.497L101.555 135.6C101.555 135.6 97.9456 136.567 96.9199 139.637C97.4518 135.847 100.453 132.985 104.803 133.497Z" fill="#A3C02D"/>
</g>
<g style="mix-blend-mode:multiply">
<path d="M93.4227 130.688L91.4662 134.004C91.4662 134.004 88.693 136.505 89.1678 139.708C87.9142 136.069 89.3008 132.166 93.4227 130.688Z" fill="#A3C02D"/>
</g>
<g style="mix-blend-mode:multiply">
<path d="M102.371 138.195C101.915 140.621 98.6857 141.834 96.7292 140.299C94.9817 141.853 91.9425 141.796 90.2519 140.223C89.1502 141.872 86.6239 142.554 84.8004 141.644C83.3758 143.539 80.0517 142.876 79.4628 140.583C79.2919 143.312 82.9389 144.809 84.7434 142.819C86.4909 143.88 89.0553 143.425 90.3089 141.872C91.8475 143.596 94.8677 143.899 96.7482 142.516C99.5404 145.112 104.175 141.606 102.371 138.195Z" fill="#A3C02D"/>
</g>
</g>
<mask id="mask18_100_27208" style="mask-type:luminance" maskUnits="userSpaceOnUse" x="49" y="133" width="22" height="10">
<path d="M67.3608 135.392C67.1341 135.392 66.9144 135.414 66.7017 135.458C65.4233 132.496 60.7943 132.127 59.0619 134.858C57.0523 133.025 53.4319 134.084 52.7177 136.677C47.344 136.881 50.444 144.791 54.5298 141.329C56.0817 142.284 58.3743 141.873 59.4969 140.491C60.8703 142.023 63.5694 142.307 65.2391 141.062C70.0106 144.579 73.2872 135.868 67.3608 135.392Z" fill="white"/>
</mask>
<g mask="url(#mask18_100_27208)">
<path d="M67.1645 137.412C67.1265 143.211 58.2749 143.211 58.2559 137.412C58.2749 131.594 67.1455 131.594 67.1645 137.412Z" fill="#769914"/>
<path d="M70.6046 138.626C70.6616 142.814 64.0703 142.814 64.1273 138.626C64.0703 134.419 70.6616 134.419 70.6046 138.626Z" fill="#769914"/>
<path d="M60.4789 137.888C60.4599 143.081 52.5581 143.081 52.5391 137.888C52.5581 132.696 60.4599 132.696 60.4789 137.888Z" fill="#769914"/>
<path d="M55.3114 139.409C55.3684 142.972 49.7649 142.972 49.8029 139.409C49.7649 135.865 55.3684 135.846 55.3114 139.409Z" fill="#769914"/>
<g style="mix-blend-mode:multiply">
<path d="M71.0925 132.966L68.5092 134.634C68.5092 134.634 65.641 135.411 64.8242 137.855C65.2041 134.88 67.6925 132.53 71.0925 132.966Z" fill="#A3C02D"/>
</g>
<g style="mix-blend-mode:multiply">
<path d="M61.8828 130.781L60.2492 133.377C60.2492 133.377 57.9888 135.291 58.2737 137.85C57.362 134.988 58.6156 131.823 61.8828 130.781Z" fill="#A3C02D"/>
</g>
<g style="mix-blend-mode:multiply">
<path d="M70.1078 136.922C70.2408 139.518 66.9737 141.167 64.9602 139.575C63.3836 140.939 60.6864 140.863 59.1858 139.442C58.179 140.92 55.9186 141.508 54.3041 140.674C53.3543 141.906 51.2269 141.981 50.2012 140.826C51.018 142.323 53.3923 142.607 54.532 141.337C56.0896 142.285 58.369 141.868 59.5087 140.484C60.8763 142.019 63.5736 142.304 65.2451 141.053C67.8854 143.497 72.1023 139.935 70.1078 136.922Z" fill="#A3C02D"/>
</g>
</g>
<mask id="mask19_100_27208" style="mask-type:luminance" maskUnits="userSpaceOnUse" x="44" y="118" width="28" height="14">
<path d="M67.6392 122.611C67.4315 122.614 67.2282 122.631 67.0294 122.662C65.5345 116.729 56.5063 117.125 55.5546 123.186C53.4804 121.87 50.4279 122.949 49.6111 125.202C47.5749 123.911 44.6895 125.522 44.7579 127.951C44.6477 131.034 49.0014 132.319 50.6178 129.763C52.5325 131.724 56.2631 130.949 57.2471 128.425C58.9832 130.223 62.2047 130.627 64.3511 129.266C70.1028 135.253 75.9209 123.546 67.6392 122.611Z" fill="white"/>
</mask>
<g mask="url(#mask19_100_27208)">
<path d="M67.23 124.217C67.192 131.911 55.4911 131.911 55.4531 124.217C55.4911 116.542 67.211 116.542 67.23 124.217Z" fill="#769914"/>
<path d="M57.5996 126.761C57.5806 132.181 49.3368 132.181 49.2988 126.761C49.3368 121.361 57.5806 121.361 57.5996 126.761Z" fill="#769914"/>
<path d="M71.7871 126.761C71.7681 132.181 63.5053 132.181 63.4863 126.761C63.5053 121.361 71.7681 121.361 71.7871 126.761Z" fill="#769914"/>
<path d="M51.1785 127.97C51.2354 132.12 44.7012 132.12 44.7582 127.97C44.7012 123.802 51.2354 123.802 51.1785 127.97Z" fill="#769914"/>
<g style="mix-blend-mode:multiply">
<path d="M70.7071 120.481L68.1808 122.11C68.1808 122.11 65.3695 122.887 64.5527 125.294C64.9326 122.357 67.383 120.045 70.7071 120.481Z" fill="#A3C02D"/>
</g>
<g style="mix-blend-mode:multiply">
<path d="M53.4213 120.67L51.5788 123.058C51.5788 123.058 49.2994 123.948 49.2045 127.227C48.5966 124.346 50.1352 121.352 53.4213 120.67Z" fill="#A3C02D"/>
</g>
<g style="mix-blend-mode:multiply">
<path d="M70.6503 123.914C70.9922 127.515 66.1865 129.713 63.6601 127.154C61.7796 128.841 58.5315 128.974 56.5181 127.477C56.0622 129.504 53.8018 130.982 51.6934 130.509C53.7258 131.532 56.4231 130.471 57.2399 128.424C58.9874 130.224 62.1975 130.641 64.344 129.277C67.858 133.768 74.5442 128.083 70.6503 123.914Z" fill="#A3C02D"/>
</g>
</g>
<path d="M70.9517 168.599C70.9517 168.599 70.7237 165.359 69.0332 163.881C69.0332 163.881 71.4266 165.851 71.5975 166.249C71.5975 166.249 71.2366 163.161 70.5528 162.346C70.5528 162.346 72.0724 163.672 72.3763 164.392C72.3763 164.392 71.9014 162.156 71.4456 161.417C71.4456 161.417 72.8132 163.312 73.0221 164.62C73.0221 164.62 73.2501 161.057 72.7942 159.674C72.7942 159.674 74.0289 163.559 74.0289 165.283C74.0289 165.283 74.0858 161.967 75.0546 160.716C75.0546 160.716 74.8646 163.938 75.0166 165.112C75.0166 165.112 75.4915 163.388 75.4725 162.327C75.4725 162.327 76.0803 164.506 75.8904 165.567C75.8904 165.567 76.7451 163.615 76.3842 160.943C76.3842 160.943 77.106 163.028 77.049 164.771C77.049 164.771 77.6379 163.236 78.4167 162.365C78.4167 162.365 77.372 165.207 77.353 166.117C77.353 166.117 77.7709 164.999 78.5686 164.506C78.5686 164.506 77.5429 166.401 77.315 167.235C77.315 167.235 78.1887 166.06 79.5944 165.605C79.5944 165.605 78.0368 167.538 77.9988 168.599H70.9517Z" fill="#769914"/>
<path d="M76.2125 168.58C76.2125 168.58 76.0605 166.325 74.8828 165.283C74.8828 165.283 76.5544 166.666 76.6683 166.95C76.6683 166.95 76.4214 164.79 75.9465 164.203C75.9465 164.203 76.9912 165.15 77.2192 165.643C77.2192 165.643 76.8773 164.089 76.5544 163.577C76.5544 163.577 77.5231 164.885 77.6561 165.814C77.6561 165.814 77.827 163.312 77.5041 162.346C77.5041 162.346 78.3779 165.056 78.3779 166.268C78.3779 166.268 78.4159 163.956 79.0997 163.066C79.0997 163.066 78.9477 165.321 79.0617 166.155C79.0617 166.155 79.4036 164.942 79.3846 164.203C79.3846 164.203 79.8025 165.738 79.6885 166.477C79.6885 166.477 80.2774 165.112 80.0114 163.236C80.0114 163.236 80.5243 164.695 80.4863 165.908C80.4863 165.908 80.9042 164.847 81.455 164.241C81.455 164.241 80.7142 166.23 80.6952 166.856C80.6952 166.856 80.9992 166.079 81.55 165.719C81.55 165.719 80.8282 167.064 80.6763 167.633C80.6763 167.633 81.2841 166.818 82.2718 166.496C82.2718 166.496 81.1701 167.841 81.1511 168.58H76.2125Z" fill="#769914"/>
<path d="M42.7975 120.464L41.5059 175.817H47.6792L43.8232 119.176L42.7975 120.464Z" fill="#331C10"/>
<path d="M51.0194 119.957L43.8203 129.944L44.0862 132.255L51.0194 119.957Z" fill="#331C10"/>
<path d="M36.377 120.203L43.576 132.767L43.0632 135.837L36.377 119.691V120.203Z" fill="#331C10"/>
<path d="M30.9811 133.028L43.8217 148.396V151.219L35.084 140.968L24.2949 134.809L34.8371 139.679L30.9811 133.028Z" fill="#331C10"/>
<path d="M56.6633 135.074L44.6016 145.572V148.661L56.6633 135.074Z" fill="#331C10"/>
<path d="M49.2168 142.748L49.7866 142.483L62.9121 136.191L50.4895 141.043L49.2168 142.748Z" fill="#331C10"/>
<path d="M44.8468 156.332L51.78 150.95L56.4907 146.137L52.8247 151.462L63.9747 146.194L53.3376 152.239L44.8468 159.667L44.334 156.085" fill="#331C10"/>
<path d="M24.8262 147.048L34.3236 155.064L43.5741 159.934L43.8211 157.622L35.0834 154.041L32.5191 145.059L33.8108 152.999L24.8262 147.048Z" fill="#331C10"/>
<path d="M36.377 120.203L37.1367 121.549L36.377 119.691V120.203Z" fill="#331C10"/>
<path d="M63.9753 146.198L52.8252 151.466L56.4913 146.141L51.7805 150.955L46.272 155.237L45.7402 147.354L50.2989 142.238L62.9115 136.193L51.8185 140.532L56.6622 135.075L45.5692 144.739L44.6384 131.247L51.0207 119.953L44.4865 129.011L43.8217 119.176L42.7959 120.464L42.549 130.981L37.1355 121.544C42.454 134.601 42.8909 131.967 42.1881 146.444L30.9811 133.028L34.8371 139.679L24.2949 134.809L35.084 140.968L42.1311 149.23L41.9602 156.848L35.084 154.043L32.5197 145.061L33.8114 153.001L24.8268 147.051L34.3242 155.067L41.9032 159.046L41.5043 175.817H47.6776L46.4809 158.25L53.3381 152.243L63.9753 146.198Z" fill="#331C10"/>
<g style="mix-blend-mode:multiply">
<path d="M36.375 120.195L37.1347 121.542L36.375 119.684V120.195Z" fill="#331C10"/>
<path d="M46.4786 158.243L53.3357 152.236L63.9729 146.191L52.291 152.236L45.6238 157.618L43.9902 175.81H47.6752L46.4786 158.243Z" fill="#331C10"/>
<path d="M44.5997 145.569L44.9036 155.783L46.2332 154.57L45.7394 147.351L50.2982 142.234L62.9108 136.189L51.8177 140.529L56.6614 135.071L45.5684 144.735L44.6377 131.243L51.02 119.949L44.0488 130.94L44.5997 145.569Z" fill="#331C10"/>
</g>
<mask id="mask20_100_27208" style="mask-type:luminance" maskUnits="userSpaceOnUse" x="23" y="106" width="43" height="19">
<path d="M59.763 113.666C59.0943 113.666 58.458 113.793 57.8673 114.017C56.3268 110.714 51.8079 109.099 48.4591 110.807C44.6278 104.415 33.8121 106.45 32.6231 113.835C30.2316 113.175 27.5837 114.458 26.5561 116.588C20.3657 117.45 23.4656 126.772 28.9457 123.751C31.1149 124.909 34.1256 124.172 35.5274 122.241C38.4526 124.903 43.6496 124.973 46.647 122.381C49.0005 124.763 53.4377 124.943 55.9792 122.739C63.7538 129.184 69.8492 114.646 59.763 113.666Z" fill="white"/>
</mask>
<g mask="url(#mask20_100_27208)">
<path d="M59.7594 113.674C59.0946 113.674 58.4488 113.787 57.8599 114.015C56.3213 110.718 51.8005 109.107 48.4574 110.812C44.6205 104.426 33.8124 106.454 32.6157 113.844C30.2223 113.181 27.5821 114.47 26.5563 116.592C20.364 117.445 23.4602 126.768 28.9497 123.755C31.1151 124.911 34.1353 124.172 35.5219 122.239C38.4471 124.911 43.6517 124.968 46.6529 122.391C49.0083 124.759 53.4341 124.949 55.9794 122.732C63.7483 129.194 69.8457 114.64 59.7594 113.674Z" fill="#769914"/>
<g style="mix-blend-mode:multiply">
<path d="M63.1236 114.852C64.7952 119.816 58.223 123.91 54.481 120.347C52.0876 122.716 47.6428 122.829 45.1355 120.593C42.3242 123.379 37.1196 123.644 34.0424 121.162C32.7508 123.189 29.8066 124.118 27.5652 123.095C26.8434 123.606 25.8746 123.872 24.9629 123.758C26.1026 124.497 27.7931 124.497 28.9518 123.758C31.1172 124.914 34.1374 124.175 35.524 122.242C38.4493 124.914 43.6539 124.971 46.6551 122.394C49.0104 124.762 53.4362 124.952 55.9816 122.735C61.2241 127.889 68.7841 119.513 63.1236 114.852Z" fill="#A3C02D"/>
</g>
<g style="mix-blend-mode:multiply">
<path d="M51.5149 108.826L48.4567 110.815C48.4567 110.815 45.0566 111.744 44.0879 114.643C44.5818 111.043 47.412 108.352 51.5149 108.826Z" fill="#A3C02D"/>
</g>
<g style="mix-blend-mode:multiply">
<path d="M63.1569 111.095L60.0988 113.066C60.0988 113.066 56.6797 113.995 55.7109 116.894C56.2238 113.294 59.054 110.603 63.1569 111.095Z" fill="#A3C02D"/>
</g>
</g>
<mask id="mask21_100_27208" style="mask-type:luminance" maskUnits="userSpaceOnUse" x="48" y="125" width="22" height="14">
<path d="M64.6978 129.204C64.3863 129.204 64.0837 129.234 63.7899 129.295C61.368 123.815 52.4176 125.397 52.1175 131.455C45.1084 131.679 49.5513 141.804 54.4653 136.846C56.4237 138.474 59.7098 138.571 61.7631 137.051C68.3657 141.913 72.8941 129.863 64.6978 129.204Z" fill="white"/>
</mask>
<g mask="url(#mask21_100_27208)">
<path d="M64.4117 132.006C64.2787 140.079 52.2359 140.079 52.084 132.006C52.2359 123.915 64.2787 123.915 64.4117 132.006Z" fill="#769914"/>
<path d="M69.1785 133.673C69.1595 139.528 60.2319 139.528 60.2129 133.673C60.2319 127.817 69.1595 127.817 69.1785 133.673Z" fill="#769914"/>
<path d="M55.1799 134.792C55.2369 139.151 48.3797 139.151 48.4557 134.792C48.3797 130.434 55.2369 130.434 55.1799 134.792Z" fill="#769914"/>
<g style="mix-blend-mode:multiply">
<path d="M66.9373 127.249L64.278 128.954C64.278 128.954 61.3338 129.769 60.498 132.27C60.8779 129.201 63.4423 126.794 66.9373 127.249Z" fill="#A3C02D"/>
</g>
<g style="mix-blend-mode:multiply">
<path d="M67.9832 130.641C68.971 134.431 64.3172 137.557 61.1641 135.34C59.3405 137.121 56.0734 137.481 53.908 136.136C53.2432 137.387 51.5716 138.107 50.166 137.709C51.5336 138.543 53.5471 138.107 54.4589 136.837C56.4153 138.467 59.7014 138.562 61.7719 137.046C65.8368 140.741 71.8202 134.582 67.9832 130.641Z" fill="#A3C02D"/>
</g>
</g>
<mask id="mask22_100_27208" style="mask-type:luminance" maskUnits="userSpaceOnUse" x="48" y="141" width="24" height="11">
<path d="M68.3592 143.903C68.1047 143.903 67.8584 143.929 67.6203 143.979C66.19 140.661 61.0063 140.248 59.0669 143.307C56.816 141.254 52.7625 142.439 51.9628 145.344C45.9471 145.571 49.4156 154.43 53.9934 150.551C55.7295 151.62 58.2957 151.159 59.5551 149.613C61.0899 151.328 64.1139 151.646 65.9849 150.254C71.3262 154.191 74.9941 144.438 68.3592 143.903Z" fill="white"/>
</mask>
<g mask="url(#mask22_100_27208)">
<path d="M68.1305 146.168C68.0925 152.668 58.1772 152.668 58.1582 146.168C58.1772 139.668 68.0925 139.668 68.1305 146.168Z" fill="#769914"/>
<path d="M71.991 147.536C72.048 152.217 64.659 152.217 64.735 147.536C64.659 142.837 72.048 142.837 71.991 147.536Z" fill="#769914"/>
<path d="M60.6508 146.697C60.6318 152.514 51.7802 152.514 51.7422 146.697C51.7802 140.898 60.6318 140.898 60.6508 146.697Z" fill="#769914"/>
<path d="M54.8749 148.403C54.9319 152.401 48.6446 152.401 48.7016 148.403C48.6446 144.423 54.9319 144.423 54.8749 148.403Z" fill="#769914"/>
<g style="mix-blend-mode:multiply">
<path d="M74.043 141.239L70.7949 143.342C70.7949 143.342 67.1859 144.309 66.1602 147.379C66.692 143.589 69.6932 140.727 74.043 141.239Z" fill="#A3C02D"/>
</g>
<g style="mix-blend-mode:multiply">
<path d="M62.6629 138.43L60.7065 141.746C60.7065 141.746 57.9332 144.247 58.4081 147.45C57.1544 143.811 58.541 139.908 62.6629 138.43Z" fill="#A3C02D"/>
</g>
<g style="mix-blend-mode:multiply">
<path d="M71.6109 145.938C71.155 148.363 67.9259 149.576 65.9694 148.041C64.2219 149.595 61.1827 149.538 59.4922 147.965C58.3905 149.614 55.8641 150.296 54.0406 149.386C52.616 151.281 49.2919 150.618 48.7031 148.325C48.5321 151.054 52.1791 152.551 53.9836 150.561C55.7312 151.622 58.2955 151.168 59.5492 149.614C61.0877 151.338 64.1079 151.641 65.9884 150.258C68.7807 152.854 73.4154 149.348 71.6109 145.938Z" fill="#A3C02D"/>
</g>
</g>
<mask id="mask23_100_27208" style="mask-type:luminance" maskUnits="userSpaceOnUse" x="19" y="140" width="21" height="10">
<path d="M36.5952 143.15C36.3685 143.15 36.1488 143.172 35.9361 143.216C34.6577 140.254 30.0287 139.885 28.2963 142.615C26.2867 140.783 22.6662 141.842 21.952 144.435C16.5784 144.639 19.6783 152.549 23.7641 149.087C25.316 150.042 27.6087 149.631 28.7313 148.249C30.1046 149.78 32.8038 150.065 34.4735 148.82C39.245 152.337 42.5216 143.625 36.5952 143.15Z" fill="white"/>
</mask>
<g mask="url(#mask23_100_27208)">
<path d="M36.3949 145.172C36.3569 150.97 27.5053 150.97 27.4863 145.172C27.5053 139.354 36.3759 139.354 36.3949 145.172Z" fill="#769914"/>
<path d="M39.835 146.386C39.892 150.573 33.3008 150.573 33.3578 146.386C33.3008 142.179 39.892 142.179 39.835 146.386Z" fill="#769914"/>
<path d="M29.7094 145.648C29.6904 150.84 21.7885 150.84 21.7695 145.648C21.7885 140.456 29.6904 140.456 29.7094 145.648Z" fill="#769914"/>
<path d="M24.5419 147.169C24.5989 150.731 18.9954 150.731 19.0334 147.169C18.9954 143.625 24.5989 143.606 24.5419 147.169Z" fill="#769914"/>
<g style="mix-blend-mode:multiply">
<path d="M40.3269 140.716L37.7436 142.384C37.7436 142.384 34.8754 143.161 34.0586 145.605C34.4385 142.63 36.9268 140.28 40.3269 140.716Z" fill="#A3C02D"/>
</g>
<g style="mix-blend-mode:multiply">
<path d="M31.1113 138.531L29.4777 141.127C29.4777 141.127 27.2173 143.041 27.5022 145.6C26.5905 142.738 27.8442 139.573 31.1113 138.531Z" fill="#A3C02D"/>
</g>
<g style="mix-blend-mode:multiply">
<path d="M39.3383 144.672C39.4713 147.268 36.2041 148.917 34.1907 147.325C32.6141 148.689 29.9168 148.613 28.4162 147.192C27.4095 148.67 25.1491 149.258 23.5345 148.424C22.5848 149.656 20.4574 149.731 19.4316 148.576C20.2484 150.073 22.6228 150.357 23.7625 149.087C25.3201 150.035 27.5994 149.618 28.7391 148.234C30.1068 149.769 32.804 150.054 34.4756 148.803C37.1159 151.247 41.3328 147.685 39.3383 144.672Z" fill="#A3C02D"/>
</g>
</g>
<mask id="mask24_100_27208" style="mask-type:luminance" maskUnits="userSpaceOnUse" x="13" y="126" width="28" height="13">
<path d="M36.8735 130.369C36.6659 130.372 36.4626 130.389 36.2638 130.42C34.7689 124.487 25.7406 124.883 24.789 130.943C22.7147 129.628 19.6623 130.706 18.8455 132.96C16.8092 131.669 13.9239 133.28 13.9923 135.709C13.8821 138.792 18.2357 140.077 19.8522 137.521C21.7669 139.482 25.4975 138.707 26.4814 136.183C28.2176 137.981 31.4391 138.385 33.5855 137.024C39.3372 143.011 45.1553 131.303 36.8735 130.369Z" fill="white"/>
</mask>
<g mask="url(#mask24_100_27208)">
<path d="M36.4643 131.975C36.4263 139.668 24.7255 139.668 24.6875 131.975C24.7255 124.3 36.4453 124.3 36.4643 131.975Z" fill="#769914"/>
<path d="M26.834 134.519C26.815 139.939 18.5712 139.939 18.5332 134.519C18.5712 129.119 26.815 129.119 26.834 134.519Z" fill="#769914"/>
<path d="M41.0215 134.519C41.0025 139.939 32.7397 139.939 32.7207 134.519C32.7397 129.119 41.0025 129.119 41.0215 134.519Z" fill="#769914"/>
<path d="M20.4128 135.728C20.4698 139.878 13.9356 139.878 13.9926 135.728C13.9356 131.559 20.4698 131.559 20.4128 135.728Z" fill="#769914"/>
<g style="mix-blend-mode:multiply">
<path d="M39.9434 128.239L37.4171 129.868C37.4171 129.868 34.6058 130.645 33.7891 133.052C34.169 130.115 36.6193 127.803 39.9434 128.239Z" fill="#A3C02D"/>
</g>
<g style="mix-blend-mode:multiply">
<path d="M22.6557 128.428L20.8132 130.815C20.8132 130.815 18.5338 131.706 18.4388 134.984C17.831 132.104 19.3696 129.11 22.6557 128.428Z" fill="#A3C02D"/>
</g>
<g style="mix-blend-mode:multiply">
<path d="M39.8846 131.664C40.2265 135.265 35.4208 137.463 32.8945 134.904C31.014 136.591 27.7659 136.724 25.7524 135.227C25.2966 137.254 23.0362 138.732 20.9277 138.259C22.9602 139.282 25.6575 138.221 26.4742 136.174C28.2218 137.974 31.4319 138.391 33.5783 137.027C37.0924 141.518 43.7786 135.833 39.8846 131.664Z" fill="#A3C02D"/>
</g>
</g>
<path d="M40.1958 176.341C40.1958 176.341 39.9679 173.101 38.2773 171.623C38.2773 171.623 40.6707 173.594 40.8417 173.992C40.8417 173.992 40.4808 170.903 39.7969 170.088C39.7969 170.088 41.3165 171.414 41.6205 172.135C41.6205 172.135 41.1456 169.898 40.6897 169.159C40.6897 169.159 42.0573 171.054 42.2663 172.362C42.2663 172.362 42.4942 168.799 42.0383 167.416C42.0383 167.416 43.273 171.301 43.273 173.025C43.273 173.025 43.33 169.709 44.2987 168.458C44.2987 168.458 44.1088 171.68 44.2607 172.855C44.2607 172.855 44.7356 171.13 44.7166 170.069C44.7166 170.069 45.3245 172.248 45.1345 173.309C45.1345 173.309 45.9893 171.358 45.6284 168.686C45.6284 168.686 46.3502 170.77 46.2932 172.513C46.2932 172.513 46.882 170.979 47.6608 170.107C47.6608 170.107 46.6161 172.949 46.5971 173.859C46.5971 173.859 47.015 172.741 47.8128 172.248C47.8128 172.248 46.7871 174.143 46.5591 174.977C46.5591 174.977 47.4329 173.802 48.8385 173.347C48.8385 173.347 47.2809 175.28 47.2429 176.341H40.1958Z" fill="#769914"/>
<path d="M45.4566 176.322C45.4566 176.322 45.3046 174.067 44.127 173.025C44.127 173.025 45.7985 174.408 45.9125 174.693C45.9125 174.693 45.6655 172.532 45.1907 171.945C45.1907 171.945 46.2354 172.892 46.4633 173.385C46.4633 173.385 46.1214 171.831 45.7985 171.32C45.7985 171.32 46.7672 172.627 46.9002 173.556C46.9002 173.556 47.0712 171.054 46.7482 170.088C46.7482 170.088 47.622 172.798 47.622 174.01C47.622 174.01 47.66 171.699 48.3438 170.808C48.3438 170.808 48.1919 173.063 48.3058 173.897C48.3058 173.897 48.6477 172.684 48.6287 171.945C48.6287 171.945 49.0466 173.48 48.9327 174.219C48.9327 174.219 49.5215 172.855 49.2556 170.979C49.2556 170.979 49.7684 172.438 49.7304 173.65C49.7304 173.65 50.1483 172.589 50.6992 171.983C50.6992 171.983 49.9584 173.973 49.9394 174.598C49.9394 174.598 50.2433 173.821 50.7942 173.461C50.7942 173.461 50.0724 174.806 49.9204 175.375C49.9204 175.375 50.5282 174.56 51.516 174.238C51.516 174.238 50.4143 175.583 50.3953 176.322H45.4566Z" fill="#769914"/>
<path d="M29.2272 158.32L27.9355 213.672H34.1089L30.2529 157.031L29.2272 158.32Z" fill="#331C10"/>
<path d="M37.4491 157.812L30.25 167.799L30.5159 170.111L37.4491 157.812Z" fill="#331C10"/>
<path d="M22.8066 158.059L30.0057 170.622L29.4928 173.692L22.8066 157.547V158.059Z" fill="#331C10"/>
<path d="M17.4108 170.883L30.2514 186.251V189.075L21.5137 178.823L10.7246 172.664L21.2668 177.534L17.4108 170.883Z" fill="#331C10"/>
<path d="M43.093 172.93L31.0312 183.428V186.517L43.093 172.93Z" fill="#331C10"/>
<path d="M35.6465 180.603L36.2163 180.338L49.3418 174.047L36.9191 178.898L35.6465 180.603Z" fill="#331C10"/>
<path d="M31.2765 194.187L38.2097 188.805L42.9204 183.992L39.2544 189.317L50.4044 184.049L39.7673 190.094L31.2765 197.522L30.7637 193.941" fill="#331C10"/>
<path d="M11.2559 184.904L20.7533 192.92L30.0038 197.79L30.2508 195.478L21.5131 191.896L18.9488 182.914L20.2404 190.854L11.2559 184.904Z" fill="#331C10"/>
<path d="M22.8066 158.059L23.5664 159.405L22.8066 157.547V158.059Z" fill="#331C10"/>
<path d="M50.4049 184.054L39.2549 189.322L42.9209 183.997L38.2102 188.81L32.7017 193.093L32.1698 185.21L36.7286 180.093L49.3412 174.048L38.2482 178.388L43.0919 172.93L31.9989 182.594L31.0681 169.102L37.4504 157.808L30.9162 166.866L30.2514 157.031L29.2256 158.32L28.9787 168.837L23.5651 159.4C28.8837 172.456 29.3206 169.822 28.6178 184.3L17.4108 170.884L21.2668 177.535L10.7246 172.665L21.5137 178.823L28.5608 187.086L28.3899 194.703L21.5137 191.899L18.9494 182.917L20.241 190.857L11.2565 184.906L20.7539 192.922L28.3329 196.902L27.934 213.672H34.1073L32.9106 196.106L39.7678 190.099L50.4049 184.054Z" fill="#331C10"/>
<g style="mix-blend-mode:multiply">
<path d="M22.8086 158.059L23.5683 159.405L22.8086 157.547V158.059Z" fill="#331C10"/>
<path d="M32.9122 196.107L39.7693 190.1L50.4065 184.055L38.7246 190.1L32.0574 195.481L30.4238 213.673H34.1088L32.9122 196.107Z" fill="#331C10"/>
<path d="M31.0333 183.433L31.3372 193.646L32.6668 192.434L32.173 185.214L36.7317 180.097L49.3443 174.052L38.2513 178.392L43.095 172.934L32.002 182.599L31.0713 169.107L37.4535 157.812L30.4824 168.803L31.0333 183.433Z" fill="#331C10"/>
</g>
<mask id="mask25_100_27208" style="mask-type:luminance" maskUnits="userSpaceOnUse" x="9" y="144" width="43" height="19">
<path d="M46.1907 151.522C45.5221 151.522 44.8857 151.649 44.295 151.872C42.7545 148.569 38.2356 146.955 34.8868 148.662C31.0556 142.27 20.2399 144.306 19.0508 151.69C16.6593 151.031 14.0115 152.314 12.9838 154.444C6.79339 155.306 9.89336 164.627 15.3734 161.607C17.5426 162.765 20.5533 162.027 21.9551 160.096C24.8803 162.759 30.0773 162.829 33.0747 160.237C35.4282 162.619 39.8654 162.799 42.4069 160.595C50.1815 167.04 56.277 152.501 46.1907 151.522Z" fill="white"/>
</mask>
<g mask="url(#mask25_100_27208)">
<path d="M46.1871 151.521C45.5223 151.521 44.8765 151.635 44.2877 151.863C42.7491 148.565 38.2283 146.955 34.8852 148.66C31.0482 142.274 20.2401 144.302 19.0434 151.692C16.6501 151.029 14.0098 152.317 12.9841 154.44C6.79173 155.292 9.8879 164.616 15.3774 161.603C17.5428 162.759 20.563 162.02 21.9496 160.087C24.8749 162.759 30.0795 162.815 33.0807 160.238C35.436 162.607 39.8618 162.797 42.4072 160.579C50.1761 167.041 56.2734 152.488 46.1871 151.521Z" fill="#769914"/>
<g style="mix-blend-mode:multiply">
<path d="M49.5514 152.693C51.2229 157.658 44.6507 161.751 40.9087 158.189C38.5153 160.558 34.0705 160.671 31.5632 158.435C28.752 161.221 23.5474 161.486 20.4702 159.004C19.1785 161.031 16.2343 161.96 13.9929 160.937C13.2711 161.448 12.3024 161.713 11.3906 161.6C12.5303 162.339 14.2209 162.339 15.3796 161.6C17.545 162.756 20.5652 162.017 21.9518 160.084C24.877 162.756 30.0816 162.813 33.0828 160.235C35.4382 162.604 39.864 162.794 42.4093 160.576C47.6519 165.731 55.2119 157.355 49.5514 152.693Z" fill="#A3C02D"/>
</g>
<g style="mix-blend-mode:multiply">
<path d="M37.9426 146.673L34.8845 148.663C34.8845 148.663 31.4844 149.592 30.5156 152.491C31.0095 148.89 33.8397 146.2 37.9426 146.673Z" fill="#A3C02D"/>
</g>
<g style="mix-blend-mode:multiply">
<path d="M49.5847 148.943L46.5265 150.914C46.5265 150.914 43.1074 151.842 42.1387 154.742C42.6515 151.141 45.4818 148.45 49.5847 148.943Z" fill="#A3C02D"/>
</g>
</g>
<mask id="mask26_100_27208" style="mask-type:luminance" maskUnits="userSpaceOnUse" x="34" y="163" width="22" height="14">
<path d="M51.1256 167.067C50.8141 167.067 50.5114 167.097 50.2176 167.158C47.7958 161.678 38.8454 163.26 38.5452 169.318C31.5361 169.542 35.979 179.667 40.893 174.71C42.8514 176.337 46.1375 176.434 48.1909 174.914C54.7935 179.777 59.3219 167.727 51.1256 167.067Z" fill="white"/>
</mask>
<g mask="url(#mask26_100_27208)">
<path d="M50.8375 169.871C50.7045 177.944 38.6617 177.944 38.5098 169.871C38.6617 161.78 50.7045 161.78 50.8375 169.871Z" fill="#769914"/>
<path d="M55.6043 171.538C55.5853 177.394 46.6577 177.394 46.6387 171.538C46.6577 165.683 55.5853 165.683 55.6043 171.538Z" fill="#769914"/>
<path d="M41.6057 172.658C41.6627 177.016 34.8055 177.016 34.8815 172.658C34.8055 168.299 41.6627 168.299 41.6057 172.658Z" fill="#769914"/>
<g style="mix-blend-mode:multiply">
<path d="M53.3651 165.112L50.7058 166.817C50.7058 166.817 47.7616 167.632 46.9258 170.134C47.3057 167.064 49.87 164.657 53.3651 165.112Z" fill="#A3C02D"/>
</g>
<g style="mix-blend-mode:multiply">
<path d="M54.409 168.506C55.3967 172.296 50.743 175.423 47.5898 173.205C45.7663 174.987 42.4992 175.347 40.3338 174.001C39.669 175.252 37.9974 175.972 36.5918 175.574C37.9594 176.408 39.9729 175.972 40.8846 174.702C42.8411 176.332 46.1272 176.427 48.1977 174.911C52.2626 178.606 58.246 172.447 54.409 168.506Z" fill="#A3C02D"/>
</g>
</g>
<mask id="mask27_100_27208" style="mask-type:luminance" maskUnits="userSpaceOnUse" x="35" y="179" width="24" height="11">
<path d="M54.787 181.767C54.5324 181.767 54.2861 181.792 54.0481 181.843C52.6178 178.524 47.434 178.111 45.4947 181.17C43.2438 179.118 39.1902 180.302 38.3906 183.207C32.3749 183.434 35.8433 192.293 40.4211 188.414C42.1573 189.483 44.7235 189.023 45.9828 187.476C47.5176 189.191 50.5416 189.51 52.4126 188.117C57.754 192.055 61.4219 182.301 54.787 181.767Z" fill="white"/>
</mask>
<g mask="url(#mask27_100_27208)">
<path d="M54.5602 184.031C54.5222 190.531 44.6069 190.531 44.5879 184.031C44.6069 177.531 54.5222 177.531 54.5602 184.031Z" fill="#769914"/>
<path d="M58.4207 185.4C58.4777 190.08 51.0887 190.08 51.1646 185.4C51.0887 180.7 58.4777 180.7 58.4207 185.4Z" fill="#769914"/>
<path d="M47.0805 184.56C47.0615 190.377 38.2099 190.377 38.1719 184.56C38.2099 178.761 47.0615 178.761 47.0805 184.56Z" fill="#769914"/>
<path d="M41.3046 186.266C41.3616 190.264 35.0743 190.264 35.1312 186.266C35.0743 182.286 41.3616 182.286 41.3046 186.266Z" fill="#769914"/>
<g style="mix-blend-mode:multiply">
<path d="M60.4708 179.102L57.2226 181.206C57.2226 181.206 53.6136 182.172 52.5879 185.242C53.1197 181.452 56.1209 178.591 60.4708 179.102Z" fill="#A3C02D"/>
</g>
<g style="mix-blend-mode:multiply">
<path d="M49.0907 176.293L47.1342 179.609C47.1342 179.609 44.3609 182.111 44.8358 185.313C43.5821 181.675 44.9688 177.771 49.0907 176.293Z" fill="#A3C02D"/>
</g>
<g style="mix-blend-mode:multiply">
<path d="M58.0386 183.801C57.5828 186.226 54.3536 187.439 52.3972 185.904C50.6496 187.458 47.6104 187.401 45.9199 185.828C44.8182 187.477 42.2919 188.159 40.4684 187.25C39.0437 189.145 35.7196 188.481 35.1308 186.188C34.9599 188.917 38.6069 190.414 40.4114 188.425C42.1589 189.486 44.7232 189.031 45.9769 187.477C47.5155 189.201 50.5357 189.505 52.4162 188.121C55.2084 190.717 59.8432 187.212 58.0386 183.801Z" fill="#A3C02D"/>
</g>
</g>
<mask id="mask28_100_27208" style="mask-type:luminance" maskUnits="userSpaceOnUse" x="5" y="178" width="22" height="10">
<path d="M23.0307 181.005C22.8041 181.005 22.5844 181.027 22.3716 181.072C21.0933 178.11 16.4642 177.74 14.7319 180.471C12.7222 178.638 9.10179 179.698 8.38758 182.29C3.01392 182.495 6.11389 190.404 10.1997 186.942C11.7516 187.897 14.0443 187.486 15.1669 186.105C16.5402 187.636 19.2394 187.92 20.909 186.675C25.6805 190.192 28.9571 181.481 23.0307 181.005Z" fill="white"/>
</mask>
<g mask="url(#mask28_100_27208)">
<path d="M22.8305 183.027C22.7925 188.826 13.9409 188.826 13.9219 183.027C13.9409 177.21 22.8115 177.21 22.8305 183.027Z" fill="#769914"/>
<path d="M26.2706 184.241C26.3276 188.429 19.7364 188.429 19.7933 184.241C19.7364 180.034 26.3276 180.034 26.2706 184.241Z" fill="#769914"/>
<path d="M16.1449 183.504C16.1259 188.696 8.22407 188.696 8.20508 183.504C8.22407 178.311 16.1259 178.311 16.1449 183.504Z" fill="#769914"/>
<path d="M10.9775 185.024C11.0344 188.587 5.43095 188.587 5.46894 185.024C5.43095 181.481 11.0344 181.462 10.9775 185.024Z" fill="#769914"/>
<g style="mix-blend-mode:multiply">
<path d="M26.7605 178.58L24.1772 180.247C24.1772 180.247 21.309 181.024 20.4922 183.469C20.8721 180.493 23.3604 178.144 26.7605 178.58Z" fill="#A3C02D"/>
</g>
<g style="mix-blend-mode:multiply">
<path d="M17.5488 176.395L15.9152 178.991C15.9152 178.991 13.6548 180.905 13.9397 183.463C13.028 180.601 14.2817 177.437 17.5488 176.395Z" fill="#A3C02D"/>
</g>
<g style="mix-blend-mode:multiply">
<path d="M25.7758 182.535C25.9088 185.131 22.6416 186.78 20.6282 185.188C19.0516 186.553 16.3543 186.477 14.8537 185.055C13.847 186.534 11.5866 187.121 9.97204 186.287C9.02229 187.519 6.89486 187.595 5.86914 186.439C6.68592 187.936 9.06029 188.22 10.2 186.95C11.7576 187.898 14.0369 187.481 15.1766 186.098C16.5443 187.633 19.2415 187.917 20.9131 186.666C23.5534 189.111 27.7703 185.548 25.7758 182.535Z" fill="#A3C02D"/>
</g>
</g>
<mask id="mask29_100_27208" style="mask-type:luminance" maskUnits="userSpaceOnUse" x="0" y="164" width="28" height="13">
<path d="M23.3091 168.225C23.1014 168.227 22.8982 168.244 22.6994 168.276C21.2045 162.343 12.1762 162.739 11.2245 168.799C9.15029 167.484 6.09781 168.562 5.28103 170.815C3.24477 169.525 0.359453 171.135 0.427834 173.565C0.317664 176.648 4.67129 177.933 6.28776 175.376C8.20245 177.338 11.933 176.563 12.917 174.038C14.6531 175.837 17.8746 176.24 20.0211 174.88C25.7727 180.866 31.5909 169.159 23.3091 168.225Z" fill="white"/>
</mask>
<g mask="url(#mask29_100_27208)">
<path d="M22.8999 169.832C22.8619 177.526 11.161 177.526 11.123 169.832C11.161 162.158 22.8809 162.158 22.8999 169.832Z" fill="#769914"/>
<path d="M13.2695 172.377C13.2505 177.796 5.00674 177.796 4.96875 172.377C5.00674 166.976 13.2505 166.976 13.2695 172.377Z" fill="#769914"/>
<path d="M27.457 172.377C27.438 177.796 19.1752 177.796 19.1562 172.377C19.1752 166.976 27.438 166.976 27.457 172.377Z" fill="#769914"/>
<path d="M6.84838 173.586C6.90537 177.736 0.37112 177.736 0.428105 173.586C0.37112 169.417 6.90537 169.417 6.84838 173.586Z" fill="#769914"/>
<g style="mix-blend-mode:multiply">
<path d="M26.377 166.094L23.8507 167.724C23.8507 167.724 21.0394 168.501 20.2227 170.907C20.6026 167.97 23.0529 165.658 26.377 166.094Z" fill="#A3C02D"/>
</g>
<g style="mix-blend-mode:multiply">
<path d="M9.09126 166.283L7.24876 168.671C7.24876 168.671 4.96937 169.562 4.87439 172.84C4.26656 169.959 5.80514 166.965 9.09126 166.283Z" fill="#A3C02D"/>
</g>
<g style="mix-blend-mode:multiply">
<path d="M26.3182 169.521C26.6601 173.122 21.8544 175.32 19.3281 172.762C17.4476 174.448 14.1995 174.581 12.186 173.084C11.7302 175.112 9.46976 176.59 7.36133 176.116C9.39378 177.139 12.0911 176.078 12.9078 174.032C14.6554 175.832 17.8655 176.249 20.0119 174.884C23.526 179.375 30.2122 173.69 26.3182 169.521Z" fill="#A3C02D"/>
</g>
</g>
<path d="M26.6275 214.205C26.6275 214.205 26.3995 210.964 24.709 209.486C24.709 209.486 27.1023 211.457 27.2733 211.855C27.2733 211.855 26.9124 208.766 26.2286 207.951C26.2286 207.951 27.7482 209.278 28.0521 209.998C28.0521 209.998 27.5772 207.762 27.1213 207.023C27.1213 207.023 28.489 208.918 28.6979 210.225C28.6979 210.225 28.9259 206.663 28.47 205.279C28.47 205.279 29.7046 209.164 29.7046 210.888C29.7046 210.888 29.7616 207.572 30.7304 206.322C30.7304 206.322 30.5404 209.543 30.6924 210.718C30.6924 210.718 31.1673 208.993 31.1483 207.932C31.1483 207.932 31.7561 210.111 31.5661 211.173C31.5661 211.173 32.4209 209.221 32.06 206.549C32.06 206.549 32.7818 208.633 32.7248 210.377C32.7248 210.377 33.3137 208.842 34.0925 207.97C34.0925 207.97 33.0478 210.813 33.0288 211.722C33.0288 211.722 33.4466 210.604 34.2444 210.111C34.2444 210.111 33.2187 212.006 32.9908 212.84C32.9908 212.84 33.8645 211.665 35.2702 211.211C35.2702 211.211 33.7126 213.143 33.6746 214.205H26.6275Z" fill="#769914"/>
<path d="M31.8882 214.186C31.8882 214.186 31.7363 211.931 30.5586 210.888C30.5586 210.888 32.2301 212.272 32.3441 212.556C32.3441 212.556 32.0972 210.396 31.6223 209.808C31.6223 209.808 32.667 210.756 32.895 211.248C32.895 211.248 32.5531 209.695 32.2301 209.183C32.2301 209.183 33.1989 210.49 33.3318 211.419C33.3318 211.419 33.5028 208.918 33.1799 207.951C33.1799 207.951 34.0536 210.661 34.0536 211.874C34.0536 211.874 34.0916 209.562 34.7755 208.671C34.7755 208.671 34.6235 210.926 34.7375 211.76C34.7375 211.76 35.0794 210.547 35.0604 209.808C35.0604 209.808 35.4783 211.343 35.3643 212.082C35.3643 212.082 35.9531 210.718 35.6872 208.842C35.6872 208.842 36.2001 210.301 36.1621 211.514C36.1621 211.514 36.58 210.453 37.1308 209.846C37.1308 209.846 36.39 211.836 36.371 212.461C36.371 212.461 36.6749 211.684 37.2258 211.324C37.2258 211.324 36.504 212.67 36.352 213.238C36.352 213.238 36.9599 212.423 37.9476 212.101C37.9476 212.101 36.8459 213.447 36.8269 214.186H31.8882Z" fill="#769914"/>
<path d="M62.7467 137.873L61.4551 193.225H67.6284L63.7725 136.584L62.7467 137.873Z" fill="#331C10"/>
<path d="M70.9686 137.365L63.7695 147.352L64.0355 149.664L70.9686 137.365Z" fill="#331C10"/>
<path d="M56.3262 137.611L63.5252 150.175L63.0124 153.245L56.3262 137.1V137.611Z" fill="#331C10"/>
<path d="M50.9303 150.436L63.7709 165.804V168.628L55.0332 158.376L44.2441 152.217L54.7863 157.087L50.9303 150.436Z" fill="#331C10"/>
<path d="M76.6125 152.482L64.5508 162.981V166.069L76.6125 152.482Z" fill="#331C10"/>
<path d="M69.166 160.156L69.7359 159.891L82.8613 153.6L70.4387 158.451L69.166 160.156Z" fill="#331C10"/>
<path d="M64.7961 173.74L71.7292 168.358L76.4399 163.545L72.7739 168.87L83.9239 163.602L73.2868 169.647L64.7961 177.075L64.2832 173.494" fill="#331C10"/>
<path d="M44.7754 164.457L54.2728 172.472L63.5234 177.342L63.7703 175.03L55.0326 171.449L52.4683 162.467L53.76 170.407L44.7754 164.457Z" fill="#331C10"/>
<path d="M56.3262 137.612L57.0859 138.958L56.3262 137.1V137.612Z" fill="#331C10"/>
<path d="M83.9245 163.606L72.7745 168.874L76.4405 163.549L71.7297 168.363L66.2212 172.645L65.6894 164.762L70.2481 159.646L82.8607 153.601L71.7677 157.94L76.6114 152.483L65.5184 162.147L64.5877 148.655L70.97 137.361L64.4357 146.419L63.7709 136.584L62.7452 137.873L62.4982 148.39L57.0847 138.953C62.4032 152.009 62.8401 149.375 62.1373 163.853L50.9303 150.436L54.7863 157.088L44.2441 152.218L55.0332 158.376L62.0803 166.638L61.9094 174.256L55.0332 171.452L52.4689 162.469L53.7606 170.409L44.776 164.459L54.2734 172.475L61.8524 176.454L61.4535 193.225H67.6268L66.4302 175.658L73.2873 169.651L83.9245 163.606Z" fill="#331C10"/>
<g style="mix-blend-mode:multiply">
<path d="M56.3281 137.604L57.0879 138.95L56.3281 137.092V137.604Z" fill="#331C10"/>
<path d="M66.4317 175.652L73.2888 169.645L83.926 163.6L72.2441 169.645L65.5769 175.026L63.9434 193.218H67.6284L66.4317 175.652Z" fill="#331C10"/>
<path d="M64.5528 162.977L64.8567 173.191L66.1864 171.979L65.6925 164.759L70.2513 159.642L82.8639 153.597L71.7709 157.937L76.6146 152.479L65.5215 162.144L64.5908 148.651L70.9731 137.357L64.002 148.348L64.5528 162.977Z" fill="#331C10"/>
</g>
<mask id="mask30_100_27208" style="mask-type:luminance" maskUnits="userSpaceOnUse" x="43" y="124" width="42" height="18">
<path d="M79.7141 131.074C79.0455 131.074 78.4092 131.201 77.8184 131.425C76.278 128.122 71.7591 126.507 68.4103 128.215C64.579 121.823 53.7633 123.858 52.5742 131.243C50.1828 130.584 47.5349 131.866 46.5073 133.996C40.3168 134.859 43.4168 144.18 48.8968 141.159C51.066 142.317 54.0767 141.58 55.4786 139.649C58.4038 142.312 63.6008 142.382 66.5982 139.789C68.9516 142.171 73.3888 142.351 75.9304 140.148C83.705 146.592 89.8004 132.054 79.7141 131.074Z" fill="white"/>
</mask>
<g mask="url(#mask30_100_27208)">
<path d="M79.7106 131.082C79.0458 131.082 78.3999 131.196 77.8111 131.423C76.2725 128.126 71.7517 126.515 68.4086 128.221C64.5716 121.834 53.7635 123.862 52.5669 131.253C50.1735 130.589 47.5332 131.878 46.5075 134C40.3152 134.853 43.4113 144.176 48.9009 141.163C51.0663 142.319 54.0865 141.58 55.4731 139.647C58.3983 142.319 63.6029 142.376 66.6041 139.799C68.9595 142.168 73.3853 142.357 75.9306 140.14C83.6995 146.602 89.7969 132.048 79.7106 131.082Z" fill="#769914"/>
<g style="mix-blend-mode:multiply">
<path d="M83.0748 132.26C84.7464 137.225 78.1741 141.318 74.4321 137.755C72.0388 140.124 67.594 140.238 65.0866 138.002C62.2754 140.787 57.0708 141.052 53.9936 138.57C52.702 140.598 49.7578 141.526 47.5164 140.503C46.7946 141.015 45.8258 141.28 44.9141 141.166C46.0538 141.905 47.7443 141.905 48.903 141.166C51.0684 142.322 54.0886 141.583 55.4752 139.65C58.4004 142.322 63.605 142.379 66.6062 139.802C68.9616 142.17 73.3874 142.36 75.9327 140.143C81.1753 145.297 88.7353 136.921 83.0748 132.26Z" fill="#A3C02D"/>
</g>
<g style="mix-blend-mode:multiply">
<path d="M71.4661 126.234L68.4079 128.224C68.4079 128.224 65.0078 129.152 64.0391 132.051C64.5329 128.451 67.3632 125.76 71.4661 126.234Z" fill="#A3C02D"/>
</g>
<g style="mix-blend-mode:multiply">
<path d="M83.1081 128.504L80.0499 130.474C80.0499 130.474 76.6308 131.403 75.6621 134.302C76.175 130.702 79.0052 128.011 83.1081 128.504Z" fill="#A3C02D"/>
</g>
</g>
<mask id="mask31_100_27208" style="mask-type:luminance" maskUnits="userSpaceOnUse" x="68" y="143" width="22" height="13">
<path d="M84.6451 146.62C84.3336 146.62 84.0309 146.65 83.7371 146.711C81.3153 141.231 72.3649 142.813 72.0648 148.871C65.0557 149.095 69.4986 159.22 74.4126 154.262C76.3709 155.89 79.657 155.987 81.7104 154.467C88.313 159.329 92.8414 147.279 84.6451 146.62Z" fill="white"/>
</mask>
<g mask="url(#mask31_100_27208)">
<path d="M84.357 149.424C84.224 157.497 72.1813 157.497 72.0293 149.424C72.1813 141.333 84.224 141.333 84.357 149.424Z" fill="#769914"/>
<path d="M89.1238 151.091C89.1048 156.946 80.1772 156.946 80.1582 151.091C80.1772 145.235 89.1048 145.235 89.1238 151.091Z" fill="#769914"/>
<path d="M75.1252 152.21C75.1822 156.569 68.325 156.569 68.401 152.21C68.325 147.852 75.1822 147.852 75.1252 152.21Z" fill="#769914"/>
<g style="mix-blend-mode:multiply">
<path d="M86.8865 144.665L84.2273 146.37C84.2273 146.37 81.283 147.185 80.4473 149.686C80.8272 146.617 83.3915 144.21 86.8865 144.665Z" fill="#A3C02D"/>
</g>
<g style="mix-blend-mode:multiply">
<path d="M87.9285 148.059C88.9163 151.849 84.2625 154.975 81.1094 152.758C79.2859 154.539 76.0187 154.899 73.8533 153.554C73.1885 154.805 71.517 155.525 70.1113 155.127C71.479 155.961 73.4924 155.525 74.4042 154.255C76.3606 155.885 79.6468 155.98 81.7172 154.464C85.7821 158.159 91.7655 152 87.9285 148.059Z" fill="#A3C02D"/>
</g>
</g>
<mask id="mask32_100_27208" style="mask-type:luminance" maskUnits="userSpaceOnUse" x="68" y="158" width="24" height="11">
<path d="M88.3065 161.327C88.052 161.327 87.8057 161.353 87.5676 161.403C86.1373 158.085 80.9536 157.672 79.0142 160.73C76.7633 158.678 72.7098 159.862 71.9101 162.767C65.8944 162.995 69.3629 171.854 73.9406 167.975C75.6768 169.044 78.243 168.583 79.5024 167.037C81.0371 168.752 84.0611 169.07 85.9321 167.677C91.2735 171.615 94.9414 161.862 88.3065 161.327Z" fill="white"/>
</mask>
<g mask="url(#mask32_100_27208)">
<path d="M88.0797 163.592C88.0418 170.091 78.1264 170.091 78.1074 163.592C78.1264 157.092 88.0418 157.092 88.0797 163.592Z" fill="#769914"/>
<path d="M91.9402 164.96C91.9972 169.641 84.6082 169.641 84.6842 164.96C84.6082 160.261 91.9972 160.261 91.9402 164.96Z" fill="#769914"/>
<path d="M80.6 164.12C80.581 169.938 71.7294 169.938 71.6914 164.12C71.7294 158.322 80.581 158.322 80.6 164.12Z" fill="#769914"/>
<path d="M74.8241 165.826C74.8811 169.825 68.5938 169.825 68.6508 165.826C68.5938 161.847 74.8811 161.847 74.8241 165.826Z" fill="#769914"/>
<g style="mix-blend-mode:multiply">
<path d="M93.9903 158.663L90.7422 160.766C90.7422 160.766 87.1331 161.733 86.1074 164.803C86.6393 161.013 89.6405 158.151 93.9903 158.663Z" fill="#A3C02D"/>
</g>
<g style="mix-blend-mode:multiply">
<path d="M82.6102 155.854L80.6537 159.17C80.6537 159.17 77.8805 161.671 78.3553 164.874C77.1017 161.235 78.4883 157.332 82.6102 155.854Z" fill="#A3C02D"/>
</g>
<g style="mix-blend-mode:multiply">
<path d="M91.5582 163.361C91.1023 165.787 87.8732 167 85.9167 165.465C84.1692 167.019 81.13 166.962 79.4394 165.389C78.3377 167.038 75.8114 167.72 73.9879 166.81C72.5633 168.705 69.2392 168.042 68.6503 165.749C68.4794 168.478 72.1264 169.975 73.9309 167.985C75.6784 169.046 78.2428 168.591 79.4964 167.038C81.035 168.762 84.0552 169.065 85.9357 167.682C88.7279 170.278 93.3627 166.772 91.5582 163.361Z" fill="#A3C02D"/>
</g>
</g>
<mask id="mask33_100_27208" style="mask-type:luminance" maskUnits="userSpaceOnUse" x="39" y="158" width="21" height="10">
<path d="M56.5464 160.558C56.3197 160.558 56.1 160.58 55.8872 160.624C54.6089 157.662 49.9798 157.293 48.2475 160.024C46.2378 158.191 42.6174 159.25 41.9032 161.843C36.5295 162.047 39.6295 169.957 43.7153 166.495C45.2672 167.45 47.5599 167.039 48.6825 165.657C50.0558 167.189 52.755 167.473 54.4246 166.228C59.1962 169.745 62.4728 161.034 56.5464 160.558Z" fill="white"/>
</mask>
<g mask="url(#mask33_100_27208)">
<path d="M56.3461 162.58C56.3081 168.379 47.4565 168.379 47.4375 162.58C47.4565 156.762 56.3271 156.762 56.3461 162.58Z" fill="#769914"/>
<path d="M59.7862 163.794C59.8432 167.982 53.252 167.982 53.309 163.794C53.252 159.587 59.8432 159.587 59.7862 163.794Z" fill="#769914"/>
<path d="M49.6606 163.056C49.6416 168.249 41.7397 168.249 41.7207 163.056C41.7397 157.864 49.6416 157.864 49.6606 163.056Z" fill="#769914"/>
<path d="M44.4931 164.577C44.5501 168.139 38.9466 168.139 38.9846 164.577C38.9466 161.033 44.5501 161.014 44.4931 164.577Z" fill="#769914"/>
<g style="mix-blend-mode:multiply">
<path d="M60.2781 158.132L57.6948 159.8C57.6948 159.8 54.8265 160.577 54.0098 163.021C54.3897 160.046 56.878 157.696 60.2781 158.132Z" fill="#A3C02D"/>
</g>
<g style="mix-blend-mode:multiply">
<path d="M51.0644 155.947L49.4308 158.543C49.4308 158.543 47.1704 160.457 47.4554 163.016C46.5436 160.154 47.7973 156.99 51.0644 155.947Z" fill="#A3C02D"/>
</g>
<g style="mix-blend-mode:multiply">
<path d="M59.2895 162.088C59.4224 164.684 56.1553 166.333 54.1418 164.741C52.5653 166.105 49.868 166.029 48.3674 164.608C47.3607 166.086 45.1003 166.674 43.4857 165.84C42.536 167.072 40.4085 167.147 39.3828 165.992C40.1996 167.489 42.574 167.773 43.7137 166.503C45.2712 167.451 47.5506 167.034 48.6903 165.65C50.0579 167.185 52.7552 167.47 54.4268 166.219C57.0671 168.663 61.2839 165.101 59.2895 162.088Z" fill="#A3C02D"/>
</g>
</g>
<mask id="mask34_100_27208" style="mask-type:luminance" maskUnits="userSpaceOnUse" x="33" y="143" width="28" height="14">
<path d="M56.8247 147.777C56.617 147.78 56.4138 147.797 56.215 147.829C54.7201 141.895 45.6918 142.291 44.7402 148.352C42.6659 147.036 39.6134 148.115 38.7967 150.368C36.7604 149.077 33.8751 150.688 33.9435 153.117C33.8333 156.201 38.1869 157.485 39.8034 154.929C41.7181 156.89 45.4487 156.115 46.4326 153.591C48.1687 155.389 51.3903 155.793 53.5367 154.433C59.2883 160.419 65.1065 148.712 56.8247 147.777Z" fill="white"/>
</mask>
<g mask="url(#mask34_100_27208)">
<path d="M56.4155 149.385C56.3775 157.078 44.6767 157.078 44.6387 149.385C44.6767 141.71 56.3965 141.71 56.4155 149.385Z" fill="#769914"/>
<path d="M46.7851 151.929C46.7661 157.349 38.5224 157.349 38.4844 151.929C38.5224 146.529 46.7661 146.529 46.7851 151.929Z" fill="#769914"/>
<path d="M60.9726 151.929C60.9536 157.349 52.6909 157.349 52.6719 151.929C52.6909 146.529 60.9536 146.529 60.9726 151.929Z" fill="#769914"/>
<path d="M40.364 153.138C40.421 157.288 33.8867 157.288 33.9437 153.138C33.8867 148.969 40.421 148.969 40.364 153.138Z" fill="#769914"/>
<g style="mix-blend-mode:multiply">
<path d="M59.8926 145.647L57.3663 147.276C57.3663 147.276 54.5551 148.053 53.7383 150.46C54.1182 147.523 56.5685 145.211 59.8926 145.647Z" fill="#A3C02D"/>
</g>
<g style="mix-blend-mode:multiply">
<path d="M42.6088 145.836L40.7663 148.224C40.7663 148.224 38.4869 149.114 38.392 152.393C37.7841 149.512 39.3227 146.518 42.6088 145.836Z" fill="#A3C02D"/>
</g>
<g style="mix-blend-mode:multiply">
<path d="M59.8358 149.074C60.1777 152.675 55.372 154.873 52.8457 152.315C50.9652 154.001 47.7171 154.134 45.7036 152.637C45.2477 154.664 42.9873 156.142 40.8789 155.669C42.9114 156.692 45.6086 155.631 46.4254 153.584C48.1729 155.384 51.3831 155.801 53.5295 154.437C57.0436 158.928 63.7298 153.243 59.8358 149.074Z" fill="#A3C02D"/>
</g>
</g>
<path d="M60.149 193.75C60.149 193.75 59.921 190.509 58.2305 189.031C58.2305 189.031 60.6238 191.002 60.7948 191.4C60.7948 191.4 60.4339 188.311 59.7501 187.496C59.7501 187.496 61.2697 188.823 61.5736 189.543C61.5736 189.543 61.0987 187.307 60.6428 186.568C60.6428 186.568 62.0105 188.463 62.2194 189.77C62.2194 189.77 62.4473 186.208 61.9915 184.824C61.9915 184.824 63.2261 188.709 63.2261 190.433C63.2261 190.433 63.2831 187.117 64.2519 185.866C64.2519 185.866 64.0619 189.088 64.2139 190.263C64.2139 190.263 64.6887 188.538 64.6697 187.477C64.6697 187.477 65.2776 189.656 65.0876 190.718C65.0876 190.718 65.9424 188.766 65.5815 186.094C65.5815 186.094 66.3033 188.178 66.2463 189.922C66.2463 189.922 66.8352 188.387 67.6139 187.515C67.6139 187.515 66.5692 190.358 66.5502 191.267C66.5502 191.267 66.9681 190.149 67.7659 189.656C67.7659 189.656 66.7402 191.551 66.5122 192.385C66.5122 192.385 67.386 191.21 68.7916 190.755C68.7916 190.755 67.234 192.688 67.1961 193.75H60.149Z" fill="#769914"/>
<path d="M65.4097 193.731C65.4097 193.731 65.2578 191.476 64.0801 190.433C64.0801 190.433 65.7516 191.817 65.8656 192.101C65.8656 192.101 65.6187 189.941 65.1438 189.353C65.1438 189.353 66.1885 190.301 66.4164 190.793C66.4164 190.793 66.0745 189.239 65.7516 188.728C65.7516 188.728 66.7204 190.035 66.8533 190.964C66.8533 190.964 67.0243 188.463 66.7014 187.496C66.7014 187.496 67.5751 190.206 67.5751 191.419C67.5751 191.419 67.6131 189.107 68.2969 188.216C68.2969 188.216 68.145 190.471 68.259 191.305C68.259 191.305 68.6009 190.092 68.5819 189.353C68.5819 189.353 68.9998 190.888 68.8858 191.627C68.8858 191.627 69.4746 190.263 69.2087 188.387C69.2087 188.387 69.7216 189.846 69.6836 191.059C69.6836 191.059 70.1015 189.997 70.6523 189.391C70.6523 189.391 69.9115 191.381 69.8925 192.006C69.8925 192.006 70.1964 191.229 70.7473 190.869C70.7473 190.869 70.0255 192.215 69.8735 192.783C69.8735 192.783 70.4814 191.968 71.4691 191.646C71.4691 191.646 70.3674 192.992 70.3484 193.731H65.4097Z" fill="#769914"/>
</svg>
