<svg width="329" height="234" viewBox="0 0 329 234" fill="none" xmlns="http://www.w3.org/2000/svg">
<path d="M55.9936 26.0148L53.5078 132.74H65.3882L57.9675 23.5303L55.9936 26.0148Z" fill="#331C10"/>
<path d="M71.8212 25.0283L57.9668 44.2834L58.4786 48.7409L71.8212 25.0283Z" fill="#331C10"/>
<path d="M43.6387 25.5031L57.4931 49.7273L56.5061 55.6463L43.6387 24.5166V25.5031Z" fill="#331C10"/>
<path d="M33.2561 50.2393L57.9673 79.8709V85.315L41.152 65.5483L20.3887 53.6738L40.6768 63.0638L33.2561 50.2393Z" fill="#331C10"/>
<path d="M82.6773 54.1846L59.4648 74.4262V80.3817L82.6773 54.1846Z" fill="#331C10"/>
<path d="M68.3496 68.9827L69.4463 68.4712L94.7058 56.3408L70.7988 65.6943L68.3496 68.9827Z" fill="#331C10"/>
<path d="M59.9421 95.1795L73.2847 84.8029L82.3504 75.5225L75.2952 85.7894L96.7531 75.6321L76.2822 87.2874L59.9421 101.61L58.9551 94.7045" fill="#331C10"/>
<path d="M21.4121 77.2768L39.6897 92.7321L57.492 102.122L57.9672 97.6646L41.1519 90.7591L36.2169 73.4404L38.7027 88.7495L21.4121 77.2768Z" fill="#331C10"/>
<path d="M43.6387 25.5031L45.1009 28.0972L43.6387 24.5166V25.5031Z" fill="#331C10"/>
<path d="M96.7523 75.6323L75.2945 85.7896L82.3496 75.5227L73.2839 84.8031L62.6829 93.0605L61.6594 77.8611L70.4326 67.996L94.7052 56.3407L73.357 64.7077L82.6786 54.185L61.3304 72.8189L59.5392 46.8045L71.8217 25.0283L59.2468 42.4931L57.9673 23.5303L55.9934 26.0148L55.5181 46.2929L45.0999 28.0974C55.3354 53.2715 56.1761 48.1929 54.8236 76.1073L33.2561 50.239L40.6768 63.0635L20.3887 53.6734L41.152 65.548L54.7139 81.4782L54.3849 96.1662L41.152 90.7587L36.217 73.4401L38.7028 88.7491L21.4122 77.2765L39.6898 92.7317L54.2753 100.405L53.5076 132.74H65.388L63.085 98.8699L76.2815 87.2877L96.7523 75.6323Z" fill="#331C10"/>
<g style="mix-blend-mode:multiply">
<path d="M43.6387 25.5031L45.1009 28.0972L43.6387 24.5166V25.5031Z" fill="#331C10"/>
<path d="M63.0856 98.8695L76.282 87.2872L96.7529 75.6318L74.2715 87.2872L61.4406 97.6638L58.2969 132.739H65.3886L63.0856 98.8695Z" fill="#331C10"/>
<path d="M59.4664 74.4266L60.0512 94.1201L62.6101 91.7817L61.6597 77.8611L70.4329 67.996L94.7055 56.3407L73.3573 64.7077L82.6789 54.185L61.3307 72.819L59.5394 46.8045L71.822 25.0283L58.4062 46.2199L59.4664 74.4266Z" fill="#331C10"/>
</g>
<mask id="mask0_3963_69299" style="mask-type:luminance" maskUnits="userSpaceOnUse" x="18" y="0" width="81" height="34">
<path d="M88.6428 12.887C87.3561 12.887 86.1315 13.1318 84.9946 13.563C82.03 7.19452 73.3336 4.08155 66.8889 7.37355C59.5157 -4.95044 38.7012 -1.02635 36.4129 13.2122C31.8106 11.9407 26.7148 14.4143 24.7372 18.521C12.8239 20.1835 18.7897 38.1561 29.3358 32.3321C33.5104 34.5645 39.3044 33.1432 42.0022 29.4201C47.6317 34.5536 57.6331 34.6888 63.4015 29.6905C67.9307 34.2832 76.47 34.6303 81.361 30.381C96.3231 42.8073 108.054 14.776 88.6428 12.887Z" fill="white"/>
</mask>
<g mask="url(#mask0_3963_69299)">
<path d="M88.6358 12.8983C87.3564 12.8983 86.1135 13.1175 84.9803 13.5559C82.0194 7.19847 73.3192 4.09282 66.8855 7.38116C59.5014 -4.93187 38.7015 -1.02239 36.3986 13.2271C31.7926 11.9483 26.7115 14.4328 24.7375 18.525C12.8205 20.1692 18.779 38.1455 29.3434 32.3361C33.5107 34.5648 39.323 33.1399 41.9915 29.4131C47.621 34.5648 57.6371 34.6744 63.4128 29.7054C67.9456 34.2725 76.463 34.6379 81.3614 30.363C96.3124 42.8222 108.047 14.7617 88.6358 12.8983Z" fill="#769914"/>
<g style="mix-blend-mode:multiply">
<path d="M95.1053 15.1641C98.3221 24.7368 85.674 32.6288 78.4727 25.7598C73.8667 30.327 65.3128 30.5462 60.4876 26.2348C55.0774 31.6058 45.0613 32.1173 39.1394 27.3309C36.6536 31.2404 30.9876 33.0307 26.6741 31.0577C25.285 32.0442 23.4207 32.5558 21.666 32.3365C23.8593 33.7615 27.1127 33.7615 29.3426 32.3365C33.5099 34.5653 39.3221 33.1404 41.9907 29.4136C47.6201 34.5653 57.6363 34.6749 63.412 29.7059C67.9448 34.273 76.4621 34.6384 81.3605 30.3635C91.4497 40.3016 105.999 24.1522 95.1053 15.1641Z" fill="#A3C02D"/>
</g>
<g style="mix-blend-mode:multiply">
<path d="M72.7696 3.54489L66.8842 7.38129C66.8842 7.38129 60.3409 9.17161 58.4766 14.7618C59.427 7.81973 64.8737 2.63146 72.7696 3.54489Z" fill="#A3C02D"/>
</g>
<g style="mix-blend-mode:multiply">
<path d="M95.1792 7.92879L89.2938 11.7287C89.2938 11.7287 82.7139 13.519 80.8496 19.1092C81.8366 12.1671 87.2833 6.97882 95.1792 7.92879Z" fill="#A3C02D"/>
</g>
</g>
<mask id="mask1_3963_69299" style="mask-type:luminance" maskUnits="userSpaceOnUse" x="66" y="36" width="41" height="25">
<path d="M98.1418 42.8622C97.5423 42.8622 96.9598 42.9207 96.3944 43.0376C91.7337 32.471 74.5089 35.5219 73.9313 47.2028C60.4425 47.634 68.9927 67.1558 78.4495 57.5976C82.2184 60.7362 88.5424 60.9225 92.494 57.9922C105.201 67.3677 113.915 44.1337 98.1418 42.8622Z" fill="white"/>
</mask>
<g mask="url(#mask1_3963_69299)">
<path d="M97.5915 48.2665C97.3356 63.8313 74.1596 63.8313 73.8672 48.2665C74.1596 32.6651 97.3356 32.6651 97.5915 48.2665Z" fill="#769914"/>
<path d="M106.768 51.4821C106.731 62.7721 89.5502 62.7721 89.5137 51.4821C89.5502 40.1922 106.731 40.1922 106.768 51.4821Z" fill="#769914"/>
<path d="M79.8265 53.6376C79.9361 62.0412 66.7398 62.0412 66.886 53.6376C66.7398 45.2341 79.9361 45.2341 79.8265 53.6376Z" fill="#769914"/>
<g style="mix-blend-mode:multiply">
<path d="M102.455 39.095L97.337 42.3834C97.337 42.3834 91.6709 43.9545 90.0625 48.7774C90.7936 42.8584 95.7286 38.2182 102.455 39.095Z" fill="#A3C02D"/>
</g>
<g style="mix-blend-mode:multiply">
<path d="M104.464 45.6357C106.365 52.9432 97.4093 58.9718 91.3412 54.697C87.8319 58.1315 81.5444 58.8257 77.3771 56.2315C76.0977 58.643 72.8809 60.0314 70.1758 59.2641C72.8077 60.8717 76.6826 60.0314 78.4372 57.5834C82.2024 60.7256 88.5264 60.9083 92.5109 57.9853C100.334 65.1101 111.849 53.2355 104.464 45.6357Z" fill="#A3C02D"/>
</g>
</g>
<mask id="mask2_3963_69299" style="mask-type:luminance" maskUnits="userSpaceOnUse" x="67" y="66" width="46" height="20">
<path d="M105.187 71.2C104.697 71.2 104.223 71.2487 103.765 71.3461C101.012 64.9485 91.0364 64.152 87.3041 70.0491C82.9724 66.0921 75.1715 68.3756 73.6325 73.9768C62.0555 74.4152 68.7305 91.4964 77.5403 84.0172C80.8814 86.0779 85.82 85.1901 88.2436 82.2086C91.1973 85.5152 97.0168 86.1291 100.618 83.4436C110.897 91.036 117.956 72.2303 105.187 71.2Z" fill="white"/>
</mask>
<g mask="url(#mask2_3963_69299)">
<path d="M104.754 75.5584C104.681 88.0906 85.5991 88.0906 85.5625 75.5584C85.5991 63.0261 104.681 63.0261 104.754 75.5584Z" fill="#769914"/>
<path d="M112.174 78.1895C112.284 87.2142 98.0639 87.2142 98.2101 78.1895C98.0639 69.1282 112.284 69.1282 112.174 78.1895Z" fill="#769914"/>
<path d="M90.3514 76.5816C90.3148 87.7985 73.2801 87.7985 73.207 76.5816C73.2801 65.4012 90.3148 65.4012 90.3514 76.5816Z" fill="#769914"/>
<path d="M79.2386 79.8698C79.3482 87.5792 67.2485 87.5792 67.3582 79.8698C67.2485 72.197 79.3482 72.197 79.2386 79.8698Z" fill="#769914"/>
<g style="mix-blend-mode:multiply">
<path d="M116.123 66.0587L109.873 70.1143C109.873 70.1143 102.927 71.9777 100.953 77.8968C101.977 70.5893 107.752 65.0722 116.123 66.0587Z" fill="#A3C02D"/>
</g>
<g style="mix-blend-mode:multiply">
<path d="M94.2267 60.6514L90.4616 67.0454C90.4616 67.0454 85.1245 71.8683 86.0384 78.0431C83.6257 71.0279 86.2943 63.5013 94.2267 60.6514Z" fill="#A3C02D"/>
</g>
<g style="mix-blend-mode:multiply">
<path d="M111.444 75.1201C110.567 79.7969 104.353 82.1352 100.587 79.1757C97.2244 82.1718 91.3755 82.0622 88.1221 79.0296C86.0019 82.2083 81.1401 83.5237 77.6308 81.7699C74.8892 85.4236 68.492 84.1448 67.3588 79.7238C67.0298 84.9851 74.0484 87.8716 77.5211 84.0352C80.8842 86.0813 85.8192 85.2044 88.2318 82.2083C91.1928 85.5332 97.005 86.1178 100.624 83.4506C105.998 88.4562 114.917 81.6968 111.444 75.1201Z" fill="#A3C02D"/>
</g>
</g>
<mask id="mask3_3963_69299" style="mask-type:luminance" maskUnits="userSpaceOnUse" x="10" y="65" width="41" height="18">
<path d="M44.0574 69.721C43.6212 69.721 43.1983 69.7636 42.7889 69.8489C40.3288 64.1381 31.4203 63.4256 28.0864 68.6906C24.2189 65.1575 17.2515 67.1999 15.877 72.1982C5.5356 72.5928 11.5014 87.8434 19.3644 81.1681C22.351 83.0096 26.7632 82.2167 28.9236 79.5531C31.5665 82.5053 36.761 83.0534 39.9742 80.6529C49.1568 87.4342 55.4626 70.6381 44.0574 69.721Z" fill="white"/>
</mask>
<g mask="url(#mask3_3963_69299)">
<path d="M43.6737 73.6226C43.6005 84.803 26.5659 84.803 26.5293 73.6226C26.5659 62.4057 43.6371 62.4057 43.6737 73.6226Z" fill="#769914"/>
<path d="M50.2902 75.9614C50.3999 84.0361 37.7153 84.0361 37.8249 75.9614C37.7153 67.8501 50.3999 67.8501 50.2902 75.9614Z" fill="#769914"/>
<path d="M30.8074 74.5357C30.7708 84.5469 15.5639 84.5469 15.5273 74.5357C15.5639 64.5245 30.7708 64.5245 30.8074 74.5357Z" fill="#769914"/>
<path d="M20.8631 77.4593C20.9727 84.3283 10.189 84.3283 10.2621 77.4593C10.189 70.6269 20.9727 70.5903 20.8631 77.4593Z" fill="#769914"/>
<g style="mix-blend-mode:multiply">
<path d="M51.2409 65.0372L46.2694 68.2525C46.2694 68.2525 40.7496 69.7505 39.1777 74.4638C39.9088 68.7275 44.6976 64.1969 51.2409 65.0372Z" fill="#A3C02D"/>
</g>
<g style="mix-blend-mode:multiply">
<path d="M33.5101 60.835L30.3664 65.8405C30.3664 65.8405 26.0163 69.5308 26.5647 74.4633C24.81 68.9462 27.2227 62.8445 33.5101 60.835Z" fill="#A3C02D"/>
</g>
<g style="mix-blend-mode:multiply">
<path d="M49.3391 72.6729C49.5949 77.6784 43.3075 80.8572 39.4326 77.7881C36.3986 80.4187 31.2077 80.2726 28.3199 77.5323C26.3825 80.3822 22.0324 81.5148 18.9252 79.9072C17.0974 82.2821 13.0033 82.4283 11.0293 80.1995C12.6012 83.0859 17.1706 83.634 19.3639 81.186C22.3614 83.0129 26.748 82.2091 28.9413 79.5418C31.5733 82.5013 36.7641 83.0494 39.981 80.638C45.0621 85.3512 53.1774 78.4823 49.3391 72.6729Z" fill="#A3C02D"/>
</g>
</g>
<mask id="mask4_3963_69299" style="mask-type:luminance" maskUnits="userSpaceOnUse" x="0" y="37" width="53" height="25">
<path d="M44.6027 45.1128C44.203 45.1176 43.8119 45.1505 43.4293 45.2114C40.5524 33.7716 23.1777 34.5352 21.3463 46.2198C17.3545 43.6841 11.4801 45.7631 9.90823 50.1074C5.98952 47.6192 0.436806 50.7249 0.568404 55.4089C0.356385 61.3535 8.73482 63.8307 11.8457 58.9019C15.5304 62.6835 22.7098 61.1891 24.6034 56.3224C27.9445 59.7897 34.1443 60.568 38.275 57.9446C49.3439 69.4867 60.5407 46.914 44.6027 45.1128Z" fill="white"/>
</mask>
<g mask="url(#mask4_3963_69299)">
<path d="M43.8185 48.1929C43.7453 63.027 21.2274 63.027 21.1543 48.1929C21.2274 33.3953 43.7819 33.3953 43.8185 48.1929Z" fill="#769914"/>
<path d="M25.2871 53.0891C25.2505 63.5388 9.38561 63.5388 9.3125 53.0891C9.38561 42.676 25.2505 42.676 25.2871 53.0891Z" fill="#769914"/>
<path d="M52.5918 53.0891C52.5552 63.5388 36.6537 63.5388 36.6172 53.0891C36.6537 42.676 52.5552 42.676 52.5918 53.0891Z" fill="#769914"/>
<path d="M12.9306 55.4271C13.0402 63.4287 0.465267 63.4287 0.574932 55.4271C0.465267 47.3889 13.0402 47.3889 12.9306 55.4271Z" fill="#769914"/>
<g style="mix-blend-mode:multiply">
<path d="M50.5099 40.9947L45.648 44.1369C45.648 44.1369 40.2379 45.6349 38.666 50.2751C39.3971 44.6119 44.1127 40.1543 50.5099 40.9947Z" fill="#A3C02D"/>
</g>
<g style="mix-blend-mode:multiply">
<path d="M17.2429 41.3604L13.697 45.964C13.697 45.964 9.3104 47.6813 9.12762 54.0022C7.95786 48.4486 10.9188 42.6757 17.2429 41.3604Z" fill="#A3C02D"/>
</g>
<g style="mix-blend-mode:multiply">
<path d="M50.4 47.6084C51.058 54.5505 41.8095 58.7888 36.9477 53.8563C33.3287 57.1081 27.0778 57.3638 23.203 54.4774C22.3257 58.3869 17.9756 61.2368 13.918 60.3233C17.8294 62.2964 23.0202 60.2503 24.5921 56.3043C27.9551 59.7753 34.133 60.5791 38.2637 57.9484C45.0264 66.6077 57.8938 55.6466 50.4 47.6084Z" fill="#A3C02D"/>
</g>
</g>
<path d="M50.9831 133.763C50.9831 133.763 50.5444 127.515 47.291 124.665C47.291 124.665 51.897 128.465 52.226 129.232C52.226 129.232 51.5314 123.277 50.2154 121.705C50.2154 121.705 53.1398 124.263 53.7247 125.651C53.7247 125.651 52.8108 121.34 51.9335 119.915C51.9335 119.915 54.5655 123.569 54.9676 126.09C54.9676 126.09 55.4063 119.221 54.5289 116.554C54.5289 116.554 56.905 124.044 56.905 127.369C56.905 127.369 57.0147 120.975 58.879 118.563C58.879 118.563 58.5134 124.775 58.8059 127.04C58.8059 127.04 59.7198 123.715 59.6832 121.669C59.6832 121.669 60.853 125.871 60.4874 127.917C60.4874 127.917 62.1324 124.153 61.4378 119.002C61.4378 119.002 62.8269 123.021 62.7173 126.382C62.7173 126.382 63.8505 123.423 65.3493 121.742C65.3493 121.742 63.3387 127.223 63.3022 128.976C63.3022 128.976 64.1064 126.821 65.6417 125.871C65.6417 125.871 63.6677 129.524 63.2291 131.132C63.2291 131.132 64.9106 128.867 67.6157 127.99C67.6157 127.99 64.6181 131.717 64.545 133.763H50.9831Z" fill="#769914"/>
<path d="M61.1096 133.726C61.1096 133.726 60.8172 129.378 58.5508 127.368C58.5508 127.368 61.7676 130.036 61.9869 130.584C61.9869 130.584 61.5117 126.418 60.5979 125.286C60.5979 125.286 62.6084 127.113 63.0471 128.063C63.0471 128.063 62.3891 125.066 61.7676 124.08C61.7676 124.08 63.6319 126.601 63.8878 128.391C63.8878 128.391 64.2168 123.568 63.5954 121.705C63.5954 121.705 65.2769 126.93 65.2769 129.268C65.2769 129.268 65.35 124.811 66.666 123.093C66.666 123.093 66.3736 127.441 66.5929 129.049C66.5929 129.049 67.2509 126.711 67.2143 125.286C67.2143 125.286 68.0186 128.245 67.7992 129.67C67.7992 129.67 68.9324 127.039 68.4207 123.422C68.4207 123.422 69.4077 126.236 69.3345 128.574C69.3345 128.574 70.1387 126.528 71.1988 125.359C71.1988 125.359 69.7732 129.195 69.7366 130.401C69.7366 130.401 70.3215 128.903 71.3816 128.209C71.3816 128.209 69.9925 130.803 69.7001 131.899C69.7001 131.899 70.8698 130.328 72.7707 129.707C72.7707 129.707 70.6505 132.301 70.614 133.726H61.1096Z" fill="#769914"/>
<path d="M131.73 40.9367L129.244 147.662H141.125L133.704 38.4521L131.73 40.9367Z" fill="#331C10"/>
<path d="M147.558 39.9502L133.703 59.2053L134.215 63.6628L147.558 39.9502Z" fill="#331C10"/>
<path d="M119.375 40.425L133.229 64.6491L132.242 70.5682L119.375 39.4385V40.425Z" fill="#331C10"/>
<path d="M108.992 65.1611L133.704 94.7928V100.237L116.888 80.4702L96.125 68.5956L116.413 77.9857L108.992 65.1611Z" fill="#331C10"/>
<path d="M158.414 69.1064L135.201 89.348V95.3036L158.414 69.1064Z" fill="#331C10"/>
<path d="M144.086 83.9046L145.183 83.393L170.442 71.2627L146.535 80.6162L144.086 83.9046Z" fill="#331C10"/>
<path d="M135.678 110.101L149.021 99.7248L158.087 90.4443L151.032 100.711L172.489 90.554L152.019 102.209L135.678 116.532L134.691 109.626" fill="#331C10"/>
<path d="M97.1484 92.1987L115.426 107.654L133.228 117.044L133.704 112.586L116.888 105.681L111.953 88.3623L114.439 103.671L97.1484 92.1987Z" fill="#331C10"/>
<path d="M119.375 40.425L120.837 43.0191L119.375 39.4385V40.425Z" fill="#331C10"/>
<path d="M172.489 90.5542L151.031 100.712L158.086 90.4446L149.02 99.725L138.419 107.982L137.396 92.7829L146.169 82.9179L170.442 71.2625L149.093 79.6296L158.415 69.1068L137.067 87.7408L135.276 61.7263L147.558 39.9502L134.983 57.4149L133.704 38.4521L131.73 40.9367L131.254 61.2148L120.836 43.0193C131.072 68.1934 131.912 63.1147 130.56 91.0292L108.992 65.1608L116.413 77.9854L96.125 68.5953L116.888 80.4699L130.45 96.4001L130.121 111.088L116.888 105.681L111.953 88.3619L114.439 103.671L97.1485 92.1983L115.426 107.654L130.012 115.326L129.244 147.662H141.124L138.821 113.792L152.018 102.21L172.489 90.5542Z" fill="#331C10"/>
<g style="mix-blend-mode:multiply">
<path d="M119.375 40.425L120.837 43.0191L119.375 39.4385V40.425Z" fill="#331C10"/>
<path d="M138.822 113.791L152.018 102.209L172.489 90.5537L150.008 102.209L137.177 112.586L134.033 147.661H141.125L138.822 113.791Z" fill="#331C10"/>
<path d="M135.203 89.3485L135.788 109.042L138.346 106.704L137.396 92.783L146.169 82.9179L170.442 71.2626L149.094 79.6296L158.415 69.1069L137.067 87.7408L135.276 61.7264L147.558 39.9502L134.143 61.1418L135.203 89.3485Z" fill="#331C10"/>
</g>
<mask id="mask5_3963_69299" style="mask-type:luminance" maskUnits="userSpaceOnUse" x="93" y="14" width="82" height="35">
<path d="M164.379 27.8089C163.092 27.8089 161.868 28.0537 160.731 28.4848C157.766 22.1164 149.07 19.0034 142.625 22.2954C135.252 9.97144 114.438 13.8955 112.149 28.1341C107.547 26.8626 102.451 29.3361 100.474 33.4429C88.5602 35.1054 94.526 53.078 105.072 47.254C109.247 49.4864 115.041 48.0651 117.738 44.342C123.368 49.4754 133.369 49.6106 139.138 44.6123C143.667 49.2051 152.206 49.5522 157.097 45.3029C172.059 57.7292 183.79 29.6979 164.379 27.8089Z" fill="white"/>
</mask>
<g mask="url(#mask5_3963_69299)">
<path d="M164.372 27.8201C163.093 27.8201 161.85 28.0394 160.717 28.4778C157.756 22.1203 149.056 19.0147 142.622 22.303C135.238 9.99001 114.438 13.8995 112.135 28.149C107.529 26.8702 102.448 29.3547 100.474 33.4469C88.5568 35.0911 94.5153 53.0673 105.08 47.2579C109.247 49.4867 115.059 48.0618 117.728 44.335C123.357 49.4867 133.373 49.5963 139.149 44.6273C143.682 49.1944 152.199 49.5598 157.098 45.2849C172.049 57.7441 183.783 29.6835 164.372 27.8201Z" fill="#769914"/>
<g style="mix-blend-mode:multiply">
<path d="M170.842 30.0859C174.058 39.6587 161.41 47.5507 154.209 40.6817C149.603 45.2489 141.049 45.4681 136.224 41.1567C130.814 46.5277 120.798 47.0392 114.876 42.2528C112.39 46.1623 106.724 47.9526 102.41 45.9796C101.021 46.9661 99.157 47.4776 97.4023 47.2584C99.5957 48.6834 102.849 48.6834 105.079 47.2584C109.246 49.4872 115.058 48.0622 117.727 44.3354C123.356 49.4872 133.373 49.5968 139.148 44.6277C143.681 49.1949 152.198 49.5603 157.097 45.2854C167.186 55.2235 181.735 39.0741 170.842 30.0859Z" fill="#A3C02D"/>
</g>
<g style="mix-blend-mode:multiply">
<path d="M148.506 18.4668L142.621 22.3032C142.621 22.3032 136.077 24.0935 134.213 29.6837C135.163 22.7416 140.61 17.5533 148.506 18.4668Z" fill="#A3C02D"/>
</g>
<g style="mix-blend-mode:multiply">
<path d="M170.916 22.8507L165.03 26.6505C165.03 26.6505 158.45 28.4409 156.586 34.031C157.573 27.089 163.02 21.9007 170.916 22.8507Z" fill="#A3C02D"/>
</g>
</g>
<mask id="mask6_3963_69299" style="mask-type:luminance" maskUnits="userSpaceOnUse" x="142" y="51" width="41" height="25">
<path d="M173.878 57.7841C173.279 57.7841 172.696 57.8425 172.131 57.9595C167.47 47.3929 150.245 50.4438 149.668 62.1247C136.179 62.5558 144.729 82.0776 154.186 72.5195C157.955 75.6581 164.279 75.8444 168.23 72.9141C180.937 82.2896 189.652 59.0556 173.878 57.7841Z" fill="white"/>
</mask>
<g mask="url(#mask6_3963_69299)">
<path d="M173.328 63.1883C173.072 78.7532 149.896 78.7532 149.604 63.1883C149.896 47.587 173.072 47.587 173.328 63.1883Z" fill="#769914"/>
<path d="M182.504 66.404C182.467 77.694 165.287 77.694 165.25 66.404C165.287 55.114 182.467 55.114 182.504 66.404Z" fill="#769914"/>
<path d="M155.563 68.5595C155.672 76.9631 142.476 76.9631 142.622 68.5595C142.476 60.1559 155.672 60.1559 155.563 68.5595Z" fill="#769914"/>
<g style="mix-blend-mode:multiply">
<path d="M178.191 54.0169L173.073 57.3053C173.073 57.3053 167.407 58.8764 165.799 63.6993C166.53 57.7802 171.465 53.14 178.191 54.0169Z" fill="#A3C02D"/>
</g>
<g style="mix-blend-mode:multiply">
<path d="M180.201 60.5576C182.102 67.8651 173.146 73.8937 167.078 69.6188C163.568 73.0533 157.281 73.7475 153.113 71.1534C151.834 73.5649 148.617 74.9533 145.912 74.186C148.544 75.7936 152.419 74.9533 154.174 72.5053C157.939 75.6475 164.263 75.8302 168.247 72.9072C176.07 80.0319 187.585 68.1574 180.201 60.5576Z" fill="#A3C02D"/>
</g>
</g>
<mask id="mask7_3963_69299" style="mask-type:luminance" maskUnits="userSpaceOnUse" x="143" y="80" width="45" height="21">
<path d="M180.923 86.1218C180.433 86.1218 179.959 86.1706 179.501 86.268C176.749 79.8703 166.773 79.0738 163.04 84.9709C158.709 81.0139 150.908 83.2975 149.369 88.8987C137.792 89.3371 144.467 106.418 153.277 98.9391C156.618 101 161.556 100.112 163.98 97.1305C166.934 100.437 172.753 101.051 176.354 98.3655C186.633 105.958 193.692 87.1522 180.923 86.1218Z" fill="white"/>
</mask>
<g mask="url(#mask7_3963_69299)">
<path d="M180.49 90.4802C180.417 103.012 161.335 103.012 161.299 90.4802C161.335 77.948 180.417 77.948 180.49 90.4802Z" fill="#769914"/>
<path d="M187.91 93.1113C188.02 102.136 173.8 102.136 173.946 93.1113C173.8 84.0501 188.02 84.0501 187.91 93.1113Z" fill="#769914"/>
<path d="M166.088 91.5034C166.051 102.72 149.016 102.72 148.943 91.5034C149.016 80.3231 166.051 80.3231 166.088 91.5034Z" fill="#769914"/>
<path d="M154.975 94.7917C155.085 102.501 142.985 102.501 143.094 94.7917C142.985 87.1189 155.085 87.1189 154.975 94.7917Z" fill="#769914"/>
<g style="mix-blend-mode:multiply">
<path d="M191.86 80.9806L185.609 85.0362C185.609 85.0362 178.663 86.8996 176.689 92.8186C177.713 85.5112 183.489 79.9941 191.86 80.9806Z" fill="#A3C02D"/>
</g>
<g style="mix-blend-mode:multiply">
<path d="M169.963 75.5732L166.198 81.9672C166.198 81.9672 160.861 86.7902 161.775 92.9649C159.362 85.9498 162.031 78.4231 169.963 75.5732Z" fill="#A3C02D"/>
</g>
<g style="mix-blend-mode:multiply">
<path d="M187.181 90.042C186.303 94.7188 180.089 97.0571 176.324 94.0976C172.961 97.0937 167.112 96.984 163.858 93.9515C161.738 97.1302 156.876 98.4455 153.367 96.6918C150.626 100.345 144.228 99.0667 143.095 94.6457C142.766 99.907 149.785 102.793 153.257 98.9571C156.621 101.003 161.555 100.126 163.968 97.1302C166.929 100.455 172.741 101.04 176.36 98.3725C181.734 103.378 190.653 96.6187 187.181 90.042Z" fill="#A3C02D"/>
</g>
</g>
<mask id="mask8_3963_69299" style="mask-type:luminance" maskUnits="userSpaceOnUse" x="86" y="80" width="40" height="18">
<path d="M119.794 84.6429C119.357 84.6429 118.935 84.6855 118.525 84.7707C116.065 79.06 107.157 78.3475 103.823 83.6125C99.9552 80.0794 92.9878 82.1218 91.6134 87.1201C81.2719 87.5147 87.2377 102.765 95.1007 96.09C98.0873 97.9314 102.499 97.1386 104.66 94.475C107.303 97.4272 112.497 97.9753 115.71 95.5748C124.893 102.356 131.199 85.56 119.794 84.6429Z" fill="white"/>
</mask>
<g mask="url(#mask8_3963_69299)">
<path d="M119.41 88.5445C119.337 99.7249 102.302 99.7249 102.266 88.5445C102.302 77.3276 119.373 77.3276 119.41 88.5445Z" fill="#769914"/>
<path d="M126.027 90.8832C126.136 98.958 113.452 98.958 113.561 90.8832C113.452 82.772 126.136 82.772 126.027 90.8832Z" fill="#769914"/>
<path d="M106.544 89.4576C106.507 99.4688 91.3002 99.4688 91.2637 89.4576C91.3002 79.4464 106.507 79.4464 106.544 89.4576Z" fill="#769914"/>
<path d="M96.5994 92.3812C96.7091 99.2502 85.9253 99.2502 85.9984 92.3812C85.9253 85.5488 96.7091 85.5122 96.5994 92.3812Z" fill="#769914"/>
<g style="mix-blend-mode:multiply">
<path d="M126.977 79.9591L122.006 83.1744C122.006 83.1744 116.486 84.6724 114.914 89.3857C115.645 83.6494 120.434 79.1187 126.977 79.9591Z" fill="#A3C02D"/>
</g>
<g style="mix-blend-mode:multiply">
<path d="M109.246 75.7568L106.103 80.7624C106.103 80.7624 101.753 84.4527 102.301 89.3852C100.546 83.8681 102.959 77.7664 109.246 75.7568Z" fill="#A3C02D"/>
</g>
<g style="mix-blend-mode:multiply">
<path d="M125.075 87.5947C125.331 92.6003 119.044 95.7791 115.169 92.7099C112.135 95.3406 106.944 95.1945 104.056 92.4542C102.119 95.3041 97.7687 96.4367 94.6615 94.8291C92.8338 97.204 88.7396 97.3502 86.7656 95.1214C88.3375 98.0078 92.9069 98.5559 95.1002 96.1079C98.0977 97.9347 102.484 97.1309 104.678 94.4637C107.31 97.4232 112.5 97.9713 115.717 95.5598C120.798 100.273 128.914 93.4041 125.075 87.5947Z" fill="#A3C02D"/>
</g>
</g>
<mask id="mask9_3963_69299" style="mask-type:luminance" maskUnits="userSpaceOnUse" x="76" y="51" width="53" height="26">
<path d="M120.339 60.0346C119.939 60.0395 119.548 60.0724 119.166 60.1333C116.289 48.6935 98.9141 49.4571 97.0827 61.1417C93.0908 58.606 87.2164 60.685 85.6446 65.0293C81.7259 62.5411 76.1731 65.6467 76.3047 70.3308C76.0927 76.2754 84.4711 78.7526 87.582 73.8238C91.2667 77.6054 98.4462 76.111 100.34 71.2442C103.681 74.7116 109.881 75.4899 114.011 72.8665C125.08 84.4086 136.277 61.8359 120.339 60.0346Z" fill="white"/>
</mask>
<g mask="url(#mask9_3963_69299)">
<path d="M119.555 63.1148C119.482 77.9489 96.9637 77.9489 96.8906 63.1148C96.9637 48.3172 119.518 48.3172 119.555 63.1148Z" fill="#769914"/>
<path d="M101.023 68.011C100.987 78.4606 85.1219 78.4606 85.0488 68.011C85.1219 57.5979 100.987 57.5979 101.023 68.011Z" fill="#769914"/>
<path d="M128.328 68.011C128.292 78.4606 112.39 78.4606 112.354 68.011C112.39 57.5979 128.292 57.5979 128.328 68.011Z" fill="#769914"/>
<path d="M88.6669 70.3489C88.7766 78.3506 76.2016 78.3506 76.3113 70.3489C76.2016 62.3108 88.7766 62.3108 88.6669 70.3489Z" fill="#769914"/>
<g style="mix-blend-mode:multiply">
<path d="M126.246 55.9166L121.384 59.0588C121.384 59.0588 115.974 60.5568 114.402 65.197C115.133 59.5337 119.849 55.0762 126.246 55.9166Z" fill="#A3C02D"/>
</g>
<g style="mix-blend-mode:multiply">
<path d="M92.9792 56.2822L89.4333 60.8859C89.4333 60.8859 85.0467 62.6032 84.864 68.9241C83.6942 63.3704 86.6551 57.5976 92.9792 56.2822Z" fill="#A3C02D"/>
</g>
<g style="mix-blend-mode:multiply">
<path d="M126.136 62.5303C126.794 69.4723 117.546 73.7107 112.684 68.7781C109.065 72.0299 102.814 72.2857 98.9393 69.3993C98.062 73.3087 93.7119 76.1586 89.6543 75.2452C93.5657 77.2182 98.7565 75.1721 100.328 71.2261C103.691 74.6972 109.869 75.501 114 72.8703C120.763 81.5296 133.63 70.5685 126.136 62.5303Z" fill="#A3C02D"/>
</g>
</g>
<path d="M126.719 148.685C126.719 148.685 126.281 142.437 123.027 139.587C123.027 139.587 127.633 143.387 127.962 144.154C127.962 144.154 127.268 138.198 125.952 136.627C125.952 136.627 128.876 139.185 129.461 140.573C129.461 140.573 128.547 136.262 127.67 134.837C127.67 134.837 130.302 138.491 130.704 141.012C130.704 141.012 131.143 134.143 130.265 131.476C130.265 131.476 132.641 138.966 132.641 142.291C132.641 142.291 132.751 135.897 134.615 133.485C134.615 133.485 134.25 139.696 134.542 141.962C134.542 141.962 135.456 138.637 135.42 136.591C135.42 136.591 136.589 140.793 136.224 142.839C136.224 142.839 137.869 139.075 137.174 133.924C137.174 133.924 138.563 137.943 138.454 141.304C138.454 141.304 139.587 138.345 141.086 136.664C141.086 136.664 139.075 142.144 139.039 143.898C139.039 143.898 139.843 141.743 141.378 140.793C141.378 140.793 139.404 144.446 138.965 146.054C138.965 146.054 140.647 143.789 143.352 142.912C143.352 142.912 140.354 146.639 140.281 148.685H126.719Z" fill="#769914"/>
<path d="M136.846 148.648C136.846 148.648 136.554 144.3 134.287 142.29C134.287 142.29 137.504 144.957 137.723 145.505C137.723 145.505 137.248 141.34 136.334 140.208C136.334 140.208 138.345 142.034 138.783 142.984C138.783 142.984 138.125 139.988 137.504 139.002C137.504 139.002 139.368 141.523 139.624 143.313C139.624 143.313 139.953 138.49 139.332 136.627C139.332 136.627 141.013 141.852 141.013 144.19C141.013 144.19 141.086 139.733 142.402 138.015C142.402 138.015 142.11 142.363 142.329 143.971C142.329 143.971 142.987 141.633 142.951 140.208C142.951 140.208 143.755 143.167 143.536 144.592C143.536 144.592 144.669 141.961 144.157 138.344C144.157 138.344 145.144 141.158 145.071 143.496C145.071 143.496 145.875 141.45 146.935 140.281C146.935 140.281 145.51 144.117 145.473 145.323C145.473 145.323 146.058 143.825 147.118 143.131C147.118 143.131 145.729 145.725 145.436 146.821C145.436 146.821 146.606 145.25 148.507 144.629C148.507 144.629 146.387 147.223 146.35 148.648H136.846Z" fill="#769914"/>
<path d="M190.38 68.6486L187.895 175.374H199.775L192.354 66.1641L190.38 68.6486Z" fill="#331C10"/>
<path d="M206.208 67.6621L192.354 86.9172L192.865 91.3747L206.208 67.6621Z" fill="#331C10"/>
<path d="M178.025 68.1369L191.88 92.361L190.893 98.2801L178.025 67.1504V68.1369Z" fill="#331C10"/>
<path d="M167.643 92.873L192.354 122.505V127.949L175.539 108.182L154.775 96.3075L175.063 105.698L167.643 92.873Z" fill="#331C10"/>
<path d="M217.064 96.8184L193.852 117.06V123.016L217.064 96.8184Z" fill="#331C10"/>
<path d="M202.736 111.616L203.833 111.105L229.093 98.9746L205.186 108.328L202.736 111.616Z" fill="#331C10"/>
<path d="M194.329 137.813L207.671 127.437L216.737 118.156L209.682 128.423L231.14 118.266L210.669 129.921L194.329 144.244L193.342 137.338" fill="#331C10"/>
<path d="M155.799 119.911L174.076 135.366L191.879 144.756L192.354 140.298L175.539 133.393L170.604 116.074L173.089 131.383L155.799 119.911Z" fill="#331C10"/>
<path d="M178.025 68.1369L179.488 70.731L178.025 67.1504V68.1369Z" fill="#331C10"/>
<path d="M231.139 118.266L209.681 128.423L216.736 118.156L207.671 127.437L197.07 135.694L196.046 120.495L204.819 110.63L229.092 98.9744L207.744 107.341L217.065 96.8188L195.717 115.453L193.926 89.4382L206.208 67.6621L193.633 85.1269L192.354 66.1641L190.38 68.6486L189.905 88.9267L179.487 70.7312C189.722 95.9053 190.563 90.8267 189.21 118.741L167.643 92.8727L175.063 105.697L154.775 96.3072L175.539 108.182L189.101 124.112L188.772 138.8L175.539 133.392L170.604 116.074L173.09 131.383L155.799 119.91L174.076 135.365L188.662 143.038L187.894 175.374H199.775L197.472 141.504L210.668 129.921L231.139 118.266Z" fill="#331C10"/>
<g style="mix-blend-mode:multiply">
<path d="M178.025 68.1369L179.488 70.731L178.025 67.1504V68.1369Z" fill="#331C10"/>
<path d="M197.472 141.503L210.669 129.921L231.14 118.266L208.658 129.921L195.827 140.298L192.684 175.373H199.775L197.472 141.503Z" fill="#331C10"/>
<path d="M193.853 117.06L194.438 136.754L196.997 134.416L196.046 120.495L204.82 110.63L229.092 98.9745L207.744 107.341L217.066 96.8188L195.717 115.453L193.926 89.4383L206.209 67.6621L192.793 88.8537L193.853 117.06Z" fill="#331C10"/>
</g>
<mask id="mask10_3963_69299" style="mask-type:luminance" maskUnits="userSpaceOnUse" x="152" y="42" width="82" height="35">
<path d="M223.03 55.5208C221.743 55.5208 220.518 55.7656 219.381 56.1967C216.417 49.8283 207.72 46.7153 201.276 50.0073C193.902 37.6834 173.088 41.6074 170.8 55.846C166.197 54.5745 161.102 57.0481 159.124 61.1548C147.211 62.8173 153.176 80.7899 163.723 74.9659C167.897 77.1983 173.691 75.777 176.389 72.0539C182.018 77.1874 192.02 77.3225 197.788 72.3243C202.317 76.917 210.857 77.2641 215.748 73.0148C230.71 85.4411 242.44 57.4098 223.03 55.5208Z" fill="white"/>
</mask>
<g mask="url(#mask10_3963_69299)">
<path d="M223.023 55.5321C221.743 55.5321 220.5 55.7513 219.367 56.1897C216.406 49.8323 207.706 46.7266 201.272 50.015C193.888 37.7019 173.088 41.6114 170.785 55.8609C166.179 54.5821 161.098 57.0666 159.124 61.1588C147.207 62.803 153.166 80.7793 163.73 74.9698C167.897 77.1986 173.71 75.7737 176.378 72.0469C182.008 77.1986 192.024 77.3082 197.8 72.3392C202.332 76.9063 210.85 77.2717 215.748 72.9968C230.699 85.456 242.433 57.3955 223.023 55.5321Z" fill="#769914"/>
<g style="mix-blend-mode:multiply">
<path d="M229.492 57.7979C232.709 67.3706 220.061 75.2626 212.859 68.3936C208.253 72.9608 199.7 73.18 194.874 68.8686C189.464 74.2396 179.448 74.7511 173.526 69.9647C171.04 73.8742 165.374 75.6645 161.061 73.6915C159.672 74.678 157.807 75.1896 156.053 74.9703C158.246 76.3953 161.499 76.3953 163.729 74.9703C167.897 77.1991 173.709 75.7741 176.377 72.0474C182.007 77.1991 192.023 77.3087 197.799 72.3396C202.332 76.9068 210.849 77.2722 215.747 72.9973C225.836 82.9354 240.385 66.786 229.492 57.7979Z" fill="#A3C02D"/>
</g>
<g style="mix-blend-mode:multiply">
<path d="M207.156 46.1787L201.271 50.0151C201.271 50.0151 194.728 51.8054 192.863 57.3956C193.814 50.4535 199.26 45.2652 207.156 46.1787Z" fill="#A3C02D"/>
</g>
<g style="mix-blend-mode:multiply">
<path d="M229.566 50.5626L223.681 54.3624C223.681 54.3624 217.101 56.1528 215.236 61.743C216.223 54.8009 221.67 49.6126 229.566 50.5626Z" fill="#A3C02D"/>
</g>
</g>
<mask id="mask11_3963_69299" style="mask-type:luminance" maskUnits="userSpaceOnUse" x="201" y="79" width="41" height="24">
<path d="M232.529 85.496C231.929 85.496 231.347 85.5544 230.781 85.6714C226.12 75.1048 208.896 78.1557 208.318 89.8366C194.829 90.2677 203.379 109.79 212.836 100.231C216.605 103.37 222.929 103.556 226.881 100.626C239.587 110.001 248.302 86.7675 232.529 85.496Z" fill="white"/>
</mask>
<g mask="url(#mask11_3963_69299)">
<path d="M231.978 90.9003C231.722 106.465 208.546 106.465 208.254 90.9003C208.546 75.2989 231.722 75.2989 231.978 90.9003Z" fill="#769914"/>
<path d="M241.154 94.1159C241.118 105.406 223.937 105.406 223.9 94.1159C223.937 82.8259 241.118 82.8259 241.154 94.1159Z" fill="#769914"/>
<path d="M214.213 96.2714C214.323 104.675 201.126 104.675 201.273 96.2714C201.126 87.8679 214.323 87.8679 214.213 96.2714Z" fill="#769914"/>
<g style="mix-blend-mode:multiply">
<path d="M236.841 81.7288L231.724 85.0172C231.724 85.0172 226.058 86.5883 224.449 91.4112C225.18 85.4922 230.115 80.8519 236.841 81.7288Z" fill="#A3C02D"/>
</g>
<g style="mix-blend-mode:multiply">
<path d="M238.851 88.2695C240.752 95.577 231.796 101.606 225.728 97.3308C222.219 100.765 215.931 101.459 211.764 98.8653C210.484 101.277 207.268 102.665 204.562 101.898C207.194 103.506 211.069 102.665 212.824 100.217C216.589 103.359 222.913 103.542 226.898 100.619C234.72 107.744 246.235 95.8693 238.851 88.2695Z" fill="#A3C02D"/>
</g>
</g>
<mask id="mask12_3963_69299" style="mask-type:luminance" maskUnits="userSpaceOnUse" x="201" y="108" width="46" height="21">
<path d="M239.574 113.834C239.084 113.834 238.61 113.882 238.152 113.98C235.399 107.582 225.423 106.786 221.691 112.683C217.359 108.726 209.558 111.009 208.019 116.611C196.442 117.049 203.117 134.13 211.927 126.651C215.268 128.712 220.207 127.824 222.63 124.842C225.584 128.149 231.404 128.763 235.004 126.077C245.284 133.67 252.342 114.864 239.574 113.834Z" fill="white"/>
</mask>
<g mask="url(#mask12_3963_69299)">
<path d="M239.141 118.192C239.068 130.724 219.986 130.724 219.949 118.192C219.986 105.66 239.068 105.66 239.141 118.192Z" fill="#769914"/>
<path d="M246.561 120.823C246.671 129.848 232.451 129.848 232.597 120.823C232.451 111.762 246.671 111.762 246.561 120.823Z" fill="#769914"/>
<path d="M224.738 119.215C224.702 130.432 207.667 130.432 207.594 119.215C207.667 108.035 224.702 108.035 224.738 119.215Z" fill="#769914"/>
<path d="M213.625 122.504C213.735 130.213 201.635 130.213 201.745 122.504C201.635 114.831 213.735 114.831 213.625 122.504Z" fill="#769914"/>
<g style="mix-blend-mode:multiply">
<path d="M250.51 108.692L244.259 112.748C244.259 112.748 237.314 114.612 235.34 120.531C236.363 113.223 242.139 107.706 250.51 108.692Z" fill="#A3C02D"/>
</g>
<g style="mix-blend-mode:multiply">
<path d="M228.613 103.285L224.848 109.679C224.848 109.679 219.511 114.502 220.425 120.677C218.012 113.662 220.681 106.135 228.613 103.285Z" fill="#A3C02D"/>
</g>
<g style="mix-blend-mode:multiply">
<path d="M245.831 117.754C244.954 122.431 238.739 124.769 234.974 121.81C231.611 124.806 225.762 124.696 222.509 121.663C220.389 124.842 215.527 126.157 212.018 124.404C209.276 128.057 202.879 126.779 201.746 122.358C201.417 127.619 208.435 130.505 211.908 126.669C215.271 128.715 220.206 127.838 222.619 124.842C225.579 128.167 231.392 128.752 235.011 126.084C240.384 131.09 249.304 124.331 245.831 117.754Z" fill="#A3C02D"/>
</g>
</g>
<mask id="mask13_3963_69299" style="mask-type:luminance" maskUnits="userSpaceOnUse" x="144" y="107" width="41" height="19">
<path d="M178.444 112.355C178.008 112.355 177.585 112.397 177.176 112.483C174.715 106.772 165.807 106.059 162.473 111.324C158.606 107.791 151.638 109.834 150.264 114.832C139.922 115.227 145.888 130.477 153.751 123.802C156.738 125.643 161.15 124.85 163.31 122.187C165.953 125.139 171.148 125.687 174.361 123.287C183.544 130.068 189.849 113.272 178.444 112.355Z" fill="white"/>
</mask>
<g mask="url(#mask13_3963_69299)">
<path d="M178.06 116.256C177.987 127.437 160.953 127.437 160.916 116.256C160.953 105.04 178.024 105.04 178.06 116.256Z" fill="#769914"/>
<path d="M184.677 118.595C184.787 126.67 172.102 126.67 172.212 118.595C172.102 110.484 184.787 110.484 184.677 118.595Z" fill="#769914"/>
<path d="M165.194 117.17C165.158 127.181 149.951 127.181 149.914 117.17C149.951 107.158 165.158 107.158 165.194 117.17Z" fill="#769914"/>
<path d="M155.25 120.093C155.359 126.962 144.576 126.962 144.649 120.093C144.576 113.261 155.359 113.224 155.25 120.093Z" fill="#769914"/>
<g style="mix-blend-mode:multiply">
<path d="M185.628 107.671L180.656 110.886C180.656 110.886 175.136 112.384 173.564 117.098C174.296 111.361 179.084 106.831 185.628 107.671Z" fill="#A3C02D"/>
</g>
<g style="mix-blend-mode:multiply">
<path d="M167.897 103.469L164.753 108.474C164.753 108.474 160.403 112.165 160.951 117.097C159.197 111.58 161.609 105.478 167.897 103.469Z" fill="#A3C02D"/>
</g>
<g style="mix-blend-mode:multiply">
<path d="M183.726 115.307C183.982 120.312 177.694 123.491 173.819 120.422C170.785 123.053 165.594 122.906 162.707 120.166C160.769 123.016 156.419 124.149 153.312 122.541C151.484 124.916 147.39 125.062 145.416 122.833C146.988 125.72 151.557 126.268 153.751 123.82C156.748 125.647 161.135 124.843 163.328 122.176C165.96 125.135 171.151 125.683 174.368 123.272C179.449 127.985 187.564 121.116 183.726 115.307Z" fill="#A3C02D"/>
</g>
</g>
<mask id="mask14_3963_69299" style="mask-type:luminance" maskUnits="userSpaceOnUse" x="134" y="79" width="53" height="26">
<path d="M178.989 87.7465C178.59 87.7514 178.199 87.7843 177.816 87.8452C174.939 76.4054 157.564 77.169 155.733 88.8536C151.741 86.3179 145.867 88.3969 144.295 92.7412C140.376 90.253 134.824 93.3586 134.955 98.0427C134.743 103.987 143.122 106.465 146.232 101.536C149.917 105.317 157.097 103.823 158.99 98.9561C162.331 102.424 168.531 103.202 172.662 100.578C183.731 112.12 194.927 89.5478 178.989 87.7465Z" fill="white"/>
</mask>
<g mask="url(#mask14_3963_69299)">
<path d="M178.205 90.8267C178.132 105.661 155.614 105.661 155.541 90.8267C155.614 76.0291 178.169 76.0291 178.205 90.8267Z" fill="#769914"/>
<path d="M159.674 95.7229C159.637 106.173 143.772 106.173 143.699 95.7229C143.772 85.3098 159.637 85.3098 159.674 95.7229Z" fill="#769914"/>
<path d="M186.978 95.7229C186.942 106.173 171.04 106.173 171.004 95.7229C171.04 85.3098 186.942 85.3098 186.978 95.7229Z" fill="#769914"/>
<path d="M147.317 98.0609C147.427 106.063 134.852 106.063 134.962 98.0609C134.852 90.0227 147.427 90.0227 147.317 98.0609Z" fill="#769914"/>
<g style="mix-blend-mode:multiply">
<path d="M184.897 83.6285L180.035 86.7707C180.035 86.7707 174.625 88.2687 173.053 92.9089C173.784 87.2457 178.499 82.7881 184.897 83.6285Z" fill="#A3C02D"/>
</g>
<g style="mix-blend-mode:multiply">
<path d="M151.63 83.9941L148.084 88.5978C148.084 88.5978 143.697 90.3151 143.514 96.636C142.345 91.0824 145.306 85.3095 151.63 83.9941Z" fill="#A3C02D"/>
</g>
<g style="mix-blend-mode:multiply">
<path d="M184.787 90.2422C185.445 97.1843 176.196 101.423 171.334 96.49C167.715 99.7419 161.465 99.9976 157.59 97.1112C156.712 101.021 152.362 103.871 148.305 102.957C152.216 104.93 157.407 102.884 158.979 98.938C162.342 102.409 168.52 103.213 172.65 100.582C179.413 109.242 192.28 98.2804 184.787 90.2422Z" fill="#A3C02D"/>
</g>
</g>
<path d="M185.37 176.397C185.37 176.397 184.931 170.149 181.678 167.299C181.678 167.299 186.284 171.099 186.613 171.866C186.613 171.866 185.918 165.91 184.602 164.339C184.602 164.339 187.527 166.897 188.111 168.285C188.111 168.285 187.198 163.974 186.32 162.549C186.32 162.549 188.952 166.203 189.354 168.724C189.354 168.724 189.793 161.855 188.916 159.188C188.916 159.188 191.292 166.678 191.292 170.003C191.292 170.003 191.401 163.608 193.266 161.197C193.266 161.197 192.9 167.408 193.193 169.674C193.193 169.674 194.106 166.349 194.07 164.303C194.07 164.303 195.24 168.504 194.874 170.551C194.874 170.551 196.519 166.787 195.825 161.635C195.825 161.635 197.214 165.655 197.104 169.016C197.104 169.016 198.237 166.056 199.736 164.376C199.736 164.376 197.725 169.856 197.689 171.61C197.689 171.61 198.493 169.454 200.028 168.504C200.028 168.504 198.054 172.158 197.616 173.766C197.616 173.766 199.297 171.501 202.002 170.624C202.002 170.624 199.005 174.35 198.932 176.397H185.37Z" fill="#769914"/>
<path d="M195.496 176.36C195.496 176.36 195.204 172.012 192.938 170.002C192.938 170.002 196.154 172.669 196.374 173.217C196.374 173.217 195.898 169.052 194.985 167.92C194.985 167.92 196.995 169.746 197.434 170.696C197.434 170.696 196.776 167.7 196.154 166.714C196.154 166.714 198.019 169.235 198.275 171.025C198.275 171.025 198.604 166.202 197.982 164.339C197.982 164.339 199.664 169.564 199.664 171.902C199.664 171.902 199.737 167.445 201.053 165.727C201.053 165.727 200.76 170.075 200.98 171.683C200.98 171.683 201.638 169.344 201.601 167.92C201.601 167.92 202.405 170.879 202.186 172.304C202.186 172.304 203.319 169.673 202.807 166.056C202.807 166.056 203.794 168.869 203.721 171.208C203.721 171.208 204.525 169.162 205.586 167.993C205.586 167.993 204.16 171.829 204.123 173.035C204.123 173.035 204.708 171.537 205.768 170.842C205.768 170.842 204.379 173.437 204.087 174.533C204.087 174.533 205.257 172.962 207.157 172.341C207.157 172.341 205.037 174.935 205.001 176.36H195.496Z" fill="#769914"/>
<path d="M228.769 87.3009L226.283 194.026H238.164L230.743 84.8164L228.769 87.3009Z" fill="#331C10"/>
<path d="M244.597 86.3145L230.742 105.57L231.254 110.027L244.597 86.3145Z" fill="#331C10"/>
<path d="M216.414 86.7892L230.268 111.013L229.281 116.932L216.414 85.8027V86.7892Z" fill="#331C10"/>
<path d="M206.031 111.525L230.743 141.157V146.601L213.927 126.834L193.164 114.96L213.452 124.35L206.031 111.525Z" fill="#331C10"/>
<path d="M255.453 115.471L232.24 135.712V141.668L255.453 115.471Z" fill="#331C10"/>
<path d="M241.125 130.269L242.222 129.757L267.481 117.627L243.574 126.98L241.125 130.269Z" fill="#331C10"/>
<path d="M232.717 156.466L246.06 146.089L255.126 136.809L248.071 147.076L269.528 136.918L249.058 148.574L232.717 162.896L231.73 155.991" fill="#331C10"/>
<path d="M194.188 138.563L212.465 154.018L230.267 163.408L230.743 158.951L213.927 152.045L208.992 134.727L211.478 150.036L194.188 138.563Z" fill="#331C10"/>
<path d="M216.414 86.7892L217.876 89.3834L216.414 85.8027V86.7892Z" fill="#331C10"/>
<path d="M269.528 136.918L248.07 147.076L255.125 136.809L246.059 146.089L235.458 154.347L234.435 139.147L243.208 129.282L267.481 117.627L246.132 125.994L255.454 115.471L234.106 134.105L232.315 108.091L244.597 86.3144L232.022 103.779L230.743 84.8164L228.769 87.3009L228.294 107.579L217.875 89.3836C228.111 114.558 228.952 109.479 227.599 137.393L206.031 111.525L213.452 124.35L193.164 114.96L213.927 126.834L227.489 142.764L227.16 157.452L213.927 152.045L208.992 134.726L211.478 150.035L194.188 138.563L212.465 154.018L227.051 161.691L226.283 194.026H238.163L235.86 160.156L249.057 148.574L269.528 136.918Z" fill="#331C10"/>
<g style="mix-blend-mode:multiply">
<path d="M216.414 86.7892L217.876 89.3834L216.414 85.8027V86.7892Z" fill="#331C10"/>
<path d="M235.861 160.156L249.057 148.573L269.528 136.918L247.047 148.573L234.216 158.95L231.072 194.026H238.164L235.861 160.156Z" fill="#331C10"/>
<path d="M232.242 135.713L232.827 155.406L235.385 153.068L234.435 139.147L243.208 129.282L267.481 117.627L246.133 125.994L255.454 115.471L234.106 134.105L232.315 108.091L244.597 86.3145L231.182 107.506L232.242 135.713Z" fill="#331C10"/>
</g>
<mask id="mask15_3963_69299" style="mask-type:luminance" maskUnits="userSpaceOnUse" x="190" y="61" width="82" height="34">
<path d="M261.418 74.1731C260.131 74.1731 258.907 74.4179 257.77 74.8491C254.805 68.4807 246.109 65.3677 239.664 68.6597C232.291 56.3357 211.477 60.2598 209.188 74.4983C204.586 73.2268 199.49 75.7004 197.513 79.8072C185.599 81.4696 191.565 99.4423 202.111 93.6182C206.286 95.8507 212.08 94.4294 214.778 90.7062C220.407 95.8397 230.409 95.9749 236.177 90.9766C240.706 95.5693 249.245 95.9164 254.136 91.6672C269.098 104.093 280.829 76.0621 261.418 74.1731Z" fill="white"/>
</mask>
<g mask="url(#mask15_3963_69299)">
<path d="M261.411 74.1844C260.132 74.1844 258.889 74.4036 257.756 74.8421C254.795 68.4846 246.095 65.3789 239.661 68.6673C232.277 56.3543 211.477 60.2637 209.174 74.5132C204.568 73.2344 199.487 75.719 197.513 79.8111C185.596 81.4553 191.554 99.4316 202.119 93.6222C206.286 95.851 212.098 94.426 214.767 90.6992C220.396 95.851 230.412 95.9606 236.188 90.9915C240.721 95.5587 249.238 95.924 254.137 91.6492C269.088 104.108 280.822 76.0478 261.411 74.1844Z" fill="#769914"/>
<g style="mix-blend-mode:multiply">
<path d="M267.881 76.4502C271.097 86.0229 258.449 93.915 251.248 87.046C246.642 91.6131 238.088 91.8323 233.263 87.521C227.853 92.8919 217.837 93.4034 211.915 88.6171C209.429 92.5266 203.763 94.3169 199.449 92.3439C198.06 93.3304 196.196 93.8419 194.441 93.6227C196.635 95.0476 199.888 95.0476 202.118 93.6227C206.285 95.8514 212.098 94.4265 214.766 90.6997C220.396 95.8514 230.412 95.961 236.187 90.992C240.72 95.5591 249.238 95.9245 254.136 91.6497C264.225 101.588 278.774 85.4383 267.881 76.4502Z" fill="#A3C02D"/>
</g>
<g style="mix-blend-mode:multiply">
<path d="M245.545 64.831L239.66 68.6674C239.66 68.6674 233.116 70.4577 231.252 76.0479C232.202 69.1059 237.649 63.9176 245.545 64.831Z" fill="#A3C02D"/>
</g>
<g style="mix-blend-mode:multiply">
<path d="M267.955 69.2149L262.069 73.0148C262.069 73.0148 255.489 74.8051 253.625 80.3953C254.612 73.4532 260.059 68.265 267.955 69.2149Z" fill="#A3C02D"/>
</g>
</g>
<mask id="mask16_3963_69299" style="mask-type:luminance" maskUnits="userSpaceOnUse" x="239" y="97" width="41" height="25">
<path d="M270.917 104.148C270.318 104.148 269.735 104.207 269.17 104.324C264.509 93.7572 247.284 96.808 246.707 108.489C233.218 108.92 241.768 128.442 251.225 118.884C254.994 122.022 261.318 122.209 265.269 119.278C277.976 128.654 286.691 105.42 270.917 104.148Z" fill="white"/>
</mask>
<g mask="url(#mask16_3963_69299)">
<path d="M270.369 109.553C270.113 125.117 246.937 125.117 246.645 109.553C246.937 93.9512 270.113 93.9512 270.369 109.553Z" fill="#769914"/>
<path d="M279.543 112.768C279.507 124.058 262.326 124.058 262.289 112.768C262.326 101.478 279.507 101.478 279.543 112.768Z" fill="#769914"/>
<path d="M252.602 114.924C252.712 123.327 239.515 123.327 239.661 114.924C239.515 106.52 252.712 106.52 252.602 114.924Z" fill="#769914"/>
<g style="mix-blend-mode:multiply">
<path d="M275.228 100.381L270.11 103.67C270.11 103.67 264.444 105.241 262.836 110.064C263.567 104.145 268.502 99.5043 275.228 100.381Z" fill="#A3C02D"/>
</g>
<g style="mix-blend-mode:multiply">
<path d="M277.242 106.922C279.143 114.229 270.187 120.258 264.119 115.983C260.609 119.418 254.322 120.112 250.154 117.518C248.875 119.929 245.658 121.318 242.953 120.55C245.585 122.158 249.46 121.318 251.215 118.87C254.98 122.012 261.304 122.194 265.288 119.271C273.111 126.396 284.626 114.522 277.242 106.922Z" fill="#A3C02D"/>
</g>
</g>
<mask id="mask17_3963_69299" style="mask-type:luminance" maskUnits="userSpaceOnUse" x="240" y="127" width="45" height="21">
<path d="M277.96 132.486C277.47 132.486 276.997 132.535 276.538 132.632C273.786 126.235 263.81 125.438 260.078 131.335C255.746 127.378 247.945 129.662 246.406 135.263C234.829 135.701 241.504 152.783 250.314 145.303C253.655 147.364 258.593 146.476 261.017 143.495C263.971 146.801 269.79 147.415 273.391 144.73C283.67 152.322 290.729 133.516 277.96 132.486Z" fill="white"/>
</mask>
<g mask="url(#mask17_3963_69299)">
<path d="M277.527 136.845C277.454 149.377 258.372 149.377 258.336 136.845C258.372 124.312 277.454 124.312 277.527 136.845Z" fill="#769914"/>
<path d="M284.95 139.476C285.059 148.5 270.839 148.5 270.985 139.476C270.839 130.414 285.059 130.414 284.95 139.476Z" fill="#769914"/>
<path d="M263.129 137.868C263.092 149.085 246.057 149.085 245.984 137.868C246.057 126.687 263.092 126.687 263.129 137.868Z" fill="#769914"/>
<path d="M252.014 141.156C252.124 148.865 240.024 148.865 240.134 141.156C240.024 133.483 252.124 133.483 252.014 141.156Z" fill="#769914"/>
<g style="mix-blend-mode:multiply">
<path d="M288.897 127.345L282.646 131.4C282.646 131.4 275.701 133.264 273.727 139.183C274.75 131.875 280.526 126.358 288.897 127.345Z" fill="#A3C02D"/>
</g>
<g style="mix-blend-mode:multiply">
<path d="M266.998 121.938L263.233 128.332C263.233 128.332 257.896 133.154 258.81 139.329C256.397 132.314 259.066 124.787 266.998 121.938Z" fill="#A3C02D"/>
</g>
<g style="mix-blend-mode:multiply">
<path d="M284.218 136.406C283.34 141.083 277.126 143.421 273.361 140.462C269.998 143.458 264.149 143.348 260.896 140.316C258.775 143.494 253.914 144.81 250.404 143.056C247.663 146.71 241.265 145.431 240.132 141.01C239.803 146.271 246.822 149.158 250.295 145.321C253.658 147.367 258.593 146.491 261.005 143.494C263.966 146.819 269.778 147.404 273.397 144.737C278.771 149.742 287.69 142.983 284.218 136.406Z" fill="#A3C02D"/>
</g>
</g>
<mask id="mask18_3963_69299" style="mask-type:luminance" maskUnits="userSpaceOnUse" x="183" y="126" width="40" height="19">
<path d="M216.833 131.007C216.397 131.007 215.974 131.05 215.564 131.135C213.104 125.424 204.196 124.712 200.862 129.977C196.994 126.444 190.027 128.486 188.652 133.484C178.311 133.879 184.277 149.13 192.14 142.454C195.126 144.296 199.539 143.503 201.699 140.839C204.342 143.791 209.536 144.34 212.75 141.939C221.932 148.72 228.238 131.924 216.833 131.007Z" fill="white"/>
</mask>
<g mask="url(#mask18_3963_69299)">
<path d="M216.449 134.909C216.376 146.089 199.341 146.089 199.305 134.909C199.341 123.692 216.412 123.692 216.449 134.909Z" fill="#769914"/>
<path d="M223.066 137.248C223.175 145.322 210.491 145.322 210.6 137.248C210.491 129.136 223.175 129.136 223.066 137.248Z" fill="#769914"/>
<path d="M203.583 135.822C203.546 145.833 188.339 145.833 188.303 135.822C188.339 125.811 203.546 125.811 203.583 135.822Z" fill="#769914"/>
<path d="M193.638 138.745C193.748 145.614 182.964 145.614 183.037 138.745C182.964 131.913 193.748 131.876 193.638 138.745Z" fill="#769914"/>
<g style="mix-blend-mode:multiply">
<path d="M224.016 126.323L219.045 129.539C219.045 129.539 213.525 131.037 211.953 135.75C212.684 130.014 217.473 125.483 224.016 126.323Z" fill="#A3C02D"/>
</g>
<g style="mix-blend-mode:multiply">
<path d="M206.286 122.121L203.142 127.127C203.142 127.127 198.792 130.817 199.34 135.749C197.585 130.232 199.998 124.131 206.286 122.121Z" fill="#A3C02D"/>
</g>
<g style="mix-blend-mode:multiply">
<path d="M222.114 133.959C222.37 138.965 216.083 142.143 212.208 139.074C209.174 141.705 203.983 141.559 201.095 138.818C199.158 141.668 194.808 142.801 191.701 141.193C189.873 143.568 185.779 143.714 183.805 141.486C185.377 144.372 189.946 144.92 192.139 142.472C195.137 144.299 199.523 143.495 201.717 140.828C204.349 143.787 209.539 144.336 212.756 141.924C217.838 146.637 225.953 139.768 222.114 133.959Z" fill="#A3C02D"/>
</g>
</g>
<mask id="mask19_3963_69299" style="mask-type:luminance" maskUnits="userSpaceOnUse" x="173" y="98" width="53" height="25">
<path d="M217.378 106.399C216.978 106.404 216.587 106.437 216.205 106.498C213.328 95.0577 195.953 95.8214 194.122 107.506C190.13 104.97 184.255 107.049 182.684 111.394C178.765 108.905 173.212 112.011 173.344 116.695C173.132 122.64 181.51 125.117 184.621 120.188C188.306 123.97 195.485 122.475 197.379 117.608C200.72 121.076 206.92 121.854 211.05 119.231C222.119 130.773 233.316 108.2 217.378 106.399Z" fill="white"/>
</mask>
<g mask="url(#mask19_3963_69299)">
<path d="M216.594 109.479C216.521 124.313 194.003 124.313 193.93 109.479C194.003 94.6815 216.557 94.6815 216.594 109.479Z" fill="#769914"/>
<path d="M198.062 114.375C198.026 124.825 182.161 124.825 182.088 114.375C182.161 103.962 198.026 103.962 198.062 114.375Z" fill="#769914"/>
<path d="M225.367 114.375C225.331 124.825 209.429 124.825 209.393 114.375C209.429 103.962 225.331 103.962 225.367 114.375Z" fill="#769914"/>
<path d="M185.706 116.713C185.816 124.715 173.241 124.715 173.35 116.713C173.241 108.675 185.816 108.675 185.706 116.713Z" fill="#769914"/>
<g style="mix-blend-mode:multiply">
<path d="M223.285 102.281L218.423 105.423C218.423 105.423 213.013 106.921 211.441 111.561C212.173 105.898 216.888 101.44 223.285 102.281Z" fill="#A3C02D"/>
</g>
<g style="mix-blend-mode:multiply">
<path d="M190.018 102.646L186.472 107.25C186.472 107.25 182.086 108.967 181.903 115.288C180.733 109.735 183.694 103.962 190.018 102.646Z" fill="#A3C02D"/>
</g>
<g style="mix-blend-mode:multiply">
<path d="M223.175 108.895C223.833 115.837 214.585 120.075 209.723 115.142C206.104 118.394 199.853 118.65 195.978 115.764C195.101 119.673 190.751 122.523 186.693 121.609C190.605 123.582 195.796 121.536 197.367 117.59C200.731 121.061 206.908 121.865 211.039 119.235C217.802 127.894 230.669 116.933 223.175 108.895Z" fill="#A3C02D"/>
</g>
</g>
<path d="M223.758 195.049C223.758 195.049 223.32 188.801 220.066 185.951C220.066 185.951 224.672 189.751 225.001 190.518C225.001 190.518 224.307 184.563 222.991 182.992C222.991 182.992 225.915 185.549 226.5 186.938C226.5 186.938 225.586 182.626 224.709 181.201C224.709 181.201 227.341 184.855 227.743 187.376C227.743 187.376 228.182 180.507 227.304 177.84C227.304 177.84 229.68 185.33 229.68 188.655C229.68 188.655 229.79 182.261 231.654 179.849C231.654 179.849 231.289 186.061 231.581 188.326C231.581 188.326 232.495 185.001 232.459 182.955C232.459 182.955 233.628 187.157 233.263 189.203C233.263 189.203 234.908 185.44 234.213 180.288C234.213 180.288 235.602 184.307 235.493 187.668C235.493 187.668 236.626 184.709 238.125 183.028C238.125 183.028 236.114 188.509 236.078 190.262C236.078 190.262 236.882 188.107 238.417 187.157C238.417 187.157 236.443 190.811 236.004 192.418C236.004 192.418 237.686 190.153 240.391 189.276C240.391 189.276 237.394 193.003 237.32 195.049H223.758Z" fill="#769914"/>
<path d="M233.885 195.012C233.885 195.012 233.593 190.664 231.326 188.654C231.326 188.654 234.543 191.322 234.762 191.87C234.762 191.87 234.287 187.705 233.373 186.572C233.373 186.572 235.384 188.399 235.822 189.349C235.822 189.349 235.164 186.353 234.543 185.366C234.543 185.366 236.407 187.887 236.663 189.678C236.663 189.678 236.992 184.855 236.371 182.991C236.371 182.991 238.052 188.216 238.052 190.554C238.052 190.554 238.125 186.097 239.441 184.38C239.441 184.38 239.149 188.728 239.368 190.335C239.368 190.335 240.026 187.997 239.99 186.572C239.99 186.572 240.794 189.531 240.575 190.956C240.575 190.956 241.708 188.326 241.196 184.708C241.196 184.708 242.183 187.522 242.11 189.86C242.11 189.86 242.914 187.814 243.974 186.645C243.974 186.645 242.549 190.481 242.512 191.687C242.512 191.687 243.097 190.189 244.157 189.495C244.157 189.495 242.768 192.089 242.475 193.185C242.475 193.185 243.645 191.614 245.546 190.993C245.546 190.993 243.426 193.587 243.389 195.012H233.885Z" fill="#769914"/>
<path d="M272.49 126.204L270.004 232.929H281.884L274.464 123.72L272.49 126.204Z" fill="#331C10"/>
<path d="M288.319 125.218L274.465 144.473L274.977 148.93L288.319 125.218Z" fill="#331C10"/>
<path d="M260.133 125.693L273.987 149.917L273 155.836L260.133 124.706V125.693Z" fill="#331C10"/>
<path d="M249.752 150.429L274.463 180.06V185.504L257.648 165.738L236.885 153.863L257.173 163.253L249.752 150.429Z" fill="#331C10"/>
<path d="M299.173 154.374L275.961 174.616V180.571L299.173 154.374Z" fill="#331C10"/>
<path d="M284.844 169.172L285.94 168.661L311.2 156.53L287.293 165.884L284.844 169.172Z" fill="#331C10"/>
<path d="M276.436 195.369L289.779 184.992L298.844 175.712L291.789 185.979L313.247 175.822L292.776 187.477L276.436 201.799L275.449 194.894" fill="#331C10"/>
<path d="M237.908 177.466L256.186 192.922L273.988 202.312L274.463 197.854L257.648 190.949L252.713 173.63L255.199 188.939L237.908 177.466Z" fill="#331C10"/>
<path d="M260.133 125.693L261.595 128.287L260.133 124.706V125.693Z" fill="#331C10"/>
<path d="M313.248 175.822L291.791 185.979L298.846 175.712L289.78 184.993L279.179 193.25L278.155 178.051L286.929 168.185L311.201 156.53L289.853 164.897L299.175 154.374L277.826 173.008L276.035 146.994L288.318 125.218L275.743 142.683L274.463 123.72L272.489 126.204L272.014 146.482L261.596 128.287C271.831 153.461 272.672 148.382 271.32 176.297L249.752 150.428L257.173 163.253L236.885 153.863L257.648 165.737L271.21 181.668L270.881 196.356L257.648 190.948L252.713 173.63L255.199 188.939L237.908 177.466L256.186 192.921L270.771 200.594L270.004 232.929H281.884L279.581 199.059L292.778 187.477L313.248 175.822Z" fill="#331C10"/>
<g style="mix-blend-mode:multiply">
<path d="M260.133 125.693L261.595 128.287L260.133 124.706V125.693Z" fill="#331C10"/>
<path d="M279.582 199.059L292.778 187.477L313.249 175.821L290.768 187.477L277.937 197.853L274.793 232.929H281.885L279.582 199.059Z" fill="#331C10"/>
<path d="M275.962 174.616L276.547 194.31L279.106 191.971L278.156 178.051L286.929 168.186L311.202 156.53L289.853 164.897L299.175 154.374L277.827 173.008L276.036 146.994L288.318 125.218L274.902 146.409L275.962 174.616Z" fill="#331C10"/>
</g>
<mask id="mask20_3963_69299" style="mask-type:luminance" maskUnits="userSpaceOnUse" x="234" y="100" width="82" height="34">
<path d="M305.139 113.076C303.852 113.076 302.628 113.321 301.491 113.752C298.526 107.384 289.83 104.271 283.385 107.563C276.012 95.239 255.197 99.1631 252.909 113.402C248.307 112.13 243.211 114.604 241.233 118.71C229.32 120.373 235.286 138.346 245.832 132.522C250.007 134.754 255.8 133.333 258.498 129.61C264.128 134.743 274.129 134.878 279.898 129.88C284.427 134.473 292.966 134.82 297.857 130.57C312.819 142.997 324.55 114.965 305.139 113.076Z" fill="white"/>
</mask>
<g mask="url(#mask20_3963_69299)">
<path d="M305.132 113.088C303.853 113.088 302.61 113.307 301.476 113.745C298.515 107.388 289.815 104.282 283.382 107.571C275.998 95.2576 255.198 99.1671 252.895 113.417C248.289 112.138 243.208 114.622 241.234 118.714C229.317 120.359 235.275 138.335 245.84 132.526C250.007 134.754 255.819 133.329 258.488 129.603C264.117 134.754 274.133 134.864 279.909 129.895C284.442 134.462 292.959 134.827 297.857 130.553C312.808 143.012 324.543 114.951 305.132 113.088Z" fill="#769914"/>
<g style="mix-blend-mode:multiply">
<path d="M311.601 115.354C314.818 124.926 302.17 132.818 294.969 125.949C290.363 130.516 281.809 130.736 276.984 126.424C271.573 131.795 261.557 132.307 255.635 127.52C253.15 131.43 247.484 133.22 243.17 131.247C241.781 132.234 239.917 132.745 238.162 132.526C240.355 133.951 243.609 133.951 245.839 132.526C250.006 134.755 255.818 133.33 258.487 129.603C264.116 134.755 274.132 134.864 279.908 129.895C284.441 134.462 292.958 134.828 297.857 130.553C307.946 140.491 322.495 124.342 311.601 115.354Z" fill="#A3C02D"/>
</g>
<g style="mix-blend-mode:multiply">
<path d="M289.266 103.734L283.38 107.571C283.38 107.571 276.837 109.361 274.973 114.951C275.923 108.009 281.37 102.821 289.266 103.734Z" fill="#A3C02D"/>
</g>
<g style="mix-blend-mode:multiply">
<path d="M311.673 108.118L305.788 111.918C305.788 111.918 299.208 113.708 297.344 119.299C298.331 112.357 303.777 107.168 311.673 108.118Z" fill="#A3C02D"/>
</g>
</g>
<mask id="mask21_3963_69299" style="mask-type:luminance" maskUnits="userSpaceOnUse" x="283" y="136" width="41" height="25">
<path d="M314.636 143.052C314.036 143.052 313.454 143.11 312.889 143.227C308.228 132.66 291.003 135.711 290.425 147.392C276.937 147.823 285.487 167.345 294.944 157.787C298.713 160.926 305.037 161.112 308.988 158.182C321.695 167.557 330.409 144.323 314.636 143.052Z" fill="white"/>
</mask>
<g mask="url(#mask21_3963_69299)">
<path d="M314.088 148.456C313.832 164.021 290.656 164.021 290.363 148.456C290.656 132.855 313.832 132.855 314.088 148.456Z" fill="#769914"/>
<path d="M323.262 151.672C323.225 162.962 306.044 162.962 306.008 151.672C306.044 140.382 323.225 140.382 323.262 151.672Z" fill="#769914"/>
<path d="M296.321 153.827C296.43 162.231 283.234 162.231 283.38 153.827C283.234 145.424 296.43 145.424 296.321 153.827Z" fill="#769914"/>
<g style="mix-blend-mode:multiply">
<path d="M318.947 139.284L313.829 142.573C313.829 142.573 308.163 144.144 306.555 148.967C307.286 143.048 312.221 138.408 318.947 139.284Z" fill="#A3C02D"/>
</g>
<g style="mix-blend-mode:multiply">
<path d="M320.961 145.825C322.861 153.133 313.905 159.161 307.837 154.886C304.328 158.321 298.041 159.015 293.873 156.421C292.594 158.832 289.377 160.221 286.672 159.454C289.304 161.061 293.179 160.221 294.933 157.773C298.698 160.915 305.023 161.098 309.007 158.175C316.83 165.3 328.345 153.425 320.961 145.825Z" fill="#A3C02D"/>
</g>
</g>
<mask id="mask22_3963_69299" style="mask-type:luminance" maskUnits="userSpaceOnUse" x="283" y="166" width="46" height="21">
<path d="M321.683 171.389C321.193 171.389 320.719 171.438 320.261 171.536C317.508 165.138 307.533 164.341 303.8 170.239C299.468 166.282 291.668 168.565 290.129 174.166C278.552 174.605 285.227 191.686 294.036 184.207C297.377 186.267 302.316 185.38 304.74 182.398C307.693 185.705 313.513 186.319 317.114 183.633C327.393 191.225 334.452 172.42 321.683 171.389Z" fill="white"/>
</mask>
<g mask="url(#mask22_3963_69299)">
<path d="M321.25 175.748C321.177 188.28 302.095 188.28 302.059 175.748C302.095 163.216 321.177 163.216 321.25 175.748Z" fill="#769914"/>
<path d="M328.672 178.379C328.782 187.404 314.562 187.404 314.708 178.379C314.562 169.318 328.782 169.318 328.672 178.379Z" fill="#769914"/>
<path d="M306.851 176.771C306.815 187.988 289.78 187.988 289.707 176.771C289.78 165.591 306.815 165.591 306.851 176.771Z" fill="#769914"/>
<path d="M295.737 180.059C295.846 187.769 283.747 187.769 283.856 180.059C283.747 172.386 295.846 172.386 295.737 180.059Z" fill="#769914"/>
<g style="mix-blend-mode:multiply">
<path d="M332.62 166.248L326.369 170.304C326.369 170.304 319.423 172.167 317.449 178.086C318.473 170.779 324.248 165.262 332.62 166.248Z" fill="#A3C02D"/>
</g>
<g style="mix-blend-mode:multiply">
<path d="M310.721 160.841L306.956 167.235C306.956 167.235 301.619 172.058 302.533 178.233C300.12 171.217 302.788 163.691 310.721 160.841Z" fill="#A3C02D"/>
</g>
<g style="mix-blend-mode:multiply">
<path d="M327.94 175.31C327.063 179.986 320.849 182.325 317.084 179.365C313.72 182.361 307.872 182.252 304.618 179.219C302.498 182.398 297.636 183.713 294.127 181.959C291.385 185.613 284.988 184.334 283.855 179.913C283.526 185.175 290.545 188.061 294.017 184.225C297.38 186.271 302.315 185.394 304.728 182.398C307.689 185.723 313.501 186.307 317.12 183.64C322.494 188.646 331.413 181.886 327.94 175.31Z" fill="#A3C02D"/>
</g>
</g>
<mask id="mask23_3963_69299" style="mask-type:luminance" maskUnits="userSpaceOnUse" x="226" y="165" width="41" height="19">
<path d="M260.553 169.91C260.117 169.91 259.694 169.953 259.285 170.038C256.825 164.328 247.916 163.615 244.583 168.88C240.715 165.347 233.748 167.389 232.373 172.388C222.032 172.782 227.997 188.033 235.86 181.358C238.847 183.199 243.259 182.406 245.42 179.743C248.063 182.695 253.257 183.243 256.47 180.842C265.653 187.624 271.959 170.828 260.553 169.91Z" fill="white"/>
</mask>
<g mask="url(#mask23_3963_69299)">
<path d="M260.168 173.812C260.095 184.992 243.06 184.992 243.023 173.812C243.06 162.595 260.131 162.595 260.168 173.812Z" fill="#769914"/>
<path d="M266.786 176.151C266.896 184.226 254.211 184.226 254.321 176.151C254.211 168.04 266.896 168.04 266.786 176.151Z" fill="#769914"/>
<path d="M247.303 174.725C247.267 184.736 232.06 184.736 232.023 174.725C232.06 164.714 247.267 164.714 247.303 174.725Z" fill="#769914"/>
<path d="M237.359 177.649C237.469 184.518 226.685 184.518 226.758 177.649C226.685 170.816 237.469 170.78 237.359 177.649Z" fill="#769914"/>
<g style="mix-blend-mode:multiply">
<path d="M267.735 165.227L262.764 168.442C262.764 168.442 257.244 169.94 255.672 174.653C256.403 168.917 261.192 164.386 267.735 165.227Z" fill="#A3C02D"/>
</g>
<g style="mix-blend-mode:multiply">
<path d="M250.006 161.024L246.862 166.03C246.862 166.03 242.512 169.72 243.061 174.653C241.306 169.136 243.719 163.034 250.006 161.024Z" fill="#A3C02D"/>
</g>
<g style="mix-blend-mode:multiply">
<path d="M265.835 172.862C266.091 177.868 259.804 181.047 255.929 177.978C252.895 180.608 247.704 180.462 244.816 177.722C242.879 180.572 238.528 181.704 235.421 180.097C233.594 182.472 229.499 182.618 227.525 180.389C229.097 183.275 233.667 183.823 235.86 181.375C238.857 183.202 243.244 182.399 245.437 179.731C248.069 182.691 253.26 183.239 256.477 180.827C261.558 185.541 269.673 178.672 265.835 172.862Z" fill="#A3C02D"/>
</g>
</g>
<mask id="mask24_3963_69299" style="mask-type:luminance" maskUnits="userSpaceOnUse" x="217" y="137" width="53" height="25">
<path d="M261.099 145.302C260.699 145.307 260.308 145.34 259.925 145.401C257.048 133.961 239.674 134.725 237.842 146.409C233.851 143.874 227.976 145.953 226.404 150.297C222.486 147.809 216.933 150.914 217.064 155.598C216.852 161.543 225.231 164.02 228.342 159.091C232.027 162.873 239.206 161.379 241.099 156.512C244.441 159.979 250.64 160.757 254.771 158.134C265.84 169.676 277.037 147.103 261.099 145.302Z" fill="white"/>
</mask>
<g mask="url(#mask24_3963_69299)">
<path d="M260.315 148.382C260.241 163.216 237.724 163.216 237.65 148.382C237.724 133.585 260.278 133.585 260.315 148.382Z" fill="#769914"/>
<path d="M241.783 153.279C241.747 163.728 225.882 163.728 225.809 153.279C225.882 142.865 241.747 142.865 241.783 153.279Z" fill="#769914"/>
<path d="M269.088 153.279C269.051 163.728 253.15 163.728 253.113 153.279C253.15 142.865 269.051 142.865 269.088 153.279Z" fill="#769914"/>
<path d="M229.427 155.617C229.536 163.618 216.961 163.618 217.071 155.617C216.961 147.578 229.536 147.578 229.427 155.617Z" fill="#769914"/>
<g style="mix-blend-mode:multiply">
<path d="M267.004 141.184L262.142 144.326C262.142 144.326 256.732 145.824 255.16 150.465C255.891 144.801 260.607 140.344 267.004 141.184Z" fill="#A3C02D"/>
</g>
<g style="mix-blend-mode:multiply">
<path d="M233.739 141.55L230.193 146.153C230.193 146.153 225.806 147.871 225.624 154.192C224.454 148.638 227.415 142.865 233.739 141.55Z" fill="#A3C02D"/>
</g>
<g style="mix-blend-mode:multiply">
<path d="M266.896 147.798C267.554 154.74 258.306 158.978 253.444 154.046C249.825 157.298 243.574 157.553 239.699 154.667C238.822 158.576 234.472 161.426 230.414 160.513C234.325 162.486 239.516 160.44 241.088 156.494C244.451 159.965 250.629 160.769 254.76 158.138C261.522 166.797 274.39 155.836 266.896 147.798Z" fill="#A3C02D"/>
</g>
</g>
<path d="M267.481 233.952C267.481 233.952 267.042 227.704 263.789 224.854C263.789 224.854 268.395 228.654 268.724 229.422C268.724 229.422 268.029 223.466 266.713 221.895C266.713 221.895 269.638 224.453 270.223 225.841C270.223 225.841 269.309 221.53 268.432 220.105C268.432 220.105 271.064 223.758 271.466 226.279C271.466 226.279 271.904 219.41 271.027 216.743C271.027 216.743 273.403 224.233 273.403 227.558C273.403 227.558 273.513 221.164 275.377 218.753C275.377 218.753 275.011 224.964 275.304 227.229C275.304 227.229 276.218 223.904 276.181 221.858C276.181 221.858 277.351 226.06 276.985 228.106C276.985 228.106 278.63 224.343 277.936 219.191C277.936 219.191 279.325 223.21 279.215 226.572C279.215 226.572 280.349 223.612 281.847 221.931C281.847 221.931 279.837 227.412 279.8 229.166C279.8 229.166 280.604 227.01 282.14 226.06C282.14 226.06 280.166 229.714 279.727 231.321C279.727 231.321 281.409 229.056 284.114 228.179C284.114 228.179 281.116 231.906 281.043 233.952H267.481Z" fill="#769914"/>
<path d="M277.606 233.915C277.606 233.915 277.313 229.567 275.047 227.558C275.047 227.558 278.264 230.225 278.483 230.773C278.483 230.773 278.008 226.608 277.094 225.475C277.094 225.475 279.104 227.302 279.543 228.252C279.543 228.252 278.885 225.256 278.264 224.269C278.264 224.269 280.128 226.791 280.384 228.581C280.384 228.581 280.713 223.758 280.091 221.895C280.091 221.895 281.773 227.119 281.773 229.458C281.773 229.458 281.846 225 283.162 223.283C283.162 223.283 282.87 227.631 283.089 229.238C283.089 229.238 283.747 226.9 283.71 225.475C283.71 225.475 284.515 228.435 284.295 229.86C284.295 229.86 285.429 227.229 284.917 223.612C284.917 223.612 285.904 226.425 285.831 228.764C285.831 228.764 286.635 226.717 287.695 225.548C287.695 225.548 286.269 229.385 286.233 230.59C286.233 230.59 286.818 229.092 287.878 228.398C287.878 228.398 286.489 230.992 286.196 232.088C286.196 232.088 287.366 230.517 289.267 229.896C289.267 229.896 287.147 232.49 287.11 233.915H277.606Z" fill="#769914"/>
</svg>
