<svg width="214" height="414" viewBox="0 0 214 414" fill="none" xmlns="http://www.w3.org/2000/svg">
<path d="M130.951 26.7404L128.465 133.465H140.345L132.925 24.2559L130.951 26.7404Z" fill="#331C10"/>
<path d="M146.776 25.7539L132.922 45.009L133.434 49.4665L146.776 25.7539Z" fill="#331C10"/>
<path d="M118.594 26.2287L132.448 50.4528L131.461 56.3719L118.594 25.2422V26.2287Z" fill="#331C10"/>
<path d="M108.211 50.9648L132.922 80.5965V86.0405L116.107 66.2739L95.3438 54.3993L115.632 63.7894L108.211 50.9648Z" fill="#331C10"/>
<path d="M157.634 54.9102L134.422 75.1518V81.1073L157.634 54.9102Z" fill="#331C10"/>
<path d="M143.305 69.7083L144.401 69.1968L169.661 57.0664L145.754 66.4199L143.305 69.7083Z" fill="#331C10"/>
<path d="M134.897 95.9051L148.24 85.5285L157.305 76.248L150.25 86.515L171.708 76.3577L151.237 88.013L134.897 102.336L133.91 95.4301" fill="#331C10"/>
<path d="M96.3672 78.0024L114.645 93.4576L132.447 102.848L132.922 98.3902L116.107 91.4846L111.172 74.166L113.658 89.4751L96.3672 78.0024Z" fill="#331C10"/>
<path d="M118.594 26.2287L120.056 28.8228L118.594 25.2422V26.2287Z" fill="#331C10"/>
<path d="M171.707 76.3579L150.25 86.5152L157.305 76.2483L148.239 85.5287L137.638 93.7861L136.614 78.5867L145.388 68.7216L169.66 57.0662L148.312 65.4333L157.634 54.9106L136.285 73.5445L134.494 47.53L146.777 25.7539L134.202 43.2187L132.922 24.2559L130.948 26.7404L130.473 47.0185L120.055 28.823C130.29 53.9971 131.131 48.9185 129.779 76.8329L108.211 50.9645L115.632 63.7891L95.3438 54.399L116.107 66.2736L129.669 82.2038L129.34 96.8918L116.107 91.4843L111.172 74.1657L113.658 89.4747L96.3673 78.0021L114.645 93.4573L129.23 101.13L128.463 133.465H140.343L138.04 99.5955L151.237 88.0132L171.707 76.3579Z" fill="#331C10"/>
<g style="mix-blend-mode:multiply">
<path d="M118.594 26.2287L120.056 28.8228L118.594 25.2422V26.2287Z" fill="#331C10"/>
<path d="M138.043 99.5951L151.239 88.0128L171.71 76.3574L149.228 88.0128L136.398 98.3893L133.254 133.465H140.346L138.043 99.5951Z" fill="#331C10"/>
<path d="M134.423 75.1522L135.008 94.8457L137.567 92.5073L136.617 78.5867L145.39 68.7216L169.663 57.0663L148.314 65.4333L157.636 54.9106L136.288 73.5445L134.496 47.5301L146.779 25.7539L133.363 46.9455L134.423 75.1522Z" fill="#331C10"/>
</g>
<mask id="mask0_3963_85652" style="mask-type:luminance" maskUnits="userSpaceOnUse" x="93" y="0" width="81" height="35">
<path d="M163.6 13.6126C162.313 13.6126 161.089 13.8574 159.952 14.2885C156.987 7.92011 148.291 4.80714 141.846 8.09914C134.473 -4.22485 113.658 -0.300761 111.37 13.9378C106.768 12.6663 101.672 15.1399 99.6942 19.2466C87.7809 20.9091 93.7467 38.8817 104.293 33.0577C108.467 35.2901 114.261 33.8688 116.959 30.1457C122.589 35.2791 132.59 35.4143 138.359 30.4161C142.888 35.0088 151.427 35.3559 156.318 31.1066C171.28 43.5329 183.011 15.5016 163.6 13.6126Z" fill="white"/>
</mask>
<g mask="url(#mask0_3963_85652)">
<path d="M163.593 13.6239C162.313 13.6239 161.071 13.8431 159.937 14.2815C156.976 7.92406 148.276 4.8184 141.843 8.10675C134.458 -4.20628 113.659 -0.296804 111.356 13.9527C106.75 12.6739 101.668 15.1584 99.6945 19.2506C87.7775 20.8948 93.736 38.8711 104.3 33.0616C108.468 35.2904 114.28 33.8655 116.949 30.1387C122.578 35.2904 132.594 35.4 138.37 30.431C142.903 34.9981 151.42 35.3635 156.318 31.0886C171.269 43.5478 183.004 15.4873 163.593 13.6239Z" fill="#769914"/>
<g style="mix-blend-mode:multiply">
<path d="M170.064 15.8896C173.281 25.4624 160.633 33.3544 153.432 26.4854C148.826 31.0526 140.272 31.2718 135.447 26.9604C130.036 32.3314 120.02 32.8429 114.098 28.0565C111.613 31.966 105.947 33.7563 101.633 31.7833C100.244 32.7698 98.3796 33.2813 96.625 33.0621C98.8183 34.4871 102.072 34.4871 104.302 33.0621C108.469 35.2909 114.281 33.8659 116.95 30.1391C122.579 35.2909 132.595 35.4005 138.371 30.4314C142.904 34.9986 151.421 35.364 156.32 31.0891C166.409 41.0272 180.958 24.8778 170.064 15.8896Z" fill="#A3C02D"/>
</g>
<g style="mix-blend-mode:multiply">
<path d="M147.727 4.27047L141.841 8.10688C141.841 8.10688 135.298 9.8972 133.434 15.4874C134.384 8.54532 139.831 3.35704 147.727 4.27047Z" fill="#A3C02D"/>
</g>
<g style="mix-blend-mode:multiply">
<path d="M170.134 8.65438L164.249 12.4542C164.249 12.4542 157.669 14.2446 155.805 19.8348C156.792 12.8927 162.238 7.70441 170.134 8.65438Z" fill="#A3C02D"/>
</g>
</g>
<mask id="mask1_3963_85652" style="mask-type:luminance" maskUnits="userSpaceOnUse" x="141" y="37" width="41" height="24">
<path d="M173.097 43.5878C172.497 43.5878 171.915 43.6462 171.35 43.7632C166.689 33.1966 149.464 36.2475 148.886 47.9284C135.398 48.3595 143.948 67.8814 153.405 58.3232C157.173 61.4618 163.497 61.6481 167.449 58.7178C180.156 68.0933 188.87 44.8593 173.097 43.5878Z" fill="white"/>
</mask>
<g mask="url(#mask1_3963_85652)">
<path d="M172.548 48.992C172.293 64.5569 149.117 64.5569 148.824 48.992C149.117 33.3907 172.293 33.3907 172.548 48.992Z" fill="#769914"/>
<path d="M181.723 52.2077C181.686 63.4977 164.505 63.4977 164.469 52.2077C164.505 40.9177 181.686 40.9177 181.723 52.2077Z" fill="#769914"/>
<path d="M154.782 54.3632C154.891 62.7668 141.695 62.7668 141.841 54.3632C141.695 45.9597 154.891 45.9597 154.782 54.3632Z" fill="#769914"/>
<g style="mix-blend-mode:multiply">
<path d="M177.408 39.8206L172.29 43.109C172.29 43.109 166.624 44.6801 165.016 49.503C165.747 43.584 170.682 38.9437 177.408 39.8206Z" fill="#A3C02D"/>
</g>
<g style="mix-blend-mode:multiply">
<path d="M179.422 46.3613C181.322 53.6688 172.366 59.6974 166.298 55.4225C162.789 58.857 156.501 59.5512 152.334 56.9571C151.055 59.3686 147.838 60.757 145.133 59.9897C147.765 61.5973 151.64 60.757 153.394 58.309C157.159 61.4512 163.483 61.6339 167.468 58.7109C175.291 65.8356 186.806 53.9611 179.422 46.3613Z" fill="#A3C02D"/>
</g>
</g>
<mask id="mask2_3963_85652" style="mask-type:luminance" maskUnits="userSpaceOnUse" x="142" y="66" width="46" height="21">
<path d="M180.14 71.9256C179.65 71.9256 179.176 71.9743 178.718 72.0717C175.965 65.674 165.99 64.8775 162.257 70.7746C157.925 66.8177 150.125 69.1012 148.586 74.7024C137.009 75.1408 143.684 92.222 152.493 84.7428C155.835 86.8035 160.773 85.9156 163.197 82.9342C166.15 86.2408 171.97 86.8547 175.571 84.1692C185.85 91.7616 192.909 72.9559 180.14 71.9256Z" fill="white"/>
</mask>
<g mask="url(#mask2_3963_85652)">
<path d="M179.707 76.284C179.634 88.8162 160.552 88.8162 160.516 76.284C160.552 63.7517 179.634 63.7517 179.707 76.284Z" fill="#769914"/>
<path d="M187.129 78.9151C187.239 87.9397 173.019 87.9397 173.165 78.9151C173.019 69.8538 187.239 69.8538 187.129 78.9151Z" fill="#769914"/>
<path d="M165.308 77.3072C165.272 88.5241 148.237 88.5241 148.164 77.3072C148.237 66.1268 165.272 66.1268 165.308 77.3072Z" fill="#769914"/>
<path d="M154.194 80.5954C154.303 88.3048 142.204 88.3048 142.313 80.5954C142.204 72.9226 154.303 72.9226 154.194 80.5954Z" fill="#769914"/>
<g style="mix-blend-mode:multiply">
<path d="M191.077 66.7843L184.826 70.8399C184.826 70.8399 177.88 72.7033 175.906 78.6223C176.93 71.3149 182.706 65.7978 191.077 66.7843Z" fill="#A3C02D"/>
</g>
<g style="mix-blend-mode:multiply">
<path d="M169.178 61.377L165.413 67.771C165.413 67.771 160.076 72.5939 160.99 78.7687C158.577 71.7535 161.245 64.2269 169.178 61.377Z" fill="#A3C02D"/>
</g>
<g style="mix-blend-mode:multiply">
<path d="M186.397 75.8457C185.52 80.5225 179.306 82.8608 175.541 79.9013C172.177 82.8974 166.329 82.7878 163.075 79.7552C160.955 82.9339 156.093 84.2492 152.584 82.4955C149.842 86.1492 143.445 84.8704 142.312 80.4494C141.983 85.7107 149.002 88.5972 152.474 84.7608C155.837 86.8069 160.772 85.93 163.185 82.9339C166.146 86.2588 171.958 86.8434 175.577 84.1762C180.951 89.1818 189.87 82.4224 186.397 75.8457Z" fill="#A3C02D"/>
</g>
</g>
<mask id="mask3_3963_85652" style="mask-type:luminance" maskUnits="userSpaceOnUse" x="85" y="65" width="41" height="19">
<path d="M119.012 70.4466C118.576 70.4466 118.153 70.4892 117.744 70.5744C115.284 64.8637 106.375 64.1512 103.042 69.4162C99.174 65.8831 92.2066 67.9255 90.8321 72.9238C80.4907 73.3184 86.4565 88.569 94.3195 81.8937C97.306 83.7351 101.718 82.9423 103.879 80.2787C106.522 83.2309 111.716 83.779 114.929 81.3785C124.112 88.1598 130.418 71.3637 119.012 70.4466Z" fill="white"/>
</mask>
<g mask="url(#mask3_3963_85652)">
<path d="M118.625 74.3482C118.552 85.5286 101.517 85.5286 101.48 74.3482C101.517 63.1313 118.588 63.1313 118.625 74.3482Z" fill="#769914"/>
<path d="M125.243 76.687C125.353 84.7617 112.668 84.7617 112.778 76.687C112.668 68.5757 125.353 68.5757 125.243 76.687Z" fill="#769914"/>
<path d="M105.761 75.2613C105.724 85.2725 90.517 85.2725 90.4805 75.2613C90.517 65.2501 105.724 65.2501 105.761 75.2613Z" fill="#769914"/>
<path d="M95.8162 78.1849C95.9259 85.0539 85.1421 85.0539 85.2152 78.1849C85.1421 71.3525 95.9259 71.3159 95.8162 78.1849Z" fill="#769914"/>
<g style="mix-blend-mode:multiply">
<path d="M126.192 65.7628L121.221 68.9781C121.221 68.9781 115.701 70.4761 114.129 75.1894C114.86 69.4531 119.649 64.9225 126.192 65.7628Z" fill="#A3C02D"/>
</g>
<g style="mix-blend-mode:multiply">
<path d="M108.463 61.5605L105.32 66.5661C105.32 66.5661 100.969 70.2564 101.518 75.1889C99.7631 69.6718 102.176 63.5701 108.463 61.5605Z" fill="#A3C02D"/>
</g>
<g style="mix-blend-mode:multiply">
<path d="M124.294 73.3984C124.55 78.404 118.263 81.5828 114.388 78.5136C111.354 81.1443 106.163 80.9982 103.275 78.2579C101.338 81.1078 96.9875 82.2404 93.8803 80.6328C92.0525 83.0077 87.9584 83.1539 85.9844 80.9251C87.5562 83.8115 92.1256 84.3596 94.3189 81.9116C97.3165 83.7385 101.703 82.9346 103.896 80.2674C106.528 83.2269 111.719 83.775 114.936 81.3635C120.017 86.0768 128.132 79.2078 124.294 73.3984Z" fill="#A3C02D"/>
</g>
</g>
<mask id="mask4_3963_85652" style="mask-type:luminance" maskUnits="userSpaceOnUse" x="75" y="37" width="53" height="26">
<path d="M119.558 45.8383C119.158 45.8432 118.767 45.8761 118.384 45.937C115.507 34.4972 98.1328 35.2608 96.3014 46.9454C92.3096 44.4097 86.4352 46.4887 84.8633 50.833C80.9446 48.3448 75.3919 51.4504 75.5235 56.1345C75.3115 62.0791 83.6899 64.5563 86.8007 59.6275C90.4855 63.4091 97.6649 61.9147 99.5585 57.0479C102.9 60.5153 109.099 61.2936 113.23 58.6702C124.299 70.2123 135.496 47.6396 119.558 45.8383Z" fill="white"/>
</mask>
<g mask="url(#mask4_3963_85652)">
<path d="M118.774 48.9185C118.7 63.7526 96.1825 63.7526 96.1094 48.9185C96.1825 34.1209 118.737 34.1209 118.774 48.9185Z" fill="#769914"/>
<path d="M100.24 53.8147C100.204 64.2643 84.3387 64.2643 84.2656 53.8147C84.3387 43.4016 100.204 43.4016 100.24 53.8147Z" fill="#769914"/>
<path d="M127.545 53.8147C127.508 64.2643 111.607 64.2643 111.57 53.8147C111.607 43.4016 127.508 43.4016 127.545 53.8147Z" fill="#769914"/>
<path d="M87.8837 56.1527C87.9934 64.1543 75.4184 64.1543 75.5281 56.1527C75.4184 48.1145 87.9934 48.1145 87.8837 56.1527Z" fill="#769914"/>
<g style="mix-blend-mode:multiply">
<path d="M125.461 41.7203L120.599 44.8625C120.599 44.8625 115.189 46.3605 113.617 51.0007C114.348 45.3375 119.064 40.8799 125.461 41.7203Z" fill="#A3C02D"/>
</g>
<g style="mix-blend-mode:multiply">
<path d="M92.1979 42.0859L88.6521 46.6896C88.6521 46.6896 84.2655 48.4069 84.0827 54.7278C82.9129 49.1741 85.8739 43.4013 92.1979 42.0859Z" fill="#A3C02D"/>
</g>
<g style="mix-blend-mode:multiply">
<path d="M125.353 48.334C126.011 55.276 116.763 59.5144 111.901 54.5818C108.282 57.8337 102.031 58.0894 98.1561 55.203C97.2788 59.1125 92.9287 61.9624 88.8711 61.0489C92.7825 63.0219 97.9733 60.9759 99.5452 57.0298C102.908 60.5009 109.086 61.3047 113.217 58.674C119.98 67.3333 132.847 56.3722 125.353 48.334Z" fill="#A3C02D"/>
</g>
</g>
<path d="M125.938 134.488C125.938 134.488 125.499 128.24 122.246 125.391C122.246 125.391 126.852 129.19 127.181 129.958C127.181 129.958 126.486 124.002 125.171 122.431C125.171 122.431 128.095 124.989 128.68 126.377C128.68 126.377 127.766 122.066 126.889 120.641C126.889 120.641 129.521 124.294 129.923 126.816C129.923 126.816 130.361 119.947 129.484 117.279C129.484 117.279 131.86 124.769 131.86 128.094C131.86 128.094 131.97 121.7 133.834 119.289C133.834 119.289 133.469 125.5 133.761 127.765C133.761 127.765 134.675 124.441 134.638 122.395C134.638 122.395 135.808 126.596 135.443 128.642C135.443 128.642 137.087 124.879 136.393 119.727C136.393 119.727 137.782 123.746 137.672 127.108C137.672 127.108 138.806 124.148 140.304 122.468C140.304 122.468 138.294 127.948 138.257 129.702C138.257 129.702 139.061 127.546 140.597 126.596C140.597 126.596 138.623 130.25 138.184 131.858C138.184 131.858 139.866 129.592 142.571 128.715C142.571 128.715 139.573 132.442 139.5 134.488H125.938Z" fill="#769914"/>
<path d="M136.063 134.451C136.063 134.451 135.77 130.103 133.504 128.094C133.504 128.094 136.721 130.761 136.94 131.309C136.94 131.309 136.465 127.144 135.551 126.011C135.551 126.011 137.562 127.838 138 128.788C138 128.788 137.342 125.792 136.721 124.806C136.721 124.806 138.585 127.327 138.841 129.117C138.841 129.117 139.17 124.294 138.549 122.431C138.549 122.431 140.23 127.655 140.23 129.994C140.23 129.994 140.303 125.536 141.619 123.819C141.619 123.819 141.327 128.167 141.546 129.775C141.546 129.775 142.204 127.436 142.167 126.011C142.167 126.011 142.972 128.971 142.752 130.396C142.752 130.396 143.886 127.765 143.374 124.148C143.374 124.148 144.361 126.961 144.288 129.3C144.288 129.3 145.092 127.254 146.152 126.084C146.152 126.084 144.726 129.921 144.69 131.127C144.69 131.127 145.275 129.628 146.335 128.934C146.335 128.934 144.946 131.528 144.653 132.625C144.653 132.625 145.823 131.053 147.724 130.432C147.724 130.432 145.604 133.026 145.567 134.451H136.063Z" fill="#769914"/>
<path d="M120.287 76.3019L117.801 183.027H129.681L122.261 73.8174L120.287 76.3019Z" fill="#331C10"/>
<path d="M136.112 75.3154L122.258 94.5705L122.77 99.0281L136.112 75.3154Z" fill="#331C10"/>
<path d="M107.93 75.7902L121.784 100.014L120.797 105.933L107.93 74.8037V75.7902Z" fill="#331C10"/>
<path d="M97.5471 100.526L122.258 130.158V135.602L105.443 115.835L84.6797 103.961L104.968 113.351L97.5471 100.526Z" fill="#331C10"/>
<path d="M146.97 104.472L123.758 124.713V130.669L146.97 104.472Z" fill="#331C10"/>
<path d="M132.641 119.27L133.737 118.758L158.997 106.628L135.09 115.981L132.641 119.27Z" fill="#331C10"/>
<path d="M124.233 145.467L137.576 135.09L146.641 125.81L139.586 136.077L161.044 125.919L140.573 137.575L124.233 151.897L123.246 144.992" fill="#331C10"/>
<path d="M85.7031 127.564L103.981 143.019L121.783 152.409L122.258 147.952L105.443 141.046L100.508 123.728L102.994 139.037L85.7031 127.564Z" fill="#331C10"/>
<path d="M107.93 75.7902L109.392 78.3844L107.93 74.8037V75.7902Z" fill="#331C10"/>
<path d="M161.043 125.919L139.585 136.077L146.641 125.81L137.575 135.09L126.974 143.348L125.95 128.148L134.724 118.283L158.996 106.628L137.648 114.995L146.97 104.472L125.621 123.106L123.83 97.0916L136.113 75.3154L123.538 92.7802L122.258 73.8174L120.284 76.3019L119.809 96.58L109.391 78.3845C119.626 103.559 120.467 98.48 119.115 126.394L97.5471 100.526L104.968 113.351L84.6797 103.961L105.443 115.835L119.005 131.765L118.676 146.453L105.443 141.046L100.508 123.727L102.994 139.036L85.7032 127.564L103.981 143.019L118.566 150.692L117.799 183.027H129.679L127.376 149.157L140.572 137.575L161.043 125.919Z" fill="#331C10"/>
<g style="mix-blend-mode:multiply">
<path d="M107.93 75.7902L109.392 78.3844L107.93 74.8037V75.7902Z" fill="#331C10"/>
<path d="M127.379 149.157L140.575 137.574L161.046 125.919L138.564 137.574L125.734 147.951L122.59 183.027H129.682L127.379 149.157Z" fill="#331C10"/>
<path d="M123.759 124.714L124.344 144.407L126.903 142.069L125.953 128.148L134.726 118.283L158.998 106.628L137.65 114.995L146.972 104.472L125.624 123.106L123.832 97.0916L136.115 75.3154L122.699 96.507L123.759 124.714Z" fill="#331C10"/>
</g>
<mask id="mask5_3963_85652" style="mask-type:luminance" maskUnits="userSpaceOnUse" x="82" y="50" width="82" height="34">
<path d="M152.936 63.1741C151.649 63.1741 150.424 63.4189 149.288 63.8501C146.323 57.4816 137.627 54.3687 131.182 57.6607C123.809 45.3367 102.994 49.2608 100.706 63.4993C96.1036 62.2278 91.0078 64.7014 89.0301 68.8082C77.1168 70.4706 83.0826 88.4432 93.6288 82.6192C97.8034 84.8516 103.597 83.4303 106.295 79.7072C111.925 84.8407 121.926 84.9759 127.694 79.9776C132.224 84.5703 140.763 84.9174 145.654 80.6681C160.616 93.0944 172.347 65.0631 152.936 63.1741Z" fill="white"/>
</mask>
<g mask="url(#mask5_3963_85652)">
<path d="M152.929 63.1854C151.649 63.1854 150.407 63.4046 149.273 63.8431C146.312 57.4856 137.612 54.3799 131.179 57.6683C123.794 45.3552 102.995 49.2647 100.692 63.5142C96.0856 62.2354 91.0044 64.7199 89.0305 68.8121C77.1135 70.4563 83.072 88.4326 93.6364 82.6232C97.8037 84.8519 103.616 83.427 106.284 79.7002C111.914 84.8519 121.93 84.9615 127.706 79.9925C132.239 84.5596 140.756 84.925 145.654 80.6502C160.605 93.1093 172.34 65.0488 152.929 63.1854Z" fill="#769914"/>
<g style="mix-blend-mode:multiply">
<path d="M159.4 65.4512C162.617 75.0239 149.969 82.9159 142.768 76.047C138.162 80.6141 129.608 80.8333 124.782 76.5219C119.372 81.8929 109.356 82.4044 103.434 77.618C100.949 81.5275 95.2825 83.3179 90.969 81.3448C89.5799 82.3314 87.7156 82.8429 85.9609 82.6236C88.1542 84.0486 91.4077 84.0486 93.6375 82.6236C97.8048 84.8524 103.617 83.4275 106.286 79.7007C111.915 84.8524 121.931 84.962 127.707 79.993C132.24 84.5601 140.757 84.9255 145.655 80.6506C155.745 90.5888 170.294 74.4393 159.4 65.4512Z" fill="#A3C02D"/>
</g>
<g style="mix-blend-mode:multiply">
<path d="M137.063 53.832L131.177 57.6684C131.177 57.6684 124.634 59.4587 122.77 65.0489C123.72 58.1068 129.167 52.9186 137.063 53.832Z" fill="#A3C02D"/>
</g>
<g style="mix-blend-mode:multiply">
<path d="M159.47 58.2159L153.585 62.0158C153.585 62.0158 147.005 63.8061 145.141 69.3963C146.128 62.4542 151.574 57.2659 159.47 58.2159Z" fill="#A3C02D"/>
</g>
</g>
<mask id="mask6_3963_85652" style="mask-type:luminance" maskUnits="userSpaceOnUse" x="131" y="86" width="40" height="25">
<path d="M162.433 93.1493C161.833 93.1493 161.251 93.2078 160.685 93.3247C156.025 82.7581 138.8 85.809 138.222 97.4899C124.733 97.9211 133.284 117.443 142.741 107.885C146.509 111.023 152.833 111.21 156.785 108.279C169.492 117.655 178.206 94.4208 162.433 93.1493Z" fill="white"/>
</mask>
<g mask="url(#mask6_3963_85652)">
<path d="M161.884 98.5536C161.629 114.118 138.453 114.118 138.16 98.5536C138.453 82.9522 161.629 82.9522 161.884 98.5536Z" fill="#769914"/>
<path d="M171.059 101.769C171.022 113.059 153.841 113.059 153.805 101.769C153.841 90.4793 171.022 90.4793 171.059 101.769Z" fill="#769914"/>
<path d="M144.117 103.925C144.227 112.328 131.031 112.328 131.177 103.925C131.031 95.5212 144.227 95.5212 144.117 103.925Z" fill="#769914"/>
<g style="mix-blend-mode:multiply">
<path d="M166.744 89.3822L161.626 92.6705C161.626 92.6705 155.96 94.2416 154.352 99.0645C155.083 93.1455 160.018 88.5053 166.744 89.3822Z" fill="#A3C02D"/>
</g>
<g style="mix-blend-mode:multiply">
<path d="M168.757 95.9229C170.658 103.23 161.702 109.259 155.634 104.984C152.125 108.419 145.837 109.113 141.67 106.519C140.391 108.93 137.174 110.318 134.469 109.551C137.101 111.159 140.976 110.319 142.73 107.871C146.495 111.013 152.819 111.195 156.804 108.272C164.627 115.397 176.142 103.523 168.757 95.9229Z" fill="#A3C02D"/>
</g>
</g>
<mask id="mask7_3963_85652" style="mask-type:luminance" maskUnits="userSpaceOnUse" x="131" y="116" width="46" height="21">
<path d="M169.476 121.487C168.986 121.487 168.512 121.536 168.054 121.633C165.301 115.236 155.325 114.439 151.593 120.336C147.261 116.379 139.461 118.663 137.922 124.264C126.345 124.702 133.02 141.783 141.829 134.304C145.17 136.365 150.109 135.477 152.533 132.496C155.486 135.802 161.306 136.416 164.907 133.731C175.186 141.323 182.245 122.517 169.476 121.487Z" fill="white"/>
</mask>
<g mask="url(#mask7_3963_85652)">
<path d="M169.043 125.845C168.97 138.378 149.888 138.378 149.852 125.845C149.888 113.313 168.97 113.313 169.043 125.845Z" fill="#769914"/>
<path d="M176.465 128.477C176.575 137.501 162.355 137.501 162.501 128.477C162.355 119.415 176.575 119.415 176.465 128.477Z" fill="#769914"/>
<path d="M154.644 126.869C154.608 138.086 137.573 138.086 137.5 126.869C137.573 115.688 154.608 115.688 154.644 126.869Z" fill="#769914"/>
<path d="M143.53 130.157C143.639 137.866 131.54 137.866 131.649 130.157C131.54 122.484 143.639 122.484 143.53 130.157Z" fill="#769914"/>
<g style="mix-blend-mode:multiply">
<path d="M180.413 116.346L174.162 120.401C174.162 120.401 167.216 122.265 165.242 128.184C166.266 120.876 172.041 115.359 180.413 116.346Z" fill="#A3C02D"/>
</g>
<g style="mix-blend-mode:multiply">
<path d="M158.514 110.938L154.749 117.332C154.749 117.332 149.412 122.155 150.325 128.33C147.913 121.315 150.581 113.788 158.514 110.938Z" fill="#A3C02D"/>
</g>
<g style="mix-blend-mode:multiply">
<path d="M175.733 125.407C174.856 130.084 168.642 132.422 164.876 129.463C161.513 132.459 155.665 132.349 152.411 129.317C150.291 132.495 145.429 133.811 141.92 132.057C139.178 135.711 132.781 134.432 131.648 130.011C131.319 135.272 138.337 138.159 141.81 134.322C145.173 136.368 150.108 135.491 152.521 132.495C155.482 135.82 161.294 136.405 164.913 133.738C170.287 138.743 179.206 131.984 175.733 125.407Z" fill="#A3C02D"/>
</g>
</g>
<mask id="mask8_3963_85652" style="mask-type:luminance" maskUnits="userSpaceOnUse" x="74" y="115" width="41" height="19">
<path d="M108.348 120.008C107.912 120.008 107.489 120.051 107.08 120.136C104.62 114.425 95.7113 113.713 92.3775 118.978C88.5099 115.445 81.5425 117.487 80.1681 122.485C69.8266 122.88 75.7924 138.131 83.6554 131.455C86.642 133.297 91.0542 132.504 93.2146 129.84C95.8575 132.792 101.052 133.341 104.265 130.94C113.448 137.721 119.754 120.925 108.348 120.008Z" fill="white"/>
</mask>
<g mask="url(#mask8_3963_85652)">
<path d="M107.961 123.91C107.888 135.09 90.853 135.09 90.8164 123.91C90.853 112.693 107.924 112.693 107.961 123.91Z" fill="#769914"/>
<path d="M114.579 126.248C114.689 134.323 102.004 134.323 102.114 126.248C102.004 118.137 114.689 118.137 114.579 126.248Z" fill="#769914"/>
<path d="M95.0964 124.823C95.0599 134.834 79.853 134.834 79.8164 124.823C79.853 114.812 95.0599 114.812 95.0964 124.823Z" fill="#769914"/>
<path d="M85.1521 127.746C85.2618 134.615 74.478 134.615 74.5512 127.746C74.478 120.914 85.2618 120.877 85.1521 127.746Z" fill="#769914"/>
<g style="mix-blend-mode:multiply">
<path d="M115.528 115.324L110.557 118.54C110.557 118.54 105.037 120.038 103.465 124.751C104.196 119.015 108.985 114.484 115.528 115.324Z" fill="#A3C02D"/>
</g>
<g style="mix-blend-mode:multiply">
<path d="M97.7992 111.122L94.6555 116.128C94.6555 116.128 90.3054 119.818 90.8537 124.75C89.0991 119.233 91.5117 113.132 97.7992 111.122Z" fill="#A3C02D"/>
</g>
<g style="mix-blend-mode:multiply">
<path d="M113.63 122.96C113.886 127.966 107.598 131.144 103.724 128.075C100.69 130.706 95.4987 130.56 92.6109 127.819C90.6735 130.669 86.3234 131.802 83.2162 130.194C81.3885 132.569 77.2943 132.715 75.3203 130.487C76.8922 133.373 81.4616 133.921 83.6549 131.473C86.6524 133.3 91.039 132.496 93.2323 129.829C95.8643 132.788 101.055 133.337 104.272 130.925C109.353 135.638 117.468 128.769 113.63 122.96Z" fill="#A3C02D"/>
</g>
</g>
<mask id="mask9_3963_85652" style="mask-type:luminance" maskUnits="userSpaceOnUse" x="64" y="87" width="53" height="25">
<path d="M108.894 95.3999C108.494 95.4047 108.103 95.4376 107.72 95.4985C104.843 84.0587 87.4688 84.8223 85.6373 96.5069C81.6455 93.9713 75.7711 96.0502 74.1992 100.394C70.2805 97.9063 64.7278 101.012 64.8594 105.696C64.6474 111.641 73.0258 114.118 76.1367 109.189C79.8214 112.971 87.0009 111.476 88.8944 106.609C92.2355 110.077 98.4353 110.855 102.566 108.232C113.635 119.774 124.832 97.2011 108.894 95.3999Z" fill="white"/>
</mask>
<g mask="url(#mask9_3963_85652)">
<path d="M108.109 98.48C108.036 113.314 85.5184 113.314 85.4453 98.48C85.5184 83.6824 108.073 83.6824 108.109 98.48Z" fill="#769914"/>
<path d="M89.5761 103.376C89.5396 113.826 73.6747 113.826 73.6016 103.376C73.6747 92.9631 89.5396 92.9631 89.5761 103.376Z" fill="#769914"/>
<path d="M116.885 103.376C116.848 113.826 100.947 113.826 100.91 103.376C100.947 92.9631 116.848 92.9631 116.885 103.376Z" fill="#769914"/>
<path d="M77.2216 105.714C77.3312 113.716 64.7563 113.716 64.8659 105.714C64.7563 97.676 77.3312 97.676 77.2216 105.714Z" fill="#769914"/>
<g style="mix-blend-mode:multiply">
<path d="M114.801 91.2818L109.939 94.424C109.939 94.424 104.529 95.922 102.957 100.562C103.688 94.899 108.404 90.4414 114.801 91.2818Z" fill="#A3C02D"/>
</g>
<g style="mix-blend-mode:multiply">
<path d="M81.5339 91.6475L77.988 96.2511C77.988 96.2511 73.6014 97.9684 73.4186 104.289C72.2489 98.7357 75.2098 92.9628 81.5339 91.6475Z" fill="#A3C02D"/>
</g>
<g style="mix-blend-mode:multiply">
<path d="M114.693 97.8955C115.351 104.838 106.102 109.076 101.241 104.143C97.6217 107.395 91.3708 107.651 87.4959 104.764C86.6186 108.674 82.2686 111.524 78.2109 110.61C82.1223 112.583 87.3132 110.537 88.885 106.591C92.2481 110.062 98.4259 110.866 102.557 108.236C109.319 116.895 122.187 105.934 114.693 97.8955Z" fill="#A3C02D"/>
</g>
</g>
<path d="M115.274 184.05C115.274 184.05 114.835 177.802 111.582 174.952C111.582 174.952 116.188 178.752 116.517 179.519C116.517 179.519 115.822 173.564 114.506 171.993C114.506 171.993 117.431 174.55 118.016 175.939C118.016 175.939 117.102 171.627 116.225 170.202C116.225 170.202 118.856 173.856 119.259 176.377C119.259 176.377 119.697 169.508 118.82 166.841C118.82 166.841 121.196 174.331 121.196 177.656C121.196 177.656 121.306 171.262 123.17 168.85C123.17 168.85 122.804 175.062 123.097 177.327C123.097 177.327 124.011 174.002 123.974 171.956C123.974 171.956 125.144 176.158 124.778 178.204C124.778 178.204 126.423 174.441 125.729 169.289C125.729 169.289 127.118 173.308 127.008 176.669C127.008 176.669 128.142 173.71 129.64 172.029C129.64 172.029 127.63 177.51 127.593 179.263C127.593 179.263 128.397 177.108 129.933 176.158C129.933 176.158 127.959 179.812 127.52 181.419C127.52 181.419 129.202 179.154 131.907 178.277C131.907 178.277 128.909 182.004 128.836 184.05H115.274Z" fill="#769914"/>
<path d="M125.399 184.013C125.399 184.013 125.106 179.665 122.84 177.655C122.84 177.655 126.057 180.323 126.276 180.871C126.276 180.871 125.801 176.705 124.887 175.573C124.887 175.573 126.897 177.4 127.336 178.35C127.336 178.35 126.678 175.354 126.057 174.367C126.057 174.367 127.921 176.888 128.177 178.678C128.177 178.678 128.506 173.856 127.884 171.992C127.884 171.992 129.566 177.217 129.566 179.555C129.566 179.555 129.639 175.098 130.955 173.381C130.955 173.381 130.663 177.729 130.882 179.336C130.882 179.336 131.54 176.998 131.503 175.573C131.503 175.573 132.308 178.532 132.088 179.957C132.088 179.957 133.221 177.327 132.71 173.709C132.71 173.709 133.697 176.523 133.624 178.861C133.624 178.861 134.428 176.815 135.488 175.646C135.488 175.646 134.062 179.482 134.026 180.688C134.026 180.688 134.611 179.19 135.671 178.496C135.671 178.496 134.282 181.09 133.989 182.186C133.989 182.186 135.159 180.615 137.06 179.994C137.06 179.994 134.94 182.588 134.903 184.013H125.399Z" fill="#769914"/>
<path d="M157.076 149.845L154.59 256.57H166.47L159.05 147.36L157.076 149.845Z" fill="#331C10"/>
<path d="M172.901 148.858L159.047 168.113L159.559 172.571L172.901 148.858Z" fill="#331C10"/>
<path d="M144.719 149.333L158.573 173.557L157.586 179.476L144.719 148.347V149.333Z" fill="#331C10"/>
<path d="M134.336 174.069L159.047 203.701V209.145L142.232 189.378L121.469 177.504L141.757 186.894L134.336 174.069Z" fill="#331C10"/>
<path d="M183.759 178.015L160.547 198.256V204.212L183.759 178.015Z" fill="#331C10"/>
<path d="M169.43 192.813L170.526 192.301L195.786 180.171L171.879 189.524L169.43 192.813Z" fill="#331C10"/>
<path d="M161.022 219.01L174.365 208.633L183.43 199.353L176.375 209.619L197.833 199.462L177.362 211.118L161.022 225.44L160.035 218.535" fill="#331C10"/>
<path d="M122.492 201.107L140.77 216.562L158.572 225.952L159.047 221.495L142.232 214.589L137.297 197.271L139.783 212.58L122.492 201.107Z" fill="#331C10"/>
<path d="M144.719 149.333L146.181 151.927L144.719 148.347V149.333Z" fill="#331C10"/>
<path d="M197.832 199.462L176.375 209.62L183.43 199.353L174.364 208.633L163.763 216.891L162.739 201.691L171.513 191.826L195.785 180.171L174.437 188.538L183.759 178.015L162.41 196.649L160.619 170.635L172.902 148.858L160.327 166.323L159.047 147.36L157.073 149.845L156.598 170.123L146.18 151.927C156.415 177.102 157.256 172.023 155.904 199.937L134.336 174.069L141.757 186.894L121.469 177.504L142.232 189.378L155.794 205.308L155.465 219.996L142.232 214.589L137.297 197.27L139.783 212.579L122.492 201.107L140.77 216.562L155.355 224.235L154.588 256.57H166.468L164.165 222.7L177.362 211.118L197.832 199.462Z" fill="#331C10"/>
<g style="mix-blend-mode:multiply">
<path d="M144.719 149.333L146.181 151.927L144.719 148.347V149.333Z" fill="#331C10"/>
<path d="M164.168 222.7L177.364 211.117L197.835 199.462L175.353 211.117L162.523 221.494L159.379 256.57H166.471L164.168 222.7Z" fill="#331C10"/>
<path d="M160.548 198.257L161.133 217.95L163.692 215.612L162.742 201.691L171.515 191.826L195.788 180.171L174.439 188.538L183.761 178.015L162.413 196.649L160.621 170.635L172.904 148.858L159.488 170.05L160.548 198.257Z" fill="#331C10"/>
</g>
<mask id="mask10_3963_85652" style="mask-type:luminance" maskUnits="userSpaceOnUse" x="119" y="123" width="81" height="35">
<path d="M189.725 136.717C188.438 136.717 187.214 136.962 186.077 137.393C183.112 131.025 174.416 127.912 167.971 131.204C160.598 118.88 139.783 122.804 137.495 137.042C132.893 135.771 127.797 138.244 125.819 142.351C113.906 144.014 119.872 161.986 130.418 156.162C134.592 158.395 140.386 156.973 143.084 153.25C148.714 158.384 158.715 158.519 164.484 153.521C169.013 158.113 177.552 158.46 182.443 154.211C197.405 166.637 209.136 138.606 189.725 136.717Z" fill="white"/>
</mask>
<g mask="url(#mask10_3963_85652)">
<path d="M189.718 136.728C188.438 136.728 187.196 136.948 186.062 137.386C183.101 131.029 174.401 127.923 167.968 131.211C160.583 118.898 139.784 122.808 137.481 137.057C132.875 135.778 127.793 138.263 125.82 142.355C113.903 143.999 119.861 161.976 130.425 156.166C134.593 158.395 140.405 156.97 143.074 153.243C148.703 158.395 158.719 158.505 164.495 153.535C169.028 158.103 177.545 158.468 182.443 154.193C197.394 166.652 209.129 138.592 189.718 136.728Z" fill="#769914"/>
<g style="mix-blend-mode:multiply">
<path d="M196.189 138.994C199.406 148.567 186.758 156.459 179.557 149.59C174.951 154.157 166.397 154.376 161.572 150.065C156.161 155.436 146.145 155.947 140.223 151.161C137.738 155.07 132.072 156.861 127.758 154.888C126.369 155.874 124.505 156.386 122.75 156.167C124.943 157.592 128.197 157.592 130.427 156.167C134.594 158.395 140.406 156.97 143.075 153.244C148.704 158.395 158.72 158.505 164.496 153.536C169.029 158.103 177.546 158.468 182.445 154.194C192.534 164.132 207.083 147.982 196.189 138.994Z" fill="#A3C02D"/>
</g>
<g style="mix-blend-mode:multiply">
<path d="M173.852 127.375L167.966 131.211C167.966 131.211 161.423 133.002 159.559 138.592C160.509 131.65 165.956 126.462 173.852 127.375Z" fill="#A3C02D"/>
</g>
<g style="mix-blend-mode:multiply">
<path d="M196.259 131.759L190.374 135.559C190.374 135.559 183.794 137.349 181.93 142.939C182.917 135.997 188.363 130.809 196.259 131.759Z" fill="#A3C02D"/>
</g>
</g>
<mask id="mask11_3963_85652" style="mask-type:luminance" maskUnits="userSpaceOnUse" x="168" y="160" width="40" height="25">
<path d="M199.222 166.692C198.622 166.692 198.04 166.751 197.475 166.868C192.814 156.301 175.589 159.352 175.011 171.033C161.523 171.464 170.073 190.986 179.53 181.428C183.298 184.566 189.622 184.753 193.574 181.822C206.281 191.198 214.995 167.964 199.222 166.692Z" fill="white"/>
</mask>
<g mask="url(#mask11_3963_85652)">
<path d="M198.673 172.097C198.418 187.661 175.242 187.661 174.949 172.097C175.242 156.495 198.418 156.495 198.673 172.097Z" fill="#769914"/>
<path d="M207.848 175.312C207.811 186.602 190.63 186.602 190.594 175.312C190.63 164.022 207.811 164.022 207.848 175.312Z" fill="#769914"/>
<path d="M180.907 177.468C181.016 185.871 167.82 185.871 167.966 177.468C167.82 169.064 181.016 169.064 180.907 177.468Z" fill="#769914"/>
<g style="mix-blend-mode:multiply">
<path d="M203.533 162.925L198.415 166.213C198.415 166.213 192.749 167.785 191.141 172.607C191.872 166.688 196.807 162.048 203.533 162.925Z" fill="#A3C02D"/>
</g>
<g style="mix-blend-mode:multiply">
<path d="M205.547 169.466C207.447 176.773 198.491 182.802 192.423 178.527C188.914 181.962 182.626 182.656 178.459 180.062C177.18 182.473 173.963 183.861 171.258 183.094C173.89 184.702 177.765 183.861 179.519 181.413C183.284 184.556 189.608 184.738 193.593 181.815C201.416 188.94 212.931 177.066 205.547 169.466Z" fill="#A3C02D"/>
</g>
</g>
<mask id="mask12_3963_85652" style="mask-type:luminance" maskUnits="userSpaceOnUse" x="168" y="189" width="46" height="21">
<path d="M206.265 195.03C205.775 195.03 205.301 195.079 204.843 195.176C202.09 188.779 192.115 187.982 188.382 193.879C184.05 189.922 176.25 192.206 174.711 197.807C163.134 198.245 169.809 215.326 178.618 207.847C181.96 209.908 186.898 209.02 189.322 206.039C192.275 209.345 198.095 209.959 201.696 207.274C211.975 214.866 219.034 196.06 206.265 195.03Z" fill="white"/>
</mask>
<g mask="url(#mask12_3963_85652)">
<path d="M205.832 199.388C205.759 211.921 186.677 211.921 186.641 199.388C186.677 186.856 205.759 186.856 205.832 199.388Z" fill="#769914"/>
<path d="M213.254 202.02C213.364 211.044 199.144 211.044 199.29 202.02C199.144 192.958 213.364 192.958 213.254 202.02Z" fill="#769914"/>
<path d="M191.433 200.412C191.397 211.629 174.362 211.629 174.289 200.412C174.362 189.231 191.397 189.231 191.433 200.412Z" fill="#769914"/>
<path d="M180.319 203.7C180.428 211.409 168.329 211.409 168.438 203.7C168.329 196.027 180.428 196.027 180.319 203.7Z" fill="#769914"/>
<g style="mix-blend-mode:multiply">
<path d="M217.202 189.889L210.951 193.944C210.951 193.944 204.005 195.808 202.031 201.727C203.055 194.419 208.831 188.902 217.202 189.889Z" fill="#A3C02D"/>
</g>
<g style="mix-blend-mode:multiply">
<path d="M195.303 184.481L191.538 190.875C191.538 190.875 186.201 195.698 187.115 201.873C184.702 194.858 187.37 187.331 195.303 184.481Z" fill="#A3C02D"/>
</g>
<g style="mix-blend-mode:multiply">
<path d="M212.522 198.95C211.645 203.627 205.431 205.965 201.666 203.006C198.302 206.002 192.454 205.892 189.2 202.86C187.08 206.038 182.218 207.354 178.709 205.6C175.967 209.254 169.57 207.975 168.437 203.554C168.108 208.815 175.127 211.702 178.599 207.865C181.962 209.911 186.897 209.034 189.31 206.038C192.271 209.363 198.083 209.948 201.702 207.281C207.076 212.286 215.995 205.527 212.522 198.95Z" fill="#A3C02D"/>
</g>
</g>
<mask id="mask13_3963_85652" style="mask-type:luminance" maskUnits="userSpaceOnUse" x="111" y="188" width="41" height="19">
<path d="M145.137 193.551C144.701 193.551 144.278 193.594 143.869 193.679C141.409 187.968 132.5 187.256 129.167 192.521C125.299 188.988 118.332 191.03 116.957 196.028C106.616 196.423 112.581 211.674 120.444 204.998C123.431 206.84 127.843 206.047 130.004 203.383C132.647 206.335 137.841 206.883 141.054 204.483C150.237 211.264 156.543 194.468 145.137 193.551Z" fill="white"/>
</mask>
<g mask="url(#mask13_3963_85652)">
<path d="M144.75 197.453C144.677 208.633 127.642 208.633 127.605 197.453C127.642 186.236 144.713 186.236 144.75 197.453Z" fill="#769914"/>
<path d="M151.368 199.791C151.478 207.866 138.793 207.866 138.903 199.791C138.793 191.68 151.478 191.68 151.368 199.791Z" fill="#769914"/>
<path d="M131.886 198.366C131.849 208.377 116.642 208.377 116.605 198.366C116.642 188.355 131.849 188.355 131.886 198.366Z" fill="#769914"/>
<path d="M121.941 201.289C122.051 208.158 111.267 208.158 111.34 201.289C111.267 194.457 122.051 194.42 121.941 201.289Z" fill="#769914"/>
<g style="mix-blend-mode:multiply">
<path d="M152.317 188.867L147.346 192.083C147.346 192.083 141.826 193.581 140.254 198.294C140.985 192.558 145.774 188.027 152.317 188.867Z" fill="#A3C02D"/>
</g>
<g style="mix-blend-mode:multiply">
<path d="M134.588 184.665L131.445 189.671C131.445 189.671 127.094 193.361 127.643 198.293C125.888 192.776 128.301 186.675 134.588 184.665Z" fill="#A3C02D"/>
</g>
<g style="mix-blend-mode:multiply">
<path d="M150.419 196.503C150.675 201.509 144.388 204.687 140.513 201.618C137.479 204.249 132.288 204.103 129.4 201.362C127.463 204.212 123.112 205.345 120.005 203.737C118.178 206.112 114.083 206.258 112.109 204.03C113.681 206.916 118.251 207.464 120.444 205.016C123.441 206.843 127.828 206.039 130.021 203.372C132.653 206.331 137.844 206.879 141.061 204.468C146.142 209.181 154.257 202.312 150.419 196.503Z" fill="#A3C02D"/>
</g>
</g>
<mask id="mask14_3963_85652" style="mask-type:luminance" maskUnits="userSpaceOnUse" x="101" y="160" width="53" height="26">
<path d="M145.683 168.943C145.283 168.948 144.892 168.981 144.509 169.041C141.632 157.602 124.258 158.365 122.426 170.05C118.435 167.514 112.56 169.593 110.988 173.937C107.07 171.449 101.517 174.555 101.648 179.239C101.436 185.184 109.815 187.661 112.926 182.732C116.61 186.514 123.79 185.019 125.683 180.152C129.025 183.62 135.224 184.398 139.355 181.775C150.424 193.317 161.621 170.744 145.683 168.943Z" fill="white"/>
</mask>
<g mask="url(#mask14_3963_85652)">
<path d="M144.899 172.023C144.825 186.857 122.307 186.857 122.234 172.023C122.307 157.225 144.862 157.225 144.899 172.023Z" fill="#769914"/>
<path d="M126.365 176.919C126.329 187.369 110.464 187.369 110.391 176.919C110.464 166.506 126.329 166.506 126.365 176.919Z" fill="#769914"/>
<path d="M153.67 176.919C153.633 187.369 137.732 187.369 137.695 176.919C137.732 166.506 153.633 166.506 153.67 176.919Z" fill="#769914"/>
<path d="M114.009 179.257C114.118 187.259 101.543 187.259 101.653 179.257C101.543 171.219 114.118 171.219 114.009 179.257Z" fill="#769914"/>
<g style="mix-blend-mode:multiply">
<path d="M151.586 164.825L146.724 167.967C146.724 167.967 141.314 169.465 139.742 174.105C140.473 168.442 145.189 163.984 151.586 164.825Z" fill="#A3C02D"/>
</g>
<g style="mix-blend-mode:multiply">
<path d="M118.323 165.19L114.777 169.794C114.777 169.794 110.39 171.511 110.208 177.832C109.038 172.279 111.999 166.506 118.323 165.19Z" fill="#A3C02D"/>
</g>
<g style="mix-blend-mode:multiply">
<path d="M151.478 171.438C152.136 178.381 142.888 182.619 138.026 177.686C134.407 180.938 128.156 181.194 124.281 178.307C123.404 182.217 119.054 185.067 114.996 184.153C118.907 186.126 124.098 184.08 125.67 180.134C129.033 183.605 135.211 184.409 139.342 181.779C146.105 190.438 158.972 179.477 151.478 171.438Z" fill="#A3C02D"/>
</g>
</g>
<path d="M152.063 257.593C152.063 257.593 151.624 251.345 148.371 248.495C148.371 248.495 152.977 252.295 153.306 253.062C153.306 253.062 152.611 247.107 151.296 245.536C151.296 245.536 154.22 248.093 154.805 249.482C154.805 249.482 153.891 245.17 153.014 243.745C153.014 243.745 155.646 247.399 156.048 249.92C156.048 249.92 156.486 243.051 155.609 240.384C155.609 240.384 157.985 247.874 157.985 251.199C157.985 251.199 158.095 244.805 159.959 242.393C159.959 242.393 159.594 248.605 159.886 250.87C159.886 250.87 160.8 247.545 160.763 245.499C160.763 245.499 161.933 249.701 161.568 251.747C161.568 251.747 163.212 247.984 162.518 242.832C162.518 242.832 163.907 246.851 163.797 250.212C163.797 250.212 164.931 247.253 166.429 245.572C166.429 245.572 164.419 251.053 164.382 252.806C164.382 252.806 165.186 250.651 166.722 249.701C166.722 249.701 164.748 253.354 164.309 254.962C164.309 254.962 165.991 252.697 168.696 251.82C168.696 251.82 165.698 255.547 165.625 257.593H152.063Z" fill="#769914"/>
<path d="M162.188 257.556C162.188 257.556 161.895 253.208 159.629 251.198C159.629 251.198 162.846 253.866 163.065 254.414C163.065 254.414 162.59 250.248 161.676 249.116C161.676 249.116 163.687 250.943 164.125 251.893C164.125 251.893 163.467 248.897 162.846 247.91C162.846 247.91 164.71 250.431 164.966 252.221C164.966 252.221 165.295 247.399 164.674 245.535C164.674 245.535 166.355 250.76 166.355 253.098C166.355 253.098 166.428 248.641 167.744 246.924C167.744 246.924 167.452 251.271 167.671 252.879C167.671 252.879 168.329 250.541 168.292 249.116C168.292 249.116 169.097 252.075 168.877 253.5C168.877 253.5 170.011 250.87 169.499 247.252C169.499 247.252 170.486 250.066 170.413 252.404C170.413 252.404 171.217 250.358 172.277 249.189C172.277 249.189 170.851 253.025 170.815 254.231C170.815 254.231 171.4 252.733 172.46 252.039C172.46 252.039 171.071 254.633 170.778 255.729C170.778 255.729 171.948 254.158 173.849 253.537C173.849 253.537 171.729 256.131 171.692 257.556H162.188Z" fill="#769914"/>
<path d="M141.08 217.526L138.594 324.251H150.474L143.053 215.041L141.08 217.526Z" fill="#331C10"/>
<path d="M156.905 216.539L143.051 235.794L143.563 240.252L156.905 216.539Z" fill="#331C10"/>
<path d="M128.723 217.014L142.577 241.238L141.59 247.157L128.723 216.027V217.014Z" fill="#331C10"/>
<path d="M118.34 241.75L143.051 271.382V276.826L126.236 257.059L105.473 245.184L125.761 254.575L118.34 241.75Z" fill="#331C10"/>
<path d="M167.763 245.695L144.551 265.937V271.892L167.763 245.695Z" fill="#331C10"/>
<path d="M153.434 260.493L154.53 259.982L179.79 247.852L155.883 257.205L153.434 260.493Z" fill="#331C10"/>
<path d="M145.026 286.69L158.369 276.314L167.434 267.033L160.379 277.3L181.837 267.143L161.366 278.798L145.026 293.121L144.039 286.215" fill="#331C10"/>
<path d="M106.496 268.788L124.774 284.243L142.576 293.633L143.051 289.175L126.236 282.27L121.301 264.951L123.787 280.26L106.496 268.788Z" fill="#331C10"/>
<path d="M128.723 217.014L130.185 219.608L128.723 216.027V217.014Z" fill="#331C10"/>
<path d="M181.836 267.143L160.378 277.3L167.434 267.033L158.368 276.314L147.767 284.571L146.743 269.372L155.517 259.507L179.789 247.851L158.441 256.218L167.763 245.696L146.414 264.33L144.623 238.315L156.906 216.539L144.331 234.004L143.051 215.041L141.077 217.526L140.602 237.804L130.184 219.608C140.419 244.782 141.26 239.704 139.908 267.618L118.34 241.75L125.761 254.574L105.473 245.184L126.236 257.059L139.798 272.989L139.469 287.677L126.236 282.269L121.301 264.951L123.787 280.26L106.496 268.787L124.774 284.242L139.359 291.915L138.592 324.251H150.472L148.169 290.381L161.365 278.798L181.836 267.143Z" fill="#331C10"/>
<g style="mix-blend-mode:multiply">
<path d="M128.723 217.014L130.185 219.608L128.723 216.027V217.014Z" fill="#331C10"/>
<path d="M148.172 290.38L161.368 278.798L181.839 267.143L159.357 278.798L146.527 289.174L143.383 324.25H150.474L148.172 290.38Z" fill="#331C10"/>
<path d="M144.552 265.937L145.137 285.631L147.696 283.292L146.746 269.372L155.519 259.507L179.791 247.851L158.443 256.218L167.765 245.696L146.417 264.33L144.625 238.315L156.908 216.539L143.492 237.731L144.552 265.937Z" fill="#331C10"/>
</g>
<mask id="mask15_3963_85652" style="mask-type:luminance" maskUnits="userSpaceOnUse" x="103" y="191" width="81" height="35">
<path d="M173.729 204.398C172.442 204.398 171.217 204.643 170.081 205.074C167.116 198.705 158.419 195.592 151.975 198.884C144.602 186.56 123.787 190.484 121.499 204.723C116.897 203.451 111.801 205.925 109.823 210.032C97.9098 211.694 103.876 229.667 114.422 223.843C118.596 226.075 124.39 224.654 127.088 220.931C132.718 226.064 142.719 226.199 148.487 221.201C153.017 225.794 161.556 226.141 166.447 221.892C181.409 234.318 193.14 206.287 173.729 204.398Z" fill="white"/>
</mask>
<g mask="url(#mask15_3963_85652)">
<path d="M173.722 204.409C172.442 204.409 171.199 204.628 170.066 205.067C167.105 198.709 158.405 195.604 151.971 198.892C144.587 186.579 123.787 190.488 121.485 204.738C116.879 203.459 111.797 205.944 109.823 210.036C97.9065 211.68 103.865 229.656 114.429 223.847C118.597 226.076 124.409 224.651 127.077 220.924C132.707 226.076 142.723 226.185 148.499 221.216C153.032 225.783 161.549 226.149 166.447 221.874C181.398 234.333 193.133 206.272 173.722 204.409Z" fill="#769914"/>
<g style="mix-blend-mode:multiply">
<path d="M180.193 206.675C183.41 216.248 170.762 224.14 163.561 217.271C158.955 221.838 150.401 222.057 145.575 217.746C140.165 223.117 130.149 223.628 124.227 218.842C121.741 222.751 116.075 224.541 111.762 222.568C110.373 223.555 108.509 224.067 106.754 223.847C108.947 225.272 112.201 225.272 114.43 223.847C118.598 226.076 124.41 224.651 127.079 220.924C132.708 226.076 142.724 226.186 148.5 221.217C153.033 225.784 161.55 226.149 166.448 221.874C176.538 231.812 191.087 215.663 180.193 206.675Z" fill="#A3C02D"/>
</g>
<g style="mix-blend-mode:multiply">
<path d="M157.856 195.056L151.97 198.892C151.97 198.892 145.427 200.682 143.562 206.273C144.513 199.33 149.96 194.142 157.856 195.056Z" fill="#A3C02D"/>
</g>
<g style="mix-blend-mode:multiply">
<path d="M180.263 199.44L174.378 203.239C174.378 203.239 167.798 205.03 165.934 210.62C166.921 203.678 172.367 198.49 180.263 199.44Z" fill="#A3C02D"/>
</g>
</g>
<mask id="mask16_3963_85652" style="mask-type:luminance" maskUnits="userSpaceOnUse" x="152" y="228" width="40" height="24">
<path d="M183.226 234.373C182.626 234.373 182.044 234.431 181.478 234.548C176.818 223.982 159.593 227.033 159.015 238.714C145.526 239.145 154.077 258.667 163.534 249.108C167.302 252.247 173.626 252.433 177.578 249.503C190.285 258.878 198.999 235.644 183.226 234.373Z" fill="white"/>
</mask>
<g mask="url(#mask16_3963_85652)">
<path d="M182.677 239.777C182.422 255.342 159.246 255.342 158.953 239.777C159.246 224.176 182.422 224.176 182.677 239.777Z" fill="#769914"/>
<path d="M191.852 242.993C191.815 254.283 174.634 254.283 174.598 242.993C174.634 231.703 191.815 231.703 191.852 242.993Z" fill="#769914"/>
<path d="M164.91 245.148C165.02 253.552 151.824 253.552 151.97 245.148C151.824 236.745 165.02 236.745 164.91 245.148Z" fill="#769914"/>
<g style="mix-blend-mode:multiply">
<path d="M187.537 230.606L182.419 233.894C182.419 233.894 176.753 235.465 175.145 240.288C175.876 234.369 180.811 229.729 187.537 230.606Z" fill="#A3C02D"/>
</g>
<g style="mix-blend-mode:multiply">
<path d="M189.55 237.146C191.451 244.454 182.495 250.483 176.427 246.208C172.918 249.642 166.63 250.336 162.463 247.742C161.184 250.154 157.967 251.542 155.262 250.775C157.894 252.382 161.769 251.542 163.523 249.094C167.288 252.236 173.612 252.419 177.597 249.496C185.42 256.621 196.935 244.746 189.55 237.146Z" fill="#A3C02D"/>
</g>
</g>
<mask id="mask17_3963_85652" style="mask-type:luminance" maskUnits="userSpaceOnUse" x="152" y="257" width="46" height="21">
<path d="M190.269 262.711C189.779 262.711 189.305 262.759 188.847 262.857C186.094 256.459 176.118 255.663 172.386 261.56C168.054 257.603 160.254 259.886 158.715 265.488C147.138 265.926 153.813 283.007 162.622 275.528C165.963 277.589 170.902 276.701 173.326 273.719C176.279 277.026 182.099 277.64 185.7 274.954C195.979 282.547 203.038 263.741 190.269 262.711Z" fill="white"/>
</mask>
<g mask="url(#mask17_3963_85652)">
<path d="M189.836 267.069C189.763 279.601 170.681 279.601 170.645 267.069C170.681 254.537 189.763 254.537 189.836 267.069Z" fill="#769914"/>
<path d="M197.258 269.7C197.368 278.725 183.148 278.725 183.294 269.7C183.148 260.639 197.368 260.639 197.258 269.7Z" fill="#769914"/>
<path d="M175.437 268.092C175.401 279.309 158.366 279.309 158.293 268.092C158.366 256.912 175.401 256.912 175.437 268.092Z" fill="#769914"/>
<path d="M164.323 271.381C164.432 279.09 152.332 279.09 152.442 271.381C152.332 263.708 164.432 263.708 164.323 271.381Z" fill="#769914"/>
<g style="mix-blend-mode:multiply">
<path d="M201.206 257.569L194.955 261.625C194.955 261.625 188.009 263.488 186.035 269.407C187.059 262.1 192.834 256.583 201.206 257.569Z" fill="#A3C02D"/>
</g>
<g style="mix-blend-mode:multiply">
<path d="M179.307 252.162L175.542 258.556C175.542 258.556 170.205 263.379 171.118 269.554C168.706 262.539 171.374 255.012 179.307 252.162Z" fill="#A3C02D"/>
</g>
<g style="mix-blend-mode:multiply">
<path d="M196.526 266.631C195.649 271.308 189.435 273.646 185.669 270.686C182.306 273.683 176.458 273.573 173.204 270.54C171.084 273.719 166.222 275.034 162.713 273.281C159.971 276.934 153.574 275.656 152.441 271.235C152.112 276.496 159.13 279.382 162.603 275.546C165.966 277.592 170.901 276.715 173.314 273.719C176.275 277.044 182.087 277.629 185.706 274.961C191.08 279.967 199.999 273.208 196.526 266.631Z" fill="#A3C02D"/>
</g>
</g>
<mask id="mask18_3963_85652" style="mask-type:luminance" maskUnits="userSpaceOnUse" x="95" y="256" width="41" height="19">
<path d="M129.141 261.232C128.705 261.232 128.282 261.274 127.873 261.36C125.413 255.649 116.504 254.936 113.17 260.201C109.303 256.668 102.335 258.711 100.961 263.709C90.6196 264.104 96.5854 279.354 104.448 272.679C107.435 274.52 111.847 273.727 114.008 271.064C116.65 274.016 121.845 274.564 125.058 272.164C134.241 278.945 140.547 262.149 129.141 261.232Z" fill="white"/>
</mask>
<g mask="url(#mask18_3963_85652)">
<path d="M128.754 265.133C128.681 276.314 111.646 276.314 111.609 265.133C111.646 253.916 128.717 253.916 128.754 265.133Z" fill="#769914"/>
<path d="M135.372 267.472C135.482 275.547 122.797 275.547 122.907 267.472C122.797 259.361 135.482 259.361 135.372 267.472Z" fill="#769914"/>
<path d="M115.889 266.046C115.853 276.058 100.646 276.058 100.609 266.046C100.646 256.035 115.853 256.035 115.889 266.046Z" fill="#769914"/>
<path d="M105.945 268.97C106.055 275.839 95.271 275.839 95.3441 268.97C95.271 262.138 106.055 262.101 105.945 268.97Z" fill="#769914"/>
<g style="mix-blend-mode:multiply">
<path d="M136.321 256.548L131.35 259.763C131.35 259.763 125.83 261.261 124.258 265.975C124.989 260.238 129.778 255.708 136.321 256.548Z" fill="#A3C02D"/>
</g>
<g style="mix-blend-mode:multiply">
<path d="M118.592 252.346L115.448 257.351C115.448 257.351 111.098 261.042 111.647 265.974C109.892 260.457 112.305 254.355 118.592 252.346Z" fill="#A3C02D"/>
</g>
<g style="mix-blend-mode:multiply">
<path d="M134.423 264.184C134.679 269.189 128.391 272.368 124.517 269.299C121.483 271.929 116.292 271.783 113.404 269.043C111.466 271.893 107.116 273.026 104.009 271.418C102.181 273.793 98.0873 273.939 96.1133 271.71C97.6852 274.597 102.255 275.145 104.448 272.697C107.445 274.524 111.832 273.72 114.025 271.053C116.657 274.012 121.848 274.56 125.065 272.149C130.146 276.862 138.261 269.993 134.423 264.184Z" fill="#A3C02D"/>
</g>
</g>
<mask id="mask19_3963_85652" style="mask-type:luminance" maskUnits="userSpaceOnUse" x="85" y="228" width="53" height="26">
<path d="M129.687 236.623C129.287 236.628 128.896 236.661 128.513 236.722C125.636 225.282 108.262 226.046 106.43 237.731C102.438 235.195 96.5641 237.274 94.9922 241.618C91.0735 239.13 85.5208 242.236 85.6524 246.92C85.4404 252.864 93.8188 255.341 96.9296 250.413C100.614 254.194 107.794 252.7 109.687 247.833C113.029 251.3 119.228 252.079 123.359 249.455C134.428 260.997 145.625 238.425 129.687 236.623Z" fill="white"/>
</mask>
<g mask="url(#mask19_3963_85652)">
<path d="M128.902 239.704C128.829 254.538 106.311 254.538 106.238 239.704C106.311 224.906 128.866 224.906 128.902 239.704Z" fill="#769914"/>
<path d="M110.369 244.6C110.333 255.049 94.4676 255.049 94.3945 244.6C94.4676 234.187 110.333 234.187 110.369 244.6Z" fill="#769914"/>
<path d="M137.674 244.6C137.637 255.049 121.736 255.049 121.699 244.6C121.736 234.187 137.637 234.187 137.674 244.6Z" fill="#769914"/>
<path d="M98.0126 246.938C98.1223 254.939 85.5473 254.939 85.657 246.938C85.5473 238.9 98.1223 238.9 98.0126 246.938Z" fill="#769914"/>
<g style="mix-blend-mode:multiply">
<path d="M135.59 232.505L130.728 235.648C130.728 235.648 125.318 237.146 123.746 241.786C124.477 236.123 129.193 231.665 135.59 232.505Z" fill="#A3C02D"/>
</g>
<g style="mix-blend-mode:multiply">
<path d="M102.327 232.871L98.781 237.475C98.781 237.475 94.3944 239.192 94.2116 245.513C93.0418 239.959 96.0028 234.186 102.327 232.871Z" fill="#A3C02D"/>
</g>
<g style="mix-blend-mode:multiply">
<path d="M135.482 239.119C136.14 246.061 126.892 250.3 122.03 245.367C118.411 248.619 112.16 248.875 108.285 245.988C107.408 249.898 103.058 252.748 99 251.834C102.911 253.807 108.102 251.761 109.674 247.815C113.037 251.286 119.215 252.09 123.346 249.459C130.108 258.118 142.976 247.157 135.482 239.119Z" fill="#A3C02D"/>
</g>
</g>
<path d="M136.067 325.273C136.067 325.273 135.628 319.026 132.375 316.176C132.375 316.176 136.981 319.976 137.31 320.743C137.31 320.743 136.615 314.787 135.299 313.216C135.299 313.216 138.224 315.774 138.809 317.162C138.809 317.162 137.895 312.851 137.018 311.426C137.018 311.426 139.649 315.08 140.052 317.601C140.052 317.601 140.49 310.732 139.613 308.064C139.613 308.064 141.989 315.555 141.989 318.879C141.989 318.879 142.099 312.485 143.963 310.074C143.963 310.074 143.597 316.285 143.89 318.551C143.89 318.551 144.804 315.226 144.767 313.18C144.767 313.18 145.937 317.381 145.571 319.428C145.571 319.428 147.216 315.664 146.522 310.512C146.522 310.512 147.911 314.532 147.801 317.893C147.801 317.893 148.934 314.933 150.433 313.253C150.433 313.253 148.423 318.733 148.386 320.487C148.386 320.487 149.19 318.331 150.726 317.381C150.726 317.381 148.752 321.035 148.313 322.643C148.313 322.643 149.995 320.377 152.7 319.501C152.7 319.501 149.702 323.227 149.629 325.273H136.067Z" fill="#769914"/>
<path d="M146.192 325.237C146.192 325.237 145.899 320.889 143.633 318.879C143.633 318.879 146.85 321.546 147.069 322.094C147.069 322.094 146.594 317.929 145.68 316.796C145.68 316.796 147.69 318.623 148.129 319.573C148.129 319.573 147.471 316.577 146.85 315.591C146.85 315.591 148.714 318.112 148.97 319.902C148.97 319.902 149.299 315.079 148.677 313.216C148.677 313.216 150.359 318.441 150.359 320.779C150.359 320.779 150.432 316.321 151.748 314.604C151.748 314.604 151.456 318.952 151.675 320.56C151.675 320.56 152.333 318.221 152.296 316.796C152.296 316.796 153.101 319.756 152.881 321.181C152.881 321.181 154.014 318.55 153.503 314.933C153.503 314.933 154.49 317.746 154.417 320.085C154.417 320.085 155.221 318.039 156.281 316.87C156.281 316.87 154.855 320.706 154.819 321.912C154.819 321.912 155.404 320.414 156.464 319.719C156.464 319.719 155.075 322.314 154.782 323.41C154.782 323.41 155.952 321.839 157.853 321.217C157.853 321.217 155.733 323.812 155.696 325.237H146.192Z" fill="#769914"/>
<path d="M81.8959 232.447L79.4102 339.173H91.2906L83.8699 229.963L81.8959 232.447Z" fill="#331C10"/>
<path d="M97.7216 231.461L83.8672 250.716L84.379 255.174L97.7216 231.461Z" fill="#331C10"/>
<path d="M69.5391 231.936L83.3935 256.16L82.4065 262.079L69.5391 230.949V231.936Z" fill="#331C10"/>
<path d="M59.1565 256.672L83.8677 286.304V291.748L67.0524 271.981L46.2891 260.106L66.5771 269.496L59.1565 256.672Z" fill="#331C10"/>
<path d="M108.58 260.617L85.3672 280.859V286.814L108.58 260.617Z" fill="#331C10"/>
<path d="M94.25 275.415L95.3467 274.904L120.606 262.773L96.6992 272.127L94.25 275.415Z" fill="#331C10"/>
<path d="M85.8425 301.612L99.1851 291.236L108.251 281.955L101.196 292.222L122.653 282.065L102.183 293.72L85.8425 308.043L84.8555 301.137" fill="#331C10"/>
<path d="M47.3125 283.709L65.5901 299.165L83.3924 308.555L83.8676 304.097L67.0523 297.192L62.1173 279.873L64.6031 295.182L47.3125 283.709Z" fill="#331C10"/>
<path d="M69.5391 231.936L71.0013 234.53L69.5391 230.949V231.936Z" fill="#331C10"/>
<path d="M122.653 282.065L101.195 292.222L108.25 281.955L99.1843 291.236L88.5833 299.493L87.5598 284.294L96.333 274.429L120.606 262.773L99.2574 271.14L108.579 260.618L87.2308 279.252L85.4396 253.237L97.7221 231.461L85.1471 248.926L83.8677 229.963L81.8938 232.447L81.4185 252.726L71.0003 234.53C81.2357 259.704 82.0765 254.625 80.724 282.54L59.1565 256.672L66.5772 269.496L46.2891 260.106L67.0524 271.981L80.6143 287.911L80.2853 302.599L67.0524 297.191L62.1174 279.873L64.6032 295.182L47.3126 283.709L65.5902 299.164L80.1757 306.837L79.408 339.173H91.2884L88.9854 305.303L102.182 293.72L122.653 282.065Z" fill="#331C10"/>
<g style="mix-blend-mode:multiply">
<path d="M69.5391 231.936L71.0013 234.53L69.5391 230.949V231.936Z" fill="#331C10"/>
<path d="M88.9879 305.302L102.184 293.72L122.655 282.064L100.174 293.72L87.343 304.096L84.1992 339.172H91.2909L88.9879 305.302Z" fill="#331C10"/>
<path d="M85.3687 280.859L85.9536 300.553L88.5124 298.214L87.562 284.294L96.3352 274.429L120.608 262.773L99.2596 271.14L108.581 260.618L87.233 279.252L85.4418 253.237L97.7243 231.461L84.3086 252.653L85.3687 280.859Z" fill="#331C10"/>
</g>
<mask id="mask20_3963_85652" style="mask-type:luminance" maskUnits="userSpaceOnUse" x="44" y="206" width="81" height="34">
<path d="M114.543 219.32C113.256 219.32 112.032 219.564 110.895 219.996C107.93 213.627 99.2339 210.514 92.7893 213.806C85.4161 201.482 64.6016 205.406 62.3133 219.645C57.711 218.373 52.6152 220.847 50.6376 224.954C38.7243 226.616 44.6901 244.589 55.2362 238.765C59.4108 240.997 65.2048 239.576 67.9026 235.853C73.532 240.986 83.5335 241.121 89.3019 236.123C93.8311 240.716 102.37 241.063 107.261 236.814C122.223 249.24 133.954 221.209 114.543 219.32Z" fill="white"/>
</mask>
<g mask="url(#mask20_3963_85652)">
<path d="M114.536 219.331C113.257 219.331 112.014 219.55 110.881 219.989C107.92 213.631 99.2196 210.525 92.7859 213.814C85.4018 201.501 64.6019 205.41 62.299 219.66C57.693 218.381 52.6118 220.865 50.6379 224.958C38.7209 226.602 44.6794 244.578 55.2438 238.769C59.4111 240.997 65.2234 239.572 67.8919 235.846C73.5214 240.997 83.5375 241.107 89.3132 236.138C93.846 240.705 102.363 241.071 107.262 236.796C122.213 249.255 133.947 221.194 114.536 219.331Z" fill="#769914"/>
<g style="mix-blend-mode:multiply">
<path d="M121.006 221.597C124.222 231.169 111.574 239.061 104.373 232.192C99.7671 236.76 91.2132 236.979 86.3879 232.667C80.9778 238.038 70.9617 238.55 65.0397 233.764C62.554 237.673 56.888 239.463 52.5745 237.49C51.1854 238.477 49.3211 238.988 47.5664 238.769C49.7597 240.194 53.0131 240.194 55.243 238.769C59.4103 240.998 65.2225 239.573 67.891 235.846C73.5205 240.998 83.5366 241.108 89.3124 236.138C93.8452 240.706 102.363 241.071 107.261 236.796C117.35 246.734 131.899 230.585 121.006 221.597Z" fill="#A3C02D"/>
</g>
<g style="mix-blend-mode:multiply">
<path d="M98.6719 209.978L92.7866 213.814C92.7866 213.814 86.2432 215.604 84.3789 221.194C85.3293 214.252 90.776 209.064 98.6719 209.978Z" fill="#A3C02D"/>
</g>
<g style="mix-blend-mode:multiply">
<path d="M121.08 214.361L115.194 218.161C115.194 218.161 108.614 219.952 106.75 225.542C107.737 218.6 113.184 213.411 121.08 214.361Z" fill="#A3C02D"/>
</g>
</g>
<mask id="mask21_3963_85652" style="mask-type:luminance" maskUnits="userSpaceOnUse" x="92" y="242" width="41" height="25">
<path d="M124.042 249.295C123.443 249.295 122.86 249.353 122.295 249.47C117.634 238.904 100.409 241.954 99.8317 253.635C86.3429 254.067 94.8931 273.588 104.35 264.03C108.119 267.169 114.443 267.355 118.394 264.425C131.101 273.8 139.816 250.566 124.042 249.295Z" fill="white"/>
</mask>
<g mask="url(#mask21_3963_85652)">
<path d="M123.494 254.699C123.238 270.264 100.062 270.264 99.7695 254.699C100.062 239.098 123.238 239.098 123.494 254.699Z" fill="#769914"/>
<path d="M132.668 257.915C132.632 269.205 115.451 269.205 115.414 257.915C115.451 246.625 132.632 246.625 132.668 257.915Z" fill="#769914"/>
<path d="M105.727 260.07C105.837 268.474 92.6401 268.474 92.7864 260.07C92.6401 251.667 105.837 251.667 105.727 260.07Z" fill="#769914"/>
<g style="mix-blend-mode:multiply">
<path d="M128.353 245.528L123.235 248.816C123.235 248.816 117.569 250.387 115.961 255.21C116.692 249.291 121.627 244.651 128.353 245.528Z" fill="#A3C02D"/>
</g>
<g style="mix-blend-mode:multiply">
<path d="M130.367 252.068C132.268 259.376 123.312 265.404 117.244 261.13C113.734 264.564 107.447 265.258 103.279 262.664C102 265.076 98.7832 266.464 96.0781 265.697C98.7101 267.304 102.585 266.464 104.34 264.016C108.105 267.158 114.429 267.341 118.413 264.418C126.236 271.543 137.751 259.668 130.367 252.068Z" fill="#A3C02D"/>
</g>
</g>
<mask id="mask22_3963_85652" style="mask-type:luminance" maskUnits="userSpaceOnUse" x="93" y="272" width="45" height="21">
<path d="M131.085 277.633C130.595 277.633 130.122 277.681 129.663 277.779C126.911 271.381 116.935 270.585 113.203 276.482C108.871 272.525 101.07 274.808 99.5309 280.409C87.9539 280.848 94.6289 297.929 103.439 290.45C106.78 292.511 111.718 291.623 114.142 288.641C117.096 291.948 122.915 292.562 126.516 289.876C136.795 297.469 143.854 278.663 131.085 277.633Z" fill="white"/>
</mask>
<g mask="url(#mask22_3963_85652)">
<path d="M130.652 281.991C130.579 294.523 111.497 294.523 111.461 281.991C111.497 269.459 130.579 269.459 130.652 281.991Z" fill="#769914"/>
<path d="M138.075 284.622C138.184 293.647 123.964 293.647 124.11 284.622C123.964 275.561 138.184 275.561 138.075 284.622Z" fill="#769914"/>
<path d="M116.254 283.014C116.217 294.231 99.1825 294.231 99.1094 283.014C99.1825 271.834 116.217 271.834 116.254 283.014Z" fill="#769914"/>
<path d="M105.139 286.302C105.249 294.012 93.1489 294.012 93.2586 286.302C93.1489 278.63 105.249 278.63 105.139 286.302Z" fill="#769914"/>
<g style="mix-blend-mode:multiply">
<path d="M142.022 272.491L135.771 276.547C135.771 276.547 128.826 278.41 126.852 284.329C127.875 277.022 133.651 271.505 142.022 272.491Z" fill="#A3C02D"/>
</g>
<g style="mix-blend-mode:multiply">
<path d="M120.123 267.084L116.358 273.478C116.358 273.478 111.021 278.301 111.935 284.476C109.522 277.461 112.191 269.934 120.123 267.084Z" fill="#A3C02D"/>
</g>
<g style="mix-blend-mode:multiply">
<path d="M137.343 281.553C136.465 286.229 130.251 288.568 126.486 285.608C123.123 288.604 117.274 288.495 114.021 285.462C111.9 288.641 107.039 289.956 103.529 288.202C100.788 291.856 94.3905 290.577 93.2573 286.156C92.9283 291.418 99.9468 294.304 103.42 290.468C106.783 292.514 111.718 291.637 114.13 288.641C117.091 291.966 122.903 292.55 126.522 289.883C131.896 294.889 140.815 288.129 137.343 281.553Z" fill="#A3C02D"/>
</g>
</g>
<mask id="mask23_3963_85652" style="mask-type:luminance" maskUnits="userSpaceOnUse" x="36" y="271" width="41" height="19">
<path d="M69.9578 276.154C69.5215 276.154 69.0987 276.196 68.6893 276.281C66.2292 270.571 57.3207 269.858 53.9868 275.123C50.1193 271.59 43.1519 273.633 41.7774 278.631C31.436 279.025 37.4018 294.276 45.2648 287.601C48.2513 289.442 52.6635 288.649 54.824 285.986C57.4669 288.938 62.6614 289.486 65.8746 287.086C75.0572 293.867 81.363 277.071 69.9578 276.154Z" fill="white"/>
</mask>
<g mask="url(#mask23_3963_85652)">
<path d="M69.574 280.055C69.5009 291.236 52.4662 291.236 52.4297 280.055C52.4662 268.838 69.5375 268.838 69.574 280.055Z" fill="#769914"/>
<path d="M76.1906 282.394C76.3003 290.469 63.6157 290.469 63.7253 282.394C63.6157 274.283 76.3003 274.283 76.1906 282.394Z" fill="#769914"/>
<path d="M56.7078 280.968C56.6712 290.98 41.4643 290.98 41.4277 280.968C41.4643 270.957 56.6712 270.957 56.7078 280.968Z" fill="#769914"/>
<path d="M46.7635 283.892C46.8731 290.761 36.0894 290.761 36.1625 283.892C36.0894 277.06 46.8731 277.023 46.7635 283.892Z" fill="#769914"/>
<g style="mix-blend-mode:multiply">
<path d="M77.1413 271.47L72.1698 274.685C72.1698 274.685 66.65 276.183 65.0781 280.896C65.8092 275.16 70.598 270.629 77.1413 271.47Z" fill="#A3C02D"/>
</g>
<g style="mix-blend-mode:multiply">
<path d="M59.4105 267.268L56.2668 272.273C56.2668 272.273 51.9167 275.963 52.4651 280.896C50.7104 275.379 53.1231 269.277 59.4105 267.268Z" fill="#A3C02D"/>
</g>
<g style="mix-blend-mode:multiply">
<path d="M75.2395 279.105C75.4953 284.111 69.2079 287.29 65.333 284.221C62.2989 286.851 57.1081 286.705 54.2203 283.965C52.2828 286.815 47.9328 287.947 44.8256 286.34C42.9978 288.715 38.9037 288.861 36.9297 286.632C38.5016 289.519 43.071 290.067 45.2643 287.619C48.2618 289.445 52.6484 288.642 54.8417 285.974C57.4737 288.934 62.6645 289.482 65.8813 287.071C70.9625 291.784 79.0777 284.915 75.2395 279.105Z" fill="#A3C02D"/>
</g>
</g>
<mask id="mask24_3963_85652" style="mask-type:luminance" maskUnits="userSpaceOnUse" x="26" y="243" width="53" height="25">
<path d="M70.5031 251.545C70.1034 251.55 69.7123 251.583 69.3297 251.644C66.4528 240.204 49.0781 240.968 47.2467 252.652C43.2549 250.117 37.3805 252.196 35.8086 256.54C31.8899 254.052 26.3372 257.157 26.4688 261.842C26.2568 267.786 34.6352 270.263 37.7461 265.334C41.4308 269.116 48.6102 267.622 50.5038 262.755C53.8449 266.222 60.0447 267.001 64.1754 264.377C75.2443 275.919 86.4411 253.347 70.5031 251.545Z" fill="white"/>
</mask>
<g mask="url(#mask24_3963_85652)">
<path d="M69.7188 254.626C69.6457 269.46 47.1278 269.46 47.0547 254.626C47.1278 239.828 69.6823 239.828 69.7188 254.626Z" fill="#769914"/>
<path d="M51.1875 259.522C51.1509 269.971 35.286 269.971 35.2129 259.522C35.286 249.109 51.1509 249.109 51.1875 259.522Z" fill="#769914"/>
<path d="M78.4922 259.522C78.4556 269.971 62.5541 269.971 62.5176 259.522C62.5541 249.109 78.4556 249.109 78.4922 259.522Z" fill="#769914"/>
<path d="M38.831 261.86C38.9406 269.861 26.3657 269.861 26.4753 261.86C26.3657 253.822 38.9406 253.822 38.831 261.86Z" fill="#769914"/>
<g style="mix-blend-mode:multiply">
<path d="M76.4103 247.427L71.5484 250.57C71.5484 250.57 66.1383 252.068 64.5664 256.708C65.2975 251.044 70.0131 246.587 76.4103 247.427Z" fill="#A3C02D"/>
</g>
<g style="mix-blend-mode:multiply">
<path d="M43.1432 247.793L39.5974 252.397C39.5974 252.397 35.2108 254.114 35.028 260.435C33.8582 254.881 36.8192 249.108 43.1432 247.793Z" fill="#A3C02D"/>
</g>
<g style="mix-blend-mode:multiply">
<path d="M76.3004 254.041C76.9584 260.983 67.7099 265.221 62.8481 260.289C59.2291 263.541 52.9782 263.796 49.1034 260.91C48.226 264.819 43.876 267.669 39.8184 266.756C43.7298 268.729 48.9206 266.683 50.4925 262.737C53.8555 266.208 60.0333 267.012 64.1641 264.381C70.9268 273.04 83.7942 262.079 76.3004 254.041Z" fill="#A3C02D"/>
</g>
</g>
<path d="M76.8835 340.195C76.8835 340.195 76.4448 333.947 73.1914 331.098C73.1914 331.098 77.7974 334.897 78.1263 335.665C78.1263 335.665 77.4318 329.709 76.1158 328.138C76.1158 328.138 79.0402 330.696 79.6251 332.084C79.6251 332.084 78.7112 327.773 77.8339 326.348C77.8339 326.348 80.4659 330.001 80.868 332.523C80.868 332.523 81.3067 325.654 80.4293 322.986C80.4293 322.986 82.8054 330.476 82.8054 333.801C82.8054 333.801 82.9151 327.407 84.7794 324.996C84.7794 324.996 84.4138 331.207 84.7063 333.472C84.7063 333.472 85.6202 330.148 85.5836 328.102C85.5836 328.102 86.7534 332.303 86.3878 334.349C86.3878 334.349 88.0328 330.586 87.3382 325.434C87.3382 325.434 88.7273 329.453 88.6177 332.815C88.6177 332.815 89.7509 329.855 91.2496 328.175C91.2496 328.175 89.2391 333.655 89.2026 335.409C89.2026 335.409 90.0068 333.253 91.5421 332.303C91.5421 332.303 89.5681 335.957 89.1294 337.565C89.1294 337.565 90.811 335.299 93.5161 334.422C93.5161 334.422 90.5185 338.149 90.4454 340.195H76.8835Z" fill="#769914"/>
<path d="M87.0081 340.158C87.0081 340.158 86.7156 335.811 84.4492 333.801C84.4492 333.801 87.6661 336.468 87.8854 337.016C87.8854 337.016 87.4102 332.851 86.4963 331.718C86.4963 331.718 88.5068 333.545 88.9455 334.495C88.9455 334.495 88.2875 331.499 87.6661 330.513C87.6661 330.513 89.5304 333.034 89.7863 334.824C89.7863 334.824 90.1153 330.001 89.4938 328.138C89.4938 328.138 91.1753 333.363 91.1753 335.701C91.1753 335.701 91.2485 331.243 92.5644 329.526C92.5644 329.526 92.272 333.874 92.4913 335.482C92.4913 335.482 93.1493 333.143 93.1128 331.718C93.1128 331.718 93.917 334.678 93.6977 336.103C93.6977 336.103 94.8309 333.472 94.3191 329.855C94.3191 329.855 95.3061 332.668 95.233 335.007C95.233 335.007 96.0372 332.961 97.0973 331.791C97.0973 331.791 95.6716 335.628 95.6351 336.834C95.6351 336.834 96.22 335.336 97.2801 334.641C97.2801 334.641 95.891 337.235 95.5985 338.332C95.5985 338.332 96.7683 336.76 98.6691 336.139C98.6691 336.139 96.549 338.733 96.5124 340.158H87.0081Z" fill="#769914"/>
<path d="M55.769 305.458L53.2832 412.183H65.1636L57.7429 302.974L55.769 305.458Z" fill="#331C10"/>
<path d="M71.5966 304.472L57.7422 323.727L58.254 328.184L71.5966 304.472Z" fill="#331C10"/>
<path d="M43.4141 304.946L57.2685 329.171L56.2815 335.09L43.4141 303.96V304.946Z" fill="#331C10"/>
<path d="M33.0315 329.683L57.7427 359.314V364.758L40.9274 344.992L20.1641 333.117L40.4521 342.507L33.0315 329.683Z" fill="#331C10"/>
<path d="M82.4527 333.628L59.2402 353.87V359.825L82.4527 333.628Z" fill="#331C10"/>
<path d="M68.125 348.426L69.2217 347.915L94.4812 335.784L70.5742 345.138L68.125 348.426Z" fill="#331C10"/>
<path d="M59.7175 374.623L73.0601 364.246L82.1257 354.966L75.0706 365.233L96.5285 355.075L76.0576 366.731L59.7175 381.053L58.7305 374.148" fill="#331C10"/>
<path d="M21.1875 356.72L39.4651 372.175L57.2674 381.565L57.7426 377.108L40.9273 370.202L35.9923 352.884L38.4781 368.193L21.1875 356.72Z" fill="#331C10"/>
<path d="M43.4141 304.946L44.8763 307.541L43.4141 303.96V304.946Z" fill="#331C10"/>
<path d="M96.5277 355.076L75.0698 365.233L82.125 354.966L73.0593 364.246L62.4583 372.504L61.4348 357.304L70.208 347.439L94.4806 335.784L73.1324 344.151L82.454 333.628L61.1058 352.262L59.3146 326.248L71.5971 304.472L59.0221 321.936L57.7427 302.974L55.7688 305.458L55.2935 325.736L44.8753 307.541C55.1107 332.715 55.9515 327.636 54.599 355.551L33.0315 329.682L40.4522 342.507L20.1641 333.117L40.9274 344.991L54.4893 360.922L54.1603 375.61L40.9274 370.202L35.9924 352.883L38.4782 368.193L21.1876 356.72L39.4652 372.175L54.0507 379.848L53.283 412.183H65.1634L62.8604 378.313L76.0568 366.731L96.5277 355.076Z" fill="#331C10"/>
<g style="mix-blend-mode:multiply">
<path d="M43.4141 304.946L44.8763 307.541L43.4141 303.96V304.946Z" fill="#331C10"/>
<path d="M62.861 378.313L76.0574 366.731L96.5283 355.075L74.0469 366.731L61.216 377.107L58.0723 412.183H65.1639L62.861 378.313Z" fill="#331C10"/>
<path d="M59.2417 353.87L59.8266 373.563L62.3855 371.225L61.4351 357.304L70.2083 347.439L94.4809 335.784L73.1327 344.151L82.4542 333.628L61.1061 352.262L59.3148 326.248L71.5974 304.472L58.1816 325.663L59.2417 353.87Z" fill="#331C10"/>
</g>
<mask id="mask25_3963_85652" style="mask-type:luminance" maskUnits="userSpaceOnUse" x="17" y="279" width="82" height="34">
<path d="M88.4182 292.33C87.1315 292.33 85.9069 292.575 84.77 293.006C81.8054 286.638 73.1089 283.525 66.6643 286.817C59.2911 274.493 38.4766 278.417 36.1883 292.656C31.586 291.384 26.4902 293.858 24.5126 297.964C12.5993 299.627 18.5651 317.599 29.1112 311.775C33.2858 314.008 39.0798 312.587 41.7776 308.863C47.407 313.997 57.4085 314.132 63.1769 309.134C67.7061 313.727 76.2454 314.074 81.1364 309.824C96.0984 322.251 107.829 294.219 88.4182 292.33Z" fill="white"/>
</mask>
<g mask="url(#mask25_3963_85652)">
<path d="M88.4112 292.342C87.1318 292.342 85.8889 292.561 84.7557 292.999C81.7948 286.642 73.0946 283.536 66.6609 286.825C59.2768 274.511 38.4769 278.421 36.174 292.67C31.568 291.392 26.4868 293.876 24.5129 297.968C12.5959 299.613 18.5544 317.589 29.1188 311.779C33.2861 314.008 39.0984 312.583 41.7669 308.856C47.3964 314.008 57.4125 314.118 63.1882 309.149C67.721 313.716 76.2384 314.081 81.1368 309.806C96.0878 322.266 107.822 294.205 88.4112 292.342Z" fill="#769914"/>
<g style="mix-blend-mode:multiply">
<path d="M94.8806 294.607C98.0975 304.18 85.4494 312.072 78.2481 305.203C73.6421 309.77 65.0882 309.99 60.2629 305.678C54.8528 311.049 44.8367 311.561 38.9147 306.774C36.429 310.684 30.763 312.474 26.4495 310.501C25.0604 311.488 23.1961 311.999 21.4414 311.78C23.6347 313.205 26.8881 313.205 29.118 311.78C33.2853 314.009 39.0975 312.584 41.766 308.857C47.3955 314.009 57.4116 314.118 63.1874 309.149C67.7202 313.716 76.2375 314.082 81.1359 309.807C91.2251 319.745 105.774 303.596 94.8806 294.607Z" fill="#A3C02D"/>
</g>
<g style="mix-blend-mode:multiply">
<path d="M72.545 282.988L66.6596 286.825C66.6596 286.825 60.1163 288.615 58.252 294.205C59.2024 287.263 64.6491 282.075 72.545 282.988Z" fill="#A3C02D"/>
</g>
<g style="mix-blend-mode:multiply">
<path d="M94.9546 287.372L89.0692 291.172C89.0692 291.172 82.4893 292.962 80.625 298.553C81.612 291.61 87.0587 286.422 94.9546 287.372Z" fill="#A3C02D"/>
</g>
</g>
<mask id="mask26_3963_85652" style="mask-type:luminance" maskUnits="userSpaceOnUse" x="66" y="316" width="41" height="24">
<path d="M97.9172 322.306C97.3177 322.306 96.7352 322.364 96.1698 322.481C91.5091 311.914 74.2843 314.965 73.7067 326.646C60.2179 327.077 68.7681 346.599 78.2249 337.041C81.9938 340.18 88.3178 340.366 92.2694 337.436C104.976 346.811 113.691 323.577 97.9172 322.306Z" fill="white"/>
</mask>
<g mask="url(#mask26_3963_85652)">
<path d="M97.3688 327.71C97.1129 343.275 73.937 343.275 73.6445 327.71C73.937 312.108 97.1129 312.108 97.3688 327.71Z" fill="#769914"/>
<path d="M106.543 330.925C106.507 342.215 89.3256 342.215 89.2891 330.925C89.3256 319.636 106.507 319.636 106.543 330.925Z" fill="#769914"/>
<path d="M79.6019 333.081C79.7115 341.485 66.5151 341.485 66.6614 333.081C66.5151 324.677 79.7115 324.677 79.6019 333.081Z" fill="#769914"/>
<g style="mix-blend-mode:multiply">
<path d="M102.228 318.538L97.1104 321.827C97.1104 321.827 91.4444 323.398 89.8359 328.221C90.567 322.302 95.502 317.662 102.228 318.538Z" fill="#A3C02D"/>
</g>
<g style="mix-blend-mode:multiply">
<path d="M104.242 325.079C106.143 332.387 97.1867 338.415 91.1185 334.14C87.6092 337.575 81.3218 338.269 77.1545 335.675C75.8751 338.086 72.6582 339.475 69.9531 338.707C72.5851 340.315 76.4599 339.475 78.2146 337.027C81.9797 340.169 88.3038 340.352 92.2883 337.429C100.111 344.553 111.626 332.679 104.242 325.079Z" fill="#A3C02D"/>
</g>
</g>
<mask id="mask27_3963_85652" style="mask-type:luminance" maskUnits="userSpaceOnUse" x="67" y="345" width="45" height="21">
<path d="M104.96 350.643C104.47 350.643 103.997 350.692 103.538 350.789C100.786 344.392 90.8098 343.595 87.0776 349.492C82.7458 345.535 74.9449 347.819 73.4059 353.42C61.8289 353.859 68.5039 370.94 77.3137 363.461C80.6548 365.521 85.5934 364.633 88.017 361.652C90.9707 364.959 96.7903 365.572 100.391 362.887C110.67 370.479 117.729 351.674 104.96 350.643Z" fill="white"/>
</mask>
<g mask="url(#mask27_3963_85652)">
<path d="M104.527 355.002C104.454 367.534 85.3725 367.534 85.3359 355.002C85.3725 342.469 104.454 342.469 104.527 355.002Z" fill="#769914"/>
<path d="M111.95 357.633C112.059 366.658 97.8393 366.658 97.9855 357.633C97.8393 348.572 112.059 348.572 111.95 357.633Z" fill="#769914"/>
<path d="M90.1287 356.025C90.0922 367.242 73.0575 367.242 72.9844 356.025C73.0575 344.845 90.0922 344.845 90.1287 356.025Z" fill="#769914"/>
<path d="M79.014 359.313C79.1236 367.023 67.0239 367.023 67.1336 359.313C67.0239 351.64 79.1236 351.64 79.014 359.313Z" fill="#769914"/>
<g style="mix-blend-mode:multiply">
<path d="M115.897 345.502L109.646 349.558C109.646 349.558 102.701 351.421 100.727 357.34C101.75 350.033 107.526 344.516 115.897 345.502Z" fill="#A3C02D"/>
</g>
<g style="mix-blend-mode:multiply">
<path d="M93.9982 340.095L90.2331 346.489C90.2331 346.489 84.896 351.312 85.8099 357.486C83.3972 350.471 86.0658 342.945 93.9982 340.095Z" fill="#A3C02D"/>
</g>
<g style="mix-blend-mode:multiply">
<path d="M111.218 354.563C110.34 359.24 104.126 361.579 100.361 358.619C96.9978 361.615 91.149 361.506 87.8956 358.473C85.7754 361.652 80.9135 362.967 77.4042 361.213C74.6626 364.867 68.2655 363.588 67.1323 359.167C66.8033 364.429 73.8218 367.315 77.2946 363.479C80.6577 365.525 85.5926 364.648 88.0052 361.652C90.9662 364.977 96.7785 365.561 100.397 362.894C105.771 367.9 114.69 361.14 111.218 354.563Z" fill="#A3C02D"/>
</g>
</g>
<mask id="mask28_3963_85652" style="mask-type:luminance" maskUnits="userSpaceOnUse" x="10" y="344" width="40" height="19">
<path d="M43.8328 349.164C43.3965 349.164 42.9737 349.207 42.5643 349.292C40.1042 343.581 31.1957 342.869 27.8618 348.134C23.9943 344.601 17.0269 346.643 15.6524 351.642C5.31099 352.036 11.2768 367.287 19.1398 360.611C22.1263 362.453 26.5385 361.66 28.699 358.996C31.3419 361.949 36.5364 362.497 39.7496 360.096C48.9322 366.878 55.238 350.081 43.8328 349.164Z" fill="white"/>
</mask>
<g mask="url(#mask28_3963_85652)">
<path d="M43.449 353.066C43.3759 364.246 26.3412 364.246 26.3047 353.066C26.3412 341.849 43.4125 341.849 43.449 353.066Z" fill="#769914"/>
<path d="M50.0656 355.405C50.1753 363.479 37.4907 363.479 37.6003 355.405C37.4907 347.293 50.1753 347.293 50.0656 355.405Z" fill="#769914"/>
<path d="M30.5828 353.979C30.5462 363.99 15.3393 363.99 15.3027 353.979C15.3393 343.968 30.5462 343.968 30.5828 353.979Z" fill="#769914"/>
<path d="M20.6385 356.903C20.7481 363.772 9.96437 363.772 10.0375 356.903C9.96437 350.07 20.7481 350.034 20.6385 356.903Z" fill="#769914"/>
<g style="mix-blend-mode:multiply">
<path d="M51.0163 344.481L46.0448 347.696C46.0448 347.696 40.525 349.194 38.9531 353.907C39.6842 348.171 44.473 343.64 51.0163 344.481Z" fill="#A3C02D"/>
</g>
<g style="mix-blend-mode:multiply">
<path d="M33.2855 340.278L30.1418 345.284C30.1418 345.284 25.7917 348.974 26.3401 353.907C24.5854 348.39 26.9981 342.288 33.2855 340.278Z" fill="#A3C02D"/>
</g>
<g style="mix-blend-mode:multiply">
<path d="M49.1145 352.116C49.3703 357.122 43.0829 360.301 39.208 357.231C36.1739 359.862 30.9831 359.716 28.0953 356.976C26.1578 359.826 21.8078 360.958 18.7006 359.351C16.8728 361.725 12.7787 361.872 10.8047 359.643C12.3766 362.529 16.946 363.077 19.1393 360.629C22.1368 362.456 26.5234 361.652 28.7167 358.985C31.3487 361.945 36.5395 362.493 39.7563 360.081C44.8375 364.795 52.9527 357.926 49.1145 352.116Z" fill="#A3C02D"/>
</g>
</g>
<mask id="mask29_3963_85652" style="mask-type:luminance" maskUnits="userSpaceOnUse" x="0" y="316" width="53" height="25">
<path d="M44.3781 324.556C43.9784 324.561 43.5873 324.594 43.2047 324.655C40.3278 313.215 22.9531 313.979 21.1217 325.663C17.1299 323.128 11.2555 325.206 9.68362 329.551C5.76491 327.063 0.212196 330.168 0.343795 334.852C0.131775 340.797 8.51021 343.274 11.6211 338.345C15.3058 342.127 22.4852 340.632 24.3788 335.766C27.7199 339.233 33.9197 340.011 38.0504 337.388C49.1193 348.93 60.3161 326.357 44.3781 324.556Z" fill="white"/>
</mask>
<g mask="url(#mask29_3963_85652)">
<path d="M43.5938 327.636C43.5207 342.47 21.0028 342.47 20.9297 327.636C21.0028 312.839 43.5573 312.839 43.5938 327.636Z" fill="#769914"/>
<path d="M25.0625 332.532C25.0259 342.982 9.161 342.982 9.08789 332.532C9.161 322.119 25.0259 322.119 25.0625 332.532Z" fill="#769914"/>
<path d="M52.3672 332.532C52.3306 342.982 36.4291 342.982 36.3926 332.532C36.4291 322.119 52.3306 322.119 52.3672 332.532Z" fill="#769914"/>
<path d="M12.706 334.87C12.8156 342.872 0.240657 342.872 0.350323 334.87C0.240657 326.832 12.8156 326.832 12.706 334.87Z" fill="#769914"/>
<g style="mix-blend-mode:multiply">
<path d="M50.2853 320.438L45.4234 323.58C45.4234 323.58 40.0133 325.078 38.4414 329.718C39.1725 324.055 43.8881 319.598 50.2853 320.438Z" fill="#A3C02D"/>
</g>
<g style="mix-blend-mode:multiply">
<path d="M17.0182 320.804L13.4724 325.407C13.4724 325.407 9.08579 327.125 8.90301 333.446C7.73325 327.892 10.6942 322.119 17.0182 320.804Z" fill="#A3C02D"/>
</g>
<g style="mix-blend-mode:multiply">
<path d="M50.1754 327.052C50.8334 333.994 41.5849 338.232 36.7231 333.3C33.1041 336.551 26.8532 336.807 22.9784 333.921C22.101 337.83 17.751 340.68 13.6934 339.767C17.6048 341.74 22.7956 339.694 24.3675 335.748C27.7305 339.219 33.9083 340.022 38.0391 337.392C44.8018 346.051 57.6692 335.09 50.1754 327.052Z" fill="#A3C02D"/>
</g>
</g>
<path d="M50.7585 413.206C50.7585 413.206 50.3198 406.958 47.0664 404.108C47.0664 404.108 51.6724 407.908 52.0013 408.675C52.0013 408.675 51.3068 402.72 49.9908 401.149C49.9908 401.149 52.9152 403.706 53.5001 405.095C53.5001 405.095 52.5862 400.783 51.7089 399.358C51.7089 399.358 54.3409 403.012 54.743 405.533C54.743 405.533 55.1817 398.664 54.3043 395.997C54.3043 395.997 56.6804 403.487 56.6804 406.812C56.6804 406.812 56.7901 400.418 58.6544 398.007C58.6544 398.007 58.2888 404.218 58.5813 406.483C58.5813 406.483 59.4952 403.158 59.4586 401.112C59.4586 401.112 60.6284 405.314 60.2628 407.36C60.2628 407.36 61.9078 403.597 61.2132 398.445C61.2132 398.445 62.6023 402.464 62.4927 405.826C62.4927 405.826 63.6259 402.866 65.1246 401.185C65.1246 401.185 63.1141 406.666 63.0776 408.42C63.0776 408.42 63.8818 406.264 65.4171 405.314C65.4171 405.314 63.4431 408.968 63.0044 410.575C63.0044 410.575 64.686 408.31 67.3911 407.433C67.3911 407.433 64.3935 411.16 64.3204 413.206H50.7585Z" fill="#769914"/>
<path d="M60.885 413.169C60.885 413.169 60.5926 408.821 58.3262 406.812C58.3262 406.812 61.543 409.479 61.7623 410.027C61.7623 410.027 61.2871 405.862 60.3732 404.729C60.3732 404.729 62.3838 406.556 62.8224 407.506C62.8224 407.506 62.1645 404.51 61.543 403.523C61.543 403.523 63.4073 406.044 63.6632 407.835C63.6632 407.835 63.9922 403.012 63.3708 401.148C63.3708 401.148 65.0523 406.373 65.0523 408.712C65.0523 408.712 65.1254 404.254 66.4414 402.537C66.4414 402.537 66.149 406.885 66.3683 408.492C66.3683 408.492 67.0263 406.154 66.9897 404.729C66.9897 404.729 67.7939 407.689 67.5746 409.114C67.5746 409.114 68.7078 406.483 68.1961 402.866C68.1961 402.866 69.183 405.679 69.1099 408.017C69.1099 408.017 69.9141 405.971 70.9742 404.802C70.9742 404.802 69.5486 408.639 69.512 409.844C69.512 409.844 70.0969 408.346 71.157 407.652C71.157 407.652 69.7679 410.246 69.4755 411.342C69.4755 411.342 70.6452 409.771 72.5461 409.15C72.5461 409.15 70.4259 411.744 70.3894 413.169H60.885Z" fill="#769914"/>
<path d="M120.287 266.022L117.801 372.747H129.681L122.261 263.537L120.287 266.022Z" fill="#331C10"/>
<path d="M136.112 265.035L122.258 284.29L122.77 288.748L136.112 265.035Z" fill="#331C10"/>
<path d="M107.93 265.51L121.784 289.734L120.797 295.653L107.93 264.523V265.51Z" fill="#331C10"/>
<path d="M97.5471 290.246L122.258 319.878V325.322L105.443 305.555L84.6797 293.681L104.968 303.071L97.5471 290.246Z" fill="#331C10"/>
<path d="M146.97 294.191L123.758 314.433V320.389L146.97 294.191Z" fill="#331C10"/>
<path d="M132.641 308.99L133.737 308.478L158.997 296.348L135.09 305.701L132.641 308.99Z" fill="#331C10"/>
<path d="M124.233 335.186L137.576 324.81L146.641 315.529L139.586 325.796L161.044 315.639L140.573 327.294L124.233 341.617L123.246 334.711" fill="#331C10"/>
<path d="M85.7031 317.284L103.981 332.739L121.783 342.129L122.258 337.671L105.443 330.766L100.508 313.447L102.994 328.756L85.7031 317.284Z" fill="#331C10"/>
<path d="M107.93 265.51L109.392 268.104L107.93 264.523V265.51Z" fill="#331C10"/>
<path d="M161.043 315.639L139.585 325.796L146.641 315.53L137.575 324.81L126.974 333.067L125.95 317.868L134.724 308.003L158.996 296.347L137.648 304.715L146.97 294.192L125.621 312.826L123.83 286.811L136.113 265.035L123.538 282.5L122.258 263.537L120.284 266.022L119.809 286.3L109.391 268.104C119.626 293.278 120.467 288.2 119.115 316.114L97.5471 290.246L104.968 303.07L84.6797 293.68L105.443 305.555L119.005 321.485L118.676 336.173L105.443 330.766L100.508 313.447L102.994 328.756L85.7032 317.283L103.981 332.739L118.566 340.411L117.799 372.747H129.679L127.376 338.877L140.572 327.294L161.043 315.639Z" fill="#331C10"/>
<g style="mix-blend-mode:multiply">
<path d="M107.93 265.51L109.392 268.104L107.93 264.523V265.51Z" fill="#331C10"/>
<path d="M127.379 338.876L140.575 327.294L161.046 315.639L138.564 327.294L125.734 337.671L122.59 372.746H129.682L127.379 338.876Z" fill="#331C10"/>
<path d="M123.759 314.433L124.344 334.127L126.903 331.789L125.953 317.868L134.726 308.003L158.998 296.348L137.65 304.715L146.972 294.192L125.624 312.826L123.832 286.811L136.115 265.035L122.699 286.227L123.759 314.433Z" fill="#331C10"/>
</g>
<mask id="mask30_3963_85652" style="mask-type:luminance" maskUnits="userSpaceOnUse" x="82" y="240" width="82" height="34">
<path d="M152.936 252.894C151.649 252.894 150.424 253.139 149.288 253.57C146.323 247.201 137.627 244.088 131.182 247.38C123.809 235.056 102.994 238.98 100.706 253.219C96.1036 251.948 91.0078 254.421 89.0301 258.528C77.1168 260.19 83.0826 278.163 93.6288 272.339C97.8034 274.571 103.597 273.15 106.295 269.427C111.925 274.56 121.926 274.696 127.694 269.697C132.224 274.29 140.763 274.637 145.654 270.388C160.616 282.814 172.347 254.783 152.936 252.894Z" fill="white"/>
</mask>
<g mask="url(#mask30_3963_85652)">
<path d="M152.929 252.905C151.649 252.905 150.407 253.124 149.273 253.563C146.312 247.205 137.612 244.1 131.179 247.388C123.794 235.075 102.995 238.984 100.692 253.234C96.0856 251.955 91.0044 254.44 89.0305 258.532C77.1135 260.176 83.072 278.152 93.6364 272.343C97.8037 274.572 103.616 273.147 106.284 269.42C111.914 274.572 121.93 274.681 127.706 269.712C132.239 274.279 140.756 274.645 145.654 270.37C160.605 282.829 172.34 254.769 152.929 252.905Z" fill="#769914"/>
<g style="mix-blend-mode:multiply">
<path d="M159.4 255.171C162.617 264.744 149.969 272.636 142.768 265.767C138.162 270.334 129.608 270.553 124.782 266.242C119.372 271.613 109.356 272.124 103.434 267.338C100.949 271.247 95.2825 273.038 90.969 271.065C89.5799 272.051 87.7156 272.563 85.9609 272.343C88.1542 273.768 91.4077 273.768 93.6375 272.343C97.8048 274.572 103.617 273.147 106.286 269.42C111.915 274.572 121.931 274.682 127.707 269.713C132.24 274.28 140.757 274.645 145.655 270.37C155.745 280.308 170.294 264.159 159.4 255.171Z" fill="#A3C02D"/>
</g>
<g style="mix-blend-mode:multiply">
<path d="M137.063 243.552L131.177 247.388C131.177 247.388 124.634 249.178 122.77 254.769C123.72 247.827 129.167 242.638 137.063 243.552Z" fill="#A3C02D"/>
</g>
<g style="mix-blend-mode:multiply">
<path d="M159.47 247.936L153.585 251.735C153.585 251.735 147.005 253.526 145.141 259.116C146.128 252.174 151.574 246.986 159.47 247.936Z" fill="#A3C02D"/>
</g>
</g>
<mask id="mask31_3963_85652" style="mask-type:luminance" maskUnits="userSpaceOnUse" x="131" y="276" width="40" height="25">
<path d="M162.433 282.869C161.833 282.869 161.251 282.927 160.685 283.044C156.025 272.478 138.8 275.529 138.222 287.21C124.733 287.641 133.284 307.163 142.741 297.604C146.509 300.743 152.833 300.929 156.785 297.999C169.492 307.375 178.206 284.141 162.433 282.869Z" fill="white"/>
</mask>
<g mask="url(#mask31_3963_85652)">
<path d="M161.884 288.273C161.629 303.838 138.453 303.838 138.16 288.273C138.453 272.672 161.629 272.672 161.884 288.273Z" fill="#769914"/>
<path d="M171.059 291.489C171.022 302.779 153.841 302.779 153.805 291.489C153.841 280.199 171.022 280.199 171.059 291.489Z" fill="#769914"/>
<path d="M144.117 293.644C144.227 302.048 131.031 302.048 131.177 293.644C131.031 285.241 144.227 285.241 144.117 293.644Z" fill="#769914"/>
<g style="mix-blend-mode:multiply">
<path d="M166.744 279.102L161.626 282.39C161.626 282.39 155.96 283.961 154.352 288.784C155.083 282.865 160.018 278.225 166.744 279.102Z" fill="#A3C02D"/>
</g>
<g style="mix-blend-mode:multiply">
<path d="M168.757 285.643C170.658 292.95 161.702 298.979 155.634 294.704C152.125 298.138 145.837 298.832 141.67 296.238C140.391 298.65 137.174 300.038 134.469 299.271C137.101 300.879 140.976 300.038 142.73 297.59C146.495 300.732 152.819 300.915 156.804 297.992C164.627 305.117 176.142 293.242 168.757 285.643Z" fill="#A3C02D"/>
</g>
</g>
<mask id="mask32_3963_85652" style="mask-type:luminance" maskUnits="userSpaceOnUse" x="131" y="306" width="46" height="20">
<path d="M169.476 311.207C168.986 311.207 168.512 311.256 168.054 311.353C165.301 304.955 155.325 304.159 151.593 310.056C147.261 306.099 139.461 308.382 137.922 313.984C126.345 314.422 133.02 331.503 141.829 324.024C145.17 326.085 150.109 325.197 152.533 322.215C155.486 325.522 161.306 326.136 164.907 323.45C175.186 331.043 182.245 312.237 169.476 311.207Z" fill="white"/>
</mask>
<g mask="url(#mask32_3963_85652)">
<path d="M169.043 315.565C168.97 328.097 149.888 328.097 149.852 315.565C149.888 303.033 168.97 303.033 169.043 315.565Z" fill="#769914"/>
<path d="M176.465 318.196C176.575 327.221 162.355 327.221 162.501 318.196C162.355 309.135 176.575 309.135 176.465 318.196Z" fill="#769914"/>
<path d="M154.644 316.588C154.608 327.805 137.573 327.805 137.5 316.588C137.573 305.408 154.608 305.408 154.644 316.588Z" fill="#769914"/>
<path d="M143.53 319.877C143.639 327.586 131.54 327.586 131.649 319.877C131.54 312.204 143.639 312.204 143.53 319.877Z" fill="#769914"/>
<g style="mix-blend-mode:multiply">
<path d="M180.413 306.066L174.162 310.121C174.162 310.121 167.216 311.985 165.242 317.904C166.266 310.596 172.041 305.079 180.413 306.066Z" fill="#A3C02D"/>
</g>
<g style="mix-blend-mode:multiply">
<path d="M158.514 300.658L154.749 307.052C154.749 307.052 149.412 311.875 150.325 318.05C147.913 311.035 150.581 303.508 158.514 300.658Z" fill="#A3C02D"/>
</g>
<g style="mix-blend-mode:multiply">
<path d="M175.733 315.127C174.856 319.804 168.642 322.142 164.876 319.183C161.513 322.179 155.665 322.069 152.411 319.036C150.291 322.215 145.429 323.53 141.92 321.777C139.178 325.43 132.781 324.152 131.648 319.731C131.319 324.992 138.337 327.878 141.81 324.042C145.173 326.088 150.108 325.211 152.521 322.215C155.482 325.54 161.294 326.125 164.913 323.457C170.287 328.463 179.206 321.704 175.733 315.127Z" fill="#A3C02D"/>
</g>
</g>
<mask id="mask33_3963_85652" style="mask-type:luminance" maskUnits="userSpaceOnUse" x="74" y="305" width="41" height="18">
<path d="M108.348 309.728C107.912 309.728 107.489 309.77 107.08 309.856C104.62 304.145 95.7113 303.432 92.3775 308.697C88.5099 305.164 81.5425 307.207 80.1681 312.205C69.8266 312.6 75.7924 327.85 83.6554 321.175C86.642 323.016 91.0542 322.224 93.2146 319.56C95.8575 322.512 101.052 323.06 104.265 320.66C113.448 327.441 119.754 310.645 108.348 309.728Z" fill="white"/>
</mask>
<g mask="url(#mask33_3963_85652)">
<path d="M107.961 313.629C107.888 324.81 90.853 324.81 90.8164 313.629C90.853 302.413 107.924 302.413 107.961 313.629Z" fill="#769914"/>
<path d="M114.579 315.968C114.689 324.043 102.004 324.043 102.114 315.968C102.004 307.857 114.689 307.857 114.579 315.968Z" fill="#769914"/>
<path d="M95.0964 314.543C95.0599 324.554 79.853 324.554 79.8164 314.543C79.853 304.531 95.0599 304.531 95.0964 314.543Z" fill="#769914"/>
<path d="M85.1521 317.466C85.2618 324.335 74.478 324.335 74.5512 317.466C74.478 310.634 85.2618 310.597 85.1521 317.466Z" fill="#769914"/>
<g style="mix-blend-mode:multiply">
<path d="M115.528 305.044L110.557 308.259C110.557 308.259 105.037 309.757 103.465 314.471C104.196 308.734 108.985 304.204 115.528 305.044Z" fill="#A3C02D"/>
</g>
<g style="mix-blend-mode:multiply">
<path d="M97.7992 300.842L94.6555 305.847C94.6555 305.847 90.3054 309.538 90.8537 314.47C89.0991 308.953 91.5117 302.851 97.7992 300.842Z" fill="#A3C02D"/>
</g>
<g style="mix-blend-mode:multiply">
<path d="M113.63 312.68C113.886 317.685 107.598 320.864 103.724 317.795C100.69 320.426 95.4987 320.279 92.6109 317.539C90.6735 320.389 86.3234 321.522 83.2162 319.914C81.3885 322.289 77.2943 322.435 75.3203 320.206C76.8922 323.093 81.4616 323.641 83.6549 321.193C86.6524 323.02 91.039 322.216 93.2323 319.549C95.8643 322.508 101.055 323.056 104.272 320.645C109.353 325.358 117.468 318.489 113.63 312.68Z" fill="#A3C02D"/>
</g>
</g>
<mask id="mask34_3963_85652" style="mask-type:luminance" maskUnits="userSpaceOnUse" x="64" y="277" width="53" height="25">
<path d="M108.894 285.12C108.494 285.124 108.103 285.157 107.72 285.218C104.843 273.778 87.4688 274.542 85.6373 286.227C81.6455 283.691 75.7711 285.77 74.1992 290.114C70.2805 287.626 64.7278 290.732 64.8594 295.416C64.6474 301.36 73.0258 303.838 76.1367 298.909C79.8214 302.69 87.0009 301.196 88.8944 296.329C92.2355 299.797 98.4353 300.575 102.566 297.951C113.635 309.494 124.832 286.921 108.894 285.12Z" fill="white"/>
</mask>
<g mask="url(#mask34_3963_85652)">
<path d="M108.109 288.2C108.036 303.034 85.5184 303.034 85.4453 288.2C85.5184 273.402 108.073 273.402 108.109 288.2Z" fill="#769914"/>
<path d="M89.5761 293.096C89.5396 303.546 73.6747 303.546 73.6016 293.096C73.6747 282.683 89.5396 282.683 89.5761 293.096Z" fill="#769914"/>
<path d="M116.885 293.096C116.848 303.546 100.947 303.546 100.91 293.096C100.947 282.683 116.848 282.683 116.885 293.096Z" fill="#769914"/>
<path d="M77.2216 295.434C77.3312 303.436 64.7563 303.436 64.8659 295.434C64.7563 287.396 77.3312 287.396 77.2216 295.434Z" fill="#769914"/>
<g style="mix-blend-mode:multiply">
<path d="M114.801 281.002L109.939 284.144C109.939 284.144 104.529 285.642 102.957 290.282C103.688 284.619 108.404 280.161 114.801 281.002Z" fill="#A3C02D"/>
</g>
<g style="mix-blend-mode:multiply">
<path d="M81.5339 281.367L77.988 285.971C77.988 285.971 73.6014 287.688 73.4186 294.009C72.2489 288.455 75.2098 282.683 81.5339 281.367Z" fill="#A3C02D"/>
</g>
<g style="mix-blend-mode:multiply">
<path d="M114.693 287.615C115.351 294.557 106.102 298.796 101.241 293.863C97.6217 297.115 91.3708 297.371 87.4959 294.484C86.6186 298.394 82.2686 301.244 78.2109 300.33C82.1223 302.303 87.3132 300.257 88.885 296.311C92.2481 299.782 98.4259 300.586 102.557 297.955C109.319 306.615 122.187 295.653 114.693 287.615Z" fill="#A3C02D"/>
</g>
</g>
<path d="M115.274 373.77C115.274 373.77 114.835 367.522 111.582 364.672C111.582 364.672 116.188 368.472 116.517 369.239C116.517 369.239 115.822 363.283 114.506 361.712C114.506 361.712 117.431 364.27 118.016 365.658C118.016 365.658 117.102 361.347 116.225 359.922C116.225 359.922 118.856 363.576 119.259 366.097C119.259 366.097 119.697 359.228 118.82 356.561C118.82 356.561 121.196 364.051 121.196 367.376C121.196 367.376 121.306 360.982 123.17 358.57C123.17 358.57 122.804 364.781 123.097 367.047C123.097 367.047 124.011 363.722 123.974 361.676C123.974 361.676 125.144 365.878 124.778 367.924C124.778 367.924 126.423 364.16 125.729 359.009C125.729 359.009 127.118 363.028 127.008 366.389C127.008 366.389 128.142 363.43 129.64 361.749C129.64 361.749 127.63 367.229 127.593 368.983C127.593 368.983 128.397 366.827 129.933 365.878C129.933 365.878 127.959 369.531 127.52 371.139C127.52 371.139 129.202 368.874 131.907 367.997C131.907 367.997 128.909 371.723 128.836 373.77H115.274Z" fill="#769914"/>
<path d="M125.399 373.733C125.399 373.733 125.106 369.385 122.84 367.375C122.84 367.375 126.057 370.042 126.276 370.59C126.276 370.59 125.801 366.425 124.887 365.293C124.887 365.293 126.897 367.119 127.336 368.069C127.336 368.069 126.678 365.073 126.057 364.087C126.057 364.087 127.921 366.608 128.177 368.398C128.177 368.398 128.506 363.575 127.884 361.712C127.884 361.712 129.566 366.937 129.566 369.275C129.566 369.275 129.639 364.818 130.955 363.1C130.955 363.1 130.663 367.448 130.882 369.056C130.882 369.056 131.54 366.718 131.503 365.293C131.503 365.293 132.308 368.252 132.088 369.677C132.088 369.677 133.221 367.046 132.71 363.429C132.71 363.429 133.697 366.243 133.624 368.581C133.624 368.581 134.428 366.535 135.488 365.366C135.488 365.366 134.062 369.202 134.026 370.408C134.026 370.408 134.611 368.91 135.671 368.216C135.671 368.216 134.282 370.81 133.989 371.906C133.989 371.906 135.159 370.335 137.06 369.714C137.06 369.714 134.94 372.308 134.903 373.733H125.399Z" fill="#769914"/>
</svg>
