<svg width="170" height="121" viewBox="0 0 170 121" fill="none" xmlns="http://www.w3.org/2000/svg">
<path d="M28.2553 13.274L27 68H32.9997L29.2522 12L28.2553 13.274Z" fill="#331C10"/>
<path d="M36.9999 13L30 22.7441L30.2586 24.9999L36.9999 13Z" fill="#331C10"/>
<path d="M22 13.5071L28.9999 25.9585L28.5012 29.0009L22 13V13.5071Z" fill="#331C10"/>
<path d="M16.8481 26L29.9997 41.2071V44.001L21.0504 33.8567L10 27.7626L20.7975 32.5816L16.8481 26Z" fill="#331C10"/>
<path d="M41.9999 28L30 38.0445V40.9999L41.9999 28Z" fill="#331C10"/>
<path d="M35 35L35.5825 34.7572L49 29L36.301 33.4393L35 35Z" fill="#331C10"/>
<path d="M30.5222 48.7954L37.5821 43.6246L42.379 39L38.646 44.1162L49.9998 39.0546L39.1682 44.8627L30.5222 51.9999L30 48.5587" fill="#331C10"/>
<path d="M11 40.0063L20.4999 48.0891L29.7528 52.9998L29.9998 50.6687L21.2599 47.0572L18.6949 38L19.9869 46.0063L11 40.0063Z" fill="#331C10"/>
<path d="M22 13.551L23 15L22 13V13.551Z" fill="#331C10"/>
<path d="M50 38.7166L38.7602 43.9251L42.4557 38.6604L37.707 43.4192L32.1541 47.6534L31.618 39.8595L36.2135 34.8009L48.9277 28.8244L37.7453 33.1148L42.6281 27.719L31.4457 37.274L30.5074 23.9344L36.9411 12.7682L30.3542 21.7237L29.6841 12L28.6501 13.274L28.4011 23.6721L22.944 14.3419C28.3054 27.2506 28.7458 24.6464 28.0373 38.9602L16.7401 25.6956L20.6271 32.2717L10 27.4567L20.876 33.5457L27.9799 41.7143L27.8076 49.2459L20.876 46.4731L18.291 37.5925L19.5931 45.4426L10.5361 39.5597L20.1101 47.4848L27.7501 51.4192L27.348 68H33.5711L32.3648 50.6323L39.2772 44.6932L50 38.7166Z" fill="#331C10"/>
<g style="mix-blend-mode:multiply">
<path d="M22 13.551L23 15L22 13V13.551Z" fill="#331C10"/>
<path d="M32.4905 50.8001L39.3535 44.9186L49.9998 39L38.3079 44.9186L31.635 50.1878L30 67.9993H33.6882L32.4905 50.8001Z" fill="#331C10"/>
<path d="M30.5549 38.0232L30.861 47.9992L32.2004 46.8147L31.7029 39.763L36.295 34.7658L48.9998 28.8616L37.8257 33.1L42.7048 27.7696L31.5307 37.2089L30.5931 24.0309L37.0221 13L30 23.7348L30.5549 38.0232Z" fill="#331C10"/>
</g>
<mask id="mask0_100_10855" style="mask-type:luminance" maskUnits="userSpaceOnUse" x="9" y="0" width="42" height="17">
<path d="M45.7029 6.53048C45.0328 6.53048 44.395 6.65454 43.8029 6.87302C42.259 3.64582 37.7299 2.06832 34.3736 3.73654C30.5337 -2.50863 19.6936 -0.520101 18.5018 6.69527C16.105 6.05094 13.4511 7.30442 12.4212 9.38553C6.21682 10.228 9.32378 19.3356 14.8162 16.3843C16.9903 17.5155 20.0077 16.7953 21.4127 14.9086C24.3445 17.51 29.5532 17.5785 32.5574 15.0456C34.9161 17.373 39.3633 17.5489 41.9106 15.3956C49.7027 21.6926 55.8119 7.48772 45.7029 6.53048Z" fill="white"/>
</mask>
<g mask="url(#mask0_100_10855)">
<path d="M45.703 6.53362C45.0366 6.53362 44.3893 6.64476 43.7991 6.86706C42.257 3.64376 37.7258 2.06916 34.375 3.73638C30.5292 -2.50645 19.6963 -0.524304 18.4969 6.70034C16.098 6.05197 13.4516 7.31166 12.4236 9.38643C6.21698 10.22 9.32027 19.3342 14.8224 16.3888C16.9928 17.5188 20.0199 16.7963 21.4098 14.9068C24.3417 17.5188 29.5583 17.5744 32.5664 15.055C34.9271 17.3706 39.3631 17.5558 41.9143 15.3884C49.7011 21.7054 55.8124 7.47838 45.703 6.53362Z" fill="#769914"/>
<g style="mix-blend-mode:multiply">
<path d="M48.9992 8C50.6636 12.7015 44.1192 16.5775 40.3931 13.204C38.0099 15.447 33.5839 15.5547 31.0872 13.4372C28.2878 16.0751 23.1053 16.3263 20.0411 13.9756C18.7549 15.8956 15.8232 16.7749 13.5913 15.8059C12.8725 16.2904 11.9079 16.5417 11 16.434C12.1349 17.1338 13.8183 17.1338 14.972 16.434C17.1283 17.5286 20.1357 16.8288 21.5164 14.9984C24.4293 17.5286 29.6118 17.5824 32.6003 15.142C34.9457 17.3851 39.3528 17.5645 41.8873 15.465C47.1077 20.3459 54.6357 12.4144 48.9992 8Z" fill="#A3C02D"/>
</g>
<g style="mix-blend-mode:multiply">
<path d="M37 2.05536L34.1176 4.08854C34.1176 4.08854 30.913 5.03736 30 8C30.4655 4.32091 33.133 1.57127 37 2.05536Z" fill="#A3C02D"/>
</g>
<g style="mix-blend-mode:multiply">
<path d="M49 4.05971L46.125 6.07863C46.125 6.07863 42.9107 7.02986 42 10C42.4821 6.31158 45.1429 3.55498 49 4.05971Z" fill="#A3C02D"/>
</g>
</g>
<mask id="mask1_100_10855" style="mask-type:luminance" maskUnits="userSpaceOnUse" x="35" y="19" width="21" height="12">
<path d="M51.5044 22.1949C51.1873 22.1949 50.8792 22.2246 50.5801 22.2838C48.1148 16.9266 39.0038 18.4734 38.6983 24.3956C31.5634 24.6142 36.0861 34.5117 41.0882 29.6657C43.0817 31.257 46.4268 31.3514 48.517 29.8658C55.2381 34.6191 59.8477 22.8396 51.5044 22.1949Z" fill="white"/>
</mask>
<g mask="url(#mask1_100_10855)">
<path d="M50.9999 25.007C50.8705 32.9975 39.1479 32.9975 39 25.007C39.1479 16.9977 50.8705 16.9977 50.9999 25.007Z" fill="#769914"/>
<path d="M56 26.5C55.9809 32.5 47.0191 32.5 47 26.5C47.0191 20.5 55.9809 20.5 56 26.5Z" fill="#769914"/>
<path d="M41.9996 28C42.0589 32 34.9216 32 35.0007 28C34.9216 24 42.0589 24 41.9996 28Z" fill="#769914"/>
<g style="mix-blend-mode:multiply">
<path d="M54 20.0545L51.1091 21.7341C51.1091 21.7341 47.9086 22.5366 47 25C47.413 21.9767 50.2006 19.6066 54 20.0545Z" fill="#A3C02D"/>
</g>
<g style="mix-blend-mode:multiply">
<path d="M54.771 24C55.7562 27.5176 51.1145 30.4197 47.9695 28.3619C46.1507 30.0151 42.8921 30.3493 40.7323 29.1006C40.0692 30.2614 38.402 30.9297 37 30.5604C38.3641 31.3342 40.3723 30.9297 41.2817 29.7513C43.2331 31.2639 46.5107 31.3518 48.5758 29.9448C52.6301 33.3745 58.598 27.6583 54.771 24Z" fill="#A3C02D"/>
</g>
</g>
<mask id="mask2_100_10855" style="mask-type:luminance" maskUnits="userSpaceOnUse" x="35" y="34" width="23" height="10">
<path d="M54.4531 36.5919C54.2006 36.5919 53.9562 36.6164 53.72 36.6655C52.3008 33.4434 47.1573 33.0422 45.233 36.0122C42.9995 34.0193 38.9775 35.1694 38.184 37.9904C32.215 38.2112 35.6566 46.8139 40.1988 43.0471C41.9215 44.085 44.4678 43.6378 45.7174 42.1362C47.2402 43.8016 50.2407 44.1107 52.0972 42.7582C57.3971 46.582 61.0366 37.1108 54.4531 36.5919Z" fill="white"/>
</mask>
<g mask="url(#mask2_100_10855)">
<path d="M53.9999 38.9999C53.9618 45.6665 44.019 45.6665 44 38.9999C44.019 32.3333 53.9618 32.3333 53.9999 38.9999Z" fill="#769914"/>
<path d="M57.9997 40.5071C58.0547 45.1643 50.9273 45.1643 51.0006 40.5071C50.9273 35.831 58.0547 35.831 57.9997 40.5071Z" fill="#769914"/>
<path d="M47 39.4927C46.9808 45.5024 38.0384 45.5024 38 39.4927C38.0384 33.5024 46.9808 33.5024 47 39.4927Z" fill="#769914"/>
<path d="M40.9996 40.9929C41.055 45.0024 34.945 45.0024 35.0004 40.9929C34.945 37.0024 41.055 37.0024 40.9996 40.9929Z" fill="#769914"/>
<g style="mix-blend-mode:multiply">
<path d="M60 34.0574L56.7036 36.0933C56.7036 36.0933 53.041 37.0287 52 40C52.5398 36.3317 55.5855 33.5622 60 34.0574Z" fill="#A3C02D"/>
</g>
<g style="mix-blend-mode:multiply">
<path d="M49 31L46.9187 34.3088C46.9187 34.3088 43.9684 36.8046 44.4736 40C43.1399 36.3697 44.6151 32.4748 49 31Z" fill="#A3C02D"/>
</g>
<g style="mix-blend-mode:multiply">
<path d="M57.5997 38C57.1501 40.6286 53.9652 41.9428 52.0355 40.2794C50.3119 41.9634 47.3144 41.9018 45.647 40.1973C44.5604 41.9839 42.0687 42.7232 40.2702 41.7375C38.8651 43.791 35.5865 43.0723 35.0057 40.5875C34.8371 43.5446 38.4342 45.1669 40.214 43.0107C41.9375 44.1607 44.4667 43.6678 45.7032 41.9839C47.2207 43.8526 50.1995 44.1812 52.0543 42.6821C54.8083 45.4955 59.3795 41.6964 57.5997 38Z" fill="#A3C02D"/>
</g>
</g>
<mask id="mask3_100_10855" style="mask-type:luminance" maskUnits="userSpaceOnUse" x="5" y="33" width="21" height="9">
<path d="M22.7615 35.3332C22.5315 35.3332 22.3087 35.3548 22.0928 35.3981C20.7961 32.4996 16.1003 32.138 14.3431 34.8103C12.3044 33.017 8.63187 34.0536 7.90738 36.5905C2.45632 36.7908 5.60094 44.5313 9.74559 41.1432C11.3198 42.0779 13.6455 41.6755 14.7843 40.3236C16.1774 41.822 18.9155 42.1001 20.6092 40.8818C25.4494 44.3236 28.7732 35.7987 22.7615 35.3332Z" fill="white"/>
</mask>
<g mask="url(#mask3_100_10855)">
<path d="M23 37.5073C22.9616 43.4976 14.0192 43.4976 14 37.5073C14.0192 31.4976 22.9808 31.4976 23 37.5073Z" fill="#769914"/>
<path d="M25.9996 38.0068C26.0612 41.9977 18.9388 41.9977 19.0004 38.0068C18.9388 33.9977 26.0612 33.9977 25.9996 38.0068Z" fill="#769914"/>
<path d="M16 38C15.9809 43.3333 8.01914 43.3333 8 38C8.01914 32.6667 15.9809 32.6667 16 38Z" fill="#769914"/>
<path d="M10.9995 39.4967C11.0616 42.8344 4.95883 42.8344 5.00021 39.4967C4.95883 36.1767 11.0616 36.1589 10.9995 39.4967Z" fill="#769914"/>
<g style="mix-blend-mode:multiply">
<path d="M27 33.0529L24.5273 34.7402C24.5273 34.7402 21.7818 35.5264 21 38C21.3636 34.9895 23.7455 32.6118 27 33.0529Z" fill="#A3C02D"/>
</g>
<g style="mix-blend-mode:multiply">
<path d="M17 31L15.3239 33.571C15.3239 33.571 13.0045 35.4665 13.2969 38C12.3614 35.1662 13.6477 32.0322 17 31Z" fill="#A3C02D"/>
</g>
<g style="mix-blend-mode:multiply">
<path d="M25.4667 37C25.6034 39.4875 22.2444 41.0672 20.1743 39.542C18.5533 40.8493 15.7802 40.7767 14.2374 39.4149C13.2023 40.8311 10.8783 41.394 9.21833 40.5951C8.24186 41.7753 6.05458 41.8479 5 40.7403C5.83976 42.1747 8.28092 42.4471 9.45268 41.2306C11.0541 42.1384 13.3976 41.739 14.5694 40.4135C15.9755 41.8842 18.7486 42.1566 20.4672 40.9582C23.1818 43.3005 27.5173 39.887 25.4667 37Z" fill="#A3C02D"/>
</g>
</g>
<mask id="mask4_100_10855" style="mask-type:luminance" maskUnits="userSpaceOnUse" x="0" y="19" width="27" height="13">
<path d="M22.8775 23.2882C22.6699 23.2908 22.4667 23.3082 22.2679 23.3405C20.7734 17.2704 11.7474 17.6756 10.796 23.8756C8.7223 22.5301 5.67059 23.6333 4.85402 25.9384C2.81828 24.6182 -0.0663118 26.2661 0.00205254 28.7515C-0.10809 31.9058 4.24444 33.2203 5.86049 30.6049C7.77469 32.6115 11.5043 31.8186 12.488 29.2362C14.2237 31.076 17.4444 31.489 19.5903 30.097C25.3405 36.2214 31.1572 24.244 22.8775 23.2882Z" fill="white"/>
</mask>
<g mask="url(#mask4_100_10855)">
<path d="M22.9999 24.9925C22.9612 33.0023 11.0387 33.0023 11 24.9925C11.0387 17.0025 22.9805 17.0025 22.9999 24.9925Z" fill="#769914"/>
<path d="M13 26.993C12.9817 32.3357 5.03661 32.3357 5 26.993C5.03661 21.669 12.9817 21.669 13 26.993Z" fill="#769914"/>
<path d="M27 26.993C26.9817 32.3357 19.0183 32.3357 19 26.993C19.0183 21.669 26.9817 21.669 27 26.993Z" fill="#769914"/>
<path d="M5.99965 29.0068C6.0529 32.9977 -0.052902 32.9977 0.000346271 29.0068C-0.052902 24.9977 6.0529 24.9977 5.99965 29.0068Z" fill="#769914"/>
<g style="mix-blend-mode:multiply">
<path d="M26 21.0544L23.537 22.7289C23.537 22.7289 20.7963 23.5272 20 26C20.3704 22.982 22.7593 20.6066 26 21.0544Z" fill="#A3C02D"/>
</g>
<g style="mix-blend-mode:multiply">
<path d="M8 21L6.30462 23.5491C6.30462 23.5491 4.20724 24.5 4.11985 28C3.56055 24.9249 4.97628 21.7283 8 21Z" fill="#A3C02D"/>
</g>
<g style="mix-blend-mode:multiply">
<path d="M25.827 25C26.1665 28.5965 21.3938 30.7923 18.8848 28.2369C17.0172 29.9216 13.7913 30.0541 11.7916 28.5587C11.3389 30.5841 9.09398 32.0605 7 31.5873C9.01852 32.6095 11.6973 31.5495 12.5085 29.5051C14.2441 31.3034 17.4322 31.7198 19.5639 30.3569C23.0539 34.8431 29.6943 29.1644 25.827 25Z" fill="#A3C02D"/>
</g>
</g>
<path d="M25.8166 69C25.8166 69 25.6007 65.7325 24 64.242C24 64.242 26.2662 66.2293 26.4281 66.6306C26.4281 66.6306 26.0863 63.5159 25.4388 62.6943C25.4388 62.6943 26.8777 64.0318 27.1655 64.758C27.1655 64.758 26.7158 62.5032 26.2842 61.758C26.2842 61.758 27.5791 63.6688 27.777 64.9873C27.777 64.9873 27.9928 61.3949 27.5612 60C27.5612 60 28.7302 63.9172 28.7302 65.6561C28.7302 65.6561 28.7842 62.3121 29.7014 61.051C29.7014 61.051 29.5216 64.2994 29.6655 65.4841C29.6655 65.4841 30.1151 63.7452 30.0971 62.6752C30.0971 62.6752 30.6727 64.8726 30.4928 65.9427C30.4928 65.9427 31.3022 63.9745 30.9604 61.2803C30.9604 61.2803 31.6439 63.3822 31.5899 65.1401C31.5899 65.1401 32.1475 63.5924 32.8849 62.7134C32.8849 62.7134 31.8957 65.5796 31.8777 66.4968C31.8777 66.4968 32.2734 65.3694 33.0288 64.8726C33.0288 64.8726 32.0576 66.7834 31.8417 67.6242C31.8417 67.6242 32.6691 66.4395 34 65.9809C34 65.9809 32.5252 67.9299 32.4892 69H25.8166Z" fill="#769914"/>
<path d="M31.2596 69C31.2596 69 31.1157 66.8298 30 65.8267C30 65.8267 31.5835 67.1581 31.6915 67.4316C31.6915 67.4316 31.4576 65.3526 31.0077 64.7872C31.0077 64.7872 31.9974 65.6991 32.2134 66.1733C32.2134 66.1733 31.8895 64.6778 31.5835 64.1854C31.5835 64.1854 32.5013 65.4438 32.6272 66.3374C32.6272 66.3374 32.7892 63.9301 32.4833 63C32.4833 63 33.3111 65.6079 33.3111 66.7751C33.3111 66.7751 33.347 64.5502 33.9949 63.693C33.9949 63.693 33.8509 65.8632 33.9589 66.6656C33.9589 66.6656 34.2828 65.4985 34.2648 64.7872C34.2648 64.7872 34.6607 66.2644 34.5527 66.9757C34.5527 66.9757 35.1105 65.6626 34.8586 63.8571C34.8586 63.8571 35.3445 65.2614 35.3085 66.4286C35.3085 66.4286 35.7044 65.4073 36.2262 64.8237C36.2262 64.8237 35.5244 66.7386 35.5064 67.3404C35.5064 67.3404 35.7943 66.5927 36.3162 66.2462C36.3162 66.2462 35.6324 67.541 35.4884 68.0881C35.4884 68.0881 36.0643 67.304 37 66.9939C37 66.9939 35.9563 68.2888 35.9383 69H31.2596Z" fill="#769914"/>
<path d="M67.2553 21.274L66 75.9993H71.9997L68.2522 20L67.2553 21.274Z" fill="#331C10"/>
<path d="M76 21L69 30.7442L69.2586 33L76 21Z" fill="#331C10"/>
<path d="M61 21.507L68 33.9577L67.5013 37L61 21V21.507Z" fill="#331C10"/>
<path d="M55.8483 34L69 49.2063V52L60.0506 41.8562L49 35.7625L59.7977 40.5813L55.8483 34Z" fill="#331C10"/>
<path d="M81.0001 36L69 46.0449V49.0004L81.0001 36Z" fill="#331C10"/>
<path d="M74 43.0002L74.5825 42.7574L88.0001 37L75.301 41.4394L74 43.0002Z" fill="#331C10"/>
<path d="M69.5223 56.7959L76.5824 51.6248L81.3794 47L77.6463 52.1164L89.0005 47.0546L78.1685 52.8629L69.5223 60.0005L69 56.5592" fill="#331C10"/>
<path d="M50 48.0064L59.5002 56.0895L68.7535 61.0005L69.0005 58.6692L60.2603 55.0576L57.6952 46L58.9872 54.0066L50 48.0064Z" fill="#331C10"/>
<path d="M61 21.551L62 23L61 21V21.551Z" fill="#331C10"/>
<path d="M89 46.7166L77.7602 51.9251L81.4557 46.6604L76.707 51.4192L71.1541 55.6534L70.618 47.8595L75.2135 42.8009L87.9277 36.8244L76.7453 41.1148L81.6281 35.719L70.4457 45.274L69.5074 31.9344L75.9411 20.7682L69.3542 29.7237L68.6841 20L67.6501 21.274L67.4011 31.6721L61.944 22.3419C67.3054 35.2506 67.7458 32.6464 67.0373 46.9602L55.7401 33.6956L59.6271 40.2717L49 35.4567L59.876 41.5457L66.9799 49.7143L66.8076 57.2459L59.876 54.4731L57.291 45.5925L58.5931 53.4426L49.5361 47.5597L59.1101 55.4848L66.7501 59.4192L66.348 76H72.5711L71.3648 58.6323L78.2772 52.6932L89 46.7166Z" fill="#331C10"/>
<g style="mix-blend-mode:multiply">
<path d="M61 21.551L62 23L61 21V21.551Z" fill="#331C10"/>
<path d="M71.4905 58.8004L78.3536 52.9187L89 47L77.308 52.9187L70.635 58.1881L69 76H72.6882L71.4905 58.8004Z" fill="#331C10"/>
<path d="M69.5549 46.0238L69.861 56L71.2004 54.8154L70.7029 47.7636L75.2951 42.7663L88 36.862L76.8258 41.1005L81.7049 35.77L70.5307 45.2094L69.5931 32.0312L76.0222 21L69 31.7351L69.5549 46.0238Z" fill="#331C10"/>
</g>
<mask id="mask5_100_10855" style="mask-type:luminance" maskUnits="userSpaceOnUse" x="48" y="8" width="42" height="17">
<path d="M84.7029 14.5305C84.0328 14.5305 83.395 14.6545 82.8029 14.873C81.259 11.6458 76.7299 10.0683 73.3736 11.7365C69.5337 5.49137 58.6936 7.4799 57.5018 14.6953C55.105 14.0509 52.4511 15.3044 51.4212 17.3855C45.2168 18.228 48.3238 27.3356 53.8162 24.3843C55.9903 25.5155 59.0077 24.7953 60.4127 22.9086C63.3445 25.51 68.5532 25.5785 71.5574 23.0456C73.9161 25.373 78.3633 25.5489 80.9106 23.3956C88.7027 29.6926 94.8119 15.4877 84.7029 14.5305Z" fill="white"/>
</mask>
<g mask="url(#mask5_100_10855)">
<path d="M84.703 14.5336C84.0366 14.5336 83.3893 14.6448 82.7991 14.8671C81.257 11.6438 76.7258 10.0692 73.375 11.7364C69.5292 5.49355 58.6963 7.4757 57.4969 14.7003C55.098 14.052 52.4516 15.3117 51.4236 17.3864C45.217 18.22 48.3203 27.3342 53.8224 24.3888C55.9928 25.5188 59.0199 24.7963 60.4098 22.9068C63.3417 25.5188 68.5583 25.5744 71.5664 23.055C73.9271 25.3706 78.3631 25.5558 80.9143 23.3884C88.7011 29.7054 94.8124 15.4784 84.703 14.5336Z" fill="#769914"/>
<g style="mix-blend-mode:multiply">
<path d="M87.9994 16C89.6639 20.7012 83.1195 24.577 79.3933 21.2036C77.0101 23.4465 72.584 23.5542 70.0873 21.4369C67.2879 24.0746 62.1053 24.3258 59.0412 21.9752C57.755 23.8951 54.8232 24.7744 52.5913 23.8054C51.8725 24.2899 50.9079 24.5411 50 24.4334C51.1349 25.1332 52.8183 25.1332 53.9721 24.4334C56.1283 25.528 59.1357 24.8282 60.5165 22.998C63.4294 25.528 68.612 25.5818 71.6005 23.1415C73.9459 25.3844 78.353 25.5639 80.8875 23.4645C86.108 28.3451 93.636 20.4141 87.9994 16Z" fill="#A3C02D"/>
</g>
<g style="mix-blend-mode:multiply">
<path d="M76 10.0554L73.1176 12.0885C73.1176 12.0885 69.913 13.0374 69 16C69.4655 12.3209 72.133 9.57127 76 10.0554Z" fill="#A3C02D"/>
</g>
<g style="mix-blend-mode:multiply">
<path d="M88 12.0597L85.125 14.0786C85.125 14.0786 81.9107 15.0299 81 18C81.4821 14.3116 84.1429 11.555 88 12.0597Z" fill="#A3C02D"/>
</g>
</g>
<mask id="mask6_100_10855" style="mask-type:luminance" maskUnits="userSpaceOnUse" x="74" y="27" width="21" height="12">
<path d="M90.5045 30.1949C90.1874 30.1949 89.8793 30.2246 89.5803 30.2839C87.1149 24.9266 78.0039 26.4734 77.6984 32.3956C70.5634 32.6142 75.0861 42.5118 80.0883 37.6658C82.0818 39.2571 85.4269 39.3516 87.5171 37.8659C94.2383 42.6193 98.8479 30.8396 90.5045 30.1949Z" fill="white"/>
</mask>
<g mask="url(#mask6_100_10855)">
<path d="M90 33.007C89.8706 40.9977 78.1479 40.9977 78 33.007C78.1479 24.9977 89.8706 24.9977 90 33.007Z" fill="#769914"/>
<path d="M95 34.5C94.9809 40.5 86.0191 40.5 86 34.5C86.0191 28.5 94.9809 28.5 95 34.5Z" fill="#769914"/>
<path d="M80.9996 36C81.0589 40 73.9216 40 74.0007 36C73.9216 32 81.0589 32 80.9996 36Z" fill="#769914"/>
<g style="mix-blend-mode:multiply">
<path d="M93 28.0545L90.1091 29.7341C90.1091 29.7341 86.9086 30.5366 86 33C86.413 29.9767 89.2006 27.6066 93 28.0545Z" fill="#A3C02D"/>
</g>
<g style="mix-blend-mode:multiply">
<path d="M93.771 32C94.7562 35.5176 90.1145 38.4197 86.9695 36.3619C85.1507 38.0151 81.8921 38.3493 79.7323 37.1006C79.0692 38.2614 77.402 38.9297 76 38.5604C77.3641 39.3342 79.3723 38.9297 80.2817 37.7513C82.2331 39.2639 85.5107 39.3518 87.5758 37.9448C91.6301 41.3745 97.598 35.6583 93.771 32Z" fill="#A3C02D"/>
</g>
</g>
<mask id="mask7_100_10855" style="mask-type:luminance" maskUnits="userSpaceOnUse" x="74" y="42" width="23" height="10">
<path d="M93.4533 44.5919C93.2008 44.5919 92.9564 44.6164 92.7201 44.6655C91.3009 41.4433 86.1574 41.0422 84.2331 44.0122C81.9996 42.0193 77.9775 43.1694 77.184 45.9904C71.215 46.2112 74.6566 54.814 79.1989 51.0472C80.9215 52.0851 83.4678 51.6379 84.7174 50.1363C86.2403 51.8017 89.2409 52.1108 91.0974 50.7583C96.3973 54.5822 100.037 45.1108 93.4533 44.5919Z" fill="white"/>
</mask>
<g mask="url(#mask7_100_10855)">
<path d="M93 47C92.9619 53.6667 83.019 53.6667 83 47C83.019 40.3333 92.9619 40.3333 93 47Z" fill="#769914"/>
<path d="M96.9997 48.5071C97.0547 53.1643 89.9273 53.1643 90.0006 48.5071C89.9273 43.831 97.0547 43.831 96.9997 48.5071Z" fill="#769914"/>
<path d="M86 47.4927C85.9808 53.5024 77.0384 53.5024 77 47.4927C77.0384 41.5024 85.9808 41.5024 86 47.4927Z" fill="#769914"/>
<path d="M79.9996 48.9929C80.055 53.0024 73.945 53.0024 74.0004 48.9929C73.945 45.0024 80.055 45.0024 79.9996 48.9929Z" fill="#769914"/>
<g style="mix-blend-mode:multiply">
<path d="M99 42.0574L95.7036 44.0933C95.7036 44.0933 92.041 45.0287 91 48C91.5398 44.3317 94.5855 41.5622 99 42.0574Z" fill="#A3C02D"/>
</g>
<g style="mix-blend-mode:multiply">
<path d="M88 39L85.9187 42.3088C85.9187 42.3088 82.9684 44.8046 83.4736 48C82.1399 44.3697 83.6151 40.4748 88 39Z" fill="#A3C02D"/>
</g>
<g style="mix-blend-mode:multiply">
<path d="M96.5997 46C96.1501 48.6286 92.9652 49.9428 91.0355 48.2794C89.3119 49.9634 86.3144 49.9018 84.647 48.1973C83.5604 49.9839 81.0687 50.7232 79.2702 49.7375C77.8651 51.791 74.5865 51.0723 74.0057 48.5875C73.8371 51.5446 77.4342 53.1669 79.214 51.0107C80.9375 52.1607 83.4667 51.6678 84.7032 49.9839C86.2207 51.8526 89.1995 52.1812 91.0543 50.6821C93.8083 53.4955 98.3795 49.6964 96.5997 46Z" fill="#A3C02D"/>
</g>
</g>
<mask id="mask8_100_10855" style="mask-type:luminance" maskUnits="userSpaceOnUse" x="44" y="41" width="21" height="9">
<path d="M61.7615 43.3332C61.5315 43.3332 61.3087 43.3548 61.0928 43.3981C59.7961 40.4996 55.1003 40.138 53.3431 42.8103C51.3044 41.017 47.6319 42.0536 46.9074 44.5905C41.4563 44.7908 44.6009 52.5313 48.7456 49.1432C50.3198 50.0779 52.6455 49.6755 53.7843 48.3236C55.1774 49.822 57.9155 50.1001 59.6092 48.8818C64.4494 52.3236 67.7732 43.7987 61.7615 43.3332Z" fill="white"/>
</mask>
<g mask="url(#mask8_100_10855)">
<path d="M62 45.5073C61.9616 51.4976 53.0192 51.4976 53 45.5073C53.0192 39.4976 61.9808 39.4976 62 45.5073Z" fill="#769914"/>
<path d="M64.9996 46.0068C65.0612 49.9977 57.9388 49.9977 58.0004 46.0068C57.9388 41.9977 65.0612 41.9977 64.9996 46.0068Z" fill="#769914"/>
<path d="M55 46C54.9809 51.3333 47.0191 51.3333 47 46C47.0191 40.6667 54.9809 40.6667 55 46Z" fill="#769914"/>
<path d="M49.9995 47.4967C50.0616 50.8344 43.9588 50.8344 44.0002 47.4967C43.9588 44.1767 50.0616 44.1589 49.9995 47.4967Z" fill="#769914"/>
<g style="mix-blend-mode:multiply">
<path d="M66 41.0529L63.5273 42.7402C63.5273 42.7402 60.7818 43.5264 60 46C60.3636 42.9895 62.7455 40.6118 66 41.0529Z" fill="#A3C02D"/>
</g>
<g style="mix-blend-mode:multiply">
<path d="M56 39L54.3239 41.571C54.3239 41.571 52.0045 43.4665 52.2969 46C51.3614 43.1662 52.6477 40.0322 56 39Z" fill="#A3C02D"/>
</g>
<g style="mix-blend-mode:multiply">
<path d="M64.4667 45C64.6034 47.4875 61.2444 49.0672 59.1743 47.542C57.5533 48.8493 54.7802 48.7767 53.2374 47.4149C52.2023 48.8311 49.8783 49.394 48.2183 48.5951C47.2419 49.7753 45.0546 49.8479 44 48.7403C44.8398 50.1747 47.2809 50.4471 48.4527 49.2306C50.0541 50.1384 52.3976 49.739 53.5694 48.4135C54.9755 49.8842 57.7486 50.1566 59.4672 48.9582C62.1818 51.3005 66.5173 47.887 64.4667 45Z" fill="#A3C02D"/>
</g>
</g>
<mask id="mask9_100_10855" style="mask-type:luminance" maskUnits="userSpaceOnUse" x="39" y="27" width="27" height="13">
<path d="M61.8777 31.2882C61.6701 31.2908 61.4669 31.3083 61.2681 31.3406C59.7736 25.2704 50.7475 25.6756 49.7961 31.8757C47.7224 30.5302 44.6706 31.6333 43.8541 33.9385C41.8183 32.6182 38.9337 34.2661 39.0021 36.7516C38.8919 39.906 43.2445 41.2204 44.8605 38.6051C46.7748 40.6117 50.5044 39.8187 51.4881 37.2363C53.2238 39.0762 56.4446 39.4891 58.5905 38.0971C64.3407 44.2216 70.1574 32.244 61.8777 31.2882Z" fill="white"/>
</mask>
<g mask="url(#mask9_100_10855)">
<path d="M62 32.9926C61.9613 41.0025 50.0387 41.0025 50 32.9926C50.0387 25.0025 61.9806 25.0025 62 32.9926Z" fill="#769914"/>
<path d="M52 34.993C51.9817 40.3357 44.0366 40.3357 44 34.993C44.0366 29.669 51.9817 29.669 52 34.993Z" fill="#769914"/>
<path d="M66 34.993C65.9817 40.3357 58.0183 40.3357 58 34.993C58.0183 29.669 65.9817 29.669 66 34.993Z" fill="#769914"/>
<path d="M44.9997 37.0068C45.0529 40.9977 38.9471 40.9977 39.0003 37.0068C38.9471 32.9977 45.0529 32.9977 44.9997 37.0068Z" fill="#769914"/>
<g style="mix-blend-mode:multiply">
<path d="M65 29.0544L62.537 30.7289C62.537 30.7289 59.7963 31.5272 59 34C59.3704 30.982 61.7593 28.6066 65 29.0544Z" fill="#A3C02D"/>
</g>
<g style="mix-blend-mode:multiply">
<path d="M47 29L45.3046 31.5491C45.3046 31.5491 43.2072 32.5 43.1199 36C42.5606 32.9249 43.9763 29.7283 47 29Z" fill="#A3C02D"/>
</g>
<g style="mix-blend-mode:multiply">
<path d="M64.827 33C65.1665 36.5965 60.3938 38.7923 57.8848 36.2369C56.0172 37.9216 52.7913 38.0541 50.7916 36.5587C50.3389 38.5841 48.094 40.0605 46 39.5873C48.0185 40.6095 50.6973 39.5495 51.5085 37.5051C53.2441 39.3034 56.4322 39.7198 58.5639 38.3569C62.0539 42.8431 68.6943 37.1644 64.827 33Z" fill="#A3C02D"/>
</g>
</g>
<path d="M64.8166 77C64.8166 77 64.6007 73.7325 63 72.242C63 72.242 65.2662 74.2293 65.4281 74.6306C65.4281 74.6306 65.0863 71.5159 64.4388 70.6943C64.4388 70.6943 65.8777 72.0318 66.1655 72.758C66.1655 72.758 65.7158 70.5032 65.2842 69.758C65.2842 69.758 66.5791 71.6688 66.777 72.9873C66.777 72.9873 66.9928 69.3949 66.5612 68C66.5612 68 67.7302 71.9172 67.7302 73.6561C67.7302 73.6561 67.7842 70.3121 68.7014 69.051C68.7014 69.051 68.5216 72.2994 68.6655 73.4841C68.6655 73.4841 69.1151 71.7452 69.0971 70.6752C69.0971 70.6752 69.6727 72.8726 69.4928 73.9427C69.4928 73.9427 70.3022 71.9745 69.9604 69.2803C69.9604 69.2803 70.6439 71.3822 70.5899 73.1401C70.5899 73.1401 71.1475 71.5924 71.8849 70.7134C71.8849 70.7134 70.8957 73.5796 70.8777 74.4968C70.8777 74.4968 71.2734 73.3694 72.0288 72.8726C72.0288 72.8726 71.0576 74.7834 70.8417 75.6242C70.8417 75.6242 71.6691 74.4395 73 73.9809C73 73.9809 71.5252 75.9299 71.4892 77H64.8166Z" fill="#769914"/>
<path d="M70.2596 77C70.2596 77 70.1157 74.8298 69 73.8267C69 73.8267 70.5835 75.1581 70.6915 75.4316C70.6915 75.4316 70.4576 73.3526 70.0077 72.7872C70.0077 72.7872 70.9974 73.6991 71.2134 74.1733C71.2134 74.1733 70.8895 72.6778 70.5835 72.1854C70.5835 72.1854 71.5013 73.4438 71.6272 74.3374C71.6272 74.3374 71.7892 71.9301 71.4833 71C71.4833 71 72.3111 73.6079 72.3111 74.7751C72.3111 74.7751 72.347 72.5502 72.9949 71.693C72.9949 71.693 72.8509 73.8632 72.9589 74.6656C72.9589 74.6656 73.2828 73.4985 73.2648 72.7872C73.2648 72.7872 73.6607 74.2644 73.5527 74.9757C73.5527 74.9757 74.1105 73.6626 73.8586 71.8571C73.8586 71.8571 74.3445 73.2614 74.3085 74.4286C74.3085 74.4286 74.7044 73.4073 75.2262 72.8237C75.2262 72.8237 74.5244 74.7386 74.5064 75.3404C74.5064 75.3404 74.7943 74.5927 75.3162 74.2462C75.3162 74.2462 74.6324 75.541 74.4884 76.0881C74.4884 76.0881 75.0643 75.304 76 74.9939C76 74.9939 74.9563 76.2888 74.9383 77H70.2596Z" fill="#769914"/>
<path d="M98.2553 35.274L97 90H103L99.2522 34L98.2553 35.274Z" fill="#331C10"/>
<path d="M107 35L100 44.7442L100.259 47L107 35Z" fill="#331C10"/>
<path d="M92 35.507L99 47.9576L98.5013 50.9998L92 35V35.507Z" fill="#331C10"/>
<path d="M86.8482 48L99.9999 63.2061V65.9998L91.0506 55.8562L80 49.7625L90.7976 54.5812L86.8482 48Z" fill="#331C10"/>
<path d="M112 50L100 60.0446V63L112 50Z" fill="#331C10"/>
<path d="M105 57L105.583 56.7572L119 51L106.301 55.4393L105 57Z" fill="#331C10"/>
<path d="M100.522 70.7948L107.582 65.6243L112.379 61L108.646 66.1159L120 61.0546L109.168 66.8623L100.522 73.999L100 70.5581" fill="#331C10"/>
<path d="M81 62.0064L90.5 70.0892L99.753 75L100 72.6688L91.26 69.0573L88.695 60L89.987 68.0064L81 62.0064Z" fill="#331C10"/>
<path d="M92 35.551L93 37L92 35V35.551Z" fill="#331C10"/>
<path d="M120 60.7166L108.76 65.9251L112.456 60.6604L107.707 65.4192L102.154 69.6534L101.618 61.8595L106.214 56.8009L118.928 50.8244L107.745 55.1148L112.628 49.719L101.446 59.274L100.507 45.9344L106.941 34.7682L100.354 43.7237L99.6841 34L98.6501 35.274L98.4011 45.6721L92.944 36.3419C98.3054 49.2506 98.7458 46.6464 98.0373 60.9602L86.7401 47.6956L90.6271 54.2717L80 49.4567L90.876 55.5457L97.9799 63.7143L97.8076 71.2459L90.876 68.4731L88.291 59.5925L89.5931 67.4426L80.5361 61.5597L90.1101 69.4848L97.7501 73.4192L97.348 90H103.571L102.365 72.6323L109.277 66.6932L120 60.7166Z" fill="#331C10"/>
<g style="mix-blend-mode:multiply">
<path d="M92 35.551L93 37L92 35V35.551Z" fill="#331C10"/>
<path d="M102.49 72.8007L109.353 66.9189L120 61L108.308 66.9189L101.635 72.1884L100 90.0008H103.688L102.49 72.8007Z" fill="#331C10"/>
<path d="M100.555 60.0245L100.861 70.001L102.2 68.8164L101.703 61.7644L106.295 56.7669L119 50.8624L107.826 55.101L112.705 49.7704L101.531 59.2101L100.593 46.0315L107.022 35L100 45.7354L100.555 60.0245Z" fill="#331C10"/>
</g>
<mask id="mask10_100_10855" style="mask-type:luminance" maskUnits="userSpaceOnUse" x="79" y="22" width="42" height="17">
<path d="M115.703 28.5305C115.033 28.5305 114.395 28.6545 113.803 28.873C112.259 25.6458 107.73 24.0683 104.374 25.7365C100.534 19.4914 89.6936 21.4799 88.5018 28.6953C86.105 28.0509 83.4511 29.3044 82.4212 31.3855C76.2168 32.228 79.3238 41.3356 84.8162 38.3843C86.9903 39.5155 90.0077 38.7953 91.4127 36.9086C94.3445 39.51 99.5532 39.5785 102.557 37.0456C104.916 39.373 109.363 39.5489 111.911 37.3956C119.703 43.6926 125.812 29.4877 115.703 28.5305Z" fill="white"/>
</mask>
<g mask="url(#mask10_100_10855)">
<path d="M115.703 28.5336C115.037 28.5336 114.389 28.6448 113.799 28.8671C112.257 25.6438 107.726 24.0692 104.375 25.7364C100.529 19.4936 89.6963 21.4757 88.4969 28.7003C86.098 28.052 83.4516 29.3117 82.4236 31.3864C76.217 32.22 79.3203 41.3342 84.8224 38.3888C86.9928 39.5188 90.0199 38.7963 91.4098 36.9068C94.3417 39.5188 99.5583 39.5744 102.566 37.055C104.927 39.3706 109.363 39.5558 111.914 37.3884C119.701 43.7054 125.812 29.4784 115.703 28.5336Z" fill="#769914"/>
<g style="mix-blend-mode:multiply">
<path d="M118.999 30C120.664 34.7013 114.119 38.5773 110.393 35.2038C108.01 37.4468 103.584 37.5545 101.087 35.4371C98.2878 38.0748 93.1052 38.3261 90.0411 35.9754C88.7549 37.8954 85.8232 38.7747 83.5913 37.8057C82.8725 38.2902 81.9079 38.5414 81 38.4337C82.1349 39.1335 83.8183 39.1335 84.972 38.4337C87.1283 39.5283 90.1357 38.8285 91.5164 36.9982C94.4292 39.5283 99.6118 39.5821 102.6 37.1417C104.946 39.3848 109.353 39.5642 111.887 37.4647C117.108 42.3455 124.636 34.4142 118.999 30Z" fill="#A3C02D"/>
</g>
<g style="mix-blend-mode:multiply">
<path d="M107 24.0554L104.118 26.0885C104.118 26.0885 100.913 27.0374 100 30C100.465 26.3209 103.133 23.5713 107 24.0554Z" fill="#A3C02D"/>
</g>
<g style="mix-blend-mode:multiply">
<path d="M119 26.0597L116.125 28.0786C116.125 28.0786 112.911 29.0299 112 32C112.482 28.3116 115.143 25.555 119 26.0597Z" fill="#A3C02D"/>
</g>
</g>
<mask id="mask11_100_10855" style="mask-type:luminance" maskUnits="userSpaceOnUse" x="105" y="41" width="21" height="12">
<path d="M121.505 44.1949C121.187 44.1949 120.879 44.2246 120.58 44.2839C118.115 38.9266 109.004 40.4734 108.698 46.3956C101.563 46.6142 106.086 56.5118 111.088 51.6658C113.082 53.2571 116.427 53.3516 118.517 51.8659C125.238 56.6193 129.848 44.8396 121.505 44.1949Z" fill="white"/>
</mask>
<g mask="url(#mask11_100_10855)">
<path d="M121 47.007C120.871 54.9977 109.148 54.9977 109 47.007C109.148 38.9977 120.871 38.9977 121 47.007Z" fill="#769914"/>
<path d="M126 48.5C125.981 54.5 117.019 54.5 117 48.5C117.019 42.5 125.981 42.5 126 48.5Z" fill="#769914"/>
<path d="M112 50C112.059 54 104.922 54 105.001 50C104.922 46 112.059 46 112 50Z" fill="#769914"/>
<g style="mix-blend-mode:multiply">
<path d="M124 42.0545L121.109 43.7341C121.109 43.7341 117.909 44.5366 117 47C117.413 43.9767 120.201 41.6066 124 42.0545Z" fill="#A3C02D"/>
</g>
<g style="mix-blend-mode:multiply">
<path d="M124.771 46C125.756 49.5176 121.114 52.4197 117.97 50.3619C116.151 52.0151 112.892 52.3493 110.732 51.1006C110.069 52.2614 108.402 52.9297 107 52.5604C108.364 53.3342 110.372 52.9297 111.282 51.7513C113.233 53.2639 116.511 53.3518 118.576 51.9448C122.63 55.3745 128.598 49.6583 124.771 46Z" fill="#A3C02D"/>
</g>
</g>
<mask id="mask12_100_10855" style="mask-type:luminance" maskUnits="userSpaceOnUse" x="105" y="56" width="23" height="10">
<path d="M124.453 58.5919C124.201 58.5919 123.956 58.6164 123.72 58.6655C122.301 55.4433 117.157 55.0422 115.233 58.0122C113 56.0193 108.978 57.1694 108.184 59.9904C102.215 60.2112 105.657 68.814 110.199 65.0472C111.922 66.0851 114.468 65.6379 115.717 64.1363C117.24 65.8017 120.241 66.1108 122.097 64.7583C127.397 68.5822 131.037 59.1108 124.453 58.5919Z" fill="white"/>
</mask>
<g mask="url(#mask12_100_10855)">
<path d="M124 61C123.962 67.6667 114.019 67.6667 114 61C114.019 54.3333 123.962 54.3333 124 61Z" fill="#769914"/>
<path d="M128 62.5071C128.055 67.1643 120.927 67.1643 121.001 62.5071C120.927 57.831 128.055 57.831 128 62.5071Z" fill="#769914"/>
<path d="M117 61.4927C116.981 67.5024 108.038 67.5024 108 61.4927C108.038 55.5024 116.981 55.5024 117 61.4927Z" fill="#769914"/>
<path d="M111 62.9929C111.055 67.0024 104.945 67.0024 105 62.9929C104.945 59.0024 111.055 59.0024 111 62.9929Z" fill="#769914"/>
<g style="mix-blend-mode:multiply">
<path d="M130 56.0574L126.704 58.0933C126.704 58.0933 123.041 59.0287 122 62C122.54 58.3317 125.586 55.5622 130 56.0574Z" fill="#A3C02D"/>
</g>
<g style="mix-blend-mode:multiply">
<path d="M119 53L116.919 56.3088C116.919 56.3088 113.968 58.8046 114.474 62C113.14 58.3697 114.615 54.4748 119 53Z" fill="#A3C02D"/>
</g>
<g style="mix-blend-mode:multiply">
<path d="M127.6 60C127.15 62.6286 123.965 63.9428 122.036 62.2794C120.312 63.9634 117.314 63.9018 115.647 62.1973C114.56 63.9839 112.069 64.7232 110.27 63.7375C108.865 65.791 105.587 65.0723 105.006 62.5875C104.837 65.5446 108.434 67.1669 110.214 65.0107C111.938 66.1607 114.467 65.6678 115.703 63.9839C117.221 65.8526 120.2 66.1812 122.054 64.6821C124.808 67.4955 129.38 63.6964 127.6 60Z" fill="#A3C02D"/>
</g>
</g>
<mask id="mask13_100_10855" style="mask-type:luminance" maskUnits="userSpaceOnUse" x="75" y="55" width="21" height="9">
<path d="M92.7615 57.3332C92.5315 57.3332 92.3087 57.3548 92.0928 57.3981C90.7961 54.4996 86.1003 54.138 84.3431 56.8103C82.3044 55.017 78.6319 56.0536 77.9074 58.5905C72.4563 58.7908 75.6009 66.5313 79.7456 63.1432C81.3198 64.0779 83.6455 63.6755 84.7843 62.3236C86.1774 63.822 88.9155 64.1001 90.6092 62.8818C95.4494 66.3236 98.7732 57.7987 92.7615 57.3332Z" fill="white"/>
</mask>
<g mask="url(#mask13_100_10855)">
<path d="M93 59.5073C92.9616 65.4976 84.0192 65.4976 84 59.5073C84.0192 53.4976 92.9808 53.4976 93 59.5073Z" fill="#769914"/>
<path d="M95.9996 60.0068C96.0612 63.9977 88.9388 63.9977 89.0004 60.0068C88.9388 55.9977 96.0612 55.9977 95.9996 60.0068Z" fill="#769914"/>
<path d="M86 60C85.9809 65.3333 78.0191 65.3333 78 60C78.0191 54.6667 85.9809 54.6667 86 60Z" fill="#769914"/>
<path d="M80.9995 61.4967C81.0616 64.8344 74.9588 64.8344 75.0002 61.4967C74.9588 58.1767 81.0616 58.1589 80.9995 61.4967Z" fill="#769914"/>
<g style="mix-blend-mode:multiply">
<path d="M97 55.0529L94.5273 56.7402C94.5273 56.7402 91.7818 57.5264 91 60C91.3636 56.9895 93.7455 54.6118 97 55.0529Z" fill="#A3C02D"/>
</g>
<g style="mix-blend-mode:multiply">
<path d="M87 53L85.3239 55.571C85.3239 55.571 83.0045 57.4665 83.2969 60C82.3614 57.1662 83.6477 54.0322 87 53Z" fill="#A3C02D"/>
</g>
<g style="mix-blend-mode:multiply">
<path d="M95.4667 59C95.6034 61.4875 92.2444 63.0672 90.1743 61.542C88.5533 62.8493 85.7802 62.7767 84.2374 61.4149C83.2023 62.8311 80.8783 63.394 79.2183 62.5951C78.2419 63.7753 76.0546 63.8479 75 62.7403C75.8398 64.1747 78.2809 64.4471 79.4527 63.2306C81.0541 64.1384 83.3976 63.739 84.5694 62.4135C85.9755 63.8842 88.7486 64.1566 90.4672 62.9582C93.1818 65.3005 97.5173 61.887 95.4667 59Z" fill="#A3C02D"/>
</g>
</g>
<mask id="mask14_100_10855" style="mask-type:luminance" maskUnits="userSpaceOnUse" x="70" y="41" width="27" height="13">
<path d="M92.8777 45.2882C92.6701 45.2908 92.4669 45.3083 92.2681 45.3406C90.7736 39.2704 81.7475 39.6756 80.7961 45.8757C78.7224 44.5302 75.6706 45.6333 74.8541 47.9385C72.8183 46.6182 69.9337 48.2661 70.0021 50.7516C69.8919 53.906 74.2445 55.2204 75.8605 52.6051C77.7748 54.6117 81.5044 53.8187 82.4881 51.2363C84.2238 53.0762 87.4446 53.4891 89.5905 52.0971C95.3407 58.2216 101.157 46.244 92.8777 45.2882Z" fill="white"/>
</mask>
<g mask="url(#mask14_100_10855)">
<path d="M93 46.9926C92.9613 55.0025 81.0387 55.0025 81 46.9926C81.0387 39.0025 92.9806 39.0025 93 46.9926Z" fill="#769914"/>
<path d="M83 48.993C82.9817 54.3357 75.0366 54.3357 75 48.993C75.0366 43.669 82.9817 43.669 83 48.993Z" fill="#769914"/>
<path d="M97 48.993C96.9817 54.3357 89.0183 54.3357 89 48.993C89.0183 43.669 96.9817 43.669 97 48.993Z" fill="#769914"/>
<path d="M75.9997 51.0068C76.0529 54.9977 69.9471 54.9977 70.0003 51.0068C69.9471 46.9977 76.0529 46.9977 75.9997 51.0068Z" fill="#769914"/>
<g style="mix-blend-mode:multiply">
<path d="M96 43.0544L93.537 44.7289C93.537 44.7289 90.7963 45.5272 90 48C90.3704 44.982 92.7593 42.6066 96 43.0544Z" fill="#A3C02D"/>
</g>
<g style="mix-blend-mode:multiply">
<path d="M78 43L76.3046 45.5491C76.3046 45.5491 74.2072 46.5 74.1199 50C73.5606 46.9249 74.9763 43.7283 78 43Z" fill="#A3C02D"/>
</g>
<g style="mix-blend-mode:multiply">
<path d="M95.827 47C96.1665 50.5965 91.3938 52.7923 88.8848 50.2369C87.0172 51.9216 83.7913 52.0541 81.7916 50.5587C81.3389 52.5841 79.094 54.0605 77 53.5873C79.0185 54.6095 81.6973 53.5495 82.5085 51.5051C84.2441 53.3034 87.4322 53.7198 89.5639 52.3569C93.0539 56.8431 99.6943 51.1644 95.827 47Z" fill="#A3C02D"/>
</g>
</g>
<path d="M95.8166 91C95.8166 91 95.6007 87.7325 94 86.242C94 86.242 96.2662 88.2293 96.4281 88.6306C96.4281 88.6306 96.0863 85.5159 95.4388 84.6943C95.4388 84.6943 96.8777 86.0318 97.1655 86.758C97.1655 86.758 96.7158 84.5032 96.2842 83.758C96.2842 83.758 97.5791 85.6688 97.777 86.9873C97.777 86.9873 97.9928 83.3949 97.5612 82C97.5612 82 98.7302 85.9172 98.7302 87.6561C98.7302 87.6561 98.7842 84.3121 99.7014 83.051C99.7014 83.051 99.5216 86.2994 99.6655 87.4841C99.6655 87.4841 100.115 85.7452 100.097 84.6752C100.097 84.6752 100.673 86.8726 100.493 87.9427C100.493 87.9427 101.302 85.9745 100.96 83.2803C100.96 83.2803 101.644 85.3822 101.59 87.1401C101.59 87.1401 102.147 85.5924 102.885 84.7134C102.885 84.7134 101.896 87.5796 101.878 88.4968C101.878 88.4968 102.273 87.3694 103.029 86.8726C103.029 86.8726 102.058 88.7834 101.842 89.6242C101.842 89.6242 102.669 88.4395 104 87.9809C104 87.9809 102.525 89.9299 102.489 91H95.8166Z" fill="#769914"/>
<path d="M101.26 91C101.26 91 101.116 88.8298 100 87.8267C100 87.8267 101.584 89.1581 101.692 89.4316C101.692 89.4316 101.458 87.3526 101.008 86.7872C101.008 86.7872 101.997 87.6991 102.213 88.1733C102.213 88.1733 101.889 86.6778 101.584 86.1854C101.584 86.1854 102.501 87.4438 102.627 88.3374C102.627 88.3374 102.789 85.9301 102.483 85C102.483 85 103.311 87.6079 103.311 88.7751C103.311 88.7751 103.347 86.5502 103.995 85.693C103.995 85.693 103.851 87.8632 103.959 88.6656C103.959 88.6656 104.283 87.4985 104.265 86.7872C104.265 86.7872 104.661 88.2644 104.553 88.9757C104.553 88.9757 105.111 87.6626 104.859 85.8571C104.859 85.8571 105.344 87.2614 105.308 88.4286C105.308 88.4286 105.704 87.4073 106.226 86.8237C106.226 86.8237 105.524 88.7386 105.506 89.3404C105.506 89.3404 105.794 88.5927 106.316 88.2462C106.316 88.2462 105.632 89.541 105.488 90.0881C105.488 90.0881 106.064 89.304 107 88.9939C107 88.9939 105.956 90.2888 105.938 91H101.26Z" fill="#769914"/>
<path d="M118.255 45.274L117 99.9998H123L119.252 44L118.255 45.274Z" fill="#331C10"/>
<path d="M127 45L120 54.7442L120.259 57L127 45Z" fill="#331C10"/>
<path d="M112 45.507L119 57.9573L118.501 60.9994L112 45V45.507Z" fill="#331C10"/>
<path d="M106.848 58L120 73.2066V76.0004L111.05 65.8564L100 59.7625L110.797 64.5814L106.848 58Z" fill="#331C10"/>
<path d="M132 60L120 70.0446V73L132 60Z" fill="#331C10"/>
<path d="M125 67L125.583 66.7572L139 61L126.301 65.4393L125 67Z" fill="#331C10"/>
<path d="M120.522 80.7955L127.582 75.6247L132.379 71L128.646 76.1162L140 71.0546L129.168 76.8627L120.522 84L120 80.5588" fill="#331C10"/>
<path d="M101 72.0064L110.5 80.0892L119.753 85L120 82.6688L111.26 79.0573L108.695 70L109.987 78.0064L101 72.0064Z" fill="#331C10"/>
<path d="M112 45.551L113 47L112 45V45.551Z" fill="#331C10"/>
<path d="M140 70.7166L128.76 75.9251L132.456 70.6604L127.707 75.4192L122.154 79.6534L121.618 71.8595L126.214 66.8009L138.928 60.8244L127.745 65.1148L132.628 59.719L121.446 69.274L120.507 55.9344L126.941 44.7682L120.354 53.7237L119.684 44L118.65 45.274L118.401 55.6721L112.944 46.3419C118.305 59.2506 118.746 56.6464 118.037 70.9602L106.74 57.6956L110.627 64.2717L100 59.4567L110.876 65.5457L117.98 73.7143L117.808 81.2459L110.876 78.4731L108.291 69.5925L109.593 77.4426L100.536 71.5597L110.11 79.4848L117.75 83.4192L117.348 100H123.571L122.365 82.6323L129.277 76.6932L140 70.7166Z" fill="#331C10"/>
<g style="mix-blend-mode:multiply">
<path d="M112 45.551L113 47L112 45V45.551Z" fill="#331C10"/>
<path d="M122.49 82.8004L129.354 76.9187L140 71L128.308 76.9187L121.635 82.1881L120 100H123.688L122.49 82.8004Z" fill="#331C10"/>
<path d="M120.555 70.0238L120.861 80L122.2 78.8154L121.703 71.7636L126.295 66.7663L139 60.862L127.826 65.1005L132.705 59.77L121.531 69.2094L120.593 56.0312L127.022 45L120 55.7351L120.555 70.0238Z" fill="#331C10"/>
</g>
<mask id="mask15_100_10855" style="mask-type:luminance" maskUnits="userSpaceOnUse" x="99" y="32" width="42" height="17">
<path d="M135.703 38.5305C135.033 38.5305 134.395 38.6545 133.803 38.873C132.259 35.6458 127.73 34.0683 124.374 35.7365C120.534 29.4914 109.694 31.4799 108.502 38.6953C106.105 38.0509 103.451 39.3044 102.421 41.3855C96.2168 42.228 99.3238 51.3356 104.816 48.3843C106.99 49.5155 110.008 48.7953 111.413 46.9086C114.345 49.51 119.553 49.5785 122.557 47.0456C124.916 49.373 129.363 49.5489 131.911 47.3956C139.703 53.6926 145.812 39.4877 135.703 38.5305Z" fill="white"/>
</mask>
<g mask="url(#mask15_100_10855)">
<path d="M135.703 38.5336C135.037 38.5336 134.389 38.6448 133.799 38.8671C132.257 35.6438 127.726 34.0692 124.375 35.7364C120.529 29.4936 109.696 31.4757 108.497 38.7003C106.098 38.052 103.452 39.3117 102.424 41.3864C96.217 42.22 99.3203 51.3342 104.822 48.3888C106.993 49.5188 110.02 48.7963 111.41 46.9068C114.342 49.5188 119.558 49.5744 122.566 47.055C124.927 49.3706 129.363 49.5558 131.914 47.3884C139.701 53.7054 145.812 39.4784 135.703 38.5336Z" fill="#769914"/>
<g style="mix-blend-mode:multiply">
<path d="M138.999 40C140.663 44.7014 134.119 48.5773 130.393 45.2038C128.01 47.4469 123.584 47.5545 121.087 45.4371C118.288 48.0749 113.105 48.3261 110.041 45.9754C108.755 47.8955 105.823 48.7747 103.591 47.8057C102.873 48.2902 101.908 48.5415 101 48.4338C102.135 49.1336 103.818 49.1336 104.972 48.4338C107.128 49.5284 110.136 48.8286 111.516 46.9982C114.429 49.5284 119.612 49.5822 122.6 47.1418C124.946 49.3848 129.353 49.5643 131.887 47.4648C137.108 52.3456 144.636 44.4143 138.999 40Z" fill="#A3C02D"/>
</g>
<g style="mix-blend-mode:multiply">
<path d="M127 34.0554L124.118 36.0885C124.118 36.0885 120.913 37.0374 120 40C120.465 36.3209 123.133 33.5713 127 34.0554Z" fill="#A3C02D"/>
</g>
<g style="mix-blend-mode:multiply">
<path d="M139 36.0597L136.125 38.0786C136.125 38.0786 132.911 39.0299 132 42C132.482 38.3116 135.143 35.555 139 36.0597Z" fill="#A3C02D"/>
</g>
</g>
<mask id="mask16_100_10855" style="mask-type:luminance" maskUnits="userSpaceOnUse" x="125" y="51" width="21" height="12">
<path d="M141.505 54.1949C141.187 54.1949 140.879 54.2246 140.58 54.2839C138.115 48.9266 129.004 50.4734 128.698 56.3956C121.563 56.6142 126.086 66.5118 131.088 61.6658C133.082 63.2571 136.427 63.3516 138.517 61.8659C145.238 66.6193 149.848 54.8396 141.505 54.1949Z" fill="white"/>
</mask>
<g mask="url(#mask16_100_10855)">
<path d="M141 57.007C140.871 64.9977 129.148 64.9977 129 57.007C129.148 48.9977 140.871 48.9977 141 57.007Z" fill="#769914"/>
<path d="M146 58.5C145.981 64.5 137.019 64.5 137 58.5C137.019 52.5 145.981 52.5 146 58.5Z" fill="#769914"/>
<path d="M132 60C132.059 64 124.922 64 125.001 60C124.922 56 132.059 56 132 60Z" fill="#769914"/>
<g style="mix-blend-mode:multiply">
<path d="M144 52.0545L141.109 53.7341C141.109 53.7341 137.909 54.5366 137 57C137.413 53.9767 140.201 51.6066 144 52.0545Z" fill="#A3C02D"/>
</g>
<g style="mix-blend-mode:multiply">
<path d="M144.771 56C145.756 59.5176 141.114 62.4197 137.97 60.3619C136.151 62.0151 132.892 62.3493 130.732 61.1006C130.069 62.2614 128.402 62.9297 127 62.5604C128.364 63.3342 130.372 62.9297 131.282 61.7513C133.233 63.2639 136.511 63.3518 138.576 61.9448C142.63 65.3745 148.598 59.6583 144.771 56Z" fill="#A3C02D"/>
</g>
</g>
<mask id="mask17_100_10855" style="mask-type:luminance" maskUnits="userSpaceOnUse" x="125" y="66" width="23" height="10">
<path d="M144.453 68.5919C144.201 68.5919 143.956 68.6164 143.72 68.6655C142.301 65.4433 137.157 65.0422 135.233 68.0122C133 66.0193 128.978 67.1694 128.184 69.9904C122.215 70.2112 125.657 78.814 130.199 75.0472C131.922 76.0851 134.468 75.6379 135.717 74.1363C137.24 75.8017 140.241 76.1108 142.097 74.7583C147.397 78.5822 151.037 69.1108 144.453 68.5919Z" fill="white"/>
</mask>
<g mask="url(#mask17_100_10855)">
<path d="M144 71C143.962 77.6667 134.019 77.6667 134 71C134.019 64.3333 143.962 64.3333 144 71Z" fill="#769914"/>
<path d="M148 72.5071C148.055 77.1643 140.927 77.1643 141.001 72.5071C140.927 67.831 148.055 67.831 148 72.5071Z" fill="#769914"/>
<path d="M137 71.4927C136.981 77.5024 128.038 77.5024 128 71.4927C128.038 65.5024 136.981 65.5024 137 71.4927Z" fill="#769914"/>
<path d="M131 72.9929C131.055 77.0024 124.945 77.0024 125 72.9929C124.945 69.0024 131.055 69.0024 131 72.9929Z" fill="#769914"/>
<g style="mix-blend-mode:multiply">
<path d="M150 66.0574L146.704 68.0933C146.704 68.0933 143.041 69.0287 142 72C142.54 68.3317 145.586 65.5622 150 66.0574Z" fill="#A3C02D"/>
</g>
<g style="mix-blend-mode:multiply">
<path d="M139 63L136.919 66.3088C136.919 66.3088 133.968 68.8046 134.474 72C133.14 68.3697 134.615 64.4748 139 63Z" fill="#A3C02D"/>
</g>
<g style="mix-blend-mode:multiply">
<path d="M147.6 70C147.15 72.6286 143.965 73.9428 142.036 72.2794C140.312 73.9634 137.314 73.9018 135.647 72.1973C134.56 73.9839 132.069 74.7232 130.27 73.7375C128.865 75.791 125.587 75.0723 125.006 72.5875C124.837 75.5446 128.434 77.1669 130.214 75.0107C131.938 76.1607 134.467 75.6678 135.703 73.9839C137.221 75.8526 140.2 76.1812 142.054 74.6821C144.808 77.4955 149.38 73.6964 147.6 70Z" fill="#A3C02D"/>
</g>
</g>
<mask id="mask18_100_10855" style="mask-type:luminance" maskUnits="userSpaceOnUse" x="95" y="65" width="21" height="9">
<path d="M112.761 67.3332C112.532 67.3332 112.309 67.3548 112.093 67.3981C110.796 64.4996 106.1 64.138 104.343 66.8103C102.304 65.017 98.6319 66.0536 97.9074 68.5905C92.4563 68.7908 95.6009 76.5313 99.7456 73.1432C101.32 74.0779 103.646 73.6755 104.784 72.3236C106.177 73.822 108.915 74.1001 110.609 72.8818C115.449 76.3236 118.773 67.7987 112.761 67.3332Z" fill="white"/>
</mask>
<g mask="url(#mask18_100_10855)">
<path d="M113 69.5073C112.962 75.4976 104.019 75.4976 104 69.5073C104.019 63.4976 112.981 63.4976 113 69.5073Z" fill="#769914"/>
<path d="M116 70.0068C116.061 73.9977 108.939 73.9977 109 70.0068C108.939 65.9977 116.061 65.9977 116 70.0068Z" fill="#769914"/>
<path d="M106 70C105.981 75.3333 98.0191 75.3333 98 70C98.0191 64.6667 105.981 64.6667 106 70Z" fill="#769914"/>
<path d="M101 71.4967C101.062 74.8344 94.9588 74.8344 95.0002 71.4967C94.9588 68.1767 101.062 68.1589 101 71.4967Z" fill="#769914"/>
<g style="mix-blend-mode:multiply">
<path d="M117 65.0529L114.527 66.7402C114.527 66.7402 111.782 67.5264 111 70C111.364 66.9895 113.745 64.6118 117 65.0529Z" fill="#A3C02D"/>
</g>
<g style="mix-blend-mode:multiply">
<path d="M107 63L105.324 65.571C105.324 65.571 103.005 67.4665 103.297 70C102.361 67.1662 103.648 64.0322 107 63Z" fill="#A3C02D"/>
</g>
<g style="mix-blend-mode:multiply">
<path d="M115.467 69C115.603 71.4875 112.244 73.0672 110.174 71.542C108.553 72.8493 105.78 72.7767 104.237 71.4149C103.202 72.8311 100.878 73.394 99.2183 72.5951C98.2419 73.7753 96.0546 73.8479 95 72.7403C95.8398 74.1747 98.2809 74.4471 99.4527 73.2306C101.054 74.1384 103.398 73.739 104.569 72.4135C105.975 73.8842 108.749 74.1566 110.467 72.9582C113.182 75.3005 117.517 71.887 115.467 69Z" fill="#A3C02D"/>
</g>
</g>
<mask id="mask19_100_10855" style="mask-type:luminance" maskUnits="userSpaceOnUse" x="90" y="51" width="27" height="13">
<path d="M112.878 55.2882C112.67 55.2908 112.467 55.3083 112.268 55.3406C110.774 49.2704 101.748 49.6756 100.796 55.8757C98.7224 54.5302 95.6706 55.6333 94.8541 57.9385C92.8183 56.6182 89.9337 58.2661 90.0021 60.7516C89.8919 63.906 94.2445 65.2204 95.8605 62.6051C97.7748 64.6117 101.504 63.8187 102.488 61.2363C104.224 63.0762 107.445 63.4891 109.59 62.0971C115.341 68.2216 121.157 56.244 112.878 55.2882Z" fill="white"/>
</mask>
<g mask="url(#mask19_100_10855)">
<path d="M113 56.9926C112.961 65.0025 101.039 65.0025 101 56.9926C101.039 49.0025 112.981 49.0025 113 56.9926Z" fill="#769914"/>
<path d="M103 58.993C102.982 64.3357 95.0366 64.3357 95 58.993C95.0366 53.669 102.982 53.669 103 58.993Z" fill="#769914"/>
<path d="M117 58.993C116.982 64.3357 109.018 64.3357 109 58.993C109.018 53.669 116.982 53.669 117 58.993Z" fill="#769914"/>
<path d="M95.9997 61.0068C96.0529 64.9977 89.9471 64.9977 90.0003 61.0068C89.9471 56.9977 96.0529 56.9977 95.9997 61.0068Z" fill="#769914"/>
<g style="mix-blend-mode:multiply">
<path d="M116 53.0544L113.537 54.7289C113.537 54.7289 110.796 55.5272 110 58C110.37 54.982 112.759 52.6066 116 53.0544Z" fill="#A3C02D"/>
</g>
<g style="mix-blend-mode:multiply">
<path d="M98 53L96.3046 55.5491C96.3046 55.5491 94.2072 56.5 94.1199 60C93.5606 56.9249 94.9763 53.7283 98 53Z" fill="#A3C02D"/>
</g>
<g style="mix-blend-mode:multiply">
<path d="M115.827 57C116.167 60.5965 111.394 62.7923 108.885 60.2369C107.017 61.9216 103.791 62.0541 101.792 60.5587C101.339 62.5841 99.094 64.0605 97 63.5873C99.0185 64.6095 101.697 63.5495 102.508 61.5051C104.244 63.3034 107.432 63.7198 109.564 62.3569C113.054 66.8431 119.694 61.1644 115.827 57Z" fill="#A3C02D"/>
</g>
</g>
<path d="M115.817 101C115.817 101 115.601 97.7325 114 96.242C114 96.242 116.266 98.2293 116.428 98.6306C116.428 98.6306 116.086 95.5159 115.439 94.6943C115.439 94.6943 116.878 96.0318 117.165 96.758C117.165 96.758 116.716 94.5032 116.284 93.758C116.284 93.758 117.579 95.6688 117.777 96.9873C117.777 96.9873 117.993 93.3949 117.561 92C117.561 92 118.73 95.9172 118.73 97.6561C118.73 97.6561 118.784 94.3121 119.701 93.051C119.701 93.051 119.522 96.2994 119.665 97.4841C119.665 97.4841 120.115 95.7452 120.097 94.6752C120.097 94.6752 120.673 96.8726 120.493 97.9427C120.493 97.9427 121.302 95.9745 120.96 93.2803C120.96 93.2803 121.644 95.3822 121.59 97.1401C121.59 97.1401 122.147 95.5924 122.885 94.7134C122.885 94.7134 121.896 97.5796 121.878 98.4968C121.878 98.4968 122.273 97.3694 123.029 96.8726C123.029 96.8726 122.058 98.7834 121.842 99.6242C121.842 99.6242 122.669 98.4395 124 97.9809C124 97.9809 122.525 99.9299 122.489 101H115.817Z" fill="#769914"/>
<path d="M121.26 101C121.26 101 121.116 98.8298 120 97.8267C120 97.8267 121.584 99.1581 121.692 99.4316C121.692 99.4316 121.458 97.3526 121.008 96.7872C121.008 96.7872 121.997 97.6991 122.213 98.1733C122.213 98.1733 121.889 96.6778 121.584 96.1854C121.584 96.1854 122.501 97.4438 122.627 98.3374C122.627 98.3374 122.789 95.9301 122.483 95C122.483 95 123.311 97.6079 123.311 98.7751C123.311 98.7751 123.347 96.5502 123.995 95.693C123.995 95.693 123.851 97.8632 123.959 98.6656C123.959 98.6656 124.283 97.4985 124.265 96.7872C124.265 96.7872 124.661 98.2644 124.553 98.9757C124.553 98.9757 125.111 97.6626 124.859 95.8571C124.859 95.8571 125.344 97.2614 125.308 98.4286C125.308 98.4286 125.704 97.4073 126.226 96.8237C126.226 96.8237 125.524 98.7386 125.506 99.3404C125.506 99.3404 125.794 98.5927 126.316 98.2462C126.316 98.2462 125.632 99.541 125.488 100.088C125.488 100.088 126.064 99.304 127 98.9939C127 98.9939 125.956 100.289 125.938 101H121.26Z" fill="#769914"/>
<path d="M140.255 65.274L139 120H145L141.252 64L140.255 65.274Z" fill="#331C10"/>
<path d="M149 65L142 74.7442L142.259 76.9999L149 65Z" fill="#331C10"/>
<path d="M134 65.5071L141 77.9585L140.501 81.0009L134 65V65.5071Z" fill="#331C10"/>
<path d="M128.848 78L142 93.2063V96L133.051 85.8562L122 79.7625L132.798 84.5813L128.848 78Z" fill="#331C10"/>
<path d="M154 80L142 90.0446V92.9999L154 80Z" fill="#331C10"/>
<path d="M147 87L147.583 86.7572L161 81L148.301 85.4393L147 87Z" fill="#331C10"/>
<path d="M142.522 100.795L149.582 95.6246L154.379 91L150.646 96.1162L162 91.0546L151.168 96.8627L142.522 104L142 100.559" fill="#331C10"/>
<path d="M123 92.0064L132.5 100.089L141.753 105L142 102.669L133.26 99.0573L130.695 90L131.987 98.0063L123 92.0064Z" fill="#331C10"/>
<path d="M134 65.551L135 67L134 65V65.551Z" fill="#331C10"/>
<path d="M162 90.7166L150.76 95.9251L154.456 90.6604L149.707 95.4192L144.154 99.6534L143.618 91.8595L148.214 86.8009L160.928 80.8244L149.745 85.1148L154.628 79.719L143.446 89.274L142.507 75.9344L148.941 64.7682L142.354 73.7237L141.684 64L140.65 65.274L140.401 75.6721L134.944 66.3419C140.305 79.2506 140.746 76.6464 140.037 90.9602L128.74 77.6956L132.627 84.2717L122 79.4567L132.876 85.5457L139.98 93.7143L139.808 101.246L132.876 98.4731L130.291 89.5925L131.593 97.4426L122.536 91.5597L132.11 99.4848L139.75 103.419L139.348 120H145.571L144.365 102.632L151.277 96.6932L162 90.7166Z" fill="#331C10"/>
<g style="mix-blend-mode:multiply">
<path d="M134 65.551L135 67L134 65V65.551Z" fill="#331C10"/>
<path d="M144.49 102.8L151.354 96.9187L162 91L150.308 96.9187L143.635 102.188L142 120H145.688L144.49 102.8Z" fill="#331C10"/>
<path d="M142.555 90.0238L142.861 100L144.2 98.8154L143.703 91.7636L148.295 86.7663L161 80.862L149.826 85.1005L154.705 79.77L143.531 89.2094L142.593 76.0312L149.022 65L142 75.7351L142.555 90.0238Z" fill="#331C10"/>
</g>
<mask id="mask20_100_10855" style="mask-type:luminance" maskUnits="userSpaceOnUse" x="121" y="52" width="42" height="17">
<path d="M157.703 58.5305C157.033 58.5305 156.395 58.6545 155.803 58.873C154.259 55.6458 149.73 54.0683 146.374 55.7365C142.534 49.4914 131.694 51.4799 130.502 58.6953C128.105 58.0509 125.451 59.3044 124.421 61.3855C118.217 62.228 121.324 71.3356 126.816 68.3843C128.99 69.5155 132.008 68.7953 133.413 66.9086C136.345 69.51 141.553 69.5785 144.557 67.0456C146.916 69.373 151.363 69.5489 153.911 67.3956C161.703 73.6926 167.812 59.4877 157.703 58.5305Z" fill="white"/>
</mask>
<g mask="url(#mask20_100_10855)">
<path d="M157.703 58.5336C157.037 58.5336 156.389 58.6448 155.799 58.8671C154.257 55.6438 149.726 54.0692 146.375 55.7364C142.529 49.4936 131.696 51.4757 130.497 58.7003C128.098 58.052 125.452 59.3117 124.424 61.3864C118.217 62.22 121.32 71.3342 126.822 68.3888C128.993 69.5188 132.02 68.7963 133.41 66.9068C136.342 69.5188 141.558 69.5744 144.566 67.055C146.927 69.3706 151.363 69.5558 153.914 67.3884C161.701 73.7054 167.812 59.4784 157.703 58.5336Z" fill="#769914"/>
<g style="mix-blend-mode:multiply">
<path d="M160.999 60C162.664 64.7015 156.119 68.5775 152.393 65.204C150.01 67.447 145.584 67.5547 143.087 65.4372C140.288 68.0751 135.105 68.3263 132.041 65.9756C130.755 67.8956 127.823 68.7749 125.591 67.8059C124.873 68.2904 123.908 68.5417 123 68.434C124.135 69.1338 125.818 69.1338 126.972 68.434C129.128 69.5286 132.136 68.8288 133.516 66.9984C136.429 69.5286 141.612 69.5824 144.6 67.142C146.946 69.3851 151.353 69.5645 153.887 67.465C159.108 72.3459 166.636 64.4144 160.999 60Z" fill="#A3C02D"/>
</g>
<g style="mix-blend-mode:multiply">
<path d="M149 54.0554L146.118 56.0885C146.118 56.0885 142.913 57.0374 142 60C142.465 56.3209 145.133 53.5713 149 54.0554Z" fill="#A3C02D"/>
</g>
<g style="mix-blend-mode:multiply">
<path d="M161 56.0597L158.125 58.0786C158.125 58.0786 154.911 59.0299 154 62C154.482 58.3116 157.143 55.555 161 56.0597Z" fill="#A3C02D"/>
</g>
</g>
<mask id="mask21_100_10855" style="mask-type:luminance" maskUnits="userSpaceOnUse" x="147" y="71" width="21" height="12">
<path d="M163.505 74.1949C163.187 74.1949 162.879 74.2246 162.58 74.2839C160.115 68.9266 151.004 70.4734 150.698 76.3956C143.563 76.6142 148.086 86.5118 153.088 81.6658C155.082 83.2571 158.427 83.3516 160.517 81.8659C167.238 86.6193 171.848 74.8396 163.505 74.1949Z" fill="white"/>
</mask>
<g mask="url(#mask21_100_10855)">
<path d="M163 77.007C162.871 84.9977 151.148 84.9977 151 77.007C151.148 68.9977 162.871 68.9977 163 77.007Z" fill="#769914"/>
<path d="M168 78.5C167.981 84.5 159.019 84.5 159 78.5C159.019 72.5 167.981 72.5 168 78.5Z" fill="#769914"/>
<path d="M154 80C154.059 84 146.922 84 147.001 80C146.922 76 154.059 76 154 80Z" fill="#769914"/>
<g style="mix-blend-mode:multiply">
<path d="M166 72.0545L163.109 73.7341C163.109 73.7341 159.909 74.5366 159 77C159.413 73.9767 162.201 71.6066 166 72.0545Z" fill="#A3C02D"/>
</g>
<g style="mix-blend-mode:multiply">
<path d="M166.771 76C167.756 79.5176 163.114 82.4197 159.97 80.3619C158.151 82.0151 154.892 82.3493 152.732 81.1006C152.069 82.2614 150.402 82.9297 149 82.5604C150.364 83.3342 152.372 82.9297 153.282 81.7513C155.233 83.2639 158.511 83.3518 160.576 81.9448C164.63 85.3745 170.598 79.6583 166.771 76Z" fill="#A3C02D"/>
</g>
</g>
<mask id="mask22_100_10855" style="mask-type:luminance" maskUnits="userSpaceOnUse" x="147" y="86" width="23" height="10">
<path d="M166.453 88.5919C166.201 88.5919 165.956 88.6164 165.72 88.6655C164.301 85.4433 159.157 85.0422 157.233 88.0122C155 86.0193 150.978 87.1694 150.184 89.9904C144.215 90.2112 147.657 98.814 152.199 95.0472C153.922 96.0851 156.468 95.6379 157.717 94.1363C159.24 95.8017 162.241 96.1108 164.097 94.7583C169.397 98.5822 173.037 89.1108 166.453 88.5919Z" fill="white"/>
</mask>
<g mask="url(#mask22_100_10855)">
<path d="M166 91C165.962 97.6667 156.019 97.6667 156 91C156.019 84.3333 165.962 84.3333 166 91Z" fill="#769914"/>
<path d="M170 92.5071C170.055 97.1643 162.927 97.1643 163.001 92.5071C162.927 87.831 170.055 87.831 170 92.5071Z" fill="#769914"/>
<path d="M159 91.4927C158.981 97.5024 150.038 97.5024 150 91.4927C150.038 85.5024 158.981 85.5024 159 91.4927Z" fill="#769914"/>
<path d="M153 92.9929C153.055 97.0024 146.945 97.0024 147 92.9929C146.945 89.0024 153.055 89.0024 153 92.9929Z" fill="#769914"/>
<g style="mix-blend-mode:multiply">
<path d="M172 86.0574L168.704 88.0933C168.704 88.0933 165.041 89.0287 164 92C164.54 88.3317 167.586 85.5622 172 86.0574Z" fill="#A3C02D"/>
</g>
<g style="mix-blend-mode:multiply">
<path d="M161 83L158.919 86.3088C158.919 86.3088 155.968 88.8046 156.474 92C155.14 88.3697 156.615 84.4748 161 83Z" fill="#A3C02D"/>
</g>
<g style="mix-blend-mode:multiply">
<path d="M169.6 90C169.15 92.6286 165.965 93.9428 164.036 92.2794C162.312 93.9634 159.314 93.9018 157.647 92.1973C156.56 93.9839 154.069 94.7232 152.27 93.7375C150.865 95.791 147.587 95.0723 147.006 92.5875C146.837 95.5446 150.434 97.1669 152.214 95.0107C153.938 96.1607 156.467 95.6678 157.703 93.9839C159.221 95.8526 162.2 96.1812 164.054 94.6821C166.808 97.4955 171.38 93.6964 169.6 90Z" fill="#A3C02D"/>
</g>
</g>
<mask id="mask23_100_10855" style="mask-type:luminance" maskUnits="userSpaceOnUse" x="117" y="85" width="21" height="9">
<path d="M134.761 87.3332C134.532 87.3332 134.309 87.3548 134.093 87.3981C132.796 84.4996 128.1 84.138 126.343 86.8103C124.304 85.017 120.632 86.0536 119.907 88.5905C114.456 88.7908 117.601 96.5313 121.746 93.1432C123.32 94.0779 125.646 93.6755 126.784 92.3236C128.177 93.822 130.915 94.1001 132.609 92.8818C137.449 96.3236 140.773 87.7987 134.761 87.3332Z" fill="white"/>
</mask>
<g mask="url(#mask23_100_10855)">
<path d="M135 89.5073C134.962 95.4976 126.019 95.4976 126 89.5073C126.019 83.4976 134.981 83.4976 135 89.5073Z" fill="#769914"/>
<path d="M138 90.0068C138.061 93.9977 130.939 93.9977 131 90.0068C130.939 85.9977 138.061 85.9977 138 90.0068Z" fill="#769914"/>
<path d="M128 90C127.981 95.3333 120.019 95.3333 120 90C120.019 84.6667 127.981 84.6667 128 90Z" fill="#769914"/>
<path d="M123 91.4967C123.062 94.8344 116.959 94.8344 117 91.4967C116.959 88.1767 123.062 88.1589 123 91.4967Z" fill="#769914"/>
<g style="mix-blend-mode:multiply">
<path d="M139 85.0529L136.527 86.7402C136.527 86.7402 133.782 87.5264 133 90C133.364 86.9895 135.745 84.6118 139 85.0529Z" fill="#A3C02D"/>
</g>
<g style="mix-blend-mode:multiply">
<path d="M129 83L127.324 85.571C127.324 85.571 125.005 87.4665 125.297 90C124.361 87.1662 125.648 84.0322 129 83Z" fill="#A3C02D"/>
</g>
<g style="mix-blend-mode:multiply">
<path d="M137.467 89C137.603 91.4875 134.244 93.0672 132.174 91.542C130.553 92.8493 127.78 92.7767 126.237 91.4149C125.202 92.8311 122.878 93.394 121.218 92.5951C120.242 93.7753 118.055 93.8479 117 92.7403C117.84 94.1747 120.281 94.4471 121.453 93.2306C123.054 94.1384 125.398 93.739 126.569 92.4135C127.975 93.8842 130.749 94.1566 132.467 92.9582C135.182 95.3005 139.517 91.887 137.467 89Z" fill="#A3C02D"/>
</g>
</g>
<mask id="mask24_100_10855" style="mask-type:luminance" maskUnits="userSpaceOnUse" x="112" y="71" width="27" height="13">
<path d="M134.878 75.2882C134.67 75.2908 134.467 75.3083 134.268 75.3406C132.774 69.2704 123.748 69.6756 122.796 75.8757C120.722 74.5302 117.671 75.6333 116.854 77.9385C114.818 76.6182 111.934 78.2661 112.002 80.7516C111.892 83.906 116.244 85.2204 117.861 82.6051C119.775 84.6117 123.504 83.8187 124.488 81.2363C126.224 83.0762 129.445 83.4891 131.59 82.0971C137.341 88.2216 143.157 76.244 134.878 75.2882Z" fill="white"/>
</mask>
<g mask="url(#mask24_100_10855)">
<path d="M135 76.9926C134.961 85.0025 123.039 85.0025 123 76.9926C123.039 69.0025 134.981 69.0025 135 76.9926Z" fill="#769914"/>
<path d="M125 78.993C124.982 84.3357 117.037 84.3357 117 78.993C117.037 73.669 124.982 73.669 125 78.993Z" fill="#769914"/>
<path d="M139 78.993C138.982 84.3357 131.018 84.3357 131 78.993C131.018 73.669 138.982 73.669 139 78.993Z" fill="#769914"/>
<path d="M118 81.0068C118.053 84.9977 111.947 84.9977 112 81.0068C111.947 76.9977 118.053 76.9977 118 81.0068Z" fill="#769914"/>
<g style="mix-blend-mode:multiply">
<path d="M138 73.0544L135.537 74.7289C135.537 74.7289 132.796 75.5272 132 78C132.37 74.982 134.759 72.6066 138 73.0544Z" fill="#A3C02D"/>
</g>
<g style="mix-blend-mode:multiply">
<path d="M120 73L118.305 75.5491C118.305 75.5491 116.207 76.5 116.12 80C115.561 76.9249 116.976 73.7283 120 73Z" fill="#A3C02D"/>
</g>
<g style="mix-blend-mode:multiply">
<path d="M137.827 77C138.167 80.5965 133.394 82.7923 130.885 80.2369C129.017 81.9216 125.791 82.0541 123.792 80.5587C123.339 82.5841 121.094 84.0605 119 83.5873C121.019 84.6095 123.697 83.5495 124.508 81.5051C126.244 83.3034 129.432 83.7198 131.564 82.3569C135.054 86.8431 141.694 81.1644 137.827 77Z" fill="#A3C02D"/>
</g>
</g>
<path d="M137.817 121C137.817 121 137.601 117.732 136 116.242C136 116.242 138.266 118.229 138.428 118.631C138.428 118.631 138.086 115.516 137.439 114.694C137.439 114.694 138.878 116.032 139.165 116.758C139.165 116.758 138.716 114.503 138.284 113.758C138.284 113.758 139.579 115.669 139.777 116.987C139.777 116.987 139.993 113.395 139.561 112C139.561 112 140.73 115.917 140.73 117.656C140.73 117.656 140.784 114.312 141.701 113.051C141.701 113.051 141.522 116.299 141.665 117.484C141.665 117.484 142.115 115.745 142.097 114.675C142.097 114.675 142.673 116.873 142.493 117.943C142.493 117.943 143.302 115.975 142.96 113.28C142.96 113.28 143.644 115.382 143.59 117.14C143.59 117.14 144.147 115.592 144.885 114.713C144.885 114.713 143.896 117.58 143.878 118.497C143.878 118.497 144.273 117.369 145.029 116.873C145.029 116.873 144.058 118.783 143.842 119.624C143.842 119.624 144.669 118.439 146 117.981C146 117.981 144.525 119.93 144.489 121H137.817Z" fill="#769914"/>
<path d="M143.26 121C143.26 121 143.116 118.83 142 117.827C142 117.827 143.584 119.158 143.692 119.432C143.692 119.432 143.458 117.353 143.008 116.787C143.008 116.787 143.997 117.699 144.213 118.173C144.213 118.173 143.889 116.678 143.584 116.185C143.584 116.185 144.501 117.444 144.627 118.337C144.627 118.337 144.789 115.93 144.483 115C144.483 115 145.311 117.608 145.311 118.775C145.311 118.775 145.347 116.55 145.995 115.693C145.995 115.693 145.851 117.863 145.959 118.666C145.959 118.666 146.283 117.498 146.265 116.787C146.265 116.787 146.661 118.264 146.553 118.976C146.553 118.976 147.111 117.663 146.859 115.857C146.859 115.857 147.344 117.261 147.308 118.429C147.308 118.429 147.704 117.407 148.226 116.824C148.226 116.824 147.524 118.739 147.506 119.34C147.506 119.34 147.794 118.593 148.316 118.246C148.316 118.246 147.632 119.541 147.488 120.088C147.488 120.088 148.064 119.304 149 118.994C149 118.994 147.956 120.289 147.938 121H143.26Z" fill="#769914"/>
</svg>
