<svg width="399" height="291" viewBox="0 0 399 291" fill="none" xmlns="http://www.w3.org/2000/svg">
<g clip-path="url(#clip0_3246_59252)">
<path d="M169.5 184.46H248.25C249.285 184.46 250.125 183.62 250.125 182.585V126.335C250.125 125.299 249.285 124.46 248.25 124.46H169.5C168.465 124.46 167.625 125.299 167.625 126.335V182.585C167.625 183.62 168.465 184.46 169.5 184.46Z" fill="#EDF4FF"/>
<path d="M229.5 96.335H147C145.634 96.335 144.353 96.6996 143.25 97.3376L141.375 103.835V163.835H216.844L237 124.46V103.835C237 99.6929 233.642 96.335 229.5 96.335Z" fill="#DBEAFF"/>
<path d="M218.25 128.21L197.15 137.253C193.829 138.676 190.105 138.853 186.664 137.75L180.748 135.855C177.728 134.887 174.423 135.512 171.965 137.516L148.875 156.335L193.875 158.21L218.25 128.21Z" fill="#B3E59F"/>
<path d="M139.5 103.835V158.21L141.473 159.772L143.25 156.897V97.3374C141.018 98.6368 139.5 101.066 139.5 103.835Z" fill="#C3DDFF"/>
<path d="M228.679 120.894C225.792 119.657 222.44 120.349 220.28 122.629L193.493 150.905C191.562 152.943 188.424 153.245 186.14 151.613L180.165 147.346C178.181 145.928 175.63 145.564 173.329 146.37L143.25 156.897L141.609 162.038C141.609 166.18 144.967 169.538 149.109 169.538H229.5L235.996 167.585C236.635 166.482 237 165.201 237 163.835V124.46L228.679 120.894Z" fill="#95D6A4"/>
<path d="M247.311 118.835H244.498C243.462 118.835 242.623 117.995 242.623 116.96C242.623 115.924 243.462 115.085 244.498 115.085H247.311C248.347 115.085 249.186 115.924 249.186 116.96C249.186 117.995 248.347 118.835 247.311 118.835Z" fill="#EDF4FF"/>
<path d="M247.69 193.835H241.898C240.862 193.835 240.023 192.996 240.023 191.96C240.023 190.925 240.862 190.085 241.898 190.085H247.69C248.726 190.085 249.565 190.925 249.565 191.96C249.565 192.996 248.726 193.835 247.69 193.835ZM234.175 193.835H228.383C227.347 193.835 226.508 192.996 226.508 191.96C226.508 190.925 227.347 190.085 228.383 190.085H234.175C235.211 190.085 236.05 190.925 236.05 191.96C236.05 192.996 235.211 193.835 234.175 193.835ZM220.66 193.835H214.868C213.832 193.835 212.993 192.996 212.993 191.96C212.993 190.925 213.832 190.085 214.868 190.085H220.66C221.696 190.085 222.535 190.925 222.535 191.96C222.535 192.996 221.696 193.835 220.66 193.835ZM207.145 193.835H201.353C200.317 193.835 199.478 192.996 199.478 191.96C199.478 190.925 200.317 190.085 201.353 190.085H207.145C208.181 190.085 209.02 190.925 209.02 191.96C209.02 192.996 208.181 193.835 207.145 193.835ZM193.63 193.835H187.838C186.802 193.835 185.963 192.996 185.963 191.96C185.963 190.925 186.802 190.085 187.838 190.085H193.63C194.666 190.085 195.505 190.925 195.505 191.96C195.505 192.996 194.666 193.835 193.63 193.835ZM180.115 193.835H174.323C173.287 193.835 172.448 192.996 172.448 191.96C172.448 190.925 173.287 190.085 174.323 190.085H180.115C181.151 190.085 181.99 190.925 181.99 191.96C181.99 192.996 181.151 193.835 180.115 193.835ZM166.607 193.767C166.523 193.767 166.438 193.761 166.352 193.749C163.923 193.419 161.749 192.168 160.233 190.227C159.596 189.412 159.74 188.233 160.555 187.595C161.376 186.956 162.551 187.103 163.188 187.918C164.1 189.085 165.402 189.836 166.858 190.034C167.885 190.173 168.603 191.119 168.464 192.144C168.335 193.084 167.53 193.767 166.607 193.767ZM254.983 192.049C254.454 192.049 253.926 191.826 253.557 191.39C252.885 190.602 252.978 189.419 253.767 188.747C254.893 187.787 255.589 186.453 255.725 184.991C255.822 183.959 256.748 183.208 257.766 183.298C258.797 183.394 259.555 184.308 259.46 185.338C259.231 187.78 258.074 190.004 256.199 191.602C255.845 191.902 255.413 192.049 254.983 192.049ZM257.625 179.318C256.589 179.318 255.75 178.478 255.75 177.443V171.651C255.75 170.616 256.589 169.776 257.625 169.776C258.662 169.776 259.5 170.616 259.5 171.651V177.443C259.5 178.478 258.662 179.318 257.625 179.318ZM257.625 165.803C256.589 165.803 255.75 164.964 255.75 163.928V158.136C255.75 157.1 256.589 156.261 257.625 156.261C258.662 156.261 259.5 157.1 259.5 158.136V163.928C259.5 164.964 258.662 165.803 257.625 165.803ZM257.625 152.288C256.589 152.288 255.75 151.449 255.75 150.413V144.621C255.75 143.586 256.589 142.746 257.625 142.746C258.662 142.746 259.5 143.586 259.5 144.621V150.414C259.5 151.449 258.662 152.288 257.625 152.288ZM257.625 138.773C256.589 138.773 255.75 137.934 255.75 136.898V131.106C255.75 130.07 256.589 129.231 257.625 129.231C258.662 129.231 259.5 130.07 259.5 131.106V136.898C259.5 137.934 258.662 138.773 257.625 138.773ZM257.548 125.262C256.631 125.262 255.829 124.588 255.693 123.654C255.485 122.2 254.725 120.902 253.551 119.999C252.731 119.367 252.579 118.19 253.21 117.369C253.839 116.548 255.014 116.394 255.84 117.027C257.792 118.529 259.057 120.694 259.407 123.121C259.553 124.146 258.841 125.097 257.816 125.243C257.726 125.256 257.636 125.262 257.548 125.262Z" fill="#EDF4FF"/>
<path d="M160.125 183.523C159.089 183.523 158.25 182.684 158.25 181.648V178.836C158.25 177.8 159.089 176.961 160.125 176.961C161.161 176.961 162 177.8 162 178.836V181.648C162 182.684 161.161 183.523 160.125 183.523Z" fill="#EDF4FF"/>
<path d="M160.125 124.46C164.267 124.46 167.625 121.102 167.625 116.96C167.625 112.818 164.267 109.46 160.125 109.46C155.983 109.46 152.625 112.818 152.625 116.96C152.625 121.102 155.983 124.46 160.125 124.46Z" fill="white"/>
<path d="M152.625 167.585C147.447 167.585 143.25 163.388 143.25 158.21V156.897L139.5 158.21V163.835C139.5 167.977 142.858 171.335 147 171.335H229.5C232.269 171.335 234.697 169.817 235.996 167.585H152.625Z" fill="#78C2A4"/>
</g>
<defs>
<clipPath id="clip0_3246_59252">
<rect width="120" height="120" fill="white" transform="translate(139.5 85.085)"/>
</clipPath>
</defs>
</svg>
