<svg width="24" height="24" viewBox="0 0 24 24" fill="none" xmlns="http://www.w3.org/2000/svg">
    <g clip-path="url(#clip0_900_238)">
    <path d="M12 7.28575C12.9468 7.28575 13.7143 6.51824 13.7143 5.57146C13.7143 4.62469 12.9468 3.85718 12 3.85718C11.0532 3.85718 10.2857 4.62469 10.2857 5.57146C10.2857 6.51824 11.0532 7.28575 12 7.28575Z" fill="black"/>
    <path d="M12 24C18.6274 24 24 18.6274 24 12C24 5.37258 18.6274 0 12 0C5.37258 0 0 5.37258 0 12C0.00755766 18.6243 5.37572 23.9924 12 24ZM12 0.857143C18.154 0.857143 23.1429 5.84597 23.1429 12C23.1429 18.154 18.154 23.1429 12 23.1429C5.84597 23.1429 0.857143 18.154 0.857143 12C0.864228 5.84891 5.84891 0.864228 12 0.857143Z" fill="black"/>
    <path d="M5.90145 10.2857L9.54431 10.6161C10.2077 10.673 10.7165 11.2292 10.7143 11.895V12.8807C10.7145 13.2022 10.6542 13.5209 10.5365 13.8201L8.46688 19.0916C8.39122 19.2305 8.39829 19.3999 8.48529 19.5321C8.57228 19.6643 8.72503 19.7378 8.88261 19.7233C9.04018 19.7087 9.17694 19.6086 9.23831 19.4627L11.2123 14.6696C11.3436 14.3515 11.6538 14.144 11.9979 14.144C12.342 14.144 12.6522 14.3515 12.7835 14.6696L14.763 19.4747C14.81 19.5737 14.8936 19.6506 14.9962 19.689C15.1585 19.7506 15.342 19.7081 15.4608 19.5815C15.5796 19.4548 15.6102 19.2689 15.5383 19.1109L13.4636 13.8201C13.3459 13.5208 13.2856 13.2019 13.2857 12.8803V11.8946C13.2828 11.2284 13.7916 10.6715 14.4553 10.6144L18.0926 10.2857C18.2071 10.2785 18.3139 10.2257 18.3891 10.1391C18.4643 10.0525 18.5017 9.93936 18.4929 9.825C18.4853 9.71135 18.4326 9.60546 18.3464 9.53098C18.2603 9.45649 18.1479 9.41961 18.0343 9.42857L13.5373 9.83228C13.359 9.84885 13.1803 9.85714 13.0012 9.85714H10.9989C10.8197 9.85714 10.641 9.84914 10.4627 9.83314L5.96188 9.42857C5.72519 9.41188 5.51978 9.59023 5.5031 9.82692C5.48641 10.0636 5.66476 10.269 5.90145 10.2857Z" fill="black"/>
    <path d="M12 22.2858C17.6807 22.2858 22.2857 17.6807 22.2857 12.0001C22.2857 6.31943 17.6807 1.71436 12 1.71436C6.31937 1.71436 1.71429 6.31943 1.71429 12.0001C1.72091 17.678 6.32211 22.2792 12 22.2858ZM12 3.00007C13.4202 3.00007 14.5714 4.15134 14.5714 5.5715C14.5714 6.99166 13.4202 8.14293 12 8.14293C10.5798 8.14293 9.42858 6.99166 9.42858 5.5715C9.43 4.15193 10.5804 3.00149 12 3.00007ZM6.03129 8.57493L10.539 8.9795C10.6919 8.99321 10.8452 9.00007 10.9989 9.00007H13.0012C13.1546 9.00007 13.3079 8.99321 13.461 8.9795L17.961 8.57536H17.9679C18.6759 8.52139 19.2937 9.05164 19.3477 9.75971C19.4016 10.4678 18.8714 11.0855 18.1633 11.1395L14.532 11.4691C14.3113 11.489 14.1422 11.6739 14.142 11.8955V12.8812C14.1419 13.0956 14.182 13.3082 14.2603 13.5078L16.3299 18.7792C16.5971 19.425 16.2995 20.1659 15.6599 20.4475C15.0203 20.7291 14.2728 20.4482 13.977 19.8151L11.9927 14.9949L10.0286 19.8001C9.84752 20.2277 9.4499 20.5245 8.9884 20.5765C8.5269 20.6284 8.07325 20.4274 7.80166 20.0507C7.53007 19.674 7.48275 19.1801 7.67787 18.7586L9.74015 13.5061C9.81797 13.3067 9.85766 13.0944 9.85715 12.8804V11.8946C9.85694 11.673 9.68785 11.4882 9.46715 11.4682L5.82858 11.1386C5.12063 11.083 4.59181 10.464 4.64744 9.75607C4.70306 9.04812 5.32206 8.5193 6.03001 8.57493H6.03129Z" fill="black"/>
    </g>
    <defs>
    <clipPath id="clip0_900_238">
    <rect width="24" height="24" fill="white"/>
    </clipPath>
    </defs>
    </svg>
    