<svg width="83" height="76" viewBox="0 0 83 76" fill="none" xmlns="http://www.w3.org/2000/svg">
<path d="M73.9771 20.9082L68.0083 31.2411V33.895L73.9771 20.9082Z" fill="#331C10"/>
<path d="M67.1115 7.84068C66.9351 17.1766 51.7633 17.1766 51.5869 7.84068C51.7633 -1.50874 66.9351 -1.50874 67.1115 7.84068Z" fill="#016256"/>
<path d="M71.713 4.28403C71.5954 9.99607 62.3335 9.99607 62.2306 4.28403C62.3335 -1.42801 71.5954 -1.42801 71.713 4.28403Z" fill="#016256"/>
<path d="M82.9155 14.6844C82.6068 31.2951 55.6297 31.2951 55.3357 14.6844C55.6444 -1.92636 82.6068 -1.92636 82.9155 14.6844Z" fill="#016256"/>
<g style="mix-blend-mode:multiply" opacity="0.4">
<path d="M81.4601 9.03955C82.3863 20.2616 67.6849 27.9135 57.6292 21.6761C67.141 34.5821 88.9578 23.1445 81.4601 9.03955Z" fill="#016256"/>
</g>
<path d="M67.5673 16.8532L69.7872 47.2725H66.4647L67.5673 16.6511V16.8532Z" fill="#331C10"/>
<path d="M58.4965 14.6304L67.7877 33.0867L68.0083 30.0421L58.4965 14.6304Z" fill="#331C10"/>
<path d="M55.174 17.675L63.3627 23.1446L62.6717 21.528L55.174 17.675Z" fill="#331C10"/>
<mask id="mask0_12_25655" style="mask-type:luminance" maskUnits="userSpaceOnUse" x="55" y="14" width="19" height="34">
<path d="M73.9815 20.915L68.5464 30.3183C68.5405 30.0435 67.5423 16.9246 67.5658 16.6552L67.1336 28.6222L58.4921 14.6277L61.722 21.0389L55.174 17.6696L62.4894 22.5612L67.0278 31.5725C66.8925 35.381 66.5985 43.4263 66.4618 47.2766H69.7813L68.6964 32.3916L73.9815 20.915Z" fill="white"/>
</mask>
<g mask="url(#mask0_12_25655)">
<g style="mix-blend-mode:multiply">
<path d="M73.7567 35.9158L76.6382 28.0079L76.2854 21.6896L74.6535 19.6958L67.8909 32.1976L67.788 49.1047L77.0793 45.858L73.7567 35.9158Z" fill="#331C10"/>
</g>
<g style="mix-blend-mode:multiply">
<path d="M68.6406 29.7592L69.5521 18.8874L67.5674 16.6511L67.9496 31.0121L68.5524 30.3115L68.6406 29.7592Z" fill="#331C10"/>
</g>
<g style="mix-blend-mode:multiply">
<path d="M58.4966 14.6304L67.0234 29.4898L66.9058 27.1996L58.4966 14.6304Z" fill="#331C10"/>
</g>
</g>
<path d="M60.7899 15.7351C60.6282 24.0337 47.147 24.0337 47 15.7351C47.147 7.42295 60.6282 7.42295 60.7899 15.7351Z" fill="#016256"/>
<g style="mix-blend-mode:multiply" opacity="0.4">
<path d="M59.6432 12.2593C61.2751 18.9952 51.8809 22.6326 47.2794 17.5402C50.6313 26.5663 65.0534 20.4501 59.6432 12.2593Z" fill="#016256"/>
</g>
<path d="M77.1672 12.0436C76.9614 22.7807 59.5549 22.7807 59.3491 12.0436C59.5549 1.32009 76.9614 1.32009 77.1672 12.0436Z" fill="#016256"/>
<g style="mix-blend-mode:multiply" opacity="0.4">
<path d="M75.6972 7.55762C77.6966 16.3412 65.8178 20.9486 59.7314 14.3878C64.039 26.0274 82.6656 18.133 75.6972 7.55762Z" fill="#016256"/>
</g>
<path d="M64.4506 48.0001C64.4506 48.0001 64.2889 45.9255 63.1128 44.9824C63.1128 44.9824 64.7741 46.2353 64.8917 46.4913C64.8917 46.4913 64.6417 44.5109 64.1713 43.9855C64.1713 43.9855 65.2298 44.8477 65.4356 45.3058C65.4356 45.3058 65.1122 43.8643 64.7888 43.4062C64.7888 43.4062 65.7443 44.6052 65.8914 45.454C65.8914 45.454 66.0678 43.1638 65.7296 42.2881C65.7296 42.2881 66.597 44.7669 66.6117 45.8851C66.6117 45.8851 66.6411 43.743 67.3174 42.9482C67.3174 42.9482 67.1851 45.0094 67.288 45.7638C67.288 45.7638 67.6114 44.6726 67.6114 43.9855C67.6114 43.9855 68.0231 45.3866 67.9055 46.0602C67.9055 46.0602 68.4935 44.8073 68.2289 43.0964C68.2289 43.0964 68.7434 44.4301 68.714 45.5483C68.714 45.5483 69.111 44.5648 69.6696 44.0125C69.6696 44.0125 68.9346 45.8312 68.9198 46.4105C68.9198 46.4105 69.2139 45.6965 69.7578 45.3731C69.7578 45.3731 69.0522 46.5991 68.8904 47.1245C68.8904 47.1245 69.4932 46.3835 70.4782 46.0737C70.4782 46.0737 69.3903 47.3265 69.3756 48.0001H64.4506Z" fill="#769914"/>
<path d="M68.1259 48.0001C68.1259 48.0001 68.023 46.5452 67.1851 45.8851C67.1851 45.8851 68.3612 46.7607 68.4347 46.9493C68.4347 46.9493 68.2583 45.5617 67.9348 45.1845C67.9348 45.1845 68.6699 45.7908 68.8169 46.1141C68.8169 46.1141 68.5817 45.1037 68.3612 44.7804C68.3612 44.7804 69.0374 45.6291 69.1403 46.2084C69.1403 46.2084 69.258 44.6053 69.0227 43.999C69.0227 43.999 69.6255 45.7369 69.6402 46.5183C69.6402 46.5183 69.6549 45.0229 70.14 44.4571C70.14 44.4571 70.0371 45.8985 70.1106 46.4239C70.1106 46.4239 70.3459 45.6695 70.3312 45.1845C70.3312 45.1845 70.6252 46.168 70.5517 46.6395C70.5517 46.6395 70.9486 45.7638 70.7722 44.5648C70.7722 44.5648 71.125 45.4944 71.1103 46.2758C71.1103 46.2758 71.3897 45.5887 71.7719 45.198C71.7719 45.198 71.2573 46.4778 71.2573 46.882C71.2573 46.882 71.4632 46.3835 71.8454 46.1545C71.8454 46.1545 71.3456 47.0167 71.2426 47.3804C71.2426 47.3804 71.669 46.8685 72.3452 46.653C72.3452 46.653 71.5808 47.5152 71.5661 48.0001H68.1259Z" fill="#769914"/>
<path d="M26.9771 40.9082L21.0083 51.2411V53.895L26.9771 40.9082Z" fill="#331C10"/>
<path d="M20.1115 27.8407C19.9351 37.1766 4.76327 37.1766 4.58685 27.8407C4.76327 18.4913 19.9351 18.4913 20.1115 27.8407Z" fill="#016256"/>
<path d="M24.713 24.284C24.5954 29.9961 15.3335 29.9961 15.2306 24.284C15.3335 18.572 24.5954 18.572 24.713 24.284Z" fill="#016256"/>
<path d="M35.9155 34.6841C35.6068 51.2948 8.62972 51.2948 8.33569 34.6841C8.64442 18.0734 35.6068 18.0734 35.9155 34.6841Z" fill="#016256"/>
<g style="mix-blend-mode:multiply" opacity="0.4">
<path d="M34.4601 29.0396C35.3863 40.2616 20.6849 47.9135 10.6292 41.6761C20.141 54.5821 41.9578 43.1445 34.4601 29.0396Z" fill="#016256"/>
</g>
<path d="M20.5673 36.8534L22.7872 67.2728H19.4647L20.5673 36.6514V36.8534Z" fill="#331C10"/>
<path d="M11.4965 34.6304L20.7878 53.0867L21.0083 50.0421L11.4965 34.6304Z" fill="#331C10"/>
<path d="M8.17401 37.6748L16.3627 43.1444L15.6717 41.5277L8.17401 37.6748Z" fill="#331C10"/>
<mask id="mask1_12_25655" style="mask-type:luminance" maskUnits="userSpaceOnUse" x="8" y="34" width="19" height="34">
<path d="M26.9815 40.9147L21.5464 50.318C21.5405 50.0432 20.5423 36.9244 20.5658 36.655L20.1336 48.6219L11.4921 34.6274L14.722 41.0387L8.17401 37.6694L15.4894 42.561L20.0278 51.5723C19.8925 55.3807 19.5985 63.4261 19.4618 67.2763H22.7813L21.6964 52.3914L26.9815 40.9147Z" fill="white"/>
</mask>
<g mask="url(#mask1_12_25655)">
<g style="mix-blend-mode:multiply">
<path d="M26.7566 55.9158L29.6381 48.0079L29.2853 41.6896L27.6534 39.6958L20.8908 52.1976L20.7878 69.1047L30.0791 65.858L26.7566 55.9158Z" fill="#331C10"/>
</g>
<g style="mix-blend-mode:multiply">
<path d="M21.6406 49.7594L22.5521 38.8877L20.5674 36.6514L20.9496 51.0123L21.5524 50.3118L21.6406 49.7594Z" fill="#331C10"/>
</g>
<g style="mix-blend-mode:multiply">
<path d="M11.4965 34.6304L20.0233 49.4898L19.9057 47.1996L11.4965 34.6304Z" fill="#331C10"/>
</g>
</g>
<path d="M13.7899 35.7351C13.6282 44.0337 0.147014 44.0337 0 35.7351C0.147014 27.423 13.6282 27.423 13.7899 35.7351Z" fill="#016256"/>
<g style="mix-blend-mode:multiply" opacity="0.4">
<path d="M12.6432 32.2593C14.2751 38.9952 4.8809 42.6326 0.279358 37.5402C3.63128 46.5663 18.0534 40.4501 12.6432 32.2593Z" fill="#016256"/>
</g>
<path d="M30.1672 32.0436C29.9614 42.7807 12.5549 42.7807 12.3491 32.0436C12.5549 21.3201 29.9614 21.3201 30.1672 32.0436Z" fill="#016256"/>
<g style="mix-blend-mode:multiply" opacity="0.4">
<path d="M28.6971 27.5576C30.6965 36.3412 18.8178 40.9486 12.7314 34.3878C17.0389 46.0274 35.6656 38.133 28.6971 27.5576Z" fill="#016256"/>
</g>
<path d="M17.4506 68.0001C17.4506 68.0001 17.2889 65.9255 16.1128 64.9824C16.1128 64.9824 17.7741 66.2353 17.8917 66.4913C17.8917 66.4913 17.6417 64.5109 17.1713 63.9855C17.1713 63.9855 18.2298 64.8477 18.4356 65.3058C18.4356 65.3058 18.1122 63.8643 17.7888 63.4062C17.7888 63.4062 18.7443 64.6052 18.8914 65.454C18.8914 65.454 19.0678 63.1638 18.7296 62.2881C18.7296 62.2881 19.597 64.7669 19.6117 65.8851C19.6117 65.8851 19.6411 63.743 20.3174 62.9482C20.3174 62.9482 20.1851 65.0094 20.288 65.7638C20.288 65.7638 20.6114 64.6726 20.6114 63.9855C20.6114 63.9855 21.0231 65.3866 20.9055 66.0602C20.9055 66.0602 21.4935 64.8073 21.2289 63.0964C21.2289 63.0964 21.7434 64.4301 21.714 65.5483C21.714 65.5483 22.111 64.5648 22.6696 64.0125C22.6696 64.0125 21.9346 65.8312 21.9198 66.4105C21.9198 66.4105 22.2139 65.6965 22.7578 65.3731C22.7578 65.3731 22.0522 66.5991 21.8904 67.1245C21.8904 67.1245 22.4932 66.3835 23.4782 66.0737C23.4782 66.0737 22.3903 67.3265 22.3756 68.0001H17.4506Z" fill="#769914"/>
<path d="M21.126 68.0001C21.126 68.0001 21.0231 66.5452 20.1851 65.8851C20.1851 65.8851 21.3612 66.7607 21.4347 66.9493C21.4347 66.9493 21.2583 65.5617 20.9349 65.1845C20.9349 65.1845 21.67 65.7908 21.817 66.1141C21.817 66.1141 21.5818 65.1037 21.3612 64.7804C21.3612 64.7804 22.0375 65.6291 22.1404 66.2084C22.1404 66.2084 22.258 64.6053 22.0228 63.999C22.0228 63.999 22.6256 65.7369 22.6403 66.5183C22.6403 66.5183 22.655 65.0229 23.1401 64.4571C23.1401 64.4571 23.0372 65.8985 23.1107 66.4239C23.1107 66.4239 23.3459 65.6695 23.3312 65.1845C23.3312 65.1845 23.6252 66.168 23.5517 66.6395C23.5517 66.6395 23.9487 65.7638 23.7723 64.5648C23.7723 64.5648 24.1251 65.4944 24.1104 66.2758C24.1104 66.2758 24.3897 65.5887 24.772 65.198C24.772 65.198 24.2574 66.4778 24.2574 66.882C24.2574 66.882 24.4632 66.3835 24.8455 66.1545C24.8455 66.1545 24.3456 67.0167 24.2427 67.3804C24.2427 67.3804 24.669 66.8685 25.3453 66.653C25.3453 66.653 24.5808 67.5152 24.5661 68.0001H21.126Z" fill="#769914"/>
<path d="M59.9771 48.9082L54.0083 59.2411V61.895L59.9771 48.9082Z" fill="#331C10"/>
<path d="M53.1115 35.8407C52.9351 45.1766 37.7633 45.1766 37.5869 35.8407C37.7633 26.4913 52.9351 26.4913 53.1115 35.8407Z" fill="#016256"/>
<path d="M57.713 32.284C57.5954 37.9961 48.3335 37.9961 48.2306 32.284C48.3335 26.572 57.5954 26.572 57.713 32.284Z" fill="#016256"/>
<path d="M68.9155 42.6841C68.6068 59.2948 41.6297 59.2948 41.3357 42.6841C41.6444 26.0734 68.6068 26.0734 68.9155 42.6841Z" fill="#016256"/>
<g style="mix-blend-mode:multiply" opacity="0.4">
<path d="M67.4601 37.0396C68.3863 48.2616 53.6849 55.9135 43.6292 49.6761C53.141 62.5821 74.9578 51.1445 67.4601 37.0396Z" fill="#016256"/>
</g>
<path d="M53.5673 44.8534L55.7872 75.2728H52.4647L53.5673 44.6514V44.8534Z" fill="#331C10"/>
<path d="M44.4965 42.6304L53.7878 61.0867L54.0083 58.0421L44.4965 42.6304Z" fill="#331C10"/>
<path d="M41.174 45.6748L49.3627 51.1444L48.6717 49.5277L41.174 45.6748Z" fill="#331C10"/>
<mask id="mask2_12_25655" style="mask-type:luminance" maskUnits="userSpaceOnUse" x="41" y="42" width="19" height="34">
<path d="M59.9815 48.9147L54.5464 58.318C54.5405 58.0432 53.5423 44.9244 53.5658 44.655L53.1336 56.6219L44.4921 42.6274L47.722 49.0387L41.174 45.6694L48.4894 50.561L53.0278 59.5723C52.8925 63.3807 52.5985 71.4261 52.4618 75.2763H55.7813L54.6964 60.3914L59.9815 48.9147Z" fill="white"/>
</mask>
<g mask="url(#mask2_12_25655)">
<g style="mix-blend-mode:multiply">
<path d="M59.7566 63.9158L62.6381 56.0079L62.2853 49.6896L60.6534 47.6958L53.8908 60.1976L53.7878 77.1047L63.0791 73.858L59.7566 63.9158Z" fill="#331C10"/>
</g>
<g style="mix-blend-mode:multiply">
<path d="M54.6406 57.7594L55.5521 46.8877L53.5674 44.6514L53.9496 59.0123L54.5524 58.3118L54.6406 57.7594Z" fill="#331C10"/>
</g>
<g style="mix-blend-mode:multiply">
<path d="M44.4965 42.6304L53.0233 57.4898L52.9057 55.1996L44.4965 42.6304Z" fill="#331C10"/>
</g>
</g>
<path d="M46.7899 43.7351C46.6282 52.0337 33.147 52.0337 33 43.7351C33.147 35.423 46.6282 35.423 46.7899 43.7351Z" fill="#016256"/>
<g style="mix-blend-mode:multiply" opacity="0.4">
<path d="M45.6432 40.2593C47.2751 46.9952 37.8809 50.6326 33.2794 45.5402C36.6313 54.5663 51.0534 48.4501 45.6432 40.2593Z" fill="#016256"/>
</g>
<path d="M63.1672 40.0436C62.9614 50.7807 45.5549 50.7807 45.3491 40.0436C45.5549 29.3201 62.9614 29.3201 63.1672 40.0436Z" fill="#016256"/>
<g style="mix-blend-mode:multiply" opacity="0.4">
<path d="M61.6971 35.5576C63.6965 44.3412 51.8178 48.9486 45.7314 42.3878C50.0389 54.0274 68.6656 46.133 61.6971 35.5576Z" fill="#016256"/>
</g>
<path d="M50.4506 76.0001C50.4506 76.0001 50.2889 73.9255 49.1128 72.9824C49.1128 72.9824 50.7741 74.2353 50.8917 74.4913C50.8917 74.4913 50.6417 72.5109 50.1713 71.9855C50.1713 71.9855 51.2298 72.8477 51.4356 73.3058C51.4356 73.3058 51.1122 71.8643 50.7888 71.4062C50.7888 71.4062 51.7443 72.6052 51.8914 73.454C51.8914 73.454 52.0678 71.1638 51.7296 70.2881C51.7296 70.2881 52.597 72.7669 52.6117 73.8851C52.6117 73.8851 52.6411 71.743 53.3174 70.9482C53.3174 70.9482 53.1851 73.0094 53.288 73.7638C53.288 73.7638 53.6114 72.6726 53.6114 71.9855C53.6114 71.9855 54.0231 73.3866 53.9055 74.0602C53.9055 74.0602 54.4935 72.8073 54.2289 71.0964C54.2289 71.0964 54.7434 72.4301 54.714 73.5483C54.714 73.5483 55.111 72.5648 55.6696 72.0125C55.6696 72.0125 54.9346 73.8312 54.9198 74.4105C54.9198 74.4105 55.2139 73.6965 55.7578 73.3731C55.7578 73.3731 55.0522 74.5991 54.8904 75.1245C54.8904 75.1245 55.4932 74.3835 56.4782 74.0737C56.4782 74.0737 55.3903 75.3265 55.3756 76.0001H50.4506Z" fill="#769914"/>
<path d="M54.126 76.0001C54.126 76.0001 54.0231 74.5452 53.1851 73.8851C53.1851 73.8851 54.3612 74.7607 54.4347 74.9493C54.4347 74.9493 54.2583 73.5617 53.9349 73.1845C53.9349 73.1845 54.67 73.7908 54.817 74.1141C54.817 74.1141 54.5818 73.1037 54.3612 72.7804C54.3612 72.7804 55.0375 73.6291 55.1404 74.2084C55.1404 74.2084 55.258 72.6053 55.0228 71.999C55.0228 71.999 55.6256 73.7369 55.6403 74.5183C55.6403 74.5183 55.655 73.0229 56.1401 72.4571C56.1401 72.4571 56.0372 73.8985 56.1107 74.4239C56.1107 74.4239 56.3459 73.6695 56.3312 73.1845C56.3312 73.1845 56.6252 74.168 56.5517 74.6395C56.5517 74.6395 56.9487 73.7638 56.7723 72.5648C56.7723 72.5648 57.1251 73.4944 57.1104 74.2758C57.1104 74.2758 57.3897 73.5887 57.772 73.198C57.772 73.198 57.2574 74.4778 57.2574 74.882C57.2574 74.882 57.4632 74.3835 57.8455 74.1545C57.8455 74.1545 57.3456 75.0167 57.2427 75.3804C57.2427 75.3804 57.669 74.8685 58.3453 74.653C58.3453 74.653 57.5808 75.5152 57.5661 76.0001H54.126Z" fill="#769914"/>
</svg>
