<svg width="41" height="38" viewBox="0 0 41 38" fill="none" xmlns="http://www.w3.org/2000/svg">
<path d="M35.8965 10.6765L33.0332 15.6334V16.9066L35.8965 10.6765Z" fill="#331C10"/>
<path d="M32.6018 4.40778C32.5172 8.88642 25.2389 8.88642 25.1543 4.40778C25.2389 -0.0773319 32.5172 -0.0773319 32.6018 4.40778Z" fill="#016256"/>
<path d="M34.8106 2.70162C34.7542 5.4418 30.3111 5.4418 30.2617 2.70162C30.3111 -0.0385611 34.7542 -0.0385611 34.8106 2.70162Z" fill="#016256"/>
<path d="M40.1837 7.69097C40.0356 15.6595 27.0942 15.6595 26.9531 7.69097C27.1012 -0.277525 40.0356 -0.277525 40.1837 7.69097Z" fill="#016256"/>
<g style="mix-blend-mode:multiply" opacity="0.4">
<path d="M39.4849 4.98291C39.9293 10.3663 32.8767 14.0371 28.0527 11.0449C32.6157 17.2362 43.0817 11.7493 39.4849 4.98291Z" fill="#016256"/>
</g>
<path d="M32.8219 8.73122L33.8868 23.324H32.293L32.8219 8.63428V8.73122Z" fill="#331C10"/>
<path d="M28.4707 7.66504L32.9279 16.5189L33.0337 15.0584L28.4707 7.66504Z" fill="#331C10"/>
<path d="M26.877 9.12549L30.8052 11.7493L30.4738 10.9738L26.877 9.12549Z" fill="#331C10"/>
<mask id="mask0_100_10227" style="mask-type:luminance" maskUnits="userSpaceOnUse" x="26" y="7" width="10" height="17">
<path d="M35.8973 10.68L33.29 15.1909C33.2872 15.0591 32.8083 8.76571 32.8196 8.63646L32.6123 14.3773L28.4668 7.66382L30.0162 10.7394L26.875 9.1231L30.3844 11.4697L32.5615 15.7926C32.4966 17.6196 32.3555 21.4791 32.29 23.3262H33.8824L33.3619 16.1855L35.8973 10.68Z" fill="white"/>
</mask>
<g mask="url(#mask0_100_10227)">
<g style="mix-blend-mode:multiply">
<path d="M35.7891 17.8761L37.1714 14.0825L37.0022 11.0515L36.2193 10.095L32.9752 16.0924L32.9258 24.203L37.383 22.6455L35.7891 17.8761Z" fill="#331C10"/>
</g>
<g style="mix-blend-mode:multiply">
<path d="M33.3352 14.9227L33.7724 9.70733L32.8203 8.63452L33.0037 15.5238L33.2928 15.1877L33.3352 14.9227Z" fill="#331C10"/>
</g>
<g style="mix-blend-mode:multiply">
<path d="M28.4688 7.66504L32.5592 14.7934L32.5028 13.6947L28.4688 7.66504Z" fill="#331C10"/>
</g>
</g>
<path d="M29.5704 8.19496C29.4928 12.176 23.0256 12.176 22.9551 8.19496C23.0256 4.20748 29.4928 4.20748 29.5704 8.19496Z" fill="#016256"/>
<g style="mix-blend-mode:multiply" opacity="0.4">
<path d="M29.021 6.52759C29.8039 9.75893 25.2973 11.5039 23.0898 9.06096C24.6978 13.391 31.6164 10.4569 29.021 6.52759Z" fill="#016256"/>
</g>
<path d="M37.4286 6.4239C37.3298 11.5747 28.9796 11.5747 28.8809 6.4239C28.9796 1.2796 37.3298 1.2796 37.4286 6.4239Z" fill="#016256"/>
<g style="mix-blend-mode:multiply" opacity="0.4">
<path d="M36.7235 4.27197C37.6827 8.48565 31.9842 10.6959 29.0645 7.54856C31.1309 13.1323 40.0665 9.34519 36.7235 4.27197Z" fill="#016256"/>
</g>
<path d="M31.3254 23.6733C31.3254 23.6733 31.2478 22.678 30.6836 22.2256C30.6836 22.2256 31.4805 22.8267 31.537 22.9495C31.537 22.9495 31.4171 21.9995 31.1914 21.7474C31.1914 21.7474 31.6992 22.161 31.7979 22.3808C31.7979 22.3808 31.6427 21.6892 31.4876 21.4695C31.4876 21.4695 31.946 22.0447 32.0165 22.4518C32.0165 22.4518 32.1012 21.3532 31.9389 20.9331C31.9389 20.9331 32.3551 22.1222 32.3621 22.6586C32.3621 22.6586 32.3762 21.6311 32.7006 21.2498C32.7006 21.2498 32.6372 22.2386 32.6865 22.6005C32.6865 22.6005 32.8417 22.077 32.8417 21.7474C32.8417 21.7474 33.0392 22.4195 32.9827 22.7427C32.9827 22.7427 33.2648 22.1416 33.1379 21.3209C33.1379 21.3209 33.3847 21.9607 33.3706 22.4971C33.3706 22.4971 33.561 22.0253 33.829 21.7603C33.829 21.7603 33.4764 22.6328 33.4694 22.9107C33.4694 22.9107 33.6104 22.5682 33.8714 22.4131C33.8714 22.4131 33.5328 23.0012 33.4553 23.2532C33.4553 23.2532 33.7444 22.8978 34.2169 22.7491C34.2169 22.7491 33.695 23.3502 33.688 23.6733H31.3254Z" fill="#769914"/>
<path d="M33.0881 23.6733C33.0881 23.6733 33.0387 22.9754 32.6367 22.6587C32.6367 22.6587 33.2009 23.0788 33.2362 23.1692C33.2362 23.1692 33.1516 22.5036 32.9964 22.3226C32.9964 22.3226 33.349 22.6134 33.4196 22.7685C33.4196 22.7685 33.3067 22.2838 33.2009 22.1287C33.2009 22.1287 33.5253 22.5359 33.5747 22.8138C33.5747 22.8138 33.6311 22.0447 33.5183 21.7539C33.5183 21.7539 33.8074 22.5876 33.8145 22.9624C33.8145 22.9624 33.8215 22.2451 34.0543 21.9736C34.0543 21.9736 34.0049 22.6651 34.0402 22.9172C34.0402 22.9172 34.153 22.5553 34.146 22.3226C34.146 22.3226 34.287 22.7944 34.2518 23.0206C34.2518 23.0206 34.4422 22.6005 34.3575 22.0253C34.3575 22.0253 34.5268 22.4713 34.5198 22.8461C34.5198 22.8461 34.6538 22.5165 34.8371 22.3291C34.8371 22.3291 34.5903 22.943 34.5903 23.1369C34.5903 23.1369 34.689 22.8978 34.8724 22.7879C34.8724 22.7879 34.6326 23.2015 34.5832 23.376C34.5832 23.376 34.7877 23.1305 35.1122 23.0271C35.1122 23.0271 34.7454 23.4407 34.7384 23.6733H33.0881Z" fill="#769914"/>
<path d="M13.3497 20.2703L10.4863 25.2272V26.5003L13.3497 20.2703Z" fill="#331C10"/>
<path d="M10.0549 14.0015C9.9703 18.4802 2.69205 18.4802 2.60742 14.0015C2.69205 9.51642 9.9703 9.51642 10.0549 14.0015Z" fill="#016256"/>
<path d="M12.2637 12.2954C12.2073 15.0356 7.76421 15.0356 7.71484 12.2954C7.76421 9.55519 12.2073 9.55519 12.2637 12.2954Z" fill="#016256"/>
<path d="M17.6369 17.2847C17.4888 25.2532 4.5473 25.2532 4.40625 17.2847C4.55435 9.31622 17.4888 9.31622 17.6369 17.2847Z" fill="#016256"/>
<g style="mix-blend-mode:multiply" opacity="0.4">
<path d="M16.9381 14.5767C17.3824 19.9601 10.3298 23.6309 5.50586 20.6387C10.0689 26.8299 20.5349 21.3431 16.9381 14.5767Z" fill="#016256"/>
</g>
<path d="M10.275 18.325L11.34 32.9177H9.74609L10.275 18.228V18.325Z" fill="#331C10"/>
<path d="M5.92383 17.2588L10.381 26.1127L10.4868 24.6521L5.92383 17.2588Z" fill="#331C10"/>
<path d="M4.33008 18.7192L8.25836 21.3431L7.92689 20.5676L4.33008 18.7192Z" fill="#331C10"/>
<mask id="mask1_100_10227" style="mask-type:luminance" maskUnits="userSpaceOnUse" x="4" y="17" width="10" height="16">
<path d="M13.3505 20.2737L10.7431 24.7847C10.7403 24.6528 10.2614 18.3595 10.2727 18.2302L10.0654 23.971L5.91989 17.2576L7.46934 20.3332L4.32812 18.7168L7.83748 21.0634L10.0146 25.3863C9.94972 27.2133 9.80867 31.0729 9.74308 32.9199H11.3356L10.8151 25.7793L13.3505 20.2737Z" fill="white"/>
</mask>
<g mask="url(#mask1_100_10227)">
<g style="mix-blend-mode:multiply">
<path d="M13.2422 27.4698L14.6246 23.6762L14.4553 20.6452L13.6725 19.6887L10.4283 25.6861L10.3789 33.7968L14.8361 32.2393L13.2422 27.4698Z" fill="#331C10"/>
</g>
<g style="mix-blend-mode:multiply">
<path d="M10.7883 24.5165L11.2255 19.3011L10.2734 18.2283L10.4568 25.1175L10.746 24.7814L10.7883 24.5165Z" fill="#331C10"/>
</g>
<g style="mix-blend-mode:multiply">
<path d="M5.92188 17.2588L10.0124 24.3871L9.95594 23.2885L5.92188 17.2588Z" fill="#331C10"/>
</g>
</g>
<path d="M7.02351 17.7887C6.94593 21.7697 0.478729 21.7697 0.408203 17.7887C0.478729 13.8012 6.94593 13.8012 7.02351 17.7887Z" fill="#016256"/>
<g style="mix-blend-mode:multiply" opacity="0.4">
<path d="M6.47417 16.1213C7.25701 19.3527 2.75042 21.0976 0.542969 18.6547C2.15095 22.9847 9.06952 20.0507 6.47417 16.1213Z" fill="#016256"/>
</g>
<path d="M14.8817 16.0177C14.783 21.1684 6.43272 21.1684 6.33398 16.0177C6.43272 10.8733 14.783 10.8733 14.8817 16.0177Z" fill="#016256"/>
<g style="mix-blend-mode:multiply" opacity="0.4">
<path d="M14.1767 13.8657C15.1358 18.0794 9.43734 20.2896 6.51758 17.1423C8.58398 22.7261 17.5196 18.9389 14.1767 13.8657Z" fill="#016256"/>
</g>
<path d="M8.7785 33.267C8.7785 33.267 8.70092 32.2718 8.13672 31.8194C8.13672 31.8194 8.93366 32.4204 8.99008 32.5432C8.99008 32.5432 8.87019 31.5932 8.6445 31.3412C8.6445 31.3412 9.15229 31.7548 9.25102 31.9745C9.25102 31.9745 9.09587 31.283 8.94071 31.0633C8.94071 31.0633 9.39913 31.6384 9.46965 32.0456C9.46965 32.0456 9.55428 30.9469 9.39207 30.5269C9.39207 30.5269 9.80818 31.716 9.81523 32.2524C9.81523 32.2524 9.82933 31.2248 10.1538 30.8435C10.1538 30.8435 10.0903 31.8323 10.1396 32.1942C10.1396 32.1942 10.2948 31.6708 10.2948 31.3412C10.2948 31.3412 10.4923 32.0133 10.4359 32.3364C10.4359 32.3364 10.718 31.7354 10.591 30.9146C10.591 30.9146 10.8379 31.5544 10.8237 32.0908C10.8237 32.0908 11.0142 31.619 11.2822 31.3541C11.2822 31.3541 10.9295 32.2265 10.9225 32.5044C10.9225 32.5044 11.0635 32.1619 11.3245 32.0068C11.3245 32.0068 10.986 32.5949 10.9084 32.847C10.9084 32.847 11.1975 32.4915 11.6701 32.3429C11.6701 32.3429 11.1482 32.9439 11.1411 33.267H8.7785Z" fill="#769914"/>
<path d="M10.5412 33.2671C10.5412 33.2671 10.4918 32.5691 10.0898 32.2524C10.0898 32.2524 10.654 32.6725 10.6893 32.763C10.6893 32.763 10.6047 32.0973 10.4495 31.9164C10.4495 31.9164 10.8022 32.2072 10.8727 32.3623C10.8727 32.3623 10.7598 31.8776 10.654 31.7225C10.654 31.7225 10.9785 32.1296 11.0278 32.4075C11.0278 32.4075 11.0843 31.6385 10.9714 31.3477C10.9714 31.3477 11.2606 32.1813 11.2676 32.5562C11.2676 32.5562 11.2747 31.8388 11.5074 31.5674C11.5074 31.5674 11.458 32.2589 11.4933 32.5109C11.4933 32.5109 11.6061 32.149 11.5991 31.9164C11.5991 31.9164 11.7401 32.3881 11.7049 32.6143C11.7049 32.6143 11.8953 32.1943 11.8107 31.6191C11.8107 31.6191 11.9799 32.065 11.9729 32.4399C11.9729 32.4399 12.1069 32.1103 12.2902 31.9228C12.2902 31.9228 12.0434 32.5368 12.0434 32.7307C12.0434 32.7307 12.1421 32.4916 12.3255 32.3817C12.3255 32.3817 12.0857 32.7953 12.0363 32.9698C12.0363 32.9698 12.2409 32.7242 12.5653 32.6208C12.5653 32.6208 12.1986 33.0344 12.1915 33.2671H10.5412Z" fill="#769914"/>
<path d="M29.1797 24.1062L26.3164 29.0631V30.3362L29.1797 24.1062Z" fill="#331C10"/>
<path d="M25.885 17.8375C25.8004 22.3161 18.5221 22.3161 18.4375 17.8375C18.5221 13.3524 25.8004 13.3524 25.885 17.8375Z" fill="#016256"/>
<path d="M28.0938 16.1313C28.0374 18.8715 23.5943 18.8715 23.5449 16.1313C23.5943 13.3911 28.0374 13.3911 28.0938 16.1313Z" fill="#016256"/>
<path d="M33.4669 21.1207C33.3188 29.0892 20.3774 29.0892 20.2363 21.1207C20.3844 13.1522 33.3188 13.1522 33.4669 21.1207Z" fill="#016256"/>
<g style="mix-blend-mode:multiply" opacity="0.4">
<path d="M32.7681 18.4126C33.2125 23.796 26.1599 27.4668 21.3359 24.4746C25.8989 30.6659 36.365 25.179 32.7681 18.4126Z" fill="#016256"/>
</g>
<path d="M26.1051 22.1609L27.1701 36.7537H25.5762L26.1051 22.064V22.1609Z" fill="#331C10"/>
<path d="M21.7539 21.0947L26.2111 29.9486L26.3169 28.488L21.7539 21.0947Z" fill="#331C10"/>
<path d="M20.1602 22.5552L24.0884 25.179L23.757 24.4035L20.1602 22.5552Z" fill="#331C10"/>
<mask id="mask2_100_10227" style="mask-type:luminance" maskUnits="userSpaceOnUse" x="20" y="21" width="10" height="16">
<path d="M29.1805 24.1096L26.5732 28.6206C26.5704 28.4888 26.0915 22.1954 26.1028 22.0661L25.8955 27.807L21.75 21.0935L23.2994 24.1691L20.1582 22.5528L23.6676 24.8994L25.8447 29.2223C25.7798 31.0493 25.6388 34.9088 25.5732 36.7558H27.1656L26.6452 29.6152L29.1805 24.1096Z" fill="white"/>
</mask>
<g mask="url(#mask2_100_10227)">
<g style="mix-blend-mode:multiply">
<path d="M29.0723 31.3057L30.4546 27.5121L30.2854 24.4811L29.5025 23.5247L26.2584 29.522L26.209 37.6327L30.6662 36.0752L29.0723 31.3057Z" fill="#331C10"/>
</g>
<g style="mix-blend-mode:multiply">
<path d="M26.6184 28.3524L27.0556 23.137L26.1035 22.0642L26.2869 28.9534L26.576 28.6174L26.6184 28.3524Z" fill="#331C10"/>
</g>
<g style="mix-blend-mode:multiply">
<path d="M21.752 21.0947L25.8424 28.2231L25.786 27.1244L21.752 21.0947Z" fill="#331C10"/>
</g>
</g>
<path d="M22.8536 21.6246C22.776 25.6057 16.3088 25.6057 16.2383 21.6246C16.3088 17.6372 22.776 17.6372 22.8536 21.6246Z" fill="#016256"/>
<g style="mix-blend-mode:multiply" opacity="0.4">
<path d="M22.3043 19.9573C23.0871 23.1886 18.5805 24.9335 16.373 22.4906C17.981 26.8207 24.8996 23.8866 22.3043 19.9573Z" fill="#016256"/>
</g>
<path d="M30.7118 19.8536C30.613 25.0044 22.2628 25.0044 22.1641 19.8536C22.2628 14.7093 30.613 14.7093 30.7118 19.8536Z" fill="#016256"/>
<g style="mix-blend-mode:multiply" opacity="0.4">
<path d="M30.0067 17.7017C30.9659 21.9153 25.2674 24.1256 22.3477 20.9782C24.4141 26.562 33.3497 22.7749 30.0067 17.7017Z" fill="#016256"/>
</g>
<path d="M24.6086 37.103C24.6086 37.103 24.531 36.1077 23.9668 35.6553C23.9668 35.6553 24.7637 36.2564 24.8202 36.3792C24.8202 36.3792 24.7003 35.4291 24.4746 35.1771C24.4746 35.1771 24.9824 35.5907 25.0811 35.8104C25.0811 35.8104 24.9259 35.1189 24.7708 34.8992C24.7708 34.8992 25.2292 35.4744 25.2997 35.8815C25.2997 35.8815 25.3844 34.7829 25.2222 34.3628C25.2222 34.3628 25.6383 35.5519 25.6453 36.0883C25.6453 36.0883 25.6594 35.0608 25.9838 34.6795C25.9838 34.6795 25.9204 35.6683 25.9697 36.0302C25.9697 36.0302 26.1249 35.5067 26.1249 35.1771C26.1249 35.1771 26.3224 35.8492 26.2659 36.1723C26.2659 36.1723 26.548 35.5713 26.4211 34.7506C26.4211 34.7506 26.6679 35.3904 26.6538 35.9268C26.6538 35.9268 26.8442 35.455 27.1122 35.19C27.1122 35.19 26.7596 36.0625 26.7526 36.3404C26.7526 36.3404 26.8936 35.9979 27.1546 35.8428C27.1546 35.8428 26.816 36.4309 26.7385 36.6829C26.7385 36.6829 27.0276 36.3275 27.5001 36.1788C27.5001 36.1788 26.9782 36.7798 26.9712 37.103H24.6086Z" fill="#769914"/>
<path d="M26.3713 37.103C26.3713 37.103 26.3219 36.405 25.9199 36.0884C25.9199 36.0884 26.4841 36.5084 26.5194 36.5989C26.5194 36.5989 26.4348 35.9333 26.2796 35.7523C26.2796 35.7523 26.6322 36.0431 26.7028 36.1982C26.7028 36.1982 26.5899 35.7135 26.4841 35.5584C26.4841 35.5584 26.8085 35.9656 26.8579 36.2435C26.8579 36.2435 26.9143 35.4744 26.8015 35.1836C26.8015 35.1836 27.0906 36.0173 27.0977 36.3921C27.0977 36.3921 27.1048 35.6748 27.3375 35.4033C27.3375 35.4033 27.2881 36.0948 27.3234 36.3469C27.3234 36.3469 27.4362 35.985 27.4292 35.7523C27.4292 35.7523 27.5702 36.2241 27.535 36.4503C27.535 36.4503 27.7254 36.0302 27.6407 35.455C27.6407 35.455 27.81 35.901 27.803 36.2758C27.803 36.2758 27.937 35.9462 28.1203 35.7588C28.1203 35.7588 27.8735 36.3727 27.8735 36.5666C27.8735 36.5666 27.9722 36.3275 28.1556 36.2176C28.1556 36.2176 27.9158 36.6312 27.8664 36.8057C27.8664 36.8057 28.071 36.5601 28.3954 36.4567C28.3954 36.4567 28.0286 36.8704 28.0216 37.103H26.3713Z" fill="#769914"/>
</svg>
