<svg width="25" height="25" viewBox="0 0 25 25" fill="none" xmlns="http://www.w3.org/2000/svg">
    <g clip-path="url(#clip0_882_46816)">
    <path d="M12.7932 3.87584C7.56189 -0.699656 0.91041 3.32051 0.80134 8.77048C0.773546 10.1594 1.17448 11.5124 1.97256 12.7597H7.14548L8.06557 11.2261C8.33274 10.7809 8.97928 10.7665 9.26159 11.2104L11.2029 14.261L14.0326 8.28714C14.2794 7.76589 15.0149 7.74934 15.287 8.2548L17.7127 12.7597H23.6138C27.9851 5.92768 19.3459 -1.85536 12.7932 3.87584Z" fill="white"/>
    <path d="M16.6738 13.796L14.7082 10.1456L11.9287 16.0135C11.6922 16.5127 10.9967 16.556 10.7001 16.09L8.68605 12.9251L8.14642 13.8244C8.01935 14.0362 7.79053 14.1657 7.54356 14.1657H3.08478C3.22455 14.312 2.47962 13.5686 12.2973 23.3354C12.5715 23.6082 13.0147 23.6083 13.289 23.3354C22.9555 13.7189 22.362 14.3118 22.5015 14.1657H17.2928C17.0341 14.1658 16.7964 14.0238 16.6738 13.796Z" fill="white"/>
    </g>
    <defs>
    <clipPath id="clip0_882_46816">
    <rect width="24" height="24" fill="white" transform="translate(0.799988 0.712158)"/>
    </clipPath>
    </defs>
    </svg>
    