<svg width="46" height="47" viewBox="0 0 46 47" fill="none" xmlns="http://www.w3.org/2000/svg">
<path d="M34.8205 4.9111L34.4355 23.2832H36.2756L35.1263 4.4834L34.8205 4.9111Z" fill="#331C10"/>
<path d="M37.2708 4.74121L35.125 8.05587L35.2043 8.82321L37.2708 4.74121Z" fill="#331C10"/>
<path d="M32.9062 4.82314L35.0521 8.9932L34.8992 10.0121L32.9062 4.65332V4.82314Z" fill="#331C10"/>
<path d="M31.2976 9.0813L35.125 14.1822V15.1194L32.5206 11.7167L29.3047 9.67253L32.447 11.289L31.2976 9.0813Z" fill="#331C10"/>
<path d="M38.9526 9.7605L35.3574 13.245V14.2702L38.9526 9.7605Z" fill="#331C10"/>
<path d="M36.7324 12.3078L36.9023 12.2198L40.8145 10.1316L37.1118 11.7417L36.7324 12.3078Z" fill="#331C10"/>
<path d="M35.4302 16.8174L37.4967 15.0312L38.9009 13.4336L37.8081 15.201L41.1316 13.4525L37.961 15.4589L35.4302 17.9244L35.2773 16.7357" fill="#331C10"/>
<path d="M29.4629 13.7356L32.2938 16.3961L35.051 18.0126L35.1246 17.2453L32.5202 16.0565L31.7559 13.0752L32.1409 15.7106L29.4629 13.7356Z" fill="#331C10"/>
<path d="M32.9062 4.82314L33.1327 5.26971L32.9062 4.65332V4.82314Z" fill="#331C10"/>
<path d="M41.1321 13.4525L37.8086 15.201L38.9013 13.4336L37.4972 15.0312L35.8553 16.4527L35.6968 13.8362L37.0556 12.1379L40.815 10.1315L37.5086 11.5719L38.9523 9.76044L35.6458 12.9682L35.3684 8.48992L37.2708 4.74128L35.3231 7.74774L35.125 4.4834L34.8192 4.9111L34.7456 8.40187L33.132 5.26961C34.7173 9.6032 34.8475 8.72893 34.6381 13.5342L31.2976 9.08115L32.447 11.2888L29.3047 9.67238L32.5206 11.7165L34.6211 14.4588L34.5701 16.9873L32.5206 16.0564L31.7562 13.0751L32.1412 15.7105L29.4632 13.7355L32.2941 16.396L34.5531 17.7169L34.4342 23.2832H36.2743L35.9176 17.4527L37.9615 15.4589L41.1321 13.4525Z" fill="#331C10"/>
<g style="mix-blend-mode:multiply">
<path d="M32.9043 4.8229L33.1308 5.26946L32.9043 4.65308V4.8229Z" fill="#331C10"/>
<path d="M35.9155 17.4526L37.9594 15.4588L41.13 13.4524L37.648 15.4588L35.6607 17.2451L35.1738 23.2832H36.2722L35.9155 17.4526Z" fill="#331C10"/>
<path d="M35.3556 13.2449L35.4462 16.635L35.8425 16.2325L35.6953 13.8361L37.0541 12.1379L40.8135 10.1315L37.5071 11.5718L38.9508 9.76037L35.6443 12.9681L35.3669 8.48986L37.2693 4.74121L35.1914 8.38922L35.3556 13.2449Z" fill="#331C10"/>
</g>
<mask id="mask0_100_10204" style="mask-type:luminance" maskUnits="userSpaceOnUse" x="28" y="0" width="14" height="7">
<path d="M39.8763 2.65129C39.677 2.65129 39.4873 2.69343 39.3112 2.76765C38.852 1.67136 37.5051 1.13548 36.507 1.70218C35.365 -0.41933 32.1412 0.256181 31.7868 2.70727C31.0739 2.48839 30.2847 2.9142 29.9784 3.62116C28.1332 3.90734 29.0572 7.00123 30.6906 5.99866C31.3372 6.38296 32.2346 6.13829 32.6524 5.49737C33.5243 6.38107 35.0734 6.40434 35.9668 5.54391C36.6683 6.33453 37.9909 6.39428 38.7484 5.66279C41.0658 7.80191 42.8826 2.97647 39.8763 2.65129Z" fill="white"/>
</mask>
<g mask="url(#mask0_100_10204)">
<path d="M39.8738 2.65316C39.6757 2.65316 39.4832 2.6909 39.3076 2.76638C38.849 1.67198 37.5015 1.13735 36.5051 1.70342C35.3614 -0.416197 32.1399 0.256798 31.7832 2.70977C31.0698 2.48963 30.2828 2.91733 29.9771 3.62178C28.1314 3.90481 29.0542 6.99933 30.6905 5.99927C31.3359 6.38294 32.2361 6.13765 32.6494 5.4961C33.5213 6.38294 35.0727 6.40181 35.9672 5.54642C36.6693 6.33263 37.9885 6.39552 38.7471 5.65963C41.0628 7.80441 42.8802 2.97394 39.8738 2.65316Z" fill="#769914"/>
<g style="mix-blend-mode:multiply">
<path d="M40.8764 3.04321C41.3746 4.69111 39.4157 6.04968 38.3003 4.86722C37.5869 5.65343 36.2621 5.69117 35.5147 4.94898C34.6768 5.87357 33.1255 5.96162 32.2083 5.13768C31.8233 5.81067 30.9457 6.11887 30.2776 5.77922C30.0625 5.94904 29.7737 6.0371 29.502 5.99936C29.8417 6.24466 30.3456 6.24466 30.6909 5.99936C31.3364 6.38303 32.2366 6.13773 32.6499 5.49619C33.5218 6.38303 35.0731 6.4019 35.9677 5.5465C36.6697 6.33271 37.9889 6.39561 38.7476 5.65972C40.3102 7.37051 42.5636 4.59047 40.8764 3.04321Z" fill="#A3C02D"/>
</g>
<g style="mix-blend-mode:multiply">
<path d="M37.4169 1.04288L36.5053 1.7033C36.5053 1.7033 35.4919 2.01149 35.2031 2.97381C35.3503 1.77878 36.1939 0.885642 37.4169 1.04288Z" fill="#A3C02D"/>
</g>
<g style="mix-blend-mode:multiply">
<path d="M40.8874 1.79767L39.9758 2.45179C39.9758 2.45179 38.9567 2.75999 38.668 3.72231C38.8208 2.52727 39.6644 1.63414 40.8874 1.79767Z" fill="#A3C02D"/>
</g>
</g>
<mask id="mask1_100_10204" style="mask-type:luminance" maskUnits="userSpaceOnUse" x="36" y="6" width="7" height="5">
<path d="M41.3483 7.81111C41.2555 7.81111 41.1653 7.82118 41.0777 7.8413C40.3558 6.02233 37.688 6.54752 37.5985 8.55833C35.5094 8.63254 36.8336 11.9931 38.2983 10.3477C38.8821 10.888 39.8615 10.9201 40.4736 10.4157C42.4416 12.0296 43.7914 8.02999 41.3483 7.81111Z" fill="white"/>
</mask>
<g mask="url(#mask1_100_10204)">
<path d="M41.2643 8.74156C41.2247 11.421 37.6351 11.421 37.5898 8.74156C37.6351 6.05587 41.2247 6.05587 41.2643 8.74156Z" fill="#769914"/>
<path d="M42.686 9.29504C42.6804 11.2385 40.0193 11.2385 40.0137 9.29504C40.0193 7.35152 42.6804 7.35152 42.686 9.29504Z" fill="#769914"/>
<path d="M38.5123 9.66602C38.5292 11.1127 36.4854 11.1127 36.508 9.66602C36.4854 8.2194 38.5292 8.2194 38.5123 9.66602Z" fill="#769914"/>
<g style="mix-blend-mode:multiply">
<path d="M42.017 7.16291L41.2243 7.72898C41.2243 7.72898 40.3468 7.99944 40.0977 8.82967C40.2109 7.81075 40.9752 7.01196 42.017 7.16291Z" fill="#A3C02D"/>
</g>
<g style="mix-blend-mode:multiply">
<path d="M42.3283 8.28857C42.6227 9.54651 41.2356 10.5843 40.2957 9.84841C39.7522 10.4396 38.7784 10.5591 38.1329 10.1126C37.9348 10.5277 37.4365 10.7667 37.0176 10.6346C37.4252 10.9114 38.0254 10.7667 38.2971 10.3453C38.8803 10.8862 39.8598 10.9177 40.4769 10.4145C41.6885 11.641 43.472 9.59683 42.3283 8.28857Z" fill="#A3C02D"/>
</g>
</g>
<mask id="mask2_100_10204" style="mask-type:luminance" maskUnits="userSpaceOnUse" x="36" y="11" width="8" height="5">
<path d="M42.4374 12.6896C42.3616 12.6896 42.2882 12.698 42.2172 12.7148C41.7909 11.6134 40.2458 11.4763 39.6677 12.4915C38.9968 11.8103 37.7886 12.2034 37.5502 13.1676C35.7571 13.2431 36.791 16.1835 38.1555 14.896C38.6729 15.2508 39.4379 15.0979 39.8132 14.5847C40.2707 15.1539 41.172 15.2596 41.7297 14.7973C43.3218 16.1043 44.4151 12.867 42.4374 12.6896Z" fill="white"/>
</mask>
<g mask="url(#mask2_100_10204)">
<path d="M42.3728 13.44C42.3615 15.5974 39.4061 15.5974 39.4004 13.44C39.4061 11.2827 42.3615 11.2827 42.3728 13.44Z" fill="#769914"/>
<path d="M43.5223 13.8928C43.5393 15.4463 41.3369 15.4463 41.3595 13.8928C41.3369 12.3329 43.5393 12.3329 43.5223 13.8928Z" fill="#769914"/>
<path d="M40.1417 13.6161C40.136 15.547 37.4977 15.547 37.4863 13.6161C37.4977 11.6914 40.136 11.6914 40.1417 13.6161Z" fill="#769914"/>
<path d="M38.4203 14.182C38.4372 15.5092 36.5632 15.5092 36.5802 14.182C36.5632 12.8612 38.4372 12.8612 38.4203 14.182Z" fill="#769914"/>
<g style="mix-blend-mode:multiply">
<path d="M44.1328 11.8046L43.1647 12.5028C43.1647 12.5028 42.0889 12.8235 41.7832 13.8425C41.9417 12.5845 42.8363 11.6348 44.1328 11.8046Z" fill="#A3C02D"/>
</g>
<g style="mix-blend-mode:multiply">
<path d="M40.7408 10.8738L40.1576 11.9745C40.1576 11.9745 39.331 12.8047 39.4725 13.8677C39.0989 12.66 39.5122 11.3644 40.7408 10.8738Z" fill="#A3C02D"/>
</g>
<g style="mix-blend-mode:multiply">
<path d="M43.4079 13.3645C43.272 14.1696 42.3095 14.5721 41.7264 14.0627C41.2055 14.5784 40.2996 14.5595 39.7957 14.0375C39.4673 14.5847 38.7143 14.8111 38.1708 14.5092C37.7462 15.1382 36.7554 14.9181 36.5799 14.157C36.5289 15.0627 37.616 15.5596 38.1538 14.8992C38.6747 15.2514 39.439 15.1005 39.8127 14.5847C40.2713 15.1571 41.1715 15.2577 41.732 14.7985C42.5643 15.6602 43.9458 14.4966 43.4079 13.3645Z" fill="#A3C02D"/>
</g>
</g>
<mask id="mask3_100_10204" style="mask-type:luminance" maskUnits="userSpaceOnUse" x="27" y="11" width="7" height="4">
<path d="M32.9709 12.4347C32.9033 12.4347 32.8378 12.442 32.7744 12.4567C32.3934 11.4736 31.0136 11.3509 30.4973 12.2573C29.8982 11.6491 28.8191 12.0007 28.6062 12.8611C27.0045 12.929 27.9285 15.5543 29.1464 14.4052C29.6089 14.7222 30.2923 14.5857 30.6269 14.1272C31.0363 14.6354 31.8408 14.7298 32.3385 14.3165C33.7607 15.4839 34.7373 12.5925 32.9709 12.4347Z" fill="white"/>
</mask>
<g mask="url(#mask3_100_10204)">
<path d="M32.9132 13.1066C32.9018 15.0313 30.2635 15.0313 30.2578 13.1066C30.2635 11.1757 32.9075 11.1757 32.9132 13.1066Z" fill="#769914"/>
<path d="M33.9386 13.5091C33.9556 14.8992 31.9909 14.8992 32.0079 13.5091C31.9909 12.1128 33.9556 12.1128 33.9386 13.5091Z" fill="#769914"/>
<path d="M30.9193 13.2637C30.9137 14.9871 28.5584 14.9871 28.5527 13.2637C28.5584 11.5403 30.9137 11.5403 30.9193 13.2637Z" fill="#769914"/>
<path d="M29.3802 13.7671C29.3972 14.9495 27.727 14.9495 27.7383 13.7671C27.727 12.5909 29.3972 12.5846 29.3802 13.7671Z" fill="#769914"/>
<g style="mix-blend-mode:multiply">
<path d="M34.0852 11.6284L33.3152 12.1819C33.3152 12.1819 32.4603 12.4398 32.2168 13.2512C32.33 12.2637 33.0717 11.4838 34.0852 11.6284Z" fill="#A3C02D"/>
</g>
<g style="mix-blend-mode:multiply">
<path d="M31.3378 10.905L30.8508 11.7667C30.8508 11.7667 30.1771 12.402 30.262 13.2511C29.9903 12.3013 30.3639 11.251 31.3378 10.905Z" fill="#A3C02D"/>
</g>
<g style="mix-blend-mode:multiply">
<path d="M33.789 12.9429C33.8286 13.8046 32.8548 14.3518 32.2546 13.8234C31.7847 14.2763 30.9808 14.2511 30.5335 13.7794C30.2334 14.27 29.5597 14.465 29.0784 14.1882C28.7953 14.5971 28.1612 14.6222 27.8555 14.2385C28.0989 14.7354 28.8066 14.8298 29.1463 14.4084C29.6106 14.7228 30.29 14.5845 30.6297 14.1253C31.0374 14.6348 31.8413 14.7291 32.3396 14.314C33.1266 15.1254 34.3835 13.9429 33.789 12.9429Z" fill="#A3C02D"/>
</g>
</g>
<mask id="mask4_100_10204" style="mask-type:luminance" maskUnits="userSpaceOnUse" x="26" y="6" width="9" height="6">
<path d="M33.0551 8.1988C32.9932 8.19964 32.9326 8.2053 32.8734 8.21579C32.4278 6.24649 29.7368 6.37794 29.4531 8.38938C28.8349 7.95288 27.925 8.31076 27.6816 9.0586C27.0746 8.63028 26.2146 9.1649 26.235 9.97124C26.2021 10.9946 27.4998 11.421 27.9816 10.5725C28.5523 11.2235 29.6643 10.9663 29.9576 10.1285C30.4751 10.7254 31.4353 10.8593 32.0751 10.4077C33.7895 12.3946 35.5236 8.50889 33.0551 8.1988Z" fill="white"/>
</mask>
<g mask="url(#mask4_100_10204)">
<path d="M32.9341 8.72909C32.9228 11.2827 29.4352 11.2827 29.4238 8.72909C29.4352 6.18177 32.9284 6.18177 32.9341 8.72909Z" fill="#769914"/>
<path d="M30.064 9.57196C30.0584 11.3708 27.6012 11.3708 27.5898 9.57196C27.6012 7.7794 30.0584 7.7794 30.064 9.57196Z" fill="#769914"/>
<path d="M34.2925 9.57196C34.2869 11.3708 31.824 11.3708 31.8184 9.57196C31.824 7.7794 34.2869 7.7794 34.2925 9.57196Z" fill="#769914"/>
<path d="M28.1501 9.97456C28.1671 11.352 26.2195 11.352 26.2364 9.97456C26.2195 8.59084 28.1671 8.59084 28.1501 9.97456Z" fill="#769914"/>
<g style="mix-blend-mode:multiply">
<path d="M33.9711 7.48999L33.2181 8.0309C33.2181 8.0309 32.3802 8.28878 32.1367 9.08757C32.25 8.11267 32.9803 7.34533 33.9711 7.48999Z" fill="#A3C02D"/>
</g>
<g style="mix-blend-mode:multiply">
<path d="M28.8192 7.55298L28.27 8.34548C28.27 8.34548 27.5906 8.64109 27.5623 9.72921C27.3811 8.77318 27.8397 7.77941 28.8192 7.55298Z" fill="#A3C02D"/>
</g>
<g style="mix-blend-mode:multiply">
<path d="M33.9532 8.62842C34.0551 9.82346 32.6226 10.5531 31.8696 9.70395C31.3091 10.2637 30.341 10.3078 29.7408 9.81088C29.6049 10.4839 28.9312 10.9745 28.3027 10.8172C28.9085 11.1569 29.7125 10.8046 29.956 10.1254C30.4768 10.7229 31.4337 10.8613 32.0735 10.4084C33.1209 11.8991 35.1138 10.0121 33.9532 8.62842Z" fill="#A3C02D"/>
</g>
</g>
<path d="M34.0445 23.4595C34.0445 23.4595 33.9766 22.384 33.4727 21.8934C33.4727 21.8934 34.186 22.5475 34.237 22.6796C34.237 22.6796 34.1294 21.6544 33.9256 21.3839C33.9256 21.3839 34.3785 21.8242 34.4691 22.0632C34.4691 22.0632 34.3276 21.321 34.1917 21.0757C34.1917 21.0757 34.5993 21.7047 34.6616 22.1387C34.6616 22.1387 34.7296 20.9562 34.5937 20.4971C34.5937 20.4971 34.9617 21.7865 34.9617 22.3588C34.9617 22.3588 34.9787 21.2581 35.2674 20.843C35.2674 20.843 35.2108 21.9122 35.2561 22.3022C35.2561 22.3022 35.3977 21.7298 35.392 21.3776C35.392 21.3776 35.5732 22.1009 35.5165 22.4532C35.5165 22.4532 35.7713 21.8053 35.6638 20.9185C35.6638 20.9185 35.8789 21.6103 35.8619 22.189C35.8619 22.189 36.0374 21.6795 36.2696 21.3902C36.2696 21.3902 35.9582 22.3337 35.9525 22.6356C35.9525 22.6356 36.0771 22.2645 36.3149 22.1009C36.3149 22.1009 36.0091 22.7299 35.9412 23.0067C35.9412 23.0067 36.2016 22.6167 36.6206 22.4657C36.6206 22.4657 36.1563 23.1073 36.145 23.4595H34.0445Z" fill="#769914"/>
<path d="M35.6131 23.4531C35.6131 23.4531 35.5678 22.7046 35.2168 22.3587C35.2168 22.3587 35.715 22.8178 35.749 22.9122C35.749 22.9122 35.6754 22.1952 35.5339 22.0002C35.5339 22.0002 35.8452 22.3147 35.9132 22.4782C35.9132 22.4782 35.8113 21.9624 35.715 21.7926C35.715 21.7926 36.0038 22.2266 36.0434 22.5348C36.0434 22.5348 36.0944 21.7046 35.9981 21.3838C35.9981 21.3838 36.2586 22.2832 36.2586 22.6858C36.2586 22.6858 36.2699 21.9184 36.4737 21.6228C36.4737 21.6228 36.4284 22.3713 36.4624 22.648C36.4624 22.648 36.5643 22.2455 36.5586 22.0002C36.5586 22.0002 36.6832 22.5096 36.6492 22.7549C36.6492 22.7549 36.8247 22.3021 36.7455 21.6794C36.7455 21.6794 36.8983 22.1637 36.887 22.5662C36.887 22.5662 37.0116 22.214 37.1758 22.0128C37.1758 22.0128 36.955 22.6732 36.9493 22.8807C36.9493 22.8807 37.0399 22.6229 37.2041 22.5034C37.2041 22.5034 36.9889 22.9499 36.9436 23.1386C36.9436 23.1386 37.1248 22.8682 37.4192 22.7612C37.4192 22.7612 37.0908 23.2078 37.0852 23.4531H35.6131Z" fill="#769914"/>
<path d="M36.7405 17.3877L36.3555 35.7598H38.1955L37.0462 16.96L36.7405 17.3877Z" fill="#331C10"/>
<path d="M39.1907 17.2178L37.0449 20.5324L37.1242 21.2998L39.1907 17.2178Z" fill="#331C10"/>
<path d="M34.8262 17.2997L36.972 21.4698L36.8191 22.4887L34.8262 17.1299V17.2997Z" fill="#331C10"/>
<path d="M33.2175 21.5579L37.0449 26.6588V27.596L34.4405 24.1932L31.2246 22.1491L34.3669 23.7655L33.2175 21.5579Z" fill="#331C10"/>
<path d="M40.8726 22.2371L37.2773 25.7215V26.7468L40.8726 22.2371Z" fill="#331C10"/>
<path d="M38.6523 24.7844L38.8222 24.6963L42.7345 22.6082L39.0317 24.2183L38.6523 24.7844Z" fill="#331C10"/>
<path d="M37.3501 29.294L39.4167 27.5077L40.8208 25.9102L39.7281 27.6776L43.0515 25.929L39.8809 27.9354L37.3501 30.401L37.1973 29.2122" fill="#331C10"/>
<path d="M31.3828 26.2122L34.2137 28.8727L36.971 30.4892L37.0446 29.7218L34.4402 28.5331L33.6758 25.5518L34.0608 28.1871L31.3828 26.2122Z" fill="#331C10"/>
<path d="M34.8262 17.2997L35.0526 17.7463L34.8262 17.1299V17.2997Z" fill="#331C10"/>
<path d="M43.052 25.929L39.7285 27.6776L40.8213 25.9102L39.4172 27.5078L37.7752 28.9292L37.6167 26.3127L38.9755 24.6145L42.7349 22.6081L39.4285 24.0484L40.8722 22.237L37.5658 25.4447L37.2883 20.9665L39.1907 17.2178L37.243 20.2243L37.0449 16.96L36.7391 17.3877L36.6655 20.8784L35.0519 17.7462C36.6372 22.0798 36.7675 21.2055 36.558 26.0108L33.2175 21.5577L34.3669 23.7654L31.2246 22.1489L34.4405 24.1931L36.541 26.9354L36.49 29.4638L34.4405 28.533L33.6761 25.5517L34.0611 28.187L31.3831 26.2121L34.214 28.8726L36.473 30.1934L36.3541 35.7598H38.1942L37.8375 29.9293L39.8814 27.9355L43.052 25.929Z" fill="#331C10"/>
<g style="mix-blend-mode:multiply">
<path d="M34.8242 17.2995L35.0507 17.746L34.8242 17.1296V17.2995Z" fill="#331C10"/>
<path d="M37.8354 29.9292L39.8793 27.9354L43.0499 25.929L39.5679 27.9354L37.5807 29.7216L37.0938 35.7597H38.1921L37.8354 29.9292Z" fill="#331C10"/>
<path d="M37.2755 25.7214L37.3661 29.1116L37.7624 28.709L37.6152 26.3126L38.974 24.6144L42.7334 22.608L39.427 24.0484L40.8707 22.2369L37.5643 25.4447L37.2868 20.9664L39.1892 17.2178L37.1113 20.8658L37.2755 25.7214Z" fill="#331C10"/>
</g>
<mask id="mask5_100_10204" style="mask-type:luminance" maskUnits="userSpaceOnUse" x="30" y="12" width="14" height="7">
<path d="M41.7962 15.1279C41.5969 15.1279 41.4072 15.17 41.2311 15.2442C40.772 14.1479 39.425 13.612 38.4269 14.1787C37.2849 12.0572 34.0611 12.7327 33.7067 15.1838C32.9939 14.965 32.2046 15.3908 31.8983 16.0977C30.0532 16.3839 30.9771 19.4778 32.6106 18.4752C33.2571 18.8595 34.1545 18.6149 34.5724 17.9739C35.4443 18.8576 36.9933 18.8809 37.8867 18.0205C38.5882 18.8111 39.9108 18.8708 40.6684 18.1394C42.9857 20.2785 44.8026 15.453 41.7962 15.1279Z" fill="white"/>
</mask>
<g mask="url(#mask5_100_10204)">
<path d="M41.7937 15.1297C41.5956 15.1297 41.4031 15.1675 41.2276 15.2429C40.769 14.1485 39.4215 13.6139 38.425 14.18C37.2813 12.0604 34.0598 12.7334 33.7031 15.1863C32.9897 14.9662 32.2027 15.3939 31.897 16.0983C30.0513 16.3814 30.9741 19.4759 32.6104 18.4758C33.2558 18.8595 34.156 18.6142 34.5694 17.9727C35.4413 18.8595 36.9926 18.8784 37.8871 18.023C38.5892 18.8092 39.9084 18.8721 40.6671 18.1362C42.9827 20.281 44.8001 15.4505 41.7937 15.1297Z" fill="#769914"/>
<g style="mix-blend-mode:multiply">
<path d="M42.7963 15.5198C43.2946 17.1677 41.3356 18.5262 40.2202 17.3438C39.5068 18.13 38.182 18.1677 37.4346 17.4255C36.5967 18.3501 35.0454 18.4382 34.1282 17.6142C33.7432 18.2872 32.8656 18.5954 32.1975 18.2558C31.9824 18.4256 31.6936 18.5137 31.4219 18.4759C31.7616 18.7212 32.2655 18.7212 32.6108 18.4759C33.2563 18.8596 34.1565 18.6143 34.5698 17.9728C35.4417 18.8596 36.993 18.8785 37.8876 18.0231C38.5896 18.8093 39.9088 18.8722 40.6675 18.1363C42.2301 19.8471 44.4835 17.067 42.7963 15.5198Z" fill="#A3C02D"/>
</g>
<g style="mix-blend-mode:multiply">
<path d="M39.3368 13.5194L38.4252 14.1799C38.4252 14.1799 37.4118 14.4881 37.123 15.4504C37.2703 14.2553 38.1139 13.3622 39.3368 13.5194Z" fill="#A3C02D"/>
</g>
<g style="mix-blend-mode:multiply">
<path d="M42.8073 14.2742L41.8958 14.9284C41.8958 14.9284 40.8766 15.2365 40.5879 16.1989C40.7408 15.0038 41.5844 14.1107 42.8073 14.2742Z" fill="#A3C02D"/>
</g>
</g>
<mask id="mask6_100_10204" style="mask-type:luminance" maskUnits="userSpaceOnUse" x="38" y="19" width="7" height="5">
<path d="M43.2682 20.2877C43.1754 20.2877 43.0852 20.2977 42.9976 20.3179C42.2757 18.4989 39.6079 19.0241 39.5185 21.0349C37.4293 21.1091 38.7536 24.4697 40.2183 22.8243C40.802 23.3646 41.7815 23.3967 42.3935 22.8922C44.3615 24.5062 45.7113 20.5066 43.2682 20.2877Z" fill="white"/>
</mask>
<g mask="url(#mask6_100_10204)">
<path d="M43.1842 21.2181C43.1446 23.8975 39.5551 23.8975 39.5098 21.2181C39.5551 18.5324 43.1446 18.5324 43.1842 21.2181Z" fill="#769914"/>
<path d="M44.6059 21.7716C44.6003 23.7151 41.9393 23.7151 41.9336 21.7716C41.9393 19.8281 44.6003 19.8281 44.6059 21.7716Z" fill="#769914"/>
<path d="M40.4322 22.1426C40.4492 23.5892 38.4053 23.5892 38.4279 22.1426C38.4053 20.696 40.4492 20.696 40.4322 22.1426Z" fill="#769914"/>
<g style="mix-blend-mode:multiply">
<path d="M43.9369 19.6395L43.1443 20.2055C43.1443 20.2055 42.2667 20.476 42.0176 21.3062C42.1308 20.2873 42.8951 19.4885 43.9369 19.6395Z" fill="#A3C02D"/>
</g>
<g style="mix-blend-mode:multiply">
<path d="M44.2482 20.7651C44.5426 22.0231 43.1555 23.0609 42.2156 22.325C41.6721 22.9162 40.6983 23.0357 40.0529 22.5891C39.8547 23.0043 39.3565 23.2433 38.9375 23.1112C39.3451 23.3879 39.9453 23.2433 40.2171 22.8219C40.8002 23.3628 41.7797 23.3942 42.3968 22.891C43.6084 24.1175 45.3919 22.0734 44.2482 20.7651Z" fill="#A3C02D"/>
</g>
</g>
<mask id="mask7_100_10204" style="mask-type:luminance" maskUnits="userSpaceOnUse" x="38" y="24" width="8" height="4">
<path d="M44.3574 25.1662C44.2815 25.1662 44.2081 25.1746 44.1371 25.1913C43.7108 24.09 42.1657 23.9529 41.5876 24.968C40.9167 24.2869 39.7085 24.68 39.4701 25.6442C37.6771 25.7197 38.7109 28.6601 40.0754 27.3726C40.5929 27.7273 41.3578 27.5745 41.7331 27.0613C42.1906 27.6305 43.092 27.7361 43.6496 27.2738C45.2417 28.5808 46.335 25.3435 44.3574 25.1662Z" fill="white"/>
</mask>
<g mask="url(#mask7_100_10204)">
<path d="M44.2927 25.9166C44.2814 28.074 41.326 28.074 41.3203 25.9166C41.326 23.7592 44.2814 23.7592 44.2927 25.9166Z" fill="#769914"/>
<path d="M45.4423 26.3693C45.4592 27.9229 43.2568 27.9229 43.2795 26.3693C43.2568 24.8095 45.4592 24.8095 45.4423 26.3693Z" fill="#769914"/>
<path d="M42.0616 26.0927C42.0559 28.0236 39.4176 28.0236 39.4062 26.0927C39.4176 24.168 42.0559 24.168 42.0616 26.0927Z" fill="#769914"/>
<path d="M40.3402 26.6586C40.3572 27.9857 38.4831 27.9857 38.5001 26.6586C38.4831 25.3378 40.3572 25.3378 40.3402 26.6586Z" fill="#769914"/>
<g style="mix-blend-mode:multiply">
<path d="M46.0527 24.2812L45.0846 24.9793C45.0846 24.9793 44.0089 25.3001 43.7031 26.319C43.8617 25.0611 44.7562 24.1113 46.0527 24.2812Z" fill="#A3C02D"/>
</g>
<g style="mix-blend-mode:multiply">
<path d="M42.6607 23.3503L42.0775 24.451C42.0775 24.451 41.2509 25.2813 41.3925 26.3442C41.0188 25.1366 41.4321 23.8409 42.6607 23.3503Z" fill="#A3C02D"/>
</g>
<g style="mix-blend-mode:multiply">
<path d="M45.3278 25.8411C45.192 26.6461 44.2295 27.0487 43.6463 26.5392C43.1254 27.055 42.2195 27.0361 41.7156 26.5141C41.3873 27.0613 40.6343 27.2877 40.0907 26.9858C39.6661 27.6148 38.6753 27.3946 38.4998 26.6336C38.4488 27.5393 39.5359 28.0362 40.0737 27.3757C40.5946 27.728 41.359 27.577 41.7326 27.0613C42.1912 27.6336 43.0915 27.7343 43.652 27.2751C44.4842 28.1368 45.8657 26.9732 45.3278 25.8411Z" fill="#A3C02D"/>
</g>
</g>
<mask id="mask8_100_10204" style="mask-type:luminance" maskUnits="userSpaceOnUse" x="29" y="24" width="7" height="4">
<path d="M34.8908 24.9112C34.8232 24.9112 34.7578 24.9186 34.6943 24.9332C34.3133 23.9502 32.9335 23.8275 32.4172 24.7338C31.8182 24.1256 30.739 24.4772 30.5262 25.3377C28.9245 25.4056 29.8485 28.0309 31.0663 26.8818C31.5289 27.1988 32.2122 27.0623 32.5468 26.6038C32.9562 27.112 33.7607 27.2063 34.2584 26.7931C35.6806 27.9605 36.6573 25.0691 34.8908 24.9112Z" fill="white"/>
</mask>
<g mask="url(#mask8_100_10204)">
<path d="M34.8331 25.5832C34.8218 27.5078 32.1834 27.5078 32.1777 25.5832C32.1834 23.6523 34.8274 23.6523 34.8331 25.5832Z" fill="#769914"/>
<path d="M35.8585 25.9857C35.8755 27.3757 33.9109 27.3757 33.9278 25.9857C33.9109 24.5894 35.8755 24.5894 35.8585 25.9857Z" fill="#769914"/>
<path d="M32.8393 25.7403C32.8336 27.4637 30.4783 27.4637 30.4727 25.7403C30.4783 24.0169 32.8336 24.0169 32.8393 25.7403Z" fill="#769914"/>
<path d="M31.3002 26.2436C31.3172 27.4261 29.6469 27.4261 29.6583 26.2436C29.6469 25.0674 31.3172 25.0612 31.3002 26.2436Z" fill="#769914"/>
<g style="mix-blend-mode:multiply">
<path d="M36.0051 24.105L35.2351 24.6585C35.2351 24.6585 34.3802 24.9164 34.1367 25.7277C34.25 24.7402 34.9916 23.9603 36.0051 24.105Z" fill="#A3C02D"/>
</g>
<g style="mix-blend-mode:multiply">
<path d="M33.2577 23.3816L32.7708 24.2433C32.7708 24.2433 32.097 24.8785 32.182 25.7276C31.9102 24.7779 32.2839 23.7275 33.2577 23.3816Z" fill="#A3C02D"/>
</g>
<g style="mix-blend-mode:multiply">
<path d="M35.7089 25.4194C35.7485 26.2811 34.7747 26.8283 34.1746 26.3C33.7046 26.7528 32.9007 26.7277 32.4534 26.256C32.1533 26.7466 31.4796 26.9415 30.9983 26.6648C30.7152 27.0736 30.0811 27.0988 29.7754 26.7151C30.0188 27.212 30.7266 27.3063 31.0663 26.8849C31.5305 27.1994 32.2099 27.061 32.5496 26.6019C32.9573 27.1114 33.7613 27.2057 34.2595 26.7906C35.0465 27.602 36.3034 26.4195 35.7089 25.4194Z" fill="#A3C02D"/>
</g>
</g>
<mask id="mask9_100_10204" style="mask-type:luminance" maskUnits="userSpaceOnUse" x="28" y="19" width="9" height="5">
<path d="M34.975 20.6754C34.9131 20.6762 34.8526 20.6819 34.7933 20.6923C34.3477 18.7231 31.6567 18.8545 31.373 20.8659C30.7548 20.4294 29.8449 20.7873 29.6015 21.5352C28.9945 21.1068 28.1345 21.6415 28.1549 22.4478C28.1221 23.4711 29.4197 23.8976 29.9016 23.0491C30.4723 23.7001 31.5842 23.4428 31.8775 22.605C32.395 23.2019 33.3552 23.3359 33.995 22.8843C35.7094 24.8712 37.4436 20.9854 34.975 20.6754Z" fill="white"/>
</mask>
<g mask="url(#mask9_100_10204)">
<path d="M34.854 21.2057C34.8427 23.7593 31.3551 23.7593 31.3438 21.2057C31.3551 18.6583 34.8484 18.6583 34.854 21.2057Z" fill="#769914"/>
<path d="M31.9839 22.0485C31.9783 23.8474 29.5211 23.8474 29.5098 22.0485C29.5211 20.256 31.9783 20.256 31.9839 22.0485Z" fill="#769914"/>
<path d="M36.2125 22.0485C36.2068 23.8474 33.7439 23.8474 33.7383 22.0485C33.7439 20.256 36.2068 20.256 36.2125 22.0485Z" fill="#769914"/>
<path d="M30.07 22.4511C30.087 23.8286 28.1394 23.8286 28.1564 22.4511C28.1394 21.0674 30.087 21.0674 30.07 22.4511Z" fill="#769914"/>
<g style="mix-blend-mode:multiply">
<path d="M35.891 19.9666L35.138 20.5075C35.138 20.5075 34.3001 20.7653 34.0566 21.5641C34.1699 20.5892 34.9002 19.8219 35.891 19.9666Z" fill="#A3C02D"/>
</g>
<g style="mix-blend-mode:multiply">
<path d="M30.7391 20.0295L30.1899 20.822C30.1899 20.822 29.5105 21.1177 29.4822 22.2058C29.301 21.2497 29.7596 20.256 30.7391 20.0295Z" fill="#A3C02D"/>
</g>
<g style="mix-blend-mode:multiply">
<path d="M35.8731 21.105C35.975 22.3 34.5426 23.0296 33.7896 22.1805C33.229 22.7403 32.2609 22.7843 31.6607 22.2874C31.5249 22.9604 30.8511 23.451 30.2227 23.2938C30.8285 23.6334 31.6324 23.2812 31.8759 22.6019C32.3968 23.1994 33.3536 23.3378 33.9934 22.885C35.0408 24.3756 37.0337 22.4887 35.8731 21.105Z" fill="#A3C02D"/>
</g>
</g>
<path d="M35.9644 35.9361C35.9644 35.9361 35.8965 34.8605 35.3926 34.3699C35.3926 34.3699 36.106 35.0241 36.1569 35.1562C36.1569 35.1562 36.0493 34.1309 35.8455 33.8605C35.8455 33.8605 36.2985 34.3008 36.389 34.5398C36.389 34.5398 36.2475 33.7976 36.1116 33.5523C36.1116 33.5523 36.5193 34.1813 36.5815 34.6152C36.5815 34.6152 36.6495 33.4328 36.5136 32.9736C36.5136 32.9736 36.8816 34.263 36.8816 34.8354C36.8816 34.8354 36.8986 33.7347 37.1874 33.3196C37.1874 33.3196 37.1307 34.3888 37.176 34.7788C37.176 34.7788 37.3176 34.2064 37.3119 33.8542C37.3119 33.8542 37.4931 34.5775 37.4365 34.9297C37.4365 34.9297 37.6912 34.2819 37.5837 33.395C37.5837 33.395 37.7988 34.0869 37.7818 34.6656C37.7818 34.6656 37.9573 34.1561 38.1895 33.8668C38.1895 33.8668 37.8781 34.8102 37.8724 35.1121C37.8724 35.1121 37.997 34.741 38.2348 34.5775C38.2348 34.5775 37.929 35.2065 37.8611 35.4832C37.8611 35.4832 38.1215 35.0933 38.5405 34.9423C38.5405 34.9423 38.0762 35.5838 38.0649 35.9361H35.9644Z" fill="#769914"/>
<path d="M37.533 35.9297C37.533 35.9297 37.4877 35.1812 37.1367 34.8353C37.1367 34.8353 37.635 35.2944 37.6689 35.3887C37.6689 35.3887 37.5953 34.6717 37.4538 34.4767C37.4538 34.4767 37.7652 34.7912 37.8331 34.9548C37.8331 34.9548 37.7312 34.439 37.635 34.2692C37.635 34.2692 37.9237 34.7032 37.9633 35.0114C37.9633 35.0114 38.0143 34.1811 37.918 33.8604C37.918 33.8604 38.1785 34.7598 38.1785 35.1623C38.1785 35.1623 38.1898 34.395 38.3936 34.0994C38.3936 34.0994 38.3483 34.8478 38.3823 35.1246C38.3823 35.1246 38.4842 34.722 38.4785 34.4767C38.4785 34.4767 38.6031 34.9862 38.5691 35.2315C38.5691 35.2315 38.7447 34.7786 38.6654 34.156C38.6654 34.156 38.8183 34.6403 38.8069 35.0428C38.8069 35.0428 38.9315 34.6906 39.0957 34.4893C39.0957 34.4893 38.8749 35.1497 38.8692 35.3573C38.8692 35.3573 38.9598 35.0994 39.124 34.9799C39.124 34.9799 38.9088 35.4265 38.8636 35.6152C38.8636 35.6152 39.0447 35.3447 39.3391 35.2378C39.3391 35.2378 39.0108 35.6844 39.0051 35.9297H37.533Z" fill="#769914"/>
<path d="M24.2678 17.3877L23.8828 35.7598H25.7229L24.5735 16.96L24.2678 17.3877Z" fill="#331C10"/>
<path d="M26.7181 17.2178L24.5723 20.5324L24.6515 21.2998L26.7181 17.2178Z" fill="#331C10"/>
<path d="M22.3535 17.2997L24.4993 21.4698L24.3465 22.4887L22.3535 17.1299V17.2997Z" fill="#331C10"/>
<path d="M20.7449 21.5579L24.5722 26.6588V27.596L21.9678 24.1932L18.752 22.1491L21.8942 23.7655L20.7449 21.5579Z" fill="#331C10"/>
<path d="M28.3999 22.2371L24.8047 25.7215V26.7468L28.3999 22.2371Z" fill="#331C10"/>
<path d="M26.1797 24.7844L26.3495 24.6963L30.2618 22.6082L26.559 24.2183L26.1797 24.7844Z" fill="#331C10"/>
<path d="M24.8775 29.294L26.944 27.5077L28.3481 25.9102L27.2554 27.6776L30.5789 25.929L27.4083 27.9354L24.8775 30.401L24.7246 29.2122" fill="#331C10"/>
<path d="M18.9102 26.2122L21.741 28.8727L24.4983 30.4892L24.5719 29.7218L21.9675 28.5331L21.2032 25.5518L21.5882 28.1871L18.9102 26.2122Z" fill="#331C10"/>
<path d="M22.3535 17.2997L22.58 17.7463L22.3535 17.1299V17.2997Z" fill="#331C10"/>
<path d="M30.5793 25.929L27.2559 27.6776L28.3486 25.9102L26.9445 27.5078L25.3026 28.9292L25.1441 26.3127L26.5029 24.6145L30.2623 22.6081L26.9558 24.0484L28.3996 22.237L25.0931 25.4447L24.8157 20.9665L26.718 17.2178L24.7704 20.2243L24.5722 16.96L24.2665 17.3877L24.1929 20.8784L22.5793 17.7462C24.1646 22.0798 24.2948 21.2055 24.0853 26.0108L20.7449 21.5577L21.8942 23.7654L18.752 22.1489L21.9678 24.1931L24.0683 26.9354L24.0174 29.4638L21.9678 28.533L21.2035 25.5517L21.5885 28.187L18.9105 26.2121L21.7414 28.8726L24.0004 30.1934L23.8815 35.7598H25.7216L25.3649 29.9293L27.4088 27.9355L30.5793 25.929Z" fill="#331C10"/>
<g style="mix-blend-mode:multiply">
<path d="M22.3516 17.2995L22.578 17.746L22.3516 17.1296V17.2995Z" fill="#331C10"/>
<path d="M25.3628 29.9292L27.4067 27.9354L30.5772 25.929L27.0953 27.9354L25.108 29.7216L24.6211 35.7597H25.7195L25.3628 29.9292Z" fill="#331C10"/>
<path d="M24.8029 25.7214L24.8935 29.1116L25.2898 28.709L25.1426 26.3126L26.5014 24.6144L30.2608 22.608L26.9543 24.0484L28.3981 22.2369L25.0916 25.4447L24.8142 20.9664L26.7165 17.2178L24.6387 20.8658L24.8029 25.7214Z" fill="#331C10"/>
</g>
<mask id="mask10_100_10204" style="mask-type:luminance" maskUnits="userSpaceOnUse" x="18" y="12" width="13" height="7">
<path d="M29.3235 15.1279C29.1242 15.1279 28.9346 15.17 28.7585 15.2442C28.2993 14.1479 26.9524 13.612 25.9542 14.1787C24.8122 12.0572 21.5884 12.7327 21.234 15.1838C20.5212 14.965 19.732 15.3908 19.4257 16.0977C17.5805 16.3839 18.5045 19.4778 20.1379 18.4752C20.7845 18.8595 21.6819 18.6149 22.0997 17.9739C22.9716 18.8576 24.5207 18.8809 25.4141 18.0205C26.1156 18.8111 27.4382 18.8708 28.1957 18.1394C30.5131 20.2785 32.3299 15.453 29.3235 15.1279Z" fill="white"/>
</mask>
<g mask="url(#mask10_100_10204)">
<path d="M29.3211 15.1297C29.1229 15.1297 28.9304 15.1675 28.7549 15.2429C28.2963 14.1485 26.9488 13.6139 25.9523 14.18C24.8087 12.0604 21.5871 12.7334 21.2305 15.1863C20.5171 14.9662 19.7301 15.3939 19.4244 16.0983C17.5786 16.3814 18.5015 19.4759 20.1377 18.4758C20.7832 18.8595 21.6834 18.6142 22.0967 17.9727C22.9686 18.8595 24.5199 18.8784 25.4145 18.023C26.1165 18.8092 27.4357 18.8721 28.1944 18.1362C30.5101 20.281 32.3275 15.4505 29.3211 15.1297Z" fill="#769914"/>
<g style="mix-blend-mode:multiply">
<path d="M30.3237 15.5198C30.8219 17.1677 28.8629 18.5262 27.7476 17.3438C27.0342 18.13 25.7093 18.1677 24.962 17.4255C24.1241 18.3501 22.5727 18.4382 21.6555 17.6142C21.2705 18.2872 20.393 18.5954 19.7249 18.2558C19.5097 18.4256 19.221 18.5137 18.9492 18.4759C19.2889 18.7212 19.7928 18.7212 20.1382 18.4759C20.7836 18.8596 21.6838 18.6143 22.0971 17.9728C22.9691 18.8596 24.5204 18.8785 25.4149 18.0231C26.117 18.8093 27.4362 18.8722 28.1948 18.1363C29.7575 19.8471 32.0109 17.067 30.3237 15.5198Z" fill="#A3C02D"/>
</g>
<g style="mix-blend-mode:multiply">
<path d="M26.8641 13.5194L25.9526 14.1799C25.9526 14.1799 24.9391 14.4881 24.6504 15.4504C24.7976 14.2553 25.6412 13.3622 26.8641 13.5194Z" fill="#A3C02D"/>
</g>
<g style="mix-blend-mode:multiply">
<path d="M30.3346 14.2742L29.4231 14.9284C29.4231 14.9284 28.404 15.2365 28.1152 16.1989C28.2681 15.0038 29.1117 14.1107 30.3346 14.2742Z" fill="#A3C02D"/>
</g>
</g>
<mask id="mask11_100_10204" style="mask-type:luminance" maskUnits="userSpaceOnUse" x="25" y="19" width="8" height="5">
<path d="M30.7956 20.2877C30.7027 20.2877 30.6125 20.2977 30.5249 20.3179C29.8031 18.4989 27.1353 19.0241 27.0458 21.0349C24.9566 21.1091 26.2809 24.4697 27.7456 22.8243C28.3293 23.3646 29.3088 23.3967 29.9208 22.8922C31.8889 24.5062 33.2386 20.5066 30.7956 20.2877Z" fill="white"/>
</mask>
<g mask="url(#mask11_100_10204)">
<path d="M30.7116 21.2181C30.672 23.8975 27.0824 23.8975 27.0371 21.2181C27.0824 18.5324 30.672 18.5324 30.7116 21.2181Z" fill="#769914"/>
<path d="M32.1333 21.7716C32.1276 23.7151 29.4666 23.7151 29.4609 21.7716C29.4666 19.8281 32.1276 19.8281 32.1333 21.7716Z" fill="#769914"/>
<path d="M27.9595 22.1426C27.9765 23.5892 25.9326 23.5892 25.9553 22.1426C25.9326 20.696 27.9765 20.696 27.9595 22.1426Z" fill="#769914"/>
<g style="mix-blend-mode:multiply">
<path d="M31.4643 19.6395L30.6716 20.2055C30.6716 20.2055 29.794 20.476 29.5449 21.3062C29.6582 20.2873 30.4225 19.4885 31.4643 19.6395Z" fill="#A3C02D"/>
</g>
<g style="mix-blend-mode:multiply">
<path d="M31.7756 20.7651C32.07 22.0231 30.6828 23.0609 29.743 22.325C29.1995 22.9162 28.2256 23.0357 27.5802 22.5891C27.382 23.0043 26.8838 23.2433 26.4648 23.1112C26.8725 23.3879 27.4726 23.2433 27.7444 22.8219C28.3276 23.3628 29.307 23.3942 29.9242 22.891C31.1358 24.1175 32.9192 22.0734 31.7756 20.7651Z" fill="#A3C02D"/>
</g>
</g>
<mask id="mask12_100_10204" style="mask-type:luminance" maskUnits="userSpaceOnUse" x="26" y="24" width="7" height="4">
<path d="M31.8847 25.1662C31.8088 25.1662 31.7354 25.1746 31.6645 25.1913C31.2381 24.09 29.693 23.9529 29.115 24.968C28.4441 24.2869 27.2358 24.68 26.9975 25.6442C25.2044 25.7197 26.2382 28.6601 27.6027 27.3726C28.1202 27.7273 28.8851 27.5745 29.2605 27.0613C29.718 27.6305 30.6193 27.7361 31.177 27.2738C32.7691 28.5808 33.8624 25.3435 31.8847 25.1662Z" fill="white"/>
</mask>
<g mask="url(#mask12_100_10204)">
<path d="M31.8201 25.9166C31.8087 28.074 28.8533 28.074 28.8477 25.9166C28.8533 23.7592 31.8087 23.7592 31.8201 25.9166Z" fill="#769914"/>
<path d="M32.9696 26.3693C32.9866 27.9229 30.7842 27.9229 30.8068 26.3693C30.7842 24.8095 32.9866 24.8095 32.9696 26.3693Z" fill="#769914"/>
<path d="M29.589 26.0927C29.5833 28.0236 26.9449 28.0236 26.9336 26.0927C26.9449 24.168 29.5833 24.168 29.589 26.0927Z" fill="#769914"/>
<path d="M27.8675 26.6586C27.8845 27.9857 26.0105 27.9857 26.0275 26.6586C26.0105 25.3378 27.8845 25.3378 27.8675 26.6586Z" fill="#769914"/>
<g style="mix-blend-mode:multiply">
<path d="M33.5801 24.2812L32.6119 24.9793C32.6119 24.9793 31.5362 25.3001 31.2305 26.319C31.389 25.0611 32.2836 24.1113 33.5801 24.2812Z" fill="#A3C02D"/>
</g>
<g style="mix-blend-mode:multiply">
<path d="M30.188 23.3503L29.6049 24.451C29.6049 24.451 28.7783 25.2813 28.9198 26.3442C28.5461 25.1366 28.9594 23.8409 30.188 23.3503Z" fill="#A3C02D"/>
</g>
<g style="mix-blend-mode:multiply">
<path d="M32.8552 25.8411C32.7193 26.6461 31.7568 27.0487 31.1736 26.5392C30.6528 27.055 29.7469 27.0361 29.243 26.5141C28.9146 27.0613 28.1616 27.2877 27.6181 26.9858C27.1934 27.6148 26.2026 27.3946 26.0271 26.6336C25.9762 27.5393 27.0632 28.0362 27.6011 27.3757C28.122 27.728 28.8863 27.577 29.26 27.0613C29.7186 27.6336 30.6188 27.7343 31.1793 27.2751C32.0116 28.1368 33.393 26.9732 32.8552 25.8411Z" fill="#A3C02D"/>
</g>
</g>
<mask id="mask13_100_10204" style="mask-type:luminance" maskUnits="userSpaceOnUse" x="17" y="24" width="7" height="4">
<path d="M22.4181 24.9112C22.3506 24.9112 22.2851 24.9186 22.2217 24.9332C21.8406 23.9502 20.4609 23.8275 19.9445 24.7338C19.3455 24.1256 18.2664 24.4772 18.0535 25.3377C16.4518 25.4056 17.3758 28.0309 18.5936 26.8818C19.0562 27.1988 19.7396 27.0623 20.0742 26.6038C20.4835 27.112 21.2881 27.2063 21.7857 26.7931C23.208 27.9605 24.1846 25.0691 22.4181 24.9112Z" fill="white"/>
</mask>
<g mask="url(#mask13_100_10204)">
<path d="M22.3604 25.5832C22.3491 27.5078 19.7107 27.5078 19.7051 25.5832C19.7107 23.6523 22.3548 23.6523 22.3604 25.5832Z" fill="#769914"/>
<path d="M23.3858 25.9857C23.4028 27.3757 21.4382 27.3757 21.4552 25.9857C21.4382 24.5894 23.4028 24.5894 23.3858 25.9857Z" fill="#769914"/>
<path d="M20.3666 25.7403C20.3609 27.4637 18.0057 27.4637 18 25.7403C18.0057 24.0169 20.3609 24.0169 20.3666 25.7403Z" fill="#769914"/>
<path d="M18.8275 26.2436C18.8445 27.4261 17.1743 27.4261 17.1856 26.2436C17.1743 25.0674 18.8445 25.0612 18.8275 26.2436Z" fill="#769914"/>
<g style="mix-blend-mode:multiply">
<path d="M23.5324 24.105L22.7624 24.6585C22.7624 24.6585 21.9075 24.9164 21.6641 25.7277C21.7773 24.7402 22.519 23.9603 23.5324 24.105Z" fill="#A3C02D"/>
</g>
<g style="mix-blend-mode:multiply">
<path d="M20.785 23.3816L20.2981 24.2433C20.2981 24.2433 19.6244 24.8785 19.7093 25.7276C19.4375 24.7779 19.8112 23.7275 20.785 23.3816Z" fill="#A3C02D"/>
</g>
<g style="mix-blend-mode:multiply">
<path d="M23.2362 25.4194C23.2759 26.2811 22.3021 26.8283 21.7019 26.3C21.232 26.7528 20.428 26.7277 19.9807 26.256C19.6807 26.7466 19.0069 26.9415 18.5257 26.6648C18.2426 27.0736 17.6085 27.0988 17.3027 26.7151C17.5462 27.212 18.2539 27.3063 18.5936 26.8849C19.0579 27.1994 19.7373 27.061 20.077 26.6019C20.4846 27.1114 21.2886 27.2057 21.7868 26.7906C22.5738 27.602 23.8307 26.4195 23.2362 25.4194Z" fill="#A3C02D"/>
</g>
</g>
<mask id="mask14_100_10204" style="mask-type:luminance" maskUnits="userSpaceOnUse" x="15" y="19" width="9" height="5">
<path d="M22.5024 20.6754C22.4405 20.6762 22.3799 20.6819 22.3206 20.6923C21.8751 18.7231 19.184 18.8545 18.9004 20.8659C18.2821 20.4294 17.3723 20.7873 17.1288 21.5352C16.5219 21.1068 15.6619 21.6415 15.6823 22.4478C15.6494 23.4711 16.9471 23.8976 17.4289 23.0491C17.9996 23.7001 19.1116 23.4428 19.4048 22.605C19.9223 23.2019 20.8826 23.3359 21.5223 22.8843C23.2367 24.8712 24.9709 20.9854 22.5024 20.6754Z" fill="white"/>
</mask>
<g mask="url(#mask14_100_10204)">
<path d="M22.3814 21.2057C22.37 23.7593 18.8824 23.7593 18.8711 21.2057C18.8824 18.6583 22.3757 18.6583 22.3814 21.2057Z" fill="#769914"/>
<path d="M19.5113 22.0485C19.5056 23.8474 17.0484 23.8474 17.0371 22.0485C17.0484 20.256 19.5056 20.256 19.5113 22.0485Z" fill="#769914"/>
<path d="M23.7398 22.0485C23.7341 23.8474 21.2713 23.8474 21.2656 22.0485C21.2713 20.256 23.7341 20.256 23.7398 22.0485Z" fill="#769914"/>
<path d="M17.5974 22.4511C17.6144 23.8286 15.6667 23.8286 15.6837 22.4511C15.6667 21.0674 17.6144 21.0674 17.5974 22.4511Z" fill="#769914"/>
<g style="mix-blend-mode:multiply">
<path d="M23.4184 19.9666L22.6654 20.5075C22.6654 20.5075 21.8274 20.7653 21.584 21.5641C21.6972 20.5892 22.4276 19.8219 23.4184 19.9666Z" fill="#A3C02D"/>
</g>
<g style="mix-blend-mode:multiply">
<path d="M18.2664 20.0295L17.7172 20.822C17.7172 20.822 17.0378 21.1177 17.0095 22.2058C16.8284 21.2497 17.287 20.256 18.2664 20.0295Z" fill="#A3C02D"/>
</g>
<g style="mix-blend-mode:multiply">
<path d="M23.4004 21.105C23.5023 22.3 22.0699 23.0296 21.3169 22.1805C20.7564 22.7403 19.7882 22.7843 19.1881 22.2874C19.0522 22.9604 18.3785 23.451 17.75 23.2938C18.3558 23.6334 19.1598 23.2812 19.4032 22.6019C19.9241 23.1994 20.8809 23.3378 21.5207 22.885C22.5681 24.3756 24.5611 22.4887 23.4004 21.105Z" fill="#A3C02D"/>
</g>
</g>
<path d="M23.4918 35.9361C23.4918 35.9361 23.4238 34.8605 22.9199 34.3699C22.9199 34.3699 23.6333 35.0241 23.6843 35.1562C23.6843 35.1562 23.5767 34.1309 23.3729 33.8605C23.3729 33.8605 23.8258 34.3008 23.9164 34.5398C23.9164 34.5398 23.7748 33.7976 23.639 33.5523C23.639 33.5523 24.0466 34.1813 24.1089 34.6152C24.1089 34.6152 24.1768 33.4328 24.0409 32.9736C24.0409 32.9736 24.409 34.263 24.409 34.8354C24.409 34.8354 24.4259 33.7347 24.7147 33.3196C24.7147 33.3196 24.6581 34.3888 24.7034 34.7788C24.7034 34.7788 24.8449 34.2064 24.8393 33.8542C24.8393 33.8542 25.0204 34.5775 24.9638 34.9297C24.9638 34.9297 25.2186 34.2819 25.111 33.395C25.111 33.395 25.3262 34.0869 25.3092 34.6656C25.3092 34.6656 25.4847 34.1561 25.7168 33.8668C25.7168 33.8668 25.4054 34.8102 25.3998 35.1121C25.3998 35.1121 25.5243 34.741 25.7621 34.5775C25.7621 34.5775 25.4564 35.2065 25.3884 35.4832C25.3884 35.4832 25.6489 35.0933 26.0679 34.9423C26.0679 34.9423 25.6036 35.5838 25.5923 35.9361H23.4918Z" fill="#769914"/>
<path d="M25.0604 35.9297C25.0604 35.9297 25.0151 35.1812 24.6641 34.8353C24.6641 34.8353 25.1623 35.2944 25.1963 35.3887C25.1963 35.3887 25.1227 34.6717 24.9811 34.4767C24.9811 34.4767 25.2925 34.7912 25.3605 34.9548C25.3605 34.9548 25.2585 34.439 25.1623 34.2692C25.1623 34.2692 25.451 34.7032 25.4907 35.0114C25.4907 35.0114 25.5416 34.1811 25.4454 33.8604C25.4454 33.8604 25.7058 34.7598 25.7058 35.1623C25.7058 35.1623 25.7171 34.395 25.921 34.0994C25.921 34.0994 25.8757 34.8478 25.9096 35.1246C25.9096 35.1246 26.0116 34.722 26.0059 34.4767C26.0059 34.4767 26.1305 34.9862 26.0965 35.2315C26.0965 35.2315 26.272 34.7786 26.1927 34.156C26.1927 34.156 26.3456 34.6403 26.3343 35.0428C26.3343 35.0428 26.4588 34.6906 26.623 34.4893C26.623 34.4893 26.4022 35.1497 26.3966 35.3573C26.3966 35.3573 26.4871 35.0994 26.6513 34.9799C26.6513 34.9799 26.4362 35.4265 26.3909 35.6152C26.3909 35.6152 26.5721 35.3447 26.8665 35.2378C26.8665 35.2378 26.5381 35.6844 26.5324 35.9297H25.0604Z" fill="#769914"/>
<path d="M20.9084 26.0205L20.5234 44.3926H22.3635L21.2142 25.5928L20.9084 26.0205Z" fill="#331C10"/>
<path d="M23.3587 25.8506L21.2129 29.1652L21.2922 29.9326L23.3587 25.8506Z" fill="#331C10"/>
<path d="M18.9941 25.9325L21.1399 30.1026L20.9871 31.1215L18.9941 25.7627V25.9325Z" fill="#331C10"/>
<path d="M17.3855 30.1907L21.2129 35.2916V36.2288L18.6084 32.826L15.3926 30.7819L18.5348 32.3984L17.3855 30.1907Z" fill="#331C10"/>
<path d="M25.0405 30.8699L21.4453 34.3544V35.3796L25.0405 30.8699Z" fill="#331C10"/>
<path d="M22.8203 33.4172L22.9902 33.3291L26.9024 31.241L23.1997 32.8511L22.8203 33.4172Z" fill="#331C10"/>
<path d="M21.5181 37.9268L23.5846 36.1405L24.9888 34.543L23.896 36.3104L27.2195 34.5618L24.0489 36.5682L21.5181 39.0338L21.3652 37.845" fill="#331C10"/>
<path d="M15.5508 34.845L18.3817 37.5055L21.1389 39.122L21.2125 38.3546L18.6081 37.1659L17.8438 34.1846L18.2288 36.8199L15.5508 34.845Z" fill="#331C10"/>
<path d="M18.9941 25.9325L19.2206 26.3791L18.9941 25.7627V25.9325Z" fill="#331C10"/>
<path d="M27.22 34.5619L23.8965 36.3104L24.9892 34.543L23.5851 36.1406L21.9432 37.562L21.7847 34.9455L23.1435 33.2473L26.9029 31.2409L23.5964 32.6812L25.0402 30.8698L21.7337 34.0775L21.4563 29.5993L23.3587 25.8507L21.411 28.8571L21.2128 25.5928L20.9071 26.0205L20.8335 29.5112L19.2199 26.379C20.8052 30.7126 20.9354 29.8383 20.7259 34.6436L17.3855 30.1905L18.5348 32.3982L15.3926 30.7818L18.6084 32.8259L20.709 35.5682L20.658 38.0967L18.6084 37.1658L17.8441 34.1845L18.2291 36.8199L15.5511 34.8449L18.382 37.5054L20.641 38.8263L20.5221 44.3926H22.3622L22.0055 38.5621L24.0494 36.5683L27.22 34.5619Z" fill="#331C10"/>
<g style="mix-blend-mode:multiply">
<path d="M18.9922 25.9323L19.2187 26.3788L18.9922 25.7625V25.9323Z" fill="#331C10"/>
<path d="M22.0034 38.562L24.0473 36.5682L27.2179 34.5618L23.7359 36.5682L21.7486 38.3544L21.2617 44.3925H22.3601L22.0034 38.562Z" fill="#331C10"/>
<path d="M21.4435 34.3542L21.5341 37.7444L21.9304 37.3418L21.7832 34.9455L23.142 33.2472L26.9014 31.2408L23.595 32.6812L25.0387 30.8697L21.7322 34.0775L21.4548 29.5992L23.3572 25.8506L21.2793 29.4986L21.4435 34.3542Z" fill="#331C10"/>
</g>
<mask id="mask15_100_10204" style="mask-type:luminance" maskUnits="userSpaceOnUse" x="15" y="21" width="13" height="7">
<path d="M25.9641 23.7607C25.7648 23.7607 25.5752 23.8028 25.3991 23.877C24.9399 22.7807 23.593 22.2449 22.5948 22.8116C21.4529 20.69 18.2291 21.3656 17.8746 23.8166C17.1618 23.5978 16.3726 24.0236 16.0663 24.7305C14.2211 25.0167 15.1451 28.1106 16.7785 27.108C17.4251 27.4923 18.3225 27.2477 18.7403 26.6067C19.6122 27.4904 21.1613 27.5137 22.0547 26.6533C22.7562 27.4439 24.0788 27.5037 24.8363 26.7722C27.1537 28.9113 28.9705 24.0858 25.9641 23.7607Z" fill="white"/>
</mask>
<g mask="url(#mask15_100_10204)">
<path d="M25.9617 23.7625C25.7636 23.7625 25.5711 23.8003 25.3955 23.8758C24.9369 22.7814 23.5894 22.2467 22.593 22.8128C21.4493 20.6932 18.2278 21.3662 17.8711 23.8191C17.1577 23.599 16.3707 24.0267 16.065 24.7312C14.2193 25.0142 15.1421 28.1087 16.7784 27.1086C17.4238 27.4923 18.324 27.247 18.7373 26.6055C19.6092 27.4923 21.1606 27.5112 22.0551 26.6558C22.7572 27.442 24.0763 27.5049 24.835 26.769C27.1507 28.9138 28.9681 24.0833 25.9617 23.7625Z" fill="#769914"/>
<g style="mix-blend-mode:multiply">
<path d="M26.9643 24.1526C27.4625 25.8005 25.5036 27.1591 24.3882 25.9766C23.6748 26.7628 22.35 26.8005 21.6026 26.0584C20.7647 26.9829 19.2134 27.071 18.2962 26.2471C17.9112 26.92 17.0336 27.2282 16.3655 26.8886C16.1504 27.0584 15.8616 27.1465 15.5898 27.1087C15.9295 27.354 16.4334 27.354 16.7788 27.1087C17.4242 27.4924 18.3245 27.2471 18.7378 26.6056C19.6097 27.4924 21.161 27.5113 22.0556 26.6559C22.7576 27.4421 24.0768 27.505 24.8355 26.7691C26.3981 28.4799 28.6515 25.6998 26.9643 24.1526Z" fill="#A3C02D"/>
</g>
<g style="mix-blend-mode:multiply">
<path d="M23.5048 22.1523L22.5932 22.8127C22.5932 22.8127 21.5798 23.1209 21.291 24.0832C21.4382 22.8882 22.2818 21.995 23.5048 22.1523Z" fill="#A3C02D"/>
</g>
<g style="mix-blend-mode:multiply">
<path d="M26.9753 22.907L26.0637 23.5612C26.0637 23.5612 25.0446 23.8694 24.7559 24.8317C24.9087 23.6366 25.7523 22.7435 26.9753 22.907Z" fill="#A3C02D"/>
</g>
</g>
<mask id="mask16_100_10204" style="mask-type:luminance" maskUnits="userSpaceOnUse" x="22" y="27" width="7" height="5">
<path d="M27.4362 28.9205C27.3434 28.9205 27.2531 28.9306 27.1656 28.9507C26.4437 27.1317 23.7759 27.6569 23.6864 29.6677C21.5972 29.7419 22.9215 33.1025 24.3862 31.4571C24.97 31.9974 25.9494 32.0295 26.5615 31.525C28.5295 33.139 29.8792 29.1394 27.4362 28.9205Z" fill="white"/>
</mask>
<g mask="url(#mask16_100_10204)">
<path d="M27.3522 29.8509C27.3126 32.5303 23.723 32.5303 23.6777 29.8509C23.723 27.1652 27.3126 27.1652 27.3522 29.8509Z" fill="#769914"/>
<path d="M28.7739 30.4044C28.7682 32.3479 26.1072 32.3479 26.1016 30.4044C26.1072 28.4609 28.7682 28.4609 28.7739 30.4044Z" fill="#769914"/>
<path d="M24.6001 30.7754C24.6171 32.222 22.5732 32.222 22.5959 30.7754C22.5732 29.3288 24.6171 29.3288 24.6001 30.7754Z" fill="#769914"/>
<g style="mix-blend-mode:multiply">
<path d="M28.1049 28.2723L27.3122 28.8384C27.3122 28.8384 26.4347 29.1088 26.1855 29.939C26.2988 28.9201 27.0631 28.1213 28.1049 28.2723Z" fill="#A3C02D"/>
</g>
<g style="mix-blend-mode:multiply">
<path d="M28.4162 29.3979C28.7106 30.6559 27.3235 31.6937 26.3836 30.9578C25.8401 31.549 24.8663 31.6685 24.2208 31.222C24.0227 31.6371 23.5244 31.8761 23.1055 31.744C23.5131 32.0207 24.1133 31.8761 24.385 31.4547C24.9682 31.9956 25.9477 32.027 26.5648 31.5239C27.7764 32.7503 29.5599 30.7062 28.4162 29.3979Z" fill="#A3C02D"/>
</g>
</g>
<mask id="mask17_100_10204" style="mask-type:luminance" maskUnits="userSpaceOnUse" x="22" y="32" width="8" height="5">
<path d="M28.5253 33.799C28.4495 33.799 28.3761 33.8074 28.3051 33.8241C27.8788 32.7228 26.3337 32.5857 25.7556 33.6009C25.0847 32.9197 23.8765 33.3128 23.6381 34.277C21.845 34.3525 22.8789 37.2929 24.2434 36.0054C24.7608 36.3601 25.5257 36.2073 25.9011 35.6941C26.3586 36.2633 27.2599 36.3689 27.8176 35.9067C29.4097 37.2137 30.503 33.9764 28.5253 33.799Z" fill="white"/>
</mask>
<g mask="url(#mask17_100_10204)">
<path d="M28.4607 34.5494C28.4494 36.7068 25.4939 36.7068 25.4883 34.5494C25.4939 32.3921 28.4494 32.3921 28.4607 34.5494Z" fill="#769914"/>
<path d="M29.6102 35.0022C29.6272 36.5557 27.4248 36.5557 27.4474 35.0022C27.4248 33.4423 29.6272 33.4423 29.6102 35.0022Z" fill="#769914"/>
<path d="M26.2296 34.7255C26.2239 36.6564 23.5855 36.6564 23.5742 34.7255C23.5855 32.8008 26.2239 32.8008 26.2296 34.7255Z" fill="#769914"/>
<path d="M24.5081 35.2914C24.5251 36.6185 22.6511 36.6185 22.6681 35.2914C22.6511 33.9706 24.5251 33.9706 24.5081 35.2914Z" fill="#769914"/>
<g style="mix-blend-mode:multiply">
<path d="M30.2207 32.914L29.2526 33.6121C29.2526 33.6121 28.1768 33.9329 27.8711 34.9518C28.0296 33.6939 28.9242 32.7442 30.2207 32.914Z" fill="#A3C02D"/>
</g>
<g style="mix-blend-mode:multiply">
<path d="M26.8287 31.9832L26.2455 33.0838C26.2455 33.0838 25.4189 33.9141 25.5604 34.977C25.1868 33.7694 25.6001 32.4737 26.8287 31.9832Z" fill="#A3C02D"/>
</g>
<g style="mix-blend-mode:multiply">
<path d="M29.4958 34.4739C29.3599 35.279 28.3974 35.6815 27.8143 35.172C27.2934 35.6878 26.3875 35.6689 25.8836 35.1469C25.5552 35.6941 24.8022 35.9205 24.2587 35.6186C23.8341 36.2476 22.8433 36.0274 22.6677 35.2664C22.6168 36.1721 23.7038 36.669 24.2417 36.0086C24.7626 36.3608 25.5269 36.2098 25.9006 35.6941C26.3592 36.2664 27.2594 36.3671 27.8199 35.9079C28.6522 36.7696 30.0337 35.606 29.4958 34.4739Z" fill="#A3C02D"/>
</g>
</g>
<mask id="mask18_100_10204" style="mask-type:luminance" maskUnits="userSpaceOnUse" x="13" y="32" width="8" height="4">
<path d="M19.0588 33.544C18.9912 33.544 18.9257 33.5514 18.8623 33.566C18.4813 32.583 17.1015 32.4603 16.5852 33.3667C15.9861 32.7584 14.907 33.11 14.6941 33.9705C13.0924 34.0384 14.0164 36.6637 15.2343 35.5146C15.6968 35.8316 16.3802 35.6951 16.7148 35.2366C17.1242 35.7448 17.9287 35.8391 18.4264 35.4259C19.8486 36.5933 20.8252 33.7019 19.0588 33.544Z" fill="white"/>
</mask>
<g mask="url(#mask18_100_10204)">
<path d="M19.0011 34.216C18.9897 36.1407 16.3514 36.1407 16.3457 34.216C16.3514 32.2851 18.9954 32.2851 19.0011 34.216Z" fill="#769914"/>
<path d="M20.0265 34.6185C20.0435 36.0085 18.0788 36.0085 18.0958 34.6185C18.0788 33.2222 20.0435 33.2222 20.0265 34.6185Z" fill="#769914"/>
<path d="M17.0072 34.3731C17.0016 36.0965 14.6463 36.0965 14.6406 34.3731C14.6463 32.6497 17.0016 32.6497 17.0072 34.3731Z" fill="#769914"/>
<path d="M15.4681 34.8764C15.4851 36.0589 13.8149 36.0589 13.8262 34.8764C13.8149 33.7003 15.4851 33.694 15.4681 34.8764Z" fill="#769914"/>
<g style="mix-blend-mode:multiply">
<path d="M20.1731 32.7378L19.4031 33.2913C19.4031 33.2913 18.5481 33.5492 18.3047 34.3605C18.4179 33.3731 19.1596 32.5931 20.1731 32.7378Z" fill="#A3C02D"/>
</g>
<g style="mix-blend-mode:multiply">
<path d="M17.4257 32.0144L16.9387 32.8761C16.9387 32.8761 16.265 33.5113 16.3499 34.3605C16.0782 33.4107 16.4518 32.3603 17.4257 32.0144Z" fill="#A3C02D"/>
</g>
<g style="mix-blend-mode:multiply">
<path d="M19.8769 34.0522C19.9165 34.9139 18.9427 35.4611 18.3425 34.9328C17.8726 35.3857 17.0686 35.3605 16.6214 34.8888C16.3213 35.3794 15.6475 35.5743 15.1663 35.2976C14.8832 35.7064 14.2491 35.7316 13.9434 35.3479C14.1868 35.8448 14.8945 35.9391 15.2342 35.5177C15.6985 35.8322 16.3779 35.6939 16.7176 35.2347C17.1253 35.7442 17.9292 35.8385 18.4275 35.4234C19.2144 36.2348 20.4714 35.0523 19.8769 34.0522Z" fill="#A3C02D"/>
</g>
</g>
<mask id="mask19_100_10204" style="mask-type:luminance" maskUnits="userSpaceOnUse" x="12" y="27" width="9" height="6">
<path d="M19.143 29.3082C19.0811 29.309 19.0205 29.3147 18.9613 29.3252C18.5157 27.3559 15.8247 27.4873 15.541 29.4988C14.9227 29.0623 14.0129 29.4201 13.7695 30.168C13.1625 29.7397 12.3025 30.2743 12.3229 31.0806C12.29 32.1039 13.5877 32.5304 14.0695 31.6819C14.6402 32.3329 15.7522 32.0756 16.0455 31.2379C16.563 31.8347 17.5232 31.9687 18.163 31.5171C19.8773 33.504 21.6115 29.6183 19.143 29.3082Z" fill="white"/>
</mask>
<g mask="url(#mask19_100_10204)">
<path d="M19.022 29.8385C19.0107 32.3921 15.523 32.3921 15.5117 29.8385C15.523 27.2911 19.0163 27.2911 19.022 29.8385Z" fill="#769914"/>
<path d="M16.1519 30.6813C16.1463 32.4802 13.6891 32.4802 13.6777 30.6813C13.6891 28.8888 16.1463 28.8888 16.1519 30.6813Z" fill="#769914"/>
<path d="M20.3804 30.6813C20.3748 32.4802 17.9119 32.4802 17.9062 30.6813C17.9119 28.8888 20.3748 28.8888 20.3804 30.6813Z" fill="#769914"/>
<path d="M14.238 31.0839C14.255 32.4614 12.3073 32.4614 12.3243 31.0839C12.3073 29.7002 14.255 29.7002 14.238 31.0839Z" fill="#769914"/>
<g style="mix-blend-mode:multiply">
<path d="M20.059 28.5994L19.306 29.1403C19.306 29.1403 18.4681 29.3982 18.2246 30.1969C18.3378 29.222 19.0682 28.4547 20.059 28.5994Z" fill="#A3C02D"/>
</g>
<g style="mix-blend-mode:multiply">
<path d="M14.9071 28.6624L14.3579 29.4549C14.3579 29.4549 13.6785 29.7505 13.6502 30.8386C13.469 29.8826 13.9276 28.8888 14.9071 28.6624Z" fill="#A3C02D"/>
</g>
<g style="mix-blend-mode:multiply">
<path d="M20.041 29.7378C20.143 30.9328 18.7105 31.6624 17.9575 30.8133C17.397 31.3731 16.4289 31.4171 15.8287 30.9203C15.6928 31.5932 15.0191 32.0838 14.3906 31.9266C14.9964 32.2662 15.8004 31.914 16.0439 31.2347C16.5647 31.8323 17.5216 31.9706 18.1613 31.5178C19.2088 33.0084 21.2017 31.1215 20.041 29.7378Z" fill="#A3C02D"/>
</g>
</g>
<path d="M20.1324 44.5689C20.1324 44.5689 20.0644 43.4933 19.5605 43.0028C19.5605 43.0028 20.2739 43.6569 20.3249 43.789C20.3249 43.789 20.2173 42.7637 20.0135 42.4933C20.0135 42.4933 20.4664 42.9336 20.557 43.1726C20.557 43.1726 20.4155 42.4304 20.2796 42.1851C20.2796 42.1851 20.6872 42.8141 20.7495 43.2481C20.7495 43.2481 20.8175 42.0656 20.6816 41.6064C20.6816 41.6064 21.0496 42.8958 21.0496 43.4682C21.0496 43.4682 21.0666 42.3675 21.3553 41.9524C21.3553 41.9524 21.2987 43.0216 21.344 43.4116C21.344 43.4116 21.4855 42.8392 21.4799 42.487C21.4799 42.487 21.6611 43.2103 21.6044 43.5625C21.6044 43.5625 21.8592 42.9147 21.7516 42.0279C21.7516 42.0279 21.9668 42.7197 21.9498 43.2984C21.9498 43.2984 22.1253 42.7889 22.3574 42.4996C22.3574 42.4996 22.0461 43.443 22.0404 43.7449C22.0404 43.7449 22.1649 43.3738 22.4027 43.2103C22.4027 43.2103 22.097 43.8393 22.0291 44.116C22.0291 44.116 22.2895 43.7261 22.7085 43.5751C22.7085 43.5751 22.2442 44.2167 22.2329 44.5689H20.1324Z" fill="#769914"/>
<path d="M21.701 44.5625C21.701 44.5625 21.6557 43.814 21.3047 43.4681C21.3047 43.4681 21.8029 43.9272 21.8369 44.0216C21.8369 44.0216 21.7633 43.3045 21.6217 43.1096C21.6217 43.1096 21.9331 43.424 22.0011 43.5876C22.0011 43.5876 21.8992 43.0718 21.8029 42.902C21.8029 42.902 22.0917 43.336 22.1313 43.6442C22.1313 43.6442 22.1823 42.8139 22.086 42.4932C22.086 42.4932 22.3464 43.3926 22.3464 43.7951C22.3464 43.7951 22.3578 43.0278 22.5616 42.7322C22.5616 42.7322 22.5163 43.4806 22.5503 43.7574C22.5503 43.7574 22.6522 43.3548 22.6465 43.1096C22.6465 43.1096 22.7711 43.619 22.7371 43.8643C22.7371 43.8643 22.9126 43.4115 22.8334 42.7888C22.8334 42.7888 22.9862 43.2731 22.9749 43.6756C22.9749 43.6756 23.0995 43.3234 23.2636 43.1221C23.2636 43.1221 23.0428 43.7825 23.0372 43.9901C23.0372 43.9901 23.1278 43.7322 23.292 43.6127C23.292 43.6127 23.0768 44.0593 23.0315 44.248C23.0315 44.248 23.2127 43.9775 23.5071 43.8706C23.5071 43.8706 23.1787 44.3172 23.1731 44.5625H21.701Z" fill="#769914"/>
<path d="M8.91625 27.458L8.53125 45.8301H10.3713L9.22198 27.0303L8.91625 27.458Z" fill="#331C10"/>
<path d="M11.3665 27.2881L9.2207 30.6027L9.29997 31.3701L11.3665 27.2881Z" fill="#331C10"/>
<path d="M7.00195 27.37L9.14776 31.5401L8.99489 32.559L7.00195 27.2002V27.37Z" fill="#331C10"/>
<path d="M5.39333 31.6282L9.22066 36.7291V37.6663L6.61626 34.2635L3.40039 32.2194L6.54266 33.8359L5.39333 31.6282Z" fill="#331C10"/>
<path d="M13.0483 32.3074L9.45312 35.7919V36.8171L13.0483 32.3074Z" fill="#331C10"/>
<path d="M10.8281 34.8547L10.998 34.7666L14.9102 32.6785L11.2075 34.2886L10.8281 34.8547Z" fill="#331C10"/>
<path d="M9.52591 39.3643L11.5925 37.578L12.9966 35.9805L11.9038 37.7479L15.2273 35.9993L12.0567 38.0057L9.52591 40.4713L9.37305 39.2825" fill="#331C10"/>
<path d="M3.55859 36.2825L6.38947 38.943L9.14674 40.5595L9.22034 39.7921L6.61594 38.6034L5.8516 35.6221L6.2366 38.2574L3.55859 36.2825Z" fill="#331C10"/>
<path d="M7.00195 27.37L7.22842 27.8166L7.00195 27.2002V27.37Z" fill="#331C10"/>
<path d="M15.2278 35.9994L11.9043 37.7479L12.997 35.9805L11.5929 37.5781L9.95103 38.9995L9.7925 36.383L11.1513 34.6848L14.9107 32.6784L11.6043 34.1187L13.048 32.3073L9.74154 35.515L9.46412 31.0368L11.3665 27.2882L9.41882 30.2946L9.22066 27.0303L8.91493 27.458L8.84132 30.9487L7.22773 27.8165C8.81302 32.1501 8.94324 31.2758 8.73375 36.0811L5.39332 31.628L6.54266 33.8357L3.40039 32.2193L6.61626 34.2634L8.71677 37.0057L8.66581 39.5342L6.61626 38.6033L5.85192 35.622L6.23692 38.2574L3.55892 36.2824L6.38979 38.9429L8.64883 40.2638L8.52993 45.8301H10.37L10.0133 39.9996L12.0572 38.0058L15.2278 35.9994Z" fill="#331C10"/>
<g style="mix-blend-mode:multiply">
<path d="M7 27.3698L7.22647 27.8163L7 27.2V27.3698Z" fill="#331C10"/>
<path d="M10.0112 39.9995L12.0551 38.0057L15.2257 35.9993L11.7437 38.0057L9.75644 39.7919L9.26953 45.83H10.3679L10.0112 39.9995Z" fill="#331C10"/>
<path d="M9.4513 35.7917L9.54189 39.1819L9.93821 38.7793L9.79101 36.383L11.1498 34.6847L14.9092 32.6783L11.6028 34.1187L13.0465 32.3072L9.74005 35.515L9.46262 31.0367L11.365 27.2881L9.28711 30.9361L9.4513 35.7917Z" fill="#331C10"/>
</g>
<mask id="mask20_100_10204" style="mask-type:luminance" maskUnits="userSpaceOnUse" x="3" y="22" width="13" height="7">
<path d="M13.972 25.1982C13.7727 25.1982 13.583 25.2403 13.4069 25.3145C12.9477 24.2182 11.6008 23.6824 10.6027 24.2491C9.46068 22.1275 6.23688 22.8031 5.88246 25.2541C5.16964 25.0353 4.3804 25.4611 4.0741 26.168C2.22893 26.4542 3.15293 29.5481 4.78634 28.5455C5.43292 28.9298 6.3303 28.6852 6.74814 28.0442C7.62005 28.9279 9.1691 28.9512 10.0625 28.0908C10.764 28.8814 12.0866 28.9412 12.8441 28.2097C15.1615 30.3488 16.9783 25.5233 13.972 25.1982Z" fill="white"/>
</mask>
<g mask="url(#mask20_100_10204)">
<path d="M13.9695 25.2C13.7714 25.2 13.5789 25.2378 13.4033 25.3133C12.9447 24.2189 11.5973 23.6842 10.6008 24.2503C9.45711 22.1307 6.23558 22.8037 5.87889 25.2566C5.16551 25.0365 4.37853 25.4642 4.07279 26.1687C2.22707 26.4517 3.14993 29.5462 4.78617 28.5461C5.43161 28.9298 6.33183 28.6845 6.74514 28.043C7.61704 28.9298 9.16836 28.9487 10.0629 28.0933C10.765 28.8795 12.0842 28.9424 12.8428 28.2065C15.1585 30.3513 16.9759 25.5208 13.9695 25.2Z" fill="#769914"/>
<g style="mix-blend-mode:multiply">
<path d="M14.9721 25.5901C15.4703 27.238 13.5114 28.5966 12.396 27.4141C11.6826 28.2003 10.3578 28.238 9.61043 27.4959C8.77249 28.4204 7.22117 28.5085 6.30397 27.6846C5.91897 28.3575 5.0414 28.6657 4.37332 28.3261C4.15817 28.4959 3.86942 28.584 3.59766 28.5462C3.93736 28.7915 4.44126 28.7915 4.78662 28.5462C5.43206 28.9299 6.33228 28.6846 6.74558 28.0431C7.61749 28.9299 9.16881 28.9488 10.0634 28.0934C10.7654 28.8796 12.0846 28.9425 12.8433 28.2066C14.4059 29.9174 16.6593 27.1373 14.9721 25.5901Z" fill="#A3C02D"/>
</g>
<g style="mix-blend-mode:multiply">
<path d="M11.5126 23.5898L10.601 24.2502C10.601 24.2502 9.58758 24.5584 9.29883 25.5207C9.44603 24.3257 10.2896 23.4325 11.5126 23.5898Z" fill="#A3C02D"/>
</g>
<g style="mix-blend-mode:multiply">
<path d="M14.9831 24.3445L14.0715 24.9987C14.0715 24.9987 13.0524 25.3069 12.7637 26.2692C12.9165 25.0741 13.7601 24.181 14.9831 24.3445Z" fill="#A3C02D"/>
</g>
</g>
<mask id="mask21_100_10204" style="mask-type:luminance" maskUnits="userSpaceOnUse" x="10" y="29" width="7" height="5">
<path d="M15.444 30.358C15.3512 30.358 15.261 30.3681 15.1734 30.3882C14.4515 28.5692 11.7837 29.0944 11.6942 31.1052C9.60506 31.1794 10.9293 34.54 12.394 32.8946C12.9778 33.4349 13.9572 33.467 14.5693 32.9625C16.5373 34.5765 17.8871 30.5769 15.444 30.358Z" fill="white"/>
</mask>
<g mask="url(#mask21_100_10204)">
<path d="M15.36 31.2884C15.3204 33.9678 11.7308 33.9678 11.6855 31.2884C11.7308 28.6027 15.3204 28.6027 15.36 31.2884Z" fill="#769914"/>
<path d="M16.7817 31.8419C16.7761 33.7854 14.115 33.7854 14.1094 31.8419C14.115 29.8984 16.7761 29.8984 16.7817 31.8419Z" fill="#769914"/>
<path d="M12.608 32.2129C12.6249 33.6595 10.5811 33.6595 10.6037 32.2129C10.5811 30.7663 12.6249 30.7663 12.608 32.2129Z" fill="#769914"/>
<g style="mix-blend-mode:multiply">
<path d="M16.1127 29.7098L15.32 30.2759C15.32 30.2759 14.4425 30.5463 14.1934 31.3765C14.3066 30.3576 15.0709 29.5588 16.1127 29.7098Z" fill="#A3C02D"/>
</g>
<g style="mix-blend-mode:multiply">
<path d="M16.424 30.8354C16.7184 32.0934 15.3313 33.1312 14.3914 32.3953C13.8479 32.9865 12.8741 33.106 12.2286 32.6595C12.0305 33.0746 11.5323 33.3136 11.1133 33.1815C11.5209 33.4582 12.1211 33.3136 12.3928 32.8922C12.976 33.4331 13.9555 33.4645 14.5726 32.9614C15.7842 34.1878 17.5677 32.1437 16.424 30.8354Z" fill="#A3C02D"/>
</g>
</g>
<mask id="mask22_100_10204" style="mask-type:luminance" maskUnits="userSpaceOnUse" x="10" y="34" width="8" height="4">
<path d="M16.5331 35.2365C16.4573 35.2365 16.3839 35.2449 16.3129 35.2616C15.8866 34.1603 14.3415 34.0232 13.7634 35.0384C13.0925 34.3572 11.8843 34.7503 11.6459 35.7145C9.85285 35.79 10.8867 38.7304 12.2512 37.4429C12.7686 37.7976 13.5336 37.6448 13.9089 37.1316C14.3664 37.7008 15.2677 37.8064 15.8254 37.3442C17.4175 38.6512 18.5108 35.4139 16.5331 35.2365Z" fill="white"/>
</mask>
<g mask="url(#mask22_100_10204)">
<path d="M16.4685 35.9869C16.4572 38.1443 13.5018 38.1443 13.4961 35.9869C13.5018 33.8296 16.4572 33.8296 16.4685 35.9869Z" fill="#769914"/>
<path d="M17.618 36.4397C17.635 37.9932 15.4326 37.9932 15.4553 36.4397C15.4326 34.8798 17.635 34.8798 17.618 36.4397Z" fill="#769914"/>
<path d="M14.2374 36.163C14.2317 38.0939 11.5934 38.0939 11.582 36.163C11.5934 34.2383 14.2317 34.2383 14.2374 36.163Z" fill="#769914"/>
<path d="M12.516 36.7289C12.5329 38.056 10.6589 38.056 10.6759 36.7289C10.6589 35.4081 12.5329 35.4081 12.516 36.7289Z" fill="#769914"/>
<g style="mix-blend-mode:multiply">
<path d="M18.2285 34.3515L17.2604 35.0496C17.2604 35.0496 16.1846 35.3704 15.8789 36.3893C16.0374 35.1314 16.932 34.1817 18.2285 34.3515Z" fill="#A3C02D"/>
</g>
<g style="mix-blend-mode:multiply">
<path d="M14.8365 33.4207L14.2533 34.5213C14.2533 34.5213 13.4267 35.3516 13.5682 36.4145C13.1946 35.2069 13.6079 33.9112 14.8365 33.4207Z" fill="#A3C02D"/>
</g>
<g style="mix-blend-mode:multiply">
<path d="M17.5036 35.9114C17.3677 36.7165 16.4052 37.119 15.8221 36.6095C15.3012 37.1253 14.3953 37.1064 13.8914 36.5844C13.563 37.1316 12.81 37.358 12.2665 37.0561C11.8419 37.6851 10.8511 37.4649 10.6756 36.7039C10.6246 37.6096 11.7117 38.1065 12.2495 37.4461C12.7704 37.7983 13.5347 37.6473 13.9084 37.1316C14.367 37.7039 15.2672 37.8046 15.8277 37.3454C16.66 38.2071 18.0415 37.0435 17.5036 35.9114Z" fill="#A3C02D"/>
</g>
</g>
<mask id="mask23_100_10204" style="mask-type:luminance" maskUnits="userSpaceOnUse" x="1" y="34" width="8" height="4">
<path d="M7.06658 34.9815C6.99902 34.9815 6.93353 34.9889 6.87012 35.0035C6.48908 34.0205 5.10932 33.8978 4.59296 34.8042C3.99395 34.1959 2.91482 34.5475 2.70194 35.408C1.10024 35.4759 2.02423 38.1012 3.24207 36.9521C3.70464 37.2691 4.38801 37.1326 4.72262 36.6741C5.13196 37.1823 5.9365 37.2766 6.43416 36.8634C7.85639 38.0308 8.83305 35.1394 7.06658 34.9815Z" fill="white"/>
</mask>
<g mask="url(#mask23_100_10204)">
<path d="M7.00887 35.6535C6.99755 37.5782 4.35918 37.5782 4.35352 35.6535C4.35918 33.7226 7.00321 33.7226 7.00887 35.6535Z" fill="#769914"/>
<path d="M8.03428 36.056C8.05126 37.446 6.08664 37.446 6.10363 36.056C6.08664 34.6597 8.05126 34.6597 8.03428 36.056Z" fill="#769914"/>
<path d="M5.01505 35.8106C5.00938 37.534 2.6541 37.534 2.64844 35.8106C2.6541 34.0872 5.00938 34.0872 5.01505 35.8106Z" fill="#769914"/>
<path d="M3.47595 36.3139C3.49293 37.4964 1.82272 37.4964 1.83404 36.3139C1.82272 35.1378 3.49293 35.1315 3.47595 36.3139Z" fill="#769914"/>
<g style="mix-blend-mode:multiply">
<path d="M8.18088 34.1753L7.41088 34.7288C7.41088 34.7288 6.55595 34.9867 6.3125 35.798C6.42573 34.8106 7.16743 34.0306 8.18088 34.1753Z" fill="#A3C02D"/>
</g>
<g style="mix-blend-mode:multiply">
<path d="M5.43346 33.4519L4.94655 34.3136C4.94655 34.3136 4.27281 34.9488 4.35773 35.798C4.08597 34.8482 4.45964 33.7978 5.43346 33.4519Z" fill="#A3C02D"/>
</g>
<g style="mix-blend-mode:multiply">
<path d="M7.88468 35.4897C7.92431 36.3514 6.95049 36.8986 6.35035 36.3703C5.88042 36.8232 5.07646 36.798 4.62918 36.3263C4.32911 36.8169 3.65536 37.0118 3.17411 36.7351C2.89102 37.1439 2.25691 37.1691 1.95117 36.7854C2.19463 37.2823 2.90235 37.3766 3.24205 36.9552C3.70631 37.2697 4.38572 37.1314 4.72543 36.6722C5.13307 37.1817 5.93704 37.276 6.43527 36.8609C7.22226 37.6723 8.47916 36.4898 7.88468 35.4897Z" fill="#A3C02D"/>
</g>
</g>
<mask id="mask24_100_10204" style="mask-type:luminance" maskUnits="userSpaceOnUse" x="0" y="29" width="9" height="5">
<path d="M7.15083 30.7457C7.08892 30.7465 7.02835 30.7522 6.96909 30.7627C6.52351 28.7934 3.83248 28.9248 3.54882 30.9363C2.93056 30.4998 2.02072 30.8576 1.77726 31.6055C1.17033 31.1772 0.310308 31.7118 0.33069 32.5181C0.297852 33.5414 1.59552 33.9679 2.07734 33.1194C2.64804 33.7704 3.76001 33.5131 4.05329 32.6754C4.57077 33.2722 5.531 33.4062 6.17078 32.9546C7.88515 34.9415 9.61935 31.0558 7.15083 30.7457Z" fill="white"/>
</mask>
<g mask="url(#mask24_100_10204)">
<path d="M7.02981 31.276C7.01849 33.8296 3.53085 33.8296 3.51953 31.276C3.53085 28.7286 7.02415 28.7286 7.02981 31.276Z" fill="#769914"/>
<path d="M4.15973 32.1188C4.15407 33.9177 1.69687 33.9177 1.68555 32.1188C1.69687 30.3263 4.15407 30.3263 4.15973 32.1188Z" fill="#769914"/>
<path d="M8.38824 32.1188C8.38258 33.9177 5.91972 33.9177 5.91406 32.1188C5.91972 30.3263 8.38258 30.3263 8.38824 32.1188Z" fill="#769914"/>
<path d="M2.24581 32.5214C2.2628 33.8989 0.315156 33.8989 0.332142 32.5214C0.315156 31.1377 2.2628 31.1377 2.24581 32.5214Z" fill="#769914"/>
<g style="mix-blend-mode:multiply">
<path d="M8.06683 30.0369L7.31381 30.5778C7.31381 30.5778 6.47588 30.8357 6.23242 31.6344C6.34566 30.6595 7.07602 29.8922 8.06683 30.0369Z" fill="#A3C02D"/>
</g>
<g style="mix-blend-mode:multiply">
<path d="M2.91487 30.0999L2.36568 30.8924C2.36568 30.8924 1.68627 31.188 1.65796 32.2761C1.47679 31.3201 1.93539 30.3263 2.91487 30.0999Z" fill="#A3C02D"/>
</g>
<g style="mix-blend-mode:multiply">
<path d="M8.04886 31.1753C8.15077 32.3703 6.71835 33.0999 5.96534 32.2508C5.40482 32.8106 4.43667 32.8546 3.83652 32.3578C3.70064 33.0307 3.02689 33.5213 2.39844 33.3641C3.00424 33.7037 3.80821 33.3515 4.05167 32.6722C4.57255 33.2698 5.52938 33.4081 6.16916 32.9553C7.21658 34.4459 9.20951 32.559 8.04886 31.1753Z" fill="#A3C02D"/>
</g>
</g>
<path d="M8.1402 46.0064C8.1402 46.0064 8.07225 44.9308 7.56836 44.4403C7.56836 44.4403 8.28174 45.0944 8.33269 45.2265C8.33269 45.2265 8.22512 44.2012 8.0213 43.9308C8.0213 43.9308 8.47424 44.3711 8.56483 44.6101C8.56483 44.6101 8.42328 43.8679 8.2874 43.6226C8.2874 43.6226 8.69505 44.2516 8.75733 44.6856C8.75733 44.6856 8.82527 43.5031 8.68939 43.0439C8.68939 43.0439 9.0574 44.3333 9.0574 44.9057C9.0574 44.9057 9.07438 43.805 9.36313 43.3899C9.36313 43.3899 9.30651 44.4591 9.35181 44.8491C9.35181 44.8491 9.49335 44.2767 9.48769 43.9245C9.48769 43.9245 9.66887 44.6478 9.61225 45C9.61225 45 9.86703 44.3522 9.75945 43.4654C9.75945 43.4654 9.9746 44.1572 9.95762 44.7359C9.95762 44.7359 10.1331 44.2264 10.3653 43.9371C10.3653 43.9371 10.0539 44.8805 10.0482 45.1824C10.0482 45.1824 10.1728 44.8113 10.4106 44.6478C10.4106 44.6478 10.1048 45.2768 10.0369 45.5535C10.0369 45.5535 10.2973 45.1636 10.7163 45.0126C10.7163 45.0126 10.252 45.6542 10.2407 46.0064H8.1402Z" fill="#769914"/>
<path d="M9.70882 46C9.70882 46 9.66353 45.2515 9.3125 44.9056C9.3125 44.9056 9.81073 45.3647 9.8447 45.4591C9.8447 45.4591 9.7711 44.742 9.62956 44.5471C9.62956 44.5471 9.94095 44.8615 10.0089 45.0251C10.0089 45.0251 9.90698 44.5093 9.81073 44.3395C9.81073 44.3395 10.0995 44.7735 10.1391 45.0817C10.1391 45.0817 10.1901 44.2514 10.0938 43.9307C10.0938 43.9307 10.3543 44.8301 10.3543 45.2326C10.3543 45.2326 10.3656 44.4653 10.5694 44.1697C10.5694 44.1697 10.5241 44.9181 10.5581 45.1949C10.5581 45.1949 10.66 44.7923 10.6543 44.5471C10.6543 44.5471 10.7789 45.0565 10.7449 45.3018C10.7449 45.3018 10.9204 44.849 10.8412 44.2263C10.8412 44.2263 10.994 44.7106 10.9827 45.1131C10.9827 45.1131 11.1073 44.7609 11.2715 44.5596C11.2715 44.5596 11.0507 45.22 11.045 45.4276C11.045 45.4276 11.1356 45.1697 11.2998 45.0502C11.2998 45.0502 11.0846 45.4968 11.0393 45.6855C11.0393 45.6855 11.2205 45.415 11.5149 45.3081C11.5149 45.3081 11.1865 45.7547 11.1809 46H9.70882Z" fill="#769914"/>
</svg>
