<svg width="94" height="95" viewBox="0 0 94 95" fill="none" xmlns="http://www.w3.org/2000/svg">
<path d="M71.8958 9.33516L71.0932 47.6328H74.9289L72.5331 8.4436L71.8958 9.33516Z" fill="#331C10"/>
<path d="M77.006 8.9812L72.533 15.8908L72.6983 17.4903L77.006 8.9812Z" fill="#331C10"/>
<path d="M67.9066 9.15161L72.3796 17.8443L72.0609 19.9683L67.9066 8.79761V9.15161Z" fill="#331C10"/>
<path d="M64.5548 18.0281L72.533 28.6612V30.6148L67.104 23.5216L60.4004 19.2605L66.9506 22.6301L64.5548 18.0281Z" fill="#331C10"/>
<path d="M80.5113 19.4438L73.0169 26.7074V28.8445L80.5113 19.4438Z" fill="#331C10"/>
<path d="M75.8848 24.754L76.2389 24.5704L84.3942 20.2175L76.6756 23.574L75.8848 24.754Z" fill="#331C10"/>
<path d="M73.1703 34.1546L77.4781 30.4311L80.4051 27.1008L78.1273 30.7851L85.0551 27.1402L78.4459 31.3226L73.1703 36.4622L72.8517 33.9842" fill="#331C10"/>
<path d="M60.7308 27.7302L66.6319 33.2762L72.3796 36.6458L72.533 35.0462L67.104 32.5682L65.5107 26.3535L66.3133 31.8471L60.7308 27.7302Z" fill="#331C10"/>
<path d="M67.9066 9.15161L68.3786 10.0825L67.9066 8.79761V9.15161Z" fill="#331C10"/>
<path d="M85.0551 27.1401L78.1273 30.785L80.4051 27.1007L77.4781 30.431L74.0555 33.3941L73.7251 27.9399L76.5576 24.3999L84.3942 20.2174L77.5017 23.2199L80.5113 19.4438L73.6188 26.1305L73.0405 16.7954L77.0061 8.98116L72.9461 15.2483L72.533 8.4436L71.8957 9.33516L71.7423 16.6118L68.3787 10.0825C71.6833 19.1161 71.9547 17.2936 71.518 27.3105L64.5548 18.0278L66.9506 22.6299L60.4004 19.2603L67.104 23.5214L71.4826 29.2379L71.3764 34.5085L67.104 32.5681L65.5107 26.3534L66.3133 31.847L60.7309 27.7301L66.6319 33.2761L71.341 36.0294L71.0932 47.6328H74.9289L74.1853 35.4788L78.4459 31.3225L85.0551 27.1401Z" fill="#331C10"/>
<g style="mix-blend-mode:multiply">
<path d="M67.9066 9.15161L68.3787 10.0825L67.9066 8.79761V9.15161Z" fill="#331C10"/>
<path d="M74.1853 35.4788L78.4459 31.3226L85.0551 27.1401L77.7968 31.3226L73.6542 35.0462L72.6392 47.6328H74.9288L74.1853 35.4788Z" fill="#331C10"/>
<path d="M73.0169 26.7075L73.2057 33.7744L74.0319 32.9352L73.725 27.9399L76.5575 24.3999L84.3942 20.2174L77.5017 23.2199L80.5113 19.4439L73.6188 26.1306L73.0405 16.7954L77.006 8.9812L72.6746 16.5857L73.0169 26.7075Z" fill="#331C10"/>
</g>
<mask id="mask0_12_25633" style="mask-type:luminance" maskUnits="userSpaceOnUse" x="59" y="0" width="27" height="13">
<path d="M82.4375 4.62442C82.022 4.62442 81.6266 4.71227 81.2596 4.86698C80.3024 2.58171 77.4947 1.46464 75.414 2.64595C73.0335 -1.77643 66.3133 -0.368298 65.5745 4.74111C64.0886 4.28484 62.4434 5.17247 61.8049 6.64616C57.9586 7.24272 59.8847 13.6921 63.2896 11.6022C64.6374 12.4033 66.5081 11.8932 67.3791 10.5572C69.1966 12.3993 72.4257 12.4478 74.2881 10.6542C75.7503 12.3023 78.5073 12.4269 80.0865 10.902C84.9171 15.3611 88.7044 5.30227 82.4375 4.62442Z" fill="white"/>
</mask>
<g mask="url(#mask0_12_25633)">
<path d="M82.4349 4.62841C82.0219 4.62841 81.6206 4.70708 81.2547 4.86441C80.2987 2.58307 77.4898 1.46863 75.4126 2.64863C73.0286 -1.76982 66.3132 -0.366933 65.5696 4.74641C64.0825 4.28752 62.442 5.17908 61.8047 6.64753C57.9572 7.23753 59.881 13.6882 63.2918 11.6035C64.6372 12.4033 66.5138 11.892 67.3754 10.5546C69.1929 12.4033 72.4267 12.4426 74.2914 10.6595C75.7549 12.2984 78.5048 12.4295 80.0863 10.8955C84.9134 15.3664 88.7019 5.29708 82.4349 4.62841Z" fill="#769914"/>
<g style="mix-blend-mode:multiply">
<path d="M84.5241 5.44141C85.5626 8.87652 81.4791 11.7085 79.1541 9.24364C77.667 10.8825 74.9053 10.9612 73.3474 9.41408C71.6007 11.3414 68.3669 11.525 66.4549 9.80741C65.6524 11.2103 63.823 11.8528 62.4304 11.1448C61.9819 11.4988 61.38 11.6823 60.8135 11.6036C61.5216 12.115 62.572 12.115 63.2919 11.6036C64.6374 12.4034 66.5139 11.8921 67.3755 10.5547C69.193 12.4034 72.4268 12.4428 74.2916 10.6596C75.755 12.2985 78.5049 12.4296 80.0864 10.8956C83.3438 14.4619 88.0411 8.66675 84.5241 5.44141Z" fill="#A3C02D"/>
</g>
<g style="mix-blend-mode:multiply">
<path d="M77.313 1.27186L75.4128 2.64853C75.4128 2.64853 73.3002 3.29097 72.6983 5.29698C73.0052 2.80586 74.7637 0.94408 77.313 1.27186Z" fill="#A3C02D"/>
</g>
<g style="mix-blend-mode:multiply">
<path d="M84.5477 2.84526L82.6476 4.20882C82.6476 4.20882 80.5232 4.85126 79.9213 6.85727C80.2399 4.36615 81.9984 2.50437 84.5477 2.84526Z" fill="#A3C02D"/>
</g>
</g>
<mask id="mask1_12_25633" style="mask-type:luminance" maskUnits="userSpaceOnUse" x="75" y="13" width="14" height="9">
<path d="M85.5037 15.3807C85.3101 15.3807 85.1221 15.4017 84.9395 15.4436C83.4347 11.6519 77.8736 12.7467 77.6871 16.9383C73.3321 17.093 76.0926 24.0983 79.1458 20.6684C80.3626 21.7947 82.4044 21.8615 83.6802 20.81C87.7827 24.1743 90.5963 15.837 85.5037 15.3807Z" fill="white"/>
</mask>
<g mask="url(#mask1_12_25633)">
<path d="M85.3267 17.3199C85.2441 22.9053 77.7615 22.9053 77.6671 17.3199C77.7615 11.7215 85.2441 11.7215 85.3267 17.3199Z" fill="#769914"/>
<path d="M88.2889 18.4738C88.2771 22.5251 82.7301 22.5251 82.7183 18.4738C82.7301 14.4225 88.2771 14.4225 88.2889 18.4738Z" fill="#769914"/>
<path d="M79.5908 19.2473C79.6262 22.2628 75.3656 22.2628 75.4128 19.2473C75.3656 16.2317 79.6262 16.2317 79.5908 19.2473Z" fill="#769914"/>
<g style="mix-blend-mode:multiply">
<path d="M86.8963 14.029L85.244 15.209C85.244 15.209 83.4146 15.7728 82.8953 17.5035C83.1314 15.3795 84.7247 13.7144 86.8963 14.029Z" fill="#A3C02D"/>
</g>
<g style="mix-blend-mode:multiply">
<path d="M87.5455 16.376C88.1592 18.9982 85.2677 21.1615 83.3085 19.6275C82.1755 20.86 80.1455 21.1091 78.8001 20.1782C78.387 21.0435 77.3484 21.5418 76.475 21.2664C77.3248 21.8433 78.5758 21.5418 79.1423 20.6633C80.3579 21.7909 82.3997 21.8564 83.6862 20.8075C86.2118 23.3642 89.9295 19.1031 87.5455 16.376Z" fill="#A3C02D"/>
</g>
</g>
<mask id="mask2_12_25633" style="mask-type:luminance" maskUnits="userSpaceOnUse" x="75" y="23" width="15" height="8">
<path d="M87.779 25.5498C87.6209 25.5498 87.4679 25.5673 87.32 25.6023C86.4312 23.3065 83.2104 23.0207 82.0054 25.1368C80.6069 23.7169 78.0883 24.5363 77.5914 26.5463C73.8537 26.7036 76.0087 32.8331 78.8531 30.1492C79.9318 30.8887 81.5263 30.5701 82.3087 29.5002C83.2624 30.6868 85.1413 30.907 86.3038 29.9434C89.6225 32.6679 91.9015 25.9196 87.779 25.5498Z" fill="white"/>
</mask>
<g mask="url(#mask2_12_25633)">
<path d="M87.6399 27.1141C87.6163 31.6112 81.4556 31.6112 81.4438 27.1141C81.4556 22.6169 87.6163 22.6169 87.6399 27.1141Z" fill="#769914"/>
<path d="M90.0358 28.0578C90.0712 31.2963 85.4801 31.2963 85.5273 28.0578C85.4801 24.8063 90.0712 24.8063 90.0358 28.0578Z" fill="#769914"/>
<path d="M82.9899 27.4812C82.9781 31.5063 77.4783 31.5063 77.4547 27.4812C77.4783 23.4692 82.9781 23.4692 82.9899 27.4812Z" fill="#769914"/>
<path d="M79.402 28.661C79.4374 31.4274 75.5309 31.4274 75.5663 28.661C75.5309 25.9076 79.4374 25.9076 79.402 28.661Z" fill="#769914"/>
<g style="mix-blend-mode:multiply">
<path d="M91.3104 23.7051L89.2922 25.1604C89.2922 25.1604 87.0498 25.8291 86.4125 27.9531C86.7429 25.3309 88.6077 23.3511 91.3104 23.7051Z" fill="#A3C02D"/>
</g>
<g style="mix-blend-mode:multiply">
<path d="M84.2409 21.7646L83.0252 24.0591C83.0252 24.0591 81.3021 25.7898 81.5972 28.0055C80.8182 25.4882 81.6798 22.7873 84.2409 21.7646Z" fill="#A3C02D"/>
</g>
<g style="mix-blend-mode:multiply">
<path d="M89.7997 26.9565C89.5164 28.6348 87.51 29.4739 86.2944 28.4119C85.2086 29.487 83.3203 29.4477 82.2699 28.3594C81.5853 29.5001 80.0156 29.9721 78.8826 29.3428C77.9975 30.6539 75.9321 30.195 75.5662 28.6085C75.46 30.4965 77.726 31.5323 78.8472 30.1557C79.933 30.8899 81.5263 30.5752 82.3053 29.5001C83.2612 30.6932 85.1378 30.903 86.3062 29.9459C88.0411 31.7421 90.9209 29.3165 89.7997 26.9565Z" fill="#A3C02D"/>
</g>
</g>
<mask id="mask3_12_25633" style="mask-type:luminance" maskUnits="userSpaceOnUse" x="57" y="23" width="14" height="7">
<path d="M68.0424 25.0187C67.9015 25.0187 67.765 25.034 67.6328 25.0646C66.8385 23.0153 63.9624 22.7597 62.886 24.649C61.6373 23.3812 59.3878 24.1141 58.9441 25.9077C55.6052 26.0493 57.5314 31.5219 60.07 29.1265C61.0342 29.7873 62.4588 29.5027 63.1563 28.5469C64.0096 29.6063 65.6867 29.803 66.7241 28.9416C69.6888 31.375 71.7246 25.3478 68.0424 25.0187Z" fill="white"/>
</mask>
<g mask="url(#mask3_12_25633)">
<path d="M67.9183 26.4192C67.8947 30.4312 62.3949 30.4312 62.3831 26.4192C62.3949 22.3941 67.9065 22.3941 67.9183 26.4192Z" fill="#769914"/>
<path d="M70.0546 27.2582C70.09 30.1558 65.9946 30.1558 66.03 27.2582C65.9946 24.3475 70.09 24.3475 70.0546 27.2582Z" fill="#769914"/>
<path d="M63.764 26.7468C63.7522 30.3393 58.8425 30.3393 58.8307 26.7468C58.8425 23.1544 63.7522 23.1544 63.764 26.7468Z" fill="#769914"/>
<path d="M60.5538 27.7959C60.5892 30.2608 57.1076 30.2608 57.1312 27.7959C57.1076 25.3441 60.5892 25.331 60.5538 27.7959Z" fill="#769914"/>
<g style="mix-blend-mode:multiply">
<path d="M70.3613 23.3379L68.7562 24.4917C68.7562 24.4917 66.9741 25.0292 66.4666 26.7206C66.7027 24.6621 68.2487 23.0363 70.3613 23.3379Z" fill="#A3C02D"/>
</g>
<g style="mix-blend-mode:multiply">
<path d="M64.6373 21.8301L63.6224 23.6263C63.6224 23.6263 62.2179 24.9505 62.3949 26.7205C61.8284 24.7407 62.6074 22.5512 64.6373 21.8301Z" fill="#A3C02D"/>
</g>
<g style="mix-blend-mode:multiply">
<path d="M69.7476 26.0781C69.8303 27.8744 67.8003 29.015 66.5493 27.9137C65.5697 28.8577 63.8938 28.8052 62.9614 27.8219C62.3359 28.8446 60.9314 29.251 59.9282 28.6741C59.3381 29.5264 58.0163 29.5788 57.379 28.779C57.8865 29.8148 59.3617 30.0115 60.0699 29.133C61.0376 29.7886 62.4539 29.5001 63.162 28.543C64.0118 29.605 65.6877 29.8017 66.7263 28.9364C68.3668 30.6277 70.9869 28.1628 69.7476 26.0781Z" fill="#A3C02D"/>
</g>
</g>
<mask id="mask4_12_25633" style="mask-type:luminance" maskUnits="userSpaceOnUse" x="54" y="13" width="17" height="10">
<path d="M68.2182 16.1886C68.0891 16.1903 67.9629 16.2021 67.8393 16.224C66.9105 12.1189 61.3009 12.3929 60.7096 16.5858C59.4208 15.6759 57.5242 16.4219 57.0167 17.9809C55.7515 17.088 53.9588 18.2024 54.0013 19.8833C53.9328 22.0165 56.6379 22.9054 57.6422 21.1367C58.8319 22.4937 61.1499 21.9575 61.7612 20.2111C62.8399 21.4553 64.8416 21.7346 66.1752 20.7932C69.7489 24.935 73.3639 16.8349 68.2182 16.1886Z" fill="white"/>
</mask>
<g mask="url(#mask4_12_25633)">
<path d="M67.9656 17.2938C67.942 22.6169 60.6719 22.6169 60.6483 17.2938C60.6719 11.9838 67.9538 11.9838 67.9656 17.2938Z" fill="#769914"/>
<path d="M61.9819 19.0506C61.9701 22.8003 56.8479 22.8003 56.8243 19.0506C56.8479 15.3139 61.9701 15.3139 61.9819 19.0506Z" fill="#769914"/>
<path d="M70.7981 19.0506C70.7863 22.8003 65.6524 22.8003 65.6406 19.0506C65.6524 15.3139 70.7863 15.3139 70.7981 19.0506Z" fill="#769914"/>
<path d="M57.9927 19.8899C58.0281 22.7612 53.9682 22.7612 54.0036 19.8899C53.9682 17.0054 58.0281 17.0054 57.9927 19.8899Z" fill="#769914"/>
<g style="mix-blend-mode:multiply">
<path d="M70.1254 14.711L68.5557 15.8385C68.5557 15.8385 66.8089 16.3761 66.3015 18.0412C66.5375 16.009 68.06 14.4094 70.1254 14.711Z" fill="#A3C02D"/>
</g>
<g style="mix-blend-mode:multiply">
<path d="M59.3854 14.842L58.2406 16.494C58.2406 16.494 56.8243 17.1103 56.7653 19.3785C56.3876 17.3856 57.3436 15.314 59.3854 14.842Z" fill="#A3C02D"/>
</g>
<g style="mix-blend-mode:multiply">
<path d="M70.09 17.084C70.3024 19.5751 67.3165 21.096 65.7468 19.326C64.5784 20.4929 62.5602 20.5847 61.3092 19.5489C61.0259 20.9518 59.6214 21.9744 58.3114 21.6467C59.5742 22.3547 61.2501 21.6204 61.7576 20.2044C62.8434 21.45 64.838 21.7384 66.1717 20.7944C68.3551 23.9018 72.5094 19.9684 70.09 17.084Z" fill="#A3C02D"/>
</g>
</g>
<path d="M70.2789 48.0001C70.2789 48.0001 70.1372 45.758 69.0869 44.7354C69.0869 44.7354 70.5739 46.0989 70.6801 46.3743C70.6801 46.3743 70.4559 44.2372 70.031 43.6734C70.031 43.6734 70.9752 44.5912 71.164 45.0894C71.164 45.0894 70.869 43.5423 70.5857 43.0309C70.5857 43.0309 71.4355 44.342 71.5653 45.2467C71.5653 45.2467 71.7069 42.7818 71.4237 41.8247C71.4237 41.8247 72.1908 44.5125 72.1908 45.7056C72.1908 45.7056 72.2262 43.4112 72.8281 42.5458C72.8281 42.5458 72.7101 44.7747 72.8045 45.5876C72.8045 45.5876 73.0996 44.3945 73.0878 43.6603C73.0878 43.6603 73.4655 45.168 73.3474 45.9023C73.3474 45.9023 73.8785 44.5518 73.6543 42.7032C73.6543 42.7032 74.1028 44.1454 74.0674 45.3516C74.0674 45.3516 74.4332 44.2896 74.9171 43.6865C74.9171 43.6865 74.268 45.6532 74.2562 46.2825C74.2562 46.2825 74.5159 45.5089 75.0115 45.168C75.0115 45.168 74.3742 46.4792 74.2326 47.056C74.2326 47.056 74.7755 46.2432 75.6489 45.9285C75.6489 45.9285 74.6811 47.2658 74.6575 48.0001H70.2789Z" fill="#769914"/>
<path d="M73.5481 47.9869C73.5481 47.9869 73.4537 46.4267 72.7219 45.7056C72.7219 45.7056 73.7605 46.6627 73.8313 46.8593C73.8313 46.8593 73.6779 45.3647 73.3828 44.9582C73.3828 44.9582 74.032 45.6138 74.1736 45.9547C74.1736 45.9547 73.9612 44.8796 73.7605 44.5256C73.7605 44.5256 74.3624 45.4302 74.445 46.0727C74.445 46.0727 74.5513 44.342 74.3506 43.6733C74.3506 43.6733 74.8935 45.5482 74.8935 46.3873C74.8935 46.3873 74.9171 44.7878 75.342 44.1716C75.342 44.1716 75.2476 45.7318 75.3184 46.3087C75.3184 46.3087 75.5308 45.4696 75.519 44.9582C75.519 44.9582 75.7787 46.0202 75.7079 46.5316C75.7079 46.5316 76.0737 45.5876 75.9085 44.2896C75.9085 44.2896 76.2272 45.2991 76.2036 46.1382C76.2036 46.1382 76.4632 45.404 76.8055 44.9845C76.8055 44.9845 76.3452 46.3611 76.3334 46.7938C76.3334 46.7938 76.5222 46.2562 76.8645 46.0071C76.8645 46.0071 76.416 46.938 76.3216 47.3313C76.3216 47.3313 76.6993 46.7676 77.313 46.5447C77.313 46.5447 76.6284 47.4756 76.6166 47.9869H73.5481Z" fill="#769914"/>
<path d="M75.8958 35.3352L75.0932 73.6328H78.9289L76.5331 34.4436L75.8958 35.3352Z" fill="#331C10"/>
<path d="M81.006 34.9812L76.533 41.8908L76.6983 43.4903L81.006 34.9812Z" fill="#331C10"/>
<path d="M71.9066 35.1516L76.3796 43.8443L76.0609 45.9683L71.9066 34.7976V35.1516Z" fill="#331C10"/>
<path d="M68.5548 44.0281L76.533 54.6612V56.6148L71.104 49.5216L64.4004 45.2605L70.9506 48.6301L68.5548 44.0281Z" fill="#331C10"/>
<path d="M84.5113 45.4438L77.0169 52.7074V54.8445L84.5113 45.4438Z" fill="#331C10"/>
<path d="M79.8848 50.754L80.2389 50.5704L88.3942 46.2175L80.6756 49.574L79.8848 50.754Z" fill="#331C10"/>
<path d="M77.1703 60.1546L81.4781 56.4311L84.4051 53.1008L82.1273 56.7851L89.0551 53.1402L82.4459 57.3226L77.1703 62.4622L76.8517 59.9842" fill="#331C10"/>
<path d="M64.7308 53.7302L70.6319 59.2762L76.3796 62.6458L76.533 61.0462L71.104 58.5682L69.5107 52.3535L70.3133 57.8471L64.7308 53.7302Z" fill="#331C10"/>
<path d="M71.9066 35.1516L72.3786 36.0825L71.9066 34.7976V35.1516Z" fill="#331C10"/>
<path d="M89.0551 53.1401L82.1273 56.785L84.4051 53.1007L81.4781 56.431L78.0555 59.3941L77.7251 53.9399L80.5576 50.3999L88.3942 46.2174L81.5017 49.2199L84.5113 45.4438L77.6188 52.1305L77.0405 42.7954L81.0061 34.9812L76.9461 41.2483L76.533 34.4436L75.8957 35.3352L75.7423 42.6118L72.3787 36.0825C75.6833 45.1161 75.9547 43.2936 75.518 53.3105L68.5548 44.0278L70.9506 48.6299L64.4004 45.2603L71.104 49.5214L75.4826 55.2379L75.3764 60.5085L71.104 58.5681L69.5107 52.3534L70.3133 57.847L64.7309 53.7301L70.6319 59.2761L75.341 62.0294L75.0932 73.6328H78.9289L78.1853 61.4788L82.4459 57.3225L89.0551 53.1401Z" fill="#331C10"/>
<g style="mix-blend-mode:multiply">
<path d="M71.9066 35.1516L72.3787 36.0825L71.9066 34.7976V35.1516Z" fill="#331C10"/>
<path d="M78.1853 61.4788L82.4459 57.3226L89.0551 53.1401L81.7968 57.3226L77.6542 61.0462L76.6392 73.6328H78.9288L78.1853 61.4788Z" fill="#331C10"/>
<path d="M77.0169 52.7075L77.2057 59.7744L78.0319 58.9352L77.725 53.9399L80.5575 50.3999L88.3942 46.2174L81.5017 49.2199L84.5113 45.4439L77.6188 52.1306L77.0405 42.7954L81.006 34.9812L76.6746 42.5857L77.0169 52.7075Z" fill="#331C10"/>
</g>
<mask id="mask5_12_25633" style="mask-type:luminance" maskUnits="userSpaceOnUse" x="63" y="26" width="27" height="13">
<path d="M86.4375 30.6244C86.022 30.6244 85.6266 30.7123 85.2596 30.867C84.3024 28.5817 81.4947 27.4646 79.414 28.646C77.0335 24.2236 70.3133 25.6317 69.5745 30.7411C68.0886 30.2848 66.4434 31.1725 65.8049 32.6462C61.9586 33.2427 63.8847 39.6921 67.2896 37.6022C68.6374 38.4033 70.5081 37.8932 71.3791 36.5572C73.1966 38.3993 76.4257 38.4478 78.2881 36.6542C79.7503 38.3023 82.5073 38.4269 84.0865 36.902C88.9171 41.3611 92.7044 31.3023 86.4375 30.6244Z" fill="white"/>
</mask>
<g mask="url(#mask5_12_25633)">
<path d="M86.4349 30.6284C86.0219 30.6284 85.6206 30.7071 85.2547 30.8644C84.2987 28.5831 81.4898 27.4686 79.4126 28.6486C77.0286 24.2302 70.3132 25.6331 69.5696 30.7464C68.0825 30.2875 66.442 31.1791 65.8047 32.6475C61.9572 33.2375 63.881 39.6882 67.2918 37.6035C68.6372 38.4033 70.5138 37.892 71.3754 36.5546C73.1929 38.4033 76.4267 38.4426 78.2914 36.6595C79.7549 38.2984 82.5048 38.4295 84.0863 36.8955C88.9134 41.3664 92.7019 31.2971 86.4349 30.6284Z" fill="#769914"/>
<g style="mix-blend-mode:multiply">
<path d="M88.5241 31.4414C89.5626 34.8765 85.4791 37.7085 83.1541 35.2436C81.667 36.8825 78.9053 36.9612 77.3474 35.4141C75.6007 37.3414 72.3669 37.525 70.4549 35.8074C69.6524 37.2103 67.823 37.8528 66.4304 37.1448C65.9819 37.4988 65.38 37.6823 64.8135 37.6036C65.5216 38.115 66.572 38.115 67.2919 37.6036C68.6374 38.4034 70.5139 37.8921 71.3755 36.5547C73.193 38.4034 76.4268 38.4428 78.2916 36.6596C79.755 38.2985 82.5049 38.4296 84.0864 36.8956C87.3438 40.4619 92.0411 34.6667 88.5241 31.4414Z" fill="#A3C02D"/>
</g>
<g style="mix-blend-mode:multiply">
<path d="M81.313 27.2719L79.4128 28.6485C79.4128 28.6485 77.3002 29.291 76.6983 31.297C77.0052 28.8059 78.7637 26.9441 81.313 27.2719Z" fill="#A3C02D"/>
</g>
<g style="mix-blend-mode:multiply">
<path d="M88.5477 28.8453L86.6476 30.2088C86.6476 30.2088 84.5232 30.8513 83.9213 32.8573C84.2399 30.3662 85.9984 28.5044 88.5477 28.8453Z" fill="#A3C02D"/>
</g>
</g>
<mask id="mask6_12_25633" style="mask-type:luminance" maskUnits="userSpaceOnUse" x="79" y="39" width="14" height="9">
<path d="M89.5037 41.3807C89.3101 41.3807 89.1221 41.4017 88.9395 41.4436C87.4347 37.6519 81.8736 38.7467 81.6871 42.9383C77.3321 43.093 80.0926 50.0983 83.1458 46.6684C84.3626 47.7947 86.4044 47.8615 87.6802 46.81C91.7827 50.1743 94.5963 41.837 89.5037 41.3807Z" fill="white"/>
</mask>
<g mask="url(#mask6_12_25633)">
<path d="M89.3267 43.3199C89.2441 48.9053 81.7615 48.9053 81.6671 43.3199C81.7615 37.7215 89.2441 37.7215 89.3267 43.3199Z" fill="#769914"/>
<path d="M92.2889 44.4738C92.2771 48.5251 86.7301 48.5251 86.7183 44.4738C86.7301 40.4225 92.2771 40.4225 92.2889 44.4738Z" fill="#769914"/>
<path d="M83.5908 45.2473C83.6262 48.2628 79.3656 48.2628 79.4128 45.2473C79.3656 42.2317 83.6262 42.2317 83.5908 45.2473Z" fill="#769914"/>
<g style="mix-blend-mode:multiply">
<path d="M90.8963 40.029L89.244 41.209C89.244 41.209 87.4146 41.7728 86.8953 43.5035C87.1314 41.3795 88.7247 39.7144 90.8963 40.029Z" fill="#A3C02D"/>
</g>
<g style="mix-blend-mode:multiply">
<path d="M91.5455 42.376C92.1592 44.9982 89.2677 47.1615 87.3085 45.6275C86.1755 46.86 84.1455 47.1091 82.8001 46.1782C82.387 47.0435 81.3484 47.5418 80.475 47.2664C81.3248 47.8433 82.5758 47.5418 83.1423 46.6633C84.3579 47.7909 86.3997 47.8564 87.6862 46.8075C90.2118 49.3642 93.9295 45.1031 91.5455 42.376Z" fill="#A3C02D"/>
</g>
</g>
<mask id="mask7_12_25633" style="mask-type:luminance" maskUnits="userSpaceOnUse" x="79" y="49" width="15" height="8">
<path d="M91.779 51.5498C91.6209 51.5498 91.4679 51.5673 91.32 51.6023C90.4312 49.3065 87.2104 49.0207 86.0054 51.1368C84.6069 49.7169 82.0883 50.5363 81.5914 52.5463C77.8537 52.7036 80.0087 58.8331 82.8531 56.1492C83.9318 56.8887 85.5263 56.5701 86.3087 55.5002C87.2624 56.6868 89.1413 56.907 90.3038 55.9434C93.6225 58.6679 95.9015 51.9196 91.779 51.5498Z" fill="white"/>
</mask>
<g mask="url(#mask7_12_25633)">
<path d="M91.6399 53.1141C91.6163 57.6112 85.4556 57.6112 85.4438 53.1141C85.4556 48.6169 91.6163 48.6169 91.6399 53.1141Z" fill="#769914"/>
<path d="M94.0358 54.0578C94.0712 57.2963 89.4801 57.2963 89.5273 54.0578C89.4801 50.8063 94.0712 50.8063 94.0358 54.0578Z" fill="#769914"/>
<path d="M86.9899 53.4812C86.9781 57.5063 81.4783 57.5063 81.4547 53.4812C81.4783 49.4692 86.9781 49.4692 86.9899 53.4812Z" fill="#769914"/>
<path d="M83.402 54.661C83.4374 57.4274 79.5309 57.4274 79.5663 54.661C79.5309 51.9076 83.4374 51.9076 83.402 54.661Z" fill="#769914"/>
<g style="mix-blend-mode:multiply">
<path d="M95.3104 49.7051L93.2922 51.1604C93.2922 51.1604 91.0498 51.8291 90.4125 53.9531C90.7429 51.3309 92.6077 49.3511 95.3104 49.7051Z" fill="#A3C02D"/>
</g>
<g style="mix-blend-mode:multiply">
<path d="M88.2409 47.7646L87.0252 50.0591C87.0252 50.0591 85.3021 51.7898 85.5972 54.0055C84.8182 51.4882 85.6798 48.7873 88.2409 47.7646Z" fill="#A3C02D"/>
</g>
<g style="mix-blend-mode:multiply">
<path d="M93.7997 52.9565C93.5164 54.6348 91.51 55.4739 90.2944 54.4119C89.2086 55.487 87.3203 55.4477 86.2699 54.3594C85.5853 55.5001 84.0156 55.9721 82.8826 55.3428C81.9975 56.6539 79.9321 56.195 79.5662 54.6085C79.46 56.4965 81.726 57.5323 82.8472 56.1557C83.933 56.8899 85.5263 56.5752 86.3053 55.5001C87.2612 56.6932 89.1378 56.903 90.3062 55.9459C92.0411 57.7421 94.9209 55.3165 93.7997 52.9565Z" fill="#A3C02D"/>
</g>
</g>
<mask id="mask8_12_25633" style="mask-type:luminance" maskUnits="userSpaceOnUse" x="61" y="49" width="14" height="7">
<path d="M72.0424 51.0187C71.9015 51.0187 71.765 51.034 71.6328 51.0646C70.8385 49.0153 67.9624 48.7597 66.886 50.649C65.6373 49.3812 63.3878 50.1141 62.9441 51.9077C59.6052 52.0493 61.5314 57.5219 64.07 55.1265C65.0342 55.7873 66.4588 55.5027 67.1563 54.5469C68.0096 55.6063 69.6867 55.803 70.7241 54.9416C73.6888 57.375 75.7246 51.3478 72.0424 51.0187Z" fill="white"/>
</mask>
<g mask="url(#mask8_12_25633)">
<path d="M71.9183 52.4192C71.8947 56.4312 66.3949 56.4312 66.3831 52.4192C66.3949 48.3941 71.9065 48.3941 71.9183 52.4192Z" fill="#769914"/>
<path d="M74.0546 53.2582C74.09 56.1558 69.9946 56.1558 70.03 53.2582C69.9946 50.3475 74.09 50.3475 74.0546 53.2582Z" fill="#769914"/>
<path d="M67.764 52.7468C67.7522 56.3393 62.8425 56.3393 62.8307 52.7468C62.8425 49.1544 67.7522 49.1544 67.764 52.7468Z" fill="#769914"/>
<path d="M64.5538 53.7959C64.5892 56.2608 61.1076 56.2608 61.1312 53.7959C61.1076 51.3441 64.5892 51.331 64.5538 53.7959Z" fill="#769914"/>
<g style="mix-blend-mode:multiply">
<path d="M74.3613 49.3379L72.7562 50.4917C72.7562 50.4917 70.9741 51.0292 70.4666 52.7206C70.7027 50.6621 72.2487 49.0363 74.3613 49.3379Z" fill="#A3C02D"/>
</g>
<g style="mix-blend-mode:multiply">
<path d="M68.6373 47.8301L67.6224 49.6263C67.6224 49.6263 66.2179 50.9505 66.3949 52.7205C65.8284 50.7407 66.6074 48.5512 68.6373 47.8301Z" fill="#A3C02D"/>
</g>
<g style="mix-blend-mode:multiply">
<path d="M73.7476 52.0781C73.8303 53.8744 71.8003 55.015 70.5493 53.9137C69.5697 54.8577 67.8938 54.8052 66.9614 53.8219C66.3359 54.8446 64.9314 55.251 63.9282 54.6741C63.3381 55.5264 62.0163 55.5788 61.379 54.779C61.8865 55.8148 63.3617 56.0115 64.0699 55.133C65.0376 55.7886 66.4539 55.5001 67.162 54.543C68.0118 55.605 69.6877 55.8017 70.7263 54.9364C72.3668 56.6277 74.9869 54.1628 73.7476 52.0781Z" fill="#A3C02D"/>
</g>
</g>
<mask id="mask9_12_25633" style="mask-type:luminance" maskUnits="userSpaceOnUse" x="58" y="39" width="17" height="10">
<path d="M72.2182 42.1886C72.0891 42.1903 71.9629 42.2021 71.8393 42.224C70.9105 38.1189 65.3009 38.3929 64.7096 42.5858C63.4208 41.6759 61.5242 42.4219 61.0167 43.9809C59.7515 43.088 57.9588 44.2024 58.0013 45.8833C57.9328 48.0165 60.6379 48.9054 61.6422 47.1367C62.8319 48.4937 65.1499 47.9575 65.7612 46.2111C66.8399 47.4553 68.8416 47.7346 70.1752 46.7932C73.7489 50.935 77.3639 42.8349 72.2182 42.1886Z" fill="white"/>
</mask>
<g mask="url(#mask9_12_25633)">
<path d="M71.9656 43.2938C71.942 48.6169 64.6719 48.6169 64.6483 43.2938C64.6719 37.9838 71.9538 37.9838 71.9656 43.2938Z" fill="#769914"/>
<path d="M65.9819 45.0506C65.9701 48.8003 60.8479 48.8003 60.8243 45.0506C60.8479 41.3139 65.9701 41.3139 65.9819 45.0506Z" fill="#769914"/>
<path d="M74.7981 45.0506C74.7863 48.8003 69.6524 48.8003 69.6406 45.0506C69.6524 41.3139 74.7863 41.3139 74.7981 45.0506Z" fill="#769914"/>
<path d="M61.9927 45.8899C62.0281 48.7612 57.9682 48.7612 58.0036 45.8899C57.9682 43.0054 62.0281 43.0054 61.9927 45.8899Z" fill="#769914"/>
<g style="mix-blend-mode:multiply">
<path d="M74.1254 40.711L72.5557 41.8385C72.5557 41.8385 70.8089 42.3761 70.3015 44.0412C70.5375 42.009 72.06 40.4094 74.1254 40.711Z" fill="#A3C02D"/>
</g>
<g style="mix-blend-mode:multiply">
<path d="M63.3854 40.842L62.2406 42.494C62.2406 42.494 60.8243 43.1103 60.7653 45.3785C60.3876 43.3856 61.3436 41.314 63.3854 40.842Z" fill="#A3C02D"/>
</g>
<g style="mix-blend-mode:multiply">
<path d="M74.09 43.084C74.3024 45.5751 71.3165 47.096 69.7468 45.326C68.5784 46.4929 66.5602 46.5847 65.3092 45.5489C65.0259 46.9518 63.6214 47.9744 62.3114 47.6467C63.5742 48.3547 65.2501 47.6204 65.7576 46.2044C66.8434 47.45 68.838 47.7384 70.1717 46.7944C72.3551 49.9018 76.5094 45.9684 74.09 43.084Z" fill="#A3C02D"/>
</g>
</g>
<path d="M74.2789 74.0001C74.2789 74.0001 74.1372 71.758 73.0869 70.7354C73.0869 70.7354 74.5739 72.0989 74.6801 72.3743C74.6801 72.3743 74.4559 70.2372 74.031 69.6734C74.031 69.6734 74.9752 70.5912 75.164 71.0894C75.164 71.0894 74.869 69.5423 74.5857 69.0309C74.5857 69.0309 75.4355 70.342 75.5653 71.2467C75.5653 71.2467 75.7069 68.7818 75.4237 67.8247C75.4237 67.8247 76.1908 70.5125 76.1908 71.7056C76.1908 71.7056 76.2262 69.4112 76.8281 68.5458C76.8281 68.5458 76.7101 70.7747 76.8045 71.5876C76.8045 71.5876 77.0996 70.3945 77.0878 69.6603C77.0878 69.6603 77.4655 71.168 77.3474 71.9023C77.3474 71.9023 77.8785 70.5518 77.6543 68.7032C77.6543 68.7032 78.1028 70.1454 78.0674 71.3516C78.0674 71.3516 78.4332 70.2896 78.9171 69.6865C78.9171 69.6865 78.268 71.6532 78.2562 72.2825C78.2562 72.2825 78.5159 71.5089 79.0115 71.168C79.0115 71.168 78.3742 72.4792 78.2326 73.056C78.2326 73.056 78.7755 72.2432 79.6489 71.9285C79.6489 71.9285 78.6811 73.2658 78.6575 74.0001H74.2789Z" fill="#769914"/>
<path d="M77.5481 73.9869C77.5481 73.9869 77.4537 72.4267 76.7219 71.7056C76.7219 71.7056 77.7605 72.6627 77.8313 72.8593C77.8313 72.8593 77.6779 71.3647 77.3828 70.9582C77.3828 70.9582 78.032 71.6138 78.1736 71.9547C78.1736 71.9547 77.9612 70.8796 77.7605 70.5256C77.7605 70.5256 78.3624 71.4302 78.445 72.0727C78.445 72.0727 78.5513 70.342 78.3506 69.6733C78.3506 69.6733 78.8935 71.5482 78.8935 72.3873C78.8935 72.3873 78.9171 70.7878 79.342 70.1716C79.342 70.1716 79.2476 71.7318 79.3184 72.3087C79.3184 72.3087 79.5308 71.4696 79.519 70.9582C79.519 70.9582 79.7787 72.0202 79.7079 72.5316C79.7079 72.5316 80.0737 71.5876 79.9085 70.2896C79.9085 70.2896 80.2272 71.2991 80.2036 72.1382C80.2036 72.1382 80.4632 71.404 80.8055 70.9845C80.8055 70.9845 80.3452 72.3611 80.3334 72.7938C80.3334 72.7938 80.5222 72.2562 80.8645 72.0071C80.8645 72.0071 80.416 72.938 80.3216 73.3313C80.3216 73.3313 80.6993 72.7676 81.313 72.5447C81.313 72.5447 80.6284 73.4756 80.6166 73.9869H77.5481Z" fill="#769914"/>
<path d="M49.8958 35.3352L49.0932 73.6328H52.9289L50.5331 34.4436L49.8958 35.3352Z" fill="#331C10"/>
<path d="M55.006 34.9812L50.533 41.8908L50.6983 43.4903L55.006 34.9812Z" fill="#331C10"/>
<path d="M45.9066 35.1516L50.3796 43.8443L50.0609 45.9683L45.9066 34.7976V35.1516Z" fill="#331C10"/>
<path d="M42.5548 44.0281L50.533 54.6612V56.6148L45.104 49.5216L38.4004 45.2605L44.9506 48.6301L42.5548 44.0281Z" fill="#331C10"/>
<path d="M58.5113 45.4438L51.0169 52.7074V54.8445L58.5113 45.4438Z" fill="#331C10"/>
<path d="M53.8848 50.754L54.2389 50.5704L62.3942 46.2175L54.6756 49.574L53.8848 50.754Z" fill="#331C10"/>
<path d="M51.1703 60.1546L55.4781 56.4311L58.4051 53.1008L56.1273 56.7851L63.0551 53.1402L56.4459 57.3226L51.1703 62.4622L50.8517 59.9842" fill="#331C10"/>
<path d="M38.7308 53.7302L44.6319 59.2762L50.3796 62.6458L50.533 61.0462L45.104 58.5682L43.5107 52.3535L44.3133 57.8471L38.7308 53.7302Z" fill="#331C10"/>
<path d="M45.9066 35.1516L46.3786 36.0825L45.9066 34.7976V35.1516Z" fill="#331C10"/>
<path d="M63.0551 53.1401L56.1273 56.785L58.4051 53.1007L55.4781 56.431L52.0555 59.3941L51.7251 53.9399L54.5576 50.3999L62.3942 46.2174L55.5017 49.2199L58.5113 45.4438L51.6188 52.1305L51.0405 42.7954L55.0061 34.9812L50.9461 41.2483L50.533 34.4436L49.8957 35.3352L49.7423 42.6118L46.3787 36.0825C49.6833 45.1161 49.9547 43.2936 49.518 53.3105L42.5548 44.0278L44.9506 48.6299L38.4004 45.2603L45.104 49.5214L49.4826 55.2379L49.3764 60.5085L45.104 58.5681L43.5107 52.3534L44.3133 57.847L38.7309 53.7301L44.6319 59.2761L49.341 62.0294L49.0932 73.6328H52.9289L52.1853 61.4788L56.4459 57.3225L63.0551 53.1401Z" fill="#331C10"/>
<g style="mix-blend-mode:multiply">
<path d="M45.9066 35.1516L46.3787 36.0825L45.9066 34.7976V35.1516Z" fill="#331C10"/>
<path d="M52.1853 61.4788L56.4459 57.3226L63.0551 53.1401L55.7968 57.3226L51.6542 61.0462L50.6392 73.6328H52.9288L52.1853 61.4788Z" fill="#331C10"/>
<path d="M51.0169 52.7075L51.2057 59.7744L52.0319 58.9352L51.725 53.9399L54.5575 50.3999L62.3942 46.2174L55.5017 49.2199L58.5113 45.4439L51.6188 52.1306L51.0405 42.7954L55.006 34.9812L50.6746 42.5857L51.0169 52.7075Z" fill="#331C10"/>
</g>
<mask id="mask10_12_25633" style="mask-type:luminance" maskUnits="userSpaceOnUse" x="37" y="26" width="27" height="13">
<path d="M60.4375 30.6244C60.022 30.6244 59.6266 30.7123 59.2596 30.867C58.3024 28.5817 55.4947 27.4646 53.414 28.646C51.0335 24.2236 44.3133 25.6317 43.5745 30.7411C42.0886 30.2848 40.4434 31.1725 39.8049 32.6462C35.9586 33.2427 37.8847 39.6921 41.2896 37.6022C42.6374 38.4033 44.5081 37.8932 45.3791 36.5572C47.1966 38.3993 50.4257 38.4478 52.2881 36.6542C53.7503 38.3023 56.5073 38.4269 58.0865 36.902C62.9171 41.3611 66.7044 31.3023 60.4375 30.6244Z" fill="white"/>
</mask>
<g mask="url(#mask10_12_25633)">
<path d="M60.4349 30.6284C60.0219 30.6284 59.6206 30.7071 59.2547 30.8644C58.2987 28.5831 55.4898 27.4686 53.4126 28.6486C51.0286 24.2302 44.3132 25.6331 43.5696 30.7464C42.0825 30.2875 40.442 31.1791 39.8047 32.6475C35.9572 33.2375 37.881 39.6882 41.2918 37.6035C42.6372 38.4033 44.5138 37.892 45.3754 36.5546C47.1929 38.4033 50.4267 38.4426 52.2914 36.6595C53.7549 38.2984 56.5048 38.4295 58.0863 36.8955C62.9134 41.3664 66.7019 31.2971 60.4349 30.6284Z" fill="#769914"/>
<g style="mix-blend-mode:multiply">
<path d="M62.5241 31.4414C63.5626 34.8765 59.4791 37.7085 57.1541 35.2436C55.667 36.8825 52.9053 36.9612 51.3474 35.4141C49.6007 37.3414 46.3669 37.525 44.4549 35.8074C43.6524 37.2103 41.823 37.8528 40.4304 37.1448C39.9819 37.4988 39.38 37.6823 38.8135 37.6036C39.5216 38.115 40.572 38.115 41.2919 37.6036C42.6374 38.4034 44.5139 37.8921 45.3755 36.5547C47.193 38.4034 50.4268 38.4428 52.2916 36.6596C53.755 38.2985 56.5049 38.4296 58.0864 36.8956C61.3438 40.4619 66.0411 34.6667 62.5241 31.4414Z" fill="#A3C02D"/>
</g>
<g style="mix-blend-mode:multiply">
<path d="M55.313 27.2719L53.4128 28.6485C53.4128 28.6485 51.3002 29.291 50.6983 31.297C51.0052 28.8059 52.7637 26.9441 55.313 27.2719Z" fill="#A3C02D"/>
</g>
<g style="mix-blend-mode:multiply">
<path d="M62.5477 28.8453L60.6476 30.2088C60.6476 30.2088 58.5232 30.8513 57.9213 32.8573C58.2399 30.3662 59.9984 28.5044 62.5477 28.8453Z" fill="#A3C02D"/>
</g>
</g>
<mask id="mask11_12_25633" style="mask-type:luminance" maskUnits="userSpaceOnUse" x="53" y="39" width="14" height="9">
<path d="M63.5037 41.3807C63.3101 41.3807 63.1221 41.4017 62.9395 41.4436C61.4347 37.6519 55.8736 38.7467 55.6871 42.9383C51.3321 43.093 54.0926 50.0983 57.1458 46.6684C58.3626 47.7947 60.4044 47.8615 61.6802 46.81C65.7827 50.1743 68.5963 41.837 63.5037 41.3807Z" fill="white"/>
</mask>
<g mask="url(#mask11_12_25633)">
<path d="M63.3267 43.3199C63.2441 48.9053 55.7615 48.9053 55.6671 43.3199C55.7615 37.7215 63.2441 37.7215 63.3267 43.3199Z" fill="#769914"/>
<path d="M66.2889 44.4738C66.2771 48.5251 60.7301 48.5251 60.7183 44.4738C60.7301 40.4225 66.2771 40.4225 66.2889 44.4738Z" fill="#769914"/>
<path d="M57.5908 45.2473C57.6262 48.2628 53.3656 48.2628 53.4128 45.2473C53.3656 42.2317 57.6262 42.2317 57.5908 45.2473Z" fill="#769914"/>
<g style="mix-blend-mode:multiply">
<path d="M64.8963 40.029L63.244 41.209C63.244 41.209 61.4146 41.7728 60.8953 43.5035C61.1314 41.3795 62.7247 39.7144 64.8963 40.029Z" fill="#A3C02D"/>
</g>
<g style="mix-blend-mode:multiply">
<path d="M65.5455 42.376C66.1592 44.9982 63.2677 47.1615 61.3085 45.6275C60.1755 46.86 58.1455 47.1091 56.8001 46.1782C56.387 47.0435 55.3484 47.5418 54.475 47.2664C55.3248 47.8433 56.5758 47.5418 57.1423 46.6633C58.3579 47.7909 60.3997 47.8564 61.6862 46.8075C64.2118 49.3642 67.9295 45.1031 65.5455 42.376Z" fill="#A3C02D"/>
</g>
</g>
<mask id="mask12_12_25633" style="mask-type:luminance" maskUnits="userSpaceOnUse" x="53" y="49" width="15" height="8">
<path d="M65.779 51.5498C65.6209 51.5498 65.4679 51.5673 65.32 51.6023C64.4312 49.3065 61.2104 49.0207 60.0054 51.1368C58.6069 49.7169 56.0883 50.5363 55.5914 52.5463C51.8537 52.7036 54.0087 58.8331 56.8531 56.1492C57.9318 56.8887 59.5263 56.5701 60.3087 55.5002C61.2624 56.6868 63.1413 56.907 64.3038 55.9434C67.6225 58.6679 69.9015 51.9196 65.779 51.5498Z" fill="white"/>
</mask>
<g mask="url(#mask12_12_25633)">
<path d="M65.6399 53.1141C65.6163 57.6112 59.4556 57.6112 59.4438 53.1141C59.4556 48.6169 65.6163 48.6169 65.6399 53.1141Z" fill="#769914"/>
<path d="M68.0358 54.0578C68.0712 57.2963 63.4801 57.2963 63.5273 54.0578C63.4801 50.8063 68.0712 50.8063 68.0358 54.0578Z" fill="#769914"/>
<path d="M60.9899 53.4812C60.9781 57.5063 55.4783 57.5063 55.4547 53.4812C55.4783 49.4692 60.9781 49.4692 60.9899 53.4812Z" fill="#769914"/>
<path d="M57.402 54.661C57.4374 57.4274 53.5309 57.4274 53.5663 54.661C53.5309 51.9076 57.4374 51.9076 57.402 54.661Z" fill="#769914"/>
<g style="mix-blend-mode:multiply">
<path d="M69.3104 49.7051L67.2922 51.1604C67.2922 51.1604 65.0498 51.8291 64.4125 53.9531C64.7429 51.3309 66.6077 49.3511 69.3104 49.7051Z" fill="#A3C02D"/>
</g>
<g style="mix-blend-mode:multiply">
<path d="M62.2409 47.7646L61.0252 50.0591C61.0252 50.0591 59.3021 51.7898 59.5972 54.0055C58.8182 51.4882 59.6798 48.7873 62.2409 47.7646Z" fill="#A3C02D"/>
</g>
<g style="mix-blend-mode:multiply">
<path d="M67.7997 52.9565C67.5164 54.6348 65.51 55.4739 64.2944 54.4119C63.2086 55.487 61.3203 55.4477 60.2699 54.3594C59.5853 55.5001 58.0156 55.9721 56.8826 55.3428C55.9975 56.6539 53.9321 56.195 53.5662 54.6085C53.46 56.4965 55.726 57.5323 56.8472 56.1557C57.933 56.8899 59.5263 56.5752 60.3053 55.5001C61.2612 56.6932 63.1378 56.903 64.3062 55.9459C66.0411 57.7421 68.9209 55.3165 67.7997 52.9565Z" fill="#A3C02D"/>
</g>
</g>
<mask id="mask13_12_25633" style="mask-type:luminance" maskUnits="userSpaceOnUse" x="35" y="49" width="14" height="7">
<path d="M46.0424 51.0187C45.9015 51.0187 45.765 51.034 45.6328 51.0646C44.8385 49.0153 41.9624 48.7597 40.886 50.649C39.6373 49.3812 37.3878 50.1141 36.9441 51.9077C33.6052 52.0493 35.5314 57.5219 38.07 55.1265C39.0342 55.7873 40.4588 55.5027 41.1563 54.5469C42.0096 55.6063 43.6867 55.803 44.7241 54.9416C47.6888 57.375 49.7246 51.3478 46.0424 51.0187Z" fill="white"/>
</mask>
<g mask="url(#mask13_12_25633)">
<path d="M45.9183 52.4192C45.8947 56.4312 40.3949 56.4312 40.3831 52.4192C40.3949 48.3941 45.9065 48.3941 45.9183 52.4192Z" fill="#769914"/>
<path d="M48.0546 53.2582C48.09 56.1558 43.9946 56.1558 44.03 53.2582C43.9946 50.3475 48.09 50.3475 48.0546 53.2582Z" fill="#769914"/>
<path d="M41.764 52.7468C41.7522 56.3393 36.8425 56.3393 36.8307 52.7468C36.8425 49.1544 41.7522 49.1544 41.764 52.7468Z" fill="#769914"/>
<path d="M38.5538 53.7959C38.5892 56.2608 35.1076 56.2608 35.1312 53.7959C35.1076 51.3441 38.5892 51.331 38.5538 53.7959Z" fill="#769914"/>
<g style="mix-blend-mode:multiply">
<path d="M48.3613 49.3379L46.7562 50.4917C46.7562 50.4917 44.9741 51.0292 44.4666 52.7206C44.7027 50.6621 46.2487 49.0363 48.3613 49.3379Z" fill="#A3C02D"/>
</g>
<g style="mix-blend-mode:multiply">
<path d="M42.6373 47.8301L41.6224 49.6263C41.6224 49.6263 40.2179 50.9505 40.3949 52.7205C39.8284 50.7407 40.6074 48.5512 42.6373 47.8301Z" fill="#A3C02D"/>
</g>
<g style="mix-blend-mode:multiply">
<path d="M47.7476 52.0781C47.8303 53.8744 45.8003 55.015 44.5493 53.9137C43.5697 54.8577 41.8938 54.8052 40.9614 53.8219C40.3359 54.8446 38.9314 55.251 37.9282 54.6741C37.3381 55.5264 36.0163 55.5788 35.379 54.779C35.8865 55.8148 37.3617 56.0115 38.0699 55.133C39.0376 55.7886 40.4539 55.5001 41.162 54.543C42.0118 55.605 43.6877 55.8017 44.7263 54.9364C46.3668 56.6277 48.9869 54.1628 47.7476 52.0781Z" fill="#A3C02D"/>
</g>
</g>
<mask id="mask14_12_25633" style="mask-type:luminance" maskUnits="userSpaceOnUse" x="32" y="39" width="17" height="10">
<path d="M46.2182 42.1886C46.0891 42.1903 45.9629 42.2021 45.8393 42.224C44.9105 38.1189 39.3009 38.3929 38.7096 42.5858C37.4208 41.6759 35.5242 42.4219 35.0167 43.9809C33.7515 43.088 31.9588 44.2024 32.0013 45.8833C31.9328 48.0165 34.6379 48.9054 35.6422 47.1367C36.8319 48.4937 39.1499 47.9575 39.7612 46.2111C40.8399 47.4553 42.8416 47.7346 44.1752 46.7932C47.7489 50.935 51.3639 42.8349 46.2182 42.1886Z" fill="white"/>
</mask>
<g mask="url(#mask14_12_25633)">
<path d="M45.9656 43.2938C45.942 48.6169 38.6719 48.6169 38.6483 43.2938C38.6719 37.9838 45.9538 37.9838 45.9656 43.2938Z" fill="#769914"/>
<path d="M39.9819 45.0506C39.9701 48.8003 34.8479 48.8003 34.8243 45.0506C34.8479 41.3139 39.9701 41.3139 39.9819 45.0506Z" fill="#769914"/>
<path d="M48.7981 45.0506C48.7863 48.8003 43.6524 48.8003 43.6406 45.0506C43.6524 41.3139 48.7863 41.3139 48.7981 45.0506Z" fill="#769914"/>
<path d="M35.9927 45.8899C36.0281 48.7612 31.9682 48.7612 32.0036 45.8899C31.9682 43.0054 36.0281 43.0054 35.9927 45.8899Z" fill="#769914"/>
<g style="mix-blend-mode:multiply">
<path d="M48.1254 40.711L46.5557 41.8385C46.5557 41.8385 44.8089 42.3761 44.3015 44.0412C44.5375 42.009 46.06 40.4094 48.1254 40.711Z" fill="#A3C02D"/>
</g>
<g style="mix-blend-mode:multiply">
<path d="M37.3854 40.842L36.2406 42.494C36.2406 42.494 34.8243 43.1103 34.7653 45.3785C34.3876 43.3856 35.3436 41.314 37.3854 40.842Z" fill="#A3C02D"/>
</g>
<g style="mix-blend-mode:multiply">
<path d="M48.09 43.084C48.3024 45.5751 45.3165 47.096 43.7468 45.326C42.5784 46.4929 40.5602 46.5847 39.3092 45.5489C39.0259 46.9518 37.6214 47.9744 36.3114 47.6467C37.5742 48.3547 39.2501 47.6204 39.7576 46.2044C40.8434 47.45 42.838 47.7384 44.1717 46.7944C46.3551 49.9018 50.5094 45.9684 48.09 43.084Z" fill="#A3C02D"/>
</g>
</g>
<path d="M48.2789 74.0001C48.2789 74.0001 48.1372 71.758 47.0869 70.7354C47.0869 70.7354 48.5739 72.0989 48.6801 72.3743C48.6801 72.3743 48.4559 70.2372 48.031 69.6734C48.031 69.6734 48.9752 70.5912 49.164 71.0894C49.164 71.0894 48.869 69.5423 48.5857 69.0309C48.5857 69.0309 49.4355 70.342 49.5653 71.2467C49.5653 71.2467 49.7069 68.7818 49.4237 67.8247C49.4237 67.8247 50.1908 70.5125 50.1908 71.7056C50.1908 71.7056 50.2262 69.4112 50.8281 68.5458C50.8281 68.5458 50.7101 70.7747 50.8045 71.5876C50.8045 71.5876 51.0996 70.3945 51.0878 69.6603C51.0878 69.6603 51.4655 71.168 51.3474 71.9023C51.3474 71.9023 51.8785 70.5518 51.6543 68.7032C51.6543 68.7032 52.1028 70.1454 52.0674 71.3516C52.0674 71.3516 52.4332 70.2896 52.9171 69.6865C52.9171 69.6865 52.268 71.6532 52.2562 72.2825C52.2562 72.2825 52.5159 71.5089 53.0115 71.168C53.0115 71.168 52.3742 72.4792 52.2326 73.056C52.2326 73.056 52.7755 72.2432 53.6489 71.9285C53.6489 71.9285 52.6811 73.2658 52.6575 74.0001H48.2789Z" fill="#769914"/>
<path d="M51.5481 73.9869C51.5481 73.9869 51.4537 72.4267 50.7219 71.7056C50.7219 71.7056 51.7605 72.6627 51.8313 72.8593C51.8313 72.8593 51.6779 71.3647 51.3828 70.9582C51.3828 70.9582 52.032 71.6138 52.1736 71.9547C52.1736 71.9547 51.9612 70.8796 51.7605 70.5256C51.7605 70.5256 52.3624 71.4302 52.445 72.0727C52.445 72.0727 52.5513 70.342 52.3506 69.6733C52.3506 69.6733 52.8935 71.5482 52.8935 72.3873C52.8935 72.3873 52.9171 70.7878 53.342 70.1716C53.342 70.1716 53.2476 71.7318 53.3184 72.3087C53.3184 72.3087 53.5308 71.4696 53.519 70.9582C53.519 70.9582 53.7787 72.0202 53.7079 72.5316C53.7079 72.5316 54.0737 71.5876 53.9085 70.2896C53.9085 70.2896 54.2272 71.2991 54.2036 72.1382C54.2036 72.1382 54.4632 71.404 54.8055 70.9845C54.8055 70.9845 54.3452 72.3611 54.3334 72.7938C54.3334 72.7938 54.5222 72.2562 54.8645 72.0071C54.8645 72.0071 54.416 72.938 54.3216 73.3313C54.3216 73.3313 54.6993 72.7676 55.313 72.5447C55.313 72.5447 54.6284 73.4756 54.6166 73.9869H51.5481Z" fill="#769914"/>
<path d="M42.8958 53.3352L42.0932 91.6328H45.9289L43.5331 52.4436L42.8958 53.3352Z" fill="#331C10"/>
<path d="M48.006 52.9812L43.533 59.8908L43.6983 61.4903L48.006 52.9812Z" fill="#331C10"/>
<path d="M38.9066 53.1516L43.3796 61.8443L43.0609 63.9683L38.9066 52.7976V53.1516Z" fill="#331C10"/>
<path d="M35.5548 62.0281L43.533 72.6612V74.6148L38.104 67.5216L31.4004 63.2605L37.9506 66.6301L35.5548 62.0281Z" fill="#331C10"/>
<path d="M51.5113 63.4438L44.0169 70.7074V72.8445L51.5113 63.4438Z" fill="#331C10"/>
<path d="M46.8848 68.754L47.2389 68.5704L55.3942 64.2175L47.6756 67.574L46.8848 68.754Z" fill="#331C10"/>
<path d="M44.1703 78.1546L48.4781 74.4311L51.4051 71.1008L49.1273 74.7851L56.0551 71.1402L49.4459 75.3226L44.1703 80.4622L43.8517 77.9842" fill="#331C10"/>
<path d="M31.7308 71.7302L37.6319 77.2762L43.3796 80.6458L43.533 79.0462L38.104 76.5682L36.5107 70.3535L37.3133 75.8471L31.7308 71.7302Z" fill="#331C10"/>
<path d="M38.9066 53.1516L39.3786 54.0825L38.9066 52.7976V53.1516Z" fill="#331C10"/>
<path d="M56.0551 71.1401L49.1273 74.785L51.4051 71.1007L48.4781 74.431L45.0555 77.3941L44.7251 71.9399L47.5576 68.3999L55.3942 64.2174L48.5017 67.2199L51.5113 63.4438L44.6188 70.1305L44.0405 60.7954L48.0061 52.9812L43.9461 59.2483L43.533 52.4436L42.8957 53.3352L42.7423 60.6118L39.3787 54.0825C42.6833 63.1161 42.9547 61.2936 42.518 71.3105L35.5548 62.0278L37.9506 66.6299L31.4004 63.2603L38.104 67.5214L42.4826 73.2379L42.3764 78.5085L38.104 76.5681L36.5107 70.3534L37.3133 75.847L31.7309 71.7301L37.6319 77.2761L42.341 80.0294L42.0932 91.6328H45.9289L45.1853 79.4788L49.4459 75.3225L56.0551 71.1401Z" fill="#331C10"/>
<g style="mix-blend-mode:multiply">
<path d="M38.9066 53.1516L39.3787 54.0825L38.9066 52.7976V53.1516Z" fill="#331C10"/>
<path d="M45.1853 79.4788L49.4459 75.3226L56.0551 71.1401L48.7968 75.3226L44.6542 79.0462L43.6392 91.6328H45.9288L45.1853 79.4788Z" fill="#331C10"/>
<path d="M44.0169 70.7075L44.2057 77.7744L45.0319 76.9352L44.725 71.9399L47.5575 68.3999L55.3942 64.2174L48.5017 67.2199L51.5113 63.4439L44.6188 70.1306L44.0405 60.7954L48.006 52.9812L43.6746 60.5857L44.0169 70.7075Z" fill="#331C10"/>
</g>
<mask id="mask15_12_25633" style="mask-type:luminance" maskUnits="userSpaceOnUse" x="30" y="44" width="27" height="13">
<path d="M53.4375 48.6244C53.022 48.6244 52.6266 48.7123 52.2596 48.867C51.3024 46.5817 48.4947 45.4646 46.414 46.646C44.0335 42.2236 37.3133 43.6317 36.5745 48.7411C35.0886 48.2848 33.4434 49.1725 32.8049 50.6462C28.9586 51.2427 30.8847 57.6921 34.2896 55.6022C35.6374 56.4033 37.5081 55.8932 38.3791 54.5572C40.1966 56.3993 43.4257 56.4478 45.2881 54.6542C46.7503 56.3023 49.5073 56.4269 51.0865 54.902C55.9171 59.3611 59.7044 49.3023 53.4375 48.6244Z" fill="white"/>
</mask>
<g mask="url(#mask15_12_25633)">
<path d="M53.4349 48.6284C53.0219 48.6284 52.6206 48.7071 52.2547 48.8644C51.2987 46.5831 48.4898 45.4686 46.4126 46.6486C44.0286 42.2302 37.3132 43.6331 36.5696 48.7464C35.0825 48.2875 33.442 49.1791 32.8047 50.6475C28.9572 51.2375 30.881 57.6882 34.2918 55.6035C35.6372 56.4033 37.5138 55.892 38.3754 54.5546C40.1929 56.4033 43.4267 56.4426 45.2914 54.6595C46.7549 56.2984 49.5048 56.4295 51.0863 54.8955C55.9134 59.3664 59.7019 49.2971 53.4349 48.6284Z" fill="#769914"/>
<g style="mix-blend-mode:multiply">
<path d="M55.5241 49.4414C56.5626 52.8765 52.4791 55.7085 50.1541 53.2436C48.667 54.8825 45.9053 54.9612 44.3474 53.4141C42.6007 55.3414 39.3669 55.525 37.4549 53.8074C36.6524 55.2103 34.823 55.8528 33.4304 55.1448C32.9819 55.4988 32.38 55.6823 31.8135 55.6036C32.5216 56.115 33.572 56.115 34.2919 55.6036C35.6374 56.4034 37.5139 55.8921 38.3755 54.5547C40.193 56.4034 43.4268 56.4428 45.2916 54.6596C46.755 56.2985 49.5049 56.4296 51.0864 54.8956C54.3438 58.4619 59.0411 52.6667 55.5241 49.4414Z" fill="#A3C02D"/>
</g>
<g style="mix-blend-mode:multiply">
<path d="M48.313 45.2719L46.4128 46.6485C46.4128 46.6485 44.3002 47.291 43.6983 49.297C44.0052 46.8059 45.7637 44.9441 48.313 45.2719Z" fill="#A3C02D"/>
</g>
<g style="mix-blend-mode:multiply">
<path d="M55.5477 46.8453L53.6476 48.2088C53.6476 48.2088 51.5232 48.8513 50.9213 50.8573C51.2399 48.3662 52.9984 46.5044 55.5477 46.8453Z" fill="#A3C02D"/>
</g>
</g>
<mask id="mask16_12_25633" style="mask-type:luminance" maskUnits="userSpaceOnUse" x="46" y="57" width="14" height="9">
<path d="M56.5037 59.3807C56.3101 59.3807 56.1221 59.4017 55.9395 59.4436C54.4347 55.6519 48.8736 56.7467 48.6871 60.9383C44.3321 61.093 47.0926 68.0983 50.1458 64.6684C51.3626 65.7947 53.4044 65.8615 54.6802 64.81C58.7827 68.1743 61.5963 59.837 56.5037 59.3807Z" fill="white"/>
</mask>
<g mask="url(#mask16_12_25633)">
<path d="M56.3267 61.3199C56.2441 66.9053 48.7615 66.9053 48.6671 61.3199C48.7615 55.7215 56.2441 55.7215 56.3267 61.3199Z" fill="#769914"/>
<path d="M59.2889 62.4738C59.2771 66.5251 53.7301 66.5251 53.7183 62.4738C53.7301 58.4225 59.2771 58.4225 59.2889 62.4738Z" fill="#769914"/>
<path d="M50.5908 63.2473C50.6262 66.2628 46.3656 66.2628 46.4128 63.2473C46.3656 60.2317 50.6262 60.2317 50.5908 63.2473Z" fill="#769914"/>
<g style="mix-blend-mode:multiply">
<path d="M57.8963 58.029L56.244 59.209C56.244 59.209 54.4146 59.7728 53.8953 61.5035C54.1314 59.3795 55.7247 57.7144 57.8963 58.029Z" fill="#A3C02D"/>
</g>
<g style="mix-blend-mode:multiply">
<path d="M58.5455 60.376C59.1592 62.9982 56.2677 65.1615 54.3085 63.6275C53.1755 64.86 51.1455 65.1091 49.8001 64.1782C49.387 65.0435 48.3484 65.5418 47.475 65.2664C48.3248 65.8433 49.5758 65.5418 50.1423 64.6633C51.3579 65.7909 53.3997 65.8564 54.6862 64.8075C57.2118 67.3642 60.9295 63.1031 58.5455 60.376Z" fill="#A3C02D"/>
</g>
</g>
<mask id="mask17_12_25633" style="mask-type:luminance" maskUnits="userSpaceOnUse" x="46" y="67" width="15" height="8">
<path d="M58.779 69.5498C58.6209 69.5498 58.4679 69.5673 58.32 69.6023C57.4312 67.3065 54.2104 67.0207 53.0054 69.1368C51.6069 67.7169 49.0883 68.5363 48.5914 70.5463C44.8537 70.7036 47.0087 76.8331 49.8531 74.1492C50.9318 74.8887 52.5263 74.5701 53.3087 73.5002C54.2624 74.6868 56.1413 74.907 57.3038 73.9434C60.6225 76.6679 62.9015 69.9196 58.779 69.5498Z" fill="white"/>
</mask>
<g mask="url(#mask17_12_25633)">
<path d="M58.6399 71.1141C58.6163 75.6112 52.4556 75.6112 52.4438 71.1141C52.4556 66.6169 58.6163 66.6169 58.6399 71.1141Z" fill="#769914"/>
<path d="M61.0358 72.0578C61.0712 75.2963 56.4801 75.2963 56.5273 72.0578C56.4801 68.8063 61.0712 68.8063 61.0358 72.0578Z" fill="#769914"/>
<path d="M53.9899 71.4812C53.9781 75.5063 48.4783 75.5063 48.4547 71.4812C48.4783 67.4692 53.9781 67.4692 53.9899 71.4812Z" fill="#769914"/>
<path d="M50.402 72.661C50.4374 75.4274 46.5309 75.4274 46.5663 72.661C46.5309 69.9076 50.4374 69.9076 50.402 72.661Z" fill="#769914"/>
<g style="mix-blend-mode:multiply">
<path d="M62.3104 67.7051L60.2922 69.1604C60.2922 69.1604 58.0498 69.8291 57.4125 71.9531C57.7429 69.3309 59.6077 67.3511 62.3104 67.7051Z" fill="#A3C02D"/>
</g>
<g style="mix-blend-mode:multiply">
<path d="M55.2409 65.7646L54.0252 68.0591C54.0252 68.0591 52.3021 69.7898 52.5972 72.0055C51.8182 69.4882 52.6798 66.7873 55.2409 65.7646Z" fill="#A3C02D"/>
</g>
<g style="mix-blend-mode:multiply">
<path d="M60.7997 70.9565C60.5164 72.6348 58.51 73.4739 57.2944 72.4119C56.2086 73.487 54.3203 73.4477 53.2699 72.3594C52.5853 73.5001 51.0156 73.9721 49.8826 73.3428C48.9975 74.6539 46.9321 74.195 46.5662 72.6085C46.46 74.4965 48.726 75.5323 49.8472 74.1557C50.933 74.8899 52.5263 74.5752 53.3053 73.5001C54.2612 74.6932 56.1378 74.903 57.3062 73.9459C59.0411 75.7421 61.9209 73.3165 60.7997 70.9565Z" fill="#A3C02D"/>
</g>
</g>
<mask id="mask18_12_25633" style="mask-type:luminance" maskUnits="userSpaceOnUse" x="28" y="67" width="14" height="7">
<path d="M39.0424 69.0187C38.9015 69.0187 38.765 69.034 38.6328 69.0646C37.8385 67.0153 34.9624 66.7597 33.886 68.649C32.6373 67.3812 30.3878 68.1141 29.9441 69.9077C26.6052 70.0493 28.5314 75.5219 31.07 73.1265C32.0342 73.7873 33.4588 73.5027 34.1563 72.5469C35.0096 73.6063 36.6867 73.803 37.7241 72.9416C40.6888 75.375 42.7246 69.3478 39.0424 69.0187Z" fill="white"/>
</mask>
<g mask="url(#mask18_12_25633)">
<path d="M38.9183 70.4192C38.8947 74.4312 33.3949 74.4312 33.3831 70.4192C33.3949 66.3941 38.9065 66.3941 38.9183 70.4192Z" fill="#769914"/>
<path d="M41.0546 71.2582C41.09 74.1558 36.9946 74.1558 37.03 71.2582C36.9946 68.3475 41.09 68.3475 41.0546 71.2582Z" fill="#769914"/>
<path d="M34.764 70.7468C34.7522 74.3393 29.8425 74.3393 29.8307 70.7468C29.8425 67.1544 34.7522 67.1544 34.764 70.7468Z" fill="#769914"/>
<path d="M31.5538 71.7959C31.5892 74.2608 28.1076 74.2608 28.1312 71.7959C28.1076 69.3441 31.5892 69.331 31.5538 71.7959Z" fill="#769914"/>
<g style="mix-blend-mode:multiply">
<path d="M41.3613 67.3379L39.7562 68.4917C39.7562 68.4917 37.9741 69.0292 37.4666 70.7206C37.7027 68.6621 39.2487 67.0363 41.3613 67.3379Z" fill="#A3C02D"/>
</g>
<g style="mix-blend-mode:multiply">
<path d="M35.6373 65.8301L34.6224 67.6263C34.6224 67.6263 33.2179 68.9505 33.3949 70.7205C32.8284 68.7407 33.6074 66.5512 35.6373 65.8301Z" fill="#A3C02D"/>
</g>
<g style="mix-blend-mode:multiply">
<path d="M40.7476 70.0781C40.8303 71.8744 38.8003 73.015 37.5493 71.9137C36.5697 72.8577 34.8938 72.8052 33.9614 71.8219C33.3359 72.8446 31.9314 73.251 30.9282 72.6741C30.3381 73.5264 29.0163 73.5788 28.379 72.779C28.8865 73.8148 30.3617 74.0115 31.0699 73.133C32.0376 73.7886 33.4539 73.5001 34.162 72.543C35.0118 73.605 36.6877 73.8017 37.7263 72.9364C39.3668 74.6277 41.9869 72.1628 40.7476 70.0781Z" fill="#A3C02D"/>
</g>
</g>
<mask id="mask19_12_25633" style="mask-type:luminance" maskUnits="userSpaceOnUse" x="25" y="57" width="17" height="10">
<path d="M39.2182 60.1886C39.0891 60.1903 38.9629 60.2021 38.8393 60.224C37.9105 56.1189 32.3009 56.3929 31.7096 60.5858C30.4208 59.6759 28.5242 60.4219 28.0167 61.9809C26.7515 61.088 24.9588 62.2024 25.0013 63.8833C24.9328 66.0165 27.6379 66.9054 28.6422 65.1367C29.8319 66.4937 32.1499 65.9575 32.7612 64.2111C33.8399 65.4553 35.8416 65.7346 37.1752 64.7932C40.7489 68.935 44.3639 60.8349 39.2182 60.1886Z" fill="white"/>
</mask>
<g mask="url(#mask19_12_25633)">
<path d="M38.9656 61.2938C38.942 66.6169 31.6719 66.6169 31.6483 61.2938C31.6719 55.9838 38.9538 55.9838 38.9656 61.2938Z" fill="#769914"/>
<path d="M32.9819 63.0506C32.9701 66.8003 27.8479 66.8003 27.8243 63.0506C27.8479 59.3139 32.9701 59.3139 32.9819 63.0506Z" fill="#769914"/>
<path d="M41.7981 63.0506C41.7863 66.8003 36.6524 66.8003 36.6406 63.0506C36.6524 59.3139 41.7863 59.3139 41.7981 63.0506Z" fill="#769914"/>
<path d="M28.9927 63.8899C29.0281 66.7612 24.9682 66.7612 25.0036 63.8899C24.9682 61.0054 29.0281 61.0054 28.9927 63.8899Z" fill="#769914"/>
<g style="mix-blend-mode:multiply">
<path d="M41.1254 58.711L39.5557 59.8385C39.5557 59.8385 37.8089 60.3761 37.3015 62.0412C37.5375 60.009 39.06 58.4094 41.1254 58.711Z" fill="#A3C02D"/>
</g>
<g style="mix-blend-mode:multiply">
<path d="M30.3854 58.842L29.2406 60.494C29.2406 60.494 27.8243 61.1103 27.7653 63.3785C27.3876 61.3856 28.3436 59.314 30.3854 58.842Z" fill="#A3C02D"/>
</g>
<g style="mix-blend-mode:multiply">
<path d="M41.09 61.084C41.3024 63.5751 38.3165 65.096 36.7468 63.326C35.5784 64.4929 33.5602 64.5847 32.3092 63.5489C32.0259 64.9518 30.6214 65.9744 29.3114 65.6467C30.5742 66.3547 32.2501 65.6204 32.7576 64.2044C33.8434 65.45 35.838 65.7384 37.1717 64.7944C39.3551 67.9018 43.5094 63.9684 41.09 61.084Z" fill="#A3C02D"/>
</g>
</g>
<path d="M41.2789 92.0001C41.2789 92.0001 41.1372 89.758 40.0869 88.7354C40.0869 88.7354 41.5739 90.0989 41.6801 90.3743C41.6801 90.3743 41.4559 88.2372 41.031 87.6734C41.031 87.6734 41.9752 88.5912 42.164 89.0894C42.164 89.0894 41.869 87.5423 41.5857 87.0309C41.5857 87.0309 42.4355 88.342 42.5653 89.2467C42.5653 89.2467 42.7069 86.7818 42.4237 85.8247C42.4237 85.8247 43.1908 88.5125 43.1908 89.7056C43.1908 89.7056 43.2262 87.4112 43.8281 86.5458C43.8281 86.5458 43.7101 88.7747 43.8045 89.5876C43.8045 89.5876 44.0996 88.3945 44.0878 87.6603C44.0878 87.6603 44.4655 89.168 44.3474 89.9023C44.3474 89.9023 44.8785 88.5518 44.6543 86.7032C44.6543 86.7032 45.1028 88.1454 45.0674 89.3516C45.0674 89.3516 45.4332 88.2896 45.9171 87.6865C45.9171 87.6865 45.268 89.6532 45.2562 90.2825C45.2562 90.2825 45.5159 89.5089 46.0115 89.168C46.0115 89.168 45.3742 90.4792 45.2326 91.056C45.2326 91.056 45.7755 90.2432 46.6489 89.9285C46.6489 89.9285 45.6811 91.2658 45.6575 92.0001H41.2789Z" fill="#769914"/>
<path d="M44.5481 91.9869C44.5481 91.9869 44.4537 90.4267 43.7219 89.7056C43.7219 89.7056 44.7605 90.6627 44.8313 90.8593C44.8313 90.8593 44.6779 89.3647 44.3828 88.9582C44.3828 88.9582 45.032 89.6138 45.1736 89.9547C45.1736 89.9547 44.9612 88.8796 44.7605 88.5256C44.7605 88.5256 45.3624 89.4302 45.445 90.0727C45.445 90.0727 45.5513 88.342 45.3506 87.6733C45.3506 87.6733 45.8935 89.5482 45.8935 90.3873C45.8935 90.3873 45.9171 88.7878 46.342 88.1716C46.342 88.1716 46.2476 89.7318 46.3184 90.3087C46.3184 90.3087 46.5308 89.4696 46.519 88.9582C46.519 88.9582 46.7787 90.0202 46.7079 90.5316C46.7079 90.5316 47.0737 89.5876 46.9085 88.2896C46.9085 88.2896 47.2272 89.2991 47.2036 90.1382C47.2036 90.1382 47.4632 89.404 47.8055 88.9845C47.8055 88.9845 47.3452 90.3611 47.3334 90.7938C47.3334 90.7938 47.5222 90.2562 47.8645 90.0071C47.8645 90.0071 47.416 90.938 47.3216 91.3313C47.3216 91.3313 47.6993 90.7676 48.313 90.5447C48.313 90.5447 47.6284 91.4756 47.6166 91.9869H44.5481Z" fill="#769914"/>
<path d="M17.8958 56.3352L17.0932 94.6328H20.9289L18.5331 55.4436L17.8958 56.3352Z" fill="#331C10"/>
<path d="M23.006 55.9812L18.533 62.8908L18.6983 64.4903L23.006 55.9812Z" fill="#331C10"/>
<path d="M13.9066 56.1516L18.3796 64.8443L18.0609 66.9683L13.9066 55.7976V56.1516Z" fill="#331C10"/>
<path d="M10.5548 65.0281L18.533 75.6612V77.6148L13.104 70.5216L6.40039 66.2605L12.9506 69.6301L10.5548 65.0281Z" fill="#331C10"/>
<path d="M26.5113 66.4438L19.0169 73.7074V75.8445L26.5113 66.4438Z" fill="#331C10"/>
<path d="M21.8848 71.754L22.2389 71.5704L30.3942 67.2175L22.6756 70.574L21.8848 71.754Z" fill="#331C10"/>
<path d="M19.1703 81.1546L23.4781 77.4311L26.4051 74.1008L24.1273 77.7851L31.0551 74.1402L24.4459 78.3226L19.1703 83.4622L18.8517 80.9842" fill="#331C10"/>
<path d="M6.73083 74.7302L12.6319 80.2762L18.3796 83.6458L18.533 82.0462L13.104 79.5682L11.5107 73.3535L12.3133 78.8471L6.73083 74.7302Z" fill="#331C10"/>
<path d="M13.9066 56.1516L14.3786 57.0825L13.9066 55.7976V56.1516Z" fill="#331C10"/>
<path d="M31.0551 74.1401L24.1273 77.785L26.4051 74.1007L23.4781 77.431L20.0555 80.3941L19.7251 74.9399L22.5576 71.3999L30.3942 67.2174L23.5017 70.2199L26.5113 66.4438L19.6188 73.1305L19.0405 63.7954L23.0061 55.9812L18.9461 62.2483L18.533 55.4436L17.8957 56.3352L17.7423 63.6118L14.3787 57.0825C17.6833 66.1161 17.9547 64.2936 17.518 74.3105L10.5548 65.0278L12.9506 69.6299L6.40039 66.2603L13.104 70.5214L17.4826 76.2379L17.3764 81.5085L13.104 79.5681L11.5107 73.3534L12.3133 78.847L6.73085 74.7301L12.6319 80.2761L17.341 83.0294L17.0932 94.6328H20.9289L20.1853 82.4788L24.4459 78.3225L31.0551 74.1401Z" fill="#331C10"/>
<g style="mix-blend-mode:multiply">
<path d="M13.9066 56.1516L14.3787 57.0825L13.9066 55.7976V56.1516Z" fill="#331C10"/>
<path d="M20.1853 82.4788L24.4459 78.3226L31.0551 74.1401L23.7968 78.3226L19.6542 82.0462L18.6392 94.6328H20.9288L20.1853 82.4788Z" fill="#331C10"/>
<path d="M19.0169 73.7075L19.2057 80.7744L20.0319 79.9352L19.725 74.9399L22.5575 71.3999L30.3942 67.2174L23.5017 70.2199L26.5113 66.4439L19.6188 73.1306L19.0405 63.7954L23.006 55.9812L18.6746 63.5857L19.0169 73.7075Z" fill="#331C10"/>
</g>
<mask id="mask20_12_25633" style="mask-type:luminance" maskUnits="userSpaceOnUse" x="5" y="47" width="27" height="13">
<path d="M28.4375 51.6244C28.022 51.6244 27.6266 51.7123 27.2596 51.867C26.3024 49.5817 23.4947 48.4646 21.414 49.646C19.0335 45.2236 12.3133 46.6317 11.5745 51.7411C10.0886 51.2848 8.44339 52.1725 7.80489 53.6462C3.95856 54.2427 5.88468 60.6921 9.28961 58.6022C10.6374 59.4033 12.5081 58.8932 13.3791 57.5572C15.1966 59.3993 18.4257 59.4478 20.2881 57.6542C21.7503 59.3023 24.5073 59.4269 26.0865 57.902C30.9171 62.3611 34.7044 52.3023 28.4375 51.6244Z" fill="white"/>
</mask>
<g mask="url(#mask20_12_25633)">
<path d="M28.4349 51.6284C28.0219 51.6284 27.6206 51.7071 27.2547 51.8644C26.2987 49.5831 23.4898 48.4686 21.4126 49.6486C19.0286 45.2302 12.3132 46.6331 11.5696 51.7464C10.0825 51.2875 8.44204 52.1791 7.80473 53.6475C3.95722 54.2375 5.88097 60.6882 9.2918 58.6035C10.6372 59.4033 12.5138 58.892 13.3754 57.5546C15.1929 59.4033 18.4267 59.4426 20.2914 57.6595C21.7549 59.2984 24.5048 59.4295 26.0863 57.8955C30.9134 62.3664 34.7019 52.2971 28.4349 51.6284Z" fill="#769914"/>
<g style="mix-blend-mode:multiply">
<path d="M30.5241 52.4414C31.5626 55.8765 27.4791 58.7085 25.1541 56.2436C23.667 57.8825 20.9053 57.9612 19.3474 56.4141C17.6007 58.3414 14.3669 58.525 12.4549 56.8074C11.6524 58.2103 9.82303 58.8528 8.43038 58.1448C7.98189 58.4988 7.37998 58.6823 6.81348 58.6036C7.52161 59.115 8.572 59.115 9.29193 58.6036C10.6374 59.4034 12.5139 58.8921 13.3755 57.5547C15.193 59.4034 18.4268 59.4428 20.2916 57.6596C21.755 59.2985 24.5049 59.4296 26.0864 57.8956C29.3438 61.4619 34.0411 55.6667 30.5241 52.4414Z" fill="#A3C02D"/>
</g>
<g style="mix-blend-mode:multiply">
<path d="M23.313 48.2719L21.4128 49.6485C21.4128 49.6485 19.3002 50.291 18.6983 52.297C19.0052 49.8059 20.7637 47.9441 23.313 48.2719Z" fill="#A3C02D"/>
</g>
<g style="mix-blend-mode:multiply">
<path d="M30.5477 49.8453L28.6476 51.2088C28.6476 51.2088 26.5232 51.8513 25.9213 53.8573C26.2399 51.3662 27.9984 49.5044 30.5477 49.8453Z" fill="#A3C02D"/>
</g>
</g>
<mask id="mask21_12_25633" style="mask-type:luminance" maskUnits="userSpaceOnUse" x="21" y="60" width="14" height="9">
<path d="M31.5037 62.3807C31.3101 62.3807 31.1221 62.4017 30.9395 62.4436C29.4347 58.6519 23.8736 59.7467 23.6871 63.9383C19.3321 64.093 22.0926 71.0983 25.1458 67.6684C26.3626 68.7947 28.4044 68.8615 29.6802 67.81C33.7827 71.1743 36.5963 62.837 31.5037 62.3807Z" fill="white"/>
</mask>
<g mask="url(#mask21_12_25633)">
<path d="M31.3267 64.3199C31.2441 69.9053 23.7615 69.9053 23.6671 64.3199C23.7615 58.7215 31.2441 58.7215 31.3267 64.3199Z" fill="#769914"/>
<path d="M34.2889 65.4738C34.2771 69.5251 28.7301 69.5251 28.7183 65.4738C28.7301 61.4225 34.2771 61.4225 34.2889 65.4738Z" fill="#769914"/>
<path d="M25.5908 66.2473C25.6262 69.2628 21.3656 69.2628 21.4128 66.2473C21.3656 63.2317 25.6262 63.2317 25.5908 66.2473Z" fill="#769914"/>
<g style="mix-blend-mode:multiply">
<path d="M32.8963 61.029L31.244 62.209C31.244 62.209 29.4146 62.7728 28.8953 64.5035C29.1314 62.3795 30.7247 60.7144 32.8963 61.029Z" fill="#A3C02D"/>
</g>
<g style="mix-blend-mode:multiply">
<path d="M33.5455 63.376C34.1592 65.9982 31.2677 68.1615 29.3085 66.6275C28.1755 67.86 26.1455 68.1091 24.8001 67.1782C24.387 68.0435 23.3484 68.5418 22.475 68.2664C23.3248 68.8433 24.5758 68.5418 25.1423 67.6633C26.3579 68.7909 28.3997 68.8564 29.6862 67.8075C32.2118 70.3642 35.9295 66.1031 33.5455 63.376Z" fill="#A3C02D"/>
</g>
</g>
<mask id="mask22_12_25633" style="mask-type:luminance" maskUnits="userSpaceOnUse" x="21" y="70" width="15" height="8">
<path d="M33.779 72.5498C33.6209 72.5498 33.4679 72.5673 33.32 72.6023C32.4312 70.3065 29.2104 70.0207 28.0054 72.1368C26.6069 70.7169 24.0883 71.5363 23.5914 73.5463C19.8537 73.7036 22.0087 79.8331 24.8531 77.1492C25.9318 77.8887 27.5263 77.5701 28.3087 76.5002C29.2624 77.6868 31.1413 77.907 32.3038 76.9434C35.6225 79.6679 37.9015 72.9196 33.779 72.5498Z" fill="white"/>
</mask>
<g mask="url(#mask22_12_25633)">
<path d="M33.6399 74.1141C33.6163 78.6112 27.4556 78.6112 27.4438 74.1141C27.4556 69.6169 33.6163 69.6169 33.6399 74.1141Z" fill="#769914"/>
<path d="M36.0358 75.0578C36.0712 78.2963 31.4801 78.2963 31.5273 75.0578C31.4801 71.8063 36.0712 71.8063 36.0358 75.0578Z" fill="#769914"/>
<path d="M28.9899 74.4812C28.9781 78.5063 23.4783 78.5063 23.4547 74.4812C23.4783 70.4692 28.9781 70.4692 28.9899 74.4812Z" fill="#769914"/>
<path d="M25.402 75.661C25.4374 78.4274 21.5309 78.4274 21.5663 75.661C21.5309 72.9076 25.4374 72.9076 25.402 75.661Z" fill="#769914"/>
<g style="mix-blend-mode:multiply">
<path d="M37.3104 70.7051L35.2922 72.1604C35.2922 72.1604 33.0498 72.8291 32.4125 74.9531C32.7429 72.3309 34.6077 70.3511 37.3104 70.7051Z" fill="#A3C02D"/>
</g>
<g style="mix-blend-mode:multiply">
<path d="M30.2409 68.7646L29.0252 71.0591C29.0252 71.0591 27.3021 72.7898 27.5972 75.0055C26.8182 72.4882 27.6798 69.7873 30.2409 68.7646Z" fill="#A3C02D"/>
</g>
<g style="mix-blend-mode:multiply">
<path d="M35.7997 73.9565C35.5164 75.6348 33.51 76.4739 32.2944 75.4119C31.2086 76.487 29.3203 76.4477 28.2699 75.3594C27.5853 76.5001 26.0156 76.9721 24.8826 76.3428C23.9975 77.6539 21.9321 77.195 21.5662 75.6085C21.46 77.4965 23.726 78.5323 24.8472 77.1557C25.933 77.8899 27.5263 77.5752 28.3053 76.5001C29.2612 77.6932 31.1378 77.903 32.3062 76.9459C34.0411 78.7421 36.9209 76.3165 35.7997 73.9565Z" fill="#A3C02D"/>
</g>
</g>
<mask id="mask23_12_25633" style="mask-type:luminance" maskUnits="userSpaceOnUse" x="3" y="70" width="14" height="7">
<path d="M14.0424 72.0187C13.9015 72.0187 13.765 72.034 13.6328 72.0646C12.8385 70.0153 9.96236 69.7597 8.886 71.649C7.63733 70.3812 5.38783 71.1141 4.94407 72.9077C1.60523 73.0493 3.53135 78.5219 6.07 76.1265C7.03424 76.7873 8.45876 76.5027 9.15627 75.5469C10.0096 76.6063 11.6867 76.803 12.7241 75.9416C15.6888 78.375 17.7246 72.3478 14.0424 72.0187Z" fill="white"/>
</mask>
<g mask="url(#mask23_12_25633)">
<path d="M13.9183 73.4192C13.8947 77.4312 8.39492 77.4312 8.38312 73.4192C8.39492 69.3941 13.9065 69.3941 13.9183 73.4192Z" fill="#769914"/>
<path d="M16.0546 74.2582C16.09 77.1558 11.9946 77.1558 12.03 74.2582C11.9946 71.3475 16.09 71.3475 16.0546 74.2582Z" fill="#769914"/>
<path d="M9.764 73.7468C9.75219 77.3393 4.84249 77.3393 4.83069 73.7468C4.84249 70.1544 9.75219 70.1544 9.764 73.7468Z" fill="#769914"/>
<path d="M6.55379 74.7959C6.5892 77.2608 3.10756 77.2608 3.13116 74.7959C3.10756 72.3441 6.5892 72.331 6.55379 74.7959Z" fill="#769914"/>
<g style="mix-blend-mode:multiply">
<path d="M16.3613 70.3379L14.7562 71.4917C14.7562 71.4917 12.9741 72.0292 12.4666 73.7206C12.7027 71.6621 14.2487 70.0363 16.3613 70.3379Z" fill="#A3C02D"/>
</g>
<g style="mix-blend-mode:multiply">
<path d="M10.6373 68.8301L9.62236 70.6263C9.62236 70.6263 8.2179 71.9505 8.39494 73.7205C7.82843 71.7407 8.60738 69.5512 10.6373 68.8301Z" fill="#A3C02D"/>
</g>
<g style="mix-blend-mode:multiply">
<path d="M15.7476 73.0781C15.8303 74.8744 13.8003 76.015 12.5493 74.9137C11.5697 75.8577 9.89377 75.8052 8.9614 74.8219C8.33588 75.8446 6.93142 76.251 5.92824 75.6741C5.33813 76.5264 4.01628 76.5788 3.37897 75.779C3.88646 76.8148 5.36173 77.0115 6.06987 76.133C7.03764 76.7886 8.4539 76.5001 9.16203 75.543C10.0118 76.605 11.6877 76.8017 12.7263 75.9364C14.3668 77.6277 16.9869 75.1628 15.7476 73.0781Z" fill="#A3C02D"/>
</g>
</g>
<mask id="mask24_12_25633" style="mask-type:luminance" maskUnits="userSpaceOnUse" x="0" y="60" width="17" height="10">
<path d="M14.2182 63.1886C14.0891 63.1903 13.9629 63.2021 13.8393 63.224C12.9105 59.1189 7.30092 59.3929 6.70963 63.5858C5.42083 62.6759 3.52422 63.4219 3.01673 64.9809C1.75154 64.088 -0.0412122 65.2024 0.00127564 66.8833C-0.067177 69.0165 2.63788 69.9054 3.64225 68.1367C4.83191 69.4937 7.14985 68.9575 7.76121 67.2111C8.83993 68.4553 10.8416 68.7346 12.1752 67.7932C15.7489 71.935 19.3639 63.8349 14.2182 63.1886Z" fill="white"/>
</mask>
<g mask="url(#mask24_12_25633)">
<path d="M13.9656 64.2938C13.942 69.6169 6.67186 69.6169 6.64825 64.2938C6.67186 58.9838 13.9538 58.9838 13.9656 64.2938Z" fill="#769914"/>
<path d="M7.98189 66.0506C7.97009 69.8003 2.84795 69.8003 2.82434 66.0506C2.84795 62.3139 7.97009 62.3139 7.98189 66.0506Z" fill="#769914"/>
<path d="M16.7981 66.0506C16.7863 69.8003 11.6524 69.8003 11.6406 66.0506C11.6524 62.3139 16.7863 62.3139 16.7981 66.0506Z" fill="#769914"/>
<path d="M3.99272 66.8899C4.02813 69.7612 -0.0318194 69.7612 0.00358718 66.8899C-0.0318194 64.0054 4.02813 64.0054 3.99272 66.8899Z" fill="#769914"/>
<g style="mix-blend-mode:multiply">
<path d="M16.1254 61.711L14.5557 62.8385C14.5557 62.8385 12.8089 63.3761 12.3015 65.0412C12.5375 63.009 14.06 61.4094 16.1254 61.711Z" fill="#A3C02D"/>
</g>
<g style="mix-blend-mode:multiply">
<path d="M5.3854 61.842L4.24059 63.494C4.24059 63.494 2.82433 64.1103 2.76532 66.3785C2.38765 64.3856 3.34362 62.314 5.3854 61.842Z" fill="#A3C02D"/>
</g>
<g style="mix-blend-mode:multiply">
<path d="M16.09 64.084C16.3024 66.5751 13.3165 68.096 11.7468 66.326C10.5784 67.4929 8.56019 67.5847 7.30916 66.5489C7.0259 67.9518 5.62144 68.9744 4.3114 68.6467C5.57423 69.3547 7.25014 68.6204 7.75764 67.2044C8.84344 68.45 10.838 68.7384 12.1717 67.7944C14.3551 70.9018 18.5094 66.9684 16.09 64.084Z" fill="#A3C02D"/>
</g>
</g>
<path d="M16.2789 95.0001C16.2789 95.0001 16.1372 92.758 15.0869 91.7354C15.0869 91.7354 16.5739 93.0989 16.6801 93.3743C16.6801 93.3743 16.4559 91.2372 16.031 90.6734C16.031 90.6734 16.9752 91.5912 17.164 92.0894C17.164 92.0894 16.869 90.5423 16.5857 90.0309C16.5857 90.0309 17.4355 91.342 17.5653 92.2467C17.5653 92.2467 17.7069 89.7818 17.4237 88.8247C17.4237 88.8247 18.1908 91.5125 18.1908 92.7056C18.1908 92.7056 18.2262 90.4112 18.8281 89.5458C18.8281 89.5458 18.7101 91.7747 18.8045 92.5876C18.8045 92.5876 19.0996 91.3945 19.0878 90.6603C19.0878 90.6603 19.4655 92.168 19.3474 92.9023C19.3474 92.9023 19.8785 91.5518 19.6543 89.7032C19.6543 89.7032 20.1028 91.1454 20.0674 92.3516C20.0674 92.3516 20.4332 91.2896 20.9171 90.6865C20.9171 90.6865 20.268 92.6532 20.2562 93.2825C20.2562 93.2825 20.5159 92.5089 21.0115 92.168C21.0115 92.168 20.3742 93.4792 20.2326 94.056C20.2326 94.056 20.7755 93.2432 21.6489 92.9285C21.6489 92.9285 20.6811 94.2658 20.6575 95.0001H16.2789Z" fill="#769914"/>
<path d="M19.5481 94.9869C19.5481 94.9869 19.4537 93.4267 18.7219 92.7056C18.7219 92.7056 19.7605 93.6627 19.8313 93.8593C19.8313 93.8593 19.6779 92.3647 19.3828 91.9582C19.3828 91.9582 20.032 92.6138 20.1736 92.9547C20.1736 92.9547 19.9612 91.8796 19.7605 91.5256C19.7605 91.5256 20.3624 92.4302 20.445 93.0727C20.445 93.0727 20.5513 91.342 20.3506 90.6733C20.3506 90.6733 20.8935 92.5482 20.8935 93.3873C20.8935 93.3873 20.9171 91.7878 21.342 91.1716C21.342 91.1716 21.2476 92.7318 21.3184 93.3087C21.3184 93.3087 21.5308 92.4696 21.519 91.9582C21.519 91.9582 21.7787 93.0202 21.7079 93.5316C21.7079 93.5316 22.0737 92.5876 21.9085 91.2896C21.9085 91.2896 22.2272 92.2991 22.2036 93.1382C22.2036 93.1382 22.4632 92.404 22.8055 91.9845C22.8055 91.9845 22.3452 93.3611 22.3334 93.7938C22.3334 93.7938 22.5222 93.2562 22.8645 93.0071C22.8645 93.0071 22.416 93.938 22.3216 94.3313C22.3216 94.3313 22.6993 93.7676 23.313 93.5447C23.313 93.5447 22.6284 94.4756 22.6166 94.9869H19.5481Z" fill="#769914"/>
</svg>
