<svg width="24" height="25" viewBox="0 0 24 25" fill="none" xmlns="http://www.w3.org/2000/svg">
    <g clip-path="url(#clip0_882_46828)">
    <path d="M18.7686 21.0431H5.23026C3.50516 21.0437 2.10668 22.4421 2.10614 24.1672H21.8927C21.8927 22.4416 20.4943 21.0431 18.7686 21.0431Z" fill="white" fill-opacity="0.6"/>
    <path d="M12 6.46393C8.35438 6.46393 5.75177 9.06709 5.75177 12.8907V19.9544H18.2482V12.8907C18.2482 9.06709 15.6473 6.46393 12 6.46393ZM16.1677 14.2979C15.8672 14.2979 15.6233 14.054 15.6233 13.7535C15.6233 11.8003 14.6641 10.0077 13.3914 9.58423C13.1056 9.48897 12.951 9.18086 13.0463 8.89507C13.1415 8.60927 13.4496 8.45467 13.7354 8.54994C15.46 9.12533 16.712 11.3137 16.712 13.7535C16.712 14.054 16.4682 14.2979 16.1677 14.2979Z" fill="white" fill-opacity="0.6"/>
    <path d="M3.66848 13.2565H0.544366C0.243876 13.2565 0 13.0126 0 12.7122C0 12.4117 0.243876 12.1678 0.544366 12.1678H3.66848C3.96897 12.1678 4.21285 12.4117 4.21285 12.7122C4.21285 13.0126 3.96897 13.2565 3.66848 13.2565Z" fill="white" fill-opacity="0.6"/>
    <path d="M5.70768 7.2304C5.56343 7.2304 5.42461 7.17324 5.32282 7.0709L3.24007 4.98761C3.03104 4.7715 3.03703 4.42692 3.25368 4.21788C3.4649 4.01429 3.79914 4.01429 4.00981 4.21788L6.09255 6.30117C6.30485 6.51401 6.30485 6.8586 6.09255 7.0709C5.99021 7.17324 5.85194 7.2304 5.70768 7.2304Z" fill="white" fill-opacity="0.6"/>
    <path d="M12 4.925C11.6995 4.925 11.4556 4.68113 11.4556 4.38064V1.25652C11.4556 0.956034 11.6995 0.712158 12 0.712158C12.3005 0.712158 12.5444 0.956034 12.5444 1.25652V4.38064C12.5444 4.68113 12.3005 4.925 12 4.925Z" fill="white" fill-opacity="0.6"/>
    <path d="M18.4099 7.11226C18.1094 7.11226 17.8655 6.86839 17.8655 6.5679C17.8655 6.42364 17.9227 6.28537 18.025 6.18303L20.1078 4.10029C20.3201 3.88744 20.6652 3.88744 20.8781 4.09974C21.0909 4.31204 21.0909 4.65717 20.8781 4.87002L18.7948 6.95276C18.693 7.0551 18.5542 7.11226 18.4099 7.11226Z" fill="white" fill-opacity="0.6"/>
    <path d="M23.4556 13.2565H20.3315C20.031 13.2565 19.7871 13.0126 19.7871 12.7122C19.7871 12.4117 20.031 12.1678 20.3315 12.1678H23.4556C23.7561 12.1678 24 12.4117 24 12.7122C24 13.0126 23.7561 13.2565 23.4556 13.2565Z" fill="white" fill-opacity="0.6"/>
    </g>
    <defs>
    <clipPath id="clip0_882_46828">
    <rect width="24" height="24" fill="white" transform="translate(0 0.712158)"/>
    </clipPath>
    </defs>
    </svg>
    