<svg width="24" height="24" viewBox="0 0 24 24" fill="none" xmlns="http://www.w3.org/2000/svg">
    <g clip-path="url(#clip0_882_46714)">
    <path d="M14.2984 2.05318C12.7459 2.3121 11.4327 3.13698 10.5215 4.27663C9.28971 3.49437 7.77995 3.14026 6.22737 3.39919C2.88422 3.95672 0.626042 7.11884 1.18358 10.462C1.87833 14.628 7.24218 18.9182 13.2798 20.8165C18.3747 17.0616 22.056 11.263 21.3612 7.09701C20.8037 3.75383 17.6416 1.49565 14.2984 2.05318Z" fill="#FF5A4E"/>
    <path d="M5.53298 10.8134C5.01645 7.71613 6.27166 4.80682 8.46746 3.44298C7.75 3.29416 6.99408 3.27132 6.22737 3.39919C2.88422 3.95672 0.626042 7.11884 1.18358 10.462C1.87833 14.628 7.24218 18.9182 13.2798 20.8165C13.284 20.8134 13.2881 20.8102 13.2923 20.8071C9.25528 18.1296 6.13076 14.3979 5.53298 10.8134Z" fill="#EB443F"/>
    <path d="M14.2984 2.05319C14.1661 2.07526 14.0382 2.10696 13.9095 2.1371C16.5658 1.89015 19.0849 4.16783 19.6218 7.38708C20.3165 11.5531 17.4149 17.2217 13.2798 20.8165C18.3746 17.0617 22.056 11.263 21.3612 7.09703C20.8037 3.75384 17.6416 1.49566 14.2984 2.05319Z" fill="#FF7E68"/>
    <path d="M17.6273 8.29173C18.2037 8.1956 18.593 7.6504 18.4969 7.07399C18.4008 6.49758 17.8556 6.10824 17.2792 6.20436C16.7027 6.30049 16.3134 6.84569 16.4095 7.4221C16.5057 7.99851 17.0509 8.38785 17.6273 8.29173Z" fill="#FF9A79"/>
    <path d="M16.6412 5.59566C16.9294 5.54759 17.1241 5.27501 17.076 4.98681C17.028 4.69862 16.7554 4.50395 16.4672 4.55201C16.179 4.60008 15.9843 4.87267 16.0324 5.16086C16.0805 5.44905 16.353 5.64372 16.6412 5.59566Z" fill="#FFBEAC"/>
    </g>
    <defs>
    <clipPath id="clip0_882_46714">
    <rect width="20.4563" height="20.4563" fill="white" transform="translate(0 3.36499) rotate(-9.46804)"/>
    </clipPath>
    </defs>
    </svg>
    