<svg width="24" height="24" viewBox="0 0 24 24" fill="none" xmlns="http://www.w3.org/2000/svg">
<g clip-path="url(#clip0_3300_61394)">
<path d="M18.6131 0H5.38691C2.4118 0 0 2.4118 0 5.38691V18.6131C0 21.5882 2.4118 24 5.38691 24H18.6131C21.5882 24 24 21.5882 24 18.6131V5.38691C24 2.4118 21.5882 0 18.6131 0Z" fill="#F0F0F0"/>
<path d="M8.31309 4.15662H15.7949C15.9612 4.23975 16.2106 4.23975 16.3768 4.32288C17.1064 4.44112 17.7886 4.7605 18.3466 5.24512C18.9047 5.72974 19.3165 6.3604 19.5358 7.06621C19.6586 7.47295 19.7421 7.89051 19.7852 8.31318V15.6287C19.6664 16.5559 19.324 17.4403 18.7876 18.2058C18.3275 18.7389 17.7506 19.1588 17.1018 19.4327C16.453 19.7067 15.7497 19.8273 15.0467 19.7853H8.81188C7.6992 19.8393 6.6052 19.4845 5.73602 18.7877C5.20747 18.3311 4.79037 17.7596 4.51661 17.1169C4.24284 16.4743 4.11968 15.7776 4.15652 15.0801V9.26088C4.14279 8.84349 4.17064 8.42578 4.23966 8.01391C4.3236 7.16164 4.67403 6.3575 5.24113 5.71578C5.80823 5.07405 6.56317 4.62739 7.39864 4.43926L8.31309 4.15662ZM5.73602 12.0541V15.2962C5.70057 15.7091 5.75581 16.1247 5.89785 16.514C6.03989 16.9032 6.26531 17.2568 6.55832 17.5498C6.85133 17.8428 7.20485 18.0682 7.59412 18.2102C7.9834 18.3523 8.39902 18.4075 8.81188 18.3721C10.9733 18.4552 13.1347 18.4552 15.2961 18.3721C17.2081 18.3721 18.2888 17.2082 18.372 15.2962C18.4551 13.1348 18.4551 10.9734 18.372 8.81197C18.3935 8.40237 18.3287 7.99281 18.1817 7.60988C18.0348 7.22694 17.809 6.87917 17.5189 6.58914C17.2289 6.29911 16.8811 6.07329 16.4982 5.92634C16.1153 5.77938 15.7057 5.71457 15.2961 5.73611C13.1347 5.65298 10.9733 5.65298 8.81188 5.73611C8.39902 5.70067 7.9834 5.7559 7.59412 5.89794C7.20485 6.03998 6.85133 6.2654 6.55832 6.55841C6.26531 6.85142 6.03989 7.20494 5.89785 7.59422C5.75581 7.98349 5.70057 8.39911 5.73602 8.81197V12.0541Z" fill="#1B1C22"/>
<path d="M8.01392 12.0873C8.01611 11.0077 8.44598 9.97286 9.20942 9.20942C9.97286 8.44598 11.0077 8.01611 12.0873 8.01392C13.161 8.03518 14.1848 8.47117 14.9442 9.23053C15.7035 9.98989 16.1395 11.0137 16.1608 12.0873C16.1586 13.167 15.7287 14.2018 14.9653 14.9653C14.2018 15.7287 13.167 16.1586 12.0873 16.1608C11.0137 16.1395 9.98989 15.7035 9.23053 14.9442C8.47117 14.1848 8.03518 13.161 8.01392 12.0873ZM12.0873 9.51028C11.5824 9.50207 11.0866 9.64482 10.6633 9.92023C10.24 10.1956 9.90862 10.5912 9.71158 11.0561C9.51455 11.5211 9.46084 12.0343 9.55734 12.53C9.65385 13.0257 9.89617 13.4812 10.2532 13.8383C10.6103 14.1954 11.0659 14.4377 11.5616 14.5342C12.0573 14.6307 12.5705 14.577 13.0354 14.38C13.5004 14.1829 13.8959 13.8516 14.1713 13.4283C14.4468 13.005 14.5895 12.5091 14.5813 12.0042C14.5813 11.3428 14.3185 10.7084 13.8508 10.2407C13.3831 9.77303 12.7488 9.51028 12.0873 9.51028Z" fill="#1B1C22"/>
<path d="M15.2462 7.84766C15.2416 7.7154 15.2642 7.58361 15.3127 7.46047C15.3612 7.33734 15.4345 7.22551 15.528 7.13193C15.6216 7.03836 15.7335 6.96504 15.8566 6.91655C15.9797 6.86806 16.1115 6.84544 16.2438 6.85008C16.5026 6.86759 16.7463 6.97831 16.9297 7.16173C17.1131 7.34516 17.2238 7.58885 17.2414 7.84766C17.2414 8.11223 17.1362 8.36597 16.9492 8.55305C16.7621 8.74013 16.5083 8.84523 16.2438 8.84523C15.9792 8.84523 15.7255 8.74013 15.5384 8.55305C15.3513 8.36597 15.2462 8.11223 15.2462 7.84766Z" fill="#1B1C22"/>
</g>
<defs>
<clipPath id="clip0_3300_61394">
<rect width="24" height="24" fill="white"/>
</clipPath>
</defs>
</svg>
