<svg width="24" height="25" viewBox="0 0 24 25" fill="none" xmlns="http://www.w3.org/2000/svg">
<g clip-path="url(#clip0_1122_42448)">
<path d="M18.6131 0.5H5.38691C2.4118 0.5 0 2.9118 0 5.88691V19.1131C0 22.0882 2.4118 24.5 5.38691 24.5H18.6131C21.5882 24.5 24 22.0882 24 19.1131V5.88691C24 2.9118 21.5882 0.5 18.6131 0.5Z" fill="white" fill-opacity="0.12"/>
<path d="M8.31315 4.65649H15.795C15.9612 4.73963 16.2106 4.73963 16.3769 4.82276C17.1065 4.941 17.7886 5.26038 18.3467 5.745C18.9047 6.22962 19.3165 6.86028 19.5359 7.56609C19.6586 7.97282 19.7422 8.39039 19.7853 8.81306V16.1286C19.6664 17.0558 19.3241 17.9402 18.7877 18.7057C18.3275 19.2388 17.7506 19.6587 17.1018 19.9326C16.453 20.2066 15.7498 20.3272 15.0468 20.2852H8.81194C7.69926 20.3392 6.60526 19.9844 5.73608 19.2876C5.20753 18.8309 4.79043 18.2594 4.51667 17.6168C4.2429 16.9742 4.11974 16.2775 4.15659 15.5799V9.76076C4.14285 9.34337 4.1707 8.92565 4.23972 8.51379C4.32366 7.66151 4.67409 6.85738 5.24119 6.21565C5.8083 5.57393 6.56323 5.12727 7.39871 4.93914L8.31315 4.65649ZM5.73608 12.554V15.7961C5.70064 16.2089 5.75587 16.6246 5.89791 17.0138C6.03995 17.4031 6.26537 17.7566 6.55838 18.0496C6.85139 18.3427 7.20491 18.5681 7.59418 18.7101C7.98346 18.8522 8.39908 18.9074 8.81194 18.8719C10.9734 18.9551 13.1348 18.9551 15.2962 18.8719C17.2082 18.8719 18.2889 17.7081 18.372 15.7961C18.4552 13.6347 18.4552 11.4733 18.372 9.31185C18.3936 8.90225 18.3288 8.49269 18.1818 8.10975C18.0349 7.72682 17.809 7.37905 17.519 7.08902C17.229 6.79899 16.8812 6.57317 16.4983 6.42621C16.1153 6.27926 15.7058 6.21445 15.2962 6.23599C13.1348 6.15286 10.9734 6.15286 8.81194 6.23599C8.39908 6.20054 7.98346 6.25578 7.59418 6.39782C7.20491 6.53986 6.85139 6.76528 6.55838 7.05829C6.26537 7.3513 6.03995 7.70482 5.89791 8.09409C5.75587 8.48337 5.70064 8.89899 5.73608 9.31185V12.554Z" fill="#F6F8FB"/>
<path d="M8.01385 12.5871C8.01605 11.5074 8.44592 10.4726 9.20936 9.70918C9.9728 8.94574 11.0076 8.51587 12.0873 8.51367C13.161 8.53494 14.1848 8.97093 14.9441 9.73029C15.7035 10.4896 16.1395 11.5134 16.1607 12.5871C16.1585 13.6668 15.7287 14.7016 14.9652 15.465C14.2018 16.2285 13.167 16.6583 12.0873 16.6605C11.0136 16.6393 9.98982 16.2033 9.23047 15.4439C8.47111 14.6846 8.03512 13.6608 8.01385 12.5871ZM12.0873 10.01C11.5824 10.0018 11.0865 10.1446 10.6632 10.42C10.24 10.6954 9.90856 11.0909 9.71152 11.5559C9.51449 12.0209 9.46078 12.5341 9.55728 13.0297C9.65379 13.5254 9.89611 13.981 10.2532 14.3381C10.6103 14.6952 11.0658 14.9375 11.5615 15.034C12.0572 15.1305 12.5704 15.0768 13.0354 14.8797C13.5003 14.6827 13.8959 14.3513 14.1713 13.928C14.4467 13.5048 14.5894 13.0089 14.5812 12.504C14.5812 11.8425 14.3185 11.2082 13.8508 10.7405C13.3831 10.2728 12.7487 10.01 12.0873 10.01Z" fill="#F6F8FB"/>
<path d="M15.2463 8.34753C15.2417 8.21528 15.2643 8.08349 15.3128 7.96035C15.3613 7.83722 15.4346 7.72539 15.5282 7.63181C15.6217 7.53823 15.7336 7.46492 15.8567 7.41643C15.9798 7.36794 16.1116 7.34531 16.2439 7.34996C16.5027 7.36747 16.7464 7.47819 16.9298 7.66161C17.1132 7.84503 17.224 8.08873 17.2415 8.34753C17.2415 8.61211 17.1364 8.86585 16.9493 9.05293C16.7622 9.24001 16.5085 9.34511 16.2439 9.34511C15.9793 9.34511 15.7256 9.24001 15.5385 9.05293C15.3514 8.86585 15.2463 8.61211 15.2463 8.34753Z" fill="#F6F8FB"/>
</g>
<defs>
<clipPath id="clip0_1122_42448">
<rect width="24" height="24" fill="white" transform="translate(0 0.5)"/>
</clipPath>
</defs>
</svg>
