<svg width="71" height="73" viewBox="0 0 71 73" fill="none" xmlns="http://www.w3.org/2000/svg">
<g clip-path="url(#clip0_1263_14649)">
<path d="M35.0432 0.436317V0.522048H35.1286H35.214V0.436317V0.350586H35.1286H35.0432V0.436317Z" fill="white"/>
<path d="M34.3259 0.608191V0.693922H34.4113H34.4967V0.608191V0.522461H34.4113H34.3259V0.608191Z" fill="white"/>
<path d="M34.95 0.701956L34.8611 0.706528V0.789973V0.874561L34.679 0.882562L34.4968 0.891706V0.975151V1.05974H34.4057H34.3147V1.15119V1.24263H34.1381H33.9617V1.33408V1.42553H33.7795H33.5973V1.51697V1.60842H33.4209H33.2443V1.69415V1.77988H33.1613C33.1123 1.77988 33.0725 1.7856 33.0645 1.7936C33.0566 1.8016 33.0508 1.83932 33.0508 1.88505V1.96277H32.8743H32.6979V2.05422V2.14566H32.5157H32.3335V2.05994V1.97421H32.2482H32.1628V2.05994V2.14566H32.2482H32.3335V2.23483V2.32513L32.2117 2.33199C32.1457 2.33656 32.0659 2.33999 32.0352 2.33999H31.9805V2.42572V2.51146H31.8895H31.7984V2.59604V2.68063L31.6162 2.68863L31.4341 2.69778V2.78007V2.86238L31.3122 2.86924C31.2462 2.87381 31.1665 2.87724 31.1358 2.87724H31.0811V2.96298V3.0487L28.8472 3.04985C27.6176 3.05099 26.4813 3.05556 26.3219 3.05899L26.0316 3.06585L26.0281 3.14814L26.0247 3.23159H25.9416H25.8585L25.8493 3.41448L25.8413 3.59739H25.7572H25.6729V3.77455V3.95173H25.5818H25.4907V4.04889V4.14606H25.4053H25.3199V4.20092C25.3199 4.2318 25.3166 4.31181 25.312 4.3781L25.3051 4.50041H25.2232H25.1411L25.1321 4.6833L25.1241 4.8662H25.0342H24.9442V5.04337V5.22055H24.8588H24.7734V5.312V5.40345H24.6823H24.5912V5.58634V5.76923H24.5002H24.4091V5.94641V6.12359H24.3179H24.2269V6.30648V6.48937H24.1358H24.0448V6.58082V6.67227H23.9605H23.8773L23.8682 6.85516L23.8603 7.03805H23.776H23.6918V7.09292C23.6918 7.12379 23.6883 7.20381 23.6838 7.2701L23.677 7.39241H23.5016H23.3274V7.48157V7.57188L23.2056 7.57873C23.1395 7.5833 23.0599 7.58674 23.0291 7.58674H22.9744V7.67246V7.75819H22.7923H22.6101V7.84964V7.94109H22.519H22.428V8.02682V8.11255H22.2674C22.1797 8.11255 22.0978 8.11827 22.0853 8.12398C22.0671 8.13427 22.0636 8.14913 22.0636 8.21429V8.29201L21.9418 8.29887C21.8757 8.30345 21.796 8.30687 21.7653 8.30687H21.7106V8.3926V8.47834H21.6196H21.5285V8.56978V8.66123H21.3463H21.1642V8.75268V8.84412H20.9876H20.8112V8.92871V9.0133L20.629 9.0213L20.4468 9.03044V9.11389V9.19848H20.3558H20.2647V9.28993V9.38137H20.1042C20.0164 9.38137 19.9345 9.38709 19.9219 9.3928C19.9037 9.40309 19.9004 9.41795 19.9004 9.48425V9.56427H19.7238H19.5474V9.65571V9.74716H19.4563H19.3652V12.2791V14.8111H19.2741H19.183V14.9939V15.1768H19.092H19.0009V15.3539V15.5312H18.9097H18.8187V15.6226V15.714H18.7344H18.6513L18.6422 15.8969L18.6342 16.0799H18.55H18.4657V16.257V16.4341H18.3746H18.2836V16.6171V16.8H18.1925H18.1013V16.8915V16.9829H18.0172H17.934L17.9249 17.1657L17.9169 17.3487H17.8327H17.7484V17.4035C17.7484 17.4343 17.745 17.5144 17.7404 17.5807L17.7337 17.703H17.6505H17.5674L17.564 17.7967L17.5606 17.8916L17.4729 17.8951L17.3841 17.8984V18.0745V18.2517H17.2929H17.2019V18.4289V18.6049L17.1199 18.6083C17.0437 18.6118 17.0368 18.614 17.03 18.6403C17.0254 18.6563 17.022 18.7786 17.0209 18.9113L17.0198 19.1547H17.1108H17.2019V19.3376V19.5205H17.1165H17.0311V19.6062V19.692H17.1165H17.2019V19.6062V19.5205H17.2929H17.3841V19.612V19.7034H17.4684H17.5526L17.5606 19.8863L17.5697 20.0692H17.6516H17.7337L17.7404 20.1915C17.745 20.2578 17.7484 20.3378 17.7484 20.3687V20.4236H17.8315H17.9158L17.9227 20.5458C17.9272 20.6122 17.9306 20.6922 17.9306 20.7231V20.7779H18.016H18.1013V20.8751V20.9722H18.1925H18.2836V21.1494V21.3265H18.3746H18.4657V21.5094V21.6924H18.5488H18.6331L18.6399 21.8146C18.6445 21.881 18.6479 21.961 18.6479 21.9919V22.0467H18.7333H18.8187V22.1301C18.8187 22.1793 18.8244 22.2194 18.8324 22.2274C18.8404 22.2354 18.8779 22.241 18.9234 22.241H19.0009V22.4182V22.5954H19.092H19.183V22.7726V22.9497H19.2741H19.3652V25.4874V28.025H19.4563H19.5474V28.1108V28.1965H19.6021C19.6328 28.1965 19.7125 28.1999 19.7785 28.2045L19.9004 28.2114V28.2936V28.376L20.0825 28.3851L20.2647 28.3931V28.4777V28.5622H20.3558H20.4468V28.6537V28.7452H20.629H20.8112V28.8366V28.9281H20.9876H21.1642V29.0195V29.111H21.2609H21.3577V29.1967V29.2824H21.4123C21.4431 29.2824 21.5228 29.2858 21.5889 29.2904L21.7106 29.2973V29.3818V29.4653H21.8872H22.0636V29.5568V29.6482H22.2457H22.428V29.7397V29.8311H22.519H22.6101V29.9157V29.9992L22.7923 30.0083L22.9744 30.0163V30.1065V30.1969H23.151H23.3274V30.2826V30.3684H23.3821C23.4128 30.3684 23.4914 30.3718 23.5574 30.3752L23.6781 30.3832L23.6861 30.5581L23.6941 30.7341H23.7771H23.8603L23.8682 30.917L23.8773 31.0999H23.9594H24.0413L24.0481 31.2222C24.0527 31.2885 24.0561 31.3685 24.0561 31.3994V31.4542H24.1415H24.2269V31.5457V31.6372H24.3179H24.4091V31.8201V32.003H24.5002H24.5912V32.1801V32.3562L24.68 32.3596L24.7678 32.3631L24.7711 32.5424L24.7746 32.7231H24.8588H24.9442V32.8145V32.906H25.0353H25.1263V33.0672C25.1263 33.1552 25.1321 33.2375 25.1378 33.25C25.148 33.2684 25.1628 33.2718 25.2277 33.2718H25.3051L25.312 33.394C25.3166 33.4604 25.3199 33.5404 25.3199 33.5713V33.6261H25.4053H25.4907V33.7176V33.809H25.5818H25.6729V33.9919V34.1749H25.7572H25.8413L25.8493 34.3577L25.8585 34.5406H25.9416H26.0258V34.6263V34.7121L28.5512 34.7143L31.0754 34.7177L31.0789 34.8058L31.0822 34.895H31.2575H31.4341V34.9864V35.0778H31.6162H31.7984V35.1693V35.2607H31.8895H31.9805V35.3464V35.4322H32.0352C32.0659 35.4322 32.1457 35.4357 32.2117 35.4402L32.3335 35.4471V35.5293V35.6117L32.5157 35.6208L32.6979 35.6288V35.7134V35.798H32.8743H33.0508V35.8894V35.9809H33.1476H33.2443V36.0723V36.1638H33.4209H33.5973V36.2553V36.3466H33.7738H33.9503V36.4266C33.9503 36.5021 33.9515 36.5079 33.9799 36.5181C33.9958 36.525 34.0779 36.5295 34.162 36.5295H34.3147V36.6153V36.701H34.4057H34.4968V36.7925V36.8839H34.679H34.8611V36.9754V37.0669H35.1344H35.4077V36.9754V36.8839H35.5842H35.7606V36.8005V36.7159L35.8825 36.709C35.9485 36.7045 36.0282 36.701 36.0589 36.701H36.1136V36.6153V36.5295H36.2103H36.3072V36.4381V36.3466H36.4836H36.6601V36.2553V36.1638H36.8423H37.0244V36.0723V35.9809H37.201H37.3774V35.8894V35.798H37.4741H37.571V35.7145V35.6299L37.6928 35.6231C37.7589 35.6185 37.8385 35.6151 37.8693 35.6151H37.924V35.5305V35.4459L38.1061 35.4379L38.2883 35.4288V35.3453V35.2607H38.3794H38.4704V35.1693V35.0778H38.6469H38.8234V34.9864V34.895H39.0055H39.1878V34.8035V34.7121H41.7097H44.2316V34.6206V34.5292H44.3227H44.4137V34.352V34.1749H44.5049H44.596V34.0776V33.9805H44.6813H44.7667V33.9256C44.7667 33.8947 44.7702 33.8147 44.7747 33.7484L44.7815 33.6261H44.8658H44.9489V33.5713C44.9489 33.5404 44.9523 33.4604 44.9569 33.394L44.9637 33.2718H45.0479H45.1311V33.0889V32.906H45.2221H45.3132V32.8145V32.7231H45.3975H45.4806L45.4897 32.5402L45.4976 32.3573H45.5877H45.6775V32.1801V32.003H45.7687H45.8598V31.8201V31.6372H45.9451H46.0294L46.0329 31.548L46.0362 31.46L46.125 31.4566L46.2128 31.4531V31.2771V31.0999H46.3038H46.3949V30.917V30.7341H46.4859H46.5771V30.5593V30.3832L46.6988 30.3764C46.7649 30.3718 46.8446 30.3684 46.8754 30.3684H46.93V30.2826V30.1969H47.1122H47.2943V30.1054V30.014H47.4709H47.6473V29.9225V29.8311H47.7441H47.8409V29.7397V29.6482H48.0173H48.1938V29.5568V29.4653H48.376H48.5581V29.3796V29.2938H48.6493H48.7404V29.2024V29.111H48.9168H49.0933V29.0195V28.9281H49.2755H49.4577V28.8366V28.7452H49.6341H49.8106V28.6537V28.5622H49.9074H50.0042V28.4789V28.3942L50.126 28.3874C50.192 28.3829 50.2718 28.3794 50.3025 28.3794H50.3571V28.2947V28.2102L50.5393 28.2022L50.7215 28.1931V28.1096V28.0261L50.8045 28.0228L50.8866 28.0193L50.8934 27.7279C50.8968 27.5678 50.9014 26.427 50.9025 25.1925L50.9036 22.9497H50.989H51.0744V22.8949C51.0744 22.864 51.0778 22.784 51.0824 22.7177L51.0892 22.5954H51.1734H51.2566V22.4182V22.241H51.3477H51.4387V22.1439V22.0467H51.5299H51.6209V21.8695V21.6924H51.712H51.8031V21.5094V21.3265H51.8942H51.9853V21.2352V21.1437H52.0707H52.1561V20.9665V20.7893H52.2471H52.3382V20.6064V20.4236H52.4293H52.5204V20.2463V20.0692H52.6115H52.7025V19.972V19.8748H52.7879H52.8734V19.82C52.8734 19.7891 52.8767 19.7091 52.8813 19.6429L52.8882 19.5205H52.9701H53.0521L53.0612 19.3376L53.0692 19.1547H53.1524H53.2343L53.24 19.0199C53.2434 18.9466 53.2434 18.8233 53.24 18.7455L53.2343 18.606H53.1524H53.0703L53.0635 18.4838C53.059 18.4174 53.0555 18.3374 53.0555 18.3065V18.2517H52.9725H52.8882L52.8813 18.1294C52.8767 18.0631 52.8734 17.9831 52.8734 17.9522V17.8973H52.7879H52.7025V17.8002V17.703H52.6115H52.5204V17.5201V17.3372H52.4293H52.3382V17.1601V16.9829H52.2471H52.1561V16.8057V16.6285H52.0707H51.9853V16.5451C51.9853 16.4959 51.9796 16.4559 51.9716 16.4479C51.9636 16.4399 51.926 16.4341 51.8806 16.4341H51.8031V16.257V16.0799H51.712H51.6209V15.9026V15.7255H51.5299H51.4387V15.6283V15.5312H51.3477H51.2566V15.3539V15.1768H51.1723H51.0881L51.0802 14.9939L51.071 14.8111H50.9879H50.9036V12.2791V9.74716H50.8125H50.7215V9.65571V9.56427H50.5393H50.3571V9.47282V9.38137H50.1806H50.0042V9.30364C50.0042 9.25792 49.9985 9.22019 49.9905 9.2122C49.9826 9.2042 49.9427 9.19848 49.8937 9.19848H49.8106V9.11275V9.02702H49.756C49.7252 9.02702 49.6455 9.02359 49.5794 9.01902L49.4577 9.01215V8.92757V8.84412H49.2755H49.0933V8.75268V8.66123H48.9168H48.7404V8.56978V8.47834H48.6493H48.5581V8.38689V8.29545H48.376H48.1938V8.204V8.11255H48.0173H47.8409V8.02682V7.94224L47.7475 7.9388L47.653 7.93537L47.6496 7.84622L47.6462 7.75819H47.4709H47.2943V7.66675V7.5753H47.1179H46.9414V7.49528C46.9414 7.41985 46.9402 7.41413 46.9118 7.40384C46.8959 7.39699 46.8139 7.39241 46.7296 7.39241H46.5771V7.21523V7.03805H46.4859H46.3949V6.85516V6.67227H46.3038H46.2128V6.49509V6.31906L46.125 6.31563L46.0362 6.3122L46.0329 6.21732L46.0294 6.12359H45.9451H45.8598V5.94641V5.76923H45.7698H45.6799L45.6719 5.58634L45.6627 5.40345H45.5797H45.4954V5.312V5.22055H45.4044H45.3132V5.03766V4.85477H45.2221H45.1311V4.67759V4.50041H45.0479H44.9637L44.9569 4.3781C44.9523 4.31181 44.9489 4.2318 44.9489 4.20092V4.14606H44.8635H44.7781V4.06262C44.7781 4.01346 44.7724 3.97346 44.7644 3.96546C44.7565 3.95745 44.7189 3.95173 44.6733 3.95173H44.596V3.77455V3.59739H44.5049H44.4137V3.43621C44.4137 3.34819 44.4081 3.26589 44.4024 3.25331C44.3922 3.23503 44.3774 3.23159 44.3113 3.23159H44.2316V3.14014V3.0487H41.7097H39.1878V2.96411V2.88067L39.0055 2.87152L38.8234 2.86352V2.77893V2.69435H38.7687C38.738 2.69435 38.6583 2.69091 38.5923 2.68635L38.4704 2.67949V2.59489V2.51146H38.3794H38.2883V2.42001V2.32856H38.1061H37.924V2.23711V2.14566H37.7474H37.571V2.06565C37.571 1.99021 37.5699 1.98449 37.5414 1.97421C37.5254 1.96734 37.4434 1.96277 37.3592 1.96277H37.2066V1.88505C37.2066 1.83932 37.201 1.8016 37.1929 1.7936C37.1849 1.7856 37.1474 1.77988 37.1019 1.77988H37.0244V1.69415V1.60842H36.8423H36.6601V1.51697V1.42553H36.4836H36.3072V1.33408V1.24263H36.2103H36.1136V1.1569V1.07117H36.0589C36.0282 1.07117 35.9485 1.06774 35.8825 1.06317L35.7606 1.05631V0.971723V0.888278H35.706C35.6752 0.888278 35.5955 0.884848 35.5295 0.880276L35.4077 0.873417V0.788829V0.705384H35.3587C35.3314 0.705384 35.2483 0.703098 35.1731 0.700812C35.0991 0.698526 34.9978 0.698526 34.95 0.701956ZM35.4054 2.60519L35.4088 2.69435H35.5842H35.7606V2.7858V2.87724H35.9428H36.1249V2.96869V3.06013H36.3015H36.4779V3.15158V3.24303H36.569H36.6601V3.32761V3.41106L36.8423 3.42021L37.0244 3.42821V3.51279V3.59739H37.201H37.3774V3.68883V3.78028H37.4741H37.571V3.866V3.95173H37.6256C37.6564 3.95173 37.7361 3.95516 37.8021 3.95973L37.924 3.9666V4.05004V4.13349L38.0127 4.13691L38.1004 4.14034V4.2318V4.32324L38.0127 4.32667L37.924 4.33009V4.50613V4.6833H37.8328H37.7417V4.86048V5.03766H37.6507H37.5595V5.22055V5.40345H37.4685H37.3774V5.49489V5.58634H37.2931H37.2101L37.201 5.76923L37.1929 5.95212H37.1087H37.0244V6.007C37.0244 6.03786 37.0211 6.11788 37.0165 6.18417L37.0096 6.30648H36.9253H36.8423V6.48937V6.67227H36.7512H36.6601V6.76371V6.85516H36.5747H36.4893V6.91003C36.4893 6.94089 36.4859 7.02091 36.4825 7.08721L36.4745 7.20837L36.3937 7.21181L36.3128 7.21523V7.5753V7.93537L36.3937 7.9388L36.4745 7.94224L36.4825 8.06339C36.4859 8.12969 36.4893 8.20971 36.4893 8.24057V8.29545H36.5747H36.6601V8.3926V8.48976H36.7512H36.8423V8.66694V8.84412H36.9266H37.0107L37.0187 9.02702L37.0278 9.20991H37.1098H37.1918L37.1986 9.33222C37.2032 9.39851 37.2066 9.47853 37.2066 9.50939V9.56427H37.292H37.3774V9.64771C37.3774 9.69686 37.3831 9.73687 37.3911 9.74487C37.3991 9.75287 37.4367 9.75858 37.4821 9.75858H37.5595V9.93576V10.1129H37.6507H37.7417V10.2901V10.4673H37.8328H37.924V10.5645V10.6616H38.007H38.0913L38.0981 10.784C38.1026 10.8502 38.1061 10.9302 38.1061 10.9611V11.016H38.1915H38.2769V11.1075V11.1989H38.1915H38.1061V11.2835V11.3681L37.924 11.3761L37.7417 11.3852V11.4686V11.5532H37.6507H37.5595V11.6447V11.7361H37.3991C37.3114 11.7361 37.2294 11.7418 37.2169 11.7476C37.1986 11.7578 37.1952 11.7727 37.1952 11.839V11.9191H37.0187H36.8423V12.0104V12.1019H36.7512H36.6601V12.1877V12.2734H36.4995C36.4119 12.2734 36.33 12.2791 36.3174 12.2848C36.2992 12.2951 36.2957 12.3099 36.2957 12.3763V12.4563H36.1193H35.9428V12.5477V12.6392H35.7823C35.6946 12.6392 35.6126 12.6449 35.6001 12.6505C35.5818 12.6609 35.5785 12.6758 35.5785 12.742V12.822H35.4019H35.2255V12.9135V13.0049H35.1288H35.0319V12.9135V12.822H34.8555H34.679V12.7306V12.6392H34.5025H34.326V12.5477V12.4563H34.1438H33.9617V12.3648V12.2734H33.8706H33.7795V12.1877V12.1031L33.6008 12.0996L33.4209 12.0962L33.4175 12.0071L33.414 11.9191H33.2387H33.0622V11.8276V11.7361H32.8858H32.7092V11.6583C32.7092 11.6127 32.7036 11.575 32.6956 11.567C32.6877 11.559 32.6477 11.5532 32.5988 11.5532H32.5157V11.4618V11.3703H32.3392H32.1628V11.2846V11.1989H32.0716H31.9805V11.1075V11.016H32.0716H32.1628V10.9245V10.8331H32.247H32.3301L32.3392 10.6502L32.3472 10.4673H32.4315H32.5157V10.4124C32.5157 10.3816 32.5191 10.3015 32.5237 10.2353L32.5305 10.1129H32.6147H32.6979V10.0581C32.6979 10.0272 32.7013 9.9472 32.7059 9.8809L32.7127 9.75858H32.7969H32.88V9.66143V9.56427H32.9654H33.0508V9.50939C33.0508 9.47853 33.0542 9.39851 33.0588 9.33222L33.0657 9.20991H33.1442C33.2171 9.20991 33.2228 9.20762 33.233 9.18018C33.2398 9.16418 33.2443 9.08189 33.2443 8.99729V8.84412H33.3355H33.4266V8.66694V8.48976H33.504C33.5495 8.48976 33.5871 8.48405 33.595 8.47605C33.603 8.46805 33.6087 8.42804 33.6087 8.37889V8.29545H33.6941H33.7795V8.11827V7.94109H33.8706H33.9617V7.5753V7.20952H33.8785H33.7944L33.7875 7.08721C33.7829 7.02091 33.7795 6.94089 33.7795 6.91003V6.85516H33.6941H33.6087V6.76371V6.67227H33.5176H33.4266V6.48937V6.30648H33.3355H33.2443V6.1293V5.95212H33.1533H33.0622V5.76923V5.58634H32.9712H32.88V5.49489V5.40345H32.7958H32.7116L32.7036 5.22055L32.6944 5.03766H32.6125H32.5305L32.5237 4.91535C32.5191 4.84906 32.5157 4.76904 32.5157 4.73817V4.6833H32.4326H32.3483L32.3414 4.561C32.337 4.4947 32.3335 4.41469 32.3335 4.38382V4.32895H32.2482H32.1628V4.2318V4.13463H32.2482H32.3335V4.05004V3.96546L32.5157 3.95745L32.6979 3.94831V3.86486V3.78028H32.7889H32.88V3.68883V3.59739H33.0622H33.2443V3.51394V3.42934L33.3662 3.42249C33.4322 3.41792 33.512 3.41448 33.5426 3.41448H33.5973V3.32876V3.24303H33.6805C33.7294 3.24303 33.7692 3.23731 33.7772 3.2293C33.7852 3.2213 33.7909 3.18358 33.7909 3.13786V3.06013H33.9674H34.1438V2.96869V2.87724H34.3044C34.3921 2.87724 34.474 2.87152 34.4866 2.86581C34.5048 2.85552 34.5082 2.84066 34.5082 2.77436V2.69435H34.6847H34.8611V2.6029V2.51146L35.1321 2.51374L35.4019 2.51717L35.4054 2.60519ZM30.7167 4.77475V4.8662H30.801H30.8853L30.8932 5.0491L30.9023 5.23199H30.9844H31.0663L31.0731 5.3543C31.0776 5.4206 31.0811 5.50061 31.0811 5.53148V5.58634H31.1654H31.2496L31.2575 5.76923L31.2667 5.95212H31.3498H31.4341V6.04357V6.13502H31.5251H31.6162V6.3122V6.48937H31.7073H31.7984V6.67227V6.85516H31.8895H31.9805V7.03234V7.20952H32.0659H32.1513V7.30668V7.40384H32.2425H32.3335V7.58102V7.75819H32.2425H32.1513V7.84964V7.94109H32.0659H31.9805V8.11827V8.29545H31.8895H31.7984V8.47834V8.66123H31.7073H31.6162V8.83841V9.01559H31.5251H31.4341V9.11275V9.20991H31.3429H31.2519V9.38709V9.56427H31.1676H31.0845L31.0754 9.74716L31.0674 9.93005H30.9831H30.899V10.0215V10.1129H30.8078H30.7167V10.2901V10.4673H30.6257H30.5346V10.6502V10.8331H28.7356H26.9367V10.7416V10.6502H26.8456H26.7546V10.473V10.297L26.6669 10.2935L26.578 10.2901L26.5746 10.1952L26.5712 10.1015H26.4881H26.405L26.3981 9.9792C26.3936 9.9129 26.3901 9.83289 26.3901 9.80202V9.74716H26.3071H26.2228L26.216 9.62485C26.2115 9.55855 26.208 9.47853 26.208 9.44767V9.3928H26.1237H26.0395L26.0316 9.20991L26.0224 9.02702H25.9393H25.855V8.93557V8.84412H25.764H25.6729V8.66123V8.47834H25.5818H25.4907V8.30116V8.12398H25.4053H25.3199V8.04053C25.3199 7.99138 25.3142 7.95137 25.3062 7.94337C25.2983 7.93537 25.2607 7.92966 25.2152 7.92966H25.1378V7.75248V7.5753H25.2288H25.3199V7.39812V7.22094H25.4042H25.4873L25.4964 7.03805L25.5043 6.85516H25.5886H25.6729V6.76371V6.67227H25.764H25.855V6.49509V6.31792H25.9347C26.0099 6.31792 26.0156 6.31677 26.0258 6.2882C26.0327 6.2722 26.0372 6.18989 26.0372 6.1053V5.95212H26.1283H26.2194V5.86068V5.76923H26.3036H26.3868L26.3959 5.58634L26.4038 5.40345H26.4881H26.5724V5.34858C26.5724 5.31771 26.5758 5.2377 26.5804 5.17141L26.5871 5.0491H26.6714H26.7546V4.95193V4.85477H26.84H26.9254V4.76904V4.6833H28.821H30.7167V4.77475ZM43.5086 4.8662L43.5177 5.0491H43.6009H43.6851V5.22627V5.40345H43.775H43.8649L43.8729 5.58634L43.8821 5.76923H43.9652H44.0494V5.86068V5.95212H44.1406H44.2316V6.1293V6.30648H44.3159H44.4001L44.4081 6.48937L44.4172 6.67227H44.5003H44.5845V6.76371V6.85516H44.6757H44.7667V7.03805V7.22094H44.8578H44.9489V7.39812V7.5753H45.04H45.1311V7.75248V7.92966H45.0537C45.0081 7.92966 44.9705 7.93537 44.9625 7.94337C44.9546 7.95137 44.9489 7.99138 44.9489 8.04053V8.12398H44.8578H44.7667V8.30116V8.47834H44.6825H44.5994L44.5903 8.66123L44.5823 8.84412H44.498H44.4137V8.899C44.4137 8.92986 44.4104 9.00987 44.4058 9.07616L44.3989 9.19848H44.3159H44.2327L44.2293 9.29222L44.2259 9.38709L44.1382 9.39051L44.0494 9.39395V9.56998V9.74716H43.9583H43.8673V9.92434V10.1015H43.7876C43.7124 10.1015 43.7067 10.1027 43.6965 10.1312C43.6896 10.1472 43.6851 10.2295 43.6851 10.3141V10.4673H43.594H43.5029V10.5587V10.6502H43.4175H43.3322V10.7416V10.8331H41.5344H39.7366L39.7286 10.6502L39.7194 10.4673H39.6364H39.5521V10.2901V10.1129H39.4609H39.3699V10.0295C39.3699 9.98035 39.3642 9.94034 39.3562 9.93234C39.3483 9.92434 39.3107 9.91862 39.2651 9.91862H39.1878V9.74145V9.56427H39.0966H39.0055V9.38709V9.21106L38.9179 9.20762L38.8291 9.2042L38.8256 9.02359L38.8222 8.84412H38.738H38.6526V8.75268V8.66123H38.5615H38.4704V8.47834V8.29545H38.3794H38.2883V8.11827V7.94109H38.1995H38.1095L38.1026 7.81878C38.0981 7.75248 38.0947 7.67246 38.0947 7.6416V7.58674H38.0093H37.924V7.49528V7.40384H38.015H38.1061V7.30668V7.20952H38.1971H38.2883V7.03234V6.85516H38.3794H38.4704V6.67798V6.50081H38.5478C38.5934 6.50081 38.631 6.49509 38.639 6.48709C38.6469 6.47909 38.6526 6.43908 38.6526 6.38993V6.30648H38.738H38.8234V6.1293V5.95212H38.9145H39.0055V5.76923V5.58634H39.0966H39.1878V5.40916V5.23199H39.2788H39.3699V5.14054V5.0491H39.4542H39.5373L39.5463 4.8662L39.5543 4.6833H41.5275H43.5006L43.5086 4.8662ZM24.0561 8.93557V9.02702H24.1415H24.2269V9.2042V9.38137H24.3179H24.4091V9.47853V9.57569H24.5002H24.5912V9.75287V9.93005H24.6823H24.7734V10.1129V10.2958H24.8565H24.9408L24.9477 10.4181C24.9522 10.4844 24.9556 10.5645 24.9556 10.5953V10.6502H25.0409H25.1263V10.7416V10.8331H25.2175H25.3086V11.016V11.1989H25.3996H25.4907V11.3761V11.5532H25.5818H25.6729V11.6503V11.7476H25.7583H25.8437V11.9031C25.8437 11.9876 25.8493 12.0676 25.855 12.0802C25.8653 12.0984 25.8801 12.1019 25.9462 12.1019H26.0258V12.1933V12.2848H28.0981H30.1703V14.0909V15.8969H29.9937H29.8173V15.9884V16.0799H29.6408H29.4655L29.4621 16.1679L29.4586 16.257L29.3652 16.2604L29.2707 16.2639V16.3473V16.4307L29.149 16.4376C29.0829 16.4422 29.0032 16.4456 28.9724 16.4456H28.9178V16.5302V16.6147L28.7356 16.6227L28.5535 16.632V16.7142V16.7965L28.4316 16.8034C28.3656 16.808 28.2859 16.8114 28.2552 16.8114H28.2005V16.8971V16.9829H28.1038H28.0069V17.0743V17.1657H27.8305H27.654V17.2503V17.335L27.4718 17.343L27.2897 17.3521V17.4343V17.5167L27.1678 17.5236C27.1018 17.5281 27.0221 17.5316 26.9914 17.5316H26.9367V17.6173V17.703H26.8456H26.7546V17.6116V17.5201H26.6714H26.5871L26.5804 17.3978C26.5758 17.3315 26.5724 17.2515 26.5724 17.2206V17.1657H26.4881H26.4038L26.3959 16.9829L26.3868 16.8H26.3047H26.2228L26.216 16.6776C26.2115 16.6114 26.208 16.5314 26.208 16.5005V16.4456H26.1226H26.0372V16.3541V16.2627H25.9462H25.855V16.0799V15.8969H25.764H25.6729V15.7198V15.5437L25.5852 15.5403L25.4964 15.5369L25.493 15.442L25.4896 15.3483H25.4053H25.3199V15.1711V14.9939H25.2288H25.1378V14.8111V14.6281H24.9556H24.7734V14.5423V14.4567H22.8857H20.9967L20.9899 13.4941C20.9797 12.2711 20.9797 11.3017 20.9899 10.8411L20.9967 10.4787H21.1721H21.3463V10.3873V10.2958H21.5285H21.7106V10.2044V10.1129H21.8872H22.0636V10.0215V9.93005H22.1603H22.2572V9.8466V9.76202L22.379 9.75516C22.4451 9.75058 22.5247 9.74716 22.5555 9.74716H22.6101V9.66257V9.57798L22.7923 9.56998L22.9744 9.56083V9.47853V9.39624L23.0963 9.38937C23.1623 9.3848 23.242 9.38137 23.2728 9.38137H23.3274V9.29564V9.20991H23.4185H23.5096V9.11846V9.02702H23.6918H23.874V8.93557V8.84412H23.965H24.0561V8.93557ZM46.3949 8.93557V9.02702H46.5713H46.7479V9.11846V9.20991H46.93H47.1122V9.30135V9.3928H47.2033H47.2943V9.47853V9.56427H47.349C47.3797 9.56427 47.4594 9.56769 47.5255 9.57227L47.6473 9.57913V9.66143V9.74372L47.8294 9.75287L48.0117 9.76087V9.84547V9.93005H48.1027H48.1938V10.0215V10.1129H48.376H48.5581V10.2044V10.2958H48.7347H48.9111V10.3873V10.4787H49.0933H49.2755V12.1933V13.908H47.2033H45.1311V14.0909V14.2737H45.04H44.9489V14.451V14.6281H44.8578H44.7667V14.8111V14.9939H44.6757H44.5845V15.0853V15.1768H44.4991H44.4137V15.2317C44.4137 15.2625 44.4104 15.3425 44.4058 15.4088L44.3989 15.5312H44.317H44.2351L44.2259 15.714L44.2179 15.8969H44.1337H44.0494V16.0741V16.2513H43.9583H43.8673V16.3485V16.4456H43.7762H43.6851V16.6227V16.8H43.6009H43.5177L43.5086 16.9829L43.5006 17.1657H43.4164H43.3333L43.3298 17.2537L43.3265 17.343L43.2388 17.3463L43.1499 17.3498V17.4343V17.5201H43.0589H42.9678V17.4343V17.3487H42.9131C42.8824 17.3487 42.8027 17.3452 42.7367 17.3407L42.6148 17.3338V17.2492V17.1657H42.4327H42.2505V17.0743V16.9829H42.1594H42.0684V16.8915V16.8H41.8918H41.7154V16.72C41.7154 16.6445 41.7142 16.6387 41.6858 16.6285C41.6698 16.6216 41.5878 16.6171 41.5036 16.6171H41.351V16.5256V16.4341H41.1688H40.9867V16.3485V16.2639L40.899 16.2604L40.8102 16.257L40.8068 16.1679L40.8033 16.0799H40.628H40.4516V15.9884V15.8969H40.2693H40.0872V14.0909V12.2848H42.1594H44.2316V12.1933V12.1019H44.3227H44.4137V11.9247V11.7476H44.5049H44.596V11.6503V11.5532H44.687H44.7781V11.3761V11.1989H44.8635H44.9477L44.9512 11.104L44.9546 11.0102L45.0434 11.0069L45.1311 11.0034V10.8274V10.6502H45.2221H45.3132V10.473V10.2958H45.4044H45.4954V10.1129V9.93005H45.5865H45.6775V9.8386V9.74716H45.763H45.8484V9.69229C45.8484 9.66143 45.8518 9.58142 45.8563 9.51511L45.8632 9.3928H45.9451H46.0271L46.0362 9.20991L46.0442 9.02702H46.1285H46.2128V8.93557V8.84412H46.3038H46.3949V8.93557ZM31.7984 12.9135V13.0049H31.9805H32.1628V13.0964V13.1879H32.3392H32.5157V13.2793V13.3707H32.6979H32.88V13.4621V13.5536H33.0566H33.233V13.6451V13.7365H33.3241H33.4151V13.8222V13.908H33.5973H33.7795V13.9995V14.0909H33.956H34.1325V14.1823V14.2737H34.3147H34.4968V14.3652V14.4567H34.5879H34.679V14.5412V14.6247L34.8611 14.6338L35.0434 14.6418V14.7322V14.8224H35.1208C35.1663 14.8224 35.2039 14.8167 35.2118 14.8087C35.2198 14.8007 35.2255 14.763 35.2255 14.7173V14.6396H35.4019H35.5785V14.5492V14.459L35.7606 14.451L35.9428 14.4418V14.3583V14.2737H36.0339H36.1249V14.1823V14.0909H36.3072H36.4893V14.0075V13.9229L36.6111 13.916C36.6772 13.9114 36.7569 13.908 36.7876 13.908H36.8423V13.8245V13.74L36.9641 13.7331C37.0302 13.7285 37.1098 13.7251 37.1406 13.7251H37.1952V13.6394V13.5536H37.292H37.3887V13.4621V13.3707H37.5653H37.7417V13.2793V13.1879H37.924H38.1061V13.0964V13.0049H38.1971H38.2883V12.9215V12.8369L38.4101 12.83C38.4761 12.8255 38.5558 12.822 38.5866 12.822H38.6412V14.8098V16.7965L38.8234 16.8057L39.0055 16.8137V16.8982V16.9829H39.0602C39.0909 16.9829 39.1706 16.9863 39.2367 16.9909L39.3585 16.9977V17.0823V17.1657H39.4553H39.5521V17.2572V17.3487H39.7286H39.905V17.4401V17.5316H40.0815H40.258V17.6093C40.258 17.655 40.2637 17.6927 40.2717 17.7007C40.2796 17.7087 40.3195 17.7144 40.3684 17.7144H40.4516V17.8002V17.8859H40.5062C40.5369 17.8859 40.6167 17.8893 40.6827 17.8939L40.8045 17.9008V17.9831V18.0653L40.9867 18.0745L41.1688 18.0825V18.1671V18.2517H41.3453H41.5218V18.3432V18.4345H41.6185H41.7154V18.6118V18.7889H41.6185H41.5218V18.8804V18.9718H41.3453H41.1688V19.0633V19.1547H40.9867H40.8045V19.2461V19.3376H40.7134H40.6223V19.4222V19.5067L40.4401 19.5147L40.258 19.524V19.6074V19.692H40.0815H39.905V19.7834V19.8748H39.7286H39.5521V19.9663V20.0577H39.4553H39.3585V20.1492V20.2406H39.182H39.0055V20.3252V20.4098L38.8234 20.4178L38.6412 20.427V22.5909V24.7558H38.5558H38.4704V24.6701V24.5855L38.377 24.582L38.2825 24.5786L38.2792 24.4895L38.2757 24.4014H38.1004H37.924V24.31V24.2185H37.7474H37.571V24.1385C37.571 24.0632 37.5699 24.0574 37.5414 24.0471C37.5254 24.0403 37.4434 24.0357 37.3592 24.0357H37.2066V23.9442V23.8528H37.1156H37.0244V23.7682V23.6847L36.8423 23.6756L36.6601 23.6676V23.5831V23.4984H36.6055C36.5747 23.4984 36.4951 23.495 36.429 23.4904L36.3072 23.4836V23.399V23.3156H36.1249H35.9428V23.2241V23.1326H35.8517H35.7606V23.0412V22.9497H35.5842H35.4088L35.4054 22.8675C35.4019 22.7909 35.3997 22.784 35.3735 22.7771C35.3576 22.7726 35.2357 22.7691 35.1036 22.768L34.8611 22.7669V22.856V22.9463L34.7393 22.9532C34.6733 22.9577 34.5936 22.9612 34.5628 22.9612H34.5082V23.047V23.1326H34.4114H34.3147V23.2241V23.3156H34.1381H33.9628L33.9595 23.4036L33.956 23.4927L33.7772 23.4962L33.5973 23.4996V23.5831V23.6664L33.4755 23.6733C33.4095 23.6779 33.3297 23.6813 33.299 23.6813H33.2443V23.7671V23.8528H33.1613C33.1123 23.8528 33.0725 23.8585 33.0645 23.8665C33.0566 23.8745 33.0508 23.9122 33.0508 23.9579V24.0357H32.8743H32.6979V24.1272V24.2185H32.5214H32.3449V24.31V24.4014H32.2482H32.1513V24.4849V24.5695L32.0296 24.5764C31.9635 24.5809 31.8838 24.5844 31.853 24.5844H31.7984V24.6701V24.7558H31.7073H31.6162V22.9497V21.1437H31.5251H31.4341V21.0579V20.9722H31.3794C31.3487 20.9722 31.269 20.9688 31.2029 20.9642L31.0811 20.9573V20.8784C31.0811 20.8053 31.0789 20.7996 31.0515 20.7893C31.0355 20.7824 30.9536 20.7779 30.8693 20.7779H30.7167V20.6864V20.595H30.5403H30.3638V20.5093V20.4247L30.2705 20.4212L30.176 20.4178L30.1725 20.3287L30.1691 20.2406H29.9937H29.8173V20.1492V20.0577H29.6351H29.4529V19.9663V19.8748H29.2765H29.1V19.7834V19.692H29.0089H28.9178V19.6074V19.524L28.7356 19.5147L28.5535 19.5067V19.4222V19.3376H28.4988C28.4681 19.3376 28.3884 19.3341 28.3223 19.3296L28.2005 19.3227V19.2381V19.1547H28.0184H27.8362V18.9798V18.8038L27.958 18.7969C28.024 18.7924 28.1038 18.7889 28.1345 18.7889H28.1891V18.7044V18.6198L28.3713 18.6118L28.5535 18.6026V18.5192V18.4345H28.6446H28.7356V18.3432V18.2517H28.9178H29.1V18.1603V18.0688H29.2765H29.4529V17.9842V17.8996L29.6351 17.8916L29.8173 17.8824V17.7991V17.7144H29.9084H29.9994V17.623V17.5316H30.1816H30.3638V17.4401V17.3487H30.5403H30.7167V17.2572V17.1657H30.8932H31.0685L31.072 17.0766L31.0754 16.9886L31.1699 16.9851L31.2633 16.9817V16.8971V16.8114H31.4398H31.6162V14.8167V12.822H31.7073H31.7984V12.9135ZM49.6285 15.5369V15.714H49.7195H49.8106V15.8969V16.0799H49.8994H49.9894L49.9961 16.2021C50.0007 16.2684 50.0042 16.3485 50.0042 16.3794V16.4341H50.0895H50.1749V16.5314V16.6285H50.2581H50.3424L50.3491 16.7509C50.3537 16.8171 50.3571 16.8971 50.3571 16.928V16.9829H50.4413H50.5256L50.5336 17.1657L50.5427 17.3487H50.6258H50.71V17.4401V17.5316H50.8012H50.8923V17.6927C50.8923 17.7807 50.8979 17.8631 50.9036 17.8756C50.9138 17.8939 50.9286 17.8973 50.9947 17.8973H51.0744V18.0745V18.2517H51.1655H51.2566V18.4289V18.6049L51.3454 18.6083L51.4331 18.6118L51.4365 18.7055L51.4399 18.8004H51.5241H51.6095V18.8861V18.9718H51.5241H51.4387V19.0266C51.4387 19.0575 51.4354 19.1376 51.4308 19.2039L51.4239 19.3261H51.3397H51.2566V19.4234V19.5205H51.1655H51.0744V19.6977V19.8748H50.9833H50.8923V20.0577V20.2406H50.8012H50.71V20.3321V20.4236H50.6258H50.5427L50.5336 20.6064L50.5256 20.7893H50.4413H50.3571V20.9665V21.1437H50.266H50.1749V21.3209V21.498H50.0839H49.9928V21.6809V21.8638H48.0185H46.0442L46.0362 21.6809L46.0271 21.498H45.9451H45.8632L45.8563 21.3758C45.8518 21.3094 45.8484 21.2294 45.8484 21.1985V21.1437H45.7653H45.681L45.6742 21.0214C45.6696 20.9551 45.6662 20.8751 45.6662 20.8442V20.7893H45.5808H45.4954V20.6922V20.595H45.4044H45.3132V20.4178V20.2406H45.2221H45.1311V20.0577V19.8748H45.0479H44.9637L44.9569 19.7526C44.9523 19.6862 44.9489 19.6062 44.9489 19.5754V19.5205H44.8635H44.7781V19.429V19.3376H44.687H44.596V19.1547V18.9718H44.5049H44.4137V18.6118V18.2517H44.5049H44.596V18.0745V17.8973H44.6733C44.7189 17.8973 44.7565 17.8916 44.7644 17.8836C44.7724 17.8756 44.7781 17.8356 44.7781 17.7864V17.703H44.8635H44.9489V17.6482C44.9489 17.6173 44.9523 17.5372 44.9569 17.471L44.9637 17.3487H45.0479H45.1311V17.1657V16.9829H45.2221H45.3132V16.8057V16.6285H45.4044H45.4954V16.5314V16.4341H45.5808H45.6662V16.3794C45.6662 16.3485 45.6696 16.2684 45.6742 16.2021L45.681 16.0799H45.7653H45.8484V16.025C45.8484 15.9941 45.8518 15.914 45.8563 15.8478L45.8632 15.7255H45.9451H46.0271L46.0362 15.5425L46.0442 15.3597H47.8363H49.6285V15.5369ZM24.2269 16.2627V16.4456H24.3179H24.4091V16.6227V16.8H24.5002H24.5912V16.8971V16.9943H24.6744H24.7586L24.7654 17.1166C24.77 17.1829 24.7734 17.263 24.7734 17.2938V17.3487H24.8565H24.9408L24.9477 17.471C24.9522 17.5372 24.9556 17.6173 24.9556 17.6482V17.703H25.0398H25.1241L25.1321 17.8859L25.1411 18.0688H25.2243H25.3086V18.1603V18.2517H25.3996H25.4907V18.4345V18.6175H25.5818H25.6729V18.9775V19.3376H25.5818H25.4907V19.5147V19.692H25.3996H25.3086V19.7834V19.8748H25.2243H25.1411L25.1321 20.0577L25.1241 20.2406H25.0342H24.9442V20.4178V20.595H24.8588H24.7746L24.7711 20.6887L24.7678 20.7836L24.68 20.7871L24.5912 20.7904V20.9665V21.1437H24.5002H24.4091V21.3265V21.5094H24.3179H24.2269V21.6866V21.8638H22.3369H20.4468V21.7781V21.6924H20.3614H20.276V21.6089C20.276 21.5598 20.2704 21.5198 20.2624 21.5118C20.2545 21.5038 20.2169 21.498 20.1713 21.498H20.0939V21.3209V21.1437H20.0028H19.9117V20.9825C19.9117 20.8944 19.906 20.8122 19.9004 20.7996C19.89 20.7813 19.8752 20.7779 19.8092 20.7779H19.7296V20.6007V20.4236H19.6384H19.5474V20.3321V20.2406H19.4631H19.3788L19.3709 20.0577L19.3618 19.8748H19.2798H19.1978L19.191 19.7526C19.1865 19.6862 19.183 19.6062 19.183 19.5754V19.5205H19.0987H19.0145L19.0066 19.3376L18.9975 19.1547H18.9143H18.83V19.0633V18.9718H18.739H18.6479V18.8861V18.8004H18.739H18.83V18.7032V18.606H18.9154H19.0009V18.5512C19.0009 18.5203 19.0042 18.4403 19.0088 18.374L19.0157 18.2517H19.0999H19.183V18.1968C19.183 18.1659 19.1865 18.0859 19.191 18.0197L19.1978 17.8973H19.2798H19.3618L19.3709 17.7144L19.3788 17.5316H19.4631H19.5474V17.4401V17.3487H19.6384H19.7296V17.1657V16.9829H19.8206H19.9117V16.8057V16.6285H20.0028H20.0939V16.5314V16.4341H20.1793H20.2647V16.3794C20.2647 16.3485 20.268 16.2684 20.2726 16.2021L20.2795 16.0799H22.2537H24.2269V16.2627ZM43.1499 19.7891V19.8748H43.2353H43.3207V19.9583C43.3207 20.0075 43.3265 20.0475 43.3344 20.0555C43.3424 20.0635 43.38 20.0692 43.4254 20.0692H43.5029V20.2463V20.4236H43.594H43.6851V20.5847C43.6851 20.6727 43.6908 20.7551 43.6965 20.7676C43.7067 20.7859 43.7215 20.7893 43.7876 20.7893H43.8673V20.9665V21.1437H43.9583H44.0494V21.2352V21.3265H44.1337H44.2179L44.2259 21.5094L44.2351 21.6924H44.317H44.3989L44.4058 21.8146C44.4104 21.881 44.4137 21.961 44.4137 21.9919V22.0467H44.498H44.5823L44.5903 22.2296L44.5994 22.4125H44.6825H44.7667V22.504V22.5954H44.8578H44.9489V22.7566C44.9489 22.8446 44.9546 22.9269 44.9603 22.9395C44.9705 22.9577 44.9853 22.9612 45.0514 22.9612H45.1311V23.1383V23.3156H47.2033H49.2755V25.3045V27.2934H49.1149C49.0273 27.2934 48.9453 27.2992 48.9328 27.3049C48.9146 27.3152 48.9111 27.33 48.9111 27.3963V27.4764H48.8201H48.729V27.5609V27.6455L48.5468 27.6535L48.3647 27.6626V27.745V27.8273L48.2428 27.8341C48.1768 27.8387 48.0971 27.8421 48.0663 27.8421H48.0117V27.9256V28.0101L47.8898 28.017C47.8238 28.0216 47.7441 28.025 47.7134 28.025H47.6587V28.1096V28.1942L47.4766 28.2022L47.2943 28.2114V28.2947V28.3794H47.2033H47.1122V28.4709V28.5622H46.93H46.7479V28.6537V28.7452H46.4803H46.2128V28.6537V28.5622H46.1285H46.0442L46.0362 28.3794L46.0271 28.1965H45.9451H45.8632L45.8563 28.0741C45.8518 28.0079 45.8484 27.9279 45.8484 27.897V27.8421H45.7641H45.6799L45.6719 27.6593L45.6627 27.4764H45.5797H45.4954V27.3849V27.2934H45.4044H45.3132V27.1105V26.9277H45.2221H45.1311V26.7505V26.5733H45.0479H44.9637L44.9569 26.451C44.9523 26.3847 44.9489 26.3047 44.9489 26.2738V26.219H44.8635H44.7781V26.1218V26.0246H44.687H44.596V25.8635C44.596 25.7755 44.5903 25.6931 44.5845 25.6806C44.5743 25.6622 44.5595 25.6589 44.4935 25.6589H44.4137V25.4817V25.3045H44.3227H44.2316V25.213V25.1216H42.1594H40.0872V23.2241V21.3265H40.2693H40.4516V21.2432V21.1585L40.5734 21.1517C40.6395 21.1471 40.7191 21.1437 40.7499 21.1437H40.8045V21.0591V20.9745L40.9867 20.9665L41.1688 20.9573V20.8739V20.7893H41.26H41.351V20.6978V20.6064H41.5116C41.5992 20.6064 41.6812 20.6007 41.6937 20.595C41.7119 20.5847 41.7154 20.5698 41.7154 20.5036V20.4236H41.8918H42.0684V20.3321V20.2406H42.1594H42.2505V20.1561V20.0715L42.4327 20.0635L42.6148 20.0543V19.9708V19.8863H42.7913H42.9678V19.7948V19.7034H43.0589H43.1499V19.7891ZM27.1075 20.3321V20.4236H27.2897H27.4718V20.515V20.6064H27.5629H27.654V20.6978V20.7893H27.8305H28.0069V20.8693C28.0069 20.9448 28.008 20.9505 28.0365 20.9608C28.0525 20.9677 28.1345 20.9722 28.2187 20.9722H28.3713V21.0579V21.1437H28.4623H28.5535V21.2352V21.3265H28.7356H28.9178V21.418V21.5094H29.0943H29.2707V21.6009V21.6924H29.4529H29.6351V21.7838V21.8753H29.7262H29.8173V21.961V22.0467H29.8719C29.9027 22.0467 29.9824 22.0501 30.0484 22.0547L30.1703 22.0616V22.2376V22.4125H30.0848H29.9994V22.4982V22.584H30.0848H30.1703V23.8528V25.1216L28.3406 25.1227C27.3329 25.1239 26.4027 25.1285 26.2706 25.1319L26.0316 25.1387L26.0281 25.221L26.0247 25.3045H25.9416H25.8585L25.8493 25.4874L25.8413 25.6702H25.7572H25.6729V25.8475V26.0246H25.5818H25.4907V26.2076V26.3904H25.3996H25.3086V26.4818V26.5733H25.2232H25.1378V26.6282C25.1378 26.6591 25.1343 26.7391 25.1298 26.8053L25.123 26.9277H25.0409H24.959L24.9499 27.1105L24.9419 27.2934H24.8577H24.7734V27.3483C24.7734 27.3792 24.77 27.4592 24.7654 27.5255L24.7586 27.6478H24.6744H24.5912V27.745V27.8421H24.5002H24.4091V28.0193V28.1965H24.3179H24.2269V28.3794V28.5622H24.1358H24.0448V28.6537V28.7452H23.9058C23.8284 28.7452 23.7077 28.7417 23.6383 28.7372L23.5096 28.7303V28.6457V28.5622H23.3331H23.1566V28.4709V28.3794H23.0599H22.9631V28.2936V28.2079H22.9085C22.8777 28.2079 22.798 28.2045 22.7319 28.1999L22.6101 28.1931V28.1028V28.0136H22.428H22.2457V27.9279V27.8421H22.1911C22.1603 27.8421 22.0807 27.8387 22.0147 27.8341L21.8928 27.8273V27.7426V27.6593H21.8018H21.7106V27.5678V27.4764H21.5285H21.3463V27.3849V27.2934H21.1721H20.9967L20.9899 27.1369C20.9854 27.0512 20.9819 26.1561 20.9819 25.1479V23.3156H23.0541H25.1263V23.2607C25.1263 23.2298 25.1298 23.1498 25.1343 23.0835L25.1411 22.9612H25.2232H25.3051L25.3142 22.7782L25.3222 22.5954H25.4065H25.4896L25.493 22.5005L25.4964 22.4067L25.5852 22.4034L25.6729 22.3999V22.2239V22.0467H25.764H25.855V21.8695V21.6924H25.9462H26.0372V21.5094V21.3265H26.1283H26.2194V21.2352V21.1437H26.3047H26.3901V21.0888C26.3901 21.0579 26.3936 20.9779 26.3981 20.9117L26.405 20.7893H26.4892H26.5724V20.6064V20.4236H26.6634H26.7546V20.3321V20.2406H26.931H27.1075V20.3321ZM35.4077 24.6758V24.7673H35.5842H35.7606V24.8586V24.9501H35.9372H36.1136V25.0279C36.1136 25.0736 36.1193 25.1114 36.1273 25.1194C36.1352 25.1274 36.1751 25.133 36.224 25.133H36.3072V25.2187V25.3045H36.4836H36.6601V25.396V25.4874H36.8423H37.0244V25.5788V25.6702H37.201H37.3774V25.7617V25.8532H37.4741H37.571V25.939V26.0246H37.6256C37.6564 26.0246 37.7361 26.0281 37.8021 26.0326L37.924 26.0395V26.1241V26.2076H38.015H38.1061V26.2624C38.1061 26.2932 38.1026 26.3733 38.0981 26.4396L38.0913 26.5619H38.007H37.924V26.6591V26.7562H37.8328H37.7417V26.9334V27.1105H37.6507H37.5595V27.2934V27.4764H37.4685H37.3774V27.6535V27.8307H37.3C37.2544 27.8307 37.2169 27.8364 37.2089 27.8444C37.201 27.8524 37.1952 27.8924 37.1952 27.9416V28.025H37.1098H37.0244V28.2022V28.3794H36.9333H36.8423V28.5566V28.7337H36.7649C36.7193 28.7337 36.6817 28.7395 36.6737 28.7475C36.6658 28.7555 36.6601 28.7955 36.6601 28.8446V28.9281H36.5747H36.4893V28.983C36.4893 29.0138 36.4859 29.0938 36.4814 29.1601L36.4745 29.2824H36.3926H36.3105L36.3037 29.4391C36.2924 29.6757 36.2946 29.9672 36.3072 29.9923C36.3174 30.0105 36.3322 30.014 36.3971 30.014H36.4745L36.4814 30.1363C36.4859 30.2026 36.4893 30.2826 36.4893 30.3135V30.3684H36.5747H36.6601V30.4518C36.6601 30.5009 36.6658 30.5409 36.6737 30.5489C36.6817 30.5569 36.7193 30.5626 36.7649 30.5626H36.8423V30.7399V30.917H36.9333H37.0244V31.0942V31.2714H37.1098H37.1952V31.3549C37.1952 31.404 37.201 31.444 37.2089 31.452C37.2169 31.46 37.2544 31.4657 37.3 31.4657H37.3774V31.6212C37.3774 31.7057 37.3831 31.7857 37.3887 31.7983C37.3991 31.8166 37.4139 31.8201 37.4799 31.8201H37.5595V31.9812C37.5595 32.0692 37.5653 32.1516 37.571 32.1641C37.5812 32.1824 37.596 32.1858 37.662 32.1858H37.7417V32.3631V32.5402H37.8328H37.924V32.6317V32.7231H38.0081H38.0924L38.1004 32.906L38.1095 33.0889H38.1915H38.2734L38.2803 33.2169C38.2849 33.2878 38.2883 33.4089 38.2883 33.4855V33.6261H38.1915H38.0947V33.7176V33.809H37.9182H37.7417V33.8925V33.977L37.6199 33.9839C37.5538 33.9885 37.4741 33.9919 37.4434 33.9919H37.3887V34.0765V34.1611L37.2066 34.1691L37.0244 34.1782V34.2617V34.3462H36.9333H36.8423V34.4377V34.5292H36.6601H36.4779V34.6206V34.7121H36.3015H36.1262L36.1227 34.8012L36.1193 34.8892L35.9405 34.8927L35.7606 34.8961V34.9864V35.0778H35.6695H35.5785V35.1636V35.2493H35.4179C35.3302 35.2493 35.2483 35.2551 35.2357 35.2607C35.2175 35.2711 35.2141 35.2859 35.2141 35.3522V35.4322H35.1288H35.0434V35.3464V35.2607H34.9522H34.8611V35.1693V35.079L34.6824 35.0756L34.5025 35.0721L34.4991 34.983L34.4957 34.895H34.3204H34.1438V34.8035V34.7121H33.9617H33.7795V34.6206V34.5292H33.603H33.4266V34.4377V34.3462H33.3355H33.2443V34.2617V34.1782L33.0622 34.1691L32.88 34.1611V34.0765V33.9919H32.8254C32.7946 33.9919 32.7149 33.9885 32.6489 33.9839L32.5271 33.977V33.8925V33.809H32.3449H32.1628V33.6319V33.4546H32.2402C32.2857 33.4546 32.3233 33.4489 32.3312 33.4409C32.3392 33.4329 32.3449 33.3929 32.3449 33.3438V33.2604H32.4303H32.5157V33.2055C32.5157 33.1746 32.5191 33.0945 32.5237 33.0283L32.5305 32.906H32.6136H32.6968L32.7001 32.7254L32.7036 32.5459L32.7924 32.5424L32.88 32.5391V32.3631V32.1858H32.9712H33.0622V32.0944V32.003H33.1465H33.2296L33.2387 31.8201L33.2467 31.6372H33.331H33.4151V31.5823C33.4151 31.5515 33.4186 31.4715 33.4231 31.4051L33.43 31.2829H33.512H33.5939L33.603 31.0999L33.611 30.917H33.6953H33.7795V30.8256V30.7341H33.8706H33.9617V30.3684V30.0025H33.8706H33.7795V29.8254V29.6482H33.6964H33.6121L33.6053 29.5259C33.6008 29.4596 33.5973 29.3796 33.5973 29.3487V29.2938H33.512H33.4266V29.1967V29.0996H33.3355H33.2443V28.9223V28.7452H33.1533H33.0622V28.5622V28.3794H32.9712H32.88V28.2022V28.0261L32.7924 28.0228L32.7036 28.0193L32.7001 27.9244L32.6968 27.8307H32.6136H32.5305L32.5237 27.7084C32.5191 27.6421 32.5157 27.562 32.5157 27.5313V27.4764H32.4315H32.3472L32.3392 27.2934L32.3301 27.1105H32.247H32.1628V27.0192V26.9277H32.0716H31.9805V26.7505V26.5733H31.8895H31.7984V26.4818V26.3904H31.8895H31.9805V26.3058V26.2212L32.1628 26.2132L32.3449 26.2041V26.1207V26.0361H32.5214H32.6979V25.9446V25.8532H32.7889H32.88V25.7617V25.6702H33.0622H33.2443V25.5788V25.4874H33.4209H33.5962L33.5996 25.3982L33.603 25.3102L33.7829 25.3067L33.9617 25.3034V25.2187V25.133H34.0527H34.1438V25.0416V24.9501H34.3044C34.3921 24.9501 34.474 24.9444 34.4866 24.9387C34.5048 24.9284 34.5082 24.9135 34.5082 24.8473V24.7673H34.6847H34.8611V24.6758V24.5844H35.1344H35.4077V24.6758ZM30.3524 26.9174C30.3524 27.0054 30.3581 27.0877 30.3638 27.1003C30.3741 27.1185 30.3889 27.122 30.4549 27.122H30.5346V27.2992V27.4764H30.6257H30.7167V27.5678V27.6593H30.801H30.8853L30.8932 27.8421L30.9023 28.025H30.9844H31.0663L31.0731 28.1474C31.0776 28.2136 31.0811 28.2936 31.0811 28.3245V28.3794H31.1654H31.2496L31.2575 28.5622L31.2667 28.7452H31.3498H31.4341V28.8366V28.9281H31.5251H31.6162V29.111V29.2938H31.7073H31.7984V29.4711V29.6482H31.8895H31.9805V29.7397V29.8311H32.0659H32.1513V29.9923C32.1513 30.0803 32.1571 30.1625 32.1628 30.1752C32.173 30.1934 32.1878 30.1969 32.2538 30.1969H32.3335V30.374V30.5513H32.2425H32.1513V30.6426V30.7341H32.0659H31.9805V30.9113V31.0885H31.8895H31.7984V31.2714V31.4542H31.7073H31.6162V31.5457V31.6372H31.5319H31.4489L31.4398 31.8201L31.4318 32.003H31.3418H31.2519V32.1801V32.3573H31.1676H31.0845L31.0754 32.5402L31.0674 32.7231H30.9831H30.899V32.8145V32.906H30.8078H30.7167V32.9974V33.0889H30.6314H30.546V33.1746V33.2604H30.4549H30.3638V33.1746V33.0889H28.7049C27.7918 33.0889 26.9799 33.0854 26.9002 33.0809L26.7546 33.074V32.898V32.7231H26.6634H26.5724V32.5402V32.3573H26.4892H26.405L26.3981 32.235C26.3936 32.1687 26.3901 32.0887 26.3901 32.0578V32.003H26.3047H26.2194V31.9115V31.8201H26.1283H26.0372V31.6372V31.4542H25.9484H25.8585L25.8517 31.332C25.8471 31.2656 25.8437 31.1856 25.8437 31.1547V31.0999H25.7583H25.6729V31.0028V30.9056H25.5897H25.5055L25.4987 30.7833C25.4941 30.717 25.4907 30.637 25.4907 30.6061V30.5513H25.4076H25.3233L25.3166 30.4289C25.312 30.3626 25.3086 30.2826 25.3086 30.2518V30.1969H25.2232H25.1378V29.9225V29.6482H25.2232H25.3086V29.5933C25.3086 29.5624 25.312 29.4824 25.3166 29.4162L25.3233 29.2938H25.4053H25.4873L25.4964 29.111L25.5043 28.9281H25.5886H25.6729V28.8366V28.7452H25.764H25.855V28.5622V28.3794H25.9462H26.0372V28.2022V28.025H26.1283H26.2194V27.9279V27.8307H26.3047H26.3901V27.7759C26.3901 27.745 26.3936 27.665 26.3981 27.5986L26.405 27.4764H26.4892H26.5724V27.4215C26.5724 27.3906 26.5758 27.3106 26.5804 27.2443L26.5871 27.122H26.6714H26.7546V27.0248V26.9277H26.84H26.9254V26.8419V26.7562H28.6389H30.3524V26.9174ZM43.5029 26.9334V27.1105H43.594H43.6851V27.2934V27.4764H43.7762H43.8673V27.5678V27.6593H43.9583H44.0494V27.8421V28.025H44.1406H44.2316V28.2022V28.3794H44.3159H44.4001L44.4081 28.5622L44.4172 28.7452H44.5003H44.5845V28.8366V28.9281H44.6757H44.7667V29.0892C44.7667 29.1772 44.7724 29.2596 44.7781 29.2721C44.7884 29.2904 44.8032 29.2938 44.8692 29.2938H44.9489V29.4711V29.6482H45.04H45.1311V29.9225V30.1969H45.04H44.9489V30.374V30.5513H44.8578H44.7667V30.7284V30.9056H44.6893C44.6438 30.9056 44.6062 30.9113 44.5982 30.9193C44.5903 30.9273 44.5845 30.9674 44.5845 31.0165V31.0999H44.4991H44.4137V31.2771V31.4542H44.3227H44.2327L44.2293 31.6337L44.2259 31.8143L44.1382 31.8177L44.0494 31.8212V31.9972V32.1744H43.9583H43.8673V32.2658V32.3573H43.7876C43.7124 32.3573 43.7067 32.3584 43.6965 32.3871C43.6896 32.4031 43.6851 32.4853 43.6851 32.5699V32.7231H43.594H43.5029V32.898V33.074L43.3583 33.0809C43.2775 33.0854 42.4679 33.0889 41.5594 33.0889H39.905V32.9974V32.906H39.8207H39.7366L39.7286 32.7231L39.7194 32.5402H39.6364H39.5521V32.4488V32.3573H39.4609H39.3699V32.1961C39.3699 32.1081 39.3642 32.0258 39.3585 32.0132C39.3483 31.995 39.3334 31.9916 39.2675 31.9916H39.1878V31.8143V31.6372H39.0966H39.0055V31.46V31.284L38.9179 31.2805L38.8291 31.2771L38.8256 31.1822L38.8222 31.0885H38.738H38.6526V30.9113V30.7341H38.5615H38.4704V30.573C38.4704 30.4849 38.4648 30.4026 38.4591 30.39C38.4487 30.3718 38.434 30.3684 38.3679 30.3684H38.2883V30.1912V30.014H38.1984H38.1084L38.1004 29.8311L38.0913 29.6482H38.0081H37.924V29.5624V29.4767H38.015H38.1061V29.3796V29.2824H38.1971H38.2883V29.1052V28.9281H38.3794H38.4704V28.7452V28.5622H38.5615H38.6526V28.4709V28.3794H38.738H38.8222L38.8256 28.1988L38.8291 28.0193L38.9179 28.0159L39.0055 28.0125V27.8364V27.6593H39.0966H39.1878V27.482V27.3049H39.2788H39.3699V27.2078V27.1105H39.4553H39.5407V27.0557C39.5407 27.0248 39.5441 26.9448 39.5487 26.8785L39.5554 26.7562H41.5298H43.5029V26.9334Z" fill="white"/>
<path d="M35.9429 3.51151V3.59725H36.0283H36.1137V3.51151V3.42578H36.0283H35.9429V3.51151Z" fill="white"/>
<path d="M36.4893 3.51151V3.59725H36.5747H36.66V3.51151V3.42578H36.5747H36.4893V3.51151Z" fill="white"/>
<path d="M33.0623 3.86601V3.95174H33.1477H33.2331V3.86601V3.78027H33.1477H33.0623V3.86601Z" fill="white"/>
<path d="M33.9617 4.04862V4.13436H34.047H34.1324V4.04862V3.96289H34.047H33.9617V4.04862Z" fill="white"/>
<path d="M37.3887 4.04862V4.13436H37.4741H37.5595V4.04862V3.96289H37.4741H37.3887V4.04862Z" fill="white"/>
<path d="M32.3447 4.23124V4.31696H32.4301H32.5155V4.23124V4.14551H32.4301H32.3447V4.23124Z" fill="white"/>
<path d="M37.7529 4.23124V4.31696H37.8383H37.9237V4.23124V4.14551H37.8383H37.7529V4.23124Z" fill="white"/>
<path d="M33.9617 5.85429V5.94002H34.047H34.1324V5.85429V5.76855H34.047H33.9617V5.85429Z" fill="white"/>
<path d="M33.7908 6.76361V6.84362H33.8705H33.9501V6.76361V6.68359H33.8705H33.7908V6.76361Z" fill="white"/>
<path d="M33.9617 8.20975V8.29548H34.047H34.1324V8.20975V8.12402H34.047H33.9617V8.20975Z" fill="white"/>
<path d="M36.1248 8.57498V8.66071H36.2102H36.2956V8.57498V8.48926H36.2102H36.1248V8.57498Z" fill="white"/>
<path d="M33.9617 8.75761V8.84334H34.047H34.1324V8.75761V8.67188H34.047H33.9617V8.75761Z" fill="white"/>
<path d="M33.2441 9.47831V9.56405H33.3295H33.415V9.47831V9.39258H33.3295H33.2441V9.47831Z" fill="white"/>
<path d="M36.8535 9.47831V9.56405H36.9332H37.0129V9.47831V9.39258H36.9332H36.8535V9.47831Z" fill="white"/>
<path d="M32.5269 11.284V11.3697H32.6122H32.6976V11.284V11.1982H32.6122H32.5269V11.284Z" fill="white"/>
<path d="M33.7908 12.0047V12.0903H33.8705H33.9501V12.0047V11.9189H33.8705H33.7908V12.0047Z" fill="white"/>
<path d="M35.7605 11.9966C35.7605 12.0423 35.7662 12.0801 35.7742 12.0881C35.7822 12.0961 35.8197 12.1018 35.8652 12.1018H35.9427V12.0103V11.9189H35.8516H35.7605V11.9966Z" fill="white"/>
<path d="M35.0432 12.736V12.8218H35.1286H35.214V12.736V12.6504H35.1286H35.0432V12.736Z" fill="white"/>
<path d="M30.8989 8.92948V9.01521H30.9843H31.0697V8.92948V8.84375H30.9843H30.8989V8.92948Z" fill="white"/>
<path d="M39.552 5.14028V5.23173H39.6374H39.7228V5.14028V5.04883H39.6374H39.552V5.14028Z" fill="white"/>
<path d="M38.8312 6.49726C38.8267 6.50069 38.8232 6.54184 38.8232 6.5887V6.67215H38.9144H39.0055V6.5807V6.48926H38.9223C38.8757 6.48926 38.8347 6.49269 38.8312 6.49726Z" fill="white"/>
<path d="M39.1877 9.1121V9.19783H39.2731H39.3586V9.1121V9.02637H39.2731H39.1877V9.1121Z" fill="white"/>
<path d="M46.2126 9.47831V9.56405H46.3038H46.3949V9.47831V9.39258H46.3038H46.2126V9.47831Z" fill="white"/>
<path d="M46.0417 9.66093V9.74666H46.1271H46.2125V9.66093V9.5752H46.1271H46.0417V9.66093Z" fill="white"/>
<path d="M48.0115 10.198V10.2838H48.1025H48.1936V10.198V10.1123H48.1025H48.0115V10.198Z" fill="white"/>
<path d="M45.4954 11.284V11.3697H45.5808H45.6662V11.284V11.1982H45.5808H45.4954V11.284Z" fill="white"/>
<path d="M37.7529 13.4559V13.5416H37.8383H37.9237V13.4559V13.3701H37.8383H37.7529V13.4559Z" fill="white"/>
<path d="M38.2881 13.4559V13.5416H38.3735H38.4589V13.4559V13.3701H38.3735H38.2881V13.4559Z" fill="white"/>
<path d="M37.3887 13.816V13.9075H37.4741H37.5595V13.816V13.7246H37.4741H37.3887V13.816Z" fill="white"/>
<path d="M37.0244 13.9989V14.079H37.1098H37.1952V13.9989V13.9189H37.1098H37.0244V13.9989Z" fill="white"/>
<path d="M33.5972 14.1766V14.2623H33.6883H33.7793V14.1766V14.0908H33.6883H33.5972V14.1766Z" fill="white"/>
<path d="M37.2065 14.3592V14.4449H37.2919H37.3774V14.3592V14.2734H37.2919H37.2065V14.3592Z" fill="white"/>
<path d="M33.2441 14.908V14.9938H33.3295H33.415V14.908V14.8223H33.3295H33.2441V14.908Z" fill="white"/>
<path d="M36.4893 14.908V14.9938H36.5747H36.66V14.908V14.8223H36.5747H36.4893V14.908Z" fill="white"/>
<path d="M36.1248 15.0906V15.1764H36.2102H36.2956V15.0906V15.0049H36.2102H36.1248V15.0906Z" fill="white"/>
<path d="M36.8421 15.2614V15.3459L36.6598 15.3539L36.4777 15.363V15.4465V15.5311H36.3012H36.1247V15.6225V15.714H36.0337H35.9425V15.8055V15.8969H35.7661H35.5896V15.9517C35.5896 15.9826 35.5862 16.0626 35.5827 16.129L35.5748 16.2501L35.494 16.2535L35.4132 16.257L35.4052 16.3541C35.4017 16.4078 35.3983 16.7736 35.3972 17.168L35.396 17.8859H35.5782H35.7604V17.8001V17.7144H35.8515H35.9425V17.6229V17.5315H36.1247H36.307V17.44V17.3486H36.4834H36.6598V17.2572V17.1657H36.7509H36.8421V17.1108C36.8421 17.0799 36.8454 16.9999 36.85 16.9337L36.8569 16.8113H36.9411H37.0242V15.9941V15.1768H36.9331H36.8421V15.2614Z" fill="white"/>
<path d="M32.8801 16.0791V16.8107H32.9632H33.0475L33.0543 16.9331C33.0588 16.9993 33.0623 17.0793 33.0623 17.1102V17.1651H33.1533H33.2444V17.2566V17.348H33.421H33.5974V17.4395V17.5309H33.6885H33.7795V17.6155V17.6989L33.9617 17.7081L34.1439 17.7161V17.8007V17.8853H34.3261H34.5082V17.0737V16.2621H34.4171H34.3261V16.1706V16.0791H34.235H34.1439V15.9878V15.8963H34.0528H33.9617V15.8049V15.7134H33.7853H33.6087V15.6334C33.6087 15.5579 33.6076 15.5523 33.5792 15.5419C33.5633 15.535 33.4812 15.5305 33.397 15.5305H33.2444V15.439V15.3477H33.0623H32.8801V16.0791Z" fill="white"/>
<path d="M35.5896 15.4451V15.5309H35.675H35.7604V15.4451V15.3594H35.675H35.5896V15.4451Z" fill="white"/>
<path d="M35.9429 15.4451V15.5309H36.0283H36.1137V15.4451V15.3594H36.0283H35.9429V15.4451Z" fill="white"/>
<path d="M31.7983 16.1705V16.262H31.8894H31.9805V16.1705V16.0791H31.8894H31.7983V16.1705Z" fill="white"/>
<path d="M31.2632 17.2508V17.3365H31.3486H31.434V17.2508V17.165H31.3486H31.2632V17.2508Z" fill="white"/>
<path d="M32.8801 17.2508V17.3365H32.9654H33.0508V17.2508V17.165H32.9654H32.8801V17.2508Z" fill="white"/>
<path d="M38.6523 17.7996V17.8854H38.7377H38.8232V17.7996V17.7139H38.7377H38.6523V17.7996Z" fill="white"/>
<path d="M34.6791 17.9772V18.0686H34.5036H34.3295L34.3204 18.2515L34.3124 18.4345H34.2281H34.1439V18.7945V19.1546H34.2292H34.3146V19.246V19.3374H34.4058H34.4969V19.4289V19.5203H34.4115H34.3261V19.6061V19.6918H34.2292H34.1325V19.7833V19.8747H33.9561H33.7795V19.9662V20.0576H33.6031H33.4266V20.149V20.2405H33.3298H33.2331V20.3319V20.4234H33.1499H33.0656L33.0588 20.5685C33.0543 20.6497 33.0508 20.8109 33.0508 20.9286V21.1435H32.9654H32.8801V21.3265V21.5093H32.9654H33.0508V21.8693V22.2294H33.2331H33.4141L33.4175 22.1403L33.421 22.0523L33.5155 22.0488L33.6087 22.0454V21.9608V21.8751H33.7853H33.9617V21.7837V21.6922H34.0528H34.1439V21.6007V21.5093H34.235H34.3261V21.4178V21.3265H34.4171H34.5082V21.1435V20.9606H34.5936H34.6791V20.5091V20.0576H34.5936H34.5082V19.9284C34.5082 19.8564 34.5049 19.7353 34.5003 19.6598L34.4934 19.5203H34.95H35.4078L35.41 20.2428L35.4134 20.9664L35.4965 20.9697L35.5785 20.9732V21.1492V21.3265H35.6696H35.7607V21.4178V21.5093H35.8517H35.9429V21.6007V21.6922H36.0339H36.125V21.7768V21.8602L36.3072 21.8693L36.4893 21.8773V21.9619V22.0466H36.544C36.5747 22.0466 36.6544 22.0499 36.7205 22.0546L36.8423 22.0614V22.1461V22.2294H36.9334H37.0245V22.0466V21.8637H37.1098H37.1952V21.7779V21.6922H37.1098H37.0245V21.5951V21.4978H37.1098H37.1952V21.4121V21.3265H37.1098H37.0245V20.8749V20.4234H36.9334H36.8423V20.3319V20.2405H36.7513H36.6601V20.149V20.0576H36.4837H36.3072V19.9662V19.8747H36.125H35.9429V19.7833V19.6918H35.8517H35.7607V19.6061V19.5203H35.5842H35.4078V19.4289V19.3374H35.4988H35.5899V19.246V19.1546H35.6753H35.7607V18.7031V18.2515H35.6753H35.5899V18.1715C35.5899 18.0961 35.5888 18.0904 35.5603 18.0801C35.5443 18.0732 35.4624 18.0686 35.3781 18.0686H35.2255V17.9772V17.8857H34.9523H34.6791V17.9772Z" fill="white"/>
<path d="M37.1953 17.9771V18.0686H37.0188H36.8424V18.1532V18.2377L36.6601 18.2457L36.478 18.255V18.3372V18.4196L36.3562 18.4264C36.2901 18.431 36.2104 18.4344 36.1808 18.4344H36.1261L36.1228 18.5225L36.1194 18.6116L36.0316 18.615L35.9429 18.6185V18.7087V18.8002H36.0283H36.1137V18.8802C36.1137 18.9557 36.1148 18.9613 36.1433 18.9717C36.1592 18.9785 36.2412 18.9831 36.3255 18.9831H36.478V19.0688V19.1546H36.5748H36.6716V19.2459V19.3374H36.9334H37.1953V19.4289V19.5203H37.4685H37.7418V19.6061V19.6918H37.8329H37.9239V19.6061V19.5203H37.8329H37.7418V19.4289V19.3374H37.9239H38.1062V19.2459V19.1546H38.2884H38.4705V19.0688V18.9831H38.5479C38.5935 18.9831 38.6311 18.9773 38.6391 18.9693C38.647 18.9613 38.6527 18.9237 38.6527 18.8802V18.8036L38.7745 18.7967C38.8405 18.7922 38.9202 18.7887 38.951 18.7887H39.0056V18.7031V18.6185L38.918 18.615L38.8292 18.6116L38.8257 18.5225L38.8223 18.4344H38.7677C38.7381 18.4344 38.6584 18.431 38.5924 18.4264L38.4705 18.4196V18.3372V18.255L38.2884 18.2457L38.1062 18.2377V18.1532V18.0686H37.9297H37.7532V17.9771V17.8857H37.4742H37.1953V17.9771Z" fill="white"/>
<path d="M35.9429 17.9822V18.068H36.0283H36.1137V17.9822V17.8965H36.0283H35.9429V17.9822Z" fill="white"/>
<path d="M40.2693 17.9822V18.068H40.3547H40.44V17.9822V17.8965H40.3547H40.2693V17.9822Z" fill="white"/>
<path d="M31.9803 18.153V18.2375L31.7982 18.2455L31.6159 18.2547V18.3381V18.4227H31.5386C31.493 18.4227 31.4554 18.4285 31.4475 18.4365C31.4395 18.4445 31.4338 18.4821 31.4338 18.5278V18.6056H31.2755C31.1879 18.6056 31.1093 18.6091 31.0991 18.6125C31.0831 18.6182 31.0808 18.6456 31.0808 18.7942C31.0808 19.0011 31.0604 18.9828 31.2835 18.9828H31.4338V19.0686V19.1543H31.5249H31.6159V19.2457V19.3372H31.5305H31.4452V19.4229V19.5087H31.5305H31.6159V19.4229V19.3372H31.7982H31.9803V19.4286V19.5201H32.5212H33.062V19.4286V19.3372H33.2384H33.415V19.2457V19.1543H33.5117H33.6084V19.0708V18.9862L33.7303 18.9793C33.7963 18.9748 33.876 18.9713 33.9067 18.9713H33.9614V18.7885V18.6056H33.8704H33.7793V18.5198V18.4341H33.7246C33.6938 18.4341 33.6142 18.4307 33.5482 18.4261L33.4263 18.4192V18.3347V18.2512H33.2441H33.062V18.1597V18.0684H32.5212H31.9803V18.153Z" fill="white"/>
<path d="M38.8232 18.1602V18.2402H38.9144H39.0055V18.1602V18.0801H38.9144H38.8232V18.1602Z" fill="white"/>
<path d="M39.3699 18.3367V18.4225H39.4553H39.5407V18.3367V18.251H39.4553H39.3699V18.3367Z" fill="white"/>
<path d="M40.0872 19.24V19.3258H40.1726H40.258V19.24V19.1543H40.1726H40.0872V19.24Z" fill="white"/>
<path d="M39.1877 19.4227V19.5084H39.2731H39.3586V19.4227V19.3369H39.2731H39.1877V19.4227Z" fill="white"/>
<path d="M36.4893 19.6053V19.691H36.5747H36.66V19.6053V19.5195H36.5747H36.4893V19.6053Z" fill="white"/>
<path d="M39.3699 19.7889V19.8746H39.4553H39.5407V19.7889V19.7031H39.4553H39.3699V19.7889Z" fill="white"/>
<path d="M34.8611 20.1491V20.2406H34.9522H35.0432V20.1491V20.0576H34.9522H34.8611V20.1491Z" fill="white"/>
<path d="M31.4453 20.1541V20.2398H31.5307H31.616V20.1541V20.0684H31.5307H31.4453V20.1541Z" fill="white"/>
<path d="M31.6162 20.8748V20.9606H31.7072H31.7984V20.8748V20.7891H31.7072H31.6162V20.8748Z" fill="white"/>
<path d="M36.4016 22.2375L36.3071 22.2421V22.321V22.401H36.4836H36.66V22.3152V22.2295L36.5781 22.2317C36.5325 22.2329 36.4528 22.2364 36.4016 22.2375Z" fill="white"/>
<path d="M33.6086 22.8631V22.9488H33.694H33.7795V22.8631V22.7773H33.694H33.6086V22.8631Z" fill="white"/>
<path d="M35.9429 22.8631V22.9488H36.0283H36.1137V22.8631V22.7773H36.0283H35.9429V22.8631Z" fill="white"/>
<path d="M36.1248 23.0467V23.1324H36.2102H36.2956V23.0467V22.9609H36.2102H36.1248V23.0467Z" fill="white"/>
<path d="M38.2881 23.5895V23.6809H38.3735H38.4589V23.5895V23.498H38.3735H38.2881V23.5895Z" fill="white"/>
<path d="M31.9805 23.7664V23.8522H32.0659H32.1513V23.7664V23.6807H32.0659H31.9805V23.7664Z" fill="white"/>
<path d="M32.1626 24.1326V24.2184H32.248H32.3334V24.1326V24.0469H32.248H32.1626V24.1326Z" fill="white"/>
<path d="M38.2881 24.3152V24.4009H38.3735H38.4589V24.3152V24.2295H38.3735H38.2881V24.3152Z" fill="white"/>
<path d="M49.4575 16.8963V16.982H49.5429H49.6283V16.8963V16.8105H49.5429H49.4575V16.8963Z" fill="white"/>
<path d="M50.7214 18.1602V18.2402H50.8068H50.8922V18.1602V18.0801H50.8068H50.7214V18.1602Z" fill="white"/>
<path d="M20.0938 16.7137V16.7994H20.1792H20.2646V16.7137V16.6279H20.1792H20.0938V16.7137Z" fill="white"/>
<path d="M42.4324 20.326V20.4116H42.5178H42.6032V20.326V20.2402H42.5178H42.4324V20.326Z" fill="white"/>
<path d="M41.5332 21.0574V21.1432H41.6186H41.704V21.0574V20.9717H41.6186H41.5332V21.0574Z" fill="white"/>
<path d="M43.1499 21.0574V21.1432H43.2353H43.3207V21.0574V20.9717H43.2353H43.1499V21.0574Z" fill="white"/>
<path d="M43.332 21.5944V21.6802H43.4174H43.5028V21.5944V21.5088H43.4174H43.332V21.5944Z" fill="white"/>
<path d="M43.1499 24.8523V24.9381H43.2353H43.3207V24.8523V24.7666H43.2353H43.1499V24.8523Z" fill="white"/>
<path d="M43.6965 24.8523V24.9381H43.7818H43.8672V24.8523V24.7666H43.7818H43.6965V24.8523Z" fill="white"/>
<path d="M35.4075 25.035V25.1207H35.4929H35.5783V25.035V24.9492H35.4929H35.4075V25.035Z" fill="white"/>
<path d="M33.9617 25.4012V25.4869H34.047H34.1324V25.4012V25.3154H34.047H33.9617V25.4012Z" fill="white"/>
<path d="M35.9429 25.573V25.6588H36.0283H36.1137V25.573V25.4873H36.0283H35.9429V25.573Z" fill="white"/>
<path d="M32.5269 27.2068V27.2926H32.6122H32.6976V27.2068V27.1211H32.6122H32.5269V27.2068Z" fill="white"/>
<path d="M33.6086 28.8309V28.9165H33.694H33.7795V28.8309V28.7451H33.694H33.6086V28.8309Z" fill="white"/>
<path d="M35.9429 29.0134V29.0991H36.0283H36.1137V29.0134V28.9277H36.0283H35.9429V29.0134Z" fill="white"/>
<path d="M29.9993 27.0241V27.1099H30.0847H30.1701V27.0241V26.9385H30.0847H29.9993V27.0241Z" fill="white"/>
<path d="M30.1816 28.2927V28.3784H30.2669H30.3523V28.2927V28.207H30.2669H30.1816V28.2927Z" fill="white"/>
<path d="M26.9365 32.814V32.9055H27.0275H27.1187V32.814V32.7227H27.0275H26.9365V32.814Z" fill="white"/>
<path d="M39.1877 27.9275V28.0133H39.2731H39.3586V27.9275V27.8418H39.2731H39.1877V27.9275Z" fill="white"/>
<path d="M39.0056 28.2927V28.3784H39.0966H39.1878V28.2927V28.207H39.0966H39.0056V28.2927Z" fill="white"/>
<path d="M43.1499 32.8084V32.8941H43.2353H43.3207V32.8084V32.7227H43.2353H43.1499V32.8084Z" fill="white"/>
<path d="M33.5972 1.15604V1.24178H33.6883H33.7793V1.15604V1.07031H33.6883H33.5972V1.15604Z" fill="white"/>
<path d="M36.8423 1.15604V1.24178H36.9333H37.0244V1.15604V1.07031H36.9333H36.8423V1.15604Z" fill="white"/>
<path d="M32.8801 1.33964V1.42537H32.9654H33.0508V1.33964V1.25391H32.9654H32.8801V1.33964Z" fill="white"/>
<path d="M39.552 2.05937V2.1451H39.6374H39.7228V2.05937V1.97363H39.6374H39.552V2.05937Z" fill="white"/>
<path d="M38.4702 2.24198V2.32772H38.6467H38.8232V2.24198V2.15625H38.6467H38.4702V2.24198Z" fill="white"/>
<path d="M39.1877 2.24198V2.32772H39.2731H39.3586V2.24198V2.15625H39.2731H39.1877V2.24198Z" fill="white"/>
<path d="M31.0808 2.60248V2.68249H31.1662H31.2516V2.60248V2.52246H31.1662H31.0808V2.60248Z" fill="white"/>
<path d="M30.1816 2.78007V2.8658H30.2669H30.3523V2.78007V2.69434H30.2669H30.1816V2.78007Z" fill="white"/>
<path d="M39.7227 2.78007V2.8658H39.8992H40.0756V2.78007V2.69434H39.8992H39.7227V2.78007Z" fill="white"/>
<path d="M25.3198 3.32792V3.41365H25.4052H25.4905V3.32792V3.24219H25.4052H25.3198V3.32792Z" fill="white"/>
<path d="M48.5581 7.67166V7.75739H48.6435H48.7289V7.67166V7.58594H48.6435H48.5581V7.67166Z" fill="white"/>
<path d="M50.186 9.1121V9.19783H50.2657H50.3454V9.1121V9.02637H50.2657H50.186V9.1121Z" fill="white"/>
<path d="M19.0122 10.0154V10.1012H19.0975H19.1829V10.0154V9.92969H19.0975H19.0122V10.0154Z" fill="white"/>
<path d="M17.7483 16.8963V16.982H17.8337H17.9191V16.8963V16.8105H17.8337H17.7483V16.8963Z" fill="white"/>
<path d="M21.7104 29.9167V30.0024H21.8015H21.8926V29.9167V29.8311H21.8015H21.7104V29.9167Z" fill="white"/>
<path d="M22.075 30.0994V30.1852H22.1604H22.2458V30.0994V30.0137H22.1604H22.075V30.0994Z" fill="white"/>
<path d="M22.2571 30.282V30.3678H22.3425H22.4279V30.282V30.1963H22.3425H22.2571V30.282Z" fill="white"/>
<path d="M46.2126 31.5506V31.6363H46.2981H46.3835V31.5506V31.4648H46.2981H46.2126V31.5506Z" fill="white"/>
<path d="M23.6917 31.7281V31.8196H23.7771H23.8625V31.7281V31.6367H23.7771H23.6917V31.7281Z" fill="white"/>
<path d="M45.4954 32.8084V32.8941H45.5808H45.6662V32.8084V32.7227H45.5808H45.4954V32.8084Z" fill="white"/>
<path d="M44.7778 34.8027V34.8827H44.8632H44.9486V34.8027V34.7227H44.8632H44.7778V34.8027Z" fill="white"/>
<path d="M39.0056 35.1629V35.2486H39.0909H39.1763V35.1629V35.0771H39.0909H39.0056V35.1629Z" fill="white"/>
<path d="M32.3447 35.8836V35.9693H32.4301H32.5155V35.8836V35.7979H32.4301H32.3447V35.8836Z" fill="white"/>
<path d="M38.6523 35.8836V35.9693H38.7377H38.8232V35.8836V35.7979H38.7377H38.6523V35.8836Z" fill="white"/>
<path d="M32.7092 36.0662V36.1519H32.7946H32.8799V36.0662V35.9805H32.7946H32.7092V36.0662Z" fill="white"/>
<path d="M37.5708 36.0662V36.1519H37.6561H37.7415V36.0662V35.9805H37.6561H37.5708V36.0662Z" fill="white"/>
<path d="M32.5269 36.2488V36.3346H32.6122H32.6976V36.2488V36.1631H32.6122H32.5269V36.2488Z" fill="white"/>
<path d="M38.8345 36.2488V36.3346H38.9199H39.0052V36.2488V36.1631H38.9199H38.8345V36.2488Z" fill="white"/>
<path d="M36.4893 36.6149V36.7007H36.5747H36.66V36.6149V36.5293H36.5747H36.4893V36.6149Z" fill="white"/>
<path d="M35.9429 36.9753V37.0668H36.0203C36.0659 37.0668 36.1035 37.061 36.1114 37.053C36.1194 37.045 36.125 37.0073 36.125 36.9615V36.8838H36.034H35.9429V36.9753Z" fill="white"/>
<path d="M36.4893 36.9695V37.0553H36.5747H36.66V36.9695V36.8838H36.5747H36.4893V36.9695Z" fill="white"/>
<path d="M35.0432 37.3348V37.4205H35.1286H35.214V37.3348V37.249H35.1286H35.0432V37.3348Z" fill="white"/>
<path d="M35.772 37.3348V37.4205H35.8574H35.9428V37.3348V37.249H35.8574H35.772V37.3348Z" fill="white"/>
<path d="M35.2253 37.701V37.7867H35.3106H35.396V37.701V37.6152H35.3106H35.2253V37.701Z" fill="white"/>
<path d="M2.14966 49.6594V51.7885H2.24061H2.33155V51.2086V50.6287H2.43077H2.52998V50.3388V50.0487H2.61927H2.70857L2.72015 49.85L2.73338 49.6511H2.82101H2.91031V49.56V49.4688H3.00951H3.10873V49.3695V49.2701H3.19968H3.28897L3.29394 49.174L3.29889 49.0795L3.39315 49.0745L3.48741 49.0696L3.49236 48.9751L3.49733 48.8806L3.59323 48.8757L3.68748 48.8707V48.7812V48.6901H3.77843H3.86773L3.87269 48.594L3.87764 48.4996L3.97355 48.4946L4.0678 48.4897V48.4019V48.314L4.26624 48.3007L4.46466 48.2891V48.1997V48.1102H4.65482H4.84499V48.0108V47.9114H5.13436H5.42374V47.8202V47.7291H5.75941C5.94462 47.7291 6.16455 47.7241 6.24722 47.7192L6.39935 47.7076V47.6197V47.5303H4.2745H2.14966V49.6594Z" fill="white"/>
<path d="M10.4672 47.6298V47.7291H10.1778H9.88838V47.8186V47.9081L9.68995 47.9197L9.49152 47.9313V48.0207V48.1103H9.30136H9.11121V48.2097V48.309H9.01199H8.91277V48.3986V48.488L8.72261 48.4996L8.53411 48.5112L8.52914 48.604L8.52419 48.6985L8.42992 48.7034L8.33402 48.7084V48.7979V48.8889H8.24307H8.15378L8.14882 48.9834L8.14386 49.0795L8.04961 49.0845L7.95535 49.0895L7.95039 49.1839L7.94543 49.2784L7.85118 49.2833L7.75693 49.2883L7.75196 49.4739L7.747 49.6594L7.66102 49.6644L7.57503 49.6693L7.57007 49.7638L7.56511 49.8583L7.47085 49.8632L7.3766 49.8682L7.37164 50.0538L7.36668 50.2394L7.27243 50.2443L7.17652 50.2493V50.5377V50.8276H7.08722H6.99793L6.98636 51.0264L6.97313 51.2252H6.88714H6.7995L6.78792 51.4158L6.77635 51.6063H6.68706H6.59777V51.7588C6.59777 51.8433 6.59281 51.9742 6.58619 52.0487L6.57627 52.1863H6.48863H6.39934V52.385V52.5839H6.31004H6.22076L6.20918 52.7745L6.1976 52.9649H6.10831H6.02067L6.01571 53.1589L6.01075 53.3544L5.91649 53.3593L5.82059 53.3643L5.81728 53.6492L5.81232 53.9343L5.72634 53.9392L5.642 53.9442L5.63043 54.1331L5.61885 54.3236H5.52956H5.44191L5.43696 54.5175L5.43199 54.713L5.33774 54.718L5.24183 54.723V55.003V55.2846H5.15255H5.06325L5.05167 55.4835L5.03844 55.6823H4.95246H4.86482L4.85325 55.8728L4.84166 56.0634H4.75238H4.66308V56.2158C4.66308 56.3003 4.65812 56.4312 4.6515 56.5058L4.64159 56.6433H4.55394H4.46466V56.8422V57.0409H4.37536H4.28607L4.2745 57.2315L4.26292 57.4221H4.17362H4.08434V57.5745C4.08434 57.659 4.07937 57.7899 4.07276 57.8644L4.06283 58.002H3.9752H3.8859V58.2008V58.3996H3.79661H3.70732L3.69574 58.5902L3.68417 58.7807H3.59487H3.50724L3.50227 58.9746L3.49732 59.1701L3.40305 59.1751L3.30715 59.18V59.4236C3.30715 59.5579 3.30219 59.7285 3.29557 59.803L3.28565 59.9405H3.19801H3.10872V60.04V60.1394H3.01777H2.92683V60.2388V60.3383H2.82927H2.7317L2.72013 60.5287L2.70855 60.7193H2.61927H2.52997V60.8105V60.8999L2.43572 60.9048L2.33981 60.9099L2.33484 61.0043L2.32989 61.0988L2.23564 61.1037L2.14139 61.1087L2.13642 61.2015L2.13146 61.2959L1.95122 61.3075L1.76933 61.3191V61.4086V61.4981H1.67011H1.57255L1.56759 61.5925L1.56263 61.6886L1.37743 61.6936L1.19058 61.6986V61.7864V61.8742L0.992145 61.8874L0.793716 61.899V61.9885V62.078H0.396858H0V62.1674V62.2569L0.203389 62.2669C0.453079 62.2801 11.403 62.2785 11.6379 62.2653L11.8066 62.2569V60.1378V58.0186H11.7155H11.6246V58.3996V58.7807H11.5353H11.446L11.4345 59.1701L11.4229 59.5595H11.3353H11.2477L11.236 59.7583L11.2245 59.9571H11.1352H11.0475L11.0426 60.1427L11.0376 60.33L10.9433 60.3349L10.8475 60.3399V60.4377V60.537H10.7565H10.6656V60.6282V60.7193H10.568H10.4704L10.4589 60.9082L10.4473 61.097L10.2687 61.1087L10.0885 61.1203L10.0835 61.2147L10.0785 61.3075L9.98429 61.3125L9.88838 61.3175V61.4069V61.4981H9.7809H9.67342V61.5875V61.6753L9.53782 61.6852C9.46176 61.6919 9.33609 61.6968 9.25672 61.6968H9.11121V61.7864V61.8758L8.92104 61.8874L8.73088 61.899V61.9885V62.078H7.17652H5.62215V61.8792V61.6803H5.71311H5.80405V61.5891V61.4981H5.72137H5.63869V61.4086V61.3175L5.72634 61.3125L5.81232 61.3075L5.81728 61.2031L5.82224 61.1004H5.90987H5.99917L6.01075 60.9099L6.02232 60.7193H6.11162H6.19925L6.20422 60.5238L6.20918 60.33L6.30509 60.3249L6.39934 60.32V60.2223V60.1228H6.30839H6.21745V60.04V59.9571H6.30839H6.39934V59.8495V59.7418H6.48863H6.57793L6.5895 59.5512L6.60108 59.3606H6.69036H6.77801L6.78297 59.1651L6.78792 58.9713L6.88218 58.9663L6.97809 58.9614L6.9814 58.6763L6.98636 58.3914L7.07235 58.3864L7.15668 58.3815L7.16825 58.1925L7.17983 58.002H7.26912H7.35676L7.36171 57.8065L7.36668 57.6126L7.46259 57.6076L7.55684 57.6027V57.4651C7.55684 57.3889 7.5618 57.2597 7.56676 57.1768L7.57833 57.0244H7.65771H7.73542L7.747 56.8339L7.75857 56.6433H7.84622H7.93386L7.94543 56.4445L7.95701 56.2457H8.0463H8.13559V56.1081C8.13559 56.0319 8.14056 55.901 8.14551 55.8182L8.15709 55.6658H8.24473H8.33402V55.4752V55.2846H8.42331H8.51261L8.52419 55.0859L8.53741 54.887H8.62505H8.71435V54.7495C8.71435 54.6733 8.7193 54.5424 8.72427 54.4595L8.73584 54.3071H8.82348H8.91277V54.1165V53.926H9.00207H9.09136L9.10293 53.7272L9.11616 53.5283H9.2038H9.29309V53.3825C9.29309 53.303 9.29806 53.177 9.30468 53.1008L9.3146 52.9649H9.40223H9.49152V52.8109C9.49152 52.728 9.49649 52.5971 9.5031 52.5209L9.51302 52.385H9.60066H9.68995V52.2774V52.1697H9.7809H9.87184V52.0404C9.87184 51.9675 9.87681 51.8416 9.88176 51.7588L9.89334 51.6063H9.98098H10.0686L10.0736 51.4108L10.0785 51.2169L10.1745 51.212L10.2687 51.207V51.0099V50.811H10.3579H10.4473L10.4589 50.6204L10.4704 50.4299H10.5597H10.649V50.3305V50.2311H10.5581H10.4672V50.1482V50.0671L10.5631 50.0621L10.6573 50.0571L10.6623 49.9527L10.6672 49.85H10.7565H10.8475V49.7506V49.6512H10.9368H11.0261L11.0376 49.4606L11.0492 49.2701H11.1384H11.2261L11.2311 49.174L11.236 49.0795L11.3303 49.0746L11.4246 49.0696L11.4295 48.9751L11.4345 48.8807L11.5204 48.8757L11.6064 48.8708L11.6114 48.7846L11.6164 48.6985L11.7123 48.6935L11.8066 48.6885V48.6006V48.5112L12.005 48.4996L12.2034 48.488V48.3903V48.2925H12.2944H12.3853V48.2014V48.1103H12.5837H12.7821V48.0108V47.9114H13.0715H13.3609V47.8203V47.7291H13.5973C13.728 47.7291 13.9033 47.7242 13.9859 47.7192L14.1381 47.7076V47.6198V47.5303H12.3026H10.4672V47.6298Z" fill="white"/>
<path d="M17.0483 47.6197V47.7076L17.2004 47.7192C17.2831 47.7241 17.4583 47.7291 17.589 47.7291H17.8255V47.8202V47.9114H18.0156H18.2058V48.0108V48.1102H18.4042H18.6026V48.1997V48.2891L18.7929 48.3007L18.983 48.3123V48.4018V48.4897L19.0789 48.4946L19.1731 48.4996L19.1781 48.5923L19.1831 48.6868L19.3617 48.6984L19.5419 48.71L19.5534 48.8906L19.5651 49.0712H19.6526H19.7403L19.7519 49.2701L19.7635 49.4688H19.8528H19.942V49.56V49.6511H20.0313H20.119L20.1305 49.8035C20.1355 49.8864 20.1404 50.0206 20.1404 50.1018V50.2476H20.0412H19.942V50.5376V50.8275H19.8528H19.7651L19.7536 50.9799C19.7486 51.0628 19.7437 51.1937 19.7437 51.27V51.4074H19.6526H19.5633L19.5584 51.6013L19.5534 51.7968L19.4592 51.8018L19.3633 51.8068V52.0951V52.385H19.274H19.1847L19.1731 52.5756L19.1616 52.7661H19.0723H18.983V52.9119C18.983 52.9931 18.9781 53.1273 18.9731 53.2102L18.9615 53.3626H18.8739H18.7846L18.7812 53.6476L18.7763 53.9343L18.6903 53.9392L18.606 53.9442L18.5944 54.133L18.5828 54.3236H18.4935H18.4042V54.476C18.4042 54.5605 18.3992 54.6914 18.3927 54.766L18.3827 54.9035H18.2951H18.2058V55.0559C18.2058 55.1404 18.2008 55.2714 18.1942 55.346L18.1843 55.4834H18.0966H18.0074V55.6823V55.8811H17.9164H17.8255V56.0186C17.8255 56.0949 17.8205 56.2258 17.8156 56.3085L17.804 56.461H17.7163H17.627V56.5986C17.627 56.6748 17.6221 56.8057 17.6171 56.8885L17.6056 57.0409H17.5179H17.4286V57.2315V57.4221H17.3377H17.2468V57.5579C17.2468 57.6341 17.2418 57.7683 17.2351 57.8561L17.2252 58.0185H17.1359H17.0483V58.1477C17.0483 58.2206 17.0434 58.3466 17.0384 58.4295L17.0268 58.5819H16.9392H16.8499V58.7807V58.9795H16.759H16.6679V59.117C16.6679 59.1932 16.663 59.3241 16.658 59.407L16.6465 59.5594H16.5588H16.4695V59.6969C16.4695 59.7731 16.4645 59.9041 16.4596 59.9869L16.4481 60.1394H16.3604H16.2712V60.3382V60.537H16.1719H16.0727V60.827V61.1169H15.9834H15.8941L15.8825 61.3075L15.871 61.4981H15.7817H15.6923V61.5975V61.6968H15.5931H15.4939V61.7962V61.8957H15.403H15.3121V61.9868V62.078H15.0144H14.7168V62.1658V62.2552L15.0028 62.2651C15.3683 62.2801 16.0678 62.2801 16.6067 62.2651L17.0317 62.2552V62.1658V62.078H16.7424H16.453V61.9868V61.8957H16.3621H16.2712V61.5975V61.2992H16.3621H16.453V61.1451C16.453 61.0623 16.458 60.9314 16.4645 60.8551L16.4746 60.7193H16.5621H16.6514L16.6548 60.4243L16.6597 60.1311L16.744 60.1261L16.8283 60.1211L16.84 59.9952C16.8449 59.9257 16.8499 59.8411 16.8499 59.8046V59.7417H16.9408H17.0317V59.6042C17.0317 59.5279 17.0367 59.397 17.0416 59.3142L17.0533 59.1618H17.1409H17.2302V59.0242C17.2302 58.948 17.2351 58.8171 17.2401 58.7343L17.2517 58.5819H17.3393H17.4286V58.383V58.1842H17.5195H17.6106V57.9937V57.8031H20.1322H22.6539V57.9025V58.002H22.7532H22.8524V58.2919V58.5819H22.9417H23.0293L23.0409 58.7343C23.0459 58.8171 23.0508 58.948 23.0508 59.0242V59.1618H23.1417H23.2327V59.4517V59.74L23.3285 59.745L23.4228 59.75L23.4278 60.035L23.4311 60.3217H23.5204H23.608L23.6196 60.4741C23.6246 60.5569 23.6295 60.6878 23.6295 60.764V60.9016H23.7205H23.8114V61.2992V61.6968H23.9024H23.9933V61.788V61.8791H23.9024H23.8114V61.9785V62.078H23.7122H23.6129V62.1774V62.2767H25.4534C26.4671 62.2767 27.5534 62.2718 27.8677 62.2651L28.4414 62.2552V62.1658V62.078H27.9619H27.4823V61.9868V61.8973L27.3881 61.8923L27.2922 61.8874L27.2872 61.7913L27.2823 61.6968H27.193H27.102V61.5063V61.3175L27.0078 61.3124L26.9119 61.3075L26.9069 61.0125L26.9036 60.7193H26.8143H26.7267L26.7168 60.5818C26.7101 60.5072 26.7052 60.3763 26.7052 60.2918V60.1394H26.6159H26.5283L26.5166 59.9869C26.5117 59.9041 26.5067 59.7731 26.5067 59.6969V59.5594H26.4158H26.3249V59.2695V58.9795H26.2356H26.1479L26.1364 58.8271C26.1314 58.7442 26.1265 58.6134 26.1265 58.5371V58.3996H26.0371H25.9495L25.9379 58.2472C25.933 58.1643 25.928 58.0335 25.928 57.9573V57.8197H25.8371H25.7461V57.6208V57.4221H25.6568H25.5676L25.5559 57.0326L25.5444 56.6433H25.4551H25.3658V56.5058C25.3658 56.4296 25.3608 56.2987 25.3559 56.2158L25.3442 56.0634H25.2567H25.1674V55.7733V55.4834H25.0681H24.9689V55.1935V54.9035H24.8796H24.792L24.7804 54.7511C24.7754 54.6682 24.7705 54.5373 24.7705 54.4611V54.3236H24.6796H24.5886V54.1696C24.5886 54.0867 24.5837 53.9558 24.577 53.8812L24.5671 53.7453L24.4827 53.7403L24.3984 53.7354L24.3934 53.4487L24.3902 53.1638H24.3009H24.2132L24.2033 53.0014C24.1967 52.9136 24.1918 52.7827 24.1918 52.7114V52.5838H24.1025H24.0132L24.0016 52.1945L23.99 51.8051H23.9007H23.8114V51.5151V51.2269L23.7171 51.2219L23.6212 51.2169L23.6163 50.9303L23.6129 50.6452H23.5237H23.4361L23.4245 50.4928C23.4196 50.41 23.4146 50.2791 23.4146 50.2029V50.0654H23.3236H23.2327V49.8665V49.6677H23.1334H23.0342V49.4771V49.2882L22.94 49.2833L22.8441 49.2783L22.8391 49.1839L22.8342 49.0895L22.7399 49.0844L22.6457 49.0795L22.6407 48.9834L22.6357 48.8889H22.5464H22.4555V48.7896V48.6901H22.3563H22.2571V48.599V48.5096L22.1628 48.5045L22.0669 48.4996L22.062 48.4035L22.057 48.309H21.9677H21.8767V48.2097V48.1102H21.6784H21.4799V48.0207V47.9313L21.2897 47.9196L21.0995 47.908V47.8186V47.7291H20.8102H20.5208V47.6297V47.5303H18.7846H17.0483V47.6197ZM20.5208 51.2086V51.4074H20.6101H20.6977L20.7076 51.5433C20.7143 51.6195 20.7193 51.7952 20.7193 51.9327V52.1862H20.8185H20.9177V52.4761V52.7661H21.0086H21.0995V52.9036C21.0995 52.9798 21.1045 53.1108 21.1095 53.1936L21.1211 53.3461H21.2087H21.298V53.636V53.9243L21.3939 53.9292L21.4881 53.9343L21.4931 54.2192L21.4964 54.5059H21.5857H21.6733L21.6833 54.6666C21.6899 54.756 21.6948 54.887 21.6948 54.9565V55.0858H21.7858H21.8767V55.384V55.6823H21.9759H22.0751V55.9722V56.2622H22.1644H22.2521L22.262 56.3981C22.2686 56.4743 22.2736 56.6051 22.2736 56.688V56.8421H22.3646H22.4555V57.0326V57.2232H20.2315H18.0074V56.9332V56.6433H18.1065H18.2058V56.3534V56.0634H18.2968H18.3861L18.391 55.8678L18.396 55.674L18.4903 55.669L18.5861 55.664L18.5895 55.3791L18.5944 55.0941L18.6903 55.0891L18.7846 55.0841V54.8952V54.7047H18.8755H18.9664V54.5506C18.9664 54.4677 18.9714 54.3368 18.9781 54.2606L18.988 54.1247H19.0755H19.1649V53.8348V53.5448H19.2641H19.3633V53.3461V53.1472H19.4542H19.5452V53.0097C19.5452 52.9335 19.5502 52.8026 19.5552 52.7197L19.5667 52.5673H19.6544H19.7437L19.7469 52.2806L19.7519 51.9956L19.8478 51.9907L19.942 51.9857V51.7885V51.5897H20.0313H20.119L20.1289 51.4522C20.1355 51.3777 20.1404 51.2517 20.1404 51.1721V51.028L20.2446 51.0213C20.3008 51.0181 20.3869 51.0148 20.4349 51.0131L20.5208 51.0098V51.2086Z" fill="white"/>
<path d="M29.9958 47.6215V47.7125H30.1943H30.3927V47.8119V47.9114H30.6821H30.9715V48.0108V48.1102H31.1699H31.3684V48.1997V48.2891L31.5486 48.3007L31.7288 48.3123L31.7404 48.5012L31.752 48.6901H31.8413H31.9305V48.7896V48.8889H31.8396H31.7487V55.2465C31.7487 58.7442 31.7437 61.667 31.7371 61.7416L31.7271 61.8791H31.6395H31.5502V61.9785V62.078H31.1616H30.7731V62.1658V62.2552L31.208 62.2651C31.7619 62.2801 32.4216 62.2801 32.8036 62.2651L33.1046 62.2552V62.1658V62.078H32.807H32.5093V61.9785V61.8791H32.42H32.3307L32.3192 61.6753C32.3142 61.5643 32.3109 58.7293 32.3142 55.3757L32.3192 49.2783L32.4234 49.2733L32.5258 49.2683V49.3695V49.4688H32.625H32.7242V49.56V49.6511H32.8152H32.9062V49.941V50.2294L33.0021 50.2344L33.0963 50.2393L33.1013 50.5326L33.1046 50.8275H33.1955H33.2865V50.965C33.2865 51.0412 33.2914 51.1721 33.2964 51.255L33.308 51.4074H33.3956H33.4849V51.5599C33.4849 51.6444 33.4899 51.7753 33.4964 51.8499L33.5065 51.9874H33.594H33.6833V52.2773V52.5673H33.7726H33.8602L33.8719 52.7197C33.8768 52.8026 33.8818 52.9335 33.8818 53.0097V53.1472H33.9727H34.0636V53.2996C34.0636 53.3841 34.0686 53.515 34.0753 53.5896L34.0852 53.7255L34.1695 53.7305L34.2539 53.7354L34.2588 54.0204L34.2621 54.307H34.3514H34.4391L34.4506 54.4595C34.4555 54.5423 34.4605 54.6765 34.4605 54.7578V54.9035H34.5514H34.6407L34.6457 55.0973L34.6506 55.2929L34.7466 55.2979L34.8409 55.3029V55.3923V55.4834H34.7499H34.6589V55.5746V55.6657H34.7499H34.8409V55.9557V56.2439L34.9368 56.2489L35.031 56.2539L35.036 56.5389L35.0393 56.8256H35.1285H35.2162L35.2277 56.978C35.2327 57.0608 35.2377 57.195 35.2377 57.2762V57.4221H35.327H35.4146L35.4262 57.5745C35.4311 57.6574 35.4361 57.7882 35.4361 57.8644V58.002H35.5271H35.618V58.2919V58.5819H35.7073H35.7949L35.8066 58.7343C35.8115 58.8171 35.8165 58.948 35.8165 59.0242V59.1618H35.9074H35.9983V59.3142C35.9983 59.3987 36.0033 59.5297 36.0099 59.6042L36.0199 59.7417H36.1074H36.1967V60.0316V60.3217H36.2861H36.3737L36.3853 60.4741C36.3902 60.5569 36.3952 60.6911 36.3952 60.7723V60.9181H36.4845H36.5722L36.5837 61.0706C36.5887 61.1534 36.5936 61.2793 36.5936 61.3522V61.4815H36.6845H36.7756V61.5808V61.6803H36.8665H36.9558L36.9608 61.783L36.9657 61.8874L37.0699 61.8923L37.1723 61.8973V61.9868V62.078H37.2716H37.3708V62.1658V62.2552L37.647 62.2651C37.7975 62.2718 38.0984 62.2767 38.3166 62.2767H38.7103V62.1774V62.078H38.8012H38.8921V61.9404C38.8921 61.8659 38.8971 61.7316 38.9036 61.6422L38.9136 61.4815H38.9996H39.0872L39.0988 61.1003L39.1104 60.7193H39.1997H39.289V60.6198V60.5204H39.3799H39.4708V60.3829C39.4708 60.3067 39.4758 60.1758 39.4807 60.0929L39.4924 59.9405H39.5799H39.6693V59.803C39.6693 59.7268 39.6742 59.5959 39.6792 59.513L39.6908 59.3606H39.7784H39.8677V59.1618V58.963H39.9586H40.0496V58.8338C40.0496 58.7641 40.0546 58.6332 40.0612 58.5437L40.0711 58.383H40.1604H40.2481V58.2456C40.2481 58.1692 40.253 58.0384 40.258 57.9555L40.2695 57.8031H40.3572H40.4465V57.6125V57.4221H40.5457H40.6448V57.1238V56.8256H40.7359H40.8268V56.6963C40.8268 56.6267 40.8317 56.4958 40.8383 56.4064L40.8482 56.2457H40.9375H41.0252V56.0551V55.8645H41.1244H41.2237V55.6193C41.2237 55.4851 41.2286 55.3145 41.2352 55.2382L41.2451 55.1024H41.3229H41.4023L41.4138 54.9035L41.4253 54.7047H41.5146H41.6039V54.5672C41.6039 54.491 41.6089 54.36 41.6139 54.2772L41.6255 54.1247H41.7131H41.8024V53.926V53.7271H41.8933H41.9843V53.5979C41.9843 53.5283 41.9893 53.3973 41.9959 53.3079L42.0058 53.1472H42.0917H42.1778L42.1893 52.9948C42.1943 52.9119 42.1992 52.7412 42.1992 52.6137V52.385H42.2886H42.3779L42.3894 52.1945L42.401 52.0039H42.4903H42.5795V51.7968V51.5897H42.6688H42.7565L42.7664 51.4522C42.773 51.3777 42.778 51.2467 42.778 51.1622V51.0098H42.869H42.9599V50.9187V50.8275H43.0591H43.1583V50.7281V50.627L43.2542 50.632L43.3485 50.6369L43.3534 56.1661L43.3568 61.6968H43.2675H43.1765L43.1716 61.7913L43.1666 61.8874L43.0724 61.8923L42.9764 61.8973V61.9868V62.078H42.5878H42.1992V62.1658V62.2552L42.773 62.2651C43.0872 62.2718 44.0016 62.2767 44.8037 62.2767C45.6056 62.2767 46.52 62.2718 46.8342 62.2651L47.408 62.2552V62.1658V62.078H47.0194H46.6309V61.9868V61.8957H46.5399H46.4489V61.7962V61.6968H46.3497H46.2505V54.9035V48.1102H46.3497H46.4489V48.0108V47.9114H46.5399H46.6309V47.8202V47.7291H46.8673C46.9979 47.7291 47.1732 47.7241 47.2559 47.7192L47.408 47.7076V47.6197V47.5303H45.3824H43.3568V48.1566C43.3568 48.5029 43.3518 48.8525 43.3469 48.9353L43.3352 49.0878H43.2558H43.1782L43.1666 49.2783L43.155 49.4688H43.0657H42.9764V49.6064C42.9764 49.6826 42.9714 49.8135 42.9665 49.8963L42.955 50.0487H42.8673H42.778L42.7747 50.3421L42.7698 50.6369L42.6755 50.642L42.5795 50.6469V50.8358V51.0264H42.4886H42.3977V51.1639C42.3977 51.2401 42.3927 51.371 42.3878 51.4539L42.3761 51.6063H42.2886H42.1992V51.7438C42.1992 51.82 42.1943 51.9509 42.1893 52.0338L42.1778 52.1862H42.0901H42.0008V52.385V52.5838H41.9099H41.819V52.7214C41.819 52.7976 41.814 52.9285 41.809 53.0113L41.7974 53.1638H41.7098H41.6205V53.3013C41.6205 53.3776 41.6156 53.5084 41.6106 53.5913L41.599 53.7437H41.5114H41.4221V53.9343V54.1247H41.3328H41.2435L41.232 54.5059L41.2203 54.8852L41.1261 54.8903L41.0335 54.8952L41.0286 55.0973L41.0236 55.3011H40.9343H40.8433V55.4917V55.6823H40.7441H40.6448V55.9722V56.2622H40.5556H40.4679L40.458 56.3981C40.4515 56.4743 40.4465 56.6051 40.4465 56.688V56.8421H40.3555H40.2662L40.2612 57.0359L40.2563 57.2315L40.162 57.2364L40.0661 57.2415V57.5298V57.8197H39.9768H39.8892L39.8793 57.9555C39.8726 58.0318 39.8677 58.1627 39.8677 58.2456V58.3996H39.7768H39.6858V58.5902V58.7807H39.5866H39.4874V59.0707V59.3606H39.289H39.0905V59.1701V58.9795H39.0012H38.9136L38.902 58.8271C38.8971 58.7442 38.8921 58.6134 38.8921 58.5371V58.3996H38.8012H38.7103V58.1097V57.8214L38.616 57.8163L38.52 57.8114L38.5151 57.5247L38.5118 57.2398H38.4208H38.3299V57.0857C38.3299 57.0028 38.3249 56.8719 38.3183 56.7957L38.3084 56.6598H38.2207H38.1314V56.4975C38.1314 56.4097 38.1265 56.2754 38.1199 56.1992L38.11 56.0634H38.0223H37.933V55.7733V55.4834H37.8437H37.7561L37.7445 55.331C37.7395 55.2481 37.7346 55.1172 37.7346 55.041V54.9035H37.6436H37.5527V54.7495C37.5527 54.6666 37.5478 54.5357 37.5411 54.4611L37.5312 54.3252L37.4468 54.3203L37.3626 54.3153L37.3576 54.0286L37.3543 53.7437H37.265H37.1774L37.1658 53.5913C37.1608 53.5084 37.1558 53.3776 37.1558 53.3013V53.1638H37.0665H36.9772L36.9657 52.7744L36.9541 52.385H36.8648H36.7756V52.2773V52.1697H36.6863H36.597L36.5853 51.7885L36.5722 51.4074H36.4861H36.3985L36.3869 51.0264L36.3754 50.6452H36.2877H36.2017L36.1918 50.4829C36.1852 50.3951 36.1803 50.2642 36.1803 50.1946V50.067L36.0943 50.0621L36.0066 50.057L36.0017 49.8632L35.9967 49.6693L35.9024 49.6644L35.8082 49.6594L35.8032 49.4739L35.7983 49.2882L35.704 49.2833L35.6097 49.2783L35.6048 49.1822L35.5998 49.0878H35.5105H35.4196V48.9883V48.8889H35.3204H35.2212V48.7979V48.7083L35.1269 48.7034L35.031 48.6984L35.0261 48.6023L35.0211 48.5078H34.9318H34.8409V48.4084V48.309H34.7417H34.6424V48.2097V48.1102H34.444H34.2456V48.0207V47.9313L34.0554 47.9196L33.8652 47.908V47.8186V47.7291H33.6287C33.4982 47.7291 33.3229 47.7241 33.2402 47.7192L33.088 47.7076V47.6197V47.5303H31.9305H30.7731V47.6215V47.7125H30.6821H30.5911V47.6215V47.5303H30.2935H29.9958V47.6215Z" fill="white"/>
<path d="M49.5446 47.6247L49.5496 47.7208L49.8439 47.7258L50.1366 47.7291V47.8202V47.9114H50.2275H50.3184V48.1019V48.2908L50.4144 48.2958L50.5087 48.3007L50.5136 54.9035C50.5169 58.5355 50.5136 61.5891 50.5087 61.6902L50.497 61.8758L50.3168 61.8874L50.1366 61.899V61.9884V62.078H49.748H49.3594V62.1658V62.2552L49.7943 62.2651C50.3548 62.2801 53.657 62.2801 53.8538 62.2668L54.0059 62.2552V62.1674V62.078H53.8091H53.6124L53.6008 61.8874L53.5893 61.6968H53.4999H53.4106V54.9035V48.1102H53.5016H53.5909L53.5958 48.0141L53.6008 47.9196L53.6968 47.9147L53.791 47.9097V47.8202V47.7291H54.0275C54.1581 47.7291 54.3333 47.7241 54.4161 47.7192L54.5682 47.7076V47.6197V47.5303H52.0548H49.5396L49.5446 47.6247Z" fill="white"/>
<path d="M56.8997 47.6197V47.7092L57.2883 47.7208L57.6768 47.7324V47.8219V47.9114H57.9662H58.2555V48.0108V48.1102H58.4457H58.6359V48.2014V48.2924H58.7351H58.8344V48.3919V48.4897L59.0295 48.4946L59.2229 48.4996L59.2279 54.9947C59.2311 58.567 59.2279 61.5808 59.2229 61.6919L59.2113 61.8957H59.122H59.0327V61.9868V62.078H58.8344H58.6359V62.1674V62.2552L58.788 62.2668C58.9815 62.2801 59.6495 62.2801 60.3771 62.2651L60.9509 62.2552V62.1658V62.078H60.4714H59.9918V61.9785V61.8791H59.9025H59.8149L59.805 61.7416C59.7983 61.667 59.7934 58.9364 59.7934 55.674C59.7934 52.4115 59.7983 49.6809 59.805 49.6047L59.8149 49.4688H59.9025H59.9918V49.56V49.6495L60.0877 49.6545L60.1819 49.6594L60.1869 49.7539L60.192 49.85H60.2795H60.3688L60.3804 50.0405L60.392 50.231H60.4796H60.5657L60.5788 50.4299L60.5904 50.6287H60.6681H60.7475L60.7574 50.7645C60.764 50.8407 60.769 50.9701 60.769 51.0545V51.207L60.8649 51.2119L60.9592 51.2169L60.9641 51.4025L60.9691 51.5897H61.0567H61.1444L61.1576 51.7885L61.1692 51.9874H61.2585H61.3478V52.2773V52.5673H61.447H61.5462V52.7579V52.9483H61.6355H61.7247L61.7363 53.1472L61.7479 53.3461H61.8372H61.9265V53.636V53.926H62.0257H62.1249V54.1165V54.307H62.2142H62.3035L62.3151 54.5059L62.3267 54.7047H62.4143H62.5002L62.5119 54.8571C62.5168 54.94 62.5218 55.0709 62.5218 55.1471V55.2846H62.6127H62.7036V55.4752V55.664L62.7996 55.669L62.8939 55.674L62.8988 55.8678L62.9038 56.0634H62.9914H63.0807L63.0923 56.2539L63.1038 56.4444H63.1932H63.2825V56.7344V57.0227L63.3783 57.0277L63.4726 57.0326L63.4776 57.2265L63.4825 57.4221H63.5702H63.6594L63.671 57.6125L63.6826 57.8031H63.7719H63.8612V58.093V58.383H63.9604H64.0596V58.5819V58.7807H64.1489H64.2382L64.2498 58.9712L64.2614 59.1618H64.349H64.4349L64.4466 59.3142C64.4515 59.397 64.4565 59.5279 64.4565 59.6042V59.7417H64.5474H64.6383V59.9322V60.1211L64.7343 60.1261L64.8286 60.1311L64.8335 60.2256L64.8385 60.3217H64.9261H65.0138L65.027 60.5204L65.0385 60.7193H65.1278H65.2171V60.8104V60.8999L65.313 60.9048L65.4073 60.9099L65.4122 61.0042L65.4172 61.0987L65.5115 61.1037L65.6057 61.1086L65.6107 61.2015L65.6156 61.2959L65.7959 61.3075L65.9761 61.3191L65.981 61.4052L65.986 61.4898L66.0902 61.4947L66.1927 61.4997V61.5875V61.6769L66.3829 61.6885L66.573 61.7001V61.788V61.8758L66.7633 61.8874L66.9534 61.899V61.9884V62.078H67.1518H67.3503V62.1674V62.2568L67.7355 62.2685C67.9455 62.2735 68.2944 62.2767 68.5077 62.2734L68.8963 62.2685L68.9013 62.1724L68.9063 62.078H68.9955H69.0865V62.169V62.2602H69.1741H69.2634L69.2733 61.8344C69.28 61.6007 69.285 58.4179 69.285 54.7594V48.1102H69.3759H69.4668V48.0108V47.9114H69.566H69.6652V47.8202V47.7291L69.9596 47.7258L70.2522 47.7208L70.2572 47.6247L70.2622 47.5303H68.9955H67.7306V47.6197V47.7076L67.8827 47.7192C67.9654 47.7241 68.0993 47.7291 68.1803 47.7291H68.3259V47.8202V47.9114H68.4168H68.5077V48.0108V48.1102H68.6069H68.7061V54.4147V60.7193H68.5987H68.4912V60.6281V60.537H68.4003H68.3093V60.4393V60.3415L68.1191 60.3299L67.929 60.3183V60.1758C67.929 60.0962 67.924 59.9704 67.9175 59.8942L67.9074 59.7583H67.8199H67.7306V59.4683V59.18L67.6363 59.175L67.5404 59.1701L67.5355 58.9746L67.5305 58.7807H67.4428H67.3535L67.342 58.5902L67.3303 58.3996H67.2411H67.1518V58.1097V57.8197H67.0526H66.9534V57.6208V57.4221H66.8641H66.7748L66.7633 57.2315L66.7516 57.0409H66.664H66.578L66.5681 56.8786C66.5615 56.7908 66.5565 56.6598 66.5565 56.5886V56.461H66.4656H66.3746V56.3534V56.2457H66.2854H66.1977L66.1878 56.1081C66.1811 56.0336 66.1761 55.9076 66.1761 55.8264V55.6823H66.0869H65.9976L65.986 55.4834L65.9745 55.2846H65.8852H65.7959V55.0029V54.7229L65.7016 54.718L65.6057 54.7129L65.6008 54.5175L65.5958 54.3236H65.5081H65.4188L65.4073 54.133L65.3957 53.9425H65.3065H65.2171V53.6525V53.3642L65.1229 53.3593L65.027 53.3543L65.0219 53.1588L65.017 52.9649H64.9294H64.8401L64.8286 52.7661L64.8169 52.5673H64.7294H64.6433L64.6318 52.4149C64.6268 52.332 64.6218 52.2061 64.6218 52.1348V52.0056L64.5359 52.0006L64.4482 51.9956L64.4432 51.8001L64.4383 51.6063H64.3507H64.2614L64.2498 51.4074L64.2382 51.2086H64.1489H64.0596V51.1092V51.0098H63.9604H63.8612V50.9187V50.8275H63.9521H64.0431V50.7364V50.6452H63.9521H63.8612V50.4465V50.2476H63.762H63.6627V50.057V49.8665H63.5734H63.4841L63.4726 49.6677L63.4611 49.4688H63.3718H63.2825V49.3778V49.2882L63.1882 49.2833L63.0923 49.2783L63.0874 49.1839L63.0823 49.0895L62.9881 49.0844L62.8939 49.0795L62.8889 48.985L62.884 48.8906L62.7897 48.8857L62.6954 48.8806L62.6905 48.7945L62.6855 48.7083L62.5995 48.7034L62.5135 48.6984L62.5085 48.6039L62.5036 48.5096L62.4093 48.5045L62.3151 48.4996L62.3101 48.4068L62.3052 48.3123L62.1166 48.3007L61.9265 48.2891V48.1997V48.1102H61.8273H61.7281V48.0191V47.9279H61.5908C61.5148 47.9279 61.3842 47.923 61.3014 47.918L61.1493 47.9064V47.8186V47.7291H60.86H60.5706V47.6297V47.5303H58.7351H56.8997V47.6197Z" fill="white"/>
<path d="M23.0508 62.1693V62.2604H23.2409H23.4311V62.1693V62.0781H23.2409H23.0508V62.1693Z" fill="white"/>
<path d="M54.1877 62.1693V62.2604H54.3779H54.5681V62.1693V62.0781H54.3779H54.1877V62.1693Z" fill="white"/>
<path d="M58.2554 62.1693V62.2604H58.3546H58.4539V62.1693V62.0781H58.3546H58.2554V62.1693Z" fill="white"/>
<path d="M13.1792 66.8228V66.9124L13.361 66.924C13.462 66.9305 13.6323 66.9305 13.7414 66.924L13.9399 66.9124V66.8228V66.7334H13.5595H13.1792V66.8228Z" fill="white"/>
<path d="M33.4965 66.8693C33.49 66.9455 33.4849 67.3348 33.4849 67.7375V68.4682L33.3494 68.4781C33.2733 68.4848 33.0981 68.4897 32.9608 68.4897H32.7078V68.3903V68.2908H32.4184H32.129V68.3903V68.4897H31.9389H31.7487V68.5809V68.672H31.6494H31.5503V68.7713V68.8708H31.4593H31.3684V68.9719V69.0746L31.5056 69.0647C31.5801 69.058 31.6611 69.0531 31.6858 69.0531H31.7288L31.7405 68.8625L31.752 68.672H32.6185H33.4849V70.3206V71.9692H33.1956H32.9062V72.0703V72.173L33.2783 72.1647C33.4833 72.1598 33.6569 72.1515 33.6635 72.1449C33.6784 72.1283 33.69 67.2089 33.6752 66.9356L33.6635 66.7334H33.5841H33.5065L33.4965 66.8693Z" fill="white"/>
<path d="M45.49 67.3133V67.8932H45.5809H45.6719V67.3133V66.7334H45.5809H45.49V67.3133Z" fill="white"/>
<path d="M12.7905 67.1232L12.7789 67.3136H12.6929H12.6053L12.5953 67.6153C12.5888 67.7793 12.5838 68.0444 12.5838 68.2034V68.4901H12.4929H12.4019V68.5812V68.6723H12.4912H12.5805L12.5921 69.0733C12.5987 69.2954 12.5987 70.0161 12.5937 70.6772C12.5888 71.3383 12.5888 71.9398 12.5953 72.0144L12.6053 72.1519H12.6929H12.7822V70.4121V68.6723H13.27H13.7595L13.7545 68.5762L13.7495 68.4818L13.3692 68.4801C13.1609 68.4801 12.9426 68.4785 12.8864 68.4768L12.7822 68.4735V67.8936V67.3136H12.8732H12.9641V67.1232V66.9326H12.8831H12.8021L12.7905 67.1232Z" fill="white"/>
<path d="M41.6205 68.046C41.6205 68.1305 41.6156 68.2613 41.6106 68.3343L41.599 68.4701L41.4204 68.4818L41.2402 68.4934V68.5828V68.6706L41.4271 68.6756L41.6122 68.6805L41.6172 70.2247L41.6205 71.7707H41.7115H41.8024V70.2215V68.6722H42.282H42.7615V68.5828V68.495L42.6259 68.485C42.5498 68.4784 42.3349 68.4735 42.1464 68.4735H41.8024V68.1835V67.8936H41.7115H41.6205V68.046Z" fill="white"/>
<path d="M17.4287 68.3822V68.4734H17.5196H17.6106V68.3822V68.291H17.5196H17.4287V68.3822Z" fill="white"/>
<path d="M27.499 68.3822V68.4734H27.6809H27.8628V68.3822V68.291H27.6809H27.499V68.3822Z" fill="white"/>
<path d="M37.1689 68.3855L37.164 68.4816L36.8796 68.4866L36.5936 68.4899V68.5446C36.5936 68.5728 36.5886 68.6589 36.5819 68.7335L36.572 68.8709H36.6746H36.7754V68.7715V68.6721L37.6485 68.6754L38.52 68.6805L38.5249 70.324L38.5283 71.9694H38.3827C38.3017 71.9694 38.1678 71.9744 38.0834 71.981L37.9313 71.9909L37.9363 72.0754L37.9412 72.1599L38.1397 72.1649C38.2488 72.1682 38.4224 72.1649 38.5249 72.1599L38.7101 72.1484V70.4102V68.6721H38.6192H38.5283V68.581V68.4899H38.1314H37.7345V68.3905V68.291H37.4534H37.1739L37.1689 68.3855Z" fill="white"/>
<path d="M49.3594 68.3822V68.4734H49.4503H49.5413V68.3822V68.291H49.4503H49.3594V68.3822Z" fill="white"/>
<path d="M54.5845 68.3822V68.4734H54.6754H54.7663V68.3822V68.291H54.6754H54.5845V68.3822Z" fill="white"/>
<path d="M23.4311 70.2201V71.9648L23.279 71.9764C23.1963 71.9813 22.806 71.9863 22.4109 71.9863H21.6948V72.0691V72.152H22.3695C22.7399 72.152 23.1715 72.157 23.3286 72.1636L23.613 72.1735V70.3244V68.4736H23.522H23.4311V70.2201Z" fill="white"/>
<path d="M26.5234 70.3112V72.1521H26.6144H26.7053V70.4123V68.6725H26.8129H26.9203V68.5815V68.4903H26.8591C26.8244 68.4903 26.7351 68.4854 26.6606 68.4787L26.5234 68.4688V70.3112Z" fill="white"/>
<path d="M45.49 70.321V72.1685H45.5809H45.6719V70.321V68.4736H45.5809H45.49V70.321Z" fill="white"/>
<path d="M53.5228 68.4854L53.4302 68.492L53.4187 68.6776C53.4137 68.7803 53.4104 69.564 53.4137 70.4207L53.4187 71.9781H53.5096H53.6005L53.6055 70.3246L53.6088 68.6727H53.9891H54.3695V68.5815V68.4903H54.1263C53.9908 68.4903 53.8221 68.487 53.7494 68.4837C53.6766 68.4805 53.5757 68.4805 53.5228 68.4854Z" fill="white"/>
<path d="M16.6646 68.5847L16.6596 68.6808L16.5654 68.6857L16.4695 68.6907V68.8348C16.4695 68.9144 16.4645 69.0404 16.4579 69.115L16.4479 69.2524H16.3604H16.271V70.3211V71.3898H16.3604H16.4479L16.4579 71.5257C16.4645 71.6019 16.4695 71.7328 16.4695 71.8157V71.9697H16.6513H16.8316L16.8366 72.0642L16.8416 72.1603L17.1359 72.1653L17.4286 72.1686V72.2597V72.3508H17.5195H17.6104V72.2597V72.1686H17.5195H17.4286V72.0792V71.9913L17.2765 71.9797C17.1937 71.9747 17.0598 71.9697 16.9788 71.9697H16.8333V71.8786V71.7875H16.7424H16.6513V70.3211V68.8547H16.7424H16.8333V68.7637V68.6725H17.0317H17.2301V68.5814V68.4902H16.949H16.6695L16.6646 68.5847Z" fill="white"/>
<path d="M17.6272 68.5814V68.6725H17.8173H18.0075V68.5814V68.4902H17.8173H17.6272V68.5814Z" fill="white"/>
<path d="M18.2058 68.6725V68.8531L18.3017 68.858L18.3959 68.8631V70.3211V71.7792L18.3017 71.7842L18.2058 71.7891V71.8886V71.988L18.3017 71.983L18.3959 71.978L18.4009 71.8819L18.4058 71.7875H18.4952H18.5861V70.2382V68.6907L18.4919 68.6857L18.3959 68.6808L18.391 68.5847L18.386 68.4902H18.2967H18.2058V68.6725Z" fill="white"/>
<path d="M27.1023 68.5814V68.6725H27.1932H27.2841V68.5814V68.4902H27.1932H27.1023V68.5814Z" fill="white"/>
<path d="M27.8792 68.5814V68.6725H28.0694H28.2595V68.5814V68.4902H28.0694H27.8792V68.5814Z" fill="white"/>
<path d="M48.7805 68.5814V68.6725H49.0617H49.3427V68.5814V68.4902H49.0617H48.7805V68.5814Z" fill="white"/>
<path d="M49.7397 68.5814V68.6725H50.0291H50.3185V68.772V68.8714H50.4177H50.5169V70.3211V71.771H50.6079H50.6988V70.3211V68.8714H50.6079H50.5169V68.772V68.6725H50.4177H50.3185V68.5814V68.4902H50.0291H49.7397V68.5814Z" fill="white"/>
<path d="M54.783 68.5814V68.6725H55.0641H55.3451V68.5814V68.4902H55.0641H54.783V68.5814Z" fill="white"/>
<path d="M21.2981 70.13V71.5881H21.3874H21.4767L21.4882 71.7786L21.4998 71.9691H21.589H21.6783V71.7786V71.5881H21.5841H21.4882L21.4932 70.13L21.4981 68.6719H21.3989H21.2981V70.13Z" fill="white"/>
<path d="M28.2761 68.7617V68.8545H28.367H28.4581V70.4202V71.9877L28.5539 71.9827L28.6482 71.9778V70.3424C28.6482 69.4443 28.6449 68.7037 28.6399 68.7004C28.635 68.6954 28.5523 68.6871 28.4547 68.6805L28.2761 68.6689V68.7617Z" fill="white"/>
<path d="M48.582 68.7714V68.8707H48.4828H48.3835V68.9701V69.0695H48.4382C48.4663 69.0695 48.5522 69.0646 48.6283 69.0579L48.7639 69.048V68.8608V68.6719H48.673H48.582V68.7714Z" fill="white"/>
<path d="M55.3618 68.7713V68.8707H55.4445H55.5272V68.7713V68.6719H55.4445H55.3618V68.7713Z" fill="white"/>
<path d="M55.5437 70.5114V72.1518H55.633H55.7223L55.7289 72.0474C55.7305 71.9911 55.7323 71.2538 55.7289 70.407L55.724 68.8711H55.633H55.5437V70.5114Z" fill="white"/>
<path d="M36.3953 70.4124V71.771H36.4862H36.5771V70.4124V69.0537H36.4862H36.3953V70.4124Z" fill="white"/>
<path d="M31.3684 70.5111V71.7704H31.5503H31.7322V71.6792V71.5882H31.6412H31.5503V70.4201V69.252H31.4593H31.3684V70.5111Z" fill="white"/>
<path d="M48.3835 70.5111V71.7704H48.5738H48.7639V71.6792V71.5882H48.6697H48.5738L48.5787 70.4201L48.5853 69.252H48.4845H48.3835V70.5111Z" fill="white"/>
<path d="M50.3184 71.8706V71.9699H50.4176H50.5184L50.5135 71.8738L50.5085 71.7795L50.4143 71.7745L50.3184 71.7695V71.8706Z" fill="white"/>
<path d="M36.5771 71.8783V71.9694H36.6763H36.7755V71.8783V71.7871H36.6763H36.5771V71.8783Z" fill="white"/>
<path d="M41.8191 71.8783V71.9694H41.91H42.0009V72.0589V72.1467L42.3233 72.1583C42.5003 72.165 42.717 72.165 42.8029 72.1583L42.96 72.1467V72.0689V71.9893L42.7665 71.9777C42.659 71.9711 42.5086 71.9694 42.4308 71.9744C42.3532 71.9811 42.2258 71.9811 42.1464 71.9744L42.0009 71.9644V71.8766V71.7871H41.91H41.8191V71.8783Z" fill="white"/>
<path d="M17.8206 71.9813C17.8141 71.9863 17.8091 72.0311 17.8091 72.0808V72.1686H17.9083H18.0076V72.0692V71.9697H17.9199C17.8703 71.9697 17.8256 71.9747 17.8206 71.9813Z" fill="white"/>
<path d="M31.8445 71.9814L31.7485 71.988V72.0675V72.147L31.8941 72.1586C31.9735 72.1636 32.1041 72.1636 32.1834 72.1586L32.3274 72.147V72.0692V71.9913L32.1752 71.9797C32.0925 71.9747 32.0049 71.9714 31.9818 71.9731C31.9586 71.9747 31.8957 71.978 31.8445 71.9814Z" fill="white"/>
<path d="M48.8764 71.9813L48.7805 71.988V72.0675V72.1471L48.9178 72.157C48.9922 72.1636 49.1178 72.1686 49.1989 72.1686H49.3427V72.0692V71.9697L49.1576 71.9731C49.055 71.9748 48.9277 71.978 48.8764 71.9813Z" fill="white"/>
<path d="M49.7397 72.0692V72.1686H49.8769C49.9531 72.1686 50.0837 72.1636 50.1664 72.1586L50.3185 72.1471V72.0692V71.9913L50.1664 71.9797C50.0837 71.9748 49.9531 71.9697 49.8769 71.9697H49.7397V72.0692Z" fill="white"/>
<path d="M36.9741 72.0774V72.1686H37.065H37.156V72.0774V71.9863H37.065H36.9741V72.0774Z" fill="white"/>
</g>
<defs>
<clipPath id="clip0_1263_14649">
<rect width="70.2857" height="72" fill="white" transform="translate(0 0.350586)"/>
</clipPath>
</defs>
</svg>
