<svg width="76" height="62" viewBox="0 0 76 62" fill="none" xmlns="http://www.w3.org/2000/svg">
<path d="M66.9771 34.9082L61.0083 45.2411V47.895L66.9771 34.9082Z" fill="#331C10"/>
<path d="M60.1116 21.8407C59.9352 31.1766 44.7633 31.1766 44.5869 21.8407C44.7633 12.4913 59.9352 12.4913 60.1116 21.8407Z" fill="#016256"/>
<path d="M64.713 18.284C64.5954 23.9961 55.3335 23.9961 55.2306 18.284C55.3335 12.572 64.5954 12.572 64.713 18.284Z" fill="#016256"/>
<path d="M75.9155 28.6844C75.6068 45.2951 48.6297 45.2951 48.3357 28.6844C48.6444 12.0736 75.6068 12.0736 75.9155 28.6844Z" fill="#016256"/>
<g style="mix-blend-mode:multiply" opacity="0.4">
<path d="M74.4601 23.0396C75.3863 34.2616 60.6849 41.9135 50.6292 35.6761C60.141 48.5821 81.9578 37.1445 74.4601 23.0396Z" fill="#016256"/>
</g>
<path d="M60.5673 30.8532L62.7872 61.2725H59.4647L60.5673 30.6511V30.8532Z" fill="#331C10"/>
<path d="M51.4965 28.6304L60.7877 47.0867L61.0083 44.0421L51.4965 28.6304Z" fill="#331C10"/>
<path d="M48.1741 31.675L56.3628 37.1446L55.6718 35.528L48.1741 31.675Z" fill="#331C10"/>
<mask id="mask0_12_25667" style="mask-type:luminance" maskUnits="userSpaceOnUse" x="48" y="28" width="19" height="34">
<path d="M66.9816 34.915L61.5465 44.3183C61.5406 44.0435 60.5424 30.9246 60.5659 30.6552L60.1337 42.6222L51.4922 28.6277L54.7221 35.0389L48.1741 31.6696L55.4895 36.5612L60.0278 45.5725C59.8926 49.381 59.5985 57.4263 59.4618 61.2766H62.7814L61.6964 46.3916L66.9816 34.915Z" fill="white"/>
</mask>
<g mask="url(#mask0_12_25667)">
<g style="mix-blend-mode:multiply">
<path d="M66.7567 49.9158L69.6382 42.0079L69.2854 35.6896L67.6535 33.6958L60.8909 46.1976L60.788 63.1047L70.0793 59.858L66.7567 49.9158Z" fill="#331C10"/>
</g>
<g style="mix-blend-mode:multiply">
<path d="M61.6406 43.7592L62.5521 32.8874L60.5674 30.6511L60.9496 45.0121L61.5524 44.3115L61.6406 43.7592Z" fill="#331C10"/>
</g>
<g style="mix-blend-mode:multiply">
<path d="M51.4966 28.6304L60.0234 43.4898L59.9058 41.1996L51.4966 28.6304Z" fill="#331C10"/>
</g>
</g>
<path d="M53.7899 29.7351C53.6282 38.0337 40.147 38.0337 40 29.7351C40.147 21.423 53.6282 21.423 53.7899 29.7351Z" fill="#016256"/>
<g style="mix-blend-mode:multiply" opacity="0.4">
<path d="M52.6432 26.2593C54.275 32.9952 44.8808 36.6326 40.2793 31.5402C43.6312 40.5663 58.0533 34.4501 52.6432 26.2593Z" fill="#016256"/>
</g>
<path d="M70.1672 26.0436C69.9614 36.7807 52.5549 36.7807 52.3491 26.0436C52.5549 15.3201 69.9614 15.3201 70.1672 26.0436Z" fill="#016256"/>
<g style="mix-blend-mode:multiply" opacity="0.4">
<path d="M68.6972 21.5576C70.6966 30.3412 58.8178 34.9486 52.7314 28.3878C57.039 40.0274 75.6656 32.133 68.6972 21.5576Z" fill="#016256"/>
</g>
<path d="M57.4506 62.0001C57.4506 62.0001 57.2889 59.9255 56.1128 58.9824C56.1128 58.9824 57.7741 60.2353 57.8917 60.4913C57.8917 60.4913 57.6417 58.5109 57.1713 57.9855C57.1713 57.9855 58.2298 58.8477 58.4356 59.3058C58.4356 59.3058 58.1122 57.8643 57.7888 57.4062C57.7888 57.4062 58.7443 58.6052 58.8914 59.454C58.8914 59.454 59.0678 57.1638 58.7296 56.2881C58.7296 56.2881 59.597 58.7669 59.6117 59.8851C59.6117 59.8851 59.6411 57.743 60.3174 56.9482C60.3174 56.9482 60.1851 59.0094 60.288 59.7638C60.288 59.7638 60.6114 58.6726 60.6114 57.9855C60.6114 57.9855 61.0231 59.3866 60.9055 60.0602C60.9055 60.0602 61.4935 58.8073 61.2289 57.0964C61.2289 57.0964 61.7434 58.4301 61.714 59.5483C61.714 59.5483 62.111 58.5648 62.6696 58.0125C62.6696 58.0125 61.9346 59.8312 61.9198 60.4105C61.9198 60.4105 62.2139 59.6965 62.7578 59.3731C62.7578 59.3731 62.0522 60.5991 61.8904 61.1245C61.8904 61.1245 62.4932 60.3835 63.4782 60.0737C63.4782 60.0737 62.3903 61.3265 62.3756 62.0001H57.4506Z" fill="#769914"/>
<path d="M61.1259 62.0001C61.1259 62.0001 61.023 60.5452 60.1851 59.8851C60.1851 59.8851 61.3612 60.7607 61.4347 60.9493C61.4347 60.9493 61.2583 59.5617 60.9348 59.1845C60.9348 59.1845 61.6699 59.7908 61.8169 60.1141C61.8169 60.1141 61.5817 59.1037 61.3612 58.7804C61.3612 58.7804 62.0374 59.6291 62.1403 60.2084C62.1403 60.2084 62.258 58.6053 62.0227 57.999C62.0227 57.999 62.6255 59.7369 62.6402 60.5183C62.6402 60.5183 62.6549 59.0229 63.14 58.4571C63.14 58.4571 63.0371 59.8985 63.1106 60.4239C63.1106 60.4239 63.3459 59.6695 63.3312 59.1845C63.3312 59.1845 63.6252 60.168 63.5517 60.6395C63.5517 60.6395 63.9486 59.7638 63.7722 58.5648C63.7722 58.5648 64.125 59.4944 64.1103 60.2758C64.1103 60.2758 64.3897 59.5887 64.7719 59.198C64.7719 59.198 64.2573 60.4778 64.2573 60.882C64.2573 60.882 64.4632 60.3835 64.8454 60.1545C64.8454 60.1545 64.3456 61.0167 64.2426 61.3804C64.2426 61.3804 64.669 60.8685 65.3452 60.653C65.3452 60.653 64.5808 61.5152 64.5661 62.0001H61.1259Z" fill="#769914"/>
<path d="M26.9771 20.9082L21.0083 31.2411V33.895L26.9771 20.9082Z" fill="#331C10"/>
<path d="M20.1115 7.84068C19.9351 17.1766 4.76327 17.1766 4.58685 7.84068C4.76327 -1.50874 19.9351 -1.50874 20.1115 7.84068Z" fill="#016256"/>
<path d="M24.713 4.28403C24.5954 9.99607 15.3335 9.99607 15.2306 4.28403C15.3335 -1.42801 24.5954 -1.42801 24.713 4.28403Z" fill="#016256"/>
<path d="M35.9155 14.6844C35.6068 31.2951 8.62972 31.2951 8.33569 14.6844C8.64442 -1.92636 35.6068 -1.92636 35.9155 14.6844Z" fill="#016256"/>
<g style="mix-blend-mode:multiply" opacity="0.4">
<path d="M34.4601 9.03955C35.3863 20.2616 20.6849 27.9135 10.6292 21.6761C20.141 34.5821 41.9578 23.1445 34.4601 9.03955Z" fill="#016256"/>
</g>
<path d="M20.5673 16.8532L22.7872 47.2725H19.4647L20.5673 16.6511V16.8532Z" fill="#331C10"/>
<path d="M11.4965 14.6304L20.7878 33.0867L21.0083 30.0421L11.4965 14.6304Z" fill="#331C10"/>
<path d="M8.17401 17.675L16.3627 23.1446L15.6717 21.528L8.17401 17.675Z" fill="#331C10"/>
<mask id="mask1_12_25667" style="mask-type:luminance" maskUnits="userSpaceOnUse" x="8" y="14" width="19" height="34">
<path d="M26.9815 20.915L21.5464 30.3183C21.5405 30.0435 20.5423 16.9246 20.5658 16.6552L20.1336 28.6222L11.4921 14.6277L14.722 21.0389L8.17401 17.6696L15.4894 22.5612L20.0278 31.5725C19.8925 35.381 19.5985 43.4263 19.4618 47.2766H22.7813L21.6964 32.3916L26.9815 20.915Z" fill="white"/>
</mask>
<g mask="url(#mask1_12_25667)">
<g style="mix-blend-mode:multiply">
<path d="M26.7566 35.9158L29.6381 28.0079L29.2853 21.6896L27.6534 19.6958L20.8908 32.1976L20.7878 49.1047L30.0791 45.858L26.7566 35.9158Z" fill="#331C10"/>
</g>
<g style="mix-blend-mode:multiply">
<path d="M21.6406 29.7592L22.5521 18.8874L20.5674 16.6511L20.9496 31.0121L21.5524 30.3115L21.6406 29.7592Z" fill="#331C10"/>
</g>
<g style="mix-blend-mode:multiply">
<path d="M11.4965 14.6304L20.0233 29.4898L19.9057 27.1996L11.4965 14.6304Z" fill="#331C10"/>
</g>
</g>
<path d="M13.7899 15.7351C13.6282 24.0337 0.147014 24.0337 0 15.7351C0.147014 7.42295 13.6282 7.42295 13.7899 15.7351Z" fill="#016256"/>
<g style="mix-blend-mode:multiply" opacity="0.4">
<path d="M12.6432 12.2593C14.2751 18.9952 4.8809 22.6326 0.279358 17.5402C3.63128 26.5663 18.0534 20.4501 12.6432 12.2593Z" fill="#016256"/>
</g>
<path d="M30.1672 12.0436C29.9614 22.7807 12.5549 22.7807 12.3491 12.0436C12.5549 1.32009 29.9614 1.32009 30.1672 12.0436Z" fill="#016256"/>
<g style="mix-blend-mode:multiply" opacity="0.4">
<path d="M28.6971 7.55762C30.6965 16.3412 18.8178 20.9486 12.7314 14.3878C17.0389 26.0274 35.6656 18.133 28.6971 7.55762Z" fill="#016256"/>
</g>
<path d="M17.4506 48.0001C17.4506 48.0001 17.2889 45.9255 16.1128 44.9824C16.1128 44.9824 17.7741 46.2353 17.8917 46.4913C17.8917 46.4913 17.6417 44.5109 17.1713 43.9855C17.1713 43.9855 18.2298 44.8477 18.4356 45.3058C18.4356 45.3058 18.1122 43.8643 17.7888 43.4062C17.7888 43.4062 18.7443 44.6052 18.8914 45.454C18.8914 45.454 19.0678 43.1638 18.7296 42.2881C18.7296 42.2881 19.597 44.7669 19.6117 45.8851C19.6117 45.8851 19.6411 43.743 20.3174 42.9482C20.3174 42.9482 20.1851 45.0094 20.288 45.7638C20.288 45.7638 20.6114 44.6726 20.6114 43.9855C20.6114 43.9855 21.0231 45.3866 20.9055 46.0602C20.9055 46.0602 21.4935 44.8073 21.2289 43.0964C21.2289 43.0964 21.7434 44.4301 21.714 45.5483C21.714 45.5483 22.111 44.5648 22.6696 44.0125C22.6696 44.0125 21.9346 45.8312 21.9198 46.4105C21.9198 46.4105 22.2139 45.6965 22.7578 45.3731C22.7578 45.3731 22.0522 46.5991 21.8904 47.1245C21.8904 47.1245 22.4932 46.3835 23.4782 46.0737C23.4782 46.0737 22.3903 47.3265 22.3756 48.0001H17.4506Z" fill="#769914"/>
<path d="M21.126 48.0001C21.126 48.0001 21.0231 46.5452 20.1851 45.8851C20.1851 45.8851 21.3612 46.7607 21.4347 46.9493C21.4347 46.9493 21.2583 45.5617 20.9349 45.1845C20.9349 45.1845 21.67 45.7908 21.817 46.1141C21.817 46.1141 21.5818 45.1037 21.3612 44.7804C21.3612 44.7804 22.0375 45.6291 22.1404 46.2084C22.1404 46.2084 22.258 44.6053 22.0228 43.999C22.0228 43.999 22.6256 45.7369 22.6403 46.5183C22.6403 46.5183 22.655 45.0229 23.1401 44.4571C23.1401 44.4571 23.0372 45.8985 23.1107 46.4239C23.1107 46.4239 23.3459 45.6695 23.3312 45.1845C23.3312 45.1845 23.6252 46.168 23.5517 46.6395C23.5517 46.6395 23.9487 45.7638 23.7723 44.5648C23.7723 44.5648 24.1251 45.4944 24.1104 46.2758C24.1104 46.2758 24.3897 45.5887 24.772 45.198C24.772 45.198 24.2574 46.4778 24.2574 46.882C24.2574 46.882 24.4632 46.3835 24.8455 46.1545C24.8455 46.1545 24.3456 47.0167 24.2427 47.3804C24.2427 47.3804 24.669 46.8685 25.3453 46.653C25.3453 46.653 24.5808 47.5152 24.5661 48.0001H21.126Z" fill="#769914"/>
</svg>
