<svg width="38" height="31" viewBox="0 0 38 31" fill="none" xmlns="http://www.w3.org/2000/svg">
<path d="M33.0919 17.7437L30.2285 22.7005V23.9737L33.0919 17.7437Z" fill="#331C10"/>
<path d="M29.7971 11.4749C29.7125 15.9536 22.4342 15.9536 22.3496 11.4749C22.4342 6.98981 29.7125 6.98981 29.7971 11.4749Z" fill="#016256"/>
<path d="M32.0059 9.76876C31.9495 12.5089 27.5064 12.5089 27.457 9.76876C27.5064 7.02858 31.9495 7.02858 32.0059 9.76876Z" fill="#016256"/>
<path d="M37.379 14.7581C37.2309 22.7266 24.2895 22.7266 24.1484 14.7581C24.2965 6.78961 37.2309 6.78961 37.379 14.7581Z" fill="#016256"/>
<g style="mix-blend-mode:multiply" opacity="0.4">
<path d="M36.6803 12.05C37.1246 17.4335 30.072 21.1043 25.248 18.1121C29.8111 24.3033 40.2771 18.8165 36.6803 12.05Z" fill="#016256"/>
</g>
<path d="M30.0172 15.7984L31.0822 30.3911H29.4883L30.0172 15.7014V15.7984Z" fill="#331C10"/>
<path d="M25.666 14.7322L30.1232 23.5861L30.229 22.1255L25.666 14.7322Z" fill="#331C10"/>
<path d="M24.0723 16.1926L28.0005 18.8165L27.6691 18.041L24.0723 16.1926Z" fill="#331C10"/>
<mask id="mask0_100_10239" style="mask-type:luminance" maskUnits="userSpaceOnUse" x="24" y="14" width="10" height="17">
<path d="M33.0927 17.7471L30.4853 22.2581C30.4825 22.1262 30.0036 15.8328 30.0149 15.7036L29.8076 21.4444L25.6621 14.731L27.2115 17.8066L24.0703 16.1902L27.5797 18.5368L29.7568 22.8597C29.6919 24.6867 29.5509 28.5463 29.4853 30.3933H31.0777L30.5573 23.2527L33.0927 17.7471Z" fill="white"/>
</mask>
<g mask="url(#mask0_100_10239)">
<g style="mix-blend-mode:multiply">
<path d="M32.9844 24.9432L34.3667 21.1496L34.1975 18.1186L33.4146 17.1621L30.1705 23.1595L30.1211 31.2702L34.5783 29.7127L32.9844 24.9432Z" fill="#331C10"/>
</g>
<g style="mix-blend-mode:multiply">
<path d="M30.5305 21.9899L30.9677 16.7745L30.0156 15.7017L30.199 22.5909L30.4881 22.2548L30.5305 21.9899Z" fill="#331C10"/>
</g>
<g style="mix-blend-mode:multiply">
<path d="M25.6641 14.7322L29.7545 21.8605L29.6981 20.7619L25.6641 14.7322Z" fill="#331C10"/>
</g>
</g>
<path d="M26.7657 15.2621C26.6881 19.2431 20.2209 19.2431 20.1504 15.2621C20.2209 11.2746 26.6881 11.2746 26.7657 15.2621Z" fill="#016256"/>
<g style="mix-blend-mode:multiply" opacity="0.4">
<path d="M26.2164 13.5947C26.9992 16.8261 22.4926 18.571 20.2852 16.1281C21.8931 20.4581 28.8117 17.524 26.2164 13.5947Z" fill="#016256"/>
</g>
<path d="M34.6239 13.491C34.5251 18.6418 26.1749 18.6418 26.0762 13.491C26.1749 8.34674 34.5251 8.34674 34.6239 13.491Z" fill="#016256"/>
<g style="mix-blend-mode:multiply" opacity="0.4">
<path d="M33.9189 11.3391C34.878 15.5528 29.1795 17.763 26.2598 14.6157C28.3262 20.1995 37.2618 16.4123 33.9189 11.3391Z" fill="#016256"/>
</g>
<path d="M28.5207 30.7404C28.5207 30.7404 28.4431 29.7452 27.8789 29.2928C27.8789 29.2928 28.6758 29.8938 28.7323 30.0166C28.7323 30.0166 28.6124 29.0666 28.3867 28.8145C28.3867 28.8145 28.8945 29.2282 28.9932 29.4479C28.9932 29.4479 28.8381 28.7564 28.6829 28.5366C28.6829 28.5366 29.1413 29.1118 29.2118 29.519C29.2118 29.519 29.2965 28.4203 29.1343 28.0002C29.1343 28.0002 29.5504 29.1894 29.5574 29.7258C29.5574 29.7258 29.5715 28.6982 29.8959 28.3169C29.8959 28.3169 29.8325 29.3057 29.8818 29.6676C29.8818 29.6676 30.037 29.1441 30.037 28.8145C30.037 28.8145 30.2345 29.4867 30.178 29.8098C30.178 29.8098 30.4601 29.2088 30.3332 28.388C30.3332 28.388 30.58 29.0278 30.5659 29.5642C30.5659 29.5642 30.7564 29.0924 31.0243 28.8275C31.0243 28.8275 30.6717 29.6999 30.6647 29.9778C30.6647 29.9778 30.8057 29.6353 31.0667 29.4802C31.0667 29.4802 30.7281 30.0683 30.6506 30.3204C30.6506 30.3204 30.9397 29.9649 31.4122 29.8163C31.4122 29.8163 30.8904 30.4173 30.8833 30.7404H28.5207Z" fill="#769914"/>
<path d="M30.2834 30.7405C30.2834 30.7405 30.234 30.0425 29.832 29.7258C29.832 29.7258 30.3962 30.1459 30.4315 30.2364C30.4315 30.2364 30.3469 29.5707 30.1917 29.3898C30.1917 29.3898 30.5443 29.6806 30.6149 29.8357C30.6149 29.8357 30.502 29.351 30.3962 29.1959C30.3962 29.1959 30.7207 29.603 30.77 29.8809C30.77 29.8809 30.8264 29.1119 30.7136 28.821C30.7136 28.821 31.0028 29.6547 31.0098 30.0296C31.0098 30.0296 31.0169 29.3122 31.2496 29.0408C31.2496 29.0408 31.2002 29.7323 31.2355 29.9843C31.2355 29.9843 31.3483 29.6224 31.3413 29.3898C31.3413 29.3898 31.4823 29.8615 31.4471 30.0877C31.4471 30.0877 31.6375 29.6677 31.5529 29.0925C31.5529 29.0925 31.7221 29.5384 31.7151 29.9132C31.7151 29.9132 31.8491 29.5836 32.0324 29.3962C32.0324 29.3962 31.7856 30.0102 31.7856 30.2041C31.7856 30.2041 31.8843 29.9649 32.0677 29.8551C32.0677 29.8551 31.8279 30.2687 31.7785 30.4432C31.7785 30.4432 31.9831 30.1976 32.3075 30.0942C32.3075 30.0942 31.9407 30.5078 31.9337 30.7405H30.2834Z" fill="#769914"/>
<path d="M13.9024 11.0249L11.0391 15.9818V17.2549L13.9024 11.0249Z" fill="#331C10"/>
<path d="M10.6077 4.75617C10.523 9.23481 3.24479 9.23481 3.16016 4.75617C3.24479 0.271057 10.523 0.271057 10.6077 4.75617Z" fill="#016256"/>
<path d="M12.8165 3.05001C12.7601 5.79019 8.31695 5.79019 8.26758 3.05001C8.31695 0.309828 12.7601 0.309828 12.8165 3.05001Z" fill="#016256"/>
<path d="M18.1896 8.03936C18.0415 16.0079 5.10004 16.0079 4.95898 8.03936C5.10709 0.0708635 18.0415 0.0708635 18.1896 8.03936Z" fill="#016256"/>
<g style="mix-blend-mode:multiply" opacity="0.4">
<path d="M17.4908 5.3313C17.9351 10.7147 10.8825 14.3855 6.05859 11.3933C10.6216 17.5846 21.0876 12.0977 17.4908 5.3313Z" fill="#016256"/>
</g>
<path d="M10.8278 9.07961L11.8927 23.6724H10.2988L10.8278 8.98267V9.07961Z" fill="#331C10"/>
<path d="M6.47656 8.01343L10.9338 16.8673L11.0396 15.4068L6.47656 8.01343Z" fill="#331C10"/>
<path d="M4.88281 9.47388L8.81109 12.0977L8.47962 11.3222L4.88281 9.47388Z" fill="#331C10"/>
<mask id="mask1_100_10239" style="mask-type:luminance" maskUnits="userSpaceOnUse" x="4" y="8" width="10" height="16">
<path d="M13.9032 11.0283L11.2959 15.5393C11.293 15.4075 10.8142 9.1141 10.8255 8.98485L10.6181 14.7257L6.47262 8.01221L8.02207 11.0878L4.88086 9.47148L8.39021 11.8181L10.5673 16.141C10.5025 17.968 10.3614 21.8275 10.2958 23.6745H11.8883L11.3678 16.5339L13.9032 11.0283Z" fill="white"/>
</mask>
<g mask="url(#mask1_100_10239)">
<g style="mix-blend-mode:multiply">
<path d="M13.795 18.2244L15.1773 14.4308L15.008 11.3998L14.2252 10.4434L10.981 16.4407L10.9316 24.5514L15.3889 22.9939L13.795 18.2244Z" fill="#331C10"/>
</g>
<g style="mix-blend-mode:multiply">
<path d="M11.341 15.2711L11.7783 10.0557L10.8262 8.98291L11.0095 15.8721L11.2987 15.5361L11.341 15.2711Z" fill="#331C10"/>
</g>
<g style="mix-blend-mode:multiply">
<path d="M6.47461 8.01343L10.5651 15.1418L10.5087 14.0431L6.47461 8.01343Z" fill="#331C10"/>
</g>
</g>
<path d="M7.57624 8.54335C7.49866 12.5244 1.03146 12.5244 0.960938 8.54335C1.03146 4.55586 7.49866 4.55586 7.57624 8.54335Z" fill="#016256"/>
<g style="mix-blend-mode:multiply" opacity="0.4">
<path d="M7.02691 6.87598C7.80974 10.1073 3.30316 11.8522 1.0957 9.40935C2.70369 13.7394 9.62225 10.8053 7.02691 6.87598Z" fill="#016256"/>
</g>
<path d="M15.4344 6.77229C15.3357 11.9231 6.98545 11.9231 6.88672 6.77229C6.98545 1.62799 15.3357 1.62799 15.4344 6.77229Z" fill="#016256"/>
<g style="mix-blend-mode:multiply" opacity="0.4">
<path d="M14.7294 4.62036C15.6885 8.83404 9.99007 11.0443 7.07031 7.89695C9.13671 13.4807 18.0723 9.69357 14.7294 4.62036Z" fill="#016256"/>
</g>
<path d="M9.33124 24.0217C9.33124 24.0217 9.25366 23.0264 8.68945 22.574C8.68945 22.574 9.48639 23.1751 9.54281 23.2979C9.54281 23.2979 9.42292 22.3478 9.19724 22.0958C9.19724 22.0958 9.70502 22.5094 9.80376 22.7291C9.80376 22.7291 9.6486 22.0376 9.49344 21.8179C9.49344 21.8179 9.95186 22.3931 10.0224 22.8002C10.0224 22.8002 10.107 21.7016 9.94481 21.2815C9.94481 21.2815 10.3609 22.4706 10.368 23.007C10.368 23.007 10.3821 21.9795 10.7065 21.5982C10.7065 21.5982 10.643 22.587 10.6924 22.9489C10.6924 22.9489 10.8475 22.4254 10.8475 22.0958C10.8475 22.0958 11.045 22.7679 10.9886 23.091C10.9886 23.091 11.2707 22.49 11.1437 21.6693C11.1437 21.6693 11.3906 22.3091 11.3765 22.8455C11.3765 22.8455 11.5669 22.3737 11.8349 22.1087C11.8349 22.1087 11.4823 22.9812 11.4752 23.2591C11.4752 23.2591 11.6163 22.9166 11.8772 22.7615C11.8772 22.7615 11.5387 23.3496 11.4611 23.6016C11.4611 23.6016 11.7503 23.2462 12.2228 23.0975C12.2228 23.0975 11.7009 23.6985 11.6938 24.0217H9.33124Z" fill="#769914"/>
<path d="M11.0939 24.0217C11.0939 24.0217 11.0446 23.3237 10.6426 23.0071C10.6426 23.0071 11.2068 23.4271 11.242 23.5176C11.242 23.5176 11.1574 22.852 11.0023 22.671C11.0023 22.671 11.3549 22.9618 11.4254 23.1169C11.4254 23.1169 11.3126 22.6322 11.2068 22.4771C11.2068 22.4771 11.5312 22.8843 11.5806 23.1622C11.5806 23.1622 11.637 22.3931 11.5241 22.1023C11.5241 22.1023 11.8133 22.936 11.8204 23.3108C11.8204 23.3108 11.8274 22.5935 12.0601 22.322C12.0601 22.322 12.0108 23.0135 12.046 23.2656C12.046 23.2656 12.1589 22.9037 12.1518 22.671C12.1518 22.671 12.2929 23.1428 12.2576 23.369C12.2576 23.369 12.448 22.9489 12.3634 22.3737C12.3634 22.3737 12.5327 22.8197 12.5256 23.1945C12.5256 23.1945 12.6596 22.8649 12.843 22.6775C12.843 22.6775 12.5961 23.2914 12.5961 23.4853C12.5961 23.4853 12.6949 23.2462 12.8782 23.1363C12.8782 23.1363 12.6385 23.5499 12.5891 23.7244C12.5891 23.7244 12.7936 23.4788 13.118 23.3754C13.118 23.3754 12.7513 23.7891 12.7442 24.0217H11.0939Z" fill="#769914"/>
</svg>
