<svg width="25" height="25" viewBox="0 0 25 25" fill="none" xmlns="http://www.w3.org/2000/svg">
    <g clip-path="url(#clip0_882_46822)">
    <path d="M23.9308 6.72876L12.6339 2.74293C12.4826 2.68949 12.3174 2.68949 12.1661 2.74293L0.869213 6.72876C0.588338 6.82785 0.400369 7.09316 0.399994 7.39101C0.399619 7.68885 0.586979 7.95458 0.867619 8.05433L12.1645 12.0704C12.2407 12.0975 12.3204 12.1111 12.4 12.1111C12.4797 12.1111 12.5593 12.0975 12.6355 12.0704L23.9324 8.05433C24.213 7.95458 24.4003 7.68885 24.4 7.39101C24.3996 7.09316 24.2117 6.82785 23.9308 6.72876Z" fill="white" fill-opacity="0.6"/>
    <path d="M22.7112 16.1141V9.98093L21.305 10.4808V16.1141C20.8814 16.3578 20.596 16.8146 20.596 17.3385C20.596 17.8623 20.8814 18.3191 21.305 18.5629V22.0183C21.305 22.4066 21.6198 22.7215 22.0081 22.7215C22.3964 22.7215 22.7112 22.4066 22.7112 22.0183V18.5629C23.1348 18.3192 23.4202 17.8623 23.4202 17.3385C23.4202 16.8147 23.1349 16.3578 22.7112 16.1141Z" fill="white" fill-opacity="0.6"/>
    <path d="M12.4 13.5173C12.1586 13.5173 11.9209 13.4763 11.6934 13.3955L5.34268 11.1377V14.2319C5.34268 14.9888 6.13238 15.629 7.68985 16.1345C9.0474 16.5751 10.7202 16.8178 12.4 16.8178C14.0798 16.8178 15.7525 16.5751 17.1101 16.1345C18.6676 15.629 19.4573 14.9888 19.4573 14.2319V11.1377L13.1066 13.3955C12.8791 13.4763 12.6414 13.5173 12.4 13.5173Z" fill="white" fill-opacity="0.6"/>
    </g>
    <defs>
    <clipPath id="clip0_882_46822">
    <rect width="24" height="24" fill="white" transform="translate(0.399994 0.712158)"/>
    </clipPath>
    </defs>
    </svg>
    