<svg width="25" height="25" viewBox="0 0 25 25" fill="none" xmlns="http://www.w3.org/2000/svg">
    <g clip-path="url(#clip0_882_46838)">
    <path d="M22.674 6.88974C22.6453 6.25835 22.6453 5.65566 22.6453 5.05297C22.6453 4.56507 22.2722 4.19198 21.7843 4.19198C18.1969 4.19198 15.4704 3.15879 13.2031 0.948929C12.8587 0.633234 12.3421 0.633234 11.9978 0.948929C9.73049 3.15879 7.00403 4.19198 3.41659 4.19198C2.92869 4.19198 2.5556 4.56507 2.5556 5.05297C2.5556 5.65566 2.5556 6.25835 2.5269 6.88974C2.4121 12.9166 2.2399 21.1821 12.3134 24.6548L12.6004 24.7122L12.8874 24.6548C22.9323 21.1821 22.7888 12.9453 22.674 6.88974ZM11.9117 15.2413C11.7395 15.3848 11.5386 15.4709 11.309 15.4709H11.2803C11.0507 15.4709 10.8211 15.3561 10.6776 15.1839L8.00851 12.2279L9.29999 11.0799L11.3951 13.4045L16.0444 8.9848L17.2211 10.2476L11.9117 15.2413Z" fill="white" fill-opacity="0.6"/>
    </g>
    <defs>
    <clipPath id="clip0_882_46838">
    <rect width="24" height="24" fill="white" transform="translate(0.599991 0.712158)"/>
    </clipPath>
    </defs>
    </svg>
    