<svg width="25" height="25" viewBox="0 0 25 25" fill="none" xmlns="http://www.w3.org/2000/svg">
    <g clip-path="url(#clip0_881_53234)">
    <path d="M17.5625 0.824658C17.3844 0.951221 16.9484 1.04028 15.9266 1.15747C14.8156 1.28872 14.225 1.40591 13.7469 1.59341C12.4625 2.09966 11.7594 3.06997 11.7594 4.34497C11.7594 4.91685 11.8297 5.21216 12.0781 5.7231C12.2703 6.12153 12.4297 6.29028 12.6172 6.29028C12.8797 6.29028 12.9734 6.14028 13.0344 5.61528C13.1703 4.50903 13.6766 3.62778 14.5156 3.03716C14.7969 2.8356 15.2 2.6106 15.2 2.65278C15.2 2.66685 15.1062 2.80747 14.9937 2.97153C14.5156 3.66528 14.2016 4.42466 13.9156 5.59653C13.5125 7.24185 13.3531 8.39028 13.2312 10.6262C13.1516 12.0653 13.1562 12.759 13.2406 12.9231C13.4656 13.345 13.8922 13.5137 14.3 13.345C14.5484 13.2372 14.675 13.1059 14.8578 12.7356C15.0828 12.2903 15.2609 12.0418 15.5891 11.695L15.8703 11.4043L16.0859 11.5918C16.8406 12.2575 17.9656 12.3418 18.7953 11.7887C19.1609 11.545 19.5125 11.1325 20.0281 10.345C20.2812 9.95591 20.5344 9.5856 20.5859 9.51997C20.7453 9.31372 20.7453 9.27153 20.5531 9.16372C20.4547 9.10747 20.0609 8.83091 19.6812 8.54497C19.3016 8.25903 18.8937 7.9731 18.7719 7.91216C17.7687 7.40591 16.7422 7.52778 15.9875 8.24966C15.7203 8.50278 15.4344 8.97622 15.4344 9.15903C15.4344 9.30903 15.5234 9.43091 15.6359 9.43091C15.6922 9.43091 15.8984 9.38872 16.0906 9.33247C16.4984 9.22466 17.5391 9.16372 18.0359 9.21997C18.3359 9.25747 18.35 9.26216 18.2 9.29497C18.1109 9.31372 17.8625 9.35122 17.6562 9.37935C16.6625 9.51997 15.6078 10.059 14.8719 10.809C14.7031 10.9778 14.5578 11.1184 14.5437 11.1184C14.4687 11.1184 14.75 7.66841 14.8484 7.37778C14.8578 7.34966 14.9281 7.32153 14.9984 7.32153C15.1906 7.32153 15.5422 7.20435 15.8703 7.03091C16.2828 6.81528 16.9906 6.0981 17.2578 5.61997C17.7359 4.77153 17.9469 3.82466 17.9 2.70435C17.8766 2.10435 17.7266 0.834033 17.675 0.777783C17.6609 0.768409 17.6141 0.791846 17.5625 0.824658Z" fill="white" fill-opacity="0.6"/>
    <path d="M9.67812 7.69653C9.15312 7.83716 8.82031 8.02466 8.00468 8.63403C7.59218 8.94341 7.21718 9.2106 7.17499 9.22466C7.06718 9.25747 7.06718 9.33247 7.17968 9.44966C7.23124 9.50591 7.44218 9.81997 7.65312 10.1575C8.60937 11.6762 9.22343 12.1497 10.2312 12.1497C11.0187 12.1497 11.8062 11.7231 12.0781 11.1512C12.1812 10.9309 12.1859 10.6122 12.0875 10.4247C11.8484 9.9606 10.6625 9.45435 9.45781 9.30903L9.17656 9.27622L9.36406 9.23872C9.46718 9.21528 9.81874 9.19653 10.1422 9.19185C10.7609 9.18716 11.2812 9.26216 11.7875 9.44028C12.1297 9.55747 12.2937 9.53872 12.3828 9.37935C12.4437 9.26685 12.4391 9.23403 12.3406 8.9856C12.1016 8.39966 11.5672 7.88872 11.0094 7.71528C10.6203 7.5981 10.0766 7.58872 9.67812 7.69653Z" fill="white" fill-opacity="0.6"/>
    <path d="M7.5078 13.6309C7.06718 13.7106 6.43905 13.9028 6.12968 14.0575C5.41718 14.4137 5.35155 14.4747 1.95312 17.8262L0.209366 19.5419L2.77812 22.1106L5.34687 24.6794L6.1953 23.409L7.04374 22.1387L11.3656 22.1247C15.6641 22.1059 15.6922 22.1059 16.0297 22.0028C16.5219 21.8528 16.8594 21.6934 17.1875 21.459C17.5437 21.2012 23.9469 15.5012 24.0734 15.3325C24.125 15.2622 24.1719 15.1122 24.1859 14.9997C24.2141 14.7372 24.0734 14.4372 23.8578 14.3059C23.2672 13.9403 22.5219 13.9215 21.7953 14.245C21.6406 14.3153 20.2672 15.2903 18.5609 16.5372L15.5984 18.7075L13.9109 18.7122H12.2234L11.7781 18.2669L11.3328 17.8215H13.0672C14.9469 17.8215 15.0641 17.8075 15.5609 17.5544C15.8844 17.395 16.2781 16.9684 16.3859 16.6637C16.4891 16.3778 16.4891 15.8481 16.3906 15.5575C16.3062 15.309 15.9734 14.9153 15.7109 14.7465C15.6125 14.6856 15.4016 14.5919 15.2375 14.5309C14.9609 14.4372 14.8391 14.4278 13.2078 14.3997C11.2906 14.3622 11.2812 14.3622 10.5312 14.034C9.54687 13.5981 8.46874 13.4528 7.5078 13.6309Z" fill="white" fill-opacity="0.6"/>
    </g>
    <defs>
    <clipPath id="clip0_881_53234">
    <rect width="24" height="24" fill="white" transform="translate(0.199997 0.712158)"/>
    </clipPath>
    </defs>
    </svg>
    