<svg width="19" height="24" viewBox="0 0 19 24" fill="none" xmlns="http://www.w3.org/2000/svg">
<path d="M13.8516 10.0691L10.9883 15.026V16.2991L13.8516 10.0691Z" fill="#331C10"/>
<path d="M10.5569 3.80036C10.4723 8.279 3.19401 8.279 3.10938 3.80036C3.19401 -0.684754 10.4723 -0.684754 10.5569 3.80036Z" fill="#016256"/>
<path d="M12.7657 2.0942C12.7093 4.83438 8.26616 4.83438 8.2168 2.0942C8.26616 -0.645983 12.7093 -0.645983 12.7657 2.0942Z" fill="#016256"/>
<path d="M18.1388 7.08355C17.9907 15.0521 5.04925 15.0521 4.9082 7.08355C5.05631 -0.884947 17.9907 -0.884947 18.1388 7.08355Z" fill="#016256"/>
<g style="mix-blend-mode:multiply" opacity="0.4">
<path d="M17.44 4.37549C17.8843 9.75891 10.8318 13.4297 6.00781 10.4375C10.5708 16.6288 21.0368 11.1419 17.44 4.37549Z" fill="#016256"/>
</g>
<path d="M10.777 8.1238L11.8419 22.7166H10.248L10.777 8.02686V8.1238Z" fill="#331C10"/>
<path d="M6.42578 7.05762L10.883 15.9115L10.9888 14.4509L6.42578 7.05762Z" fill="#331C10"/>
<path d="M4.83203 8.51807L8.76031 11.1419L8.42884 10.3664L4.83203 8.51807Z" fill="#331C10"/>
<mask id="mask0_100_10225" style="mask-type:luminance" maskUnits="userSpaceOnUse" x="4" y="7" width="10" height="16">
<path d="M13.8524 10.0725L11.2451 14.5835C11.2423 14.4517 10.7634 8.15829 10.7747 8.02903L10.5673 13.7698L6.42184 7.0564L7.97129 10.132L4.83008 8.51567L8.33943 10.8623L10.5166 15.1852C10.4517 17.0122 10.3106 20.8717 10.245 22.7187H11.8375L11.317 15.5781L13.8524 10.0725Z" fill="white"/>
</mask>
<g mask="url(#mask0_100_10225)">
<g style="mix-blend-mode:multiply">
<path d="M13.7442 17.2686L15.1265 13.475L14.9572 10.444L14.1744 9.48755L10.9302 15.4849L10.8809 23.5956L15.3381 22.0381L13.7442 17.2686Z" fill="#331C10"/>
</g>
<g style="mix-blend-mode:multiply">
<path d="M11.2902 14.3153L11.7275 9.0999L10.7754 8.0271L10.9588 14.9163L11.2479 14.5803L11.2902 14.3153Z" fill="#331C10"/>
</g>
<g style="mix-blend-mode:multiply">
<path d="M6.42383 7.05762L10.5143 14.186L10.4579 13.0873L6.42383 7.05762Z" fill="#331C10"/>
</g>
</g>
<path d="M7.52546 7.58754C7.44788 11.5686 0.980682 11.5686 0.910156 7.58754C0.980682 3.60005 7.44788 3.60005 7.52546 7.58754Z" fill="#016256"/>
<g style="mix-blend-mode:multiply" opacity="0.4">
<path d="M6.97613 5.92017C7.75896 9.15151 3.25237 10.8964 1.04492 8.45354C2.65291 12.7835 9.57147 9.84948 6.97613 5.92017Z" fill="#016256"/>
</g>
<path d="M15.3836 5.81648C15.2849 10.9672 6.93467 10.9672 6.83594 5.81648C6.93467 0.672176 15.2849 0.672176 15.3836 5.81648Z" fill="#016256"/>
<g style="mix-blend-mode:multiply" opacity="0.4">
<path d="M14.6786 3.66455C15.6378 7.87823 9.93929 10.0885 7.01953 6.94114C9.08593 12.5249 18.0215 8.73776 14.6786 3.66455Z" fill="#016256"/>
</g>
<path d="M9.28046 23.0659C9.28046 23.0659 9.20288 22.0706 8.63867 21.6182C8.63867 21.6182 9.43561 22.2193 9.49203 22.342C9.49203 22.342 9.37214 21.392 9.14646 21.14C9.14646 21.14 9.65424 21.5536 9.75298 21.7733C9.75298 21.7733 9.59782 21.0818 9.44266 20.8621C9.44266 20.8621 9.90108 21.4373 9.97161 21.8444C9.97161 21.8444 10.0562 20.7458 9.89403 20.3257C9.89403 20.3257 10.3101 21.5148 10.3172 22.0512C10.3172 22.0512 10.3313 21.0237 10.6557 20.6424C10.6557 20.6424 10.5922 21.6311 10.6416 21.9931C10.6416 21.9931 10.7968 21.4696 10.7968 21.14C10.7968 21.14 10.9942 21.8121 10.9378 22.1352C10.9378 22.1352 11.2199 21.5342 11.093 20.7134C11.093 20.7134 11.3398 21.3533 11.3257 21.8897C11.3257 21.8897 11.5161 21.4179 11.7841 21.1529C11.7841 21.1529 11.4315 22.0254 11.4244 22.3033C11.4244 22.3033 11.5655 21.9607 11.8264 21.8056C11.8264 21.8056 11.4879 22.3937 11.4103 22.6458C11.4103 22.6458 11.6995 22.2903 12.172 22.1417C12.172 22.1417 11.6501 22.7427 11.6431 23.0659H9.28046Z" fill="#769914"/>
<path d="M11.0432 23.0659C11.0432 23.0659 10.9938 22.3679 10.5918 22.0513C10.5918 22.0513 11.156 22.4713 11.1913 22.5618C11.1913 22.5618 11.1066 21.8962 10.9515 21.7152C10.9515 21.7152 11.3041 22.006 11.3746 22.1611C11.3746 22.1611 11.2618 21.6764 11.156 21.5213C11.156 21.5213 11.4804 21.9285 11.5298 22.2064C11.5298 22.2064 11.5862 21.4373 11.4734 21.1465C11.4734 21.1465 11.7625 21.9802 11.7696 22.355C11.7696 22.355 11.7766 21.6377 12.0094 21.3662C12.0094 21.3662 11.96 22.0577 11.9953 22.3098C11.9953 22.3098 12.1081 21.9479 12.101 21.7152C12.101 21.7152 12.2421 22.187 12.2068 22.4132C12.2068 22.4132 12.3973 21.9931 12.3126 21.4179C12.3126 21.4179 12.4819 21.8638 12.4748 22.2387C12.4748 22.2387 12.6088 21.9091 12.7922 21.7217C12.7922 21.7217 12.5454 22.3356 12.5454 22.5295C12.5454 22.5295 12.6441 22.2904 12.8275 22.1805C12.8275 22.1805 12.5877 22.5941 12.5383 22.7686C12.5383 22.7686 12.7428 22.523 13.0672 22.4196C13.0672 22.4196 12.7005 22.8332 12.6935 23.0659H11.0432Z" fill="#769914"/>
</svg>
