<svg width="36" height="48" viewBox="0 0 36 48" fill="none" xmlns="http://www.w3.org/2000/svg">
<path d="M26.9771 20.9082L21.0083 31.2411V33.895L26.9771 20.9082Z" fill="#331C10"/>
<path d="M20.1115 7.84068C19.9351 17.1766 4.76327 17.1766 4.58685 7.84068C4.76327 -1.50874 19.9351 -1.50874 20.1115 7.84068Z" fill="#016256"/>
<path d="M24.713 4.28403C24.5954 9.99607 15.3335 9.99607 15.2306 4.28403C15.3335 -1.42801 24.5954 -1.42801 24.713 4.28403Z" fill="#016256"/>
<path d="M35.9155 14.6841C35.6068 31.2948 8.62972 31.2948 8.33569 14.6841C8.64442 -1.92661 35.6068 -1.92661 35.9155 14.6841Z" fill="#016256"/>
<g style="mix-blend-mode:multiply" opacity="0.4">
<path d="M34.4601 9.03955C35.3863 20.2616 20.6849 27.9135 10.6292 21.6761C20.141 34.5821 41.9578 23.1445 34.4601 9.03955Z" fill="#016256"/>
</g>
<path d="M20.5673 16.8534L22.7872 47.2728H19.4647L20.5673 16.6514V16.8534Z" fill="#331C10"/>
<path d="M11.4965 14.6304L20.7878 33.0867L21.0083 30.0421L11.4965 14.6304Z" fill="#331C10"/>
<path d="M8.17401 17.6748L16.3627 23.1444L15.6717 21.5277L8.17401 17.6748Z" fill="#331C10"/>
<mask id="mask0_12_25654" style="mask-type:luminance" maskUnits="userSpaceOnUse" x="8" y="14" width="19" height="34">
<path d="M26.9815 20.9147L21.5464 30.318C21.5405 30.0432 20.5423 16.9244 20.5658 16.655L20.1336 28.6219L11.4921 14.6274L14.722 21.0387L8.17401 17.6694L15.4894 22.561L20.0278 31.5723C19.8925 35.3807 19.5985 43.4261 19.4618 47.2763H22.7813L21.6964 32.3914L26.9815 20.9147Z" fill="white"/>
</mask>
<g mask="url(#mask0_12_25654)">
<g style="mix-blend-mode:multiply">
<path d="M26.7566 35.9158L29.6381 28.0079L29.2853 21.6896L27.6534 19.6958L20.8908 32.1976L20.7878 49.1047L30.0791 45.858L26.7566 35.9158Z" fill="#331C10"/>
</g>
<g style="mix-blend-mode:multiply">
<path d="M21.6406 29.7594L22.5521 18.8877L20.5674 16.6514L20.9496 31.0123L21.5524 30.3118L21.6406 29.7594Z" fill="#331C10"/>
</g>
<g style="mix-blend-mode:multiply">
<path d="M11.4965 14.6304L20.0233 29.4898L19.9057 27.1996L11.4965 14.6304Z" fill="#331C10"/>
</g>
</g>
<path d="M13.7899 15.7351C13.6282 24.0337 0.147014 24.0337 0 15.7351C0.147014 7.42295 13.6282 7.42295 13.7899 15.7351Z" fill="#016256"/>
<g style="mix-blend-mode:multiply" opacity="0.4">
<path d="M12.6432 12.2593C14.2751 18.9952 4.8809 22.6326 0.279358 17.5402C3.63128 26.5663 18.0534 20.4501 12.6432 12.2593Z" fill="#016256"/>
</g>
<path d="M30.1672 12.0436C29.9614 22.7807 12.5549 22.7807 12.3491 12.0436C12.5549 1.32009 29.9614 1.32009 30.1672 12.0436Z" fill="#016256"/>
<g style="mix-blend-mode:multiply" opacity="0.4">
<path d="M28.6971 7.55762C30.6965 16.3412 18.8178 20.9486 12.7314 14.3878C17.0389 26.0274 35.6656 18.133 28.6971 7.55762Z" fill="#016256"/>
</g>
<path d="M17.4506 48.0001C17.4506 48.0001 17.2889 45.9255 16.1128 44.9824C16.1128 44.9824 17.7741 46.2353 17.8917 46.4913C17.8917 46.4913 17.6417 44.5109 17.1713 43.9855C17.1713 43.9855 18.2298 44.8477 18.4356 45.3058C18.4356 45.3058 18.1122 43.8643 17.7888 43.4062C17.7888 43.4062 18.7443 44.6052 18.8914 45.454C18.8914 45.454 19.0678 43.1638 18.7296 42.2881C18.7296 42.2881 19.597 44.7669 19.6117 45.8851C19.6117 45.8851 19.6411 43.743 20.3174 42.9482C20.3174 42.9482 20.1851 45.0094 20.288 45.7638C20.288 45.7638 20.6114 44.6726 20.6114 43.9855C20.6114 43.9855 21.0231 45.3866 20.9055 46.0602C20.9055 46.0602 21.4935 44.8073 21.2289 43.0964C21.2289 43.0964 21.7434 44.4301 21.714 45.5483C21.714 45.5483 22.111 44.5648 22.6696 44.0125C22.6696 44.0125 21.9346 45.8312 21.9198 46.4105C21.9198 46.4105 22.2139 45.6965 22.7578 45.3731C22.7578 45.3731 22.0522 46.5991 21.8904 47.1245C21.8904 47.1245 22.4932 46.3835 23.4782 46.0737C23.4782 46.0737 22.3903 47.3265 22.3756 48.0001H17.4506Z" fill="#769914"/>
<path d="M21.126 48.0001C21.126 48.0001 21.0231 46.5452 20.1851 45.8851C20.1851 45.8851 21.3612 46.7607 21.4347 46.9493C21.4347 46.9493 21.2583 45.5617 20.9349 45.1845C20.9349 45.1845 21.67 45.7908 21.817 46.1141C21.817 46.1141 21.5818 45.1037 21.3612 44.7804C21.3612 44.7804 22.0375 45.6291 22.1404 46.2084C22.1404 46.2084 22.258 44.6053 22.0228 43.999C22.0228 43.999 22.6256 45.7369 22.6403 46.5183C22.6403 46.5183 22.655 45.0229 23.1401 44.4571C23.1401 44.4571 23.0372 45.8985 23.1107 46.4239C23.1107 46.4239 23.3459 45.6695 23.3312 45.1845C23.3312 45.1845 23.6252 46.168 23.5517 46.6395C23.5517 46.6395 23.9487 45.7638 23.7723 44.5648C23.7723 44.5648 24.1251 45.4944 24.1104 46.2758C24.1104 46.2758 24.3897 45.5887 24.772 45.198C24.772 45.198 24.2574 46.4778 24.2574 46.882C24.2574 46.882 24.4632 46.3835 24.8455 46.1545C24.8455 46.1545 24.3456 47.0167 24.2427 47.3804C24.2427 47.3804 24.669 46.8685 25.3453 46.653C25.3453 46.653 24.5808 47.5152 24.5661 48.0001H21.126Z" fill="#769914"/>
</svg>
