<svg width="8" height="12" viewBox="0 0 8 12" fill="none" xmlns="http://www.w3.org/2000/svg">
<path fill-rule="evenodd" clip-rule="evenodd" d="M7.15816 0.509553C7.37688 0.728335 7.49975 1.02503 7.49975 1.33439C7.49975 1.64374 7.37688 1.94044 7.15816 2.15922L3.31633 6.00105L7.15816 9.84289C7.37068 10.0629 7.48827 10.3576 7.48561 10.6635C7.48296 10.9694 7.36026 11.262 7.14395 11.4783C6.92764 11.6947 6.63503 11.8173 6.32913 11.82C6.02323 11.8227 5.72853 11.7051 5.50849 11.4926L0.841828 6.82589C0.623112 6.6071 0.500244 6.31041 0.500244 6.00105C0.500244 5.69169 0.623112 5.395 0.841828 5.17622L5.50849 0.509553C5.72728 0.290837 6.02397 0.167969 6.33333 0.167969C6.64269 0.167969 6.93938 0.290837 7.15816 0.509553Z" fill="#B3B6BF"/>
</svg>
