<svg width="24" height="24" viewBox="0 0 24 24" fill="none" xmlns="http://www.w3.org/2000/svg">
<g clip-path="url(#clip0_3300_61396)">
<path d="M12 24C18.6274 24 24 18.6274 24 12C24 5.37258 18.6274 0 12 0C5.37258 0 0 5.37258 0 12C0 18.6274 5.37258 24 12 24Z" fill="#F0F0F0"/>
<path fill-rule="evenodd" clip-rule="evenodd" d="M5.89588 11.6493C9.39413 10.1252 11.7268 9.1204 12.894 8.63493C16.2265 7.24882 16.919 7.00804 17.3704 7.00008C17.4696 6.99834 17.6916 7.02294 17.8354 7.1396C17.9568 7.23811 17.9902 7.37118 18.0061 7.46458C18.0221 7.55797 18.042 7.77073 18.0262 7.93698C17.8456 9.83446 17.0642 14.4391 16.6667 16.5644C16.4985 17.4636 16.1672 17.7651 15.8466 17.7946C15.1497 17.8588 14.6205 17.3341 13.9456 16.8917C12.8894 16.1993 12.2928 15.7684 11.2676 15.0928C10.0828 14.312 10.8509 13.8829 11.5261 13.1816C11.7028 12.9981 14.7732 10.2054 14.8326 9.952C14.84 9.92032 14.8469 9.80221 14.7768 9.73985C14.7066 9.67748 14.603 9.69881 14.5283 9.71577C14.4224 9.73981 12.7351 10.855 9.46663 13.0613C8.98772 13.3902 8.55393 13.5504 8.16528 13.542C7.73682 13.5328 6.91263 13.2998 6.29993 13.1006C5.54843 12.8563 4.95115 12.7272 5.00316 12.3123C5.03025 12.0962 5.32782 11.8752 5.89588 11.6493Z" fill="#1B1C22"/>
</g>
<defs>
<clipPath id="clip0_3300_61396">
<rect width="24" height="24" fill="white"/>
</clipPath>
</defs>
</svg>
