<svg width="37" height="45" viewBox="0 0 37 45" fill="none" xmlns="http://www.w3.org/2000/svg">
<path d="M32.5255 16.8401L29.6621 21.797V23.0701L32.5255 16.8401Z" fill="#331C10"/>
<path d="M29.2307 10.5714C29.1461 15.05 21.8678 15.05 21.7832 10.5714C21.8678 6.08624 29.1461 6.08624 29.2307 10.5714Z" fill="#016256"/>
<path d="M31.4395 8.8652C31.3831 11.6054 26.94 11.6054 26.8906 8.8652C26.94 6.12501 31.3831 6.12501 31.4395 8.8652Z" fill="#016256"/>
<path d="M36.8126 13.8545C36.6645 21.823 23.7231 21.823 23.582 13.8545C23.7301 5.88605 36.6645 5.88605 36.8126 13.8545Z" fill="#016256"/>
<g style="mix-blend-mode:multiply" opacity="0.4">
<path d="M36.1138 11.1465C36.5582 16.5299 29.5056 20.2007 24.6816 17.2085C29.2446 23.3997 39.7107 17.9129 36.1138 11.1465Z" fill="#016256"/>
</g>
<path d="M29.4508 14.8948L30.5158 29.4876H28.9219L29.4508 14.7979V14.8948Z" fill="#331C10"/>
<path d="M25.0996 13.8286L29.5568 22.6825L29.6626 21.2219L25.0996 13.8286Z" fill="#331C10"/>
<path d="M23.5059 15.2891L27.4341 17.9129L27.1027 17.1374L23.5059 15.2891Z" fill="#331C10"/>
<mask id="mask0_100_10235" style="mask-type:luminance" maskUnits="userSpaceOnUse" x="23" y="13" width="10" height="17">
<path d="M32.5263 16.8435L29.9189 21.3545C29.9161 21.2227 29.4372 14.9293 29.4485 14.8L29.2412 20.5408L25.0957 13.8274L26.6451 16.903L23.5039 15.2867L27.0133 17.6333L29.1904 21.9562C29.1255 23.7832 28.9845 27.6427 28.9189 29.4897H30.5113L29.9909 22.3491L32.5263 16.8435Z" fill="white"/>
</mask>
<g mask="url(#mask0_100_10235)">
<g style="mix-blend-mode:multiply">
<path d="M32.418 24.0396L33.8003 20.246L33.6311 17.215L32.8482 16.2585L29.6041 22.2559L29.5547 30.3666L34.0119 28.8091L32.418 24.0396Z" fill="#331C10"/>
</g>
<g style="mix-blend-mode:multiply">
<path d="M29.9641 21.0863L30.4013 15.8709L29.4492 14.7981L29.6326 21.6873L29.9217 21.3513L29.9641 21.0863Z" fill="#331C10"/>
</g>
<g style="mix-blend-mode:multiply">
<path d="M25.0977 13.8286L29.1881 20.957L29.1317 19.8583L25.0977 13.8286Z" fill="#331C10"/>
</g>
</g>
<path d="M26.1993 14.3585C26.1217 18.3396 19.6545 18.3396 19.584 14.3585C19.6545 10.371 26.1217 10.371 26.1993 14.3585Z" fill="#016256"/>
<g style="mix-blend-mode:multiply" opacity="0.4">
<path d="M25.65 12.6912C26.4328 15.9225 21.9262 17.6674 19.7188 15.2245C21.3267 19.5545 28.2453 16.6205 25.65 12.6912Z" fill="#016256"/>
</g>
<path d="M34.0575 12.5875C33.9587 17.7382 25.6085 17.7382 25.5098 12.5875C25.6085 7.44317 33.9587 7.44317 34.0575 12.5875Z" fill="#016256"/>
<g style="mix-blend-mode:multiply" opacity="0.4">
<path d="M33.3524 10.4355C34.3116 14.6492 28.6131 16.8595 25.6934 13.7121C27.7598 19.2959 36.6954 15.5088 33.3524 10.4355Z" fill="#016256"/>
</g>
<path d="M27.9543 29.8369C27.9543 29.8369 27.8767 28.8416 27.3125 28.3892C27.3125 28.3892 28.1094 28.9902 28.1659 29.113C28.1659 29.113 28.046 28.163 27.8203 27.911C27.8203 27.911 28.3281 28.3246 28.4268 28.5443C28.4268 28.5443 28.2716 27.8528 28.1165 27.6331C28.1165 27.6331 28.5749 28.2083 28.6454 28.6154C28.6454 28.6154 28.7301 27.5168 28.5679 27.0967C28.5679 27.0967 28.984 28.2858 28.991 28.8222C28.991 28.8222 29.0051 27.7947 29.3295 27.4134C29.3295 27.4134 29.2661 28.4021 29.3154 28.7641C29.3154 28.7641 29.4706 28.2406 29.4706 27.911C29.4706 27.911 29.6681 28.5831 29.6116 28.9062C29.6116 28.9062 29.8937 28.3052 29.7668 27.4844C29.7668 27.4844 30.0136 28.1242 29.9995 28.6607C29.9995 28.6607 30.1899 28.1889 30.4579 27.9239C30.4579 27.9239 30.1053 28.7964 30.0983 29.0743C30.0983 29.0743 30.2393 28.7317 30.5003 28.5766C30.5003 28.5766 30.1617 29.1647 30.0842 29.4168C30.0842 29.4168 30.3733 29.0613 30.8458 28.9127C30.8458 28.9127 30.3239 29.5137 30.3169 29.8369H27.9543Z" fill="#769914"/>
<path d="M29.717 29.8369C29.717 29.8369 29.6676 29.1389 29.2656 28.8223C29.2656 28.8223 29.8298 29.2423 29.8651 29.3328C29.8651 29.3328 29.7805 28.6672 29.6253 28.4862C29.6253 28.4862 29.9779 28.777 30.0485 28.9321C30.0485 28.9321 29.9356 28.4474 29.8298 28.2923C29.8298 28.2923 30.1542 28.6995 30.2036 28.9774C30.2036 28.9774 30.26 28.2083 30.1472 27.9175C30.1472 27.9175 30.4363 28.7512 30.4434 29.126C30.4434 29.126 30.4505 28.4086 30.6832 28.1372C30.6832 28.1372 30.6338 28.8287 30.6691 29.0808C30.6691 29.0808 30.7819 28.7189 30.7749 28.4862C30.7749 28.4862 30.9159 28.958 30.8807 29.1842C30.8807 29.1842 31.0711 28.7641 30.9865 28.1889C30.9865 28.1889 31.1557 28.6348 31.1487 29.0097C31.1487 29.0097 31.2827 28.6801 31.466 28.4927C31.466 28.4927 31.2192 29.1066 31.2192 29.3005C31.2192 29.3005 31.3179 29.0614 31.5013 28.9515C31.5013 28.9515 31.2615 29.3651 31.2121 29.5396C31.2121 29.5396 31.4167 29.294 31.7411 29.1906C31.7411 29.1906 31.3743 29.6042 31.3673 29.8369H29.717Z" fill="#769914"/>
<path d="M13.336 10.1213L10.4727 15.0782V16.3514L13.336 10.1213Z" fill="#331C10"/>
<path d="M10.0413 3.8526C9.95663 8.33125 2.67838 8.33125 2.59375 3.8526C2.67838 -0.632508 9.95663 -0.632508 10.0413 3.8526Z" fill="#016256"/>
<path d="M12.2501 2.14645C12.1937 4.88663 7.75054 4.88663 7.70117 2.14645C7.75054 -0.593737 12.1937 -0.593737 12.2501 2.14645Z" fill="#016256"/>
<path d="M17.6232 7.1358C17.4751 15.1043 4.53363 15.1043 4.39258 7.1358C4.54068 -0.832701 17.4751 -0.832701 17.6232 7.1358Z" fill="#016256"/>
<g style="mix-blend-mode:multiply" opacity="0.4">
<path d="M16.9244 4.42773C17.3687 9.81116 10.3161 13.482 5.49219 10.4897C10.0552 16.681 20.5212 11.1942 16.9244 4.42773Z" fill="#016256"/>
</g>
<path d="M10.2614 8.17604L11.3263 22.7688H9.73242L10.2614 8.0791V8.17604Z" fill="#331C10"/>
<path d="M5.91016 7.10986L10.3674 15.9638L10.4732 14.5032L5.91016 7.10986Z" fill="#331C10"/>
<path d="M4.31641 8.57031L8.24468 11.1942L7.91321 10.4186L4.31641 8.57031Z" fill="#331C10"/>
<mask id="mask1_100_10235" style="mask-type:luminance" maskUnits="userSpaceOnUse" x="4" y="7" width="10" height="16">
<path d="M13.3368 10.1248L10.7295 14.6357C10.7266 14.5039 10.2478 8.21053 10.2591 8.08128L10.0517 13.8221L5.90622 7.10864L7.45566 10.1842L4.31445 8.56792L7.82381 10.9145L10.0009 15.2374C9.93605 17.0644 9.795 20.9239 9.72941 22.771H11.3219L10.8014 15.6304L13.3368 10.1248Z" fill="white"/>
</mask>
<g mask="url(#mask1_100_10235)">
<g style="mix-blend-mode:multiply">
<path d="M13.2286 17.3209L14.6109 13.5273L14.4416 10.4963L13.6588 9.53979L10.4146 15.5372L10.3652 23.6479L14.8225 22.0903L13.2286 17.3209Z" fill="#331C10"/>
</g>
<g style="mix-blend-mode:multiply">
<path d="M10.7746 14.3675L11.2119 9.15215L10.2598 8.07935L10.4431 14.9686L10.7323 14.6325L10.7746 14.3675Z" fill="#331C10"/>
</g>
<g style="mix-blend-mode:multiply">
<path d="M5.9082 7.10986L9.99869 14.2382L9.94227 13.1396L5.9082 7.10986Z" fill="#331C10"/>
</g>
</g>
<path d="M7.00984 7.63978C6.93226 11.6208 0.465057 11.6208 0.394531 7.63978C0.465057 3.6523 6.93226 3.6523 7.00984 7.63978Z" fill="#016256"/>
<g style="mix-blend-mode:multiply" opacity="0.4">
<path d="M6.4605 5.97241C7.24334 9.20376 2.73675 10.9487 0.529297 8.50578C2.13728 12.8358 9.05585 9.90173 6.4605 5.97241Z" fill="#016256"/>
</g>
<path d="M14.868 5.86873C14.7693 11.0195 6.41905 11.0195 6.32031 5.86873C6.41905 0.724422 14.7693 0.724422 14.868 5.86873Z" fill="#016256"/>
<g style="mix-blend-mode:multiply" opacity="0.4">
<path d="M14.163 3.7168C15.1221 7.93047 9.42367 10.1407 6.50391 6.99338C8.57031 12.5771 17.5059 8.79001 14.163 3.7168Z" fill="#016256"/>
</g>
<path d="M8.76483 23.1181C8.76483 23.1181 8.68725 22.1229 8.12305 21.6705C8.12305 21.6705 8.91999 22.2715 8.97641 22.3943C8.97641 22.3943 8.85651 21.4443 8.63083 21.1922C8.63083 21.1922 9.13862 21.6058 9.23735 21.8256C9.23735 21.8256 9.0822 21.1341 8.92704 20.9143C8.92704 20.9143 9.38546 21.4895 9.45598 21.8967C9.45598 21.8967 9.54061 20.798 9.3784 20.3779C9.3784 20.3779 9.7945 21.5671 9.80156 22.1035C9.80156 22.1035 9.81566 21.0759 10.1401 20.6946C10.1401 20.6946 10.0766 21.6834 10.126 22.0453C10.126 22.0453 10.2811 21.5218 10.2811 21.1922C10.2811 21.1922 10.4786 21.8643 10.4222 22.1875C10.4222 22.1875 10.7043 21.5865 10.5773 20.7657C10.5773 20.7657 10.8242 21.4055 10.8101 21.9419C10.8101 21.9419 11.0005 21.4701 11.2685 21.2052C11.2685 21.2052 10.9159 22.0776 10.9088 22.3555C10.9088 22.3555 11.0499 22.013 11.3108 21.8579C11.3108 21.8579 10.9723 22.446 10.8947 22.698C10.8947 22.698 11.1839 22.3426 11.6564 22.1939C11.6564 22.1939 11.1345 22.795 11.1274 23.1181H8.76483Z" fill="#769914"/>
<path d="M10.5275 23.1182C10.5275 23.1182 10.4782 22.4202 10.0762 22.1035C10.0762 22.1035 10.6404 22.5236 10.6756 22.6141C10.6756 22.6141 10.591 21.9484 10.4359 21.7674C10.4359 21.7674 10.7885 22.0583 10.859 22.2134C10.859 22.2134 10.7462 21.7287 10.6404 21.5736C10.6404 21.5736 10.9648 21.9807 11.0142 22.2586C11.0142 22.2586 11.0706 21.4896 10.9577 21.1987C10.9577 21.1987 11.2469 22.0324 11.2539 22.4073C11.2539 22.4073 11.261 21.6899 11.4937 21.4185C11.4937 21.4185 11.4444 22.11 11.4796 22.362C11.4796 22.362 11.5925 22.0001 11.5854 21.7674C11.5854 21.7674 11.7265 22.2392 11.6912 22.4654C11.6912 22.4654 11.8816 22.0453 11.797 21.4702C11.797 21.4702 11.9663 21.9161 11.9592 22.2909C11.9592 22.2909 12.0932 21.9613 12.2766 21.7739C12.2766 21.7739 12.0297 22.3879 12.0297 22.5817C12.0297 22.5817 12.1285 22.3426 12.3118 22.2328C12.3118 22.2328 12.072 22.6464 12.0227 22.8209C12.0227 22.8209 12.2272 22.5753 12.5516 22.4719C12.5516 22.4719 12.1849 22.8855 12.1778 23.1182H10.5275Z" fill="#769914"/>
<path d="M19.5723 31.2307L16.709 36.1876V37.4608L19.5723 31.2307Z" fill="#331C10"/>
<path d="M16.2776 24.962C16.193 29.4406 8.91471 29.4406 8.83008 24.962C8.91471 20.4769 16.193 20.4769 16.2776 24.962Z" fill="#016256"/>
<path d="M18.4864 23.2558C18.43 25.996 13.9869 25.996 13.9375 23.2558C13.9869 20.5156 18.43 20.5156 18.4864 23.2558Z" fill="#016256"/>
<path d="M23.8595 28.2452C23.7114 36.2137 10.77 36.2137 10.6289 28.2452C10.777 20.2767 23.7114 20.2767 23.8595 28.2452Z" fill="#016256"/>
<g style="mix-blend-mode:multiply" opacity="0.4">
<path d="M23.1607 25.5371C23.605 30.9205 16.5525 34.5913 11.7285 31.5991C16.2915 37.7904 26.7575 32.3035 23.1607 25.5371Z" fill="#016256"/>
</g>
<path d="M16.4977 29.2854L17.5626 43.8782H15.9688L16.4977 29.1885V29.2854Z" fill="#331C10"/>
<path d="M12.1465 28.2192L16.6037 37.0731L16.7095 35.6126L12.1465 28.2192Z" fill="#331C10"/>
<path d="M10.5527 29.6797L14.481 32.3035L14.1495 31.528L10.5527 29.6797Z" fill="#331C10"/>
<mask id="mask2_100_10235" style="mask-type:luminance" maskUnits="userSpaceOnUse" x="10" y="28" width="10" height="16">
<path d="M19.5731 31.2342L16.9658 35.7451C16.963 35.6133 16.4841 29.3199 16.4954 29.1907L16.288 34.9315L12.1425 28.218L13.692 31.2936L10.5508 29.6773L14.0601 32.0239L16.2373 36.3468C16.1724 38.1738 16.0313 42.0333 15.9657 43.8804H17.5582L17.0377 36.7397L19.5731 31.2342Z" fill="white"/>
</mask>
<g mask="url(#mask2_100_10235)">
<g style="mix-blend-mode:multiply">
<path d="M19.4649 38.4303L20.8472 34.6367L20.6779 31.6057L19.8951 30.6492L16.6509 36.6466L16.6016 44.7572L21.0588 43.1997L19.4649 38.4303Z" fill="#331C10"/>
</g>
<g style="mix-blend-mode:multiply">
<path d="M17.0109 35.4769L17.4482 30.2615L16.4961 29.1887L16.6795 36.0779L16.9686 35.7419L17.0109 35.4769Z" fill="#331C10"/>
</g>
<g style="mix-blend-mode:multiply">
<path d="M12.1445 28.2192L16.235 35.3476L16.1786 34.2489L12.1445 28.2192Z" fill="#331C10"/>
</g>
</g>
<path d="M13.2462 28.7492C13.1686 32.7302 6.70139 32.7302 6.63086 28.7492C6.70139 24.7617 13.1686 24.7617 13.2462 28.7492Z" fill="#016256"/>
<g style="mix-blend-mode:multiply" opacity="0.4">
<path d="M12.6968 27.0818C13.4797 30.3131 8.97308 32.0581 6.76562 29.6152C8.37361 33.9452 15.2922 31.0111 12.6968 27.0818Z" fill="#016256"/>
</g>
<path d="M21.1043 26.9781C21.0056 32.1289 12.6554 32.1289 12.5566 26.9781C12.6554 21.8338 21.0056 21.8338 21.1043 26.9781Z" fill="#016256"/>
<g style="mix-blend-mode:multiply" opacity="0.4">
<path d="M20.3993 24.8262C21.3585 29.0398 15.66 31.2501 12.7402 28.1028C14.8066 33.6865 23.7422 29.8994 20.3993 24.8262Z" fill="#016256"/>
</g>
<path d="M15.0012 44.2275C15.0012 44.2275 14.9236 43.2322 14.3594 42.7798C14.3594 42.7798 15.1563 43.3809 15.2127 43.5037C15.2127 43.5037 15.0928 42.5537 14.8672 42.3016C14.8672 42.3016 15.3749 42.7152 15.4737 42.9349C15.4737 42.9349 15.3185 42.2434 15.1634 42.0237C15.1634 42.0237 15.6218 42.5989 15.6923 43.006C15.6923 43.006 15.7769 41.9074 15.6147 41.4873C15.6147 41.4873 16.0308 42.6764 16.0379 43.2128C16.0379 43.2128 16.052 42.1853 16.3764 41.804C16.3764 41.804 16.3129 42.7928 16.3623 43.1547C16.3623 43.1547 16.5175 42.6312 16.5175 42.3016C16.5175 42.3016 16.7149 42.9737 16.6585 43.2969C16.6585 43.2969 16.9406 42.6958 16.8137 41.8751C16.8137 41.8751 17.0605 42.5149 17.0464 43.0513C17.0464 43.0513 17.2368 42.5795 17.5048 42.3145C17.5048 42.3145 17.1522 43.187 17.1451 43.4649C17.1451 43.4649 17.2862 43.1224 17.5471 42.9673C17.5471 42.9673 17.2086 43.5554 17.131 43.8074C17.131 43.8074 17.4202 43.452 17.8927 43.3033C17.8927 43.3033 17.3708 43.9044 17.3638 44.2275H15.0012Z" fill="#769914"/>
<path d="M16.7639 44.2275C16.7639 44.2275 16.7145 43.5296 16.3125 43.2129C16.3125 43.2129 16.8767 43.633 16.912 43.7234C16.912 43.7234 16.8273 43.0578 16.6722 42.8768C16.6722 42.8768 17.0248 43.1676 17.0953 43.3227C17.0953 43.3227 16.9825 42.838 16.8767 42.6829C16.8767 42.6829 17.2011 43.0901 17.2505 43.368C17.2505 43.368 17.3069 42.5989 17.1941 42.3081C17.1941 42.3081 17.4832 43.1418 17.4903 43.5166C17.4903 43.5166 17.4973 42.7993 17.7301 42.5278C17.7301 42.5278 17.6807 43.2193 17.716 43.4714C17.716 43.4714 17.8288 43.1095 17.8217 42.8768C17.8217 42.8768 17.9628 43.3486 17.9275 43.5748C17.9275 43.5748 18.118 43.1547 18.0333 42.5795C18.0333 42.5795 18.2026 43.0255 18.1955 43.4003C18.1955 43.4003 18.3295 43.0707 18.5129 42.8833C18.5129 42.8833 18.2661 43.4972 18.2661 43.6911C18.2661 43.6911 18.3648 43.452 18.5482 43.3421C18.5482 43.3421 18.3084 43.7557 18.259 43.9302C18.259 43.9302 18.4635 43.6847 18.7879 43.5813C18.7879 43.5813 18.4212 43.9949 18.4142 44.2275H16.7639Z" fill="#769914"/>
</svg>
