<svg width="143" height="146" viewBox="0 0 143 146" fill="none" xmlns="http://www.w3.org/2000/svg">
<path d="M17.8958 9.33541L17.0932 47.633H20.9289L18.5331 8.44385L17.8958 9.33541Z" fill="#331C10"/>
<path d="M23.006 8.98145L18.533 15.891L18.6983 17.4906L23.006 8.98145Z" fill="#331C10"/>
<path d="M13.9066 9.15185L18.3796 17.8445L18.0609 19.9685L13.9066 8.79785V9.15185Z" fill="#331C10"/>
<path d="M10.5548 18.0283L18.533 28.6615V30.615L13.104 23.5219L6.40039 19.2608L12.9506 22.6303L10.5548 18.0283Z" fill="#331C10"/>
<path d="M26.5113 19.4443L19.0169 26.7079V28.845L26.5113 19.4443Z" fill="#331C10"/>
<path d="M21.8848 24.7542L22.2389 24.5707L30.3942 20.2178L22.6756 23.5742L21.8848 24.7542Z" fill="#331C10"/>
<path d="M19.1703 34.1549L23.4781 30.4313L26.4051 27.1011L24.1273 30.7853L31.0551 27.1404L24.4459 31.3229L19.1703 36.4624L18.8517 33.9844" fill="#331C10"/>
<path d="M6.73083 27.7307L12.6319 33.2767L18.3796 36.6462L18.533 35.0467L13.104 32.5687L11.5107 26.354L12.3133 31.8476L6.73083 27.7307Z" fill="#331C10"/>
<path d="M13.9066 9.15185L14.3786 10.0827L13.9066 8.79785V9.15185Z" fill="#331C10"/>
<path d="M31.0551 27.1403L24.1273 30.7852L26.4051 27.101L23.4781 30.4312L20.0555 33.3943L19.7251 27.9401L22.5576 24.4001L30.3942 20.2176L23.5017 23.2201L26.5113 19.4441L19.6188 26.1308L19.0405 16.7956L23.0061 8.98141L18.9461 15.2485L18.533 8.44385L17.8957 9.33541L17.7423 16.6121L14.3787 10.0827C17.6833 19.1163 17.9547 17.2939 17.518 27.3108L10.5548 18.0281L12.9506 22.6301L6.40039 19.2605L13.104 23.5217L17.4826 29.2381L17.3764 34.5088L13.104 32.5683L11.5107 26.3537L12.3133 31.8472L6.73085 27.7303L12.6319 33.2763L17.341 36.0297L17.0932 47.633H20.9289L20.1853 35.479L24.4459 31.3228L31.0551 27.1403Z" fill="#331C10"/>
<g style="mix-blend-mode:multiply">
<path d="M13.9066 9.15185L14.3787 10.0827L13.9066 8.79785V9.15185Z" fill="#331C10"/>
<path d="M20.1853 35.4788L24.4459 31.3226L31.0551 27.1401L23.7968 31.3226L19.6542 35.0462L18.6392 47.6328H20.9288L20.1853 35.4788Z" fill="#331C10"/>
<path d="M19.0169 26.7077L19.2057 33.7746L20.0319 32.9355L19.725 27.9401L22.5575 24.4001L30.3942 20.2177L23.5017 23.2201L26.5113 19.4441L19.6188 26.1308L19.0405 16.7957L23.006 8.98145L18.6746 16.5859L19.0169 26.7077Z" fill="#331C10"/>
</g>
<mask id="mask0_12_25627" style="mask-type:luminance" maskUnits="userSpaceOnUse" x="5" y="0" width="27" height="13">
<path d="M28.4375 4.62442C28.022 4.62442 27.6266 4.71227 27.2596 4.86698C26.3024 2.58171 23.4947 1.46464 21.414 2.64595C19.0335 -1.77643 12.3133 -0.368298 11.5745 4.74111C10.0886 4.28484 8.44339 5.17247 7.80489 6.64616C3.95856 7.24272 5.88468 13.6921 9.28961 11.6022C10.6374 12.4033 12.5081 11.8932 13.3791 10.5572C15.1966 12.3993 18.4257 12.4478 20.2881 10.6542C21.7503 12.3023 24.5073 12.4269 26.0865 10.902C30.9171 15.3611 34.7044 5.30227 28.4375 4.62442Z" fill="white"/>
</mask>
<g mask="url(#mask0_12_25627)">
<path d="M28.4349 4.62816C28.0219 4.62816 27.6206 4.70683 27.2547 4.86417C26.2987 2.58283 23.4898 1.46838 21.4126 2.64838C19.0286 -1.77007 12.3132 -0.367177 11.5696 4.74617C10.0825 4.28728 8.44204 5.17883 7.80473 6.64728C3.95722 7.23728 5.88097 13.688 9.2918 11.6033C10.6372 12.4031 12.5138 11.8917 13.3754 10.5544C15.1929 12.4031 18.4267 12.4424 20.2914 10.6593C21.7549 12.2982 24.5048 12.4293 26.0863 10.8953C30.9134 15.3662 34.7019 5.29683 28.4349 4.62816Z" fill="#769914"/>
<g style="mix-blend-mode:multiply">
<path d="M30.5241 5.44092C31.5626 8.87604 27.4791 11.708 25.1541 9.24315C23.667 10.882 20.9053 10.9607 19.3474 9.41359C17.6007 11.3409 14.3669 11.5245 12.4549 9.80692C11.6524 11.2098 9.82303 11.8523 8.43038 11.1443C7.98189 11.4983 7.37998 11.6818 6.81348 11.6032C7.52161 12.1145 8.572 12.1145 9.29193 11.6032C10.6374 12.4029 12.5139 11.8916 13.3755 10.5543C15.193 12.4029 18.4268 12.4423 20.2916 10.6591C21.755 12.298 24.5049 12.4292 26.0864 10.8951C29.3438 14.4614 34.0411 8.66626 30.5241 5.44092Z" fill="#A3C02D"/>
</g>
<g style="mix-blend-mode:multiply">
<path d="M23.313 1.27186L21.4128 2.64853C21.4128 2.64853 19.3002 3.29097 18.6983 5.29698C19.0052 2.80586 20.7637 0.94408 23.313 1.27186Z" fill="#A3C02D"/>
</g>
<g style="mix-blend-mode:multiply">
<path d="M30.5477 2.84502L28.6476 4.20857C28.6476 4.20857 26.5232 4.85102 25.9213 6.85702C26.2399 4.36591 27.9984 2.50413 30.5477 2.84502Z" fill="#A3C02D"/>
</g>
</g>
<mask id="mask1_12_25627" style="mask-type:luminance" maskUnits="userSpaceOnUse" x="21" y="13" width="14" height="9">
<path d="M31.5037 15.3809C31.3101 15.3809 31.1221 15.4019 30.9395 15.4439C29.4347 11.6521 23.8736 12.7469 23.6871 16.9385C19.3321 17.0933 22.0926 24.0985 25.1458 20.6687C26.3626 21.7949 28.4044 21.8618 29.6802 20.8103C33.7827 24.1746 36.5963 15.8372 31.5037 15.3809Z" fill="white"/>
</mask>
<g mask="url(#mask1_12_25627)">
<path d="M31.3267 17.3199C31.2441 22.9053 23.7615 22.9053 23.6671 17.3199C23.7615 11.7215 31.2441 11.7215 31.3267 17.3199Z" fill="#769914"/>
<path d="M34.2889 18.4736C34.2771 22.5249 28.7301 22.5249 28.7183 18.4736C28.7301 14.4222 34.2771 14.4222 34.2889 18.4736Z" fill="#769914"/>
<path d="M25.5908 19.247C25.6262 22.2626 21.3656 22.2626 21.4128 19.247C21.3656 16.2315 25.6262 16.2315 25.5908 19.247Z" fill="#769914"/>
<g style="mix-blend-mode:multiply">
<path d="M32.8963 14.029L31.244 15.209C31.244 15.209 29.4146 15.7728 28.8953 17.5035C29.1314 15.3795 30.7247 13.7144 32.8963 14.029Z" fill="#A3C02D"/>
</g>
<g style="mix-blend-mode:multiply">
<path d="M33.5455 16.376C34.1592 18.9982 31.2677 21.1615 29.3085 19.6275C28.1755 20.86 26.1455 21.1091 24.8001 20.1782C24.387 21.0435 23.3484 21.5418 22.475 21.2664C23.3248 21.8433 24.5758 21.5418 25.1423 20.6633C26.3579 21.7909 28.3997 21.8564 29.6862 20.8075C32.2118 23.3642 35.9295 19.1031 33.5455 16.376Z" fill="#A3C02D"/>
</g>
</g>
<mask id="mask2_12_25627" style="mask-type:luminance" maskUnits="userSpaceOnUse" x="21" y="23" width="15" height="8">
<path d="M33.779 25.5498C33.6209 25.5498 33.4679 25.5673 33.32 25.6023C32.4312 23.3065 29.2104 23.0207 28.0054 25.1368C26.6069 23.7169 24.0883 24.5363 23.5914 26.5463C19.8537 26.7036 22.0087 32.8331 24.8531 30.1492C25.9318 30.8887 27.5263 30.5701 28.3087 29.5002C29.2624 30.6868 31.1413 30.907 32.3038 29.9434C35.6225 32.6679 37.9015 25.9196 33.779 25.5498Z" fill="white"/>
</mask>
<g mask="url(#mask2_12_25627)">
<path d="M33.6399 27.1141C33.6163 31.6112 27.4556 31.6112 27.4438 27.1141C27.4556 22.6169 33.6163 22.6169 33.6399 27.1141Z" fill="#769914"/>
<path d="M36.0358 28.0578C36.0712 31.2963 31.4801 31.2963 31.5273 28.0578C31.4801 24.8063 36.0712 24.8063 36.0358 28.0578Z" fill="#769914"/>
<path d="M28.9899 27.4812C28.9781 31.5063 23.4783 31.5063 23.4547 27.4812C23.4783 23.4692 28.9781 23.4692 28.9899 27.4812Z" fill="#769914"/>
<path d="M25.402 28.6612C25.4374 31.4276 21.5309 31.4276 21.5663 28.6612C21.5309 25.9079 25.4374 25.9079 25.402 28.6612Z" fill="#769914"/>
<g style="mix-blend-mode:multiply">
<path d="M37.3104 23.7051L35.2922 25.1604C35.2922 25.1604 33.0498 25.8291 32.4125 27.9531C32.7429 25.3309 34.6077 23.3511 37.3104 23.7051Z" fill="#A3C02D"/>
</g>
<g style="mix-blend-mode:multiply">
<path d="M30.2409 21.7646L29.0252 24.0591C29.0252 24.0591 27.3021 25.7898 27.5972 28.0055C26.8182 25.4882 27.6798 22.7873 30.2409 21.7646Z" fill="#A3C02D"/>
</g>
<g style="mix-blend-mode:multiply">
<path d="M35.7997 26.9565C35.5164 28.6348 33.51 29.4739 32.2944 28.4119C31.2086 29.487 29.3203 29.4477 28.2699 28.3594C27.5853 29.5001 26.0156 29.9721 24.8826 29.3428C23.9975 30.6539 21.9321 30.195 21.5662 28.6085C21.46 30.4965 23.726 31.5323 24.8472 30.1557C25.933 30.8899 27.5263 30.5752 28.3053 29.5001C29.2612 30.6932 31.1378 30.903 32.3062 29.9459C34.0411 31.7421 36.9209 29.3165 35.7997 26.9565Z" fill="#A3C02D"/>
</g>
</g>
<mask id="mask3_12_25627" style="mask-type:luminance" maskUnits="userSpaceOnUse" x="3" y="23" width="14" height="7">
<path d="M14.0424 25.0187C13.9015 25.0187 13.765 25.034 13.6328 25.0646C12.8385 23.0153 9.96236 22.7597 8.886 24.649C7.63733 23.3812 5.38783 24.1141 4.94407 25.9077C1.60523 26.0493 3.53135 31.5219 6.07 29.1265C7.03424 29.7873 8.45876 29.5027 9.15627 28.5469C10.0096 29.6063 11.6867 29.803 12.7241 28.9416C15.6888 31.375 17.7246 25.3478 14.0424 25.0187Z" fill="white"/>
</mask>
<g mask="url(#mask3_12_25627)">
<path d="M13.9183 26.4192C13.8947 30.4312 8.39492 30.4312 8.38312 26.4192C8.39492 22.3941 13.9065 22.3941 13.9183 26.4192Z" fill="#769914"/>
<path d="M16.0546 27.2582C16.09 30.1558 11.9946 30.1558 12.03 27.2582C11.9946 24.3475 16.09 24.3475 16.0546 27.2582Z" fill="#769914"/>
<path d="M9.764 26.7471C9.75219 30.3395 4.84249 30.3395 4.83069 26.7471C4.84249 23.1546 9.75219 23.1546 9.764 26.7471Z" fill="#769914"/>
<path d="M6.55379 27.7959C6.5892 30.2608 3.10756 30.2608 3.13116 27.7959C3.10756 25.3441 6.5892 25.331 6.55379 27.7959Z" fill="#769914"/>
<g style="mix-blend-mode:multiply">
<path d="M16.3613 23.3379L14.7562 24.4917C14.7562 24.4917 12.9741 25.0292 12.4666 26.7206C12.7027 24.6621 14.2487 23.0363 16.3613 23.3379Z" fill="#A3C02D"/>
</g>
<g style="mix-blend-mode:multiply">
<path d="M10.6373 21.8301L9.62236 23.6263C9.62236 23.6263 8.2179 24.9505 8.39494 26.7205C7.82843 24.7407 8.60738 22.5512 10.6373 21.8301Z" fill="#A3C02D"/>
</g>
<g style="mix-blend-mode:multiply">
<path d="M15.7476 26.0781C15.8303 27.8744 13.8003 29.015 12.5493 27.9137C11.5697 28.8577 9.89377 28.8052 8.9614 27.8219C8.33588 28.8446 6.93142 29.251 5.92824 28.6741C5.33813 29.5264 4.01628 29.5788 3.37897 28.779C3.88646 29.8148 5.36173 30.0115 6.06987 29.133C7.03764 29.7886 8.4539 29.5001 9.16203 28.543C10.0118 29.605 11.6877 29.8017 12.7263 28.9364C14.3668 30.6277 16.9869 28.1628 15.7476 26.0781Z" fill="#A3C02D"/>
</g>
</g>
<mask id="mask4_12_25627" style="mask-type:luminance" maskUnits="userSpaceOnUse" x="0" y="13" width="17" height="10">
<path d="M14.2182 16.1886C14.0891 16.1903 13.9629 16.2021 13.8393 16.224C12.9105 12.1189 7.30092 12.3929 6.70963 16.5858C5.42083 15.6759 3.52422 16.4219 3.01673 17.9809C1.75154 17.088 -0.0412122 18.2024 0.00127564 19.8833C-0.067177 22.0165 2.63788 22.9054 3.64225 21.1367C4.83191 22.4937 7.14985 21.9575 7.76121 20.2111C8.83993 21.4553 10.8416 21.7346 12.1752 20.7932C15.7489 24.935 19.3639 16.8349 14.2182 16.1886Z" fill="white"/>
</mask>
<g mask="url(#mask4_12_25627)">
<path d="M13.9656 17.294C13.942 22.6172 6.67186 22.6172 6.64825 17.294C6.67186 11.984 13.9538 11.984 13.9656 17.294Z" fill="#769914"/>
<path d="M7.98189 19.051C7.97009 22.8008 2.84795 22.8008 2.82434 19.051C2.84795 15.3144 7.97009 15.3144 7.98189 19.051Z" fill="#769914"/>
<path d="M16.7981 19.051C16.7863 22.8008 11.6524 22.8008 11.6406 19.051C11.6524 15.3144 16.7863 15.3144 16.7981 19.051Z" fill="#769914"/>
<path d="M3.99272 19.8899C4.02813 22.7612 -0.0318194 22.7612 0.00358718 19.8899C-0.0318194 17.0054 4.02813 17.0054 3.99272 19.8899Z" fill="#769914"/>
<g style="mix-blend-mode:multiply">
<path d="M16.1254 14.7114L14.5557 15.839C14.5557 15.839 12.8089 16.3766 12.3015 18.0417C12.5375 16.0094 14.06 14.4099 16.1254 14.7114Z" fill="#A3C02D"/>
</g>
<g style="mix-blend-mode:multiply">
<path d="M5.3854 14.8423L4.24059 16.4943C4.24059 16.4943 2.82433 17.1105 2.76532 19.3787C2.38765 17.3858 3.34362 15.3143 5.3854 14.8423Z" fill="#A3C02D"/>
</g>
<g style="mix-blend-mode:multiply">
<path d="M16.09 17.0845C16.3024 19.5756 13.3165 21.0965 11.7468 19.3265C10.5784 20.4934 8.56019 20.5851 7.30916 19.5494C7.0259 20.9523 5.62144 21.9749 4.3114 21.6472C5.57423 22.3552 7.25014 21.6209 7.75764 20.2049C8.84344 21.4505 10.838 21.7389 12.1717 20.7949C14.3551 23.9023 18.5094 19.9689 16.09 17.0845Z" fill="#A3C02D"/>
</g>
</g>
<path d="M16.2789 48.0001C16.2789 48.0001 16.1372 45.758 15.0869 44.7354C15.0869 44.7354 16.5739 46.0989 16.6801 46.3743C16.6801 46.3743 16.4559 44.2372 16.031 43.6734C16.031 43.6734 16.9752 44.5912 17.164 45.0894C17.164 45.0894 16.869 43.5423 16.5857 43.0309C16.5857 43.0309 17.4355 44.342 17.5653 45.2467C17.5653 45.2467 17.7069 42.7818 17.4237 41.8247C17.4237 41.8247 18.1908 44.5125 18.1908 45.7056C18.1908 45.7056 18.2262 43.4112 18.8281 42.5458C18.8281 42.5458 18.7101 44.7747 18.8045 45.5876C18.8045 45.5876 19.0996 44.3945 19.0878 43.6603C19.0878 43.6603 19.4655 45.168 19.3474 45.9023C19.3474 45.9023 19.8785 44.5518 19.6543 42.7032C19.6543 42.7032 20.1028 44.1454 20.0674 45.3516C20.0674 45.3516 20.4332 44.2896 20.9171 43.6865C20.9171 43.6865 20.268 45.6532 20.2562 46.2825C20.2562 46.2825 20.5159 45.5089 21.0115 45.168C21.0115 45.168 20.3742 46.4792 20.2326 47.056C20.2326 47.056 20.7755 46.2432 21.6489 45.9285C21.6489 45.9285 20.6811 47.2658 20.6575 48.0001H16.2789Z" fill="#769914"/>
<path d="M19.5481 47.9869C19.5481 47.9869 19.4537 46.4267 18.7219 45.7056C18.7219 45.7056 19.7605 46.6627 19.8313 46.8593C19.8313 46.8593 19.6779 45.3647 19.3828 44.9582C19.3828 44.9582 20.032 45.6138 20.1736 45.9547C20.1736 45.9547 19.9612 44.8796 19.7605 44.5256C19.7605 44.5256 20.3624 45.4302 20.445 46.0727C20.445 46.0727 20.5513 44.342 20.3506 43.6733C20.3506 43.6733 20.8935 45.5482 20.8935 46.3873C20.8935 46.3873 20.9171 44.7878 21.342 44.1716C21.342 44.1716 21.2476 45.7318 21.3184 46.3087C21.3184 46.3087 21.5308 45.4696 21.519 44.9582C21.519 44.9582 21.7787 46.0202 21.7079 46.5316C21.7079 46.5316 22.0737 45.5876 21.9085 44.2896C21.9085 44.2896 22.2272 45.2991 22.2036 46.1382C22.2036 46.1382 22.4632 45.404 22.8055 44.9845C22.8055 44.9845 22.3452 46.3611 22.3334 46.7938C22.3334 46.7938 22.5222 46.2562 22.8645 46.0071C22.8645 46.0071 22.416 46.938 22.3216 47.3313C22.3216 47.3313 22.6993 46.7676 23.313 46.5447C23.313 46.5447 22.6284 47.4756 22.6166 47.9869H19.5481Z" fill="#769914"/>
<path d="M32.8958 46.3354L32.0932 84.633H35.9289L33.5331 45.4438L32.8958 46.3354Z" fill="#331C10"/>
<path d="M38.006 45.9814L33.533 52.891L33.6983 54.4906L38.006 45.9814Z" fill="#331C10"/>
<path d="M28.9066 46.1519L33.3796 54.8445L33.0609 56.9685L28.9066 45.7979V46.1519Z" fill="#331C10"/>
<path d="M25.5548 55.0283L33.533 65.6615V67.615L28.104 60.5219L21.4004 56.2608L27.9506 59.6303L25.5548 55.0283Z" fill="#331C10"/>
<path d="M41.5113 56.4443L34.0169 63.7079V65.845L41.5113 56.4443Z" fill="#331C10"/>
<path d="M36.8848 61.7542L37.2389 61.5707L45.3942 57.2178L37.6756 60.5742L36.8848 61.7542Z" fill="#331C10"/>
<path d="M34.1703 71.1549L38.4781 67.4313L41.4051 64.1011L39.1273 67.7853L46.0551 64.1404L39.4459 68.3229L34.1703 73.4624L33.8517 70.9844" fill="#331C10"/>
<path d="M21.7308 64.7307L27.6319 70.2767L33.3796 73.6462L33.533 72.0467L28.104 69.5687L26.5107 63.354L27.3133 68.8476L21.7308 64.7307Z" fill="#331C10"/>
<path d="M28.9066 46.1519L29.3786 47.0827L28.9066 45.7979V46.1519Z" fill="#331C10"/>
<path d="M46.0551 64.1403L39.1273 67.7852L41.4051 64.101L38.4781 67.4312L35.0555 70.3943L34.7251 64.9401L37.5576 61.4001L45.3942 57.2176L38.5017 60.2201L41.5113 56.4441L34.6188 63.1308L34.0405 53.7956L38.0061 45.9814L33.9461 52.2485L33.533 45.4438L32.8957 46.3354L32.7423 53.6121L29.3787 47.0827C32.6833 56.1163 32.9547 54.2939 32.518 64.3108L25.5548 55.0281L27.9506 59.6301L21.4004 56.2605L28.104 60.5217L32.4826 66.2381L32.3764 71.5088L28.104 69.5683L26.5107 63.3537L27.3133 68.8472L21.7309 64.7303L27.6319 70.2763L32.341 73.0297L32.0932 84.633H35.9289L35.1853 72.479L39.4459 68.3228L46.0551 64.1403Z" fill="#331C10"/>
<g style="mix-blend-mode:multiply">
<path d="M28.9066 46.1519L29.3787 47.0827L28.9066 45.7979V46.1519Z" fill="#331C10"/>
<path d="M35.1853 72.4788L39.4459 68.3226L46.0551 64.1401L38.7968 68.3226L34.6542 72.0462L33.6392 84.6328H35.9288L35.1853 72.4788Z" fill="#331C10"/>
<path d="M34.0169 63.7077L34.2057 70.7746L35.0319 69.9355L34.725 64.9401L37.5575 61.4001L45.3942 57.2177L38.5017 60.2201L41.5113 56.4441L34.6188 63.1308L34.0405 53.7957L38.006 45.9814L33.6746 53.5859L34.0169 63.7077Z" fill="#331C10"/>
</g>
<mask id="mask5_12_25627" style="mask-type:luminance" maskUnits="userSpaceOnUse" x="20" y="37" width="27" height="13">
<path d="M43.4375 41.6244C43.022 41.6244 42.6266 41.7123 42.2596 41.867C41.3024 39.5817 38.4947 38.4646 36.414 39.646C34.0335 35.2236 27.3133 36.6317 26.5745 41.7411C25.0886 41.2848 23.4434 42.1725 22.8049 43.6462C18.9586 44.2427 20.8847 50.6921 24.2896 48.6022C25.6374 49.4033 27.5081 48.8932 28.3791 47.5572C30.1966 49.3993 33.4257 49.4478 35.2881 47.6542C36.7503 49.3023 39.5073 49.4269 41.0865 47.902C45.9171 52.3611 49.7044 42.3023 43.4375 41.6244Z" fill="white"/>
</mask>
<g mask="url(#mask5_12_25627)">
<path d="M43.4349 41.6282C43.0219 41.6282 42.6206 41.7068 42.2547 41.8642C41.2987 39.5828 38.4898 38.4684 36.4126 39.6484C34.0286 35.2299 27.3132 36.6328 26.5696 41.7462C25.0825 41.2873 23.442 42.1788 22.8047 43.6473C18.9572 44.2373 20.881 50.688 24.2918 48.6033C25.6372 49.4031 27.5138 48.8917 28.3754 47.5544C30.1929 49.4031 33.4267 49.4424 35.2914 47.6593C36.7549 49.2982 39.5048 49.4293 41.0863 47.8953C45.9134 52.3662 49.7019 42.2968 43.4349 41.6282Z" fill="#769914"/>
<g style="mix-blend-mode:multiply">
<path d="M45.5241 42.4409C46.5626 45.876 42.4791 48.708 40.1541 46.2431C38.667 47.882 35.9053 47.9607 34.3474 46.4136C32.6007 48.3409 29.3669 48.5245 27.4549 46.8069C26.6524 48.2098 24.823 48.8523 23.4304 48.1443C22.9819 48.4983 22.38 48.6818 21.8135 48.6032C22.5216 49.1145 23.572 49.1145 24.2919 48.6032C25.6374 49.4029 27.5139 48.8916 28.3755 47.5543C30.193 49.4029 33.4268 49.4423 35.2916 47.6591C36.755 49.298 39.5049 49.4292 41.0864 47.8951C44.3438 51.4614 49.0411 45.6663 45.5241 42.4409Z" fill="#A3C02D"/>
</g>
<g style="mix-blend-mode:multiply">
<path d="M38.313 38.2719L36.4128 39.6485C36.4128 39.6485 34.3002 40.291 33.6983 42.297C34.0052 39.8059 35.7637 37.9441 38.313 38.2719Z" fill="#A3C02D"/>
</g>
<g style="mix-blend-mode:multiply">
<path d="M45.5477 39.845L43.6476 41.2086C43.6476 41.2086 41.5232 41.851 40.9213 43.857C41.2399 41.3659 42.9984 39.5041 45.5477 39.845Z" fill="#A3C02D"/>
</g>
</g>
<mask id="mask6_12_25627" style="mask-type:luminance" maskUnits="userSpaceOnUse" x="36" y="50" width="14" height="9">
<path d="M46.5037 52.3809C46.3101 52.3809 46.1221 52.4019 45.9395 52.4439C44.4347 48.6521 38.8736 49.7469 38.6871 53.9385C34.3321 54.0933 37.0926 61.0985 40.1458 57.6687C41.3626 58.7949 43.4044 58.8618 44.6802 57.8103C48.7827 61.1746 51.5963 52.8372 46.5037 52.3809Z" fill="white"/>
</mask>
<g mask="url(#mask6_12_25627)">
<path d="M46.3267 54.3199C46.2441 59.9053 38.7615 59.9053 38.6671 54.3199C38.7615 48.7215 46.2441 48.7215 46.3267 54.3199Z" fill="#769914"/>
<path d="M49.2889 55.4736C49.2771 59.5249 43.7301 59.5249 43.7183 55.4736C43.7301 51.4222 49.2771 51.4222 49.2889 55.4736Z" fill="#769914"/>
<path d="M40.5908 56.247C40.6262 59.2626 36.3656 59.2626 36.4128 56.247C36.3656 53.2315 40.6262 53.2315 40.5908 56.247Z" fill="#769914"/>
<g style="mix-blend-mode:multiply">
<path d="M47.8963 51.029L46.244 52.209C46.244 52.209 44.4146 52.7728 43.8953 54.5035C44.1314 52.3795 45.7247 50.7144 47.8963 51.029Z" fill="#A3C02D"/>
</g>
<g style="mix-blend-mode:multiply">
<path d="M48.5455 53.376C49.1592 55.9982 46.2677 58.1615 44.3085 56.6275C43.1755 57.86 41.1455 58.1091 39.8001 57.1782C39.387 58.0435 38.3484 58.5418 37.475 58.2664C38.3248 58.8433 39.5758 58.5418 40.1423 57.6633C41.3579 58.7909 43.3997 58.8564 44.6862 57.8075C47.2118 60.3642 50.9295 56.1031 48.5455 53.376Z" fill="#A3C02D"/>
</g>
</g>
<mask id="mask7_12_25627" style="mask-type:luminance" maskUnits="userSpaceOnUse" x="36" y="60" width="15" height="8">
<path d="M48.779 62.5498C48.6209 62.5498 48.4679 62.5673 48.32 62.6023C47.4312 60.3065 44.2104 60.0207 43.0054 62.1368C41.6069 60.7169 39.0883 61.5363 38.5914 63.5463C34.8537 63.7036 37.0087 69.8331 39.8531 67.1492C40.9318 67.8887 42.5263 67.5701 43.3087 66.5002C44.2624 67.6868 46.1413 67.907 47.3038 66.9434C50.6225 69.6679 52.9015 62.9196 48.779 62.5498Z" fill="white"/>
</mask>
<g mask="url(#mask7_12_25627)">
<path d="M48.6399 64.1141C48.6163 68.6112 42.4556 68.6112 42.4438 64.1141C42.4556 59.6169 48.6163 59.6169 48.6399 64.1141Z" fill="#769914"/>
<path d="M51.0358 65.0578C51.0712 68.2963 46.4801 68.2963 46.5273 65.0578C46.4801 61.8063 51.0712 61.8063 51.0358 65.0578Z" fill="#769914"/>
<path d="M43.9899 64.4812C43.9781 68.5063 38.4783 68.5063 38.4547 64.4812C38.4783 60.4692 43.9781 60.4692 43.9899 64.4812Z" fill="#769914"/>
<path d="M40.402 65.6612C40.4374 68.4276 36.5309 68.4276 36.5663 65.6612C36.5309 62.9079 40.4374 62.9079 40.402 65.6612Z" fill="#769914"/>
<g style="mix-blend-mode:multiply">
<path d="M52.3104 60.7051L50.2922 62.1604C50.2922 62.1604 48.0498 62.8291 47.4125 64.9531C47.7429 62.3309 49.6077 60.3511 52.3104 60.7051Z" fill="#A3C02D"/>
</g>
<g style="mix-blend-mode:multiply">
<path d="M45.2409 58.7646L44.0252 61.0591C44.0252 61.0591 42.3021 62.7898 42.5972 65.0055C41.8182 62.4882 42.6798 59.7873 45.2409 58.7646Z" fill="#A3C02D"/>
</g>
<g style="mix-blend-mode:multiply">
<path d="M50.7997 63.9565C50.5164 65.6348 48.51 66.4739 47.2944 65.4119C46.2086 66.487 44.3203 66.4477 43.2699 65.3594C42.5853 66.5001 41.0156 66.9721 39.8826 66.3428C38.9975 67.6539 36.9321 67.195 36.5662 65.6085C36.46 67.4965 38.726 68.5323 39.8472 67.1557C40.933 67.8899 42.5263 67.5752 43.3053 66.5001C44.2612 67.6932 46.1378 67.903 47.3062 66.9459C49.0411 68.7421 51.9209 66.3165 50.7997 63.9565Z" fill="#A3C02D"/>
</g>
</g>
<mask id="mask8_12_25627" style="mask-type:luminance" maskUnits="userSpaceOnUse" x="18" y="60" width="14" height="7">
<path d="M29.0424 62.0187C28.9015 62.0187 28.765 62.034 28.6328 62.0646C27.8385 60.0153 24.9624 59.7597 23.886 61.649C22.6373 60.3812 20.3878 61.1141 19.9441 62.9077C16.6052 63.0493 18.5314 68.5219 21.07 66.1265C22.0342 66.7873 23.4588 66.5027 24.1563 65.5469C25.0096 66.6063 26.6867 66.803 27.7241 65.9416C30.6888 68.375 32.7246 62.3478 29.0424 62.0187Z" fill="white"/>
</mask>
<g mask="url(#mask8_12_25627)">
<path d="M28.9183 63.4192C28.8947 67.4312 23.3949 67.4312 23.3831 63.4192C23.3949 59.3941 28.9065 59.3941 28.9183 63.4192Z" fill="#769914"/>
<path d="M31.0546 64.2582C31.09 67.1558 26.9946 67.1558 27.03 64.2582C26.9946 61.3475 31.09 61.3475 31.0546 64.2582Z" fill="#769914"/>
<path d="M24.764 63.7471C24.7522 67.3395 19.8425 67.3395 19.8307 63.7471C19.8425 60.1546 24.7522 60.1546 24.764 63.7471Z" fill="#769914"/>
<path d="M21.5538 64.7959C21.5892 67.2608 18.1076 67.2608 18.1312 64.7959C18.1076 62.3441 21.5892 62.331 21.5538 64.7959Z" fill="#769914"/>
<g style="mix-blend-mode:multiply">
<path d="M31.3613 60.3379L29.7562 61.4917C29.7562 61.4917 27.9741 62.0292 27.4666 63.7206C27.7027 61.6621 29.2487 60.0363 31.3613 60.3379Z" fill="#A3C02D"/>
</g>
<g style="mix-blend-mode:multiply">
<path d="M25.6373 58.8301L24.6224 60.6263C24.6224 60.6263 23.2179 61.9505 23.3949 63.7205C22.8284 61.7407 23.6074 59.5512 25.6373 58.8301Z" fill="#A3C02D"/>
</g>
<g style="mix-blend-mode:multiply">
<path d="M30.7476 63.0781C30.8303 64.8744 28.8003 66.015 27.5493 64.9137C26.5697 65.8577 24.8938 65.8052 23.9614 64.8219C23.3359 65.8446 21.9314 66.251 20.9282 65.6741C20.3381 66.5264 19.0163 66.5788 18.379 65.779C18.8865 66.8148 20.3617 67.0115 21.0699 66.133C22.0376 66.7886 23.4539 66.5001 24.162 65.543C25.0118 66.605 26.6877 66.8017 27.7263 65.9364C29.3668 67.6277 31.9869 65.1628 30.7476 63.0781Z" fill="#A3C02D"/>
</g>
</g>
<mask id="mask9_12_25627" style="mask-type:luminance" maskUnits="userSpaceOnUse" x="15" y="50" width="17" height="10">
<path d="M29.2182 53.1886C29.0891 53.1903 28.9629 53.2021 28.8393 53.224C27.9105 49.1189 22.3009 49.3929 21.7096 53.5858C20.4208 52.6759 18.5242 53.4219 18.0167 54.9809C16.7515 54.088 14.9588 55.2024 15.0013 56.8833C14.9328 59.0165 17.6379 59.9054 18.6422 58.1367C19.8319 59.4937 22.1499 58.9575 22.7612 57.2111C23.8399 58.4553 25.8416 58.7346 27.1752 57.7932C30.7489 61.935 34.3639 53.8349 29.2182 53.1886Z" fill="white"/>
</mask>
<g mask="url(#mask9_12_25627)">
<path d="M28.9656 54.294C28.942 59.6172 21.6719 59.6172 21.6483 54.294C21.6719 48.984 28.9538 48.984 28.9656 54.294Z" fill="#769914"/>
<path d="M22.9819 56.051C22.9701 59.8008 17.8479 59.8008 17.8243 56.051C17.8479 52.3144 22.9701 52.3144 22.9819 56.051Z" fill="#769914"/>
<path d="M31.7981 56.051C31.7863 59.8008 26.6524 59.8008 26.6406 56.051C26.6524 52.3144 31.7863 52.3144 31.7981 56.051Z" fill="#769914"/>
<path d="M18.9927 56.8899C19.0281 59.7612 14.9682 59.7612 15.0036 56.8899C14.9682 54.0054 19.0281 54.0054 18.9927 56.8899Z" fill="#769914"/>
<g style="mix-blend-mode:multiply">
<path d="M31.1254 51.7114L29.5557 52.839C29.5557 52.839 27.8089 53.3766 27.3015 55.0417C27.5375 53.0094 29.06 51.4099 31.1254 51.7114Z" fill="#A3C02D"/>
</g>
<g style="mix-blend-mode:multiply">
<path d="M20.3854 51.8423L19.2406 53.4943C19.2406 53.4943 17.8243 54.1105 17.7653 56.3787C17.3876 54.3858 18.3436 52.3143 20.3854 51.8423Z" fill="#A3C02D"/>
</g>
<g style="mix-blend-mode:multiply">
<path d="M31.09 54.0845C31.3024 56.5756 28.3165 58.0965 26.7468 56.3265C25.5784 57.4934 23.5602 57.5851 22.3092 56.5494C22.0259 57.9523 20.6214 58.9749 19.3114 58.6472C20.5742 59.3552 22.2501 58.6209 22.7576 57.2049C23.8434 58.4505 25.838 58.7389 27.1717 57.7949C29.3551 60.9023 33.5094 56.9689 31.09 54.0845Z" fill="#A3C02D"/>
</g>
</g>
<path d="M31.2789 85.0001C31.2789 85.0001 31.1372 82.758 30.0869 81.7354C30.0869 81.7354 31.5739 83.0989 31.6801 83.3743C31.6801 83.3743 31.4559 81.2372 31.031 80.6734C31.031 80.6734 31.9752 81.5912 32.164 82.0894C32.164 82.0894 31.869 80.5423 31.5857 80.0309C31.5857 80.0309 32.4355 81.342 32.5653 82.2467C32.5653 82.2467 32.7069 79.7818 32.4237 78.8247C32.4237 78.8247 33.1908 81.5125 33.1908 82.7056C33.1908 82.7056 33.2262 80.4112 33.8281 79.5458C33.8281 79.5458 33.7101 81.7747 33.8045 82.5876C33.8045 82.5876 34.0996 81.3945 34.0878 80.6603C34.0878 80.6603 34.4655 82.168 34.3474 82.9023C34.3474 82.9023 34.8785 81.5518 34.6543 79.7032C34.6543 79.7032 35.1028 81.1454 35.0674 82.3516C35.0674 82.3516 35.4332 81.2896 35.9171 80.6865C35.9171 80.6865 35.268 82.6532 35.2562 83.2825C35.2562 83.2825 35.5159 82.5089 36.0115 82.168C36.0115 82.168 35.3742 83.4792 35.2326 84.056C35.2326 84.056 35.7755 83.2432 36.6489 82.9285C36.6489 82.9285 35.6811 84.2658 35.6575 85.0001H31.2789Z" fill="#769914"/>
<path d="M34.5481 84.9869C34.5481 84.9869 34.4537 83.4267 33.7219 82.7056C33.7219 82.7056 34.7605 83.6627 34.8313 83.8593C34.8313 83.8593 34.6779 82.3647 34.3828 81.9582C34.3828 81.9582 35.032 82.6138 35.1736 82.9547C35.1736 82.9547 34.9612 81.8796 34.7605 81.5256C34.7605 81.5256 35.3624 82.4302 35.445 83.0727C35.445 83.0727 35.5513 81.342 35.3506 80.6733C35.3506 80.6733 35.8935 82.5482 35.8935 83.3873C35.8935 83.3873 35.9171 81.7878 36.342 81.1716C36.342 81.1716 36.2476 82.7318 36.3184 83.3087C36.3184 83.3087 36.5308 82.4696 36.519 81.9582C36.519 81.9582 36.7787 83.0202 36.7079 83.5316C36.7079 83.5316 37.0737 82.5876 36.9085 81.2896C36.9085 81.2896 37.2272 82.2991 37.2036 83.1382C37.2036 83.1382 37.4632 82.404 37.8055 81.9845C37.8055 81.9845 37.3452 83.3611 37.3334 83.7938C37.3334 83.7938 37.5222 83.2562 37.8645 83.0071C37.8645 83.0071 37.416 83.938 37.3216 84.3313C37.3216 84.3313 37.6993 83.7676 38.313 83.5447C38.313 83.5447 37.6284 84.4756 37.6166 84.9869H34.5481Z" fill="#769914"/>
<path d="M62.8958 66.3354L62.0932 104.633H65.9289L63.5331 65.4438L62.8958 66.3354Z" fill="#331C10"/>
<path d="M68.006 65.9814L63.533 72.891L63.6983 74.4906L68.006 65.9814Z" fill="#331C10"/>
<path d="M58.9066 66.1519L63.3796 74.8445L63.0609 76.9685L58.9066 65.7979V66.1519Z" fill="#331C10"/>
<path d="M55.5548 75.0283L63.533 85.6615V87.615L58.104 80.5219L51.4004 76.2608L57.9506 79.6303L55.5548 75.0283Z" fill="#331C10"/>
<path d="M71.5113 76.4443L64.0169 83.7079V85.845L71.5113 76.4443Z" fill="#331C10"/>
<path d="M66.8848 81.7542L67.2389 81.5707L75.3942 77.2178L67.6756 80.5742L66.8848 81.7542Z" fill="#331C10"/>
<path d="M64.1703 91.1549L68.4781 87.4313L71.4051 84.1011L69.1273 87.7853L76.0551 84.1404L69.4459 88.3229L64.1703 93.4624L63.8517 90.9844" fill="#331C10"/>
<path d="M51.7308 84.7307L57.6319 90.2767L63.3796 93.6462L63.533 92.0467L58.104 89.5687L56.5107 83.354L57.3133 88.8476L51.7308 84.7307Z" fill="#331C10"/>
<path d="M58.9066 66.1519L59.3786 67.0827L58.9066 65.7979V66.1519Z" fill="#331C10"/>
<path d="M76.0551 84.1403L69.1273 87.7852L71.4051 84.101L68.4781 87.4312L65.0555 90.3943L64.7251 84.9401L67.5576 81.4001L75.3942 77.2176L68.5017 80.2201L71.5113 76.4441L64.6188 83.1308L64.0405 73.7956L68.0061 65.9814L63.9461 72.2485L63.533 65.4438L62.8957 66.3354L62.7423 73.6121L59.3787 67.0827C62.6833 76.1163 62.9547 74.2939 62.518 84.3108L55.5548 75.0281L57.9506 79.6301L51.4004 76.2605L58.104 80.5217L62.4826 86.2381L62.3764 91.5088L58.104 89.5683L56.5107 83.3537L57.3133 88.8472L51.7309 84.7303L57.6319 90.2763L62.341 93.0297L62.0932 104.633H65.9289L65.1853 92.479L69.4459 88.3228L76.0551 84.1403Z" fill="#331C10"/>
<g style="mix-blend-mode:multiply">
<path d="M58.9066 66.1519L59.3787 67.0827L58.9066 65.7979V66.1519Z" fill="#331C10"/>
<path d="M65.1853 92.4788L69.4459 88.3226L76.0551 84.1401L68.7968 88.3226L64.6542 92.0462L63.6392 104.633H65.9288L65.1853 92.4788Z" fill="#331C10"/>
<path d="M64.0169 83.7077L64.2057 90.7746L65.0319 89.9355L64.725 84.9401L67.5575 81.4001L75.3942 77.2177L68.5017 80.2201L71.5113 76.4441L64.6188 83.1308L64.0405 73.7957L68.006 65.9814L63.6746 73.5859L64.0169 83.7077Z" fill="#331C10"/>
</g>
<mask id="mask10_12_25627" style="mask-type:luminance" maskUnits="userSpaceOnUse" x="50" y="57" width="27" height="13">
<path d="M73.4375 61.6244C73.022 61.6244 72.6266 61.7123 72.2596 61.867C71.3024 59.5817 68.4947 58.4646 66.414 59.646C64.0335 55.2236 57.3133 56.6317 56.5745 61.7411C55.0886 61.2848 53.4434 62.1725 52.8049 63.6462C48.9586 64.2427 50.8847 70.6921 54.2896 68.6022C55.6374 69.4033 57.5081 68.8932 58.3791 67.5572C60.1966 69.3993 63.4257 69.4478 65.2881 67.6542C66.7503 69.3023 69.5073 69.4269 71.0865 67.902C75.9171 72.3611 79.7044 62.3023 73.4375 61.6244Z" fill="white"/>
</mask>
<g mask="url(#mask10_12_25627)">
<path d="M73.4349 61.6282C73.0219 61.6282 72.6206 61.7068 72.2547 61.8642C71.2987 59.5828 68.4898 58.4684 66.4126 59.6484C64.0286 55.2299 57.3132 56.6328 56.5696 61.7462C55.0825 61.2873 53.442 62.1788 52.8047 63.6473C48.9572 64.2373 50.881 70.688 54.2918 68.6033C55.6372 69.4031 57.5138 68.8917 58.3754 67.5544C60.1929 69.4031 63.4267 69.4424 65.2914 67.6593C66.7549 69.2982 69.5048 69.4293 71.0863 67.8953C75.9134 72.3662 79.7019 62.2968 73.4349 61.6282Z" fill="#769914"/>
<g style="mix-blend-mode:multiply">
<path d="M75.5241 62.4409C76.5626 65.876 72.4791 68.708 70.1541 66.2431C68.667 67.882 65.9053 67.9607 64.3474 66.4136C62.6007 68.3409 59.3669 68.5245 57.4549 66.8069C56.6524 68.2098 54.823 68.8523 53.4304 68.1443C52.9819 68.4983 52.38 68.6818 51.8135 68.6032C52.5216 69.1145 53.572 69.1145 54.2919 68.6032C55.6374 69.4029 57.5139 68.8916 58.3755 67.5543C60.193 69.4029 63.4268 69.4423 65.2916 67.6591C66.755 69.298 69.5049 69.4292 71.0864 67.8951C74.3438 71.4614 79.0411 65.6663 75.5241 62.4409Z" fill="#A3C02D"/>
</g>
<g style="mix-blend-mode:multiply">
<path d="M68.313 58.2719L66.4128 59.6485C66.4128 59.6485 64.3002 60.291 63.6983 62.297C64.0052 59.8059 65.7637 57.9441 68.313 58.2719Z" fill="#A3C02D"/>
</g>
<g style="mix-blend-mode:multiply">
<path d="M75.5477 59.845L73.6476 61.2086C73.6476 61.2086 71.5232 61.851 70.9213 63.857C71.2399 61.3659 72.9984 59.5041 75.5477 59.845Z" fill="#A3C02D"/>
</g>
</g>
<mask id="mask11_12_25627" style="mask-type:luminance" maskUnits="userSpaceOnUse" x="66" y="70" width="14" height="9">
<path d="M76.5037 72.3809C76.3101 72.3809 76.1221 72.4019 75.9395 72.4439C74.4347 68.6521 68.8736 69.7469 68.6871 73.9385C64.3321 74.0933 67.0926 81.0985 70.1458 77.6687C71.3626 78.7949 73.4044 78.8618 74.6802 77.8103C78.7827 81.1746 81.5963 72.8372 76.5037 72.3809Z" fill="white"/>
</mask>
<g mask="url(#mask11_12_25627)">
<path d="M76.3267 74.3199C76.2441 79.9053 68.7615 79.9053 68.6671 74.3199C68.7615 68.7215 76.2441 68.7215 76.3267 74.3199Z" fill="#769914"/>
<path d="M79.2889 75.4736C79.2771 79.5249 73.7301 79.5249 73.7183 75.4736C73.7301 71.4222 79.2771 71.4222 79.2889 75.4736Z" fill="#769914"/>
<path d="M70.5908 76.247C70.6262 79.2626 66.3656 79.2626 66.4128 76.247C66.3656 73.2315 70.6262 73.2315 70.5908 76.247Z" fill="#769914"/>
<g style="mix-blend-mode:multiply">
<path d="M77.8963 71.029L76.244 72.209C76.244 72.209 74.4146 72.7728 73.8953 74.5035C74.1314 72.3795 75.7247 70.7144 77.8963 71.029Z" fill="#A3C02D"/>
</g>
<g style="mix-blend-mode:multiply">
<path d="M78.5455 73.376C79.1592 75.9982 76.2677 78.1615 74.3085 76.6275C73.1755 77.86 71.1455 78.1091 69.8001 77.1782C69.387 78.0435 68.3484 78.5418 67.475 78.2664C68.3248 78.8433 69.5758 78.5418 70.1423 77.6633C71.3579 78.7909 73.3997 78.8564 74.6862 77.8075C77.2118 80.3642 80.9295 76.1031 78.5455 73.376Z" fill="#A3C02D"/>
</g>
</g>
<mask id="mask12_12_25627" style="mask-type:luminance" maskUnits="userSpaceOnUse" x="66" y="80" width="15" height="8">
<path d="M78.779 82.5498C78.6209 82.5498 78.4679 82.5673 78.32 82.6023C77.4312 80.3065 74.2104 80.0207 73.0054 82.1368C71.6069 80.7169 69.0883 81.5363 68.5914 83.5463C64.8537 83.7036 67.0087 89.8331 69.8531 87.1492C70.9318 87.8887 72.5263 87.5701 73.3087 86.5002C74.2624 87.6868 76.1413 87.907 77.3038 86.9434C80.6225 89.6679 82.9015 82.9196 78.779 82.5498Z" fill="white"/>
</mask>
<g mask="url(#mask12_12_25627)">
<path d="M78.6399 84.1141C78.6163 88.6112 72.4556 88.6112 72.4438 84.1141C72.4556 79.6169 78.6163 79.6169 78.6399 84.1141Z" fill="#769914"/>
<path d="M81.0358 85.0578C81.0712 88.2963 76.4801 88.2963 76.5273 85.0578C76.4801 81.8063 81.0712 81.8063 81.0358 85.0578Z" fill="#769914"/>
<path d="M73.9899 84.4812C73.9781 88.5063 68.4783 88.5063 68.4547 84.4812C68.4783 80.4692 73.9781 80.4692 73.9899 84.4812Z" fill="#769914"/>
<path d="M70.402 85.6612C70.4374 88.4276 66.5309 88.4276 66.5663 85.6612C66.5309 82.9079 70.4374 82.9079 70.402 85.6612Z" fill="#769914"/>
<g style="mix-blend-mode:multiply">
<path d="M82.3104 80.7051L80.2922 82.1604C80.2922 82.1604 78.0498 82.8291 77.4125 84.9531C77.7429 82.3309 79.6077 80.3511 82.3104 80.7051Z" fill="#A3C02D"/>
</g>
<g style="mix-blend-mode:multiply">
<path d="M75.2409 78.7646L74.0252 81.0591C74.0252 81.0591 72.3021 82.7898 72.5972 85.0055C71.8182 82.4882 72.6798 79.7873 75.2409 78.7646Z" fill="#A3C02D"/>
</g>
<g style="mix-blend-mode:multiply">
<path d="M80.7997 83.9565C80.5164 85.6348 78.51 86.4739 77.2944 85.4119C76.2086 86.487 74.3203 86.4477 73.2699 85.3594C72.5853 86.5001 71.0156 86.9721 69.8826 86.3428C68.9975 87.6539 66.9321 87.195 66.5662 85.6085C66.46 87.4965 68.726 88.5323 69.8472 87.1557C70.933 87.8899 72.5263 87.5752 73.3053 86.5001C74.2612 87.6932 76.1378 87.903 77.3062 86.9459C79.0411 88.7421 81.9209 86.3165 80.7997 83.9565Z" fill="#A3C02D"/>
</g>
</g>
<mask id="mask13_12_25627" style="mask-type:luminance" maskUnits="userSpaceOnUse" x="48" y="80" width="14" height="7">
<path d="M59.0424 82.0187C58.9015 82.0187 58.765 82.034 58.6328 82.0646C57.8385 80.0153 54.9624 79.7597 53.886 81.649C52.6373 80.3812 50.3878 81.1141 49.9441 82.9077C46.6052 83.0493 48.5314 88.5219 51.07 86.1265C52.0342 86.7873 53.4588 86.5027 54.1563 85.5469C55.0096 86.6063 56.6867 86.803 57.7241 85.9416C60.6888 88.375 62.7246 82.3478 59.0424 82.0187Z" fill="white"/>
</mask>
<g mask="url(#mask13_12_25627)">
<path d="M58.9183 83.4192C58.8947 87.4312 53.3949 87.4312 53.3831 83.4192C53.3949 79.3941 58.9065 79.3941 58.9183 83.4192Z" fill="#769914"/>
<path d="M61.0546 84.2582C61.09 87.1558 56.9946 87.1558 57.03 84.2582C56.9946 81.3475 61.09 81.3475 61.0546 84.2582Z" fill="#769914"/>
<path d="M54.764 83.7471C54.7522 87.3395 49.8425 87.3395 49.8307 83.7471C49.8425 80.1546 54.7522 80.1546 54.764 83.7471Z" fill="#769914"/>
<path d="M51.5538 84.7959C51.5892 87.2608 48.1076 87.2608 48.1312 84.7959C48.1076 82.3441 51.5892 82.331 51.5538 84.7959Z" fill="#769914"/>
<g style="mix-blend-mode:multiply">
<path d="M61.3613 80.3379L59.7562 81.4917C59.7562 81.4917 57.9741 82.0292 57.4666 83.7206C57.7027 81.6621 59.2487 80.0363 61.3613 80.3379Z" fill="#A3C02D"/>
</g>
<g style="mix-blend-mode:multiply">
<path d="M55.6373 78.8301L54.6224 80.6263C54.6224 80.6263 53.2179 81.9505 53.3949 83.7205C52.8284 81.7407 53.6074 79.5512 55.6373 78.8301Z" fill="#A3C02D"/>
</g>
<g style="mix-blend-mode:multiply">
<path d="M60.7476 83.0781C60.8303 84.8744 58.8003 86.015 57.5493 84.9137C56.5697 85.8577 54.8938 85.8052 53.9614 84.8219C53.3359 85.8446 51.9314 86.251 50.9282 85.6741C50.3381 86.5264 49.0163 86.5788 48.379 85.779C48.8865 86.8148 50.3617 87.0115 51.0699 86.133C52.0376 86.7886 53.4539 86.5001 54.162 85.543C55.0118 86.605 56.6877 86.8017 57.7263 85.9364C59.3668 87.6277 61.9869 85.1628 60.7476 83.0781Z" fill="#A3C02D"/>
</g>
</g>
<mask id="mask14_12_25627" style="mask-type:luminance" maskUnits="userSpaceOnUse" x="45" y="70" width="17" height="10">
<path d="M59.2182 73.1886C59.0891 73.1903 58.9629 73.2021 58.8393 73.224C57.9105 69.1189 52.3009 69.3929 51.7096 73.5858C50.4208 72.6759 48.5242 73.4219 48.0167 74.9809C46.7515 74.088 44.9588 75.2024 45.0013 76.8833C44.9328 79.0165 47.6379 79.9054 48.6422 78.1367C49.8319 79.4937 52.1499 78.9575 52.7612 77.2111C53.8399 78.4553 55.8416 78.7346 57.1752 77.7932C60.7489 81.935 64.3639 73.8349 59.2182 73.1886Z" fill="white"/>
</mask>
<g mask="url(#mask14_12_25627)">
<path d="M58.9656 74.294C58.942 79.6172 51.6719 79.6172 51.6483 74.294C51.6719 68.984 58.9538 68.984 58.9656 74.294Z" fill="#769914"/>
<path d="M52.9819 76.051C52.9701 79.8008 47.8479 79.8008 47.8243 76.051C47.8479 72.3144 52.9701 72.3144 52.9819 76.051Z" fill="#769914"/>
<path d="M61.7981 76.051C61.7863 79.8008 56.6524 79.8008 56.6406 76.051C56.6524 72.3144 61.7863 72.3144 61.7981 76.051Z" fill="#769914"/>
<path d="M48.9927 76.8899C49.0281 79.7612 44.9682 79.7612 45.0036 76.8899C44.9682 74.0054 49.0281 74.0054 48.9927 76.8899Z" fill="#769914"/>
<g style="mix-blend-mode:multiply">
<path d="M61.1254 71.7114L59.5557 72.839C59.5557 72.839 57.8089 73.3766 57.3015 75.0417C57.5375 73.0094 59.06 71.4099 61.1254 71.7114Z" fill="#A3C02D"/>
</g>
<g style="mix-blend-mode:multiply">
<path d="M50.3854 71.8423L49.2406 73.4943C49.2406 73.4943 47.8243 74.1105 47.7653 76.3787C47.3876 74.3858 48.3436 72.3143 50.3854 71.8423Z" fill="#A3C02D"/>
</g>
<g style="mix-blend-mode:multiply">
<path d="M61.09 74.0845C61.3024 76.5756 58.3165 78.0965 56.7468 76.3265C55.5784 77.4934 53.5602 77.5851 52.3092 76.5494C52.0259 77.9523 50.6214 78.9749 49.3114 78.6472C50.5742 79.3552 52.2501 78.6209 52.7576 77.2049C53.8434 78.4505 55.838 78.7389 57.1717 77.7949C59.3551 80.9023 63.5094 76.9689 61.09 74.0845Z" fill="#A3C02D"/>
</g>
</g>
<path d="M61.2789 105C61.2789 105 61.1372 102.758 60.0869 101.735C60.0869 101.735 61.5739 103.099 61.6801 103.374C61.6801 103.374 61.4559 101.237 61.031 100.673C61.031 100.673 61.9752 101.591 62.164 102.089C62.164 102.089 61.869 100.542 61.5857 100.031C61.5857 100.031 62.4355 101.342 62.5653 102.247C62.5653 102.247 62.7069 99.7818 62.4237 98.8247C62.4237 98.8247 63.1908 101.512 63.1908 102.706C63.1908 102.706 63.2262 100.411 63.8281 99.5458C63.8281 99.5458 63.7101 101.775 63.8045 102.588C63.8045 102.588 64.0996 101.394 64.0878 100.66C64.0878 100.66 64.4655 102.168 64.3474 102.902C64.3474 102.902 64.8785 101.552 64.6543 99.7032C64.6543 99.7032 65.1028 101.145 65.0674 102.352C65.0674 102.352 65.4332 101.29 65.9171 100.686C65.9171 100.686 65.268 102.653 65.2562 103.282C65.2562 103.282 65.5159 102.509 66.0115 102.168C66.0115 102.168 65.3742 103.479 65.2326 104.056C65.2326 104.056 65.7755 103.243 66.6489 102.928C66.6489 102.928 65.6811 104.266 65.6575 105H61.2789Z" fill="#769914"/>
<path d="M64.5481 104.987C64.5481 104.987 64.4537 103.427 63.7219 102.706C63.7219 102.706 64.7605 103.663 64.8313 103.859C64.8313 103.859 64.6779 102.365 64.3828 101.958C64.3828 101.958 65.032 102.614 65.1736 102.955C65.1736 102.955 64.9612 101.88 64.7605 101.526C64.7605 101.526 65.3624 102.43 65.445 103.073C65.445 103.073 65.5513 101.342 65.3506 100.673C65.3506 100.673 65.8935 102.548 65.8935 103.387C65.8935 103.387 65.9171 101.788 66.342 101.172C66.342 101.172 66.2476 102.732 66.3184 103.309C66.3184 103.309 66.5308 102.47 66.519 101.958C66.519 101.958 66.7787 103.02 66.7079 103.532C66.7079 103.532 67.0737 102.588 66.9085 101.29C66.9085 101.29 67.2272 102.299 67.2036 103.138C67.2036 103.138 67.4632 102.404 67.8055 101.984C67.8055 101.984 67.3452 103.361 67.3334 103.794C67.3334 103.794 67.5222 103.256 67.8645 103.007C67.8645 103.007 67.416 103.938 67.3216 104.331C67.3216 104.331 67.6993 103.768 68.313 103.545C68.313 103.545 67.6284 104.476 67.6166 104.987H64.5481Z" fill="#769914"/>
<path d="M91.8958 92.3354L91.0932 130.633H94.9289L92.5331 91.4438L91.8958 92.3354Z" fill="#331C10"/>
<path d="M97.006 91.9814L92.533 98.891L92.6983 100.491L97.006 91.9814Z" fill="#331C10"/>
<path d="M87.9066 92.1519L92.3796 100.845L92.0609 102.969L87.9066 91.7979V92.1519Z" fill="#331C10"/>
<path d="M84.5548 101.028L92.533 111.661V113.615L87.104 106.522L80.4004 102.261L86.9506 105.63L84.5548 101.028Z" fill="#331C10"/>
<path d="M100.511 102.444L93.0169 109.708V111.845L100.511 102.444Z" fill="#331C10"/>
<path d="M95.8848 107.754L96.2389 107.571L104.394 103.218L96.6756 106.574L95.8848 107.754Z" fill="#331C10"/>
<path d="M93.1703 117.155L97.4781 113.431L100.405 110.101L98.1273 113.785L105.055 110.14L98.4459 114.323L93.1703 119.462L92.8517 116.984" fill="#331C10"/>
<path d="M80.7308 110.731L86.6319 116.277L92.3796 119.646L92.533 118.047L87.104 115.569L85.5107 109.354L86.3133 114.848L80.7308 110.731Z" fill="#331C10"/>
<path d="M87.9066 92.1519L88.3786 93.0827L87.9066 91.7979V92.1519Z" fill="#331C10"/>
<path d="M105.055 110.14L98.1273 113.785L100.405 110.101L97.4781 113.431L94.0555 116.394L93.7251 110.94L96.5576 107.4L104.394 103.218L97.5017 106.22L100.511 102.444L93.6188 109.131L93.0405 99.7956L97.0061 91.9814L92.9461 98.2485L92.533 91.4438L91.8957 92.3354L91.7423 99.6121L88.3787 93.0827C91.6833 102.116 91.9547 100.294 91.518 110.311L84.5548 101.028L86.9506 105.63L80.4004 102.261L87.104 106.522L91.4826 112.238L91.3764 117.509L87.104 115.568L85.5107 109.354L86.3133 114.847L80.7309 110.73L86.6319 116.276L91.341 119.03L91.0932 130.633H94.9289L94.1853 118.479L98.4459 114.323L105.055 110.14Z" fill="#331C10"/>
<g style="mix-blend-mode:multiply">
<path d="M87.9066 92.1519L88.3787 93.0827L87.9066 91.7979V92.1519Z" fill="#331C10"/>
<path d="M94.1853 118.479L98.4459 114.323L105.055 110.14L97.7968 114.323L93.6542 118.046L92.6392 130.633H94.9288L94.1853 118.479Z" fill="#331C10"/>
<path d="M93.0169 109.708L93.2057 116.775L94.0319 115.935L93.725 110.94L96.5575 107.4L104.394 103.218L97.5017 106.22L100.511 102.444L93.6188 109.131L93.0405 99.7957L97.006 91.9814L92.6746 99.5859L93.0169 109.708Z" fill="#331C10"/>
</g>
<mask id="mask15_12_25627" style="mask-type:luminance" maskUnits="userSpaceOnUse" x="79" y="83" width="27" height="13">
<path d="M102.437 87.6244C102.022 87.6244 101.627 87.7123 101.26 87.867C100.302 85.5817 97.4947 84.4646 95.414 85.646C93.0335 81.2236 86.3133 82.6317 85.5745 87.7411C84.0886 87.2848 82.4434 88.1725 81.8049 89.6462C77.9586 90.2427 79.8847 96.6921 83.2896 94.6022C84.6374 95.4033 86.5081 94.8932 87.3791 93.5572C89.1966 95.3993 92.4257 95.4478 94.2881 93.6542C95.7503 95.3023 98.5073 95.4269 100.086 93.902C104.917 98.3611 108.704 88.3023 102.437 87.6244Z" fill="white"/>
</mask>
<g mask="url(#mask15_12_25627)">
<path d="M102.435 87.6282C102.022 87.6282 101.621 87.7068 101.255 87.8642C100.299 85.5828 97.4898 84.4684 95.4126 85.6484C93.0286 81.2299 86.3132 82.6328 85.5696 87.7462C84.0825 87.2873 82.442 88.1788 81.8047 89.6473C77.9572 90.2373 79.881 96.688 83.2918 94.6033C84.6372 95.4031 86.5138 94.8917 87.3754 93.5544C89.1929 95.4031 92.4267 95.4424 94.2914 93.6593C95.7549 95.2982 98.5048 95.4293 100.086 93.8953C104.913 98.3662 108.702 88.2968 102.435 87.6282Z" fill="#769914"/>
<g style="mix-blend-mode:multiply">
<path d="M104.524 88.4409C105.563 91.876 101.479 94.708 99.1541 92.2431C97.667 93.882 94.9053 93.9607 93.3474 92.4136C91.6007 94.3409 88.3669 94.5245 86.4549 92.8069C85.6524 94.2098 83.823 94.8523 82.4304 94.1443C81.9819 94.4983 81.38 94.6818 80.8135 94.6032C81.5216 95.1145 82.572 95.1145 83.2919 94.6032C84.6374 95.4029 86.5139 94.8916 87.3755 93.5543C89.193 95.4029 92.4268 95.4423 94.2916 93.6591C95.755 95.298 98.5049 95.4292 100.086 93.8951C103.344 97.4614 108.041 91.6663 104.524 88.4409Z" fill="#A3C02D"/>
</g>
<g style="mix-blend-mode:multiply">
<path d="M97.313 84.2719L95.4128 85.6485C95.4128 85.6485 93.3002 86.291 92.6983 88.297C93.0052 85.8059 94.7637 83.9441 97.313 84.2719Z" fill="#A3C02D"/>
</g>
<g style="mix-blend-mode:multiply">
<path d="M104.548 85.845L102.648 87.2086C102.648 87.2086 100.523 87.851 99.9213 89.857C100.24 87.3659 101.998 85.5041 104.548 85.845Z" fill="#A3C02D"/>
</g>
</g>
<mask id="mask16_12_25627" style="mask-type:luminance" maskUnits="userSpaceOnUse" x="95" y="96" width="14" height="9">
<path d="M105.504 98.3809C105.31 98.3809 105.122 98.4019 104.94 98.4439C103.435 94.6521 97.8736 95.7469 97.6871 99.9385C93.3321 100.093 96.0926 107.099 99.1458 103.669C100.363 104.795 102.404 104.862 103.68 103.81C107.783 107.175 110.596 98.8372 105.504 98.3809Z" fill="white"/>
</mask>
<g mask="url(#mask16_12_25627)">
<path d="M105.327 100.32C105.244 105.905 97.7615 105.905 97.6671 100.32C97.7615 94.7215 105.244 94.7215 105.327 100.32Z" fill="#769914"/>
<path d="M108.289 101.474C108.277 105.525 102.73 105.525 102.718 101.474C102.73 97.4222 108.277 97.4222 108.289 101.474Z" fill="#769914"/>
<path d="M99.5908 102.247C99.6262 105.263 95.3656 105.263 95.4128 102.247C95.3656 99.2315 99.6262 99.2315 99.5908 102.247Z" fill="#769914"/>
<g style="mix-blend-mode:multiply">
<path d="M106.896 97.029L105.244 98.209C105.244 98.209 103.415 98.7728 102.895 100.503C103.131 98.3795 104.725 96.7144 106.896 97.029Z" fill="#A3C02D"/>
</g>
<g style="mix-blend-mode:multiply">
<path d="M107.545 99.376C108.159 101.998 105.268 104.162 103.308 102.628C102.175 103.86 100.146 104.109 98.8001 103.178C98.387 104.044 97.3484 104.542 96.475 104.266C97.3248 104.843 98.5758 104.542 99.1423 103.663C100.358 104.791 102.4 104.856 103.686 103.808C106.212 106.364 109.93 102.103 107.545 99.376Z" fill="#A3C02D"/>
</g>
</g>
<mask id="mask17_12_25627" style="mask-type:luminance" maskUnits="userSpaceOnUse" x="95" y="106" width="15" height="8">
<path d="M107.779 108.55C107.621 108.55 107.468 108.567 107.32 108.602C106.431 106.307 103.21 106.021 102.005 108.137C100.607 106.717 98.0883 107.536 97.5914 109.546C93.8537 109.704 96.0087 115.833 98.8531 113.149C99.9318 113.889 101.526 113.57 102.309 112.5C103.262 113.687 105.141 113.907 106.304 112.943C109.623 115.668 111.902 108.92 107.779 108.55Z" fill="white"/>
</mask>
<g mask="url(#mask17_12_25627)">
<path d="M107.64 110.114C107.616 114.611 101.456 114.611 101.444 110.114C101.456 105.617 107.616 105.617 107.64 110.114Z" fill="#769914"/>
<path d="M110.036 111.058C110.071 114.296 105.48 114.296 105.527 111.058C105.48 107.806 110.071 107.806 110.036 111.058Z" fill="#769914"/>
<path d="M102.99 110.481C102.978 114.506 97.4783 114.506 97.4547 110.481C97.4783 106.469 102.978 106.469 102.99 110.481Z" fill="#769914"/>
<path d="M99.402 111.661C99.4374 114.428 95.5309 114.428 95.5663 111.661C95.5309 108.908 99.4374 108.908 99.402 111.661Z" fill="#769914"/>
<g style="mix-blend-mode:multiply">
<path d="M111.31 106.705L109.292 108.16C109.292 108.16 107.05 108.829 106.412 110.953C106.743 108.331 108.608 106.351 111.31 106.705Z" fill="#A3C02D"/>
</g>
<g style="mix-blend-mode:multiply">
<path d="M104.241 104.765L103.025 107.059C103.025 107.059 101.302 108.79 101.597 111.006C100.818 108.488 101.68 105.787 104.241 104.765Z" fill="#A3C02D"/>
</g>
<g style="mix-blend-mode:multiply">
<path d="M109.8 109.957C109.516 111.635 107.51 112.474 106.294 111.412C105.209 112.487 103.32 112.448 102.27 111.359C101.585 112.5 100.016 112.972 98.8826 112.343C97.9975 113.654 95.9321 113.195 95.5662 111.609C95.46 113.497 97.726 114.532 98.8472 113.156C99.933 113.89 101.526 113.575 102.305 112.5C103.261 113.693 105.138 113.903 106.306 112.946C108.041 114.742 110.921 112.317 109.8 109.957Z" fill="#A3C02D"/>
</g>
</g>
<mask id="mask18_12_25627" style="mask-type:luminance" maskUnits="userSpaceOnUse" x="77" y="106" width="14" height="7">
<path d="M88.0424 108.019C87.9015 108.019 87.765 108.034 87.6328 108.065C86.8385 106.015 83.9624 105.76 82.886 107.649C81.6373 106.381 79.3878 107.114 78.9441 108.908C75.6052 109.049 77.5314 114.522 80.07 112.126C81.0342 112.787 82.4588 112.503 83.1563 111.547C84.0096 112.606 85.6867 112.803 86.7241 111.942C89.6888 114.375 91.7246 108.348 88.0424 108.019Z" fill="white"/>
</mask>
<g mask="url(#mask18_12_25627)">
<path d="M87.9183 109.419C87.8947 113.431 82.3949 113.431 82.3831 109.419C82.3949 105.394 87.9065 105.394 87.9183 109.419Z" fill="#769914"/>
<path d="M90.0546 110.258C90.09 113.156 85.9946 113.156 86.03 110.258C85.9946 107.348 90.09 107.348 90.0546 110.258Z" fill="#769914"/>
<path d="M83.764 109.747C83.7522 113.34 78.8425 113.34 78.8307 109.747C78.8425 106.155 83.7522 106.155 83.764 109.747Z" fill="#769914"/>
<path d="M80.5538 110.796C80.5892 113.261 77.1076 113.261 77.1312 110.796C77.1076 108.344 80.5892 108.331 80.5538 110.796Z" fill="#769914"/>
<g style="mix-blend-mode:multiply">
<path d="M90.3613 106.338L88.7562 107.492C88.7562 107.492 86.9741 108.029 86.4666 109.721C86.7027 107.662 88.2487 106.036 90.3613 106.338Z" fill="#A3C02D"/>
</g>
<g style="mix-blend-mode:multiply">
<path d="M84.6373 104.83L83.6224 106.626C83.6224 106.626 82.2179 107.951 82.3949 109.721C81.8284 107.741 82.6074 105.551 84.6373 104.83Z" fill="#A3C02D"/>
</g>
<g style="mix-blend-mode:multiply">
<path d="M89.7476 109.078C89.8303 110.874 87.8003 112.015 86.5493 110.914C85.5697 111.858 83.8938 111.805 82.9614 110.822C82.3359 111.845 80.9314 112.251 79.9282 111.674C79.3381 112.526 78.0163 112.579 77.379 111.779C77.8865 112.815 79.3617 113.011 80.0699 112.133C81.0376 112.789 82.4539 112.5 83.162 111.543C84.0118 112.605 85.6877 112.802 86.7263 111.936C88.3668 113.628 90.9869 111.163 89.7476 109.078Z" fill="#A3C02D"/>
</g>
</g>
<mask id="mask19_12_25627" style="mask-type:luminance" maskUnits="userSpaceOnUse" x="74" y="96" width="17" height="10">
<path d="M88.2182 99.1886C88.0891 99.1903 87.9629 99.2021 87.8393 99.224C86.9105 95.1189 81.3009 95.3929 80.7096 99.5858C79.4208 98.6759 77.5242 99.4219 77.0167 100.981C75.7515 100.088 73.9588 101.202 74.0013 102.883C73.9328 105.016 76.6379 105.905 77.6422 104.137C78.8319 105.494 81.1499 104.957 81.7612 103.211C82.8399 104.455 84.8416 104.735 86.1752 103.793C89.7489 107.935 93.3639 99.8349 88.2182 99.1886Z" fill="white"/>
</mask>
<g mask="url(#mask19_12_25627)">
<path d="M87.9656 100.294C87.942 105.617 80.6719 105.617 80.6483 100.294C80.6719 94.984 87.9538 94.984 87.9656 100.294Z" fill="#769914"/>
<path d="M81.9819 102.051C81.9701 105.801 76.8479 105.801 76.8243 102.051C76.8479 98.3144 81.9701 98.3144 81.9819 102.051Z" fill="#769914"/>
<path d="M90.7981 102.051C90.7863 105.801 85.6524 105.801 85.6406 102.051C85.6524 98.3144 90.7863 98.3144 90.7981 102.051Z" fill="#769914"/>
<path d="M77.9927 102.89C78.0281 105.761 73.9682 105.761 74.0036 102.89C73.9682 100.005 78.0281 100.005 77.9927 102.89Z" fill="#769914"/>
<g style="mix-blend-mode:multiply">
<path d="M90.1254 97.7114L88.5557 98.839C88.5557 98.839 86.8089 99.3766 86.3015 101.042C86.5375 99.0094 88.06 97.4099 90.1254 97.7114Z" fill="#A3C02D"/>
</g>
<g style="mix-blend-mode:multiply">
<path d="M79.3854 97.8423L78.2406 99.4943C78.2406 99.4943 76.8243 100.111 76.7653 102.379C76.3876 100.386 77.3436 98.3143 79.3854 97.8423Z" fill="#A3C02D"/>
</g>
<g style="mix-blend-mode:multiply">
<path d="M90.09 100.084C90.3024 102.576 87.3165 104.096 85.7468 102.326C84.5784 103.493 82.5602 103.585 81.3092 102.549C81.0259 103.952 79.6214 104.975 78.3114 104.647C79.5742 105.355 81.2501 104.621 81.7576 103.205C82.8434 104.45 84.838 104.739 86.1717 103.795C88.3551 106.902 92.5094 102.969 90.09 100.084Z" fill="#A3C02D"/>
</g>
</g>
<path d="M90.2789 131C90.2789 131 90.1372 128.758 89.0869 127.735C89.0869 127.735 90.5739 129.099 90.6801 129.374C90.6801 129.374 90.4559 127.237 90.031 126.673C90.031 126.673 90.9752 127.591 91.164 128.089C91.164 128.089 90.869 126.542 90.5857 126.031C90.5857 126.031 91.4355 127.342 91.5653 128.247C91.5653 128.247 91.7069 125.782 91.4237 124.825C91.4237 124.825 92.1908 127.512 92.1908 128.706C92.1908 128.706 92.2262 126.411 92.8281 125.546C92.8281 125.546 92.7101 127.775 92.8045 128.588C92.8045 128.588 93.0996 127.394 93.0878 126.66C93.0878 126.66 93.4655 128.168 93.3474 128.902C93.3474 128.902 93.8785 127.552 93.6543 125.703C93.6543 125.703 94.1028 127.145 94.0674 128.352C94.0674 128.352 94.4332 127.29 94.9171 126.686C94.9171 126.686 94.268 128.653 94.2562 129.282C94.2562 129.282 94.5159 128.509 95.0115 128.168C95.0115 128.168 94.3742 129.479 94.2326 130.056C94.2326 130.056 94.7755 129.243 95.6489 128.928C95.6489 128.928 94.6811 130.266 94.6575 131H90.2789Z" fill="#769914"/>
<path d="M93.5481 130.987C93.5481 130.987 93.4537 129.427 92.7219 128.706C92.7219 128.706 93.7605 129.663 93.8313 129.859C93.8313 129.859 93.6779 128.365 93.3828 127.958C93.3828 127.958 94.032 128.614 94.1736 128.955C94.1736 128.955 93.9612 127.88 93.7605 127.526C93.7605 127.526 94.3624 128.43 94.445 129.073C94.445 129.073 94.5513 127.342 94.3506 126.673C94.3506 126.673 94.8935 128.548 94.8935 129.387C94.8935 129.387 94.9171 127.788 95.342 127.172C95.342 127.172 95.2476 128.732 95.3184 129.309C95.3184 129.309 95.5308 128.47 95.519 127.958C95.519 127.958 95.7787 129.02 95.7079 129.532C95.7079 129.532 96.0737 128.588 95.9085 127.29C95.9085 127.29 96.2272 128.299 96.2036 129.138C96.2036 129.138 96.4632 128.404 96.8055 127.984C96.8055 127.984 96.3452 129.361 96.3334 129.794C96.3334 129.794 96.5222 129.256 96.8645 129.007C96.8645 129.007 96.416 129.938 96.3216 130.331C96.3216 130.331 96.6993 129.768 97.313 129.545C97.313 129.545 96.6284 130.476 96.6166 130.987H93.5481Z" fill="#769914"/>
<path d="M124.896 107.335L124.093 145.633H127.929L125.533 106.444L124.896 107.335Z" fill="#331C10"/>
<path d="M130.006 106.981L125.533 113.891L125.698 115.491L130.006 106.981Z" fill="#331C10"/>
<path d="M120.907 107.152L125.38 115.845L125.061 117.969L120.907 106.798V107.152Z" fill="#331C10"/>
<path d="M117.555 116.028L125.533 126.661V128.615L120.104 121.522L113.4 117.261L119.951 120.63L117.555 116.028Z" fill="#331C10"/>
<path d="M133.511 117.444L126.017 124.708V126.845L133.511 117.444Z" fill="#331C10"/>
<path d="M128.885 122.754L129.239 122.571L137.394 118.218L129.676 121.574L128.885 122.754Z" fill="#331C10"/>
<path d="M126.17 132.155L130.478 128.431L133.405 125.101L131.127 128.785L138.055 125.14L131.446 129.323L126.17 134.462L125.852 131.984" fill="#331C10"/>
<path d="M113.731 125.731L119.632 131.277L125.38 134.646L125.533 133.047L120.104 130.569L118.511 124.354L119.313 129.848L113.731 125.731Z" fill="#331C10"/>
<path d="M120.907 107.152L121.379 108.083L120.907 106.798V107.152Z" fill="#331C10"/>
<path d="M138.055 125.14L131.127 128.785L133.405 125.101L130.478 128.431L127.056 131.394L126.725 125.94L129.558 122.4L137.394 118.218L130.502 121.22L133.511 117.444L126.619 124.131L126.041 114.796L130.006 106.981L125.946 113.249L125.533 106.444L124.896 107.335L124.742 114.612L121.379 108.083C124.683 117.116 124.955 115.294 124.518 125.311L117.555 116.028L119.951 120.63L113.4 117.261L120.104 121.522L124.483 127.238L124.376 132.509L120.104 130.568L118.511 124.354L119.313 129.847L113.731 125.73L119.632 131.276L124.341 134.03L124.093 145.633H127.929L127.185 133.479L131.446 129.323L138.055 125.14Z" fill="#331C10"/>
<g style="mix-blend-mode:multiply">
<path d="M120.907 107.152L121.379 108.083L120.907 106.798V107.152Z" fill="#331C10"/>
<path d="M127.185 133.479L131.446 129.323L138.055 125.14L130.797 129.323L126.654 133.046L125.639 145.633H127.929L127.185 133.479Z" fill="#331C10"/>
<path d="M126.017 124.708L126.206 131.775L127.032 130.935L126.725 125.94L129.558 122.4L137.394 118.218L130.502 121.22L133.511 117.444L126.619 124.131L126.04 114.796L130.006 106.981L125.675 114.586L126.017 124.708Z" fill="#331C10"/>
</g>
<mask id="mask20_12_25627" style="mask-type:luminance" maskUnits="userSpaceOnUse" x="112" y="98" width="27" height="13">
<path d="M135.437 102.624C135.022 102.624 134.627 102.712 134.26 102.867C133.302 100.582 130.495 99.4646 128.414 100.646C126.033 96.2236 119.313 97.6317 118.575 102.741C117.089 102.285 115.443 103.172 114.805 104.646C110.959 105.243 112.885 111.692 116.29 109.602C117.637 110.403 119.508 109.893 120.379 108.557C122.197 110.399 125.426 110.448 127.288 108.654C128.75 110.302 131.507 110.427 133.086 108.902C137.917 113.361 141.704 103.302 135.437 102.624Z" fill="white"/>
</mask>
<g mask="url(#mask20_12_25627)">
<path d="M135.435 102.628C135.022 102.628 134.621 102.707 134.255 102.864C133.299 100.583 130.49 99.4684 128.413 100.648C126.029 96.2299 119.313 97.6328 118.57 102.746C117.083 102.287 115.442 103.179 114.805 104.647C110.957 105.237 112.881 111.688 116.292 109.603C117.637 110.403 119.514 109.892 120.375 108.554C122.193 110.403 125.427 110.442 127.291 108.659C128.755 110.298 131.505 110.429 133.086 108.895C137.913 113.366 141.702 103.297 135.435 102.628Z" fill="#769914"/>
<g style="mix-blend-mode:multiply">
<path d="M137.524 103.441C138.563 106.876 134.479 109.708 132.154 107.243C130.667 108.882 127.905 108.961 126.347 107.414C124.601 109.341 121.367 109.524 119.455 107.807C118.652 109.21 116.823 109.852 115.43 109.144C114.982 109.498 114.38 109.682 113.813 109.603C114.522 110.114 115.572 110.114 116.292 109.603C117.637 110.403 119.514 109.892 120.375 108.554C122.193 110.403 125.427 110.442 127.292 108.659C128.755 110.298 131.505 110.429 133.086 108.895C136.344 112.461 141.041 106.666 137.524 103.441Z" fill="#A3C02D"/>
</g>
<g style="mix-blend-mode:multiply">
<path d="M130.313 99.2719L128.413 100.649C128.413 100.649 126.3 101.291 125.698 103.297C126.005 100.806 127.764 98.9441 130.313 99.2719Z" fill="#A3C02D"/>
</g>
<g style="mix-blend-mode:multiply">
<path d="M137.548 100.845L135.648 102.209C135.648 102.209 133.523 102.851 132.921 104.857C133.24 102.366 134.998 100.504 137.548 100.845Z" fill="#A3C02D"/>
</g>
</g>
<mask id="mask21_12_25627" style="mask-type:luminance" maskUnits="userSpaceOnUse" x="128" y="111" width="14" height="9">
<path d="M138.504 113.381C138.31 113.381 138.122 113.402 137.94 113.444C136.435 109.652 130.874 110.747 130.687 114.939C126.332 115.093 129.093 122.099 132.146 118.669C133.363 119.795 135.404 119.862 136.68 118.81C140.783 122.175 143.596 113.837 138.504 113.381Z" fill="white"/>
</mask>
<g mask="url(#mask21_12_25627)">
<path d="M138.327 115.32C138.244 120.905 130.761 120.905 130.667 115.32C130.761 109.721 138.244 109.721 138.327 115.32Z" fill="#769914"/>
<path d="M141.289 116.474C141.277 120.525 135.73 120.525 135.718 116.474C135.73 112.422 141.277 112.422 141.289 116.474Z" fill="#769914"/>
<path d="M132.591 117.247C132.626 120.263 128.366 120.263 128.413 117.247C128.366 114.231 132.626 114.231 132.591 117.247Z" fill="#769914"/>
<g style="mix-blend-mode:multiply">
<path d="M139.896 112.029L138.244 113.209C138.244 113.209 136.415 113.773 135.895 115.503C136.131 113.379 137.725 111.714 139.896 112.029Z" fill="#A3C02D"/>
</g>
<g style="mix-blend-mode:multiply">
<path d="M140.545 114.376C141.159 116.998 138.268 119.162 136.308 117.628C135.175 118.86 133.146 119.109 131.8 118.178C131.387 119.044 130.348 119.542 129.475 119.266C130.325 119.843 131.576 119.542 132.142 118.663C133.358 119.791 135.4 119.856 136.686 118.808C139.212 121.364 142.93 117.103 140.545 114.376Z" fill="#A3C02D"/>
</g>
</g>
<mask id="mask22_12_25627" style="mask-type:luminance" maskUnits="userSpaceOnUse" x="128" y="121" width="15" height="8">
<path d="M140.779 123.55C140.621 123.55 140.468 123.567 140.32 123.602C139.431 121.307 136.21 121.021 135.005 123.137C133.607 121.717 131.088 122.536 130.591 124.546C126.854 124.704 129.009 130.833 131.853 128.149C132.932 128.889 134.526 128.57 135.309 127.5C136.262 128.687 138.141 128.907 139.304 127.943C142.623 130.668 144.902 123.92 140.779 123.55Z" fill="white"/>
</mask>
<g mask="url(#mask22_12_25627)">
<path d="M140.64 125.114C140.616 129.611 134.456 129.611 134.444 125.114C134.456 120.617 140.616 120.617 140.64 125.114Z" fill="#769914"/>
<path d="M143.036 126.058C143.071 129.296 138.48 129.296 138.527 126.058C138.48 122.806 143.071 122.806 143.036 126.058Z" fill="#769914"/>
<path d="M135.99 125.481C135.978 129.506 130.478 129.506 130.455 125.481C130.478 121.469 135.978 121.469 135.99 125.481Z" fill="#769914"/>
<path d="M132.402 126.661C132.437 129.428 128.531 129.428 128.566 126.661C128.531 123.908 132.437 123.908 132.402 126.661Z" fill="#769914"/>
<g style="mix-blend-mode:multiply">
<path d="M144.31 121.705L142.292 123.16C142.292 123.16 140.05 123.829 139.412 125.953C139.743 123.331 141.608 121.351 144.31 121.705Z" fill="#A3C02D"/>
</g>
<g style="mix-blend-mode:multiply">
<path d="M137.241 119.765L136.025 122.059C136.025 122.059 134.302 123.79 134.597 126.006C133.818 123.488 134.68 120.787 137.241 119.765Z" fill="#A3C02D"/>
</g>
<g style="mix-blend-mode:multiply">
<path d="M142.8 124.957C142.516 126.635 140.51 127.474 139.294 126.412C138.209 127.487 136.32 127.448 135.27 126.359C134.585 127.5 133.016 127.972 131.883 127.343C130.997 128.654 128.932 128.195 128.566 126.609C128.46 128.497 130.726 129.532 131.847 128.156C132.933 128.89 134.526 128.575 135.305 127.5C136.261 128.693 138.138 128.903 139.306 127.946C141.041 129.742 143.921 127.317 142.8 124.957Z" fill="#A3C02D"/>
</g>
</g>
<mask id="mask23_12_25627" style="mask-type:luminance" maskUnits="userSpaceOnUse" x="110" y="121" width="14" height="7">
<path d="M121.042 123.019C120.902 123.019 120.765 123.034 120.633 123.065C119.839 121.015 116.962 120.76 115.886 122.649C114.637 121.381 112.388 122.114 111.944 123.908C108.605 124.049 110.531 129.522 113.07 127.126C114.034 127.787 115.459 127.503 116.156 126.547C117.01 127.606 118.687 127.803 119.724 126.942C122.689 129.375 124.725 123.348 121.042 123.019Z" fill="white"/>
</mask>
<g mask="url(#mask23_12_25627)">
<path d="M120.918 124.419C120.895 128.431 115.395 128.431 115.383 124.419C115.395 120.394 120.907 120.394 120.918 124.419Z" fill="#769914"/>
<path d="M123.055 125.258C123.09 128.156 118.995 128.156 119.03 125.258C118.995 122.348 123.09 122.348 123.055 125.258Z" fill="#769914"/>
<path d="M116.764 124.747C116.752 128.34 111.842 128.34 111.831 124.747C111.842 121.155 116.752 121.155 116.764 124.747Z" fill="#769914"/>
<path d="M113.554 125.796C113.589 128.261 110.108 128.261 110.131 125.796C110.108 123.344 113.589 123.331 113.554 125.796Z" fill="#769914"/>
<g style="mix-blend-mode:multiply">
<path d="M123.361 121.338L121.756 122.492C121.756 122.492 119.974 123.029 119.467 124.721C119.703 122.662 121.249 121.036 123.361 121.338Z" fill="#A3C02D"/>
</g>
<g style="mix-blend-mode:multiply">
<path d="M117.637 119.83L116.622 121.626C116.622 121.626 115.218 122.951 115.395 124.721C114.828 122.741 115.607 120.551 117.637 119.83Z" fill="#A3C02D"/>
</g>
<g style="mix-blend-mode:multiply">
<path d="M122.748 124.078C122.83 125.874 120.8 127.015 119.549 125.914C118.57 126.858 116.894 126.805 115.961 125.822C115.336 126.845 113.931 127.251 112.928 126.674C112.338 127.526 111.016 127.579 110.379 126.779C110.886 127.815 112.362 128.011 113.07 127.133C114.038 127.789 115.454 127.5 116.162 126.543C117.012 127.605 118.688 127.802 119.726 126.936C121.367 128.628 123.987 126.163 122.748 124.078Z" fill="#A3C02D"/>
</g>
</g>
<mask id="mask24_12_25627" style="mask-type:luminance" maskUnits="userSpaceOnUse" x="107" y="111" width="17" height="10">
<path d="M121.218 114.189C121.089 114.19 120.963 114.202 120.839 114.224C119.91 110.119 114.301 110.393 113.71 114.586C112.421 113.676 110.524 114.422 110.017 115.981C108.752 115.088 106.959 116.202 107.001 117.883C106.933 120.016 109.638 120.905 110.642 119.137C111.832 120.494 114.15 119.957 114.761 118.211C115.84 119.455 117.842 119.735 119.175 118.793C122.749 122.935 126.364 114.835 121.218 114.189Z" fill="white"/>
</mask>
<g mask="url(#mask24_12_25627)">
<path d="M120.966 115.294C120.942 120.617 113.672 120.617 113.648 115.294C113.672 109.984 120.954 109.984 120.966 115.294Z" fill="#769914"/>
<path d="M114.982 117.051C114.97 120.801 109.848 120.801 109.824 117.051C109.848 113.314 114.97 113.314 114.982 117.051Z" fill="#769914"/>
<path d="M123.798 117.051C123.786 120.801 118.652 120.801 118.641 117.051C118.652 113.314 123.786 113.314 123.798 117.051Z" fill="#769914"/>
<path d="M110.993 117.89C111.028 120.761 106.968 120.761 107.004 117.89C106.968 115.005 111.028 115.005 110.993 117.89Z" fill="#769914"/>
<g style="mix-blend-mode:multiply">
<path d="M123.125 112.711L121.556 113.839C121.556 113.839 119.809 114.377 119.301 116.042C119.537 114.009 121.06 112.41 123.125 112.711Z" fill="#A3C02D"/>
</g>
<g style="mix-blend-mode:multiply">
<path d="M112.385 112.842L111.241 114.494C111.241 114.494 109.824 115.111 109.765 117.379C109.388 115.386 110.344 113.314 112.385 112.842Z" fill="#A3C02D"/>
</g>
<g style="mix-blend-mode:multiply">
<path d="M123.09 115.084C123.302 117.576 120.316 119.096 118.747 117.326C117.578 118.493 115.56 118.585 114.309 117.549C114.026 118.952 112.621 119.975 111.311 119.647C112.574 120.355 114.25 119.621 114.758 118.205C115.843 119.45 117.838 119.739 119.172 118.795C121.355 121.902 125.509 117.969 123.09 115.084Z" fill="#A3C02D"/>
</g>
</g>
<path d="M123.279 146C123.279 146 123.137 143.758 122.087 142.735C122.087 142.735 123.574 144.099 123.68 144.374C123.68 144.374 123.456 142.237 123.031 141.673C123.031 141.673 123.975 142.591 124.164 143.089C124.164 143.089 123.869 141.542 123.586 141.031C123.586 141.031 124.435 142.342 124.565 143.247C124.565 143.247 124.707 140.782 124.424 139.825C124.424 139.825 125.191 142.512 125.191 143.706C125.191 143.706 125.226 141.411 125.828 140.546C125.828 140.546 125.71 142.775 125.805 143.588C125.805 143.588 126.1 142.394 126.088 141.66C126.088 141.66 126.465 143.168 126.347 143.902C126.347 143.902 126.879 142.552 126.654 140.703C126.654 140.703 127.103 142.145 127.067 143.352C127.067 143.352 127.433 142.29 127.917 141.686C127.917 141.686 127.268 143.653 127.256 144.282C127.256 144.282 127.516 143.509 128.012 143.168C128.012 143.168 127.374 144.479 127.233 145.056C127.233 145.056 127.776 144.243 128.649 143.928C128.649 143.928 127.681 145.266 127.657 146H123.279Z" fill="#769914"/>
<path d="M126.548 145.987C126.548 145.987 126.454 144.427 125.722 143.706C125.722 143.706 126.761 144.663 126.831 144.859C126.831 144.859 126.678 143.365 126.383 142.958C126.383 142.958 127.032 143.614 127.174 143.955C127.174 143.955 126.961 142.88 126.761 142.526C126.761 142.526 127.362 143.43 127.445 144.073C127.445 144.073 127.551 142.342 127.351 141.673C127.351 141.673 127.894 143.548 127.894 144.387C127.894 144.387 127.917 142.788 128.342 142.172C128.342 142.172 128.248 143.732 128.318 144.309C128.318 144.309 128.531 143.47 128.519 142.958C128.519 142.958 128.779 144.02 128.708 144.532C128.708 144.532 129.074 143.588 128.909 142.29C128.909 142.29 129.227 143.299 129.204 144.138C129.204 144.138 129.463 143.404 129.805 142.984C129.805 142.984 129.345 144.361 129.333 144.794C129.333 144.794 129.522 144.256 129.864 144.007C129.864 144.007 129.416 144.938 129.322 145.331C129.322 145.331 129.699 144.768 130.313 144.545C130.313 144.545 129.628 145.476 129.617 145.987H126.548Z" fill="#769914"/>
</svg>
