<svg width="343" height="309" viewBox="0 0 343 309" fill="none" xmlns="http://www.w3.org/2000/svg">
<g clip-path="url(#clip0_124_12854)">
<path d="M176.177 85.6365C176.976 85.3876 177.644 85.2435 178.26 84.9685C179.19 84.5362 180.357 84.1695 179.479 82.7155C179.295 82.4143 179.361 82.0213 179.715 81.9165C181.09 81.4843 180.71 80.5805 180.383 79.6636C180.212 79.1921 180.147 78.6943 180.763 78.4978C182.007 78.0918 183.239 77.6333 184.51 77.3583C185.65 77.1094 186.082 77.9215 186.252 78.9039C186.619 81.1306 187.156 83.305 188.296 85.2959C189.121 86.7368 190.222 87.5227 191.165 87.1297C192.174 86.7106 193.065 84.4445 192.593 83.2657C192.279 82.4929 191.82 81.7855 191.388 81.0782C190.536 79.6898 190.733 78.7074 192.109 77.8167C192.423 77.6071 192.751 77.4369 192.829 77.0439C193.537 73.324 196.118 70.5995 197.965 67.4821C198.162 67.1415 198.568 66.9057 198.935 66.6961C200.258 65.9233 201.083 64.9279 200.834 63.2644C200.703 62.3737 201.175 61.889 202.118 61.9152C203.428 61.9676 204.752 61.8628 206.036 62.0724C207.765 62.3606 209.219 62.0986 210.503 60.828C212.875 58.4703 215.901 57.0819 218.744 55.4446C219.281 55.1302 219.753 55.2874 220.238 55.4446C222.033 56.0078 223.854 56.5318 225.623 57.1605C228.819 58.2869 231.898 56.7675 233.575 53.8859C234.492 52.301 235.567 50.8077 236.471 49.2097C237.532 47.3366 239.078 46.8389 241.096 47.2319C243.663 47.7165 246.258 48.0833 248.839 48.5548C250.332 48.8299 251.734 48.6596 253.123 48.0178C256.962 46.2233 260.984 44.7301 264.613 42.595C266.67 41.39 267.77 41.5733 269.133 43.2237C270.103 44.4026 271.19 44.3371 272.382 43.3678C273.391 42.5426 274.95 43.0404 275.605 44.2323C275.893 44.7432 275.71 45.7124 276.522 45.6993C277.452 45.6731 278.317 45.2278 279.103 44.6515C279.496 44.3633 279.719 43.3154 280.361 43.9573C280.924 44.5205 281.999 45.2147 281.082 46.3281C280.702 46.7865 280.833 47.1926 281.042 47.6379C281.802 49.1311 282.549 50.6244 283.322 52.1176C283.794 53.0214 284.449 53.2047 285.196 52.4712C286.034 51.6329 287.121 51.0435 287.436 49.7337C287.685 48.7513 288.471 48.6203 289.309 49.0263C290.41 49.5503 291.262 49.0918 291.995 48.3714C294.17 46.2364 296.162 46.4329 297.603 49.1573C298.284 50.4279 299.083 51.3972 300.433 51.908C301.756 52.4057 301.494 53.0869 300.616 53.8204C300.197 54.174 299.503 54.3967 299.843 55.1564C300.131 55.7851 300.629 55.4446 301.075 55.3529C301.651 55.2481 301.992 55.6804 301.782 56.0602C301.18 57.1867 301.874 57.9857 302.359 58.7978C302.804 59.5444 302.699 60.029 302.005 60.5006C301.402 60.9066 300.852 61.3782 300.472 62.0462C299.896 63.0548 299.005 63.9586 300.826 64.7183C301.651 65.0588 301.153 65.8578 300.826 66.3425C299.555 68.2287 301.455 68.4644 302.293 69.211C303.197 70.01 303.8 69.4992 304.271 68.6347C304.429 68.3596 304.704 67.9798 304.979 68.137C306.25 68.8705 307.914 68.3596 309.054 69.4861C309.761 70.1934 310.652 70.4816 311.648 70.3375C315.08 69.8136 318.539 70.0624 321.985 69.866C326.413 69.604 330.868 69.6302 335.296 69.1063C336.475 68.9622 336.763 69.3813 337.065 70.4423C337.536 72.1582 337.078 73.7562 336.75 75.3542C336.593 76.1401 336.737 76.3628 337.366 76.9129C338.978 78.3276 341.375 78.4585 342.646 80.384C343.026 80.9603 343.262 81.2747 342.646 81.7855C338.834 84.9292 335.584 88.7408 331.169 91.1771C328.929 92.4215 327.147 94.1898 326.701 96.9142C326.361 99.01 324.513 99.8745 323.151 101.119C322.719 101.512 322.142 101.08 321.684 100.883C318.736 99.6387 315.788 98.4337 312.879 97.1107C307.429 94.6351 301.874 94.2946 296.044 95.6568C286.047 97.9883 275.998 100.045 265.975 102.272C261.429 103.28 257.381 105.428 253.346 107.707C244.83 112.514 236.248 117.243 226.71 119.823C226.605 119.85 226.513 119.902 226.409 119.915C225.662 119.994 224.784 120.727 224.208 120.046C223.71 119.457 224.47 118.697 224.692 118.029C225.203 116.483 225.819 114.977 225.649 113.3C225.609 112.96 225.793 112.501 225.361 112.318C224.967 112.161 224.666 112.501 224.404 112.737C222.78 114.23 220.919 115.422 219.15 116.719C218.626 117.099 218.273 117.597 218.024 118.199C217.827 118.684 217.617 119.168 217.316 119.601C215.875 121.71 215.076 121.683 213.412 119.823C210.582 116.667 207.647 113.602 204.765 110.497C204.424 110.131 203.966 110.013 203.494 109.947C202.564 109.803 201.634 109.567 200.703 109.515C196.747 109.332 193.301 107.812 190.091 105.651C188.925 104.865 188.309 105.075 187.667 106.319C186.671 108.271 185.505 110.144 184.405 112.043C184.169 112.436 183.907 113.143 183.475 112.973C182.112 112.449 181.09 113.104 179.99 113.654C179.767 113.759 179.374 113.615 179.099 113.51C177.71 113.012 176.125 113.484 175.299 114.663C175.129 114.912 174.906 115.252 174.657 115.304C172.928 115.724 173.085 116.968 173.282 118.265C173.583 120.177 173.111 120.583 171.264 119.981C167.32 118.723 163.403 117.4 159.459 116.169C157.691 115.619 156.905 114.178 156.354 112.685C155.804 111.205 156.682 110.091 158.228 109.973C158.791 109.934 159.224 109.685 159.564 109.266C159.892 108.86 160.285 108.48 160.521 108.022C161.608 105.952 163.22 105.284 165.434 106.018C166.731 106.45 167.294 105.86 167.386 104.616C167.451 103.673 167.504 102.73 167.648 101.813C167.805 100.883 167.661 99.7697 168.984 99.4422C169.443 99.3244 169.404 98.7611 169.417 98.342C169.469 96.744 170.347 95.9581 171.88 95.8664C174.749 95.7092 174.71 94.7792 173.347 92.3298C172.941 91.6094 172.024 91.0068 172.875 89.9852C173.347 89.4219 173.78 88.9504 174.579 89.2255C175.941 89.7101 176.544 88.8456 177.186 87.8632C177.933 86.7106 176.662 86.5141 176.256 85.6889L176.177 85.6365Z" fill="#1B9C9F"/>
<path d="M176.177 85.6365C176.976 85.3876 177.644 85.2435 178.26 84.9685C179.19 84.5362 180.357 84.1695 179.479 82.7155C179.295 82.4143 179.361 82.0213 179.715 81.9165C181.09 81.4843 180.71 80.5805 180.383 79.6636C180.212 79.1921 180.147 78.6943 180.763 78.4978C182.007 78.0918 183.239 77.6333 184.51 77.3583C185.65 77.1094 186.082 77.9215 186.252 78.9039C186.619 81.1306 187.156 83.305 188.296 85.2959C189.121 86.7368 190.222 87.5227 191.165 87.1297C192.174 86.7106 193.065 84.4445 192.593 83.2657C192.279 82.4929 191.82 81.7855 191.388 81.0782C190.536 79.6898 190.733 78.7074 192.109 77.8167C192.423 77.6071 192.751 77.4369 192.829 77.0439C193.537 73.324 196.118 70.5995 197.965 67.4821C198.162 67.1415 198.568 66.9057 198.935 66.6961C200.258 65.9233 201.083 64.9279 200.834 63.2644C200.703 62.3737 201.175 61.889 202.118 61.9152C203.428 61.9676 204.752 61.8628 206.036 62.0724C207.765 62.3606 209.219 62.0986 210.503 60.828C212.875 58.4703 215.901 57.0819 218.744 55.4446C219.281 55.1302 219.753 55.2874 220.238 55.4446C222.033 56.0078 223.854 56.5318 225.623 57.1605C228.819 58.2869 231.898 56.7675 233.575 53.8859C234.492 52.301 235.567 50.8077 236.471 49.2097C237.532 47.3366 239.078 46.8389 241.096 47.2319C243.663 47.7165 246.258 48.0833 248.839 48.5548C250.332 48.8299 251.734 48.6596 253.123 48.0178C256.962 46.2233 260.984 44.7301 264.613 42.595C266.67 41.39 267.77 41.5733 269.133 43.2237C270.103 44.4026 271.19 44.3371 272.382 43.3678C273.391 42.5426 274.95 43.0404 275.605 44.2323C275.893 44.7432 275.71 45.7124 276.522 45.6993C277.452 45.6731 278.317 45.2278 279.103 44.6515C279.496 44.3633 279.719 43.3154 280.361 43.9573C280.924 44.5205 281.999 45.2147 281.082 46.3281C280.702 46.7865 280.833 47.1926 281.042 47.6379C281.802 49.1311 282.549 50.6244 283.322 52.1176C283.794 53.0214 284.449 53.2047 285.196 52.4712C286.034 51.6329 287.121 51.0435 287.436 49.7337C287.685 48.7513 288.471 48.6203 289.309 49.0263C290.41 49.5503 291.262 49.0918 291.995 48.3714C294.17 46.2364 296.162 46.4329 297.603 49.1573C298.284 50.4279 299.083 51.3972 300.433 51.908C301.756 52.4057 301.494 53.0869 300.616 53.8204C300.197 54.174 299.503 54.3967 299.843 55.1564C300.131 55.7851 300.629 55.4446 301.075 55.3529C301.651 55.2481 301.992 55.6804 301.782 56.0602C301.18 57.1867 301.874 57.9857 302.359 58.7978C302.804 59.5444 302.699 60.029 302.005 60.5006C301.402 60.9066 300.852 61.3782 300.472 62.0462C299.896 63.0548 299.005 63.9586 300.826 64.7183C301.651 65.0588 301.153 65.8578 300.826 66.3425C299.555 68.2287 301.455 68.4644 302.293 69.211C303.197 70.01 303.8 69.4992 304.271 68.6347C304.429 68.3596 304.704 67.9798 304.979 68.137C306.25 68.8705 307.914 68.3596 309.054 69.4861C309.761 70.1934 310.652 70.4816 311.648 70.3375C315.08 69.8136 318.539 70.0624 321.985 69.866C326.413 69.604 330.868 69.6302 335.296 69.1063C336.475 68.9622 336.763 69.3813 337.065 70.4423C337.536 72.1582 337.078 73.7562 336.75 75.3542C336.593 76.1401 336.737 76.3628 337.366 76.9129C338.978 78.3276 341.375 78.4585 342.646 80.384C343.026 80.9603 343.262 81.2747 342.646 81.7855C338.834 84.9292 335.584 88.7408 331.169 91.1771C328.929 92.4215 327.147 94.1898 326.701 96.9142C326.361 99.01 324.513 99.8745 323.151 101.119C322.719 101.512 322.142 101.08 321.684 100.883C318.736 99.6387 315.788 98.4337 312.879 97.1107C307.429 94.6351 301.874 94.2946 296.044 95.6568C286.047 97.9883 275.998 100.045 265.975 102.272C261.429 103.28 257.381 105.428 253.346 107.707C244.83 112.514 236.248 117.243 226.71 119.823C226.605 119.85 226.513 119.902 226.409 119.915C225.662 119.994 224.784 120.727 224.208 120.046C223.71 119.457 224.47 118.697 224.692 118.029C225.203 116.483 225.819 114.977 225.649 113.3C225.609 112.96 225.793 112.501 225.361 112.318C224.967 112.161 224.666 112.501 224.404 112.737C222.78 114.23 220.919 115.422 219.15 116.719C218.626 117.099 218.273 117.597 218.024 118.199C217.827 118.684 217.617 119.168 217.316 119.601C215.875 121.71 215.076 121.683 213.412 119.823C210.582 116.667 207.647 113.602 204.765 110.497C204.424 110.131 203.966 110.013 203.494 109.947C202.564 109.803 201.634 109.567 200.703 109.515C196.747 109.332 193.301 107.812 190.091 105.651C188.925 104.865 188.309 105.075 187.667 106.319C186.671 108.271 185.505 110.144 184.405 112.043C184.169 112.436 183.907 113.143 183.475 112.973C182.112 112.449 181.09 113.104 179.99 113.654C179.767 113.759 179.374 113.615 179.099 113.51C177.71 113.012 176.125 113.484 175.299 114.663C175.129 114.912 174.906 115.252 174.657 115.304C172.928 115.724 173.085 116.968 173.282 118.265C173.583 120.177 173.111 120.583 171.264 119.981C167.32 118.723 163.403 117.4 159.459 116.169C157.691 115.619 156.905 114.178 156.354 112.685C155.804 111.205 156.682 110.091 158.228 109.973C158.791 109.934 159.224 109.685 159.564 109.266C159.892 108.86 160.285 108.48 160.521 108.022C161.608 105.952 163.22 105.284 165.434 106.018C166.731 106.45 167.294 105.86 167.386 104.616C167.451 103.673 167.504 102.73 167.648 101.813C167.805 100.883 167.661 99.7697 168.984 99.4422C169.443 99.3244 169.404 98.7611 169.417 98.342C169.469 96.744 170.347 95.9581 171.88 95.8664C174.749 95.7092 174.71 94.7792 173.347 92.3298C172.941 91.6094 172.024 91.0068 172.875 89.9852C173.347 89.4219 173.78 88.9504 174.579 89.2255C175.941 89.7101 176.544 88.8456 177.186 87.8632C177.933 86.7106 176.662 86.5141 176.256 85.6889L176.177 85.6365Z" fill="white" fill-opacity="0.8"/>
<path d="M160.494 118.395C161.123 118.042 161.647 118.435 162.158 118.605C165.106 119.535 168.041 120.491 170.975 121.447C171.631 121.657 172.286 121.749 172.98 121.631C174.722 121.369 175.142 120.845 174.919 119.129C174.591 116.666 176.504 114.754 178.994 115.108C179.753 115.213 180.448 115.134 181.129 114.806C181.548 114.597 181.968 114.256 182.452 114.427C184.326 115.055 185.112 113.929 185.846 112.514C186.619 111.034 187.523 109.62 188.309 108.139C188.807 107.183 189.436 106.974 190.34 107.537C190.379 107.563 190.431 107.576 190.484 107.615C193.982 110.288 198.187 110.68 202.328 111.204C203.022 111.296 203.664 111.453 204.162 111.99C206.913 114.937 209.887 117.701 212.324 120.884C214.774 124.067 216.621 123.281 218.665 120.007C220.002 117.858 221.888 116.758 223.84 115.186C223.696 116.588 223.107 117.583 222.753 118.657C221.993 120.923 223.094 122.194 225.452 121.631C229.474 120.661 233.431 119.535 237.165 117.662C243.755 114.348 250.502 111.388 256.791 107.471C260.433 105.205 264.586 103.961 268.818 103.07C278.71 101.001 288.575 98.8264 298.441 96.6913C302.712 95.7614 306.865 96.2591 310.874 97.9226C314.019 99.2194 317.124 100.621 320.268 101.931C321.303 102.363 321.264 102.677 320.478 103.411C319.286 104.511 317.844 105.14 316.443 105.782C313.665 107.039 311.87 109.397 309.8 111.44C309.525 111.715 309.302 112.134 309.237 112.527C309.106 113.208 308.752 113.405 308.084 113.536C305.856 113.981 303.878 114.806 303.04 117.217C302.791 117.924 302.267 118.487 301.625 118.867C298.585 120.661 296.829 123.648 294.864 126.386C293.489 128.298 292.191 130.184 290.266 131.625C287.658 133.577 285.457 135.96 283.518 138.593C279.784 143.689 275.094 147.985 271.347 153.054C269.408 155.674 266.591 157.442 264.914 160.271C264.193 161.489 262.556 161.764 261.468 162.681C260.394 163.572 259.477 164.502 259.175 165.93C258.992 166.768 256.424 168.667 255.572 168.707C254.931 168.746 254.983 168.301 254.983 167.855C254.944 166.663 254.904 165.458 254.826 164.266C254.773 163.428 254.472 163.048 253.673 163.742C252.336 164.908 250.882 165.904 250.004 167.554C249.415 168.68 248.327 169.44 247.174 169.964C246.113 170.449 245.078 170.907 244.502 172.02C244.266 172.479 243.847 172.649 243.519 172.178C242.471 170.698 242.012 171.785 241.606 172.636C240.047 175.898 238.554 179.185 237.021 182.447C234.82 187.149 232.186 191.603 229.264 195.886C228.832 196.515 228.229 196.908 227.561 197.235C224.129 198.912 220.735 200.693 217.237 202.212C214.289 203.496 212.508 205.932 210.555 208.238C210.005 208.879 209.547 209.587 208.747 209.94C208.276 210.15 207.765 210.543 207.319 210.019C206.887 209.508 206.337 208.893 206.795 208.198C207.542 207.085 207.11 206.168 206.638 205.12C200.179 190.987 193.733 176.841 187.313 162.694C186.71 161.358 186.239 159.97 185.78 158.581C185.361 157.324 184.942 156.093 183.723 155.359C183.291 155.097 183.199 154.586 183.121 154.128C182.335 148.653 179.78 143.964 176.806 139.418C173.36 134.14 168.932 129.66 165.106 124.683C164.018 123.268 162.813 121.958 161.739 120.557C161.241 119.915 160.625 119.312 160.533 118.409L160.494 118.395Z" fill="#1B9C9F"/>
<path d="M160.494 118.395C161.123 118.042 161.647 118.435 162.158 118.605C165.106 119.535 168.041 120.491 170.975 121.447C171.631 121.657 172.286 121.749 172.98 121.631C174.722 121.369 175.142 120.845 174.919 119.129C174.591 116.666 176.504 114.754 178.994 115.108C179.753 115.213 180.448 115.134 181.129 114.806C181.548 114.597 181.968 114.256 182.452 114.427C184.326 115.055 185.112 113.929 185.846 112.514C186.619 111.034 187.523 109.62 188.309 108.139C188.807 107.183 189.436 106.974 190.34 107.537C190.379 107.563 190.431 107.576 190.484 107.615C193.982 110.288 198.187 110.68 202.328 111.204C203.022 111.296 203.664 111.453 204.162 111.99C206.913 114.937 209.887 117.701 212.324 120.884C214.774 124.067 216.621 123.281 218.665 120.007C220.002 117.858 221.888 116.758 223.84 115.186C223.696 116.588 223.107 117.583 222.753 118.657C221.993 120.923 223.094 122.194 225.452 121.631C229.474 120.661 233.431 119.535 237.165 117.662C243.755 114.348 250.502 111.388 256.791 107.471C260.433 105.205 264.586 103.961 268.818 103.07C278.71 101.001 288.575 98.8264 298.441 96.6913C302.712 95.7614 306.865 96.2591 310.874 97.9226C314.019 99.2194 317.124 100.621 320.268 101.931C321.303 102.363 321.264 102.677 320.478 103.411C319.286 104.511 317.844 105.14 316.443 105.782C313.665 107.039 311.87 109.397 309.8 111.44C309.525 111.715 309.302 112.134 309.237 112.527C309.106 113.208 308.752 113.405 308.084 113.536C305.856 113.981 303.878 114.806 303.04 117.217C302.791 117.924 302.267 118.487 301.625 118.867C298.585 120.661 296.829 123.648 294.864 126.386C293.489 128.298 292.191 130.184 290.266 131.625C287.658 133.577 285.457 135.96 283.518 138.593C279.784 143.689 275.094 147.985 271.347 153.054C269.408 155.674 266.591 157.442 264.914 160.271C264.193 161.489 262.556 161.764 261.468 162.681C260.394 163.572 259.477 164.502 259.175 165.93C258.992 166.768 256.424 168.667 255.572 168.707C254.931 168.746 254.983 168.301 254.983 167.855C254.944 166.663 254.904 165.458 254.826 164.266C254.773 163.428 254.472 163.048 253.673 163.742C252.336 164.908 250.882 165.904 250.004 167.554C249.415 168.68 248.327 169.44 247.174 169.964C246.113 170.449 245.078 170.907 244.502 172.02C244.266 172.479 243.847 172.649 243.519 172.178C242.471 170.698 242.012 171.785 241.606 172.636C240.047 175.898 238.554 179.185 237.021 182.447C234.82 187.149 232.186 191.603 229.264 195.886C228.832 196.515 228.229 196.908 227.561 197.235C224.129 198.912 220.735 200.693 217.237 202.212C214.289 203.496 212.508 205.932 210.555 208.238C210.005 208.879 209.547 209.587 208.747 209.94C208.276 210.15 207.765 210.543 207.319 210.019C206.887 209.508 206.337 208.893 206.795 208.198C207.542 207.085 207.11 206.168 206.638 205.12C200.179 190.987 193.733 176.841 187.313 162.694C186.71 161.358 186.239 159.97 185.78 158.581C185.361 157.324 184.942 156.093 183.723 155.359C183.291 155.097 183.199 154.586 183.121 154.128C182.335 148.653 179.78 143.964 176.806 139.418C173.36 134.14 168.932 129.66 165.106 124.683C164.018 123.268 162.813 121.958 161.739 120.557C161.241 119.915 160.625 119.312 160.533 118.409L160.494 118.395Z" fill="white" fill-opacity="0.8"/>
<path d="M158.844 168.368C160.416 168.446 161.582 168.839 162.473 169.835C163.547 171.04 164.622 172.258 165.67 173.502C166.692 174.72 167.766 175.821 169.26 176.476C170.557 177.039 172.011 177.366 172.692 178.938C172.994 179.645 179.269 180.693 179.964 180.287C180.724 179.842 181.444 179.292 182.152 178.768C182.807 178.296 183.344 177.72 183.973 178.899C184.497 179.868 184.982 180.615 183.645 181.309C181.601 182.37 179.636 183.588 177.579 184.61C173.557 186.588 174.553 186.509 175.286 190.425C175.693 192.6 175.928 194.722 175.955 196.896C175.968 198.468 175.942 200.04 175.863 201.598C175.771 203.537 176.361 204.323 178.326 204.415C180.318 204.506 182.322 204.598 184.287 204.415C187.353 204.139 189.593 205.606 191.703 207.506C192.437 208.174 193.472 208.842 193.668 209.667C193.891 210.649 192.371 210.676 191.781 211.383C190.576 212.824 189.017 213.95 188.021 215.587C187.694 216.125 187.196 216.334 186.619 216.504C184.418 217.159 182.23 217.919 179.964 218.351C178.614 218.613 178.012 219.386 178.221 220.814C178.47 222.49 177.841 223.499 176.204 223.748C174.579 223.997 173.23 224.665 172.05 225.752C171.487 226.276 170.74 226.485 170.007 226.433C168.382 226.341 167.452 227.284 166.81 228.542C166.404 229.354 165.893 229.839 165.054 230.166C163.665 230.69 163.416 231.528 164.045 232.904C165.08 235.117 164.674 236.768 162.748 238.222C161.753 238.981 160.77 239.78 159.735 240.475C158.647 241.195 158.333 242.164 158.739 243.33C159.669 245.923 158.975 247.875 156.695 249.421C155.673 250.115 154.835 251.11 153.918 251.962C153.525 252.329 153.105 252.826 153.263 253.324C153.708 254.713 152.804 255.289 151.926 255.97C148.861 258.341 145.795 260.685 142.31 262.454C139.218 264.026 136.977 266.645 134.514 268.964C133.047 270.352 132.89 270.234 131.278 268.99C125.841 264.811 124.701 258.812 124.112 252.564C123.745 248.713 123.47 244.863 123.116 240.998C122.985 239.466 121.937 238.903 120.404 239.636C118.609 240.501 116.88 241.483 115.15 242.452C109.792 245.413 104.42 248.347 99.0876 251.372C97.7905 252.106 97.214 251.792 96.559 250.573C89.4055 237.436 82.1996 224.311 75.0068 211.186C74.7841 210.767 74.6138 210.322 74.3386 209.942C73.5132 208.763 73.7753 208.003 74.9282 207.087C81.4004 201.939 87.6761 196.555 94.2531 191.552C97.856 188.801 102.049 186.823 105.743 184.191C110.027 181.139 114.849 179.567 119.827 178.283C121.334 177.89 122.893 178.336 124.347 177.956C128.239 176.934 132.235 176.279 135.916 174.537C137.056 174 138.274 173.686 139.506 173.437C145.467 172.258 151.389 170.961 157.101 168.813C157.73 168.577 158.412 168.459 158.818 168.354L158.844 168.368Z" fill="#1B9C9F"/>
<path d="M158.844 168.368C160.416 168.446 161.582 168.839 162.473 169.835C163.547 171.04 164.622 172.258 165.67 173.502C166.692 174.72 167.766 175.821 169.26 176.476C170.557 177.039 172.011 177.366 172.692 178.938C172.994 179.645 179.269 180.693 179.964 180.287C180.724 179.842 181.444 179.292 182.152 178.768C182.807 178.296 183.344 177.72 183.973 178.899C184.497 179.868 184.982 180.615 183.645 181.309C181.601 182.37 179.636 183.588 177.579 184.61C173.557 186.588 174.553 186.509 175.286 190.425C175.693 192.6 175.928 194.722 175.955 196.896C175.968 198.468 175.942 200.04 175.863 201.598C175.771 203.537 176.361 204.323 178.326 204.415C180.318 204.506 182.322 204.598 184.287 204.415C187.353 204.139 189.593 205.606 191.703 207.506C192.437 208.174 193.472 208.842 193.668 209.667C193.891 210.649 192.371 210.676 191.781 211.383C190.576 212.824 189.017 213.95 188.021 215.587C187.694 216.125 187.196 216.334 186.619 216.504C184.418 217.159 182.23 217.919 179.964 218.351C178.614 218.613 178.012 219.386 178.221 220.814C178.47 222.49 177.841 223.499 176.204 223.748C174.579 223.997 173.23 224.665 172.05 225.752C171.487 226.276 170.74 226.485 170.007 226.433C168.382 226.341 167.452 227.284 166.81 228.542C166.404 229.354 165.893 229.839 165.054 230.166C163.665 230.69 163.416 231.528 164.045 232.904C165.08 235.117 164.674 236.768 162.748 238.222C161.753 238.981 160.77 239.78 159.735 240.475C158.647 241.195 158.333 242.164 158.739 243.33C159.669 245.923 158.975 247.875 156.695 249.421C155.673 250.115 154.835 251.11 153.918 251.962C153.525 252.329 153.105 252.826 153.263 253.324C153.708 254.713 152.804 255.289 151.926 255.97C148.861 258.341 145.795 260.685 142.31 262.454C139.218 264.026 136.977 266.645 134.514 268.964C133.047 270.352 132.89 270.234 131.278 268.99C125.841 264.811 124.701 258.812 124.112 252.564C123.745 248.713 123.47 244.863 123.116 240.998C122.985 239.466 121.937 238.903 120.404 239.636C118.609 240.501 116.88 241.483 115.15 242.452C109.792 245.413 104.42 248.347 99.0876 251.372C97.7905 252.106 97.214 251.792 96.559 250.573C89.4055 237.436 82.1996 224.311 75.0068 211.186C74.7841 210.767 74.6138 210.322 74.3386 209.942C73.5132 208.763 73.7753 208.003 74.9282 207.087C81.4004 201.939 87.6761 196.555 94.2531 191.552C97.856 188.801 102.049 186.823 105.743 184.191C110.027 181.139 114.849 179.567 119.827 178.283C121.334 177.89 122.893 178.336 124.347 177.956C128.239 176.934 132.235 176.279 135.916 174.537C137.056 174 138.274 173.686 139.506 173.437C145.467 172.258 151.389 170.961 157.101 168.813C157.73 168.577 158.412 168.459 158.818 168.354L158.844 168.368Z" fill="white" fill-opacity="0.8"/>
<path d="M50.2324 236.426C50.7565 234.893 50.9268 233.243 52.6038 232.405C53.0755 232.169 53.403 231.593 53.7568 231.134C57.7265 225.934 61.6701 220.721 65.6399 215.521C67.3169 213.333 69.5835 211.788 71.6404 210.019C72.3479 209.404 72.6362 209.993 72.9244 210.517C75.7281 215.599 78.545 220.682 81.3356 225.777C86.3142 234.867 91.2798 243.957 96.2191 253.061C96.7431 254.017 97.2672 254.148 98.2236 253.611C105.167 249.734 112.151 245.922 119.108 242.058C121.505 240.722 121.675 240.801 121.885 243.551C122.278 248.607 122.619 253.65 123.497 258.667C124.335 263.448 126.667 267.22 130.401 270.22C133.152 272.433 133.297 272.551 135.773 269.879C138.839 266.565 142.428 264.077 146.359 261.902C148.809 260.54 150.958 258.628 153.211 256.925C154.01 256.322 154.77 256.113 155.805 256.218C159.447 256.597 162.985 256.126 166.3 254.41C168.239 253.415 169.012 253.493 169.994 255.419C174.344 263.867 181.078 270.587 186.502 278.249C187.275 279.336 187.406 279.978 186.371 280.974C178.419 288.623 170.387 296.194 161.793 303.136C160.181 304.446 158.819 306.005 156.827 306.909C152.897 308.664 148.914 309.345 144.616 308.703C137.319 307.616 130.008 306.633 122.684 305.756C120.785 305.533 118.819 305.834 116.893 305.926C115.138 306.018 113.487 305.651 111.81 305.14C104.015 302.796 96.6383 299.416 89.1442 296.312C86.3535 295.159 83.4319 294.295 81.2177 291.989C80.222 290.955 79.4097 289.828 78.5974 288.689C73.4747 281.419 68.6009 273.966 63.5043 266.67C61.8535 264.312 61.2509 261.287 61.8929 258.261C62.037 257.593 62.1549 256.912 62.3907 256.283C62.8231 255.117 62.4955 254.384 61.3033 254.004C60.753 253.834 60.2421 253.559 59.718 253.323C59.0498 253.008 58.7485 252.629 59.5608 252.118C60.0193 251.83 60.0062 251.371 60.111 250.913C60.4124 249.681 60.491 248.359 61.6177 247.429C62.3252 246.852 62.3383 246.119 61.6046 245.411C60.9233 244.756 60.3862 243.957 59.7049 243.329C58.8402 242.53 58.7354 241.822 59.5608 240.932C60.0324 240.421 60.8578 239.871 60.36 239.072C59.6918 238.011 58.683 237.225 57.5824 236.583C55.9709 238.076 55.1193 236.072 53.8878 235.85C52.7348 235.653 51.333 235.26 50.2455 236.426H50.2324Z" fill="#1B9C9F"/>
<path d="M50.2324 236.426C50.7565 234.893 50.9268 233.243 52.6038 232.405C53.0755 232.169 53.403 231.593 53.7568 231.134C57.7265 225.934 61.6701 220.721 65.6399 215.521C67.3169 213.333 69.5835 211.788 71.6404 210.019C72.3479 209.404 72.6362 209.993 72.9244 210.517C75.7281 215.599 78.545 220.682 81.3356 225.777C86.3142 234.867 91.2798 243.957 96.2191 253.061C96.7431 254.017 97.2672 254.148 98.2236 253.611C105.167 249.734 112.151 245.922 119.108 242.058C121.505 240.722 121.675 240.801 121.885 243.551C122.278 248.607 122.619 253.65 123.497 258.667C124.335 263.448 126.667 267.22 130.401 270.22C133.152 272.433 133.297 272.551 135.773 269.879C138.839 266.565 142.428 264.077 146.359 261.902C148.809 260.54 150.958 258.628 153.211 256.925C154.01 256.322 154.77 256.113 155.805 256.218C159.447 256.597 162.985 256.126 166.3 254.41C168.239 253.415 169.012 253.493 169.994 255.419C174.344 263.867 181.078 270.587 186.502 278.249C187.275 279.336 187.406 279.978 186.371 280.974C178.419 288.623 170.387 296.194 161.793 303.136C160.181 304.446 158.819 306.005 156.827 306.909C152.897 308.664 148.914 309.345 144.616 308.703C137.319 307.616 130.008 306.633 122.684 305.756C120.785 305.533 118.819 305.834 116.893 305.926C115.138 306.018 113.487 305.651 111.81 305.14C104.015 302.796 96.6383 299.416 89.1442 296.312C86.3535 295.159 83.4319 294.295 81.2177 291.989C80.222 290.955 79.4097 289.828 78.5974 288.689C73.4747 281.419 68.6009 273.966 63.5043 266.67C61.8535 264.312 61.2509 261.287 61.8929 258.261C62.037 257.593 62.1549 256.912 62.3907 256.283C62.8231 255.117 62.4955 254.384 61.3033 254.004C60.753 253.834 60.2421 253.559 59.718 253.323C59.0498 253.008 58.7485 252.629 59.5608 252.118C60.0193 251.83 60.0062 251.371 60.111 250.913C60.4124 249.681 60.491 248.359 61.6177 247.429C62.3252 246.852 62.3383 246.119 61.6046 245.411C60.9233 244.756 60.3862 243.957 59.7049 243.329C58.8402 242.53 58.7354 241.822 59.5608 240.932C60.0324 240.421 60.8578 239.871 60.36 239.072C59.6918 238.011 58.683 237.225 57.5824 236.583C55.9709 238.076 55.1193 236.072 53.8878 235.85C52.7348 235.653 51.333 235.26 50.2455 236.426H50.2324Z" fill="white" fill-opacity="0.8"/>
<path d="M175.011 87.6677C173.543 87.314 172.639 87.8641 171.788 88.781C170.713 89.9206 170.582 90.9685 171.473 92.2783C172.652 94.0073 172.613 94.0859 170.635 94.505C169.613 94.7146 168.866 95.2779 168.394 96.09C167.202 98.1202 165.735 100.085 165.944 102.639C166.062 104.106 165.473 104.709 164.045 104.276C162.211 103.726 161.058 104.63 160.075 106.005C159.171 107.25 158.424 108.704 156.42 108.324C155.817 108.219 155.149 108.73 155.057 109.411C154.795 111.297 154.14 113.249 155.791 114.899C156.027 115.135 156.302 115.449 156.158 115.973C153.315 115.842 150.681 114.965 148.113 113.76C146.253 112.895 146.253 112.935 145.663 114.873C144.733 117.912 145.205 117.598 142.204 116.707C140.396 116.17 138.863 114.795 136.82 114.86C136.505 114.86 136.23 114.611 136.217 114.244C136.204 113.799 136.505 113.524 136.885 113.524C140.331 113.432 140.737 110.957 141.182 108.324C141.654 105.508 143.069 103.006 144.405 100.517C145.493 98.5132 146.227 96.4436 146.436 94.1514C146.567 92.7368 147.117 91.4662 147.969 90.2612C148.899 88.9251 149.476 87.3926 149.305 85.7029C149.201 84.7074 149.646 83.8691 150.013 83.0046C150.996 80.6993 150.602 79.3109 148.48 77.9355C145.663 76.1279 142.807 74.3596 139.977 72.5652C138.352 71.5304 138.261 70.6266 139.584 69.1727C139.728 69.0155 139.885 68.8714 140.029 68.7273C141.641 67.09 141.68 66.9328 139.872 65.6623C138.798 64.9026 138.693 64.3131 139.519 63.2915C141.196 61.2219 142.742 59.0345 144.405 56.9518C145.021 56.1921 144.982 55.6944 144.34 54.9478C141.667 51.8696 139.086 48.6998 136.44 45.5955C135.732 44.7572 135.012 43.8796 134.121 43.2639C129.771 40.212 126.731 35.9026 123.115 32.1303C121.635 30.5846 120.076 29.1045 118.451 27.7161C115.844 25.4893 113.721 23.0137 113.079 19.4903C112.673 17.2766 111.285 15.4952 110.119 13.6484C108.442 10.9894 106.686 8.38278 104.865 5.82859C104.118 4.76761 104.341 4.24368 105.284 3.40538C108.193 0.838081 111.534 -0.131204 115.294 0.0128794C121.15 0.248651 127.006 0.314144 132.85 0.707097C136.715 0.969066 139.728 3.1696 142.571 5.6976C146.528 9.19489 150.734 12.4171 154.69 15.9144C157.756 18.6127 161.241 19.6998 165.237 19.4641C168.159 19.2938 171.08 19.0187 174.002 18.9925C178.941 18.9401 183.71 17.3814 188.663 17.5779C191.859 17.7089 192.973 18.4293 194.244 21.3895C195.698 24.7689 196.524 28.3579 197.559 31.8552C198.594 35.3918 200.533 38.2603 203.074 40.8145C207.398 45.1501 211.787 49.4202 216.359 53.4938C217.159 54.2011 217.355 54.6727 216.202 55.1311C213.765 56.0742 211.735 57.6591 209.835 59.375C208.564 60.5146 207.201 60.8159 205.642 60.5408C204.398 60.3312 203.14 60.3181 201.882 60.3443C199.956 60.3705 199.262 60.9337 199.249 62.8461C199.249 64.156 198.672 64.8633 197.716 65.6754C195.803 67.2996 194.519 69.487 193.458 71.74C193.052 72.5914 192.672 73.3642 192.082 74.1239C191.073 75.4337 190.274 76.94 189.58 78.4595C189.029 79.6645 189.292 80.8827 190.143 81.996C190.575 82.5593 190.877 83.2666 191.113 83.9477C191.296 84.4716 191.086 85.0873 190.602 85.3099C189.973 85.5981 189.881 84.9039 189.645 84.5371C188.427 82.6379 188.021 80.4766 187.601 78.3154C187.208 76.2851 186.042 75.4468 184.012 75.8398C182.885 76.0493 181.797 76.4554 180.71 76.8222C179.347 77.2806 178.43 78.0141 178.745 79.7038C178.928 80.7386 177.605 81.3411 177.788 82.5593C178.037 84.1835 176.439 83.8036 175.587 84.1704C174.29 84.7598 174.107 85.4016 174.985 87.6546L175.011 87.6677Z" fill="#1B9C9F"/>
<path d="M175.011 87.6677C173.543 87.314 172.639 87.8641 171.788 88.781C170.713 89.9206 170.582 90.9685 171.473 92.2783C172.652 94.0073 172.613 94.0859 170.635 94.505C169.613 94.7146 168.866 95.2779 168.394 96.09C167.202 98.1202 165.735 100.085 165.944 102.639C166.062 104.106 165.473 104.709 164.045 104.276C162.211 103.726 161.058 104.63 160.075 106.005C159.171 107.25 158.424 108.704 156.42 108.324C155.817 108.219 155.149 108.73 155.057 109.411C154.795 111.297 154.14 113.249 155.791 114.899C156.027 115.135 156.302 115.449 156.158 115.973C153.315 115.842 150.681 114.965 148.113 113.76C146.253 112.895 146.253 112.935 145.663 114.873C144.733 117.912 145.205 117.598 142.204 116.707C140.396 116.17 138.863 114.795 136.82 114.86C136.505 114.86 136.23 114.611 136.217 114.244C136.204 113.799 136.505 113.524 136.885 113.524C140.331 113.432 140.737 110.957 141.182 108.324C141.654 105.508 143.069 103.006 144.405 100.517C145.493 98.5132 146.227 96.4436 146.436 94.1514C146.567 92.7368 147.117 91.4662 147.969 90.2612C148.899 88.9251 149.476 87.3926 149.305 85.7029C149.201 84.7074 149.646 83.8691 150.013 83.0046C150.996 80.6993 150.602 79.3109 148.48 77.9355C145.663 76.1279 142.807 74.3596 139.977 72.5652C138.352 71.5304 138.261 70.6266 139.584 69.1727C139.728 69.0155 139.885 68.8714 140.029 68.7273C141.641 67.09 141.68 66.9328 139.872 65.6623C138.798 64.9026 138.693 64.3131 139.519 63.2915C141.196 61.2219 142.742 59.0345 144.405 56.9518C145.021 56.1921 144.982 55.6944 144.34 54.9478C141.667 51.8696 139.086 48.6998 136.44 45.5955C135.732 44.7572 135.012 43.8796 134.121 43.2639C129.771 40.212 126.731 35.9026 123.115 32.1303C121.635 30.5846 120.076 29.1045 118.451 27.7161C115.844 25.4893 113.721 23.0137 113.079 19.4903C112.673 17.2766 111.285 15.4952 110.119 13.6484C108.442 10.9894 106.686 8.38278 104.865 5.82859C104.118 4.76761 104.341 4.24368 105.284 3.40538C108.193 0.838081 111.534 -0.131204 115.294 0.0128794C121.15 0.248651 127.006 0.314144 132.85 0.707097C136.715 0.969066 139.728 3.1696 142.571 5.6976C146.528 9.19489 150.734 12.4171 154.69 15.9144C157.756 18.6127 161.241 19.6998 165.237 19.4641C168.159 19.2938 171.08 19.0187 174.002 18.9925C178.941 18.9401 183.71 17.3814 188.663 17.5779C191.859 17.7089 192.973 18.4293 194.244 21.3895C195.698 24.7689 196.524 28.3579 197.559 31.8552C198.594 35.3918 200.533 38.2603 203.074 40.8145C207.398 45.1501 211.787 49.4202 216.359 53.4938C217.159 54.2011 217.355 54.6727 216.202 55.1311C213.765 56.0742 211.735 57.6591 209.835 59.375C208.564 60.5146 207.201 60.8159 205.642 60.5408C204.398 60.3312 203.14 60.3181 201.882 60.3443C199.956 60.3705 199.262 60.9337 199.249 62.8461C199.249 64.156 198.672 64.8633 197.716 65.6754C195.803 67.2996 194.519 69.487 193.458 71.74C193.052 72.5914 192.672 73.3642 192.082 74.1239C191.073 75.4337 190.274 76.94 189.58 78.4595C189.029 79.6645 189.292 80.8827 190.143 81.996C190.575 82.5593 190.877 83.2666 191.113 83.9477C191.296 84.4716 191.086 85.0873 190.602 85.3099C189.973 85.5981 189.881 84.9039 189.645 84.5371C188.427 82.6379 188.021 80.4766 187.601 78.3154C187.208 76.2851 186.042 75.4468 184.012 75.8398C182.885 76.0493 181.797 76.4554 180.71 76.8222C179.347 77.2806 178.43 78.0141 178.745 79.7038C178.928 80.7386 177.605 81.3411 177.788 82.5593C178.037 84.1835 176.439 83.8036 175.587 84.1704C174.29 84.7598 174.107 85.4016 174.985 87.6546L175.011 87.6677Z" fill="white" fill-opacity="0.8"/>
<path d="M89.2881 15.415C91.0044 15.7556 92.1311 14.7077 93.2841 13.6991C96.0485 11.289 98.8522 8.9313 101.59 6.50809C102.56 5.64359 103.097 5.80077 103.778 6.86175C105.547 9.63862 107.434 12.35 109.255 15.1007C110.565 17.0785 111.6 19.1612 112.111 21.5058C112.583 23.7194 113.88 25.6187 115.544 27.0333C120.064 30.8843 124.034 35.233 127.885 39.7126C128.868 40.8522 130.047 41.8346 131.239 42.7777C135.563 46.1833 138.563 50.807 142.219 54.8151C142.992 55.6534 142.939 56.387 142.219 57.2908C140.764 59.0852 139.467 60.9845 138.052 62.7921C137.122 63.984 137.03 65.0843 138.223 66.0798C139.179 66.8788 139.1 67.4813 138.262 68.372C137.161 69.5378 136.821 71.0179 137.358 72.5897C137.567 73.1792 137.554 73.7293 137.319 74.2663C136.428 76.3621 135.38 78.3399 133.152 79.3485C132.419 79.676 131.842 80.1606 131.384 80.8417C129.235 83.9985 126.955 87.0766 124.924 90.3119C123.876 91.9754 122.448 92.6434 120.693 92.9054C119.409 93.1019 118.072 92.8006 116.828 93.4031C116.5 93.5603 116.264 93.3639 116.042 93.0888C114.247 90.9013 112.347 90.9537 110.644 93.0888C109.713 94.2545 109.058 96.2586 107.709 96.311C106.556 96.3503 105.338 94.8178 104.158 93.9533C97.5552 89.0676 90.9258 84.1949 84.3619 79.2437C80.8637 76.5979 80.9161 76.5324 82.6849 72.4718C83.5889 70.3892 83.5889 70.3761 81.5057 69.5247C79.1867 68.5685 76.9464 67.1932 74.5226 66.7347C71.103 66.0798 68.0111 64.508 64.6309 63.84C64.2771 63.7745 63.871 63.7483 63.5434 63.8662C59.2461 65.3201 54.6343 64.77 50.2715 66.1191C48.0442 66.8133 45.5025 66.4466 43.0918 66.5382C42.2402 66.5644 41.8472 66.1846 42.0306 65.2677C43.0001 60.3951 44.6247 55.8761 48.149 52.1169C53.5469 46.3536 60.0584 41.9132 65.9672 36.7786C72.518 31.0808 79.3178 25.6711 85.7899 19.8816C86.6546 19.1088 87.2835 18.1264 87.2573 17.0261C87.218 15.4281 87.9124 15.1138 89.275 15.415H89.2881Z" fill="#1B9C9F"/>
<path d="M89.2881 15.415C91.0044 15.7556 92.1311 14.7077 93.2841 13.6991C96.0485 11.289 98.8522 8.9313 101.59 6.50809C102.56 5.64359 103.097 5.80077 103.778 6.86175C105.547 9.63862 107.434 12.35 109.255 15.1007C110.565 17.0785 111.6 19.1612 112.111 21.5058C112.583 23.7194 113.88 25.6187 115.544 27.0333C120.064 30.8843 124.034 35.233 127.885 39.7126C128.868 40.8522 130.047 41.8346 131.239 42.7777C135.563 46.1833 138.563 50.807 142.219 54.8151C142.992 55.6534 142.939 56.387 142.219 57.2908C140.764 59.0852 139.467 60.9845 138.052 62.7921C137.122 63.984 137.03 65.0843 138.223 66.0798C139.179 66.8788 139.1 67.4813 138.262 68.372C137.161 69.5378 136.821 71.0179 137.358 72.5897C137.567 73.1792 137.554 73.7293 137.319 74.2663C136.428 76.3621 135.38 78.3399 133.152 79.3485C132.419 79.676 131.842 80.1606 131.384 80.8417C129.235 83.9985 126.955 87.0766 124.924 90.3119C123.876 91.9754 122.448 92.6434 120.693 92.9054C119.409 93.1019 118.072 92.8006 116.828 93.4031C116.5 93.5603 116.264 93.3639 116.042 93.0888C114.247 90.9013 112.347 90.9537 110.644 93.0888C109.713 94.2545 109.058 96.2586 107.709 96.311C106.556 96.3503 105.338 94.8178 104.158 93.9533C97.5552 89.0676 90.9258 84.1949 84.3619 79.2437C80.8637 76.5979 80.9161 76.5324 82.6849 72.4718C83.5889 70.3892 83.5889 70.3761 81.5057 69.5247C79.1867 68.5685 76.9464 67.1932 74.5226 66.7347C71.103 66.0798 68.0111 64.508 64.6309 63.84C64.2771 63.7745 63.871 63.7483 63.5434 63.8662C59.2461 65.3201 54.6343 64.77 50.2715 66.1191C48.0442 66.8133 45.5025 66.4466 43.0918 66.5382C42.2402 66.5644 41.8472 66.1846 42.0306 65.2677C43.0001 60.3951 44.6247 55.8761 48.149 52.1169C53.5469 46.3536 60.0584 41.9132 65.9672 36.7786C72.518 31.0808 79.3178 25.6711 85.7899 19.8816C86.6546 19.1088 87.2835 18.1264 87.2573 17.0261C87.218 15.4281 87.9124 15.1138 89.275 15.415H89.2881Z" fill="white" fill-opacity="0.8"/>
<path d="M253.53 167.75C253.438 168.418 253.451 169.034 253.805 169.597C254.775 171.143 254.853 172.701 253.74 173.946C252.495 175.347 251.709 177.115 250.163 178.268C249.324 178.897 250.242 179.264 250.556 179.604C253.884 183.075 257.212 186.573 260.618 189.965C262.872 192.218 265.177 194.432 267.444 196.645C268.807 197.981 269.147 200.457 268.754 202.592C268.531 203.758 267.903 204.701 266.907 205.552C257.33 213.752 247.923 222.148 238.267 230.243C223.318 242.791 210.085 257.108 196.276 270.822C194.009 273.062 191.808 275.38 189.62 277.698C188.952 278.406 188.533 278.419 187.917 277.607C183.07 271.228 178.157 264.914 173.335 258.509C172.208 257.016 171.763 255.117 170.728 253.519C169.994 252.379 169.169 252.052 168.003 252.287C167.243 252.445 166.404 252.589 165.776 252.995C163.548 254.409 161.007 254.436 158.543 254.868C157.561 255.038 156.735 254.396 155.713 254.488C154.98 254.553 154.744 253.257 155.347 252.68C156.408 251.672 157.43 250.611 158.596 249.733C160.64 248.201 161.059 246.197 160.417 243.904C160.076 242.673 160.181 241.809 161.373 241.141C162.055 240.761 162.631 240.211 163.26 239.739C165.972 237.722 166.68 235.823 165.762 232.574C165.527 231.736 165.592 231.369 166.47 231.382C167.348 231.382 167.623 230.806 167.806 230.112C168.16 228.802 168.92 228.068 170.348 227.99C171.54 227.924 172.549 227.558 173.466 226.549C174.396 225.514 175.995 225.423 177.331 225.003C179.27 224.388 180.266 222.764 179.794 220.786C179.545 219.712 180.331 219.777 180.869 219.699C183.109 219.358 185.192 218.441 187.367 217.878C188.048 217.708 188.625 217.393 189.005 216.751C190.027 215.075 191.533 213.83 192.922 212.481C193.944 211.486 194.992 211.106 196.394 212.088C197.809 213.084 199.394 212.796 200.796 211.813C201.831 211.093 202.84 210.359 203.862 209.626C204.504 209.167 204.949 209.298 205.421 209.966C207.072 212.285 209.05 212.324 210.963 210.11C211.343 209.678 211.684 209.207 212.024 208.748C214.12 205.893 216.819 203.902 220.134 202.553C222.99 201.4 225.676 199.828 228.454 198.479C230.668 197.418 231.48 195.204 232.685 193.358C236.393 187.634 239.21 181.425 242.027 175.242C242.407 174.391 242.747 173.775 243.835 173.985C244.411 174.103 245.093 173.946 245.368 173.396C246.01 172.112 247.176 171.64 248.355 171.025C249.966 170.186 251.106 168.824 252.023 167.252C252.272 166.82 252.574 166.021 253.255 166.309C253.766 166.532 253.465 167.252 253.504 167.724L253.53 167.75Z" fill="#1B9C9F"/>
<path d="M253.53 167.75C253.438 168.418 253.451 169.034 253.805 169.597C254.775 171.143 254.853 172.701 253.74 173.946C252.495 175.347 251.709 177.115 250.163 178.268C249.324 178.897 250.242 179.264 250.556 179.604C253.884 183.075 257.212 186.573 260.618 189.965C262.872 192.218 265.177 194.432 267.444 196.645C268.807 197.981 269.147 200.457 268.754 202.592C268.531 203.758 267.903 204.701 266.907 205.552C257.33 213.752 247.923 222.148 238.267 230.243C223.318 242.791 210.085 257.108 196.276 270.822C194.009 273.062 191.808 275.38 189.62 277.698C188.952 278.406 188.533 278.419 187.917 277.607C183.07 271.228 178.157 264.914 173.335 258.509C172.208 257.016 171.763 255.117 170.728 253.519C169.994 252.379 169.169 252.052 168.003 252.287C167.243 252.445 166.404 252.589 165.776 252.995C163.548 254.409 161.007 254.436 158.543 254.868C157.561 255.038 156.735 254.396 155.713 254.488C154.98 254.553 154.744 253.257 155.347 252.68C156.408 251.672 157.43 250.611 158.596 249.733C160.64 248.201 161.059 246.197 160.417 243.904C160.076 242.673 160.181 241.809 161.373 241.141C162.055 240.761 162.631 240.211 163.26 239.739C165.972 237.722 166.68 235.823 165.762 232.574C165.527 231.736 165.592 231.369 166.47 231.382C167.348 231.382 167.623 230.806 167.806 230.112C168.16 228.802 168.92 228.068 170.348 227.99C171.54 227.924 172.549 227.558 173.466 226.549C174.396 225.514 175.995 225.423 177.331 225.003C179.27 224.388 180.266 222.764 179.794 220.786C179.545 219.712 180.331 219.777 180.869 219.699C183.109 219.358 185.192 218.441 187.367 217.878C188.048 217.708 188.625 217.393 189.005 216.751C190.027 215.075 191.533 213.83 192.922 212.481C193.944 211.486 194.992 211.106 196.394 212.088C197.809 213.084 199.394 212.796 200.796 211.813C201.831 211.093 202.84 210.359 203.862 209.626C204.504 209.167 204.949 209.298 205.421 209.966C207.072 212.285 209.05 212.324 210.963 210.11C211.343 209.678 211.684 209.207 212.024 208.748C214.12 205.893 216.819 203.902 220.134 202.553C222.99 201.4 225.676 199.828 228.454 198.479C230.668 197.418 231.48 195.204 232.685 193.358C236.393 187.634 239.21 181.425 242.027 175.242C242.407 174.391 242.747 173.775 243.835 173.985C244.411 174.103 245.093 173.946 245.368 173.396C246.01 172.112 247.176 171.64 248.355 171.025C249.966 170.186 251.106 168.824 252.023 167.252C252.272 166.82 252.574 166.021 253.255 166.309C253.766 166.532 253.465 167.252 253.504 167.724L253.53 167.75Z" fill="white" fill-opacity="0.8"/>
<path d="M74.0107 128.81C74.9148 128.457 75.4781 128.81 76.0546 129.491C76.7883 130.369 77.9019 130.382 78.9631 130.317C84.2824 129.989 89.6148 129.78 94.9471 129.714C96.2311 129.701 97.4233 129.57 98.4321 128.614C99.3361 127.762 100.332 128.313 101.223 128.679C102.769 129.321 104.249 130.12 105.808 130.736C107.918 131.561 108.638 131.325 109.87 129.387C112.241 125.68 114.927 122.117 116.774 118.174C117.98 115.594 119.513 115.437 121.74 115.594C125.762 115.869 129.784 116.039 133.793 116.236C134.724 116.288 135.261 116.524 134.606 117.559C133.99 118.528 133.558 119.668 132.785 120.48C131.422 121.907 130.23 123.335 130.02 125.405C129.928 126.322 129.103 126.767 128.264 127.016C127.426 127.265 126.666 127.697 126.26 128.444C124.976 130.801 122.723 131.771 120.417 132.635C119.513 132.976 118.975 133.434 119.067 134.443C119.146 135.464 118.622 136.132 117.796 136.617C116.381 137.455 115.595 138.831 114.744 140.14C114.259 140.887 114.193 141.752 114.442 142.564C115.006 144.384 114.351 145.733 112.896 146.755C112.189 147.253 111.783 147.842 111.717 148.681C111.639 149.715 111.56 150.763 111.481 151.811C111.35 153.619 110.617 154.942 108.861 155.741C105.848 157.103 103.385 159.251 102.336 162.395C101.668 164.425 100.568 166.141 99.572 167.935C98.9824 168.996 98.4714 170.07 98.0915 171.197C97.5936 172.716 97.0958 174.17 95.6284 175.061C95.0912 175.388 94.9733 175.965 95.1043 176.593C95.3926 178.008 95.0126 179.292 94.3051 180.497C93.1391 182.488 92.4447 184.701 91.2 186.666C90.4926 187.793 90.4139 189.063 91.7634 189.98C92.7722 190.661 92.3661 191.185 91.6193 191.788C86.3393 195.992 81.0332 200.171 75.8057 204.428C72.4385 207.178 69.0583 209.903 65.9402 212.915C62.7041 216.046 60.4113 219.989 57.5944 223.512C55.7995 225.765 54.0963 228.083 52.4062 230.415C51.6856 231.397 51.2008 231.463 50.4279 230.415C48.8819 228.28 48.8557 227.979 50.5065 225.634C51.1353 224.743 51.0698 223.708 50.5065 222.818C49.0129 220.486 47.4538 218.181 45.9078 215.876C45.3051 214.972 44.257 215.05 43.3792 214.788C42.3311 214.474 42.1214 214.068 42.3966 212.863C42.9861 210.191 44.4666 207.65 43.1434 204.663C42.1214 202.345 41.7284 199.751 41.0602 197.263C40.5099 195.219 39.4618 193.517 37.7717 192.233C34.1819 189.508 30.7754 186.587 27.5917 183.378C26.7532 182.54 26.8057 182.16 27.8276 181.741C28.7971 181.348 29.7404 180.89 30.7361 180.549C34.8893 179.082 38.2696 176.515 41.2174 173.332C41.6629 172.847 42.0428 172.585 42.6848 172.887C44.257 173.62 45.7113 173.581 46.9821 172.232C47.2966 171.904 47.7551 171.603 48.253 171.786C49.5238 172.258 50.4934 171.721 51.3974 170.922C54.5549 168.119 58.695 167.647 62.442 166.272C64.5514 165.499 66.7525 164.975 68.888 164.268C71.6656 163.351 73.8666 161.648 75.4781 159.212C76.4345 157.758 76.3821 156.88 75.0065 155.859C73.3295 154.627 72.8316 153.121 72.8054 151.038C72.753 144.24 72.4516 137.455 72.2289 130.657C72.1896 129.374 72.1503 128.208 73.9714 128.797L74.0107 128.81Z" fill="#1B9C9F"/>
<path d="M74.0107 128.81C74.9148 128.457 75.4781 128.81 76.0546 129.491C76.7883 130.369 77.9019 130.382 78.9631 130.317C84.2824 129.989 89.6148 129.78 94.9471 129.714C96.2311 129.701 97.4233 129.57 98.4321 128.614C99.3361 127.762 100.332 128.313 101.223 128.679C102.769 129.321 104.249 130.12 105.808 130.736C107.918 131.561 108.638 131.325 109.87 129.387C112.241 125.68 114.927 122.117 116.774 118.174C117.98 115.594 119.513 115.437 121.74 115.594C125.762 115.869 129.784 116.039 133.793 116.236C134.724 116.288 135.261 116.524 134.606 117.559C133.99 118.528 133.558 119.668 132.785 120.48C131.422 121.907 130.23 123.335 130.02 125.405C129.928 126.322 129.103 126.767 128.264 127.016C127.426 127.265 126.666 127.697 126.26 128.444C124.976 130.801 122.723 131.771 120.417 132.635C119.513 132.976 118.975 133.434 119.067 134.443C119.146 135.464 118.622 136.132 117.796 136.617C116.381 137.455 115.595 138.831 114.744 140.14C114.259 140.887 114.193 141.752 114.442 142.564C115.006 144.384 114.351 145.733 112.896 146.755C112.189 147.253 111.783 147.842 111.717 148.681C111.639 149.715 111.56 150.763 111.481 151.811C111.35 153.619 110.617 154.942 108.861 155.741C105.848 157.103 103.385 159.251 102.336 162.395C101.668 164.425 100.568 166.141 99.572 167.935C98.9824 168.996 98.4714 170.07 98.0915 171.197C97.5936 172.716 97.0958 174.17 95.6284 175.061C95.0912 175.388 94.9733 175.965 95.1043 176.593C95.3926 178.008 95.0126 179.292 94.3051 180.497C93.1391 182.488 92.4447 184.701 91.2 186.666C90.4926 187.793 90.4139 189.063 91.7634 189.98C92.7722 190.661 92.3661 191.185 91.6193 191.788C86.3393 195.992 81.0332 200.171 75.8057 204.428C72.4385 207.178 69.0583 209.903 65.9402 212.915C62.7041 216.046 60.4113 219.989 57.5944 223.512C55.7995 225.765 54.0963 228.083 52.4062 230.415C51.6856 231.397 51.2008 231.463 50.4279 230.415C48.8819 228.28 48.8557 227.979 50.5065 225.634C51.1353 224.743 51.0698 223.708 50.5065 222.818C49.0129 220.486 47.4538 218.181 45.9078 215.876C45.3051 214.972 44.257 215.05 43.3792 214.788C42.3311 214.474 42.1214 214.068 42.3966 212.863C42.9861 210.191 44.4666 207.65 43.1434 204.663C42.1214 202.345 41.7284 199.751 41.0602 197.263C40.5099 195.219 39.4618 193.517 37.7717 192.233C34.1819 189.508 30.7754 186.587 27.5917 183.378C26.7532 182.54 26.8057 182.16 27.8276 181.741C28.7971 181.348 29.7404 180.89 30.7361 180.549C34.8893 179.082 38.2696 176.515 41.2174 173.332C41.6629 172.847 42.0428 172.585 42.6848 172.887C44.257 173.62 45.7113 173.581 46.9821 172.232C47.2966 171.904 47.7551 171.603 48.253 171.786C49.5238 172.258 50.4934 171.721 51.3974 170.922C54.5549 168.119 58.695 167.647 62.442 166.272C64.5514 165.499 66.7525 164.975 68.888 164.268C71.6656 163.351 73.8666 161.648 75.4781 159.212C76.4345 157.758 76.3821 156.88 75.0065 155.859C73.3295 154.627 72.8316 153.121 72.8054 151.038C72.753 144.24 72.4516 137.455 72.2289 130.657C72.1896 129.374 72.1503 128.208 73.9714 128.797L74.0107 128.81Z" fill="white" fill-opacity="0.8"/>
<path d="M0.065508 172.098C0.144118 171.43 0.262032 170.749 0.314439 170.081C0.353743 169.387 0.668182 169.007 1.37567 168.981C2.60722 168.942 3.07888 168.352 3.10508 167.082C3.13128 165.968 4.14011 165.3 4.9262 164.632C5.55508 164.095 6.02674 163.558 5.98743 162.668C5.94813 161.882 6.44599 161.279 6.91765 160.729C7.50722 160.048 8.01818 159.354 8.30642 158.476C8.43743 158.096 8.72567 157.756 8.9877 157.441C9.39385 156.97 10.4682 157.546 10.4813 156.93C10.5206 154.861 12.4072 153.459 12.2893 151.351C12.25 150.591 12.2893 149.923 11.6473 149.373C11.346 149.111 11.1102 148.731 10.9005 148.377C9.64278 146.229 10.2586 144.539 12.1714 142.928C13.9925 141.396 16.508 140.099 16.0233 136.982C15.9971 136.837 16.0233 136.628 16.1281 136.549C18.054 134.755 18.7615 132.083 20.5433 130.288C21.657 129.175 22.4955 128.271 22.4955 126.673C22.4955 126.215 22.9147 125.822 23.3471 125.612C25.0765 124.761 25.8757 123.346 25.9281 121.46C25.9543 120.412 26.0329 119.377 26.0591 118.329C26.0591 118.067 26.1115 117.688 25.9674 117.57C24.9717 116.731 23.9104 115.985 25.3778 114.622C25.5481 114.452 25.0896 114.125 24.8668 113.928C24.4738 113.601 24.4738 113.195 24.7096 112.802C26.8714 109.305 28.0767 105.257 30.8281 102.087C31.5356 101.262 31.8893 100.293 31.0115 99.258C30.2385 98.3542 31.1818 97.5028 31.2997 96.6514C31.5225 94.87 32.7802 93.7567 34.5489 93.2589C35.0599 93.1148 35.3219 93.4161 35.6626 93.6257C37.3789 94.6736 38.3091 94.4902 39.4882 92.9053C40.104 92.0801 41.1128 91.5692 41.4273 90.4821C41.5059 90.2201 41.7286 90.0367 42.03 90.1022C42.4492 90.1808 42.5802 90.5083 42.685 90.8881C43.5497 94.4378 43.6021 94.464 47.2837 94.5295C53.5594 94.6474 59.7957 95.5643 66.0583 95.9048C68.1021 96.0227 68.1414 96.2192 68.1939 98.3411C68.3904 107.235 68.6131 116.116 68.8227 125.01C68.8358 125.822 68.9144 126.686 69.6088 127.132C70.6832 127.826 70.6832 128.808 70.7094 129.869C70.9059 137.663 71.1548 145.443 71.3251 153.237C71.3644 154.874 72.4781 155.686 73.5393 156.446C74.6923 157.284 74.6398 157.9 73.8669 158.974C72.5829 160.768 70.8797 161.934 68.8882 162.615C64.4861 164.135 60.0447 165.575 55.577 166.898C53.5987 167.488 51.9741 168.536 50.4019 169.741C50.0088 170.042 49.5503 170.671 49.0524 170.252C47.9388 169.348 47.2051 169.99 46.4976 170.71C45.4626 171.771 44.3489 172.072 42.9995 171.326C41.8465 170.684 41.0604 171.077 40.1957 172.098C37.9816 174.705 35.4267 176.932 32.1906 178.229C30.5398 178.897 28.8759 179.538 27.2906 180.35C26.1246 180.94 25.5481 180.547 25.1027 179.512C24.6048 178.346 24.3559 177.089 24.2642 175.858C23.8842 170.121 23.5174 164.383 23.5698 158.62C23.5698 157.428 24.1987 156.42 24.4345 155.293C24.5131 154.9 24.7489 154.442 24.3166 154.14C23.9104 153.852 23.5043 154.088 23.1505 154.324C22.3513 154.848 21.6963 155.503 21.1329 156.276C20.3861 157.271 19.6655 158.332 18.3422 158.686C18.0671 158.764 17.9361 158.974 17.8575 159.236C16.9273 162.222 14.9358 164.305 12.1976 165.733C11.0578 166.322 10.4682 167.409 9.86551 168.418C9.18423 169.57 8.26711 170.252 7.03556 170.736C5.63369 171.299 4.19251 171.771 2.94786 172.714C2.09626 173.369 1.06123 172.426 0.0917112 172.78C-0.0393048 172.832 -0.0131016 172.334 0.065508 172.085V172.098Z" fill="#1B9C9F"/>
<path d="M0.065508 172.098C0.144118 171.43 0.262032 170.749 0.314439 170.081C0.353743 169.387 0.668182 169.007 1.37567 168.981C2.60722 168.942 3.07888 168.352 3.10508 167.082C3.13128 165.968 4.14011 165.3 4.9262 164.632C5.55508 164.095 6.02674 163.558 5.98743 162.668C5.94813 161.882 6.44599 161.279 6.91765 160.729C7.50722 160.048 8.01818 159.354 8.30642 158.476C8.43743 158.096 8.72567 157.756 8.9877 157.441C9.39385 156.97 10.4682 157.546 10.4813 156.93C10.5206 154.861 12.4072 153.459 12.2893 151.351C12.25 150.591 12.2893 149.923 11.6473 149.373C11.346 149.111 11.1102 148.731 10.9005 148.377C9.64278 146.229 10.2586 144.539 12.1714 142.928C13.9925 141.396 16.508 140.099 16.0233 136.982C15.9971 136.837 16.0233 136.628 16.1281 136.549C18.054 134.755 18.7615 132.083 20.5433 130.288C21.657 129.175 22.4955 128.271 22.4955 126.673C22.4955 126.215 22.9147 125.822 23.3471 125.612C25.0765 124.761 25.8757 123.346 25.9281 121.46C25.9543 120.412 26.0329 119.377 26.0591 118.329C26.0591 118.067 26.1115 117.688 25.9674 117.57C24.9717 116.731 23.9104 115.985 25.3778 114.622C25.5481 114.452 25.0896 114.125 24.8668 113.928C24.4738 113.601 24.4738 113.195 24.7096 112.802C26.8714 109.305 28.0767 105.257 30.8281 102.087C31.5356 101.262 31.8893 100.293 31.0115 99.258C30.2385 98.3542 31.1818 97.5028 31.2997 96.6514C31.5225 94.87 32.7802 93.7567 34.5489 93.2589C35.0599 93.1148 35.3219 93.4161 35.6626 93.6257C37.3789 94.6736 38.3091 94.4902 39.4882 92.9053C40.104 92.0801 41.1128 91.5692 41.4273 90.4821C41.5059 90.2201 41.7286 90.0367 42.03 90.1022C42.4492 90.1808 42.5802 90.5083 42.685 90.8881C43.5497 94.4378 43.6021 94.464 47.2837 94.5295C53.5594 94.6474 59.7957 95.5643 66.0583 95.9048C68.1021 96.0227 68.1414 96.2192 68.1939 98.3411C68.3904 107.235 68.6131 116.116 68.8227 125.01C68.8358 125.822 68.9144 126.686 69.6088 127.132C70.6832 127.826 70.6832 128.808 70.7094 129.869C70.9059 137.663 71.1548 145.443 71.3251 153.237C71.3644 154.874 72.4781 155.686 73.5393 156.446C74.6923 157.284 74.6398 157.9 73.8669 158.974C72.5829 160.768 70.8797 161.934 68.8882 162.615C64.4861 164.135 60.0447 165.575 55.577 166.898C53.5987 167.488 51.9741 168.536 50.4019 169.741C50.0088 170.042 49.5503 170.671 49.0524 170.252C47.9388 169.348 47.2051 169.99 46.4976 170.71C45.4626 171.771 44.3489 172.072 42.9995 171.326C41.8465 170.684 41.0604 171.077 40.1957 172.098C37.9816 174.705 35.4267 176.932 32.1906 178.229C30.5398 178.897 28.8759 179.538 27.2906 180.35C26.1246 180.94 25.5481 180.547 25.1027 179.512C24.6048 178.346 24.3559 177.089 24.2642 175.858C23.8842 170.121 23.5174 164.383 23.5698 158.62C23.5698 157.428 24.1987 156.42 24.4345 155.293C24.5131 154.9 24.7489 154.442 24.3166 154.14C23.9104 153.852 23.5043 154.088 23.1505 154.324C22.3513 154.848 21.6963 155.503 21.1329 156.276C20.3861 157.271 19.6655 158.332 18.3422 158.686C18.0671 158.764 17.9361 158.974 17.8575 159.236C16.9273 162.222 14.9358 164.305 12.1976 165.733C11.0578 166.322 10.4682 167.409 9.86551 168.418C9.18423 169.57 8.26711 170.252 7.03556 170.736C5.63369 171.299 4.19251 171.771 2.94786 172.714C2.09626 173.369 1.06123 172.426 0.0917112 172.78C-0.0393048 172.832 -0.0131016 172.334 0.065508 172.085V172.098Z" fill="white" fill-opacity="0.8"/>
<path d="M69.7146 99.6926C69.9766 98.2387 69.4264 96.7847 70.1339 95.3439C70.5269 94.558 69.5443 94.6628 69.1381 94.6235C66.1117 94.3484 63.0983 94.1257 60.0718 93.9162C55.2766 93.5756 50.4945 92.9207 45.6732 92.9338C44.2975 92.9338 44.2844 91.9776 44.2844 90.9821C44.2844 89.1876 43.7472 88.5851 42.0964 88.3624C41.402 88.2707 40.6945 88.4279 40.4718 89.0436C40.0133 90.3403 38.8079 91.0083 38.1528 92.1086C37.8777 92.567 37.6419 92.9207 37.0654 92.6587C36.371 92.3444 36.7772 91.8859 36.9475 91.4799C37.9301 88.9519 39.4237 86.6727 40.0788 83.9745C40.9959 80.1759 41.1924 76.325 41.4151 72.474C41.6772 67.8896 41.5724 67.8241 46.0924 67.8896C48.7389 67.9289 51.2675 67.549 53.8355 66.9072C56.1937 66.3178 58.7879 66.6059 61.1068 65.9248C64.2774 64.9817 66.8584 66.2916 69.7146 67.0906C73.1472 68.0468 76.4619 69.2256 79.7766 70.47C81.2571 71.0201 81.375 71.7012 80.8248 73.0504C79.2002 76.9537 79.2526 76.9668 82.5542 79.6782C88.9085 84.9045 95.7737 89.4365 102.272 94.4663C103.595 95.488 104.906 96.5359 106.268 97.5052C107.696 98.5268 108.508 98.3827 109.596 96.9943C110.369 96.0119 111.103 94.9772 111.876 93.9948C112.806 92.8028 113.959 92.8552 114.706 94.1519C115.125 94.8986 115.727 95.3832 116.474 95.1081C118.61 94.3091 120.942 94.6628 123.064 93.8245C124.086 93.4184 124.885 92.9207 125.514 92.0038C127.781 88.6768 130.113 85.376 132.406 82.0752C132.773 81.5512 133.126 81.0404 133.729 80.7653C136.297 79.5996 137.62 77.3728 138.629 74.9103C138.996 74.0327 139.337 73.9149 140.123 74.4257C142.625 76.0368 145.154 77.6217 147.695 79.1935C148.874 79.927 149.163 80.9094 148.665 82.1407C148.088 83.5422 147.525 84.9045 147.735 86.5156C147.826 87.2753 147.525 88.2838 147.027 88.8733C145.285 90.9821 144.905 93.497 144.551 96.0381C144.459 96.7323 144.21 97.348 143.909 97.9636C142.062 101.762 139.9 105.43 139.363 109.765C139.206 111.036 138.066 111.887 136.664 112.031C135.616 112.136 134.895 112.608 134.607 113.656C134.397 114.455 133.808 114.69 133.048 114.651C129.602 114.494 126.143 114.415 122.711 114.166C121.086 114.048 119.474 114.035 117.85 113.996C117.182 113.983 116.5 114.114 116.383 114.887C115.898 118.096 113.553 120.31 112.085 122.995C111.063 124.868 109.766 126.61 108.692 128.457C108.063 129.557 107.356 129.701 106.242 129.269C104.814 128.719 103.504 127.946 102.115 127.357C100.372 126.61 98.5774 125.837 96.9528 127.71C96.5598 128.169 95.8916 128.077 95.3151 128.103C90.14 128.313 84.9649 128.509 79.7897 128.732C78.4534 128.784 77.2742 128.771 76.3309 127.474C75.8068 126.754 74.9552 126.007 73.6713 126.964C72.7673 127.645 70.3959 125.837 70.3566 124.58C70.2387 120.034 70.0552 115.476 70.0552 110.931C70.0552 107.159 69.8194 103.399 69.6884 99.6664L69.7146 99.6926Z" fill="#1B9C9F"/>
<path d="M69.7146 99.6926C69.9766 98.2387 69.4264 96.7847 70.1339 95.3439C70.5269 94.558 69.5443 94.6628 69.1381 94.6235C66.1117 94.3484 63.0983 94.1257 60.0718 93.9162C55.2766 93.5756 50.4945 92.9207 45.6732 92.9338C44.2975 92.9338 44.2844 91.9776 44.2844 90.9821C44.2844 89.1876 43.7472 88.5851 42.0964 88.3624C41.402 88.2707 40.6945 88.4279 40.4718 89.0436C40.0133 90.3403 38.8079 91.0083 38.1528 92.1086C37.8777 92.567 37.6419 92.9207 37.0654 92.6587C36.371 92.3444 36.7772 91.8859 36.9475 91.4799C37.9301 88.9519 39.4237 86.6727 40.0788 83.9745C40.9959 80.1759 41.1924 76.325 41.4151 72.474C41.6772 67.8896 41.5724 67.8241 46.0924 67.8896C48.7389 67.9289 51.2675 67.549 53.8355 66.9072C56.1937 66.3178 58.7879 66.6059 61.1068 65.9248C64.2774 64.9817 66.8584 66.2916 69.7146 67.0906C73.1472 68.0468 76.4619 69.2256 79.7766 70.47C81.2571 71.0201 81.375 71.7012 80.8248 73.0504C79.2002 76.9537 79.2526 76.9668 82.5542 79.6782C88.9085 84.9045 95.7737 89.4365 102.272 94.4663C103.595 95.488 104.906 96.5359 106.268 97.5052C107.696 98.5268 108.508 98.3827 109.596 96.9943C110.369 96.0119 111.103 94.9772 111.876 93.9948C112.806 92.8028 113.959 92.8552 114.706 94.1519C115.125 94.8986 115.727 95.3832 116.474 95.1081C118.61 94.3091 120.942 94.6628 123.064 93.8245C124.086 93.4184 124.885 92.9207 125.514 92.0038C127.781 88.6768 130.113 85.376 132.406 82.0752C132.773 81.5512 133.126 81.0404 133.729 80.7653C136.297 79.5996 137.62 77.3728 138.629 74.9103C138.996 74.0327 139.337 73.9149 140.123 74.4257C142.625 76.0368 145.154 77.6217 147.695 79.1935C148.874 79.927 149.163 80.9094 148.665 82.1407C148.088 83.5422 147.525 84.9045 147.735 86.5156C147.826 87.2753 147.525 88.2838 147.027 88.8733C145.285 90.9821 144.905 93.497 144.551 96.0381C144.459 96.7323 144.21 97.348 143.909 97.9636C142.062 101.762 139.9 105.43 139.363 109.765C139.206 111.036 138.066 111.887 136.664 112.031C135.616 112.136 134.895 112.608 134.607 113.656C134.397 114.455 133.808 114.69 133.048 114.651C129.602 114.494 126.143 114.415 122.711 114.166C121.086 114.048 119.474 114.035 117.85 113.996C117.182 113.983 116.5 114.114 116.383 114.887C115.898 118.096 113.553 120.31 112.085 122.995C111.063 124.868 109.766 126.61 108.692 128.457C108.063 129.557 107.356 129.701 106.242 129.269C104.814 128.719 103.504 127.946 102.115 127.357C100.372 126.61 98.5774 125.837 96.9528 127.71C96.5598 128.169 95.8916 128.077 95.3151 128.103C90.14 128.313 84.9649 128.509 79.7897 128.732C78.4534 128.784 77.2742 128.771 76.3309 127.474C75.8068 126.754 74.9552 126.007 73.6713 126.964C72.7673 127.645 70.3959 125.837 70.3566 124.58C70.2387 120.034 70.0552 115.476 70.0552 110.931C70.0552 107.159 69.8194 103.399 69.6884 99.6664L69.7146 99.6926Z" fill="white" fill-opacity="0.8"/>
<path d="M177.251 201.007C177.63 199.029 177.499 196.829 177.526 194.628C177.526 193.174 177.709 191.72 176.766 190.397C176.202 189.598 176.831 188.577 176.609 187.634C176.32 186.35 177.657 186.389 178.312 185.996C180.683 184.569 183.12 183.233 185.583 181.962C186.723 181.373 187.077 180.809 186.251 179.683C185.387 178.517 185.007 176.618 183.736 176.225C182.452 175.832 181.43 177.548 180.264 178.308C179.386 178.871 178.6 179.093 177.644 178.596C176.936 178.229 176.176 178.032 175.377 178.085C174.329 178.15 173.504 177.954 173.359 176.696C173.294 176.146 172.796 176.002 172.311 175.911C170.032 175.518 168.289 174.26 166.835 172.518C165.76 171.234 164.712 169.925 163.546 168.733C161.83 166.99 159.721 166.349 157.375 167.174C153.117 168.68 148.794 169.885 144.392 170.881C143.959 170.986 143.409 171.365 143.082 170.907C142.767 170.475 143.226 170.016 143.435 169.623C144.497 167.672 146.095 166.126 147.458 164.41C148.781 162.76 149.279 160.782 150.012 158.883C150.366 157.966 149.724 157.285 149.108 156.695C147.261 154.914 145.545 153.014 143.972 150.971C143.422 150.251 143.488 149.687 143.553 148.784C143.697 146.845 144.916 145.784 145.78 144.33C146.698 142.798 147.326 141.121 148.61 139.772C149.239 139.104 149.069 138.122 148.388 137.493C145.23 134.598 145.243 130.433 144.143 126.739C143.71 125.298 144.654 123.792 144.994 122.325C145.492 120.19 146.658 118.251 146.894 116.024C146.973 115.265 147.444 115.094 148.139 115.409C151.021 116.745 154.074 117.4 157.244 117.531C157.847 117.557 158.135 118.015 158.437 118.448C162.957 124.879 168.394 130.59 173.124 136.825C177.198 142.208 180.919 147.88 181.64 154.901C181.692 155.451 181.875 155.948 182.36 156.224C183.566 156.892 183.998 158.044 184.417 159.249C186.644 165.641 189.763 171.64 192.514 177.797C196.706 187.162 200.991 196.475 205.262 205.801C205.707 206.757 205.537 207.19 204.58 207.569C203.061 208.172 201.737 209.089 200.467 210.124C198.803 211.486 197.755 211.368 196.261 209.849C193.916 207.465 191.741 204.897 188.597 203.457C187.758 203.077 186.959 202.828 186.055 202.828C183.644 202.854 181.233 202.854 178.823 202.828C177.408 202.815 177.211 202.566 177.251 200.942V201.007Z" fill="#1B9C9F"/>
<path d="M177.251 201.007C177.63 199.029 177.499 196.829 177.526 194.628C177.526 193.174 177.709 191.72 176.766 190.397C176.202 189.598 176.831 188.577 176.609 187.634C176.32 186.35 177.657 186.389 178.312 185.996C180.683 184.569 183.12 183.233 185.583 181.962C186.723 181.373 187.077 180.809 186.251 179.683C185.387 178.517 185.007 176.618 183.736 176.225C182.452 175.832 181.43 177.548 180.264 178.308C179.386 178.871 178.6 179.093 177.644 178.596C176.936 178.229 176.176 178.032 175.377 178.085C174.329 178.15 173.504 177.954 173.359 176.696C173.294 176.146 172.796 176.002 172.311 175.911C170.032 175.518 168.289 174.26 166.835 172.518C165.76 171.234 164.712 169.925 163.546 168.733C161.83 166.99 159.721 166.349 157.375 167.174C153.117 168.68 148.794 169.885 144.392 170.881C143.959 170.986 143.409 171.365 143.082 170.907C142.767 170.475 143.226 170.016 143.435 169.623C144.497 167.672 146.095 166.126 147.458 164.41C148.781 162.76 149.279 160.782 150.012 158.883C150.366 157.966 149.724 157.285 149.108 156.695C147.261 154.914 145.545 153.014 143.972 150.971C143.422 150.251 143.488 149.687 143.553 148.784C143.697 146.845 144.916 145.784 145.78 144.33C146.698 142.798 147.326 141.121 148.61 139.772C149.239 139.104 149.069 138.122 148.388 137.493C145.23 134.598 145.243 130.433 144.143 126.739C143.71 125.298 144.654 123.792 144.994 122.325C145.492 120.19 146.658 118.251 146.894 116.024C146.973 115.265 147.444 115.094 148.139 115.409C151.021 116.745 154.074 117.4 157.244 117.531C157.847 117.557 158.135 118.015 158.437 118.448C162.957 124.879 168.394 130.59 173.124 136.825C177.198 142.208 180.919 147.88 181.64 154.901C181.692 155.451 181.875 155.948 182.36 156.224C183.566 156.892 183.998 158.044 184.417 159.249C186.644 165.641 189.763 171.64 192.514 177.797C196.706 187.162 200.991 196.475 205.262 205.801C205.707 206.757 205.537 207.19 204.58 207.569C203.061 208.172 201.737 209.089 200.467 210.124C198.803 211.486 197.755 211.368 196.261 209.849C193.916 207.465 191.741 204.897 188.597 203.457C187.758 203.077 186.959 202.828 186.055 202.828C183.644 202.854 181.233 202.854 178.823 202.828C177.408 202.815 177.211 202.566 177.251 200.942V201.007Z" fill="white" fill-opacity="0.8"/>
<path d="M122.461 176.515C120.076 176.318 117.98 177.471 115.74 177.916C112.071 178.636 108.901 180.431 105.809 182.435C102.429 184.636 98.9566 186.692 95.5633 188.866C94.5938 189.482 93.7684 189.652 92.8906 188.84C91.9472 187.976 92.6678 187.255 93.0609 186.482C94.2269 184.151 95.7598 181.885 96.4018 179.409C96.9521 177.287 97.7119 175.506 98.7732 173.594C100.241 170.921 101.236 168.001 103.005 165.446C103.791 164.307 103.66 162.683 104.512 161.386C105.678 159.604 107.171 158.216 109.058 157.417C111.993 156.186 113.146 153.972 113.093 150.999C113.067 149.44 113.381 148.248 114.77 147.226C115.962 146.336 116.539 144.725 116.185 143.258C115.622 140.952 116.827 139.538 118.281 138.228C119.395 137.219 120.836 136.525 120.771 134.678C120.758 134.154 121.334 133.997 121.766 133.787C124.007 132.74 126.234 131.718 127.518 129.399C127.833 128.836 128.435 128.614 129.038 128.352C130.558 127.71 131.789 126.819 131.724 124.907C131.698 124.265 131.933 123.636 132.431 123.204C134.095 121.763 135.038 119.824 136.165 118.004C137.253 116.249 137.881 116.144 139.585 117.231C140.672 117.912 141.904 118.226 143.109 118.528C144.327 118.816 144.498 119.405 144.052 120.44C143.803 121.016 143.672 121.632 143.463 122.235C142.598 124.828 142.519 127.33 143.384 130.028C144.275 132.805 144.589 135.765 146.804 137.953C147.498 138.634 147.197 139.249 146.568 139.826C145.638 140.677 144.773 141.529 144.786 142.983C144.786 143.926 143.83 144.279 143.188 144.803C142.402 145.432 141.537 146.008 142.153 147.253C142.257 147.449 142.257 147.868 142.126 147.986C140.62 149.44 141.838 150.593 142.611 151.654C144.052 153.645 145.572 155.596 147.459 157.194C148.389 157.98 148.572 158.74 148.101 159.919C147.367 161.739 146.437 163.377 145.14 164.857C143.803 166.389 142.428 167.922 141.615 169.834C141.353 170.45 140.882 170.804 140.266 171.079C135.628 173.148 130.898 174.982 125.907 176.069C124.78 176.318 123.666 176.58 122.5 176.488L122.461 176.515Z" fill="#1B9C9F"/>
<path d="M122.461 176.515C120.076 176.318 117.98 177.471 115.74 177.916C112.071 178.636 108.901 180.431 105.809 182.435C102.429 184.636 98.9566 186.692 95.5633 188.866C94.5938 189.482 93.7684 189.652 92.8906 188.84C91.9472 187.976 92.6678 187.255 93.0609 186.482C94.2269 184.151 95.7598 181.885 96.4018 179.409C96.9521 177.287 97.7119 175.506 98.7732 173.594C100.241 170.921 101.236 168.001 103.005 165.446C103.791 164.307 103.66 162.683 104.512 161.386C105.678 159.604 107.171 158.216 109.058 157.417C111.993 156.186 113.146 153.972 113.093 150.999C113.067 149.44 113.381 148.248 114.77 147.226C115.962 146.336 116.539 144.725 116.185 143.258C115.622 140.952 116.827 139.538 118.281 138.228C119.395 137.219 120.836 136.525 120.771 134.678C120.758 134.154 121.334 133.997 121.766 133.787C124.007 132.74 126.234 131.718 127.518 129.399C127.833 128.836 128.435 128.614 129.038 128.352C130.558 127.71 131.789 126.819 131.724 124.907C131.698 124.265 131.933 123.636 132.431 123.204C134.095 121.763 135.038 119.824 136.165 118.004C137.253 116.249 137.881 116.144 139.585 117.231C140.672 117.912 141.904 118.226 143.109 118.528C144.327 118.816 144.498 119.405 144.052 120.44C143.803 121.016 143.672 121.632 143.463 122.235C142.598 124.828 142.519 127.33 143.384 130.028C144.275 132.805 144.589 135.765 146.804 137.953C147.498 138.634 147.197 139.249 146.568 139.826C145.638 140.677 144.773 141.529 144.786 142.983C144.786 143.926 143.83 144.279 143.188 144.803C142.402 145.432 141.537 146.008 142.153 147.253C142.257 147.449 142.257 147.868 142.126 147.986C140.62 149.44 141.838 150.593 142.611 151.654C144.052 153.645 145.572 155.596 147.459 157.194C148.389 157.98 148.572 158.74 148.101 159.919C147.367 161.739 146.437 163.377 145.14 164.857C143.803 166.389 142.428 167.922 141.615 169.834C141.353 170.45 140.882 170.804 140.266 171.079C135.628 173.148 130.898 174.982 125.907 176.069C124.78 176.318 123.666 176.58 122.5 176.488L122.461 176.515Z" fill="white" fill-opacity="0.8"/>
</g>
<defs>
<clipPath id="clip0_124_12854">
<rect width="343" height="308.94" fill="white"/>
</clipPath>
</defs>
</svg>
