<svg width="38" height="45" viewBox="0 0 38 45" fill="none" xmlns="http://www.w3.org/2000/svg">
<path d="M32.9727 17.4683L30.1094 22.4251V23.6983L32.9727 17.4683Z" fill="#331C10"/>
<path d="M29.678 11.1995C29.5933 15.6782 22.3151 15.6782 22.2305 11.1995C22.3151 6.71442 29.5933 6.71442 29.678 11.1995Z" fill="#016256"/>
<path d="M31.8868 9.49337C31.8304 12.2336 27.3873 12.2336 27.3379 9.49337C27.3873 6.75319 31.8304 6.75319 31.8868 9.49337Z" fill="#016256"/>
<path d="M37.2599 14.4827C37.1118 22.4512 24.1703 22.4512 24.0293 14.4827C24.1774 6.51422 37.1118 6.51422 37.2599 14.4827Z" fill="#016256"/>
<g style="mix-blend-mode:multiply" opacity="0.4">
<path d="M36.5611 11.7747C37.0054 17.1581 29.9529 20.8289 25.1289 17.8367C29.6919 24.0279 40.1579 18.5411 36.5611 11.7747Z" fill="#016256"/>
</g>
<path d="M29.8981 15.523L30.963 30.1157H29.3691L29.8981 15.426V15.523Z" fill="#331C10"/>
<path d="M25.5469 14.4568L30.0041 23.3107L30.1099 21.8501L25.5469 14.4568Z" fill="#331C10"/>
<path d="M23.9531 15.9172L27.8814 18.5411L27.5499 17.7656L23.9531 15.9172Z" fill="#331C10"/>
<mask id="mask0_100_10231" style="mask-type:luminance" maskUnits="userSpaceOnUse" x="23" y="14" width="10" height="17">
<path d="M32.9735 17.4717L30.3662 21.9827C30.3634 21.8508 29.8845 15.5575 29.8958 15.4282L29.6884 21.169L25.5429 14.4556L27.0924 17.5312L23.9512 15.9148L27.4605 18.2614L29.6377 22.5843C29.5728 24.4113 29.4317 28.2709 29.3661 30.1179H30.9586L30.4381 22.9773L32.9735 17.4717Z" fill="white"/>
</mask>
<g mask="url(#mask0_100_10231)">
<g style="mix-blend-mode:multiply">
<path d="M32.8653 24.6678L34.2476 20.8742L34.0783 17.8432L33.2955 16.8867L30.0513 22.8841L30.002 30.9948L34.4592 29.4373L32.8653 24.6678Z" fill="#331C10"/>
</g>
<g style="mix-blend-mode:multiply">
<path d="M30.4113 21.7145L30.8486 16.4991L29.8965 15.4263L30.0799 22.3155L30.369 21.9794L30.4113 21.7145Z" fill="#331C10"/>
</g>
<g style="mix-blend-mode:multiply">
<path d="M25.5449 14.4568L29.6354 21.5851L29.579 20.4865L25.5449 14.4568Z" fill="#331C10"/>
</g>
</g>
<path d="M26.6466 14.9867C26.569 18.9677 20.1018 18.9677 20.0312 14.9867C20.1018 10.9992 26.569 10.9992 26.6466 14.9867Z" fill="#016256"/>
<g style="mix-blend-mode:multiply" opacity="0.4">
<path d="M26.0972 13.3193C26.8801 16.5507 22.3735 18.2956 20.166 15.8527C21.774 20.1827 28.6926 17.2487 26.0972 13.3193Z" fill="#016256"/>
</g>
<path d="M34.5047 13.2156C34.406 18.3664 26.0558 18.3664 25.957 13.2156C26.0558 8.07135 34.406 8.07135 34.5047 13.2156Z" fill="#016256"/>
<g style="mix-blend-mode:multiply" opacity="0.4">
<path d="M33.7997 11.0637C34.7589 15.2774 29.0604 17.4876 26.1406 14.3403C28.207 19.9241 37.1426 16.1369 33.7997 11.0637Z" fill="#016256"/>
</g>
<path d="M28.4015 30.465C28.4015 30.465 28.324 29.4698 27.7598 29.0174C27.7598 29.0174 28.5567 29.6184 28.6131 29.7412C28.6131 29.7412 28.4932 28.7912 28.2675 28.5392C28.2675 28.5392 28.7753 28.9528 28.8741 29.1725C28.8741 29.1725 28.7189 28.481 28.5638 28.2613C28.5638 28.2613 29.0222 28.8364 29.0927 29.2436C29.0927 29.2436 29.1773 28.1449 29.0151 27.7249C29.0151 27.7249 29.4312 28.914 29.4383 29.4504C29.4383 29.4504 29.4524 28.4228 29.7768 28.0415C29.7768 28.0415 29.7133 29.0303 29.7627 29.3922C29.7627 29.3922 29.9179 28.8688 29.9179 28.5392C29.9179 28.5392 30.1153 29.2113 30.0589 29.5344C30.0589 29.5344 30.341 28.9334 30.2141 28.1126C30.2141 28.1126 30.4609 28.7524 30.4468 29.2888C30.4468 29.2888 30.6372 28.817 30.9052 28.5521C30.9052 28.5521 30.5526 29.4245 30.5455 29.7024C30.5455 29.7024 30.6866 29.3599 30.9475 29.2048C30.9475 29.2048 30.609 29.7929 30.5314 30.045C30.5314 30.045 30.8206 29.6895 31.2931 29.5409C31.2931 29.5409 30.7712 30.1419 30.7642 30.465H28.4015Z" fill="#769914"/>
<path d="M30.1643 30.4651C30.1643 30.4651 30.1149 29.7671 29.7129 29.4504C29.7129 29.4504 30.2771 29.8705 30.3124 29.961C30.3124 29.961 30.2277 29.2953 30.0726 29.1144C30.0726 29.1144 30.4252 29.4052 30.4957 29.5603C30.4957 29.5603 30.3829 29.0756 30.2771 28.9205C30.2771 28.9205 30.6015 29.3276 30.6509 29.6055C30.6509 29.6055 30.7073 28.8365 30.5945 28.5457C30.5945 28.5457 30.8836 29.3793 30.8907 29.7542C30.8907 29.7542 30.8977 29.0368 31.1305 28.7654C31.1305 28.7654 31.0811 29.4569 31.1164 29.7089C31.1164 29.7089 31.2292 29.347 31.2221 29.1144C31.2221 29.1144 31.3632 29.5861 31.3279 29.8123C31.3279 29.8123 31.5183 29.3923 31.4337 28.8171C31.4337 28.8171 31.603 29.263 31.5959 29.6379C31.5959 29.6379 31.7299 29.3083 31.9133 29.1208C31.9133 29.1208 31.6664 29.7348 31.6664 29.9287C31.6664 29.9287 31.7652 29.6896 31.9486 29.5797C31.9486 29.5797 31.7088 29.9933 31.6594 30.1678C31.6594 30.1678 31.8639 29.9222 32.1883 29.8188C32.1883 29.8188 31.8216 30.2324 31.8146 30.4651H30.1643Z" fill="#769914"/>
<path d="M13.7833 10.7495L10.9199 15.7064V16.9795L13.7833 10.7495Z" fill="#331C10"/>
<path d="M10.4885 4.48078C10.4039 8.95942 3.12565 8.95942 3.04102 4.48078C3.12565 -0.00433381 10.4039 -0.00433381 10.4885 4.48078Z" fill="#016256"/>
<path d="M12.6973 2.77462C12.6409 5.5148 8.19781 5.5148 8.14844 2.77462C8.19781 0.0344369 12.6409 0.0344369 12.6973 2.77462Z" fill="#016256"/>
<path d="M18.0705 7.76397C17.9224 15.7325 4.9809 15.7325 4.83984 7.76397C4.98795 -0.204527 17.9224 -0.204527 18.0705 7.76397Z" fill="#016256"/>
<g style="mix-blend-mode:multiply" opacity="0.4">
<path d="M17.3717 5.05591C17.816 10.4393 10.7634 14.1101 5.93945 11.1179C10.5025 17.3092 20.9685 11.8223 17.3717 5.05591Z" fill="#016256"/>
</g>
<path d="M10.7086 8.80422L11.7736 23.397H10.1797L10.7086 8.70728V8.80422Z" fill="#331C10"/>
<path d="M6.35742 7.73804L10.8146 16.5919L10.9204 15.1314L6.35742 7.73804Z" fill="#331C10"/>
<path d="M4.76367 9.19849L8.69195 11.8223L8.36048 11.0468L4.76367 9.19849Z" fill="#331C10"/>
<mask id="mask1_100_10231" style="mask-type:luminance" maskUnits="userSpaceOnUse" x="4" y="7" width="10" height="17">
<path d="M13.7841 10.753L11.1767 15.2639C11.1739 15.1321 10.695 8.83871 10.7063 8.70945L10.499 14.4503L6.35348 7.73682L7.90293 10.8124L4.76172 9.19609L8.27107 11.5427L10.4482 15.8656C10.3833 17.6926 10.2423 21.5521 10.1767 23.3992H11.7691L11.2487 16.2585L13.7841 10.753Z" fill="white"/>
</mask>
<g mask="url(#mask1_100_10231)">
<g style="mix-blend-mode:multiply">
<path d="M13.6758 17.9491L15.0581 14.1555L14.8889 11.1245L14.106 10.168L10.8619 16.1654L10.8125 24.276L15.2697 22.7185L13.6758 17.9491Z" fill="#331C10"/>
</g>
<g style="mix-blend-mode:multiply">
<path d="M11.2219 14.9957L11.6591 9.78032L10.707 8.70752L10.8904 15.5967L11.1796 15.2607L11.2219 14.9957Z" fill="#331C10"/>
</g>
<g style="mix-blend-mode:multiply">
<path d="M6.35547 7.73804L10.446 14.8664L10.3895 13.7677L6.35547 7.73804Z" fill="#331C10"/>
</g>
</g>
<path d="M7.4571 8.26796C7.37952 12.249 0.912323 12.249 0.841797 8.26796C0.912323 4.28047 7.37952 4.28047 7.4571 8.26796Z" fill="#016256"/>
<g style="mix-blend-mode:multiply" opacity="0.4">
<path d="M6.90777 6.60059C7.6906 9.83193 3.18401 11.5769 0.976562 9.13396C2.58455 13.464 9.50311 10.5299 6.90777 6.60059Z" fill="#016256"/>
</g>
<path d="M15.3153 6.4969C15.2165 11.6477 6.86631 11.6477 6.76758 6.4969C6.86631 1.3526 15.2165 1.3526 15.3153 6.4969Z" fill="#016256"/>
<g style="mix-blend-mode:multiply" opacity="0.4">
<path d="M14.6103 4.34497C15.5694 8.55865 9.87093 10.7689 6.95117 7.62156C9.01757 13.2053 17.9532 9.41818 14.6103 4.34497Z" fill="#016256"/>
</g>
<path d="M9.2121 23.7463C9.2121 23.7463 9.13452 22.751 8.57031 22.2986C8.57031 22.2986 9.36725 22.8997 9.42367 23.0225C9.42367 23.0225 9.30378 22.0725 9.0781 21.8204C9.0781 21.8204 9.58588 22.234 9.68462 22.4537C9.68462 22.4537 9.52946 21.7622 9.3743 21.5425C9.3743 21.5425 9.83272 22.1177 9.90325 22.5248C9.90325 22.5248 9.98788 21.4262 9.82567 21.0061C9.82567 21.0061 10.2418 22.1952 10.2488 22.7316C10.2488 22.7316 10.2629 21.7041 10.5873 21.3228C10.5873 21.3228 10.5239 22.3116 10.5732 22.6735C10.5732 22.6735 10.7284 22.15 10.7284 21.8204C10.7284 21.8204 10.9259 22.4925 10.8694 22.8157C10.8694 22.8157 11.1515 22.2146 11.0246 21.3939C11.0246 21.3939 11.2714 22.0337 11.2573 22.5701C11.2573 22.5701 11.4478 22.0983 11.7158 21.8333C11.7158 21.8333 11.3631 22.7058 11.3561 22.9837C11.3561 22.9837 11.4971 22.6412 11.7581 22.4861C11.7581 22.4861 11.4195 23.0742 11.342 23.3262C11.342 23.3262 11.6311 22.9708 12.1036 22.8221C12.1036 22.8221 11.5818 23.4232 11.5747 23.7463H9.2121Z" fill="#769914"/>
<path d="M10.9748 23.7463C10.9748 23.7463 10.9254 23.0484 10.5234 22.7317C10.5234 22.7317 11.0876 23.1518 11.1229 23.2422C11.1229 23.2422 11.0383 22.5766 10.8831 22.3956C10.8831 22.3956 11.2357 22.6864 11.3063 22.8415C11.3063 22.8415 11.1934 22.3568 11.0876 22.2017C11.0876 22.2017 11.4121 22.6089 11.4614 22.8868C11.4614 22.8868 11.5178 22.1177 11.405 21.8269C11.405 21.8269 11.6942 22.6606 11.7012 23.0354C11.7012 23.0354 11.7083 22.3181 11.941 22.0466C11.941 22.0466 11.8916 22.7381 11.9269 22.9902C11.9269 22.9902 12.0397 22.6283 12.0327 22.3956C12.0327 22.3956 12.1737 22.8674 12.1385 23.0936C12.1385 23.0936 12.3289 22.6735 12.2443 22.0983C12.2443 22.0983 12.4135 22.5443 12.4065 22.9191C12.4065 22.9191 12.5405 22.5895 12.7238 22.4021C12.7238 22.4021 12.477 23.016 12.477 23.2099C12.477 23.2099 12.5757 22.9708 12.7591 22.8609C12.7591 22.8609 12.5193 23.2745 12.4699 23.449C12.4699 23.449 12.6745 23.2035 12.9989 23.1001C12.9989 23.1001 12.6322 23.5137 12.6251 23.7463H10.9748Z" fill="#769914"/>
<path d="M20.0196 31.8589L17.1562 36.8158V38.0889L20.0196 31.8589Z" fill="#331C10"/>
<path d="M16.7249 25.5902C16.6402 30.0688 9.36197 30.0688 9.27734 25.5902C9.36197 21.105 16.6402 21.105 16.7249 25.5902Z" fill="#016256"/>
<path d="M18.9337 23.884C18.8772 26.6242 14.4341 26.6242 14.3848 23.884C14.4341 21.1438 18.8772 21.1438 18.9337 23.884Z" fill="#016256"/>
<path d="M24.3068 28.8733C24.1587 36.8418 11.2172 36.8418 11.0762 28.8733C11.2243 20.9048 24.1587 20.9048 24.3068 28.8733Z" fill="#016256"/>
<g style="mix-blend-mode:multiply" opacity="0.4">
<path d="M23.608 26.1653C24.0523 31.5487 16.9997 35.2195 12.1758 32.2273C16.7388 38.4185 27.2048 32.9317 23.608 26.1653Z" fill="#016256"/>
</g>
<path d="M16.945 29.9136L18.0099 44.5064H16.416L16.945 29.8167V29.9136Z" fill="#331C10"/>
<path d="M12.5938 28.8474L17.051 37.7013L17.1568 36.2407L12.5938 28.8474Z" fill="#331C10"/>
<path d="M11 30.3079L14.9283 32.9317L14.5968 32.1562L11 30.3079Z" fill="#331C10"/>
<mask id="mask2_100_10231" style="mask-type:luminance" maskUnits="userSpaceOnUse" x="10" y="28" width="11" height="17">
<path d="M20.0204 31.8623L17.4131 36.3733C17.4102 36.2415 16.9314 29.9481 16.9427 29.8188L16.7353 35.5596L12.5898 28.8462L14.1393 31.9218L10.998 30.3055L14.5074 32.6521L16.6845 36.975C16.6196 38.802 16.4786 42.6615 16.413 44.5085H18.0055L17.485 37.3679L20.0204 31.8623Z" fill="white"/>
</mask>
<g mask="url(#mask2_100_10231)">
<g style="mix-blend-mode:multiply">
<path d="M19.9122 39.0584L21.2945 35.2648L21.1252 32.2338L20.3424 31.2773L17.0982 37.2747L17.0488 45.3854L21.506 43.8279L19.9122 39.0584Z" fill="#331C10"/>
</g>
<g style="mix-blend-mode:multiply">
<path d="M17.4582 36.1051L17.8955 30.8897L16.9434 29.8169L17.1267 36.7061L17.4159 36.3701L17.4582 36.1051Z" fill="#331C10"/>
</g>
<g style="mix-blend-mode:multiply">
<path d="M12.5918 28.8474L16.6823 35.9758L16.6259 34.8771L12.5918 28.8474Z" fill="#331C10"/>
</g>
</g>
<path d="M13.6934 29.3773C13.6159 33.3583 7.14865 33.3583 7.07812 29.3773C7.14865 25.3898 13.6159 25.3898 13.6934 29.3773Z" fill="#016256"/>
<g style="mix-blend-mode:multiply" opacity="0.4">
<path d="M13.1441 27.71C13.9269 30.9413 9.42034 32.6862 7.21289 30.2433C8.82088 34.5733 15.7394 31.6393 13.1441 27.71Z" fill="#016256"/>
</g>
<path d="M21.5516 27.6063C21.4529 32.757 13.1026 32.757 13.0039 27.6063C13.1026 22.462 21.4529 22.462 21.5516 27.6063Z" fill="#016256"/>
<g style="mix-blend-mode:multiply" opacity="0.4">
<path d="M20.8466 25.4543C21.8057 29.668 16.1073 31.8783 13.1875 28.7309C15.2539 34.3147 24.1895 30.5276 20.8466 25.4543Z" fill="#016256"/>
</g>
<path d="M15.4484 44.8557C15.4484 44.8557 15.3708 43.8604 14.8066 43.408C14.8066 43.408 15.6036 44.009 15.66 44.1318C15.66 44.1318 15.5401 43.1818 15.3144 42.9298C15.3144 42.9298 15.8222 43.3434 15.9209 43.5631C15.9209 43.5631 15.7658 42.8716 15.6106 42.6519C15.6106 42.6519 16.069 43.2271 16.1396 43.6342C16.1396 43.6342 16.2242 42.5356 16.062 42.1155C16.062 42.1155 16.4781 43.3046 16.4851 43.841C16.4851 43.841 16.4993 42.8135 16.8237 42.4322C16.8237 42.4322 16.7602 43.4209 16.8096 43.7829C16.8096 43.7829 16.9647 43.2594 16.9647 42.9298C16.9647 42.9298 17.1622 43.6019 17.1058 43.925C17.1058 43.925 17.3879 43.324 17.2609 42.5032C17.2609 42.5032 17.5078 43.143 17.4937 43.6795C17.4937 43.6795 17.6841 43.2077 17.9521 42.9427C17.9521 42.9427 17.5995 43.8152 17.5924 44.0931C17.5924 44.0931 17.7335 43.7505 17.9944 43.5954C17.9944 43.5954 17.6559 44.1835 17.5783 44.4356C17.5783 44.4356 17.8675 44.0801 18.34 43.9315C18.34 43.9315 17.8181 44.5325 17.811 44.8557H15.4484Z" fill="#769914"/>
<path d="M17.2111 44.8557C17.2111 44.8557 17.1618 44.1577 16.7598 43.8411C16.7598 43.8411 17.324 44.2611 17.3592 44.3516C17.3592 44.3516 17.2746 43.686 17.1194 43.505C17.1194 43.505 17.4721 43.7958 17.5426 43.9509C17.5426 43.9509 17.4298 43.4662 17.324 43.3111C17.324 43.3111 17.6484 43.7183 17.6978 43.9962C17.6978 43.9962 17.7542 43.2271 17.6413 42.9363C17.6413 42.9363 17.9305 43.77 17.9375 44.1448C17.9375 44.1448 17.9446 43.4274 18.1773 43.156C18.1773 43.156 18.128 43.8475 18.1632 44.0996C18.1632 44.0996 18.2761 43.7377 18.269 43.505C18.269 43.505 18.4101 43.9768 18.3748 44.203C18.3748 44.203 18.5652 43.7829 18.4806 43.2077C18.4806 43.2077 18.6499 43.6536 18.6428 44.0285C18.6428 44.0285 18.7768 43.6989 18.9602 43.5115C18.9602 43.5115 18.7133 44.1254 18.7133 44.3193C18.7133 44.3193 18.8121 44.0802 18.9954 43.9703C18.9954 43.9703 18.7556 44.3839 18.7063 44.5584C18.7063 44.5584 18.9108 44.3128 19.2352 44.2094C19.2352 44.2094 18.8685 44.623 18.8614 44.8557H17.2111Z" fill="#769914"/>
</svg>
