<svg width="24" height="25" viewBox="0 0 24 25" fill="none" xmlns="http://www.w3.org/2000/svg">
<g clip-path="url(#clip0_3660_64401)">
<path d="M12 24.5C18.6274 24.5 24 19.1274 24 12.5C24 5.87258 18.6274 0.5 12 0.5C5.37258 0.5 0 5.87258 0 12.5C0 19.1274 5.37258 24.5 12 24.5Z" fill="white" fill-opacity="0.12"/>
<path d="M18.7116 9.53381C18.5502 8.93404 18.0773 8.46126 17.4777 8.29975C16.3821 8 11.9998 8 11.9998 8C11.9998 8 7.61774 8 6.5222 8.2884C5.93404 8.44973 5.44964 8.93415 5.28831 9.53381C5 10.6293 5 12.9011 5 12.9011C5 12.9011 5 15.1844 5.28831 16.2684C5.44979 16.8681 5.92251 17.3409 6.52228 17.5024C7.62927 17.8022 12 17.8022 12 17.8022C12 17.8022 16.3821 17.8022 17.4777 17.5138C18.0774 17.3524 18.5502 16.8796 18.7117 16.28C18.9999 15.1844 18.9999 12.9127 18.9999 12.9127C18.9999 12.9127 19.0115 10.6292 18.7116 9.53381ZM10.6046 14.9999V10.8023L14.2487 12.9011L10.6046 14.9999Z" fill="white"/>
</g>
<defs>
<clipPath id="clip0_3660_64401">
<rect width="24" height="24" fill="white" transform="translate(0 0.5)"/>
</clipPath>
</defs>
</svg>
