<svg width="24" height="24" viewBox="0 0 24 24" fill="none" xmlns="http://www.w3.org/2000/svg">
<path d="M12 24C18.6274 24 24 18.6274 24 12C24 5.37258 18.6274 0 12 0C5.37258 0 0 5.37258 0 12C0 18.6274 5.37258 24 12 24Z" fill="#F0F0F0"/>
<path d="M19.191 8.39337C19.0181 7.75076 18.5114 7.2442 17.8689 7.07116C16.6951 6.75 11.9998 6.75 11.9998 6.75C11.9998 6.75 7.30472 6.75 6.13093 7.059C5.50076 7.23185 4.98176 7.75088 4.80891 8.39337C4.5 9.56708 4.5 12.0012 4.5 12.0012C4.5 12.0012 4.5 14.4476 4.80891 15.609C4.98192 16.2516 5.48841 16.7581 6.13102 16.9312C7.31708 17.2524 12 17.2524 12 17.2524C12 17.2524 16.6951 17.2524 17.8689 16.9434C18.5115 16.7705 19.0181 16.2639 19.1911 15.6214C19.4999 14.4476 19.4999 12.0136 19.4999 12.0136C19.4999 12.0136 19.5123 9.56705 19.191 8.39337ZM10.5049 14.2499V9.75244L14.4093 12.0012L10.5049 14.2499Z" fill="#1B1C22"/>
</svg>
