<svg width="69" height="71" viewBox="0 0 69 71" fill="none" xmlns="http://www.w3.org/2000/svg">
<path d="M8.86742 5.18258L8.48242 23.5547H10.3225L9.17316 4.75488L8.86742 5.18258Z" fill="#331C10"/>
<path d="M11.3177 5.0127L9.17188 8.32736L9.25114 9.0947L11.3177 5.0127Z" fill="#331C10"/>
<path d="M6.95312 5.09463L9.09893 9.26468L8.94606 10.2836L6.95312 4.9248V5.09463Z" fill="#331C10"/>
<path d="M5.3445 9.35278L9.17183 14.4537V15.3909L6.56743 11.9882L3.35156 9.94401L6.49383 11.5605L5.3445 9.35278Z" fill="#331C10"/>
<path d="M12.9995 10.032L9.4043 13.5165V14.5417L12.9995 10.032Z" fill="#331C10"/>
<path d="M10.7793 12.5793L10.9491 12.4913L14.8614 10.4031L11.1586 12.0132L10.7793 12.5793Z" fill="#331C10"/>
<path d="M9.47709 17.0889L11.5436 15.3027L12.9477 13.7051L11.855 15.4725L15.1785 13.7239L12.0079 15.7304L9.47709 18.1959L9.32422 17.0072" fill="#331C10"/>
<path d="M3.50977 14.0071L6.34064 16.6676L9.09791 18.2841L9.17151 17.5167L6.56711 16.328L5.80277 13.3467L6.18777 15.9821L3.50977 14.0071Z" fill="#331C10"/>
<path d="M6.95312 5.09463L7.17959 5.54119L6.95312 4.9248V5.09463Z" fill="#331C10"/>
<path d="M15.1789 13.724L11.8555 15.4725L12.9482 13.7051L11.5441 15.3027L9.9022 16.7241L9.74367 14.1076L11.1025 12.4094L14.8619 10.403L11.5554 11.8434L12.9992 10.0319L9.69271 13.2397L9.41529 8.76141L11.3176 5.01276L9.36999 8.01923L9.17183 4.75488L8.8661 5.18258L8.7925 8.67335L7.1789 5.54109C8.76419 9.87468 8.89441 9.00042 8.68493 13.8057L5.3445 9.35264L6.49383 11.5603L3.35156 9.94387L6.56743 11.988L8.66794 14.7303L8.61698 17.2588L6.56743 16.3279L5.8031 13.3466L6.1881 15.982L3.51009 14.007L6.34096 16.6675L8.6 17.9884L8.4811 23.5547H10.3212L9.96448 17.7242L12.0084 15.7304L15.1789 13.724Z" fill="#331C10"/>
<g style="mix-blend-mode:multiply">
<path d="M6.95117 5.09438L7.17764 5.54095L6.95117 4.92456V5.09438Z" fill="#331C10"/>
<path d="M9.96239 17.7241L12.0063 15.7303L15.1769 13.7239L11.6949 15.7303L9.70761 17.5166L9.2207 23.5546H10.3191L9.96239 17.7241Z" fill="#331C10"/>
<path d="M9.40247 13.5163L9.49306 16.9065L9.88938 16.5039L9.74218 14.1076L11.101 12.4094L14.8604 10.4029L11.5539 11.8433L12.9977 10.0319L9.69122 13.2396L9.41379 8.76134L11.3161 5.0127L9.23828 8.66071L9.40247 13.5163Z" fill="#331C10"/>
</g>
<mask id="mask0_100_10198" style="mask-type:luminance" maskUnits="userSpaceOnUse" x="3" y="0" width="13" height="7">
<path d="M13.9231 2.92278C13.7238 2.92278 13.5342 2.96492 13.3581 3.03913C12.8989 1.94284 11.552 1.40696 10.5538 1.97366C9.41185 -0.147845 6.18805 0.527666 5.83363 2.97875C5.12082 2.75987 4.33157 3.18568 4.02527 3.89264C2.18011 4.17882 3.1041 7.27272 4.73752 6.27014C5.38409 6.65444 6.28147 6.40977 6.69931 5.76885C7.57122 6.65255 9.12027 6.67583 10.0137 5.8154C10.7152 6.60601 12.0378 6.66576 12.7953 5.93427C15.1127 8.07339 16.9295 3.24795 13.9231 2.92278Z" fill="white"/>
</mask>
<g mask="url(#mask0_100_10198)">
<path d="M13.9207 2.92465C13.7225 2.92465 13.53 2.96239 13.3545 3.03786C12.8959 1.94346 11.5484 1.40884 10.552 1.97491C9.40829 -0.144713 6.18675 0.528283 5.83006 2.98126C5.11668 2.76112 4.3297 3.18882 4.02397 3.89326C2.17824 4.1763 3.1011 7.27082 4.73735 6.27076C5.38279 6.65443 6.283 6.40913 6.69631 5.76758C7.56822 6.65443 9.11954 6.6733 10.0141 5.8179C10.7161 6.60411 12.0353 6.66701 12.794 5.93112C15.1097 8.0759 16.9271 3.24542 13.9207 2.92465Z" fill="#769914"/>
<g style="mix-blend-mode:multiply">
<path d="M14.9233 3.3147C15.4215 4.96259 13.4625 6.32116 12.3472 5.1387C11.6338 5.92491 10.309 5.96265 9.5616 5.22047C8.72366 6.14505 7.17234 6.23311 6.25514 5.40916C5.87014 6.08216 4.99257 6.39035 4.32449 6.05071C4.10934 6.22053 3.82059 6.30858 3.54883 6.27085C3.88853 6.51614 4.39243 6.51614 4.73779 6.27085C5.38323 6.65452 6.28345 6.40922 6.69676 5.76767C7.56866 6.65452 9.11998 6.67339 10.0145 5.81799C10.7166 6.6042 12.0358 6.6671 12.7945 5.9312C14.3571 7.642 16.6105 4.86196 14.9233 3.3147Z" fill="#A3C02D"/>
</g>
<g style="mix-blend-mode:multiply">
<path d="M11.4637 1.31437L10.5522 1.97478C10.5522 1.97478 9.53875 2.28298 9.25 3.2453C9.39721 2.05026 10.2408 1.15713 11.4637 1.31437Z" fill="#A3C02D"/>
</g>
<g style="mix-blend-mode:multiply">
<path d="M14.9342 2.06915L14.0227 2.72328C14.0227 2.72328 13.0036 3.03147 12.7148 3.99379C12.8677 2.79875 13.7113 1.90562 14.9342 2.06915Z" fill="#A3C02D"/>
</g>
</g>
<mask id="mask1_100_10198" style="mask-type:luminance" maskUnits="userSpaceOnUse" x="10" y="6" width="7" height="6">
<path d="M15.3952 8.0826C15.3023 8.0826 15.2121 8.09266 15.1246 8.11279C14.4027 6.29381 11.7349 6.819 11.6454 8.82981C9.55623 8.90403 10.8805 12.2646 12.3452 10.6192C12.9289 11.1595 13.9084 11.1916 14.5205 10.6872C16.4885 12.3011 17.8382 8.30148 15.3952 8.0826Z" fill="white"/>
</mask>
<g mask="url(#mask1_100_10198)">
<path d="M15.3112 9.01305C15.2716 11.6925 11.682 11.6925 11.6367 9.01305C11.682 6.32736 15.2716 6.32736 15.3112 9.01305Z" fill="#769914"/>
<path d="M16.7329 9.56652C16.7272 11.51 14.0662 11.51 14.0605 9.56652C14.0662 7.62301 16.7272 7.62301 16.7329 9.56652Z" fill="#769914"/>
<path d="M12.5591 9.93751C12.5761 11.3841 10.5322 11.3841 10.5549 9.93751C10.5322 8.49088 12.5761 8.49088 12.5591 9.93751Z" fill="#769914"/>
<g style="mix-blend-mode:multiply">
<path d="M16.0639 7.43439L15.2712 8.00047C15.2712 8.00047 14.3936 8.27092 14.1445 9.10116C14.2578 8.08223 15.0221 7.28344 16.0639 7.43439Z" fill="#A3C02D"/>
</g>
<g style="mix-blend-mode:multiply">
<path d="M16.3752 8.56006C16.6696 9.81799 15.2825 10.8558 14.3426 10.1199C13.7991 10.7111 12.8253 10.8306 12.1798 10.3841C11.9817 10.7992 11.4834 11.0382 11.0645 10.9061C11.4721 11.1829 12.0722 11.0382 12.344 10.6168C12.9272 11.1577 13.9066 11.1891 14.5238 10.686C15.7354 11.9125 17.5188 9.86831 16.3752 8.56006Z" fill="#A3C02D"/>
</g>
</g>
<mask id="mask2_100_10198" style="mask-type:luminance" maskUnits="userSpaceOnUse" x="10" y="12" width="8" height="4">
<path d="M16.4843 12.9611C16.4084 12.9611 16.335 12.9695 16.2641 12.9863C15.8377 11.8849 14.2927 11.7478 13.7146 12.763C13.0437 12.0818 11.8355 12.4749 11.5971 13.4391C9.80402 13.5146 10.8379 16.455 12.2023 15.1675C12.7198 15.5223 13.4847 15.3694 13.8601 14.8562C14.3176 15.4254 15.2189 15.5311 15.7766 15.0688C17.3687 16.3758 18.462 13.1385 16.4843 12.9611Z" fill="white"/>
</mask>
<g mask="url(#mask2_100_10198)">
<path d="M16.4197 13.7115C16.4084 15.8689 13.4529 15.8689 13.4473 13.7115C13.4529 11.5542 16.4084 11.5542 16.4197 13.7115Z" fill="#769914"/>
<path d="M17.5692 14.1643C17.5862 15.7178 15.3838 15.7178 15.4064 14.1643C15.3838 12.6044 17.5862 12.6044 17.5692 14.1643Z" fill="#769914"/>
<path d="M14.1886 13.8876C14.1829 15.8185 11.5445 15.8185 11.5332 13.8876C11.5445 11.9629 14.1829 11.9629 14.1886 13.8876Z" fill="#769914"/>
<path d="M12.4671 14.4535C12.4841 15.7806 10.6101 15.7806 10.6271 14.4535C10.6101 13.1327 12.4841 13.1327 12.4671 14.4535Z" fill="#769914"/>
<g style="mix-blend-mode:multiply">
<path d="M18.1797 12.0761L17.2115 12.7742C17.2115 12.7742 16.1358 13.095 15.8301 14.1139C15.9886 12.856 16.8832 11.9063 18.1797 12.0761Z" fill="#A3C02D"/>
</g>
<g style="mix-blend-mode:multiply">
<path d="M14.7876 11.1453L14.2045 12.246C14.2045 12.246 13.3779 13.0762 13.5194 14.1392C13.1457 12.9315 13.559 11.6359 14.7876 11.1453Z" fill="#A3C02D"/>
</g>
<g style="mix-blend-mode:multiply">
<path d="M17.4548 13.636C17.3189 14.4411 16.3564 14.8436 15.7733 14.3341C15.2524 14.8499 14.3465 14.831 13.8426 14.309C13.5142 14.8562 12.7612 15.0826 12.2177 14.7807C11.793 15.4097 10.8022 15.1895 10.6267 14.4285C10.5758 15.3342 11.6628 15.8311 12.2007 15.1707C12.7216 15.5229 13.4859 15.3719 13.8596 14.8562C14.3182 15.4285 15.2184 15.5292 15.7789 15.07C16.6112 15.9317 17.9927 14.7681 17.4548 13.636Z" fill="#A3C02D"/>
</g>
</g>
<mask id="mask3_100_10198" style="mask-type:luminance" maskUnits="userSpaceOnUse" x="1" y="11" width="7" height="4">
<path d="M7.01775 12.7061C6.95019 12.7061 6.8847 12.7135 6.82129 12.7282C6.44026 11.7451 5.06049 11.6224 4.54414 12.5288C3.94512 11.9206 2.866 12.2722 2.65311 13.1326C1.05141 13.2005 1.9754 15.8258 3.19325 14.6767C3.65581 14.9937 4.33918 14.8572 4.67379 14.3987C5.08314 14.9069 5.88767 15.0012 6.38534 14.588C7.80757 15.7554 8.78422 12.864 7.01775 12.7061Z" fill="white"/>
</mask>
<g mask="url(#mask3_100_10198)">
<path d="M6.96005 13.3781C6.94872 15.3028 4.31035 15.3028 4.30469 13.3781C4.31035 11.4472 6.95438 11.4472 6.96005 13.3781Z" fill="#769914"/>
<path d="M7.98545 13.7806C8.00244 15.1706 6.03781 15.1706 6.0548 13.7806C6.03781 12.3843 8.00244 12.3843 7.98545 13.7806Z" fill="#769914"/>
<path d="M4.96622 13.5352C4.96056 15.2586 2.60527 15.2586 2.59961 13.5352C2.60527 11.8118 4.96056 11.8118 4.96622 13.5352Z" fill="#769914"/>
<path d="M3.42712 14.0385C3.4441 15.221 1.77389 15.221 1.78521 14.0385C1.77389 12.8624 3.4441 12.8561 3.42712 14.0385Z" fill="#769914"/>
<g style="mix-blend-mode:multiply">
<path d="M8.13205 11.8999L7.36205 12.4534C7.36205 12.4534 6.50713 12.7113 6.26367 13.5226C6.37691 12.5352 7.1186 11.7552 8.13205 11.8999Z" fill="#A3C02D"/>
</g>
<g style="mix-blend-mode:multiply">
<path d="M5.38464 11.1765L4.89772 12.0382C4.89772 12.0382 4.22398 12.6735 4.3089 13.5226C4.03714 12.5728 4.41082 11.5224 5.38464 11.1765Z" fill="#A3C02D"/>
</g>
<g style="mix-blend-mode:multiply">
<path d="M7.83585 13.2144C7.87548 14.076 6.90166 14.6232 6.30152 14.0949C5.83159 14.5478 5.02763 14.5226 4.58035 14.0509C4.28028 14.5415 3.60653 14.7365 3.12528 14.4597C2.84219 14.8685 2.20808 14.8937 1.90234 14.51C2.1458 15.0069 2.85352 15.1013 3.19322 14.6798C3.65749 14.9943 4.33689 14.856 4.6766 14.3968C5.08424 14.9063 5.88821 15.0006 6.38645 14.5855C7.17343 15.3969 8.43034 14.2144 7.83585 13.2144Z" fill="#A3C02D"/>
</g>
</g>
<mask id="mask4_100_10198" style="mask-type:luminance" maskUnits="userSpaceOnUse" x="0" y="7" width="9" height="5">
<path d="M7.102 8.47029C7.0401 8.47113 6.97952 8.47679 6.92026 8.48727C6.47468 6.51797 3.78365 6.64943 3.5 8.66087C2.88173 8.22436 1.97189 8.58224 1.72844 9.33009C1.1215 8.90176 0.26148 9.43638 0.281862 10.2427C0.249024 11.2661 1.5467 11.6925 2.02851 10.844C2.59921 11.495 3.71118 11.2377 4.00446 10.4C4.52194 10.9969 5.48217 11.1308 6.12195 10.6792C7.83633 12.6661 9.57052 8.78037 7.102 8.47029Z" fill="white"/>
</mask>
<g mask="url(#mask4_100_10198)">
<path d="M6.98098 9.00058C6.96966 11.5542 3.48203 11.5542 3.4707 9.00058C3.48203 6.45326 6.97532 6.45326 6.98098 9.00058Z" fill="#769914"/>
<path d="M4.1109 9.84344C4.10524 11.6423 1.64804 11.6423 1.63672 9.84344C1.64804 8.05088 4.10524 8.05088 4.1109 9.84344Z" fill="#769914"/>
<path d="M8.33942 9.84344C8.33375 11.6423 5.8709 11.6423 5.86523 9.84344C5.8709 8.05088 8.33375 8.05088 8.33942 9.84344Z" fill="#769914"/>
<path d="M2.19698 10.246C2.21397 11.6235 0.266328 11.6235 0.283314 10.246C0.266328 8.86232 2.21397 8.86232 2.19698 10.246Z" fill="#769914"/>
<g style="mix-blend-mode:multiply">
<path d="M8.018 7.76147L7.26499 8.30239C7.26499 8.30239 6.42705 8.56026 6.18359 9.35905C6.29683 8.38415 7.02719 7.61681 8.018 7.76147Z" fill="#A3C02D"/>
</g>
<g style="mix-blend-mode:multiply">
<path d="M2.86604 7.82446L2.31685 8.61696C2.31685 8.61696 1.63745 8.91258 1.60914 10.0007C1.42796 9.04466 1.88656 8.05089 2.86604 7.82446Z" fill="#A3C02D"/>
</g>
<g style="mix-blend-mode:multiply">
<path d="M8.00003 8.8999C8.10194 10.0949 6.66952 10.8245 5.91651 9.97544C5.356 10.5352 4.38784 10.5792 3.78769 10.0824C3.65181 10.7554 2.97806 11.246 2.34961 11.0887C2.95542 11.4284 3.75938 11.0761 4.00284 10.3968C4.52372 10.9944 5.48055 11.1327 6.12033 10.6799C7.16775 12.1705 9.16069 10.2836 8.00003 8.8999Z" fill="#A3C02D"/>
</g>
</g>
<path d="M8.09137 23.731C8.09137 23.731 8.02343 22.6555 7.51953 22.1649C7.51953 22.1649 8.23291 22.819 8.28387 22.9511C8.28387 22.9511 8.17629 21.9259 7.97247 21.6554C7.97247 21.6554 8.42541 22.0957 8.516 22.3347C8.516 22.3347 8.37446 21.5925 8.23857 21.3472C8.23857 21.3472 8.64622 21.9762 8.7085 22.4102C8.7085 22.4102 8.77644 21.2277 8.64056 20.7686C8.64056 20.7686 9.00857 22.0579 9.00857 22.6303C9.00857 22.6303 9.02556 21.5296 9.3143 21.1145C9.3143 21.1145 9.25769 22.1837 9.30298 22.5737C9.30298 22.5737 9.44453 22.0013 9.43886 21.6491C9.43886 21.6491 9.62004 22.3724 9.56342 22.7246C9.56342 22.7246 9.8182 22.0768 9.71063 21.19C9.71063 21.19 9.92577 21.8818 9.90879 22.4605C9.90879 22.4605 10.0843 21.951 10.3164 21.6617C10.3164 21.6617 10.005 22.6051 9.99938 22.907C9.99938 22.907 10.1239 22.536 10.3617 22.3724C10.3617 22.3724 10.056 23.0014 9.98805 23.2781C9.98805 23.2781 10.2485 22.8882 10.6675 22.7372C10.6675 22.7372 10.2032 23.3788 10.1919 23.731H8.09137Z" fill="#769914"/>
<path d="M9.65999 23.7246C9.65999 23.7246 9.6147 22.9761 9.26367 22.6302C9.26367 22.6302 9.7619 23.0893 9.79587 23.1837C9.79587 23.1837 9.72227 22.4666 9.58073 22.2717C9.58073 22.2717 9.89212 22.5861 9.96007 22.7497C9.96007 22.7497 9.85815 22.2339 9.7619 22.0641C9.7619 22.0641 10.0507 22.4981 10.0903 22.8063C10.0903 22.8063 10.1412 21.976 10.045 21.6553C10.045 21.6553 10.3054 22.5547 10.3054 22.9572C10.3054 22.9572 10.3168 22.1899 10.5206 21.8943C10.5206 21.8943 10.4753 22.6428 10.5093 22.9195C10.5093 22.9195 10.6112 22.517 10.6055 22.2717C10.6055 22.2717 10.7301 22.7811 10.6961 23.0264C10.6961 23.0264 10.8716 22.5736 10.7923 21.9509C10.7923 21.9509 10.9452 22.4352 10.9339 22.8377C10.9339 22.8377 11.0584 22.4855 11.2226 22.2842C11.2226 22.2842 11.0018 22.9447 10.9962 23.1522C10.9962 23.1522 11.0868 22.8943 11.2509 22.7748C11.2509 22.7748 11.0358 23.2214 10.9905 23.4101C10.9905 23.4101 11.1717 23.1396 11.4661 23.0327C11.4661 23.0327 11.1377 23.4793 11.132 23.7246H9.65999Z" fill="#769914"/>
<path d="M16.0627 22.9326L15.6777 41.3047H17.5178L16.3685 22.5049L16.0627 22.9326Z" fill="#331C10"/>
<path d="M18.513 22.7627L16.3672 26.0774L16.4465 26.8447L18.513 22.7627Z" fill="#331C10"/>
<path d="M14.1484 22.8446L16.2942 27.0147L16.1414 28.0336L14.1484 22.6748V22.8446Z" fill="#331C10"/>
<path d="M12.5398 27.1028L16.3671 32.2037V33.1409L13.7627 29.7382L10.5469 27.694L13.6891 29.3105L12.5398 27.1028Z" fill="#331C10"/>
<path d="M20.1948 27.782L16.5996 31.2665V32.2917L20.1948 27.782Z" fill="#331C10"/>
<path d="M17.9746 30.3293L18.1445 30.2413L22.0567 28.1531L18.3539 29.7632L17.9746 30.3293Z" fill="#331C10"/>
<path d="M16.6724 34.8389L18.7389 33.0527L20.143 31.4551L19.0503 33.2225L22.3738 31.4739L19.2032 33.4804L16.6724 35.9459L16.5195 34.7572" fill="#331C10"/>
<path d="M10.7051 31.7571L13.5359 34.4176L16.2932 36.0341L16.3668 35.2667L13.7624 34.078L12.9981 31.0967L13.3831 33.7321L10.7051 31.7571Z" fill="#331C10"/>
<path d="M14.1484 22.8446L14.3749 23.2912L14.1484 22.6748V22.8446Z" fill="#331C10"/>
<path d="M22.3743 31.474L19.0508 33.2225L20.1435 31.4551L18.7394 33.0527L17.0975 34.4741L16.939 31.8576L18.2978 30.1594L22.0572 28.153L18.7507 29.5934L20.1945 27.7819L16.888 30.9897L16.6106 26.5114L18.5129 22.7628L16.5653 25.7692L16.3671 22.5049L16.0614 22.9326L15.9878 26.4234L14.3742 23.2911C15.9595 27.6247 16.0897 26.7504 15.8802 31.5557L12.5398 27.1026L13.6891 29.3103L10.5469 27.6939L13.7627 29.738L15.8633 32.4803L15.8123 35.0088L13.7627 34.0779L12.9984 31.0966L13.3834 33.732L10.7054 31.757L13.5363 34.4175L15.7953 35.7384L15.6764 41.3047H17.5165L17.1598 35.4742L19.2037 33.4804L22.3743 31.474Z" fill="#331C10"/>
<g style="mix-blend-mode:multiply">
<path d="M14.1465 22.8444L14.373 23.2909L14.1465 22.6746V22.8444Z" fill="#331C10"/>
<path d="M17.1577 35.4741L19.2016 33.4803L22.3722 31.4739L18.8902 33.4803L16.9029 35.2666L16.416 41.3046H17.5144L17.1577 35.4741Z" fill="#331C10"/>
<path d="M16.5978 31.2663L16.6884 34.6565L17.0847 34.2539L16.9375 31.8576L18.2963 30.1594L22.0557 28.1529L18.7492 29.5933L20.193 27.7819L16.8865 30.9896L16.6091 26.5113L18.5115 22.7627L16.4336 26.4107L16.5978 31.2663Z" fill="#331C10"/>
</g>
<mask id="mask5_100_10198" style="mask-type:luminance" maskUnits="userSpaceOnUse" x="10" y="18" width="13" height="7">
<path d="M21.1184 20.6728C20.9191 20.6728 20.7295 20.7149 20.5534 20.7891C20.0942 19.6928 18.7473 19.157 17.7491 19.7237C16.6072 17.6022 13.3834 18.2777 13.0289 20.7288C12.3161 20.5099 11.5269 20.9357 11.2206 21.6426C9.37542 21.9288 10.2994 25.0227 11.9328 24.0201C12.5794 24.4044 13.4768 24.1598 13.8946 23.5189C14.7665 24.4026 16.3156 24.4258 17.209 23.5654C17.9105 24.356 19.2331 24.4158 19.9906 23.6843C22.308 25.8234 24.1248 20.998 21.1184 20.6728Z" fill="white"/>
</mask>
<g mask="url(#mask5_100_10198)">
<path d="M21.116 20.6746C20.9178 20.6746 20.7253 20.7124 20.5498 20.7879C20.0912 19.6935 18.7437 19.1588 17.7473 19.7249C16.6036 17.6053 13.3821 18.2783 13.0254 20.7313C12.312 20.5111 11.525 20.9388 11.2193 21.6433C9.37355 21.9263 10.2964 25.0208 11.9327 24.0208C12.5781 24.4044 13.4783 24.1591 13.8916 23.5176C14.7635 24.4044 16.3148 24.4233 17.2094 23.5679C17.9115 24.3541 19.2306 24.417 19.9893 23.6811C22.305 25.8259 24.1224 20.9954 21.116 20.6746Z" fill="#769914"/>
<g style="mix-blend-mode:multiply">
<path d="M22.1186 21.0647C22.6168 22.7126 20.6579 24.0712 19.5425 22.8887C18.8291 23.6749 17.5043 23.7127 16.7569 22.9705C15.919 23.8951 14.3677 23.9831 13.4505 23.1592C13.0655 23.8322 12.1879 24.1404 11.5198 23.8007C11.3047 23.9705 11.0159 24.0586 10.7441 24.0208C11.0838 24.2661 11.5877 24.2661 11.9331 24.0208C12.5785 24.4045 13.4788 24.1592 13.8921 23.5177C14.764 24.4045 16.3153 24.4234 17.2099 23.568C17.9119 24.3542 19.2311 24.4171 19.9898 23.6812C21.5524 25.392 23.8058 22.612 22.1186 21.0647Z" fill="#A3C02D"/>
</g>
<g style="mix-blend-mode:multiply">
<path d="M18.6591 19.0644L17.7475 19.7248C17.7475 19.7248 16.7341 20.033 16.4453 20.9953C16.5925 19.8003 17.4361 18.9071 18.6591 19.0644Z" fill="#A3C02D"/>
</g>
<g style="mix-blend-mode:multiply">
<path d="M22.1296 19.8192L21.218 20.4733C21.218 20.4733 20.1989 20.7815 19.9102 21.7438C20.063 20.5488 20.9066 19.6556 22.1296 19.8192Z" fill="#A3C02D"/>
</g>
</g>
<mask id="mask6_100_10198" style="mask-type:luminance" maskUnits="userSpaceOnUse" x="17" y="24" width="7" height="5">
<path d="M22.5905 25.8326C22.4977 25.8326 22.4074 25.8427 22.3199 25.8628C21.598 24.0438 18.9302 24.569 18.8407 26.5798C16.7515 26.654 18.0758 30.0146 19.5405 28.3692C20.1242 28.9095 21.1037 28.9416 21.7158 28.4372C23.6838 30.0511 25.0335 26.0515 22.5905 25.8326Z" fill="white"/>
</mask>
<g mask="url(#mask6_100_10198)">
<path d="M22.5065 26.763C22.4669 29.4425 18.8773 29.4425 18.832 26.763C18.8773 24.0774 22.4669 24.0774 22.5065 26.763Z" fill="#769914"/>
<path d="M23.9282 27.3165C23.9225 29.26 21.2615 29.26 21.2559 27.3165C21.2615 25.373 23.9225 25.373 23.9282 27.3165Z" fill="#769914"/>
<path d="M19.7544 27.6875C19.7714 29.1341 17.7275 29.1341 17.7502 27.6875C17.7275 26.2409 19.7714 26.2409 19.7544 27.6875Z" fill="#769914"/>
<g style="mix-blend-mode:multiply">
<path d="M23.2592 25.1844L22.4665 25.7505C22.4665 25.7505 21.589 26.0209 21.3398 26.8512C21.4531 25.8322 22.2174 25.0334 23.2592 25.1844Z" fill="#A3C02D"/>
</g>
<g style="mix-blend-mode:multiply">
<path d="M23.5705 26.3101C23.8649 27.568 22.4778 28.6058 21.5379 27.8699C20.9944 28.4611 20.0206 28.5806 19.3751 28.1341C19.177 28.5492 18.6787 28.7882 18.2598 28.6561C18.6674 28.9329 19.2676 28.7882 19.5393 28.3668C20.1225 28.9077 21.102 28.9391 21.7191 28.436C22.9307 29.6625 24.7142 27.6183 23.5705 26.3101Z" fill="#A3C02D"/>
</g>
</g>
<mask id="mask7_100_10198" style="mask-type:luminance" maskUnits="userSpaceOnUse" x="17" y="29" width="8" height="5">
<path d="M23.6796 30.7111C23.6038 30.7111 23.5303 30.7195 23.4594 30.7363C23.0331 29.6349 21.488 29.4978 20.9099 30.513C20.239 29.8318 19.0308 30.2249 18.7924 31.1891C16.9993 31.2646 18.0332 34.205 19.3977 32.9175C19.9151 33.2723 20.68 33.1194 21.0554 32.6062C21.5129 33.1754 22.4142 33.2811 22.9719 32.8188C24.564 34.1258 25.6573 30.8885 23.6796 30.7111Z" fill="white"/>
</mask>
<g mask="url(#mask7_100_10198)">
<path d="M23.615 31.4615C23.6037 33.6189 20.6482 33.6189 20.6426 31.4615C20.6482 29.3042 23.6037 29.3042 23.615 31.4615Z" fill="#769914"/>
<path d="M24.7645 31.9143C24.7815 33.4678 22.5791 33.4678 22.6017 31.9143C22.5791 30.3544 24.7815 30.3544 24.7645 31.9143Z" fill="#769914"/>
<path d="M21.3839 31.6376C21.3782 33.5685 18.7398 33.5685 18.7285 31.6376C18.7398 29.7129 21.3782 29.7129 21.3839 31.6376Z" fill="#769914"/>
<path d="M19.6624 32.2035C19.6794 33.5306 17.8054 33.5306 17.8224 32.2035C17.8054 30.8827 19.6794 30.8827 19.6624 32.2035Z" fill="#769914"/>
<g style="mix-blend-mode:multiply">
<path d="M25.375 29.8261L24.4069 30.5242C24.4069 30.5242 23.3311 30.845 23.0254 31.8639C23.1839 30.606 24.0785 29.6563 25.375 29.8261Z" fill="#A3C02D"/>
</g>
<g style="mix-blend-mode:multiply">
<path d="M21.983 28.8953L21.3998 29.996C21.3998 29.996 20.5732 30.8262 20.7147 31.8892C20.3411 30.6815 20.7544 29.3859 21.983 28.8953Z" fill="#A3C02D"/>
</g>
<g style="mix-blend-mode:multiply">
<path d="M24.6501 31.386C24.5142 32.1911 23.5517 32.5936 22.9686 32.0841C22.4477 32.5999 21.5418 32.581 21.0379 32.059C20.7095 32.6062 19.9565 32.8326 19.413 32.5307C18.9884 33.1597 17.9976 32.9395 17.822 32.1785C17.7711 33.0842 18.8581 33.5811 19.396 32.9207C19.9169 33.2729 20.6812 33.1219 21.0549 32.6062C21.5135 33.1785 22.4137 33.2792 22.9742 32.82C23.8065 33.6817 25.188 32.5181 24.6501 31.386Z" fill="#A3C02D"/>
</g>
</g>
<mask id="mask8_100_10198" style="mask-type:luminance" maskUnits="userSpaceOnUse" x="8" y="29" width="8" height="4">
<path d="M14.2131 30.4561C14.1455 30.4561 14.08 30.4635 14.0166 30.4782C13.6356 29.4951 12.2558 29.3724 11.7394 30.2788C11.1404 29.6706 10.0613 30.0222 9.84843 30.8826C8.24672 30.9505 9.17072 33.5758 10.3886 32.4267C10.8511 32.7437 11.5345 32.6072 11.8691 32.1487C12.2784 32.6569 13.083 32.7512 13.5806 32.338C15.0029 33.5054 15.9795 30.614 14.2131 30.4561Z" fill="white"/>
</mask>
<g mask="url(#mask8_100_10198)">
<path d="M14.1554 31.1281C14.144 33.0528 11.5057 33.0528 11.5 31.1281C11.5057 29.1972 14.1497 29.1972 14.1554 31.1281Z" fill="#769914"/>
<path d="M15.1808 31.5306C15.1977 32.9206 13.2331 32.9206 13.2501 31.5306C13.2331 30.1343 15.1977 30.1343 15.1808 31.5306Z" fill="#769914"/>
<path d="M12.1615 31.2852C12.1559 33.0086 9.80058 33.0086 9.79492 31.2852C9.80058 29.5618 12.1559 29.5618 12.1615 31.2852Z" fill="#769914"/>
<path d="M10.6224 31.7885C10.6394 32.971 8.9692 32.971 8.98053 31.7885C8.9692 30.6124 10.6394 30.6061 10.6224 31.7885Z" fill="#769914"/>
<g style="mix-blend-mode:multiply">
<path d="M15.3274 29.6499L14.5574 30.2034C14.5574 30.2034 13.7024 30.4613 13.459 31.2726C13.5722 30.2852 14.3139 29.5052 15.3274 29.6499Z" fill="#A3C02D"/>
</g>
<g style="mix-blend-mode:multiply">
<path d="M12.5799 28.9265L12.093 29.7882C12.093 29.7882 11.4193 30.4235 11.5042 31.2726C11.2325 30.3228 11.6061 29.2724 12.5799 28.9265Z" fill="#A3C02D"/>
</g>
<g style="mix-blend-mode:multiply">
<path d="M15.0312 30.9644C15.0708 31.826 14.097 32.3732 13.4968 31.8449C13.0269 32.2978 12.2229 32.2726 11.7757 31.8009C11.4756 32.2915 10.8018 32.4865 10.3206 32.2097C10.0375 32.6185 9.40339 32.6437 9.09766 32.26C9.34111 32.7569 10.0488 32.8513 10.3885 32.4298C10.8528 32.7443 11.5322 32.606 11.8719 32.1468C12.2796 32.6563 13.0835 32.7506 13.5818 32.3355C14.3687 33.1469 15.6256 31.9644 15.0312 30.9644Z" fill="#A3C02D"/>
</g>
</g>
<mask id="mask9_100_10198" style="mask-type:luminance" maskUnits="userSpaceOnUse" x="7" y="24" width="9" height="6">
<path d="M14.2973 26.2203C14.2354 26.2211 14.1748 26.2268 14.1156 26.2373C13.67 24.268 10.979 24.3994 10.6953 26.4109C10.077 25.9744 9.1672 26.3322 8.92375 27.0801C8.31681 26.6518 7.45679 27.1864 7.47717 27.9927C7.44434 29.0161 8.74201 29.4425 9.22382 28.594C9.79453 29.245 10.9065 28.9877 11.1998 28.15C11.7173 28.7469 12.6775 28.8808 13.3173 28.4292C15.0316 30.4161 16.7658 26.5304 14.2973 26.2203Z" fill="white"/>
</mask>
<g mask="url(#mask9_100_10198)">
<path d="M14.1763 26.7506C14.165 29.3042 10.6773 29.3042 10.666 26.7506C10.6773 24.2033 14.1706 24.2033 14.1763 26.7506Z" fill="#769914"/>
<path d="M11.3062 27.5934C11.3006 29.3923 8.84335 29.3923 8.83203 27.5934C8.84335 25.8009 11.3006 25.8009 11.3062 27.5934Z" fill="#769914"/>
<path d="M15.5347 27.5934C15.5291 29.3923 13.0662 29.3923 13.0605 27.5934C13.0662 25.8009 15.5291 25.8009 15.5347 27.5934Z" fill="#769914"/>
<path d="M9.3923 27.996C9.40928 29.3735 7.46164 29.3735 7.47863 27.996C7.46164 26.6123 9.40928 26.6123 9.3923 27.996Z" fill="#769914"/>
<g style="mix-blend-mode:multiply">
<path d="M15.2133 25.5115L14.4603 26.0524C14.4603 26.0524 13.6224 26.3103 13.3789 27.1091C13.4921 26.1342 14.2225 25.3668 15.2133 25.5115Z" fill="#A3C02D"/>
</g>
<g style="mix-blend-mode:multiply">
<path d="M10.0614 25.5745L9.51217 26.367C9.51217 26.367 8.83276 26.6626 8.80445 27.7507C8.62327 26.7947 9.08187 25.8009 10.0614 25.5745Z" fill="#A3C02D"/>
</g>
<g style="mix-blend-mode:multiply">
<path d="M15.1953 26.6499C15.2973 27.8449 13.8648 28.5745 13.1118 27.7254C12.5513 28.2852 11.5832 28.3292 10.983 27.8324C10.8471 28.5054 10.1734 28.996 9.54492 28.8387C10.1507 29.1784 10.9547 28.8261 11.1982 28.1468C11.719 28.7444 12.6759 28.8827 13.3156 28.4299C14.3631 29.9205 16.356 28.0336 15.1953 26.6499Z" fill="#A3C02D"/>
</g>
</g>
<path d="M15.2867 41.481C15.2867 41.481 15.2187 40.4055 14.7148 39.9149C14.7148 39.9149 15.4282 40.569 15.4792 40.7011C15.4792 40.7011 15.3716 39.6759 15.1678 39.4054C15.1678 39.4054 15.6207 39.8457 15.7113 40.0847C15.7113 40.0847 15.5698 39.3425 15.4339 39.0972C15.4339 39.0972 15.8415 39.7262 15.9038 40.1602C15.9038 40.1602 15.9718 38.9777 15.8359 38.5186C15.8359 38.5186 16.2039 39.8079 16.2039 40.3803C16.2039 40.3803 16.2209 39.2796 16.5096 38.8645C16.5096 38.8645 16.453 39.9337 16.4983 40.3237C16.4983 40.3237 16.6398 39.7513 16.6342 39.3991C16.6342 39.3991 16.8154 40.1224 16.7587 40.4746C16.7587 40.4746 17.0135 39.8268 16.9059 38.94C16.9059 38.94 17.1211 39.6318 17.1041 40.2105C17.1041 40.2105 17.2796 39.701 17.5117 39.4117C17.5117 39.4117 17.2004 40.3551 17.1947 40.657C17.1947 40.657 17.3192 40.286 17.557 40.1224C17.557 40.1224 17.2513 40.7514 17.1834 41.0281C17.1834 41.0281 17.4438 40.6382 17.8628 40.4872C17.8628 40.4872 17.3985 41.1288 17.3872 41.481H15.2867Z" fill="#769914"/>
<path d="M16.8553 41.4746C16.8553 41.4746 16.81 40.7261 16.459 40.3802C16.459 40.3802 16.9572 40.8393 16.9912 40.9337C16.9912 40.9337 16.9176 40.2166 16.776 40.0217C16.776 40.0217 17.0874 40.3361 17.1554 40.4997C17.1554 40.4997 17.0535 39.9839 16.9572 39.8141C16.9572 39.8141 17.246 40.2481 17.2856 40.5563C17.2856 40.5563 17.3366 39.726 17.2403 39.4053C17.2403 39.4053 17.5007 40.3047 17.5007 40.7072C17.5007 40.7072 17.5121 39.9399 17.7159 39.6443C17.7159 39.6443 17.6706 40.3928 17.7046 40.6695C17.7046 40.6695 17.8065 40.267 17.8008 40.0217C17.8008 40.0217 17.9254 40.5311 17.8914 40.7764C17.8914 40.7764 18.0669 40.3236 17.9877 39.7009C17.9877 39.7009 18.1405 40.1852 18.1292 40.5877C18.1292 40.5877 18.2538 40.2355 18.4179 40.0342C18.4179 40.0342 18.1971 40.6947 18.1915 40.9022C18.1915 40.9022 18.2821 40.6443 18.4463 40.5248C18.4463 40.5248 18.2311 40.9714 18.1858 41.1601C18.1858 41.1601 18.367 40.8896 18.6614 40.7827C18.6614 40.7827 18.333 41.2293 18.3274 41.4746H16.8553Z" fill="#769914"/>
<path d="M30.4553 32.5263L30.0703 50.8985H31.9104L30.761 32.0986L30.4553 32.5263Z" fill="#331C10"/>
<path d="M32.9056 32.3564L30.7598 35.6711L30.839 36.4384L32.9056 32.3564Z" fill="#331C10"/>
<path d="M28.541 32.4384L30.6868 36.6084L30.534 37.6274L28.541 32.2686V32.4384Z" fill="#331C10"/>
<path d="M26.9324 36.6965L30.7597 41.7975V42.7346L28.1553 39.3319L24.9395 37.2878L28.0817 38.9042L26.9324 36.6965Z" fill="#331C10"/>
<path d="M34.5874 37.3757L30.9922 40.8602V41.8854L34.5874 37.3757Z" fill="#331C10"/>
<path d="M32.3672 39.9231L32.537 39.835L36.4493 37.7468L32.7465 39.357L32.3672 39.9231Z" fill="#331C10"/>
<path d="M31.065 44.4327L33.1315 42.6464L34.5356 41.0488L33.4429 42.8162L36.7664 41.0677L33.5958 43.0741L31.065 45.5397L30.9121 44.3509" fill="#331C10"/>
<path d="M25.0977 41.3508L27.9285 44.0114L30.6858 45.6278L30.7594 44.8605L28.155 43.6717L27.3907 40.6904L27.7757 43.3258L25.0977 41.3508Z" fill="#331C10"/>
<path d="M28.541 32.4384L28.7675 32.8849L28.541 32.2686V32.4384Z" fill="#331C10"/>
<path d="M36.7668 41.0677L33.4434 42.8162L34.5361 41.0488L33.132 42.6464L31.4901 44.0679L31.3316 41.4514L32.6904 39.7532L36.4498 37.7468L33.1433 39.1871L34.5871 37.3757L31.2806 40.5834L31.0032 36.1052L32.9055 32.3565L30.9579 35.363L30.7597 32.0986L30.454 32.5263L30.3804 36.0171L28.7668 32.8848C30.3521 37.2184 30.4823 36.3442 30.2728 41.1495L26.9324 36.6964L28.0817 38.9041L24.9395 37.2876L28.1553 39.3318L30.2558 42.0741L30.2049 44.6025L28.1553 43.6716L27.391 40.6903L27.776 43.3257L25.098 41.3508L27.9289 44.0113L30.1879 45.3321L30.069 50.8985H31.9091L31.5524 45.068L33.5963 43.0741L36.7668 41.0677Z" fill="#331C10"/>
<g style="mix-blend-mode:multiply">
<path d="M28.5391 32.4381L28.7655 32.8847L28.5391 32.2683V32.4381Z" fill="#331C10"/>
<path d="M31.5503 45.0679L33.5942 43.074L36.7647 41.0676L33.2828 43.074L31.2955 44.8603L30.8086 50.8984H31.907L31.5503 45.0679Z" fill="#331C10"/>
<path d="M30.9904 40.8601L31.081 44.2502L31.4773 43.8477L31.3301 41.4513L32.6889 39.7531L36.4483 37.7467L33.1418 39.187L34.5856 37.3756L31.2791 40.5833L31.0017 36.1051L32.904 32.3564L30.8262 36.0045L30.9904 40.8601Z" fill="#331C10"/>
</g>
<mask id="mask10_100_10198" style="mask-type:luminance" maskUnits="userSpaceOnUse" x="24" y="28" width="14" height="6">
<path d="M35.511 30.2665C35.3117 30.2665 35.1221 30.3087 34.946 30.3829C34.4868 29.2866 33.1399 28.7507 32.1417 29.3174C30.9997 27.1959 27.7759 27.8714 27.4215 30.3225C26.7087 30.1036 25.9195 30.5294 25.6132 31.2364C23.768 31.5226 24.692 34.6165 26.3254 33.6139C26.972 33.9982 27.8694 33.7535 28.2872 33.1126C29.1591 33.9963 30.7082 34.0196 31.6016 33.1591C32.3031 33.9498 33.6257 34.0095 34.3832 33.278C36.7006 35.4171 38.5174 30.5917 35.511 30.2665Z" fill="white"/>
</mask>
<g mask="url(#mask10_100_10198)">
<path d="M35.5086 30.2684C35.3104 30.2684 35.1179 30.3061 34.9424 30.3816C34.4838 29.2872 33.1363 28.7526 32.1398 29.3187C30.9962 27.199 27.7746 27.872 27.418 30.325C26.7046 30.1049 25.9176 30.5326 25.6119 31.237C23.7661 31.52 24.689 34.6146 26.3252 33.6145C26.9707 33.9982 27.8709 33.7529 28.2842 33.1113C29.1561 33.9982 30.7074 34.017 31.602 33.1617C32.304 33.9479 33.6232 34.0108 34.3819 33.2749C36.6976 35.4196 38.515 30.5892 35.5086 30.2684Z" fill="#769914"/>
<g style="mix-blend-mode:multiply">
<path d="M36.5112 30.6584C37.0094 32.3063 35.0504 33.6649 33.9351 32.4825C33.2217 33.2687 31.8968 33.3064 31.1495 32.5642C30.3116 33.4888 28.7602 33.5769 27.843 32.7529C27.458 33.4259 26.5805 33.7341 25.9124 33.3945C25.6972 33.5643 25.4085 33.6523 25.1367 33.6146C25.4764 33.8599 25.9803 33.8599 26.3257 33.6146C26.9711 33.9983 27.8713 33.753 28.2846 33.1114C29.1566 33.9983 30.7079 34.0171 31.6024 33.1617C32.3045 33.9479 33.6237 34.0108 34.3823 33.275C35.945 34.9857 38.1984 32.2057 36.5112 30.6584Z" fill="#A3C02D"/>
</g>
<g style="mix-blend-mode:multiply">
<path d="M33.0516 28.6581L32.1401 29.3185C32.1401 29.3185 31.1266 29.6267 30.8379 30.589C30.9851 29.394 31.8287 28.5009 33.0516 28.6581Z" fill="#A3C02D"/>
</g>
<g style="mix-blend-mode:multiply">
<path d="M36.5221 29.4129L35.6106 30.067C35.6106 30.067 34.5915 30.3752 34.3027 31.3375C34.4556 30.1425 35.2992 29.2494 36.5221 29.4129Z" fill="#A3C02D"/>
</g>
</g>
<mask id="mask11_100_10198" style="mask-type:luminance" maskUnits="userSpaceOnUse" x="32" y="34" width="7" height="5">
<path d="M36.9831 35.4263C36.8902 35.4263 36.8 35.4364 36.7124 35.4565C35.9906 33.6376 33.3228 34.1628 33.2333 36.1736C31.1441 36.2478 32.4684 39.6084 33.9331 37.963C34.5168 38.5033 35.4963 38.5353 36.1083 38.0309C38.0764 39.6448 39.4261 35.6452 36.9831 35.4263Z" fill="white"/>
</mask>
<g mask="url(#mask11_100_10198)">
<path d="M36.8991 36.3568C36.8595 39.0362 33.2699 39.0362 33.2246 36.3568C33.2699 33.6711 36.8595 33.6711 36.8991 36.3568Z" fill="#769914"/>
<path d="M38.3208 36.9103C38.3151 38.8538 35.6541 38.8538 35.6484 36.9103C35.6541 34.9668 38.3151 34.9668 38.3208 36.9103Z" fill="#769914"/>
<path d="M34.147 37.2813C34.164 38.7279 32.1201 38.7279 32.1428 37.2813C32.1201 35.8346 34.164 35.8346 34.147 37.2813Z" fill="#769914"/>
<g style="mix-blend-mode:multiply">
<path d="M37.6518 34.7781L36.8591 35.3442C36.8591 35.3442 35.9815 35.6147 35.7324 36.4449C35.8457 35.426 36.61 34.6272 37.6518 34.7781Z" fill="#A3C02D"/>
</g>
<g style="mix-blend-mode:multiply">
<path d="M37.9631 35.9038C38.2575 37.1617 36.8703 38.1995 35.9305 37.4636C35.387 38.0549 34.4131 38.1744 33.7677 37.7278C33.5695 38.1429 33.0713 38.3819 32.6523 38.2499C33.06 38.5266 33.6601 38.3819 33.9319 37.9605C34.5151 38.5014 35.4945 38.5329 36.1117 38.0297C37.3233 39.2562 39.1067 37.2121 37.9631 35.9038Z" fill="#A3C02D"/>
</g>
</g>
<mask id="mask12_100_10198" style="mask-type:luminance" maskUnits="userSpaceOnUse" x="32" y="39" width="8" height="4">
<path d="M38.0722 40.3048C37.9963 40.3048 37.9229 40.3132 37.852 40.33C37.4256 39.2287 35.8805 39.0916 35.3025 40.1067C34.6316 39.4255 33.4233 39.8187 33.185 40.7829C31.3919 40.8583 32.4257 43.7988 33.7902 42.5113C34.3077 42.866 35.0726 42.7132 35.448 42.1999C35.9055 42.7691 36.8068 42.8748 37.3645 42.4125C38.9566 43.7195 40.0499 40.4822 38.0722 40.3048Z" fill="white"/>
</mask>
<g mask="url(#mask12_100_10198)">
<path d="M38.0076 41.0553C37.9962 43.2126 35.0408 43.2126 35.0352 41.0553C35.0408 38.8979 37.9962 38.8979 38.0076 41.0553Z" fill="#769914"/>
<path d="M39.1571 41.508C39.1741 43.0616 36.9717 43.0616 36.9943 41.508C36.9717 39.9482 39.1741 39.9482 39.1571 41.508Z" fill="#769914"/>
<path d="M35.7765 41.2313C35.7708 43.1623 33.1324 43.1623 33.1211 41.2313C33.1324 39.3067 35.7708 39.3067 35.7765 41.2313Z" fill="#769914"/>
<path d="M34.055 41.7973C34.072 43.1244 32.198 43.1244 32.215 41.7973C32.198 40.4764 34.072 40.4764 34.055 41.7973Z" fill="#769914"/>
<g style="mix-blend-mode:multiply">
<path d="M39.7676 39.4198L38.7994 40.118C38.7994 40.118 37.7237 40.4388 37.418 41.4577C37.5765 40.1998 38.4711 39.25 39.7676 39.4198Z" fill="#A3C02D"/>
</g>
<g style="mix-blend-mode:multiply">
<path d="M36.3755 38.489L35.7924 39.5897C35.7924 39.5897 34.9658 40.4199 35.1073 41.4829C34.7336 40.2753 35.1469 38.9796 36.3755 38.489Z" fill="#A3C02D"/>
</g>
<g style="mix-blend-mode:multiply">
<path d="M39.0427 40.9797C38.9068 41.7848 37.9443 42.1874 37.3611 41.6779C36.8403 42.1936 35.9344 42.1748 35.4305 41.6527C35.1021 42.1999 34.3491 42.4264 33.8056 42.1245C33.3809 42.7534 32.3901 42.5333 32.2146 41.7722C32.1637 42.6779 33.2507 43.1748 33.7886 42.5144C34.3095 42.8666 35.0738 42.7157 35.4475 42.1999C35.9061 42.7723 36.8063 42.8729 37.3668 42.4138C38.1991 43.2755 39.5805 42.1119 39.0427 40.9797Z" fill="#A3C02D"/>
</g>
</g>
<mask id="mask13_100_10198" style="mask-type:luminance" maskUnits="userSpaceOnUse" x="23" y="39" width="7" height="4">
<path d="M28.6056 40.0499C28.5381 40.0499 28.4726 40.0572 28.4092 40.0719C28.0281 39.0888 26.6484 38.9662 26.132 39.8725C25.533 39.2643 24.4539 39.6159 24.241 40.4763C22.6393 40.5443 23.5633 43.1696 24.7811 42.0204C25.2437 42.3374 25.9271 42.201 26.2617 41.7424C26.671 42.2506 27.4756 42.345 27.9732 41.9318C29.3955 43.0991 30.3721 40.2078 28.6056 40.0499Z" fill="white"/>
</mask>
<g mask="url(#mask13_100_10198)">
<path d="M28.5479 40.7219C28.5366 42.6465 25.8982 42.6465 25.8926 40.7219C25.8982 38.7909 28.5423 38.7909 28.5479 40.7219Z" fill="#769914"/>
<path d="M29.5733 41.1244C29.5903 42.5144 27.6257 42.5144 27.6427 41.1244C27.6257 39.7281 29.5903 39.7281 29.5733 41.1244Z" fill="#769914"/>
<path d="M26.5541 40.879C26.5484 42.6023 24.1932 42.6023 24.1875 40.879C24.1932 39.1556 26.5484 39.1556 26.5541 40.879Z" fill="#769914"/>
<path d="M25.015 41.3823C25.032 42.5647 23.3618 42.5647 23.3731 41.3823C23.3618 40.2061 25.032 40.1998 25.015 41.3823Z" fill="#769914"/>
<g style="mix-blend-mode:multiply">
<path d="M29.7199 39.2437L28.9499 39.7971C28.9499 39.7971 28.095 40.055 27.8516 40.8664C27.9648 39.8789 28.7065 39.099 29.7199 39.2437Z" fill="#A3C02D"/>
</g>
<g style="mix-blend-mode:multiply">
<path d="M26.9725 38.5203L26.4856 39.3819C26.4856 39.3819 25.8119 40.0172 25.8968 40.8663C25.625 39.9166 25.9987 38.8662 26.9725 38.5203Z" fill="#A3C02D"/>
</g>
<g style="mix-blend-mode:multiply">
<path d="M29.4237 40.5581C29.4634 41.4198 28.4896 41.967 27.8894 41.4387C27.4195 41.8915 26.6155 41.8664 26.1682 41.3946C25.8682 41.8852 25.1944 42.0802 24.7132 41.8035C24.4301 42.2123 23.796 42.2374 23.4902 41.8538C23.7337 42.3507 24.4414 42.445 24.7811 42.0236C25.2454 42.3381 25.9248 42.1997 26.2645 41.7406C26.6721 42.25 27.4761 42.3444 27.9743 41.9293C28.7613 42.7406 30.0182 41.5582 29.4237 40.5581Z" fill="#A3C02D"/>
</g>
</g>
<mask id="mask14_100_10198" style="mask-type:luminance" maskUnits="userSpaceOnUse" x="21" y="34" width="9" height="5">
<path d="M28.6899 35.814C28.628 35.8149 28.5674 35.8205 28.5081 35.831C28.0626 33.8617 25.3715 33.9932 25.0879 36.0046C24.4696 35.5681 23.5598 35.926 23.3163 36.6738C22.7094 36.2455 21.8494 36.7801 21.8698 37.5865C21.8369 38.6098 23.1346 39.0362 23.6164 38.1878C24.1871 38.8387 25.2991 38.5815 25.5923 37.7437C26.1098 38.3406 27.0701 38.4746 27.7098 38.023C29.4242 40.0099 31.1584 36.1241 28.6899 35.814Z" fill="white"/>
</mask>
<g mask="url(#mask14_100_10198)">
<path d="M28.5689 36.3443C28.5575 38.8979 25.0699 38.8979 25.0586 36.3443C25.0699 33.797 28.5632 33.797 28.5689 36.3443Z" fill="#769914"/>
<path d="M25.6988 37.1872C25.6931 38.986 23.2359 38.986 23.2246 37.1872C23.2359 35.3946 25.6931 35.3946 25.6988 37.1872Z" fill="#769914"/>
<path d="M29.9273 37.1872C29.9216 38.986 27.4588 38.986 27.4531 37.1872C27.4588 35.3946 29.9216 35.3946 29.9273 37.1872Z" fill="#769914"/>
<path d="M23.7849 37.5898C23.8019 38.9672 21.8542 38.9672 21.8712 37.5898C21.8542 36.2061 23.8019 36.2061 23.7849 37.5898Z" fill="#769914"/>
<g style="mix-blend-mode:multiply">
<path d="M29.6059 35.1052L28.8529 35.6461C28.8529 35.6461 28.0149 35.904 27.7715 36.7028C27.8847 35.7279 28.6151 34.9606 29.6059 35.1052Z" fill="#A3C02D"/>
</g>
<g style="mix-blend-mode:multiply">
<path d="M24.4539 35.1682L23.9047 35.9607C23.9047 35.9607 23.2253 36.2563 23.197 37.3444C23.0159 36.3884 23.4745 35.3946 24.4539 35.1682Z" fill="#A3C02D"/>
</g>
<g style="mix-blend-mode:multiply">
<path d="M29.5879 36.2437C29.6898 37.4387 28.2574 38.1683 27.5044 37.3192C26.9439 37.879 25.9757 37.923 25.3756 37.4261C25.2397 38.0991 24.566 38.5897 23.9375 38.4325C24.5433 38.7721 25.3473 38.4199 25.5907 37.7406C26.1116 38.3381 27.0684 38.4765 27.7082 38.0236C28.7556 39.5143 30.7486 37.6274 29.5879 36.2437Z" fill="#A3C02D"/>
</g>
</g>
<path d="M29.6793 51.0747C29.6793 51.0747 29.6113 49.9992 29.1074 49.5086C29.1074 49.5086 29.8208 50.1627 29.8718 50.2948C29.8718 50.2948 29.7642 49.2696 29.5604 48.9991C29.5604 48.9991 30.0133 49.4394 30.1039 49.6784C30.1039 49.6784 29.9623 48.9363 29.8265 48.691C29.8265 48.691 30.2341 49.3199 30.2964 49.7539C30.2964 49.7539 30.3643 48.5715 30.2284 48.1123C30.2284 48.1123 30.5965 49.4017 30.5965 49.974C30.5965 49.974 30.6134 48.8734 30.9022 48.4582C30.9022 48.4582 30.8456 49.5275 30.8909 49.9174C30.8909 49.9174 31.0324 49.3451 31.0268 48.9929C31.0268 48.9929 31.2079 49.7162 31.1513 50.0684C31.1513 50.0684 31.4061 49.4206 31.2985 48.5337C31.2985 48.5337 31.5137 49.2256 31.4967 49.8042C31.4967 49.8042 31.6722 49.2948 31.9043 49.0054C31.9043 49.0054 31.5929 49.9489 31.5873 50.2508C31.5873 50.2508 31.7118 49.8797 31.9496 49.7162C31.9496 49.7162 31.6439 50.3451 31.5759 50.6219C31.5759 50.6219 31.8364 50.2319 32.2554 50.081C32.2554 50.081 31.7911 50.7225 31.7798 51.0747H29.6793Z" fill="#769914"/>
<path d="M31.2479 51.0683C31.2479 51.0683 31.2026 50.3199 30.8516 49.9739C30.8516 49.9739 31.3498 50.4331 31.3838 50.5274C31.3838 50.5274 31.3102 49.8104 31.1686 49.6154C31.1686 49.6154 31.48 49.9299 31.548 50.0934C31.548 50.0934 31.446 49.5777 31.3498 49.4079C31.3498 49.4079 31.6385 49.8418 31.6782 50.15C31.6782 50.15 31.7291 49.3198 31.6329 48.999C31.6329 48.999 31.8933 49.8984 31.8933 50.301C31.8933 50.301 31.9046 49.5336 32.1085 49.238C32.1085 49.238 32.0632 49.9865 32.0971 50.2632C32.0971 50.2632 32.1991 49.8607 32.1934 49.6154C32.1934 49.6154 32.318 50.1249 32.284 50.3702C32.284 50.3702 32.4595 49.9173 32.3802 49.2946C32.3802 49.2946 32.5331 49.7789 32.5218 50.1815C32.5218 50.1815 32.6463 49.8293 32.8105 49.628C32.8105 49.628 32.5897 50.2884 32.5841 50.496C32.5841 50.496 32.6746 50.2381 32.8388 50.1186C32.8388 50.1186 32.6237 50.5652 32.5784 50.7538C32.5784 50.7538 32.7596 50.4834 33.054 50.3765C33.054 50.3765 32.7256 50.823 32.7199 51.0683H31.2479Z" fill="#769914"/>
<path d="M44.3674 45.0029L43.9824 63.375H45.8225L44.6732 44.5752L44.3674 45.0029Z" fill="#331C10"/>
<path d="M46.8177 44.833L44.6719 48.1477L44.7511 48.915L46.8177 44.833Z" fill="#331C10"/>
<path d="M42.4531 44.9149L44.5989 49.085L44.4461 50.1039L42.4531 44.7451V44.9149Z" fill="#331C10"/>
<path d="M40.8445 49.1731L44.6718 54.274V55.2112L42.0674 51.8085L38.8516 49.7643L41.9938 51.3808L40.8445 49.1731Z" fill="#331C10"/>
<path d="M48.4995 49.8523L44.9043 53.3368V54.362L48.4995 49.8523Z" fill="#331C10"/>
<path d="M46.2793 52.3996L46.4491 52.3116L50.3614 50.2234L46.6586 51.8335L46.2793 52.3996Z" fill="#331C10"/>
<path d="M44.9771 56.9092L47.0436 55.123L48.4477 53.5254L47.355 55.2928L50.6785 53.5443L47.5079 55.5507L44.9771 58.0162L44.8242 56.8275" fill="#331C10"/>
<path d="M39.0098 53.8274L41.8406 56.4879L44.5979 58.1044L44.6715 57.337L42.0671 56.1483L41.3028 53.167L41.6878 55.8024L39.0098 53.8274Z" fill="#331C10"/>
<path d="M42.4531 44.9149L42.6796 45.3615L42.4531 44.7451V44.9149Z" fill="#331C10"/>
<path d="M50.6789 53.5443L47.3555 55.2928L48.4482 53.5254L47.0441 55.123L45.4022 56.5445L45.2437 53.9279L46.6025 52.2297L50.3619 50.2233L47.0554 51.6637L48.4992 49.8522L45.1927 53.06L44.9153 48.5817L46.8176 44.8331L44.87 47.8395L44.6718 44.5752L44.3661 45.0029L44.2925 48.4937L42.6789 45.3614C44.2642 49.695 44.3944 48.8207 44.1849 53.626L40.8445 49.173L41.9938 51.3806L38.8516 49.7642L42.0674 51.8083L44.1679 54.5506L44.117 57.0791L42.0674 56.1482L41.3031 53.1669L41.6881 55.8023L39.0101 53.8273L41.841 56.4878L44.1 57.8087L43.9811 63.375H45.8212L45.4645 57.5445L47.5084 55.5507L50.6789 53.5443Z" fill="#331C10"/>
<g style="mix-blend-mode:multiply">
<path d="M42.4512 44.9147L42.6776 45.3613L42.4512 44.7449V44.9147Z" fill="#331C10"/>
<path d="M45.4624 57.5444L47.5063 55.5506L50.6769 53.5442L47.1949 55.5506L45.2076 57.3369L44.7207 63.375H45.8191L45.4624 57.5444Z" fill="#331C10"/>
<path d="M44.9025 53.3367L44.9931 56.7268L45.3894 56.3242L45.2422 53.9279L46.601 52.2297L50.3604 50.2233L47.0539 51.6636L48.4977 49.8522L45.1912 53.0599L44.9138 48.5817L46.8161 44.833L44.7383 48.481L44.9025 53.3367Z" fill="#331C10"/>
</g>
<mask id="mask15_100_10198" style="mask-type:luminance" maskUnits="userSpaceOnUse" x="38" y="40" width="13" height="7">
<path d="M49.4231 42.7431C49.2238 42.7431 49.0342 42.7852 48.8581 42.8594C48.3989 41.7632 47.052 41.2273 46.0538 41.794C44.9119 39.6725 41.6881 40.348 41.3336 42.7991C40.6208 42.5802 39.8316 43.006 39.5253 43.713C37.6801 43.9991 38.6041 47.093 40.2375 46.0905C40.8841 46.4748 41.7815 46.2301 42.1993 45.5892C43.0712 46.4729 44.6203 46.4961 45.5137 45.6357C46.2152 46.4263 47.5378 46.4861 48.2953 45.7546C50.6127 47.8937 52.4295 43.0683 49.4231 42.7431Z" fill="white"/>
</mask>
<g mask="url(#mask15_100_10198)">
<path d="M49.4207 42.745C49.2225 42.745 49.03 42.7827 48.8545 42.8582C48.3959 41.7638 47.0484 41.2292 46.052 41.7952C44.9083 39.6756 41.6868 40.3486 41.3301 42.8016C40.6167 42.5814 39.8297 43.0091 39.524 43.7136C37.6782 43.9966 38.6011 47.0911 40.2373 46.0911C40.8828 46.4747 41.783 46.2294 42.1963 45.5879C43.0682 46.4747 44.6195 46.4936 45.5141 45.6382C46.2161 46.4244 47.5353 46.4873 48.294 45.7514C50.6097 47.8962 52.4271 43.0657 49.4207 42.745Z" fill="#769914"/>
<g style="mix-blend-mode:multiply">
<path d="M50.4233 43.135C50.9215 44.7829 48.9625 46.1415 47.8472 44.959C47.1338 45.7452 45.809 45.783 45.0616 45.0408C44.2237 45.9654 42.6723 46.0534 41.7551 45.2295C41.3701 45.9025 40.4926 46.2107 39.8245 45.871C39.6093 46.0408 39.3206 46.1289 39.0488 46.0912C39.3885 46.3365 39.8924 46.3365 40.2378 46.0912C40.8832 46.4748 41.7834 46.2295 42.1968 45.588C43.0687 46.4748 44.62 46.4937 45.5145 45.6383C46.2166 46.4245 47.5358 46.4874 48.2945 45.7515C49.8571 47.4623 52.1105 44.6823 50.4233 43.135Z" fill="#A3C02D"/>
</g>
<g style="mix-blend-mode:multiply">
<path d="M46.9637 41.1347L46.0522 41.7951C46.0522 41.7951 45.0387 42.1033 44.75 43.0656C44.8972 41.8706 45.7408 40.9774 46.9637 41.1347Z" fill="#A3C02D"/>
</g>
<g style="mix-blend-mode:multiply">
<path d="M50.4342 41.8895L49.5227 42.5436C49.5227 42.5436 48.5036 42.8518 48.2148 43.8141C48.3677 42.6191 49.2113 41.7259 50.4342 41.8895Z" fill="#A3C02D"/>
</g>
</g>
<mask id="mask16_100_10198" style="mask-type:luminance" maskUnits="userSpaceOnUse" x="46" y="46" width="7" height="5">
<path d="M50.8952 47.9029C50.8023 47.9029 50.7121 47.913 50.6246 47.9331C49.9027 46.1141 47.2349 46.6393 47.1454 48.6501C45.0562 48.7243 46.3805 52.0849 47.8452 50.4395C48.4289 50.9798 49.4084 51.0119 50.0205 50.5075C51.9885 52.1214 53.3382 48.1218 50.8952 47.9029Z" fill="white"/>
</mask>
<g mask="url(#mask16_100_10198)">
<path d="M50.8112 48.8334C50.7716 51.5128 47.182 51.5128 47.1367 48.8334C47.182 46.1477 50.7716 46.1477 50.8112 48.8334Z" fill="#769914"/>
<path d="M52.2329 49.3868C52.2272 51.3303 49.5662 51.3303 49.5605 49.3868C49.5662 47.4433 52.2272 47.4433 52.2329 49.3868Z" fill="#769914"/>
<path d="M48.0591 49.7578C48.0761 51.2044 46.0322 51.2044 46.0549 49.7578C46.0322 48.3112 48.0761 48.3112 48.0591 49.7578Z" fill="#769914"/>
<g style="mix-blend-mode:multiply">
<path d="M51.5639 47.2547L50.7712 47.8208C50.7712 47.8208 49.8936 48.0912 49.6445 48.9215C49.7578 47.9025 50.5221 47.1038 51.5639 47.2547Z" fill="#A3C02D"/>
</g>
<g style="mix-blend-mode:multiply">
<path d="M51.8752 48.3804C52.1696 49.6383 50.7825 50.6761 49.8426 49.9402C49.2991 50.5314 48.3253 50.6509 47.6798 50.2044C47.4817 50.6195 46.9834 50.8585 46.5645 50.7264C46.9721 51.0032 47.5722 50.8585 47.844 50.4371C48.4272 50.978 49.4066 51.0095 50.0238 50.5063C51.2354 51.7328 53.0188 49.6886 51.8752 48.3804Z" fill="#A3C02D"/>
</g>
</g>
<mask id="mask17_100_10198" style="mask-type:luminance" maskUnits="userSpaceOnUse" x="46" y="51" width="8" height="5">
<path d="M51.9843 52.7814C51.9084 52.7814 51.835 52.7898 51.7641 52.8066C51.3377 51.7052 49.7927 51.5681 49.2146 52.5833C48.5437 51.9021 47.3355 52.2952 47.0971 53.2594C45.304 53.3349 46.3379 56.2753 47.7023 54.9878C48.2198 55.3426 48.9847 55.1897 49.3601 54.6765C49.8176 55.2457 50.7189 55.3514 51.2766 54.8891C52.8687 56.1961 53.962 52.9588 51.9843 52.7814Z" fill="white"/>
</mask>
<g mask="url(#mask17_100_10198)">
<path d="M51.9197 53.5318C51.9084 55.6892 48.9529 55.6892 48.9473 53.5318C48.9529 51.3745 51.9084 51.3745 51.9197 53.5318Z" fill="#769914"/>
<path d="M53.0692 53.9846C53.0862 55.5381 50.8838 55.5381 50.9064 53.9846C50.8838 52.4247 53.0862 52.4247 53.0692 53.9846Z" fill="#769914"/>
<path d="M49.6886 53.7079C49.6829 55.6388 47.0445 55.6388 47.0332 53.7079C47.0445 51.7832 49.6829 51.7832 49.6886 53.7079Z" fill="#769914"/>
<path d="M47.9671 54.2738C47.9841 55.6009 46.1101 55.6009 46.1271 54.2738C46.1101 52.953 47.9841 52.953 47.9671 54.2738Z" fill="#769914"/>
<g style="mix-blend-mode:multiply">
<path d="M53.6797 51.8964L52.7115 52.5946C52.7115 52.5946 51.6358 52.9153 51.3301 53.9343C51.4886 52.6763 52.3832 51.7266 53.6797 51.8964Z" fill="#A3C02D"/>
</g>
<g style="mix-blend-mode:multiply">
<path d="M50.2876 50.9656L49.7045 52.0663C49.7045 52.0663 48.8779 52.8965 49.0194 53.9595C48.6457 52.7518 49.059 51.4562 50.2876 50.9656Z" fill="#A3C02D"/>
</g>
<g style="mix-blend-mode:multiply">
<path d="M52.9548 53.4563C52.8189 54.2614 51.8564 54.6639 51.2733 54.1545C50.7524 54.6702 49.8465 54.6513 49.3426 54.1293C49.0142 54.6765 48.2612 54.9029 47.7177 54.601C47.293 55.23 46.3022 55.0098 46.1267 54.2488C46.0758 55.1545 47.1628 55.6514 47.7007 54.991C48.2216 55.3432 48.9859 55.1922 49.3596 54.6765C49.8182 55.2489 50.7184 55.3495 51.2789 54.8903C52.1112 55.752 53.4927 54.5884 52.9548 53.4563Z" fill="#A3C02D"/>
</g>
</g>
<mask id="mask18_100_10198" style="mask-type:luminance" maskUnits="userSpaceOnUse" x="37" y="51" width="7" height="4">
<path d="M42.5178 52.5265C42.4502 52.5265 42.3847 52.5338 42.3213 52.5485C41.9403 51.5654 40.5605 51.4427 40.0441 52.3491C39.4451 51.7409 38.366 52.0925 38.1531 52.9529C36.5514 53.0208 37.4754 55.6461 38.6932 54.497C39.1558 54.814 39.8392 54.6775 40.1738 54.219C40.5831 54.7272 41.3877 54.8216 41.8853 54.4083C43.3076 55.5757 44.2842 52.6843 42.5178 52.5265Z" fill="white"/>
</mask>
<g mask="url(#mask18_100_10198)">
<path d="M42.46 53.1984C42.4487 55.1231 39.8103 55.1231 39.8047 53.1984C39.8103 51.2675 42.4544 51.2675 42.46 53.1984Z" fill="#769914"/>
<path d="M43.4855 53.6009C43.5024 54.991 41.5378 54.991 41.5548 53.6009C41.5378 52.2046 43.5024 52.2046 43.4855 53.6009Z" fill="#769914"/>
<path d="M40.4662 53.3555C40.4606 55.0789 38.1053 55.0789 38.0996 53.3555C38.1053 51.6321 40.4606 51.6321 40.4662 53.3555Z" fill="#769914"/>
<path d="M38.9271 53.8589C38.9441 55.0413 37.2739 55.0413 37.2852 53.8589C37.2739 52.6827 38.9441 52.6764 38.9271 53.8589Z" fill="#769914"/>
<g style="mix-blend-mode:multiply">
<path d="M43.632 51.7202L42.862 52.2737C42.862 52.2737 42.0071 52.5316 41.7637 53.343C41.8769 52.3555 42.6186 51.5756 43.632 51.7202Z" fill="#A3C02D"/>
</g>
<g style="mix-blend-mode:multiply">
<path d="M40.8846 50.9968L40.3977 51.8585C40.3977 51.8585 39.724 52.4938 39.8089 53.3429C39.5371 52.3931 39.9108 51.3428 40.8846 50.9968Z" fill="#A3C02D"/>
</g>
<g style="mix-blend-mode:multiply">
<path d="M43.3359 53.0347C43.3755 53.8964 42.4017 54.4436 41.8015 53.9152C41.3316 54.3681 40.5276 54.3429 40.0803 53.8712C39.7803 54.3618 39.1065 54.5568 38.6253 54.28C38.3422 54.6889 37.7081 54.714 37.4023 54.3303C37.6458 54.8272 38.3535 54.9216 38.6932 54.5002C39.1575 54.8146 39.8369 54.6763 40.1766 54.2171C40.5842 54.7266 41.3882 54.8209 41.8864 54.4058C42.6734 55.2172 43.9303 54.0347 43.3359 53.0347Z" fill="#A3C02D"/>
</g>
</g>
<mask id="mask19_100_10198" style="mask-type:luminance" maskUnits="userSpaceOnUse" x="35" y="46" width="9" height="6">
<path d="M42.602 48.2906C42.5401 48.2914 42.4795 48.2971 42.4203 48.3076C41.9747 46.3383 39.2837 46.4697 39 48.4812C38.3817 48.0447 37.4719 48.4026 37.2284 49.1504C36.6215 48.7221 35.7615 49.2567 35.7819 50.063C35.749 51.0864 37.0467 51.5128 37.5285 50.6643C38.0992 51.3153 39.2112 51.0581 39.5045 50.2203C40.0219 50.8172 40.9822 50.9511 41.622 50.4995C43.3363 52.4864 45.0705 48.6007 42.602 48.2906Z" fill="white"/>
</mask>
<g mask="url(#mask19_100_10198)">
<path d="M42.481 48.8209C42.4697 51.3745 38.982 51.3745 38.9707 48.8209C38.982 46.2736 42.4753 46.2736 42.481 48.8209Z" fill="#769914"/>
<path d="M39.6109 49.6638C39.6052 51.4626 37.148 51.4626 37.1367 49.6638C37.148 47.8712 39.6052 47.8712 39.6109 49.6638Z" fill="#769914"/>
<path d="M43.8394 49.6638C43.8338 51.4626 41.3709 51.4626 41.3652 49.6638C41.3709 47.8712 43.8338 47.8712 43.8394 49.6638Z" fill="#769914"/>
<path d="M37.697 50.0664C37.714 51.4438 35.7663 51.4438 35.7833 50.0664C35.7663 48.6826 37.714 48.6826 37.697 50.0664Z" fill="#769914"/>
<g style="mix-blend-mode:multiply">
<path d="M43.518 47.5818L42.765 48.1227C42.765 48.1227 41.927 48.3806 41.6836 49.1794C41.7968 48.2045 42.5272 47.4371 43.518 47.5818Z" fill="#A3C02D"/>
</g>
<g style="mix-blend-mode:multiply">
<path d="M38.366 47.6448L37.8169 48.4373C37.8169 48.4373 37.1374 48.7329 37.1091 49.821C36.928 48.865 37.3866 47.8712 38.366 47.6448Z" fill="#A3C02D"/>
</g>
<g style="mix-blend-mode:multiply">
<path d="M43.5 48.7202C43.6019 49.9153 42.1695 50.6449 41.4165 49.7958C40.856 50.3555 39.8878 50.3996 39.2877 49.9027C39.1518 50.5757 38.4781 51.0663 37.8496 50.909C38.4554 51.2487 39.2594 50.8964 39.5028 50.2172C40.0237 50.8147 40.9806 50.9531 41.6203 50.5002C42.6678 51.9908 44.6607 50.1039 43.5 48.7202Z" fill="#A3C02D"/>
</g>
</g>
<path d="M43.5914 63.5513C43.5914 63.5513 43.5234 62.4758 43.0195 61.9852C43.0195 61.9852 43.7329 62.6393 43.7839 62.7714C43.7839 62.7714 43.6763 61.7462 43.4725 61.4757C43.4725 61.4757 43.9254 61.916 44.016 62.155C44.016 62.155 43.8745 61.4128 43.7386 61.1675C43.7386 61.1675 44.1462 61.7965 44.2085 62.2305C44.2085 62.2305 44.2764 61.048 44.1406 60.5889C44.1406 60.5889 44.5086 61.8783 44.5086 62.4506C44.5086 62.4506 44.5256 61.3499 44.8143 60.9348C44.8143 60.9348 44.7577 62.004 44.803 62.394C44.803 62.394 44.9445 61.8216 44.9389 61.4694C44.9389 61.4694 45.12 62.1927 45.0634 62.545C45.0634 62.545 45.3182 61.8971 45.2106 61.0103C45.2106 61.0103 45.4258 61.7021 45.4088 62.2808C45.4088 62.2808 45.5843 61.7713 45.8164 61.482C45.8164 61.482 45.505 62.4255 45.4994 62.7274C45.4994 62.7274 45.6239 62.3563 45.8617 62.1927C45.8617 62.1927 45.556 62.8217 45.4881 63.0984C45.4881 63.0984 45.7485 62.7085 46.1675 62.5575C46.1675 62.5575 45.7032 63.1991 45.6919 63.5513H43.5914Z" fill="#769914"/>
<path d="M45.16 63.5449C45.16 63.5449 45.1147 62.7964 44.7637 62.4505C44.7637 62.4505 45.2619 62.9096 45.2959 63.004C45.2959 63.004 45.2223 62.287 45.0807 62.092C45.0807 62.092 45.3921 62.4065 45.4601 62.57C45.4601 62.57 45.3582 62.0542 45.2619 61.8844C45.2619 61.8844 45.5507 62.3184 45.5903 62.6266C45.5903 62.6266 45.6412 61.7964 45.545 61.4756C45.545 61.4756 45.8054 62.375 45.8054 62.7775C45.8054 62.7775 45.8168 62.0102 46.0206 61.7146C46.0206 61.7146 45.9753 62.4631 46.0093 62.7398C46.0093 62.7398 46.1112 62.3373 46.1055 62.092C46.1055 62.092 46.2301 62.6014 46.1961 62.8467C46.1961 62.8467 46.3716 62.3939 46.2923 61.7712C46.2923 61.7712 46.4452 62.2555 46.4339 62.658C46.4339 62.658 46.5584 62.3058 46.7226 62.1046C46.7226 62.1046 46.5018 62.765 46.4962 62.9725C46.4962 62.9725 46.5868 62.7147 46.7509 62.5951C46.7509 62.5951 46.5358 63.0417 46.4905 63.2304C46.4905 63.2304 46.6717 62.9599 46.9661 62.853C46.9661 62.853 46.6377 63.2996 46.632 63.5449H45.16Z" fill="#769914"/>
<path d="M60.1975 52.1982L59.8125 70.5704H61.6526L60.5032 51.7705L60.1975 52.1982Z" fill="#331C10"/>
<path d="M62.6478 52.0283L60.502 55.343L60.5812 56.1103L62.6478 52.0283Z" fill="#331C10"/>
<path d="M58.2832 52.1103L60.429 56.2803L60.2761 57.2992L58.2832 51.9404V52.1103Z" fill="#331C10"/>
<path d="M56.6746 56.3684L60.5019 61.4693V62.4065L57.8975 59.0038L54.6816 56.9596L57.8239 58.5761L56.6746 56.3684Z" fill="#331C10"/>
<path d="M64.3296 57.0476L60.7344 60.5321V61.5573L64.3296 57.0476Z" fill="#331C10"/>
<path d="M62.1094 59.5949L62.2792 59.5069L66.1915 57.4187L62.4887 59.0289L62.1094 59.5949Z" fill="#331C10"/>
<path d="M60.8072 64.1046L62.8737 62.3183L64.2778 60.7207L63.1851 62.4881L66.5085 60.7396L63.338 62.746L60.8072 65.2115L60.6543 64.0228" fill="#331C10"/>
<path d="M54.8398 61.0227L57.6707 63.6833L60.428 65.2997L60.5016 64.5324L57.8972 63.3436L57.1328 60.3623L57.5178 62.9977L54.8398 61.0227Z" fill="#331C10"/>
<path d="M58.2832 52.1103L58.5097 52.5568L58.2832 51.9404V52.1103Z" fill="#331C10"/>
<path d="M66.509 60.7396L63.1856 62.4881L64.2783 60.7207L62.8742 62.3183L61.2323 63.7398L61.0738 61.1233L62.4326 59.425L66.192 57.4186L62.8855 58.859L64.3293 57.0475L61.0228 60.2553L60.7454 55.777L62.6477 52.0284L60.7001 55.0349L60.5019 51.7705L60.1962 52.1982L60.1226 55.689L58.509 52.5567C60.0943 56.8903 60.2245 56.016 60.015 60.8214L56.6746 56.3683L57.8239 58.5759L54.6816 56.9595L57.8975 59.0036L59.998 61.7459L59.9471 64.2744L57.8975 63.3435L57.1332 60.3622L57.5182 62.9976L54.8402 61.0226L57.671 63.6832L59.9301 65.004L59.8112 70.5704H61.6512L61.2946 64.7398L63.3384 62.746L66.509 60.7396Z" fill="#331C10"/>
<g style="mix-blend-mode:multiply">
<path d="M58.2812 52.11L58.5077 52.5566L58.2812 51.9402V52.11Z" fill="#331C10"/>
<path d="M61.2925 64.7397L63.3364 62.7459L66.5069 60.7395L63.025 62.7459L61.0377 64.5322L60.5508 70.5703H61.6492L61.2925 64.7397Z" fill="#331C10"/>
<path d="M60.7326 60.532L60.8231 63.9221L61.2195 63.5196L61.0723 61.1232L62.4311 59.425L66.1905 57.4186L62.884 58.8589L64.3278 57.0475L61.0213 60.2552L60.7439 55.777L62.6462 52.0283L60.5684 55.6763L60.7326 60.532Z" fill="#331C10"/>
</g>
<mask id="mask20_100_10198" style="mask-type:luminance" maskUnits="userSpaceOnUse" x="54" y="47" width="13" height="7">
<path d="M65.2532 49.9384C65.0539 49.9384 64.8642 49.9805 64.6882 50.0548C64.229 48.9585 62.8821 48.4226 61.8839 48.9893C60.7419 46.8678 57.5181 47.5433 57.1637 49.9944C56.4509 49.7755 55.6616 50.2013 55.3553 50.9083C53.5102 51.1944 54.4342 54.2883 56.0676 53.2858C56.7142 53.6701 57.6116 53.4254 58.0294 52.7845C58.9013 53.6682 60.4503 53.6915 61.3438 52.831C62.0453 53.6216 63.3678 53.6814 64.1254 52.9499C66.4427 55.089 68.2596 50.2636 65.2532 49.9384Z" fill="white"/>
</mask>
<g mask="url(#mask20_100_10198)">
<path d="M65.2508 49.9403C65.0526 49.9403 64.8601 49.978 64.6846 50.0535C64.226 48.9591 62.8785 48.4245 61.882 48.9905C60.7384 46.8709 57.5168 47.5439 57.1601 49.9969C56.4468 49.7767 55.6598 50.2044 55.354 50.9089C53.5083 51.1919 54.4312 54.2864 56.0674 53.2864C56.7129 53.6701 57.6131 53.4248 58.0264 52.7832C58.8983 53.6701 60.4496 53.6889 61.3442 52.8335C62.0462 53.6197 63.3654 53.6826 64.1241 52.9467C66.4397 55.0915 68.2572 50.261 65.2508 49.9403Z" fill="#769914"/>
<g style="mix-blend-mode:multiply">
<path d="M66.2534 50.3303C66.7516 51.9782 64.7926 53.3368 63.6773 52.1543C62.9639 52.9405 61.639 52.9783 60.8917 52.2361C60.0537 53.1607 58.5024 53.2487 57.5852 52.4248C57.2002 53.0978 56.3227 53.406 55.6546 53.0663C55.4394 53.2362 55.1507 53.3242 54.8789 53.2865C55.2186 53.5318 55.7225 53.5318 56.0679 53.2865C56.7133 53.6701 57.6135 53.4248 58.0268 52.7833C58.8987 53.6701 60.4501 53.689 61.3446 52.8336C62.0467 53.6198 63.3659 53.6827 64.1245 52.9468C65.6872 54.6576 67.9405 51.8776 66.2534 50.3303Z" fill="#A3C02D"/>
</g>
<g style="mix-blend-mode:multiply">
<path d="M62.7938 48.33L61.8823 48.9904C61.8823 48.9904 60.8688 49.2986 60.5801 50.2609C60.7273 49.0659 61.5709 48.1728 62.7938 48.33Z" fill="#A3C02D"/>
</g>
<g style="mix-blend-mode:multiply">
<path d="M66.2643 49.0848L65.3528 49.7389C65.3528 49.7389 64.3337 50.0471 64.0449 51.0094C64.1978 49.8144 65.0414 48.9212 66.2643 49.0848Z" fill="#A3C02D"/>
</g>
</g>
<mask id="mask21_100_10198" style="mask-type:luminance" maskUnits="userSpaceOnUse" x="61" y="54" width="8" height="5">
<path d="M66.7253 55.0982C66.6324 55.0982 66.5422 55.1083 66.4546 55.1284C65.7328 53.3094 63.0649 53.8346 62.9755 55.8454C60.8863 55.9197 62.2106 59.2802 63.6753 57.6348C64.259 58.1751 65.2385 58.2072 65.8505 57.7028C67.8186 59.3167 69.1683 55.3171 66.7253 55.0982Z" fill="white"/>
</mask>
<g mask="url(#mask21_100_10198)">
<path d="M66.6413 56.0287C66.6016 58.7081 63.0121 58.7081 62.9668 56.0287C63.0121 53.343 66.6016 53.343 66.6413 56.0287Z" fill="#769914"/>
<path d="M68.063 56.5821C68.0573 58.5257 65.3963 58.5257 65.3906 56.5821C65.3963 54.6386 68.0573 54.6386 68.063 56.5821Z" fill="#769914"/>
<path d="M63.8892 56.9531C63.9062 58.3998 61.8623 58.3998 61.885 56.9531C61.8623 55.5065 63.9062 55.5065 63.8892 56.9531Z" fill="#769914"/>
<g style="mix-blend-mode:multiply">
<path d="M67.3939 54.45L66.6013 55.0161C66.6013 55.0161 65.7237 55.2865 65.4746 56.1168C65.5878 55.0979 66.3522 54.2991 67.3939 54.45Z" fill="#A3C02D"/>
</g>
<g style="mix-blend-mode:multiply">
<path d="M67.7052 55.5757C67.9997 56.8336 66.6125 57.8714 65.6727 57.1355C65.1292 57.7268 64.1553 57.8463 63.5099 57.3997C63.3117 57.8148 62.8135 58.0538 62.3945 57.9217C62.8022 58.1985 63.4023 58.0538 63.6741 57.6324C64.2572 58.1733 65.2367 58.2048 65.8539 57.7016C67.0655 58.9281 68.8489 56.8839 67.7052 55.5757Z" fill="#A3C02D"/>
</g>
</g>
<mask id="mask22_100_10198" style="mask-type:luminance" maskUnits="userSpaceOnUse" x="61" y="59" width="8" height="4">
<path d="M67.8144 59.9767C67.7385 59.9767 67.6651 59.9851 67.5942 60.0019C67.1678 58.9006 65.6227 58.7634 65.0447 59.7786C64.3738 59.0974 63.1655 59.4905 62.9272 60.4547C61.1341 60.5302 62.1679 63.4706 63.5324 62.1831C64.0499 62.5379 64.8148 62.385 65.1902 61.8718C65.6476 62.441 66.549 62.5467 67.1067 62.0844C68.6988 63.3914 69.792 60.1541 67.8144 59.9767Z" fill="white"/>
</mask>
<g mask="url(#mask22_100_10198)">
<path d="M67.7498 60.7272C67.7384 62.8845 64.783 62.8845 64.7773 60.7272C64.783 58.5698 67.7384 58.5698 67.7498 60.7272Z" fill="#769914"/>
<path d="M68.8993 61.1799C68.9163 62.7334 66.7139 62.7334 66.7365 61.1799C66.7139 59.62 68.9163 59.62 68.8993 61.1799Z" fill="#769914"/>
<path d="M65.5186 60.9032C65.513 62.8341 62.8746 62.8341 62.8633 60.9032C62.8746 58.9786 65.513 58.9786 65.5186 60.9032Z" fill="#769914"/>
<path d="M63.7972 61.4691C63.8142 62.7963 61.9402 62.7963 61.9571 61.4691C61.9402 60.1483 63.8142 60.1483 63.7972 61.4691Z" fill="#769914"/>
<g style="mix-blend-mode:multiply">
<path d="M69.5098 59.0917L68.5416 59.7899C68.5416 59.7899 67.4659 60.1106 67.1602 61.1296C67.3187 59.8716 68.2132 58.9219 69.5098 59.0917Z" fill="#A3C02D"/>
</g>
<g style="mix-blend-mode:multiply">
<path d="M66.1177 58.1609L65.5346 59.2616C65.5346 59.2616 64.7079 60.0918 64.8495 61.1548C64.4758 59.9472 64.8891 58.6515 66.1177 58.1609Z" fill="#A3C02D"/>
</g>
<g style="mix-blend-mode:multiply">
<path d="M68.7849 60.6516C68.649 61.4567 67.6865 61.8592 67.1033 61.3498C66.5825 61.8655 65.6766 61.8466 65.1727 61.3246C64.8443 61.8718 64.0913 62.0982 63.5478 61.7963C63.1231 62.4253 62.1323 62.2052 61.9568 61.4441C61.9059 62.3498 62.9929 62.8467 63.5308 62.1863C64.0517 62.5385 64.816 62.3876 65.1897 61.8718C65.6483 62.4442 66.5485 62.5448 67.109 62.0857C67.9413 62.9473 69.3227 61.7838 68.7849 60.6516Z" fill="#A3C02D"/>
</g>
</g>
<mask id="mask23_100_10198" style="mask-type:luminance" maskUnits="userSpaceOnUse" x="53" y="58" width="7" height="4">
<path d="M58.3478 59.7218C58.2803 59.7218 58.2148 59.7291 58.1514 59.7438C57.7703 58.7607 56.3906 58.6381 55.8742 59.5444C55.2752 58.9362 54.1961 59.2878 53.9832 60.1482C52.3815 60.2161 53.3055 62.8414 54.5233 61.6923C54.9859 62.0093 55.6693 61.8728 56.0039 61.4143C56.4132 61.9225 57.2177 62.0169 57.7154 61.6036C59.1376 62.771 60.1143 59.8796 58.3478 59.7218Z" fill="white"/>
</mask>
<g mask="url(#mask23_100_10198)">
<path d="M58.2901 60.3938C58.2788 62.3184 55.6404 62.3184 55.6348 60.3938C55.6404 58.4628 58.2845 58.4628 58.2901 60.3938Z" fill="#769914"/>
<path d="M59.3155 60.7963C59.3325 62.1863 57.3679 62.1863 57.3849 60.7963C57.3679 59.3999 59.3325 59.3999 59.3155 60.7963Z" fill="#769914"/>
<path d="M56.2963 60.5508C56.2906 62.2742 53.9353 62.2742 53.9297 60.5508C53.9353 58.8275 56.2906 58.8275 56.2963 60.5508Z" fill="#769914"/>
<path d="M54.7572 61.0542C54.7742 62.2366 53.104 62.2366 53.1153 61.0542C53.104 59.878 54.7742 59.8717 54.7572 61.0542Z" fill="#769914"/>
<g style="mix-blend-mode:multiply">
<path d="M59.4621 58.9155L58.6921 59.469C58.6921 59.469 57.8372 59.7269 57.5938 60.5383C57.707 59.5508 58.4487 58.7709 59.4621 58.9155Z" fill="#A3C02D"/>
</g>
<g style="mix-blend-mode:multiply">
<path d="M56.7147 58.1921L56.2278 59.0538C56.2278 59.0538 55.5541 59.6891 55.639 60.5382C55.3672 59.5884 55.7409 58.5381 56.7147 58.1921Z" fill="#A3C02D"/>
</g>
<g style="mix-blend-mode:multiply">
<path d="M59.1659 60.23C59.2056 61.0917 58.2317 61.6389 57.6316 61.1105C57.1617 61.5634 56.3577 61.5382 55.9104 61.0665C55.6104 61.5571 54.9366 61.7521 54.4554 61.4753C54.1723 61.8842 53.5382 61.9093 53.2324 61.5257C53.4759 62.0225 54.1836 62.1169 54.5233 61.6955C54.9876 62.01 55.667 61.8716 56.0067 61.4124C56.4143 61.9219 57.2183 62.0162 57.7165 61.6011C58.5035 62.4125 59.7604 61.23 59.1659 60.23Z" fill="#A3C02D"/>
</g>
</g>
<mask id="mask24_100_10198" style="mask-type:luminance" maskUnits="userSpaceOnUse" x="51" y="54" width="9" height="5">
<path d="M58.4321 55.4859C58.3702 55.4868 58.3096 55.4924 58.2503 55.5029C57.8048 53.5336 55.1137 53.6651 54.8301 55.6765C54.2118 55.24 53.302 55.5979 53.0585 56.3457C52.4516 55.9174 51.5916 56.452 51.6119 57.2583C51.5791 58.2817 52.8768 58.7081 53.3586 57.8596C53.9293 58.5106 55.0413 58.2534 55.3345 57.4156C55.852 58.0125 56.8123 58.1464 57.452 57.6948C59.1664 59.6818 60.9006 55.796 58.4321 55.4859Z" fill="white"/>
</mask>
<g mask="url(#mask24_100_10198)">
<path d="M58.3111 56.0162C58.2997 58.5698 54.8121 58.5698 54.8008 56.0162C54.8121 53.4689 58.3054 53.4689 58.3111 56.0162Z" fill="#769914"/>
<path d="M55.441 56.8591C55.4353 58.6579 52.9781 58.6579 52.9668 56.8591C52.9781 55.0665 55.4353 55.0665 55.441 56.8591Z" fill="#769914"/>
<path d="M59.6695 56.8591C59.6638 58.6579 57.201 58.6579 57.1953 56.8591C57.201 55.0665 59.6638 55.0665 59.6695 56.8591Z" fill="#769914"/>
<path d="M53.5271 57.2617C53.544 58.6391 51.5964 58.6391 51.6134 57.2617C51.5964 55.8779 53.544 55.8779 53.5271 57.2617Z" fill="#769914"/>
<g style="mix-blend-mode:multiply">
<path d="M59.3481 54.7771L58.5951 55.318C58.5951 55.318 57.7571 55.5759 57.5137 56.3747C57.6269 55.3998 58.3573 54.6324 59.3481 54.7771Z" fill="#A3C02D"/>
</g>
<g style="mix-blend-mode:multiply">
<path d="M54.1961 54.8401L53.6469 55.6326C53.6469 55.6326 52.9675 55.9282 52.9392 57.0163C52.758 56.0603 53.2166 55.0665 54.1961 54.8401Z" fill="#A3C02D"/>
</g>
<g style="mix-blend-mode:multiply">
<path d="M59.3301 55.9155C59.432 57.1106 57.9996 57.8402 57.2466 56.9911C56.6861 57.5508 55.7179 57.5949 55.1178 57.098C54.9819 57.771 54.3081 58.2616 53.6797 58.1043C54.2855 58.444 55.0895 58.0918 55.3329 57.4125C55.8538 58.01 56.8106 58.1484 57.4504 57.6955C58.4978 59.1862 60.4908 57.2993 59.3301 55.9155Z" fill="#A3C02D"/>
</g>
</g>
<path d="M59.4214 70.7466C59.4214 70.7466 59.3535 69.6711 58.8496 69.1805C58.8496 69.1805 59.563 69.8346 59.6139 69.9667C59.6139 69.9667 59.5064 68.9415 59.3025 68.671C59.3025 68.671 59.7555 69.1113 59.8461 69.3503C59.8461 69.3503 59.7045 68.6081 59.5687 68.3628C59.5687 68.3628 59.9763 68.9918 60.0386 69.4258C60.0386 69.4258 60.1065 68.2433 59.9706 67.7842C59.9706 67.7842 60.3387 69.0736 60.3387 69.6459C60.3387 69.6459 60.3556 68.5452 60.6444 68.1301C60.6444 68.1301 60.5878 69.1994 60.6331 69.5893C60.6331 69.5893 60.7746 69.017 60.7689 68.6647C60.7689 68.6647 60.9501 69.388 60.8935 69.7403C60.8935 69.7403 61.1483 69.0924 61.0407 68.2056C61.0407 68.2056 61.2559 68.8975 61.2389 69.4761C61.2389 69.4761 61.4144 68.9666 61.6465 68.6773C61.6465 68.6773 61.3351 69.6208 61.3295 69.9227C61.3295 69.9227 61.454 69.5516 61.6918 69.388C61.6918 69.388 61.3861 70.017 61.3181 70.2938C61.3181 70.2938 61.5786 69.9038 61.9975 69.7528C61.9975 69.7528 61.5333 70.3944 61.522 70.7466H59.4214Z" fill="#769914"/>
<path d="M60.9901 70.7402C60.9901 70.7402 60.9448 69.9917 60.5938 69.6458C60.5938 69.6458 61.092 70.1049 61.126 70.1993C61.126 70.1993 61.0523 69.4823 60.9108 69.2873C60.9108 69.2873 61.2222 69.6018 61.2901 69.7653C61.2901 69.7653 61.1882 69.2495 61.092 69.0797C61.092 69.0797 61.3807 69.5137 61.4204 69.8219C61.4204 69.8219 61.4713 68.9917 61.3751 68.6709C61.3751 68.6709 61.6355 69.5703 61.6355 69.9729C61.6355 69.9729 61.6468 69.2055 61.8507 68.9099C61.8507 68.9099 61.8054 69.6584 61.8393 69.9351C61.8393 69.9351 61.9412 69.5326 61.9356 69.2873C61.9356 69.2873 62.0601 69.7968 62.0262 70.042C62.0262 70.042 62.2017 69.5892 62.1224 68.9665C62.1224 68.9665 62.2753 69.4508 62.264 69.8534C62.264 69.8534 62.3885 69.5011 62.5527 69.2999C62.5527 69.2999 62.3319 69.9603 62.3262 70.1678C62.3262 70.1678 62.4168 69.91 62.581 69.7905C62.581 69.7905 62.3659 70.237 62.3206 70.4257C62.3206 70.4257 62.5018 70.1553 62.7962 70.0483C62.7962 70.0483 62.4678 70.4949 62.4621 70.7402H60.9901Z" fill="#769914"/>
</svg>
