<svg width="113" height="36" viewBox="0 0 113 36" fill="none" xmlns="http://www.w3.org/2000/svg">
<g clip-path="url(#clip0_518_8637)">
<path fill-rule="evenodd" clip-rule="evenodd" d="M21.2693 7.55933C21.2693 7.36051 21.1079 7.19897 20.9088 7.19897H16.0617C15.8626 7.19897 15.7012 7.36015 15.7012 7.55897V18.5447C15.7012 19.2868 15.5975 19.9277 15.2862 20.5349C15.0441 21.0746 14.5945 21.5805 14.1104 22.019C13.6262 22.4575 12.9691 22.7949 12.312 23.0647C11.724 23.2671 11.1015 23.402 10.5828 23.402C9.71815 23.402 8.30021 22.9973 7.19352 22.0528C6.05223 21.1758 5.53347 19.9614 5.53347 18.4773V7.55897C5.53347 7.36015 5.37208 7.19897 5.17298 7.19897H0.360496C0.1614 7.19897 0 7.36061 0 7.55944V18.4773C0 25.3247 6.15598 28.799 10.5828 28.799C15.4245 28.799 21.2693 25.0211 21.2693 18.5447V7.55933ZM0.360496 30.599C0.1614 30.599 0 30.7601 0 30.959V35.639C0 35.8378 0.1614 35.999 0.360496 35.999H20.9088C21.1079 35.999 21.2693 35.8378 21.2693 35.639V30.959C21.2693 30.7601 21.1079 30.599 20.9088 30.599H0.360496Z" fill="white"/>
<path d="M41.0257 28.7998C40.8267 28.7998 40.6652 28.6386 40.6652 28.4398V26.3446C38.8195 27.8555 36.446 28.7998 33.8844 28.7998C27.9699 28.8375 23.1102 24.0405 23.0725 18.1103C23.0348 12.1801 27.8192 7.34533 33.7337 7.2698C36.3706 7.2698 38.7441 8.17632 40.6277 9.72497V0.36C40.6277 0.161177 40.7892 0 40.9882 0H46.1069C46.3059 0 46.467 0.160891 46.4674 0.35953L46.5042 28.4393C46.5042 28.6383 46.3427 28.7998 46.1437 28.7998H41.0257ZM39.1208 18.0348C39.083 16.5995 38.5556 15.2774 37.5386 14.2576C36.5213 13.3133 35.2029 12.7467 33.7714 12.7467C32.3398 12.7467 31.0213 13.2755 30.0041 14.2953C29.0623 15.353 28.4596 16.6372 28.4973 18.0725C28.4973 19.5079 29.0247 20.8299 30.0418 21.8497C31.059 22.8696 32.3775 23.3984 33.809 23.3984C35.2406 23.3606 36.5592 22.8318 37.5761 21.812C38.5934 20.7921 39.1208 19.4323 39.1208 18.0348Z" fill="white"/>
<path d="M69.9329 16.3287C69.9848 16.5031 69.8838 16.677 69.7101 16.7312L54.96 21.3365C55.5 22.0406 55.8674 22.3223 56.676 22.7432C57.9965 23.4002 59.4215 23.5077 60.7597 23.0864C62.1224 22.6176 63.2284 21.7131 63.8967 20.4299C63.9576 20.313 64.0784 20.2396 64.2104 20.2392L69.24 20.2277C69.479 20.2271 69.6524 20.4553 69.5839 20.6839C68.4617 24.4333 66.7382 26.8874 62.4378 28.2795C56.7719 30.1032 50.695 26.9705 48.8323 21.319C47.006 15.656 50.1387 9.58381 55.7931 7.72394C61.459 5.90022 67.5359 9.0329 69.3986 14.6845C69.4621 14.8852 69.7775 15.8063 69.9329 16.3287ZM54.3591 15.5261C54.1464 15.9776 53.9726 16.483 53.8735 16.9982C53.8248 17.2498 54.0674 17.4457 54.3119 17.3686L62.6981 14.7281C62.94 14.652 63.0279 14.3576 62.848 14.1795C62.4619 13.798 62.0178 13.4865 61.5322 13.188C60.2708 12.5919 58.8343 12.4483 57.4601 12.8809C56.1334 13.3383 55.039 14.279 54.3591 15.5261Z" fill="white"/>
<path d="M93.1657 7.19897C93.4288 7.19897 93.6033 7.4711 93.4934 7.7096L83.8606 28.5896C83.8018 28.7172 83.6738 28.799 83.5332 28.799H79.5361C79.398 28.799 79.2718 28.72 79.2116 28.5956L69.1047 7.71565C68.989 7.47661 69.1635 7.19897 69.4292 7.19897H75.4224C75.5609 7.19897 75.687 7.27799 75.7472 7.4023L81.4993 19.2874L86.839 7.41152C86.897 7.28217 87.0261 7.19897 87.1678 7.19897H93.1657Z" fill="white"/>
<path d="M99.3886 28.0856C98.4769 27.7489 97.6413 27.2252 96.6914 26.4021C95.1719 24.9805 94.3741 23.0352 94.4881 20.8654C94.4881 20.828 94.4881 20.828 94.4881 20.828V20.7822C94.4881 20.5812 94.6532 20.4191 94.8543 20.4223L99.1986 20.4913H99.2415C99.4276 20.4913 99.5786 20.642 99.5786 20.828C99.5786 20.828 99.6165 21.8755 100.034 22.5114C100.528 23.3345 101.63 23.7086 103.188 23.7086C104.479 23.7086 105.467 23.5964 106.074 23.2597C106.758 22.923 106.834 22.5114 106.834 22.2496C106.834 20.9402 104.403 20.4539 102.959 20.3042C101.326 20.1546 99.8825 19.8179 98.743 19.2942C97.6031 18.8452 96.6914 18.2092 95.9697 17.461C94.9441 16.3387 94.4502 15.0667 94.4502 13.5703C94.4502 11.5876 95.248 10.2034 95.9697 9.41777C97.4892 7.73427 99.9204 6.83643 103.225 6.83643C107.594 6.83643 109.797 8.74435 110.823 10.353C112.077 12.2235 112.077 14.2437 112.077 14.4682V14.4823C112.077 14.6811 111.915 14.8423 111.716 14.8423H107.323C107.137 14.8423 106.986 14.6916 106.986 14.5056C106.986 14.4682 106.986 14.4682 106.986 14.4682C106.986 14.2437 106.948 13.6077 106.606 13.1588C106.037 12.3732 104.859 11.9243 103.301 11.9243C101.554 11.9243 99.7686 12.3732 99.7686 13.3833C99.7686 13.8696 100.034 14.2437 100.604 14.5804C101.25 14.9545 102.238 15.2164 103.605 15.3661C106.796 15.7027 109.189 16.7502 110.633 18.3963C111.583 19.5186 112.115 20.828 112.115 22.287C112.115 22.9604 112.115 24.6813 110.671 26.2899C109.949 27.113 108.962 27.7489 107.746 28.1605C106.492 28.572 105.011 28.7964 103.263 28.7964C101.782 28.759 100.528 28.572 99.3886 28.0856Z" fill="white"/>
</g>
<defs>
<clipPath id="clip0_518_8637">
<rect width="112.114" height="36" fill="white"/>
</clipPath>
</defs>
</svg>
