<svg width="120" height="81" viewBox="0 0 120 81" fill="none" xmlns="http://www.w3.org/2000/svg">
<rect width="120" height="80" transform="translate(0 0.712158)" fill="#F7F7F7"/>
<path d="M105.937 30.5755C105.61 30.1394 105.283 29.8124 103.648 29.7034C103.212 29.7034 101.904 29.5942 99.6145 29.5942C93.6193 29.5942 89.4771 31.4473 87.406 35.0444C87.951 31.4473 84.4629 29.5942 76.8326 29.5942C67.8942 29.5942 62.226 33.1914 59.9369 40.4947C59.0648 43.2197 59.0648 45.3999 59.7188 47.1439H57.5388C55.9037 47.2532 53.7236 47.3619 52.3065 47.3619C49.0364 47.3619 46.9653 46.8169 46.2023 45.7269C45.5482 44.7458 45.5482 42.8928 46.4203 40.1676C47.8374 35.6985 51.2165 33.7364 56.6667 33.7364C59.5009 33.7364 62.226 34.0635 62.226 34.0635C62.5531 34.0635 62.771 33.6275 62.771 33.3005L62.6618 32.9734L62.4439 31.4473C62.3347 30.4663 61.5719 29.9213 60.2639 29.7032C59.0648 29.594 58.0838 29.594 56.7757 29.594H56.6665C49.5812 29.594 44.5669 31.9921 41.8419 36.5703C42.8229 31.8831 39.5528 29.594 32.0314 29.594C27.7803 29.594 24.7282 29.7032 22.984 29.9211C21.567 30.1389 20.695 30.6841 20.3679 31.6652L19.7139 33.6272C19.6047 33.9544 19.8231 34.1723 20.259 34.1723C20.5861 34.1723 21.894 33.9542 24.0741 33.8451C27.0172 33.6271 29.0883 33.518 30.5054 33.518C34.6476 33.518 36.5006 34.6081 35.8466 36.6792C35.7374 37.1152 35.4106 37.4422 34.8656 37.5512C30.9414 38.2052 27.7803 38.6412 25.4912 38.9683C18.9509 39.8403 15.1357 41.8024 14.1547 45.0725C12.7376 49.5417 16.2258 51.7218 24.6191 51.7218C28.7613 51.7218 32.3584 51.5037 35.1926 50.9588C36.8276 50.6317 37.6997 50.3047 38.0267 49.2147L39.5528 44.2005C39.4435 49.2147 42.8229 51.7218 50.0172 51.7218C53.0693 51.7218 56.0124 51.6125 57.4295 51.3947C58.8466 51.1766 59.6096 50.8496 59.9366 49.7596L60.2637 48.2335C61.7898 50.6316 65.169 51.8307 70.2922 51.8307C75.7424 51.8307 78.9035 51.7214 79.7755 51.3947C80.5386 51.1766 80.9746 50.7406 81.1926 50.1956C81.1926 50.0864 81.1926 49.9776 81.3018 49.8685L81.9559 47.7974C82.0651 47.4703 81.8466 47.2524 81.4109 47.2524L77.9227 47.4704C75.6336 47.5797 73.7806 47.6885 72.4725 47.6885C69.9654 47.6885 68.3303 47.4704 67.3493 47.1434C65.9322 46.5984 65.2782 45.6174 65.3872 43.9823L76.3966 42.5652C81.3018 41.9112 84.681 40.3852 86.3161 37.987L82.5009 50.7406C82.3916 50.9586 82.5009 51.1766 82.6101 51.2856C82.7194 51.3948 82.9373 51.5036 83.3731 51.5036H87.9513C88.7144 51.5036 89.0414 51.0676 89.1504 50.7406L93.1836 36.679C93.7286 34.8259 95.3636 33.9539 98.4158 33.9539C101.141 33.9539 103.103 33.9539 104.411 34.0632H104.52C104.738 34.0632 105.174 33.9539 105.501 33.4091L106.155 31.4471C106.155 31.12 106.155 30.793 105.937 30.5751L105.937 30.5755ZM32.4677 47.3622C31.0507 47.5802 28.9796 47.6893 26.3634 47.6893C21.6763 47.6893 19.7142 46.7082 20.2592 44.8552C20.6952 43.5471 21.8943 42.6751 23.8564 42.4571L34.4298 41.04L32.4677 47.3622ZM81.1928 36.0257C80.7567 37.4427 78.6857 38.4238 74.9795 38.9688L66.1502 40.1679L66.3682 39.4048C67.1312 37.0068 68.1123 35.4807 69.4204 34.6087C70.7284 33.7366 72.9085 33.3006 75.9606 33.3006C79.9938 33.4099 81.7378 34.2816 81.1928 36.0257H81.1928Z" fill="#B3B6BF"/>
</svg>
