<svg width="120" height="81" viewBox="0 0 120 81" fill="none" xmlns="http://www.w3.org/2000/svg">
<rect width="120" height="80" transform="translate(0 0.712158)" fill="#F7F7F7"/>
<path d="M102.237 33.8722C102.237 32.8238 103.079 31.9645 104.11 31.9645C104.609 31.9645 105.073 32.1707 105.434 32.5144C105.794 32.8753 105.983 33.3566 105.983 33.855C105.983 34.3534 105.794 34.8346 105.434 35.1955C105.073 35.5564 104.609 35.7626 104.11 35.7626C103.079 35.7626 102.237 34.9205 102.237 33.8722ZM102.082 33.8722C102.082 35.0065 102.993 35.9345 104.127 35.9345C104.677 35.9345 105.176 35.7283 105.554 35.333C105.932 34.9377 106.155 34.4221 106.155 33.8722C106.155 33.3222 105.949 32.8066 105.554 32.4113C105.159 32.016 104.66 31.8098 104.127 31.8098C102.993 31.8098 102.082 32.7379 102.082 33.8722ZM103.354 35.0924H103.646V34.1299H104.299C104.402 34.1299 104.488 34.1299 104.557 34.1643C104.643 34.2159 104.695 34.319 104.712 34.4565L104.746 34.8346V35.0065C104.763 35.0408 104.763 35.058 104.78 35.0752H105.141V35.0236C105.09 35.0065 105.073 34.9549 105.055 34.8861C105.038 34.8518 105.038 34.783 105.038 34.6971L105.021 34.4049C105.021 34.2674 104.987 34.1815 104.952 34.1299C104.901 34.0784 104.832 34.0268 104.746 33.9925C104.849 33.9409 104.918 33.8722 104.969 33.7862C105.021 33.7003 105.038 33.5972 105.038 33.4597C105.038 33.2019 104.935 33.03 104.746 32.9269C104.643 32.8753 104.505 32.8582 104.351 32.8582H103.371L103.354 35.0924ZM103.629 33.8722V33.0988H104.316C104.42 33.0988 104.505 33.116 104.557 33.1503C104.66 33.2019 104.712 33.3222 104.712 33.4769C104.712 33.6315 104.677 33.7347 104.591 33.7862C104.523 33.8378 104.42 33.8722 104.282 33.8722H103.629ZM22.2002 36.7079L13.8477 49.8382H19.5535L27.5967 37.2922L22.2002 36.7079ZM56.59 36.4157V31.552H40.3489C38.1319 31.6895 37.1695 32.755 36.4477 33.5112C35.6743 34.319 35.2446 36.0204 35.2446 36.0204V31.5864H26.5999C25.9468 31.5864 25.3281 31.8614 24.8641 32.5144C24.3829 33.1503 22.4064 36.4157 22.4064 36.4157H56.59ZM100.759 36.4157V31.552H83.3835C81.1836 31.6895 80.204 32.755 79.4822 33.5112C78.7088 34.319 78.2791 36.0204 78.2791 36.0204V36.4157H100.759ZM62.2959 31.5692H57.4321V36.4157H62.2959V31.5692ZM78.2276 31.5692H73.381V36.4157H78.2276V31.5692ZM78.2276 38.1687L73.4498 37.8766V43.4965C73.4498 43.4965 73.4326 45.112 71.8686 45.112H63.688C63.688 45.112 62.2959 44.9917 62.2959 43.5137V37.1204L57.4837 36.7766V45.387C58.2571 49.5117 61.9865 49.8382 61.9865 49.8382C61.9865 49.8382 62.3646 49.8554 62.4334 49.8726H73.5185C73.5185 49.8726 78.262 49.4945 78.262 44.923L78.2276 38.1687ZM30.295 49.8382H53.0153C56.9681 49.0477 57.3806 45.4385 57.3806 45.4385C57.5696 44.373 57.4665 43.4965 57.4665 43.4965C57.3462 42.7747 55.9713 39.578 53.0153 39.303C51.2451 39.1312 35.4852 37.8766 35.4852 37.8766C35.7946 39.4577 36.4992 40.2655 36.9804 40.7123C38.0804 41.7607 39.8162 42.07 39.8162 42.07L51.9669 43.084C52.345 43.1012 53.0496 43.2043 53.0324 44.1324C53.0324 44.2527 52.9293 45.0604 52.0356 45.0604H35.0384V37.8422L30.3121 37.4985C30.295 37.4985 30.295 49.8382 30.295 49.8382ZM78.262 49.8726H95.6545C100.02 49.6148 100.639 45.4729 100.639 45.4729C100.793 44.3902 100.673 43.4965 100.673 43.4965C100.553 42.5169 99.1605 39.5608 96.1873 39.2687C94.4343 39.0968 78.5713 38.1687 78.5713 38.1687C79.0353 39.8014 79.6712 40.2998 80.1525 40.7467C81.2524 41.8122 82.8851 42.0528 82.8851 42.0528C83.2975 42.0872 95.1561 43.084 95.1561 43.084C95.5342 43.1012 96.3076 43.1356 96.3076 44.0636C96.3076 44.3386 96.1701 44.6308 95.9982 44.7855C95.9982 44.7855 95.5858 45.0089 95.1905 45.0089H78.3135L78.262 49.8726Z" fill="#B3B6BF"/>
</svg>
