<?xml version="1.0" encoding="UTF-8"?>
<!DOCTYPE svg PUBLIC "-//W3C//DTD SVG 1.1//EN" "http://www.w3.org/Graphics/SVG/1.1/DTD/svg11.dtd">
<!-- Creator: CorelDRAW 2020 (64-Bit) -->
<svg xmlns="http://www.w3.org/2000/svg" xml:space="preserve" width="120" height="72" version="1.1" style="shape-rendering:geometricPrecision; text-rendering:geometricPrecision; image-rendering:optimizeQuality; fill-rule:evenodd; clip-rule:evenodd"

 xmlns:xlink="http://www.w3.org/1999/xlink"
 xmlns:xodm="http://www.corel.com/coreldraw/odm/2003">
 <defs>
  <style type="text/css">
   <![CDATA[
    .fil0 {fill:#0089EC}
    .fil1 {fill:#00BFFF}
    .fil2 {fill:white}
   ]]>
  </style>
 </defs>
 <g id="Слой_x0020_1">
  <metadata id="CorelCorpID_0Corel-Layer"/>
  <path class="fil0" d="M2554.57 3523.76c0,-170.69 41.95,-342.32 105.5,-478.51 37.42,-80.19 83.05,-158.1 137.15,-227.4 59.03,-75.62 88.58,-103.87 158.11,-167.8 76.38,-70.22 195.15,-143.78 288.02,-185.67 298.06,-134.44 662.89,-139.05 961.1,0.04 34.64,16.16 63.96,31.52 96.59,49.17 32.33,17.48 101.82,63.21 131.67,87.01 22.3,17.8 78.63,63.31 98.79,83.47 6.43,6.43 9.77,11.47 16.47,17.77 206.72,194.45 345.52,512.17 345.52,817.63 0,184.29 -35.81,347.94 -105.69,497.81 -51.18,109.77 -103.69,189.37 -177.58,277.05l-59.59 64.7c-91.92,92.04 -221.72,183.84 -342.15,236.68 -158.67,69.63 -304.44,104.7 -497.41,104.7 -239.04,0 -475.35,-82.93 -658.45,-211.64 -48.05,-33.78 -116.99,-90.6 -157.25,-132.15 -54.02,-55.75 -85.22,-93.24 -131.54,-157.86 -40.31,-56.23 -71.45,-115.71 -104.99,-184.47 -66.6,-136.5 -104.27,-318.31 -104.27,-490.53zm1213.87 -1224.14l-86.86 0c-11.9,4.51 -52.96,4.12 -69.36,5.61 -295.03,26.84 -571.34,159.78 -772.75,370.52 -107.01,111.97 -177.93,216.11 -244.37,364.48 -65.76,146.82 -104.26,326.59 -101.71,509.26 9.34,668.81 554.34,1210.33 1228.4,1212.31 676.66,1.99 1219.92,-541.63 1232.89,-1208.03 9.89,-508.4 -291.03,-937.79 -696.7,-1132.13 -111.37,-53.35 -224.48,-88.61 -349.14,-107.71 -22.62,-3.46 -45.67,-6.12 -68.84,-8.34 -16.65,-1.6 -59.59,-1.28 -71.56,-5.97z"/>
  <path class="fil1" d="M3849.67 4496.23c10.23,-4.8 26.45,-5 37.9,-5.78l67.14 137.25 -32.58 3.37 -13.26 -31.97c-14.16,1.08 -41.42,1.92 -53.11,7.06l-6.12 34.14 -32.68 3.81 32.71 -147.88zm-168.52 185.3c-39.64,-1.24 -36.35,1.57 -53.78,-25.74 -14.45,-22.63 -28.09,-4.63 -52.49,-26.87 -37.69,-34.35 -30.44,-148.67 64.79,-130.98 22.59,4.19 37.44,16.33 45.47,33.68 8.9,19.22 8.04,46.84 1.8,67.74 -6.68,22.34 -17.18,31.53 -35.4,41.16 6.21,13.14 21.96,26.9 29.61,41.01zm-276.68 -79.41c2.22,-7.24 75.68,-122.99 81.62,-128.95l33.62 8.9c5.31,3.63 18.11,150.08 18.08,151.64l-31.19 -8.55 -2.38 -33.01c-6.41,-3.48 -42.9,-11.85 -52.27,-12.1l-17.58 29.81 -29.9 -7.74zm309.62 -98.08l30.09 0.53 3.75 117.33 58.29 -0.88 0.98 24.39 -89.04 1.83 -4.07 -143.2zm243.44 85.17c10.28,0.79 71,8.03 59.66,-22.69 -4.96,-13.46 -46.86,-12.09 -63.76,-24.56 -31.08,-22.94 -16.95,-87 64.21,-75.56 0.22,0.51 0.4,1.24 0.47,1.6 0.41,1.99 2.91,10.99 -2.61,23.36 -13.1,0.25 -27.45,-1.69 -38.59,3.51 -10.76,5.02 -13.62,19.88 -0.44,26.22 21.88,10.51 43.04,2.09 61.45,22.14 32.96,35.9 -14.67,84.39 -73.02,72.91l-7.37 -26.93zm-582.65 -31.42c6.81,-23.05 -12.93,-30.85 -23.75,-43.79 -11.27,-13.46 -20.06,-28 -10.1,-50.3 7.09,-15.88 23.06,-25.65 46.85,-21 27.16,5.32 35.7,18.4 46.93,24.06 -4.09,11.1 -9.73,13.17 -16.54,20.75 -10.13,-8.56 -35.59,-30.83 -49.99,-11.88 -7.32,15.79 22.25,34.43 31.55,47.54 12.17,17.15 8.53,44.81 -5.84,55.55 -29.08,21.74 -82.26,-6.07 -86.2,-16.49 -1.51,-3.99 3.83,-21.66 9.26,-26.6 10.7,12.4 35.54,33.07 57.83,22.16zm819.24 -11.38l-26.41 9.86c-6.6,-6.15 -19.37,-45.45 -23.49,-56.97 -9.44,2.68 -47.79,16.39 -53.13,21.45l21.09 55.64c-6.42,5.41 -18.66,8.26 -27.72,12.07l-51.5 -134.7 28.24 -9.98 21.01 51.56 52.6 -19.48 -20.17 -53.46 28.26 -10.45 51.22 134.46zm-962.91 -176.46l25.2 13.82c-2.94,11.23 -27.47,49.65 -35.1,63.02 -11.37,19.94 -23.52,43.09 -36.41,62.68l-26.03 -15.63 72.34 -123.89zm-209.53 30.65c4.34,-10.5 77.36,-110.26 82.68,-116.27 9.7,4.6 24.08,15.25 31.28,21.97l-11.44 122.61 46.09 -65.3c5.46,-7.44 8.91,-13.77 15.54,-20.79 8.76,3.72 14.72,8.83 21.56,14.9 -5.24,12.42 -75.44,103.25 -80.85,116.64 -8.86,-2.9 -23.9,-15.2 -33.44,-20.91l11.82 -124.56c-2.35,2.04 -1.5,1.11 -3.8,3.82 -1.28,1.51 -0.98,1.17 -2.02,2.63 -13.99,19.55 -42.86,68.05 -56.91,80.18 -4.94,-2.43 -16.09,-10.48 -20.51,-14.92zm1280.49 -88.64c9.05,-3.86 15.6,-10.8 24.99,-15.6l43.86 145.09c-8.03,4.87 -19.45,15.43 -27.82,18.68 -8.76,-7.68 -21.54,-15.79 -30.59,-22.2l-61.25 -43.8c-9.44,-6.79 -20.73,-15.86 -30.22,-20.82 5.24,-7.71 16.23,-13.58 24.26,-18.84l93.59 70.86 -36.82 -113.37zm-1356.06 21.49c-38.84,-28.79 -26.99,-80.46 11.54,-111.69 62.56,-50.71 138.59,27.5 103.32,86.14 -7.76,12.9 -22.06,27.46 -33.58,35.04 -18.83,12.38 -30.35,13.23 -54.36,9.4l-1.8 50.51c-7.68,-4.76 -21.87,-18.48 -27.98,-27.98l2.86 -41.42zm1565.3 -7.89c-3.89,6.02 -1.18,2.37 -6.67,6.93 -2.89,2.4 -3.27,2.46 -5.84,4.86 -6.03,5.62 -5.1,5.72 -11.94,8.89l-30.26 -18.13c-6.01,6.94 -10.99,9.65 -18.83,16.73 -6.7,6.05 -12.53,10.37 -19.8,17.35l13.37 31.97c-6.29,7.82 -16.06,14.59 -23.61,20.62 -3.42,-3.74 -54.03,-132.47 -55.89,-143.11 7.55,-4.19 7.43,-5.5 14.13,-11.38 4.47,-3.93 8.13,-6.45 14.22,-11.36l131.12 76.63zm-99.42 -100.76c2.43,-7.92 25.83,-31.9 32.56,-40.5l34.02 -37.64c20.33,14.97 16.25,17.49 26.96,59.84 3.46,13.71 12.98,59.18 18.06,67.29l44.76 -51c8.64,3.46 10.96,9.56 19.64,14.58 -3.6,8.51 -40.41,47.34 -52.02,61.98 -6.54,8.25 -11.22,10.92 -16.29,19.86 -5.67,-2.33 -10.41,-6.23 -13.88,-10.19 -8.98,-10.28 -24.6,-107.25 -33.76,-118.49 -3.55,5.91 -16.13,20.3 -21.26,25.81 -8.33,8.94 -13.34,15.94 -21.52,22.92 -6.83,-4.96 -10.21,-7.03 -17.27,-14.46zm-1553.95 10.72c8.78,-11.02 66.5,-57.3 82.19,-71.93 6.41,-5.97 19.3,-17.13 26.61,-21.76 5.9,7.13 13.57,15.21 18.83,22.76 -6.33,7.37 -19.31,16.42 -27.09,23.76l-81.46 68.95c-4.98,-3.78 -15.25,-15.96 -19.08,-21.78zm1633.18 -105.05c2.59,-5.77 12.49,-19.17 17.37,-23.37 10.84,4.8 19.65,14.3 29.63,21.62l83.48 66.07c-4.47,7.02 -12.19,18.08 -18.77,23.09 -37.51,-29.05 -74.21,-57.45 -111.71,-87.41zm-1702.51 10.72c6.74,-5.64 106.93,-79.02 116.73,-83.48 3.7,6.38 10.89,16.48 16.31,22.84 -5.44,7.29 -67.76,51.25 -83.79,62.17 -2.12,1.44 -3.62,2.26 -6.32,4.52 -0.36,0.3 -0.89,0.78 -1.21,1.06 -0.33,0.3 -0.93,0.91 -1.19,1.16 -0.27,0.25 -0.99,1.59 -1.18,1.21 -0.2,-0.39 -0.81,0.8 -1.17,1.24 9.36,16.57 24.8,32.07 32.43,47.19 -5.4,4.65 -13.37,10.46 -19.91,14.06 -8.58,-9.13 -17.7,-24.73 -26.13,-36.01 -6.34,-8.49 -21.15,-27.11 -24.57,-35.96zm1736.74 -57.88c5.6,-11 14.98,-23.86 21.84,-34.16 39.69,-59.56 87.61,-28.6 85.35,18.2l74.68 -0.68c-4.12,8.3 -12.36,20.72 -18.65,27.74l-65.06 -1 -7.3 13.66c11.48,8.08 34.27,20.46 44.6,29.83 -2.76,7.78 -10.59,18.9 -15.28,25.16l-90.9 -58.41c-8.6,-5.78 -23.84,-13.89 -29.28,-20.34zm-1640.36 -59.25c4.09,5.98 12.02,17.22 13.21,24.94 -10.05,5.4 -36.5,8.84 -49.57,9.57l-10.06 -18.36 46.42 -16.15zm1845.3 -68.76l22.71 10.22 -36.68 80.62c-14.11,-4.83 -124.6,-53.76 -130.76,-59.42l11.3 -26.96 109.39 48.12 24.04 -52.58zm-1979.76 110.88c-12.81,-9.44 -36.73,-43.31 -39,-68.58 -7,-77.9 146.32,-122.78 155.85,10.73l-25.98 1.25c-4.1,-37.03 -22.4,-68.93 -64.83,-52.48 -35.19,13.65 -49.54,39.25 -22.72,74.34l27.1 -12.74 -11.47 -25.55 22.65 -10.3 24.42 50.74 -66.02 32.59zm1891.12 -208.15l132.97 53.3 -11.29 28.47 -134.02 -53.15 12.34 -28.62zm-1913.42 -78.36c44.41,-6.62 73.06,27.51 75.98,67.82 3.14,43.28 -34,66.65 -73.16,72.55 -46,6.93 -74.17,-27.04 -76.87,-68.28 -2.79,-42.54 35.11,-66.28 74.05,-72.09zm2082.78 -13.65c3.45,29.08 -5.33,64.97 -21.8,81.36 -19.95,19.85 -45.47,23.39 -78.44,12.27 -58.7,-19.81 -63.36,-83.27 -25.7,-129.2 6.14,4.03 13.51,9.63 19.93,14.85 -3.74,8.32 -41.93,57.04 8.59,81.47 37.37,18.08 70.61,5.47 71.03,-37.99l-29.01 -7.47 -6.99 25.54 -24.6 -6.37 16.25 -55.27 70.74 20.81zm-124.53 -92.11l141.75 25.81 -5.4 30.25 -141.95 -25.69 5.6 -30.37zm-2033.83 14.26c-1.94,13.39 -5.51,26.22 -3.92,40.49 1.27,11.35 6.24,23.93 19.37,21.35 16.61,-3.27 17.09,-42.21 29.66,-58.18 13.66,-17.36 41.88,-23.03 60.3,-4.12 18.07,18.53 15.25,45.46 11.75,73.58l-25.36 -5.55c1.58,-12.43 5.14,-27.08 0.57,-40.02 -4.48,-12.69 -19.65,-13.2 -26.07,-2.72 -11.8,19.27 -8.18,44.63 -25.37,58.24 -33.37,26.44 -82.8,-3.99 -68.87,-78.08l27.94 -4.99zm1022.3 -1097.7c142.37,-9.03 282.19,19.53 401,66.68 82.14,32.6 209.47,106.41 273.97,169.83 6.71,6.6 8.32,8.19 14.43,13.39 22.42,19.12 39.21,38.92 58.36,59.61 141.67,153.13 230.15,362.96 241.78,580.96 28.61,535.79 -388.95,965.39 -891.4,990.6 -536.28,26.9 -962.58,-387.46 -989.63,-889.92 -11.26,-209.02 43.93,-392.94 147.62,-559.06 15.92,-25.51 32.19,-47.27 48.89,-69.02 21.56,-28.1 57.58,-69.4 82.37,-93.43 10.12,-9.81 20.97,-18.19 30.19,-27.7l64.41 -53.47c41.98,-32.14 92.01,-63.48 145.54,-90.32 112.43,-56.36 230.13,-89.12 372.47,-98.15zm1088.67 909.78c17.83,-2.17 7.92,-6.69 21.85,-12.37 15.05,16.43 5.66,10.39 31.09,12.94 3.14,21.65 -3,19.11 13.21,30.77 -3.36,10.59 -6.19,7.04 -10.23,13.73 -3.55,5.9 -2.73,21.83 -3.54,18.36 -0.06,-0.28 -0.27,1.22 -0.52,1.8 -8.55,1.36 -12.22,-1.57 -19.61,3.33 -4.92,3.25 -4.1,5.75 -11.33,9.65 -3.58,-2.6 -9.35,-9.07 -11.79,-10.35 -7.04,-3.7 -17.11,-1.33 -19.63,-4.05 -3.91,-7.48 0.94,-10.85 -3.78,-19.41 -2.93,-5.31 -6.05,-4.08 -9.87,-12.31 2.88,-4.04 8.94,-9.14 10.31,-11.98 3.31,-6.89 0.84,-11.03 2.59,-17.87l11.25 -2.24zm-2130.13 0.8c30.84,-4.67 11.36,0.84 30.9,-13.24 9.49,3.61 7.23,6.71 13.19,10.25 8.08,4.8 11.38,0.11 20,4.02 2.17,8.36 -1.41,11.76 3.5,19.58 2.37,3.77 6.36,5.7 9.87,11.18 -3.38,5.48 -8.2,8.39 -10.21,11.98 -4.88,8.69 0.2,11.62 -3.97,19.51 -7.89,4.17 -10.82,-0.91 -19.51,3.97 -3.59,2.01 -6.5,6.83 -11.98,10.22 -4.76,-3.06 -9.31,-9.12 -12.57,-10.72 -6.69,-3.26 -11.38,-0.89 -18.19,-2.66 -3.99,-8.65 0.73,-11.86 -4.05,-19.98 -3.52,-5.99 -6.62,-3.75 -10.23,-13.2 14.21,-19.71 8.39,0 13.25,-30.91zm2058.85 -114.5c11.87,-5.84 120.69,-17.71 142.3,-19.76l3.52 30.1 -141.01 18.13c-3.65,-6.75 -4.44,-19.16 -4.81,-28.47zm-2002.42 -152.25c41.28,-8.3 84.51,15.46 94.16,45.85 13.51,42.57 -13.22,84.15 -46.9,91 -44.07,8.96 -88.51,-14.29 -97.54,-47.42 -5.33,-19.52 -0.15,-44 8.1,-59.22 9.28,-17.1 18.31,-25.41 42.18,-30.21zm2011.4 23.13c-1.51,13.95 -4.62,28.45 -1.71,43.04 2.22,11.11 9.99,24.09 24.07,16.41 9.51,-5.18 13.49,-46.34 24.89,-61.15 16.11,-20.93 84.25,-30.51 72.56,69.39l-24.41 -3.92c-1.45,-13.15 3.66,-25.08 -1.69,-38.91 -4.27,-11.02 -16.65,-14.94 -24.89,-5.09 -11.5,13.74 -6.51,44.47 -24.72,61.14 -19.33,17.7 -48.65,10.68 -59.77,-6.7 -10.25,-16.02 -19.52,-48.4 -10.52,-68.56l26.19 -5.65zm-2021.54 -102.08c12.35,2.71 30.35,22.97 41.17,29.62l-7.32 20.86c-13.67,-6.27 -26.48,-16.8 -43.35,-23.58l9.5 -26.9zm2090.36 -36.72l12.57 34.24 -116.47 98.86 -11.1 -29.46c9.12,-7.91 17.71,-13.84 27.15,-22.23 -1.53,-8.65 -5.9,-17.2 -8.98,-25.48l-7.47 -18.6c-1.85,-3.41 -1.66,-2.86 -3,-4.73l-34.58 2.14 -11.18 -30.52 153.06 -4.22zm-2081.69 8.52c1.61,-9.89 37.16,-86.45 42.78,-93.01 19.5,6.91 16.81,6.32 25.88,22.1 5.89,10.25 46.29,81.67 53.09,88.15l28.42 -63.36 23.05 11.97 -44.68 95.26c-18.04,-4.7 -17.52,-7.55 -26.2,-22.08 -9.51,-15.94 -47.85,-83.8 -52.98,-88.19l-28.26 59.37 -21.1 -10.21zm1875.09 -109.34c6.76,-6.39 56.48,-30.59 63.34,-33.88 17.54,-8.38 47.99,-27.75 64.55,-32.54l12.53 27.76c-17.24,6.36 -39.75,19.64 -55.94,28.25 8.49,4.05 46.57,9.4 58.44,11.69 18.41,3.55 25.25,0.38 35.74,34.13l-78.95 -14.29 -47.57 79c-29.18,-34.91 -5.29,-39.81 19.8,-89.4 -13.03,-11.4 -15.81,-7.16 -28.72,-0.29 -9.46,5.04 -19.67,11.7 -30.25,14.99l-12.97 -25.42zm-1814.34 -21.44c7.09,-15.84 32.05,-58.55 41.83,-66.66 22.85,-18.95 63.09,-3.8 56.58,29.9 6.76,-3.24 8.85,-8.58 19.13,-10.1 17.77,-2.61 43.86,12.75 43.3,40.44 -0.39,19.57 -28.06,66.44 -37.63,78.15l-123.21 -71.73zm1875.7 -110.84c7.93,-5.65 7.37,-6.76 14.36,-8.95 5.33,5.6 14.06,17.7 16.55,23.32 -6.35,7.32 -20.47,15.48 -28.97,21.88 -10.39,7.82 -17.95,13.16 -28.67,20.64 -9.93,6.93 -18.33,13.42 -28.5,20.78 -6.97,5.06 -21.64,16.45 -29.03,20.19 -5.32,-4.82 -13.88,-16.03 -17.37,-23.46l101.63 -74.4zm-1790.63 -26.75c15.65,-16.83 40.43,-53.2 51.32,-62.29 7.6,4.2 13.57,9.01 18.73,15.48 -7.15,9.74 -27.69,31.69 -31.41,41.08 7.76,5.16 15.9,13.18 23.91,18.05 8.16,-6 20.11,-27.72 31.56,-37.09 5.23,3.93 12.31,9.15 17.35,14.44 -4.92,12.64 -21.84,26.25 -27.92,38.59 6.77,7.76 18.38,15.95 27.81,22.25l17.08 -20.18c4.6,-5.76 11.06,-13.33 14.47,-19.34 8.33,3.58 13.88,9.03 19.98,15.12 -6.86,14.44 -42.35,51.17 -48.97,64.51 -14.37,-6.99 -111.54,-86.31 -113.91,-90.62zm1616.07 11.11c5.44,-9.51 95.64,-85.6 107.45,-94.16 6.37,4.33 16.44,15.4 19.86,23.97l-56.33 46.64c-10.46,8.75 -21.05,20.7 -32.62,27.19 4.69,10.25 11.75,15.34 18.23,23.63 6.45,8.24 12.2,14 18.23,22.03 -5.67,7.48 -10.96,11.16 -18.22,16.37l-28.73 -33.29c-9.87,-11.79 -18.43,-21.04 -27.87,-32.38zm-49.13 -150.13c7.29,-8.3 15.45,-18.7 23.46,-25.9 10.49,-9.42 16.08,-15.89 23.81,-25.07 11.79,6.52 18.39,17.07 28.78,26.47 19.67,17.8 47.02,45.04 21.58,70.66 -9.53,9.59 -21.47,13.34 -36.99,7.92 15.97,33.57 -13.16,63.17 -46.82,52.33 -16.38,-5.27 -60.28,-46.9 -63.78,-55.82l49.96 -50.59zm-1297.93 61.03c-2.81,1.96 -12.89,12.89 -16.35,16.06 -9.62,8.82 -8.68,7.21 -23.98,2.87 -9.54,-2.7 -46.54,-14.77 -53.72,-11.3 -4.43,21.2 9.78,24.61 32.22,49.62 -4.64,5.47 -14.67,15.54 -20.28,20.99 -7.16,-3.69 -17.14,-17.1 -26.35,-25.46 -12.99,-11.8 -58.79,-65.65 -73.2,-76.7 3.02,-6.49 16.2,-19.64 21.85,-22.13l44.49 45.21c-1.84,-20.26 -4.2,-41.56 -5.96,-62.26 -1.29,-15.16 -4.21,-17.22 4.8,-25.24 5.88,-5.24 11.76,-10.99 18.47,-15.88l6.93 79.63 91.08 24.59zm-70.77 -125.29c4.67,-5.44 15.06,-13.79 22.44,-17.91 7.65,5.41 86.17,107.57 88.55,112.24 -5.87,5.6 -16,15.21 -24.96,18.07 -4.02,-9.2 -34.55,-45.34 -42.72,-56.07l-43.31 -56.33zm119.01 45.02c17.19,-5.75 60.21,-11.05 51.82,-34.68 -6.88,-19.37 -50.74,-0.05 -74.44,-11.43 -19.49,-9.35 -28.78,-39.18 -13.85,-58.84 11.41,-15.04 33.02,-27.76 59.8,-30.18l3.57 24.92c-12.51,2.83 -24.33,4.85 -33.43,11.6 -7.86,5.82 -14.62,20.13 -0.67,26.35 18.76,8.35 51.13,-12.26 73.52,7.98 42.03,37.98 -10.04,83.42 -53.5,87.63l-12.82 -23.35zm1198.94 0.61c-18.94,28.79 -45.23,38.22 -81.11,15.57 -27.48,-17.35 -41.01,-44.03 -17.98,-80.4l47.44 -73.54 24.81 15.57c-9.05,18.04 -24.15,38.75 -35.16,56.5 -12.05,19.41 -32.17,42.76 -4.77,61.01 28.36,18.88 42,-12.49 53.09,-29.77l27.33 -43.46c1.67,-2.59 3.06,-4.98 4.17,-6.52 1.6,-2.26 1.51,-2 2.91,-3.66l25.92 13.06 -46.65 75.64zm-185.11 -204.81c11.08,2.89 40.61,16.95 50.69,22.82 50.24,29.27 19.71,77.52 -5.47,85.05 -22.55,6.74 -38.45,-5.41 -55.55,-10.75l-21.71 44.91 -25.12 -11.8c-0.21,-0.71 -0.87,-0.69 -1.51,-1.17l58.67 -129.06zm-759.61 -40.38c44.66,-8.72 68.26,27.07 76.75,63.52 20.63,88.6 -112.06,127.57 -136.5,20.87 -11.81,-51.59 16.95,-76.04 59.75,-84.39zm-114.96 40.07l3.85 5.6c0.8,1.33 2.13,3.95 3.05,5.74 1.86,3.64 3.38,6.91 5.29,10.59l-34.87 16.9 53.94 106.51 -26.64 13.49 -53.48 -105.43 -34.75 17.06c-0.38,-0.45 -0.84,-1.07 -1.07,-1.4l-11.04 -20.46 95.72 -48.6zm766.15 82.13c27.24,-34.26 -52.26,-43.17 -30.22,-95.74 17.13,-40.87 77.96,-19.88 94.16,3.74 -2.18,4.06 -13,15.98 -15.73,18.51 -6.08,-4.39 -17.21,-13.84 -26.79,-17.22 -14.76,-5.2 -29.35,0.4 -23.79,17.05 4.58,13.74 32.55,27.57 38.62,49.61 7.25,26.27 -12.15,48.12 -34.89,50.25 -29.86,2.8 -48.43,-13.73 -65.2,-22.94l9.45 -27.67c15.03,10.11 27.52,27.19 54.39,24.41zm-294.83 -171.87c29.88,1.9 68.5,1.76 86.24,19.66 14.56,14.69 17.17,54.38 -20.49,66.95l36.36 66.33 -33.14 -2.62c-4.63,-11.12 -11.42,-22.79 -17.25,-33.94 -9.57,-18.34 -5.6,-24.03 -28.55,-25.23l-4.59 54.13c-9.3,0.77 -22.89,-0.01 -30.25,-3.27l11.67 -142.01zm124.32 157.05c1.12,-15.24 22.01,-131.76 26.17,-140.37l79.88 14.1c-0.47,8.39 -1.67,17.53 -5.03,24.73l-49.22 -8.34c-4.26,7.88 -5.38,20.72 -6.61,30.51l47.68 8.46 -4.05 24.82 -48.55 -7.78 -5.3 35.97c12.17,1.83 41.32,6.29 50.16,10.05l-3.88 22.82c-11.48,0.22 -73.14,-10.71 -81.25,-14.97zm-263.34 -5.81c-14.2,-14.23 -68.92,-91.65 -76.73,-98.55 0.86,21.09 17.27,91.93 13.29,107.25 -8.89,1.25 -18.77,3.61 -25.59,1.43l-17.89 -141.11 38.65 -4.68 74.71 96.86 -14.03 -103.32 26.95 -5.14 18.41 142.88 -37.77 4.38zm-1068.61 966.25c0,172.22 37.67,354.03 104.27,490.53 33.54,68.76 64.68,128.24 104.99,184.47 46.32,64.62 77.52,102.11 131.54,157.86 40.26,41.55 109.2,98.37 157.25,132.15 183.1,128.71 419.41,211.64 658.45,211.64 192.97,0 338.74,-35.07 497.41,-104.7 120.43,-52.84 250.23,-144.64 342.15,-236.68l59.59 -64.7c73.89,-87.68 126.4,-167.28 177.58,-277.05 69.88,-149.87 105.69,-313.52 105.69,-497.81 0,-305.46 -138.8,-623.18 -345.52,-817.63 -6.7,-6.3 -10.04,-11.34 -16.47,-17.77 -20.16,-20.16 -76.49,-65.67 -98.79,-83.47 -29.85,-23.8 -99.34,-69.53 -131.67,-87.01 -32.63,-17.65 -61.95,-33.01 -96.59,-49.17 -298.21,-139.09 -663.04,-134.48 -961.1,-0.04 -92.87,41.89 -211.64,115.45 -288.02,185.67 -69.53,63.93 -99.08,92.18 -158.11,167.8 -54.1,69.3 -99.73,147.21 -137.15,227.4 -63.55,136.19 -105.5,307.82 -105.5,478.51z"/>
  <path class="fil2" d="M3715.79 2761.98c32.02,-4.38 51.55,12.8 65.59,26.88l169.29 169.46c10.92,11.27 18.65,7.45 39.1,7.45l192.95 0c32.38,0 58.42,-2.79 79.44,15.48 19.27,16.76 27.24,33.32 27.17,68.71l0.08 242.32c1.54,10.53 14.9,19.52 21.49,26.12l144.71 144.71c13.28,13.28 33.17,28.69 37.33,57 5.07,34.46 -11.79,52.76 -27.09,68.11l-144.72 144.7c-21.25,21.24 -31.53,25.41 -31.98,41.49 -1.7,61.22 0.17,152.1 0.17,216.71 0,59.62 -6.19,105.29 -85.16,105.12l-242.21 0.09c-9.74,1.47 -19.04,14.81 -25.64,21.41l-144.71 144.71c-13.94,13.93 -27.72,33.28 -57.04,37.4 -33.94,4.76 -50.23,-9.99 -68.35,-28.05l-169.23 -169.49c-5.83,-5.88 -5.99,-6.12 -17.27,-6.23l-216.7 0.15c-33.87,0 -55.65,1.11 -78.18,-16.25 -19.39,-14.94 -26.08,-38.32 -26.03,-69.55l-0.24 -242.31c-1.8,-9.74 -15.21,-19.17 -21.88,-25.84l-144.71 -144.71c-14,-14.01 -33.12,-27.37 -36.9,-57.08 -4.39,-34.48 12.52,-52.29 27.78,-67.5 16.62,-16.57 31.64,-31.63 48.24,-48.23 32.68,-32.68 63.79,-63.79 96.47,-96.47 23.19,-23.19 31.19,-24.64 31.42,-42.35l-0.17 -216.68c0,-60 7.22,-103.68 87.05,-103.5l192.94 0.01c59.43,0 44.57,6.71 73.58,-22.3l144.71 -144.71c14.74,-14.75 27.67,-32.54 58.7,-36.78zm-869.49 838.96c10.92,135.21 42.74,224.95 99.01,341.26 24.76,51.18 93.88,149.03 137.42,192.8 60.2,60.52 107.27,101.07 182.4,147.68 43.3,26.86 94.36,52.09 146.86,71.84 291.99,109.87 613.48,58.69 855.45,-130.74l45.38 -38.24c5.27,-4.26 9.09,-7.03 13.72,-12.04 27.06,-29.29 55.4,-54.23 79.47,-85.61 8.42,-10.96 16.66,-20.51 24.55,-31.16 15.31,-20.7 30.12,-42.17 44.11,-65.23 157.8,-260.03 176.43,-600.63 28.3,-871.62 -47.38,-86.68 -75.54,-123.95 -138.05,-192.06l-41.99 -41.7c-6.08,-6.32 -6.46,-7.46 -13.04,-12.61 -10.47,-8.22 -19.35,-16.91 -30.14,-25.61 -223.42,-180.22 -528.17,-247.65 -810.59,-159.89 -59.68,18.54 -102.19,37.85 -155.09,63.56 -41.19,20.02 -98.06,59.29 -133.8,86.99 -10.44,8.09 -21.33,16.43 -30.79,25.04 -37.82,34.4 -75.69,70.56 -107.77,110.85 -8.55,10.73 -16.75,20.54 -24.52,31.19 -124.6,171.01 -188.73,374.43 -170.89,595.3z"/>
  <path class="fil1" d="M3758.62 3158.14c15.35,3.11 -10.19,-0.03 3.64,0.57 15.59,0.69 82.3,-27.3 183.53,20.95 26.28,12.52 49.39,26.62 71.04,42.64 42.86,31.72 82.77,71.41 110.25,119.13 84.68,147.11 72.95,295.27 -19.71,435 -90.46,136.43 -293.5,228.07 -476.65,183.51 -69.09,-16.81 -114.93,-31.92 -160.68,-68.69 -44.81,-36.02 -76.02,-66.91 -109.45,-117.81 -63.56,-96.77 -90.28,-236.61 -56.35,-369.16 32.33,-126.28 107.81,-204.47 201.79,-254.94 22.13,-11.89 55.78,-27.13 82.2,-33.6 41.36,-10.13 72.73,-55.32 179.53,-37.05 21.56,3.68 70.98,14.09 76.77,38.67 -25.91,11.3 -61.04,32.1 -89.52,39.5l3.61 1.28zm-539.4 872c8.68,10.57 19.57,7.2 35.21,7.18l225.11 0c43.31,0 30.99,-4.31 63.15,27.85l133.99 133.99c55.48,55.49 39.17,55.91 93.72,1.36l156.34 -156.63c9.91,-10.01 17.43,-6.58 39.45,-6.57l225.11 0c15.93,0.01 28.22,3.49 37.55,-6.75 5.26,-15.84 1.71,-226.6 1.67,-262.41 -0.04,-36.29 -0.46,-27.3 19.03,-46.79l166.15 -166.15c27.92,-27.91 28.12,-21.11 -23.99,-73.22l-149.01 -149c-6.95,-6.87 -12.03,-7.96 -12.34,-21.31 -1.89,-83.16 0.99,-180.42 0.28,-266.13 -0.24,-28.73 -19.02,-20.99 -45.78,-20.99l-231.56 0.03c-18.08,0.18 -17.26,2.38 -26.9,-7.74 -49.2,-51.69 -113.71,-113.88 -166.06,-166.23 -43.55,-43.55 -27.58,-44.62 -104.66,32.47 -22.68,22.67 -43.78,43.78 -66.46,66.45 -22.53,22.54 -44.44,43.49 -66.4,66.52 -8.52,8.93 -7.36,8.75 -23.91,8.59l-233.76 -0.09c-55.28,0 -47.48,-12.58 -47.48,85.43l0.14 199.53c-0.01,15.31 -2.06,13.79 -10.17,21.64 -61.06,59.14 -122.17,123.72 -183.35,183.26 -20.51,19.96 -8.18,24.18 7.09,39.43l166.15 166.15c19.02,19.02 20.22,10.93 20.14,46 -0.07,34.18 -3.17,250.48 1.55,264.13z"/>
  <path class="fil0" d="M2846.3 3600.94c-17.84,-220.87 46.29,-424.29 170.89,-595.3 7.77,-10.65 15.97,-20.46 24.52,-31.19 32.08,-40.29 69.95,-76.45 107.77,-110.85 9.46,-8.61 20.35,-16.95 30.79,-25.04 35.74,-27.7 92.61,-66.97 133.8,-86.99 52.9,-25.71 95.41,-45.02 155.09,-63.56 282.42,-87.76 587.17,-20.33 810.59,159.89 10.79,8.7 19.67,17.39 30.14,25.61 6.58,5.15 6.96,6.29 13.04,12.61l41.99 41.7c62.51,68.11 90.67,105.38 138.05,192.06 148.13,270.99 129.5,611.59 -28.3,871.62 -13.99,23.06 -28.8,44.53 -44.11,65.23 -7.89,10.65 -16.13,20.2 -24.55,31.16 -24.07,31.38 -52.41,56.32 -79.47,85.61 -4.63,5.01 -8.45,7.78 -13.72,12.04l-45.38 38.24c-241.97,189.43 -563.46,240.61 -855.45,130.74 -52.5,-19.75 -103.56,-44.98 -146.86,-71.84 -75.13,-46.61 -122.2,-87.16 -182.4,-147.68 -43.54,-43.77 -112.66,-141.62 -137.42,-192.8 -56.27,-116.31 -88.09,-206.05 -99.01,-341.26zm828.75 -1010.47c-142.34,9.03 -260.04,41.79 -372.47,98.15 -53.53,26.84 -103.56,58.18 -145.54,90.32l-64.41 53.47c-9.22,9.51 -20.07,17.89 -30.19,27.7 -24.79,24.03 -60.81,65.33 -82.37,93.43 -16.7,21.75 -32.97,43.51 -48.89,69.02 -103.69,166.12 -158.88,350.04 -147.62,559.06 27.05,502.46 453.35,916.82 989.63,889.92 502.45,-25.21 920.01,-454.81 891.4,-990.6 -11.63,-218 -100.11,-427.83 -241.78,-580.96 -19.15,-20.69 -35.94,-40.49 -58.36,-59.61 -6.11,-5.2 -7.72,-6.79 -14.43,-13.39 -64.5,-63.42 -191.83,-137.23 -273.97,-169.83 -118.81,-47.15 -258.63,-75.71 -401,-66.68z"/>
  <path class="fil2" d="M3620.93 3828.73l231.64 0c3.95,9.75 8.16,24.64 7.7,37.18 -82.69,29.54 -165.29,23.93 -247.21,-1.88 0.16,-12.26 3.73,-26.11 7.87,-35.3zm115.87 -107.93c17.18,8.16 82.16,52.1 90.64,66.52l-181.35 0c11.97,-16.97 76.42,-60.6 90.71,-66.52zm-100.23 -126.48l200.17 -0.55c-8.48,17.53 -28.23,28.72 -46.74,41.07 -15.31,10.21 -37.83,27.26 -53.2,34.77 -12.5,-5.19 -40.26,-25.81 -53.44,-34.57 -17.39,-11.58 -38.57,-24.29 -46.79,-40.72zm-17.68 -101.48l235.29 0c10.77,8.23 10.83,51.64 0.53,59.51l-235.82 0c-8.91,-2.74 -10.07,-52.51 0,-59.51zm117.91 -117.27c15.04,7.11 38.25,24.78 53.38,34.81 20.26,13.43 36.64,22.95 46.72,40.39l-200.45 0.29c9.31,-19.49 52.41,-44.11 72.87,-57.73 8.56,-5.69 17.91,-13.84 27.48,-17.76zm38.84 -25.46c5.26,-6.85 31.96,-22.73 41.44,-29.01 46.62,-30.89 75.69,-68.32 84.56,-131.7 56.78,20.23 109.86,74.9 140.29,125.7 71.82,119.96 89.11,290.86 2.23,410.96 -21.88,30.25 -37.74,47.91 -62.93,70.05 -20.71,18.2 -49.31,40.36 -79.35,52.45 -1.79,-2.64 -12.4,-40.76 -17.09,-50.45 -31.73,-65.61 -92.28,-84.05 -109.15,-102.84 5.16,-6.46 33.11,-23.42 42.76,-29.83 49.92,-33.19 83.84,-74.13 84.27,-141.67 0.35,-53.81 -25.45,-99.18 -59.98,-127.32 -15.44,-12.58 -58.38,-37 -67.05,-46.34zm-77.91 345.16c-6.35,6.75 -31.26,21.71 -40.36,27.77 -80.1,53.39 -75.93,106.4 -85.65,124.24 -49.08,-15.85 -118.27,-71.91 -145.56,-117.89 -75.6,-127.36 -78.99,-287.35 2,-411.35 29.78,-45.59 96.82,-106.6 143.56,-122 3.2,7.02 4.39,18.4 7.12,26.84 8.83,27.29 20.37,46.45 38.72,66.34 27.5,29.8 72.13,50.64 80.08,60.89 -13.73,14.23 -56.42,32.55 -84.26,63.14 -23.34,25.65 -42.45,60.38 -42.75,108.36 -0.73,119.39 108.02,150.69 127.1,173.66zm39.07 -370.89c-14.88,-6.31 -77.65,-49.24 -90.95,-66.52l181.53 0c-6.53,13.78 -74.35,58.38 -90.58,66.52zm-124.5 -148.27c21.71,3.23 32.76,13.62 62.32,12.69 27.95,-0.87 29.82,-13.23 61.67,-11.12 22.15,1.46 46.47,2.18 65.56,-6.93 19.68,-9.39 37.87,-1.3 59.11,3.71 -0.28,10.6 -1.86,41.99 -12.68,41.99l-222.96 0c-11.11,0 -12.33,-29.57 -13.02,-40.34zm142.31 -60.31c-2.29,-8.44 0.03,-12.73 8.4,-13.6 8.31,-0.87 10.58,2.35 13.44,7.8 -3.11,11.97 -13.1,11.52 -21.84,5.8zm0.4 41.06c28.48,-7.4 63.61,-28.2 89.52,-39.5 -5.79,-24.58 -55.21,-34.99 -76.77,-38.67 -106.8,-18.27 -138.17,26.92 -179.53,37.05 -26.42,6.47 -60.07,21.71 -82.2,33.6 -93.98,50.47 -169.46,128.66 -201.79,254.94 -33.93,132.55 -7.21,272.39 56.35,369.16 33.43,50.9 64.64,81.79 109.45,117.81 45.75,36.77 91.59,51.88 160.68,68.69 183.15,44.56 386.19,-47.08 476.65,-183.51 92.66,-139.73 104.39,-287.89 19.71,-435 -27.48,-47.72 -67.39,-87.41 -110.25,-119.13 -21.65,-16.02 -44.76,-30.12 -71.04,-42.64 -101.23,-48.25 -167.94,-20.26 -183.53,-20.95 -13.83,-0.6 11.71,2.54 -3.64,-0.57l-3.61 -1.28z"/>
  <path class="fil0" d="M3219.22 4030.14c-4.72,-13.65 -1.62,-229.95 -1.55,-264.13 0.08,-35.07 -1.12,-26.98 -20.14,-46l-166.15 -166.15c-15.27,-15.25 -27.6,-19.47 -7.09,-39.43 61.18,-59.54 122.29,-124.12 183.35,-183.26 8.11,-7.85 10.16,-6.33 10.17,-21.64l-0.14 -199.53c0,-98.01 -7.8,-85.43 47.48,-85.43l233.76 0.09c16.55,0.16 15.39,0.34 23.91,-8.59 21.96,-23.03 43.87,-43.98 66.4,-66.52 22.68,-22.67 43.78,-43.78 66.46,-66.45 77.08,-77.09 61.11,-76.02 104.66,-32.47 52.35,52.35 116.86,114.54 166.06,166.23 9.64,10.12 8.82,7.92 26.9,7.74l231.56 -0.03c26.76,0 45.54,-7.74 45.78,20.99 0.71,85.71 -2.17,182.97 -0.28,266.13 0.31,13.35 5.39,14.44 12.34,21.31l149.01 149c52.11,52.11 51.91,45.31 23.99,73.22l-166.15 166.15c-19.49,19.49 -19.07,10.5 -19.03,46.79 0.04,35.81 3.59,246.57 -1.67,262.41 -9.33,10.24 -21.62,6.76 -37.55,6.75l-225.11 0c-22.02,-0.01 -29.54,-3.44 -39.45,6.57l-156.34 156.63c-54.55,54.55 -38.24,54.13 -93.72,-1.36l-133.99 -133.99c-32.16,-32.16 -19.84,-27.85 -63.15,-27.85l-225.11 0c-15.64,0.02 -26.53,3.39 -35.21,-7.18zm496.57 -1268.16c-31.03,4.24 -43.96,22.03 -58.7,36.78l-144.71 144.71c-29.01,29.01 -14.15,22.3 -73.58,22.3l-192.94 -0.01c-79.83,-0.18 -87.05,43.5 -87.05,103.5l0.17 216.68c-0.23,17.71 -8.23,19.16 -31.42,42.35 -32.68,32.68 -63.79,63.79 -96.47,96.47 -16.6,16.6 -31.62,31.66 -48.24,48.23 -15.26,15.21 -32.17,33.02 -27.78,67.5 3.78,29.71 22.9,43.07 36.9,57.08l144.71 144.71c6.67,6.67 20.08,16.1 21.88,25.84l0.24 242.31c-0.05,31.23 6.64,54.61 26.03,69.55 22.53,17.36 44.31,16.25 78.18,16.25l216.7 -0.15c11.28,0.11 11.44,0.35 17.27,6.23l169.23 169.49c18.12,18.06 34.41,32.81 68.35,28.05 29.32,-4.12 43.1,-23.47 57.04,-37.4l144.71 -144.71c6.6,-6.6 15.9,-19.94 25.64,-21.41l242.21 -0.09c78.97,0.17 85.16,-45.5 85.16,-105.12 0,-64.61 -1.87,-155.49 -0.17,-216.71 0.45,-16.08 10.73,-20.25 31.98,-41.49l144.72 -144.7c15.3,-15.35 32.16,-33.65 27.09,-68.11 -4.16,-28.31 -24.05,-43.72 -37.33,-57l-144.71 -144.71c-6.59,-6.6 -19.95,-15.59 -21.49,-26.12l-0.08 -242.32c0.07,-35.39 -7.9,-51.95 -27.17,-68.71 -21.02,-18.27 -47.06,-15.48 -79.44,-15.48l-192.95 0c-20.45,0 -28.18,3.82 -39.1,-7.45l-169.29 -169.46c-14.04,-14.08 -33.57,-31.26 -65.59,-26.88z"/>
  <path class="fil1" d="M3697.73 3695.27c-19.08,-22.97 -127.83,-54.27 -127.1,-173.66 0.3,-47.98 19.41,-82.71 42.75,-108.36 27.84,-30.59 70.53,-48.91 84.26,-63.14 -7.95,-10.25 -52.58,-31.09 -80.08,-60.89 -18.35,-19.89 -29.89,-39.05 -38.72,-66.34 -2.73,-8.44 -3.92,-19.82 -7.12,-26.84 -46.74,15.4 -113.78,76.41 -143.56,122 -80.99,124 -77.6,283.99 -2,411.35 27.29,45.98 96.48,102.04 145.56,117.89 9.72,-17.84 5.55,-70.85 85.65,-124.24 9.1,-6.06 34.01,-21.02 40.36,-27.77z"/>
  <path class="fil1" d="M3775.64 3350.11c8.67,9.34 51.61,33.76 67.05,46.34 34.53,28.14 60.33,73.51 59.98,127.32 -0.43,67.54 -34.35,108.48 -84.27,141.67 -9.65,6.41 -37.6,23.37 -42.76,29.83 16.87,18.79 77.42,37.23 109.15,102.84 4.69,9.69 15.3,47.81 17.09,50.45 30.04,-12.09 58.64,-34.25 79.35,-52.45 25.19,-22.14 41.05,-39.8 62.93,-70.05 86.88,-120.1 69.59,-291 -2.23,-410.96 -30.43,-50.8 -83.51,-105.47 -140.29,-125.7 -8.87,63.38 -37.94,100.81 -84.56,131.7 -9.48,6.28 -36.18,22.16 -41.44,29.01z"/>
  <path class="fil1" d="M3618.89 3492.84c-10.07,7 -8.91,56.77 0,59.51l235.82 0c10.3,-7.87 10.24,-51.28 -0.53,-59.51l-235.29 0z"/>
  <path class="fil1" d="M3620.93 3828.73c-4.14,9.19 -7.71,23.04 -7.87,35.3 81.92,25.81 164.52,31.42 247.21,1.88 0.46,-12.54 -3.75,-27.43 -7.7,-37.18l-231.64 0z"/>
  <path class="fil2" d="M3610.19 4524.21c59.53,-22.77 62.41,78.12 25.42,92.61 -58.26,22.84 -64.19,-77.77 -25.42,-92.61zm70.96 157.32c-7.65,-14.11 -23.4,-27.87 -29.61,-41.01 18.22,-9.63 28.72,-18.82 35.4,-41.16 6.24,-20.9 7.1,-48.52 -1.8,-67.74 -8.03,-17.35 -22.88,-29.49 -45.47,-33.68 -95.23,-17.69 -102.48,96.63 -64.79,130.98 24.4,22.24 38.04,4.24 52.49,26.87 17.43,27.31 14.14,24.5 53.78,25.74z"/>
  <path class="fil2" d="M2994.85 4236.88c25.22,-8.82 50.35,13.47 45.91,38.06 -3.17,17.59 -26.8,42.09 -41.94,47.96 -25.11,9.73 -51.25,-12.96 -47.19,-37.96 3.2,-19.75 26.44,-42.19 43.22,-48.06zm-48.74 96.57l-2.86 41.42c6.11,9.5 20.3,23.22 27.98,27.98l1.8 -50.51c24.01,3.83 35.53,2.98 54.36,-9.4 11.52,-7.58 25.82,-22.14 33.58,-35.04 35.27,-58.64 -40.76,-136.85 -103.32,-86.14 -38.53,31.23 -50.38,82.9 -11.54,111.69z"/>
  <path class="fil2" d="M3021.68 4400.6c4.42,4.44 15.57,12.49 20.51,14.92 14.05,-12.13 42.92,-60.63 56.91,-80.18 1.04,-1.46 0.74,-1.12 2.02,-2.63 2.3,-2.71 1.45,-1.78 3.8,-3.82l-11.82 124.56c9.54,5.71 24.58,18.01 33.44,20.91 5.41,-13.39 75.61,-104.22 80.85,-116.64 -6.84,-6.07 -12.8,-11.18 -21.56,-14.9 -6.63,7.02 -10.08,13.35 -15.54,20.79l-46.09 65.3 11.44 -122.61c-7.2,-6.72 -21.58,-17.37 -31.28,-21.97 -5.32,6.01 -78.34,105.77 -82.68,116.27z"/>
  <path class="fil2" d="M3615.59 2415.39l14.03 103.32 -74.71 -96.86 -38.65 4.68 17.89 141.11c6.82,2.18 16.7,-0.18 25.59,-1.43 3.98,-15.32 -12.43,-86.16 -13.29,-107.25 7.81,6.9 62.53,84.32 76.73,98.55l37.77 -4.38 -18.41 -142.88 -26.95 5.14z"/>
  <path class="fil2" d="M2834.56 3011.27c22.41,-61.37 69.65,-25.04 31.38,17.89l-31.38 -17.89zm-48.83 -28.52c5.53,-11.21 16.02,-36.82 34.2,-28.05 17.35,8.37 -0.46,33.76 -6.98,43.8l-27.22 -15.75zm-36.43 13.62l123.21 71.73c9.57,-11.71 37.24,-58.58 37.63,-78.15 0.56,-27.69 -25.53,-43.05 -43.3,-40.44 -10.28,1.52 -12.37,6.86 -19.13,10.1 6.51,-33.7 -33.73,-48.85 -56.58,-29.9 -9.78,8.11 -34.74,50.82 -41.83,66.66z"/>
  <path class="fil2" d="M4413.42 2749c11.6,3.98 39.79,28.56 21.08,44.74 -7.29,6.3 -17.04,5.19 -25.24,-0.3 -4.75,-3.17 -14.65,-14.06 -18.26,-18.08l22.42 -26.36zm38.44 -40.89c10.32,3.3 35.94,23.52 22,39.05 -13.58,15.13 -34.35,-8.28 -40.59,-16.93l18.59 -22.12zm-100.51 62.24c3.5,8.92 47.4,50.55 63.78,55.82 33.66,10.84 62.79,-18.76 46.82,-52.33 15.52,5.42 27.46,1.67 36.99,-7.92 25.44,-25.62 -1.91,-52.86 -21.58,-70.66 -10.39,-9.4 -16.99,-19.95 -28.78,-26.47 -7.73,9.18 -13.32,15.65 -23.81,25.07 -8.01,7.2 -16.17,17.6 -23.46,25.9l-49.96 50.59z"/>
  <path class="fil2" d="M2689.36 3266.14c23.18,-5.68 53.52,4.98 64.57,18.5 15.19,18.58 3.38,48.3 -16.56,54.43 -21.55,6.63 -56.3,-5.06 -66.22,-16.66 -16.33,-19.09 -5.9,-50.36 18.21,-56.27zm0.66 -31.84c-23.87,4.8 -32.9,13.11 -42.18,30.21 -8.25,15.22 -13.43,39.7 -8.1,59.22 9.03,33.13 53.47,56.38 97.54,47.42 33.68,-6.85 60.41,-48.43 46.9,-91 -9.65,-30.39 -52.88,-54.15 -94.16,-45.85z"/>
  <path class="fil2" d="M2776.53 3856.06c-5.7,17.69 -30.7,30.35 -53.71,33 -53.27,6.16 -63.44,-72.23 14.93,-78.38 26.42,-2.07 46.57,21.2 38.78,45.38zm-48.2 -76.39c-38.94,5.81 -76.84,29.55 -74.05,72.09 2.7,41.24 30.87,75.21 76.87,68.28 39.16,-5.9 76.3,-29.27 73.16,-72.55 -2.92,-40.31 -31.57,-74.44 -75.98,-67.82z"/>
  <path class="fil2" d="M3400.38 2483.35c28.48,-9.64 42.03,14.27 48.81,35.3 8.91,27.61 4.25,50.36 -21.15,57.53 -28.68,8.11 -41.18,-13.69 -48.33,-35.23 -9.9,-29.77 -4.84,-48.96 20.67,-57.6zm5.46 -27.41c-42.8,8.35 -71.56,32.8 -59.75,84.39 24.44,106.7 157.13,67.73 136.5,-20.87 -8.49,-36.45 -32.09,-72.24 -76.75,-63.52z"/>
  <path class="fil2" d="M4114.64 4422.4l20.17 53.46 -52.6 19.48 -21.01 -51.56 -28.24 9.98 51.5 134.7c9.06,-3.81 21.3,-6.66 27.72,-12.07l-21.09 -55.64c5.34,-5.06 43.69,-18.77 53.13,-21.45 4.12,11.52 16.89,50.82 23.49,56.97l26.41 -9.86 -51.22 -134.46 -28.26 10.45z"/>
  <path class="fil2" d="M3790.53 2433.98c18.52,0.52 38.02,2.06 36.45,21.99 -1.53,19.35 -21.12,17.96 -39.24,16.58l2.79 -38.57zm-40 114.3c7.36,3.26 20.95,4.04 30.25,3.27l4.59 -54.13c22.95,1.2 18.98,6.89 28.55,25.23 5.83,11.15 12.62,22.82 17.25,33.94l33.14 2.62 -36.36 -66.33c37.66,-12.57 35.05,-52.26 20.49,-66.95 -17.74,-17.9 -56.36,-17.76 -86.24,-19.66l-11.67 142.01z"/>
  <path class="fil2" d="M4562.66 4072.46c24.71,-50.25 65.3,-14.01 31.44,20.18l-31.44 -20.18zm-37.21 10.85c5.44,6.45 20.68,14.56 29.28,20.34l90.9 58.41c4.69,-6.26 12.52,-17.38 15.28,-25.16 -10.33,-9.37 -33.12,-21.75 -44.6,-29.83l7.3 -13.66 65.06 1c6.29,-7.02 14.53,-19.44 18.65,-27.74l-74.68 0.68c2.26,-46.8 -45.66,-77.76 -85.35,-18.2 -6.86,10.3 -16.24,23.16 -21.84,34.16z"/>
  <path class="fil2" d="M2750.63 4066.18l66.02 -32.59 -24.42 -50.74 -22.65 10.3 11.47 25.55 -27.1 12.74c-26.82,-35.09 -12.47,-60.69 22.72,-74.34 42.43,-16.45 60.73,15.45 64.83,52.48l25.98 -1.25c-9.53,-133.51 -162.85,-88.63 -155.85,-10.73 2.27,25.27 26.19,59.14 39,68.58z"/>
  <path class="fil2" d="M4811.11 3766.02l-70.74 -20.81 -16.25 55.27 24.6 6.37 6.99 -25.54 29.01 7.47c-0.42,43.46 -33.66,56.07 -71.03,37.99 -50.52,-24.43 -12.33,-73.15 -8.59,-81.47 -6.42,-5.22 -13.79,-10.82 -19.93,-14.85 -37.66,45.93 -33,109.39 25.7,129.2 32.97,11.12 58.49,7.58 78.44,-12.27 16.47,-16.39 25.25,-52.28 21.8,-81.36z"/>
  <path class="fil2" d="M3498.35 4501.13l4.25 62.93 -35.55 -9.36 31.3 -53.57zm-93.88 100.99l29.9 7.74 17.58 -29.81c9.37,0.25 45.86,8.62 52.27,12.1l2.38 33.01 31.19 8.55c0.03,-1.56 -12.77,-148.01 -18.08,-151.64l-33.62 -8.9c-5.94,5.96 -79.4,121.71 -81.62,128.95z"/>
  <path class="fil2" d="M2988.06 2779.95l-44.49 -45.21c-5.65,2.49 -18.83,15.64 -21.85,22.13 14.41,11.05 60.21,64.9 73.2,76.7 9.21,8.36 19.19,21.77 26.35,25.46 5.61,-5.45 15.64,-15.52 20.28,-20.99 -22.44,-25.01 -36.65,-28.42 -32.22,-49.62 7.18,-3.47 44.18,8.6 53.72,11.3 15.3,4.34 14.36,5.95 23.98,-2.87 3.46,-3.17 13.54,-14.1 16.35,-16.06l-91.08 -24.59 -6.93 -79.63c-6.71,4.89 -12.59,10.64 -18.47,15.88 -9.01,8.02 -6.09,10.08 -4.8,25.24 1.76,20.7 4.12,42 5.96,62.26z"/>
  <path class="fil2" d="M4563.64 3017.81l12.97 25.42c10.58,-3.29 20.79,-9.95 30.25,-14.99 12.91,-6.87 15.69,-11.11 28.72,0.29 -25.09,49.59 -48.98,54.49 -19.8,89.4l47.57 -79 78.95 14.29c-10.49,-33.75 -17.33,-30.58 -35.74,-34.13 -11.87,-2.29 -49.95,-7.64 -58.44,-11.69 16.19,-8.61 38.7,-21.89 55.94,-28.25l-12.53 -27.76c-16.56,4.79 -47.01,24.16 -64.55,32.54 -6.86,3.29 -56.58,27.49 -63.34,33.88z"/>
  <path class="fil2" d="M4407.83 4336.03c-5.28,-5.14 -24.29,-51.2 -25.61,-56.03 9.24,4.51 44.87,26.47 51.64,32.7l-6.33 6.89c-3.42,2.88 -3.43,2.64 -6.92,5.9 -5.12,4.79 -7.63,6.35 -12.78,10.54zm-55.89 -64.36c1.86,10.64 52.47,139.37 55.89,143.11 7.55,-6.03 17.32,-12.8 23.61,-20.62l-13.37 -31.97c7.27,-6.98 13.1,-11.3 19.8,-17.35 7.84,-7.08 12.82,-9.79 18.83,-16.73l30.26 18.13c6.84,-3.17 5.91,-3.27 11.94,-8.89 2.57,-2.4 2.95,-2.46 5.84,-4.86 5.49,-4.56 2.78,-0.91 6.67,-6.93l-131.12 -76.63c-6.09,4.91 -9.75,7.43 -14.22,11.36 -6.7,5.88 -6.58,7.19 -14.13,11.38z"/>
  <path class="fil2" d="M3870.37 4519.22l15.33 28.3c3.59,7.82 8.93,18.72 11.45,26.77l-36.61 4.31 9.83 -59.38zm-20.7 -22.99l-32.71 147.88 32.68 -3.81 6.12 -34.14c11.69,-5.14 38.95,-5.98 53.11,-7.06l13.26 31.97 32.58 -3.37 -67.14 -137.25c-11.45,0.78 -27.67,0.98 -37.9,5.78z"/>
  <path class="fil2" d="M4397.21 2625.49l-25.92 -13.06c-1.4,1.66 -1.31,1.4 -2.91,3.66 -1.11,1.54 -2.5,3.93 -4.17,6.52l-27.33 43.46c-11.09,17.28 -24.73,48.65 -53.09,29.77 -27.4,-18.25 -7.28,-41.6 4.77,-61.01 11.01,-17.75 26.11,-38.46 35.16,-56.5l-24.81 -15.57 -47.44 73.54c-23.03,36.37 -9.5,63.05 17.98,80.4 35.88,22.65 62.17,13.22 81.11,-15.57l46.65 -75.64z"/>
  <path class="fil2" d="M4753.77 3144.55c-4.94,5.46 -42.46,35.07 -49.78,38.69l-12.39 -34.11 62.17 -4.58zm-136.59 -21.7l11.18 30.52 34.58 -2.14c1.34,1.87 1.15,1.32 3,4.73l7.47 18.6c3.08,8.28 7.45,16.83 8.98,25.48 -9.44,8.39 -18.03,14.32 -27.15,22.23l11.1 29.46 116.47 -98.86 -12.57 -34.24 -153.06 4.22z"/>
  <path class="fil1" d="M3612.3 3176.11c0.69,10.77 1.91,40.34 13.02,40.34l222.96 0c10.82,0 12.4,-31.39 12.68,-41.99 -21.24,-5.01 -39.43,-13.1 -59.11,-3.71 -19.09,9.11 -43.41,8.39 -65.56,6.93 -31.85,-2.11 -33.72,10.25 -61.67,11.12 -29.56,0.93 -40.61,-9.46 -62.32,-12.69z"/>
  <path class="fil1" d="M3636.57 3594.32c8.22,16.43 29.4,29.14 46.79,40.72 13.18,8.76 40.94,29.38 53.44,34.57 15.37,-7.51 37.89,-24.56 53.2,-34.77 18.51,-12.35 38.26,-23.54 46.74,-41.07l-200.17 0.55z"/>
  <path class="fil2" d="M4167.03 2569.75c2.48,-9.42 11.88,-31.97 17.83,-37.68 13.98,6.52 32.99,12.17 25.46,33.05 -6.87,19.1 -28.34,15.24 -43.29,4.63zm-60.25 55.63c0.64,0.48 1.3,0.46 1.51,1.17l25.12 11.8 21.71 -44.91c17.1,5.34 33,17.49 55.55,10.75 25.18,-7.53 55.71,-55.78 5.47,-85.05 -10.08,-5.87 -39.61,-19.93 -50.69,-22.82l-58.67 129.06z"/>
  <path class="fil1" d="M3736.8 3375.57c-9.57,3.92 -18.92,12.07 -27.48,17.76 -20.46,13.62 -63.56,38.24 -72.87,57.73l200.45 -0.29c-10.08,-17.44 -26.46,-26.96 -46.72,-40.39 -15.13,-10.03 -38.34,-27.7 -53.38,-34.81z"/>
  <path class="fil2" d="M3886.52 2563.32c8.11,4.26 69.77,15.19 81.25,14.97l3.88 -22.82c-8.84,-3.76 -37.99,-8.22 -50.16,-10.05l5.3 -35.97 48.55 7.78 4.05 -24.82 -47.68 -8.46c1.23,-9.79 2.35,-22.63 6.61,-30.51l49.22 8.34c3.36,-7.2 4.56,-16.34 5.03,-24.73l-79.88 -14.1c-4.16,8.61 -25.05,125.13 -26.17,140.37z"/>
  <path class="fil2" d="M4411.99 4224.8c7.06,7.43 10.44,9.5 17.27,14.46 8.18,-6.98 13.19,-13.98 21.52,-22.92 5.13,-5.51 17.71,-19.9 21.26,-25.81 9.16,11.24 24.78,108.21 33.76,118.49 3.47,3.96 8.21,7.86 13.88,10.19 5.07,-8.94 9.75,-11.61 16.29,-19.86 11.61,-14.64 48.42,-53.47 52.02,-61.98 -8.68,-5.02 -11,-11.12 -19.64,-14.58l-44.76 51c-5.08,-8.11 -14.6,-53.58 -18.06,-67.29 -10.71,-42.35 -6.63,-44.87 -26.96,-59.84l-34.02 37.64c-6.73,8.6 -30.13,32.58 -32.56,40.5z"/>
  <path class="fil2" d="M2834.37 2858.78c2.37,4.31 99.54,83.63 113.91,90.62 6.62,-13.34 42.11,-50.07 48.97,-64.51 -6.1,-6.09 -11.65,-11.54 -19.98,-15.12 -3.41,6.01 -9.87,13.58 -14.47,19.34l-17.08 20.18c-9.43,-6.3 -21.04,-14.49 -27.81,-22.25 6.08,-12.34 23,-25.95 27.92,-38.59 -5.04,-5.29 -12.12,-10.51 -17.35,-14.44 -11.45,9.37 -23.4,31.09 -31.56,37.09 -8.01,-4.87 -16.15,-12.89 -23.91,-18.05 3.72,-9.39 24.26,-31.34 31.41,-41.08 -5.16,-6.47 -11.13,-11.28 -18.73,-15.48 -10.89,9.09 -35.67,45.46 -51.32,62.29z"/>
  <path class="fil2" d="M2688.55 3127.15l21.1 10.21 28.26 -59.37c5.13,4.39 43.47,72.25 52.98,88.19 8.68,14.53 8.16,17.38 26.2,22.08l44.68 -95.26 -23.05 -11.97 -28.42 63.36c-6.8,-6.48 -47.2,-77.9 -53.09,-88.15 -9.07,-15.78 -6.38,-15.19 -25.88,-22.1 -5.62,6.56 -41.17,83.12 -42.78,93.01z"/>
  <path class="fil2" d="M4302.17 4311.96l36.82 113.37 -93.59 -70.86c-8.03,5.26 -19.02,11.13 -24.26,18.84 9.49,4.96 20.78,14.03 30.22,20.82l61.25 43.8c9.05,6.41 21.83,14.52 30.59,22.2 8.37,-3.25 19.79,-13.81 27.82,-18.68l-43.86 -145.09c-9.39,4.8 -15.94,11.74 -24.99,15.6z"/>
  <path class="fil2" d="M4057.03 2578.14c-26.87,2.78 -39.36,-14.3 -54.39,-24.41l-9.45 27.67c16.77,9.21 35.34,25.74 65.2,22.94 22.74,-2.13 42.14,-23.98 34.89,-50.25 -6.07,-22.04 -34.04,-35.87 -38.62,-49.61 -5.56,-16.65 9.03,-22.25 23.79,-17.05 9.58,3.38 20.71,12.83 26.79,17.22 2.73,-2.53 13.55,-14.45 15.73,-18.51 -16.2,-23.62 -77.03,-44.61 -94.16,-3.74 -22.04,52.57 57.46,61.48 30.22,95.74z"/>
  <path class="fil2" d="M3957.53 4589.21l7.37 26.93c58.35,11.48 105.98,-37.01 73.02,-72.91 -18.41,-20.05 -39.57,-11.63 -61.45,-22.14 -13.18,-6.34 -10.32,-21.2 0.44,-26.22 11.14,-5.2 25.49,-3.26 38.59,-3.51 5.52,-12.37 3.02,-21.37 2.61,-23.36 -0.07,-0.36 -0.25,-1.09 -0.47,-1.6 -81.16,-11.44 -95.29,52.62 -64.21,75.56 16.9,12.47 58.8,11.1 63.76,24.56 11.34,30.72 -49.38,23.48 -59.66,22.69z"/>
  <path class="fil2" d="M3374.88 4557.79c-22.29,10.91 -47.13,-9.76 -57.83,-22.16 -5.43,4.94 -10.77,22.61 -9.26,26.6 3.94,10.42 57.12,38.23 86.2,16.49 14.37,-10.74 18.01,-38.4 5.84,-55.55 -9.3,-13.11 -38.87,-31.75 -31.55,-47.54 14.4,-18.95 39.86,3.32 49.99,11.88 6.81,-7.58 12.45,-9.65 16.54,-20.75 -11.23,-5.66 -19.77,-18.74 -46.93,-24.06 -23.79,-4.65 -39.76,5.12 -46.85,21 -9.96,22.3 -1.17,36.84 10.1,50.3 10.82,12.94 30.56,20.74 23.75,43.79z"/>
  <path class="fil2" d="M2652.75 3688.17l-27.94 4.99c-13.93,74.09 35.5,104.52 68.87,78.08 17.19,-13.61 13.57,-38.97 25.37,-58.24 6.42,-10.48 21.59,-9.97 26.07,2.72 4.57,12.94 1.01,27.59 -0.57,40.02l25.36 5.55c3.5,-28.12 6.32,-55.05 -11.75,-73.58 -18.42,-18.91 -46.64,-13.24 -60.3,4.12 -12.57,15.97 -13.05,54.91 -29.66,58.18 -13.13,2.58 -18.1,-10 -19.37,-21.35 -1.59,-14.27 1.98,-27.1 3.92,-40.49z"/>
  <path class="fil2" d="M3151.62 2700.52l12.82 23.35c43.46,-4.21 95.53,-49.65 53.5,-87.63 -22.39,-20.24 -54.76,0.37 -73.52,-7.98 -13.95,-6.22 -7.19,-20.53 0.67,-26.35 9.1,-6.75 20.92,-8.77 33.43,-11.6l-3.57 -24.92c-26.78,2.42 -48.39,15.14 -59.8,30.18 -14.93,19.66 -5.64,49.49 13.85,58.84 23.7,11.38 67.56,-7.94 74.44,11.43 8.39,23.63 -34.63,28.93 -51.82,34.68z"/>
  <path class="fil2" d="M4701.42 3257.43l-26.19 5.65c-9,20.16 0.27,52.54 10.52,68.56 11.12,17.38 40.44,24.4 59.77,6.7 18.21,-16.67 13.22,-47.4 24.72,-61.14 8.24,-9.85 20.62,-5.93 24.89,5.09 5.35,13.83 0.24,25.76 1.69,38.91l24.41 3.92c11.69,-99.9 -56.45,-90.32 -72.56,-69.39 -11.4,14.81 -15.38,55.97 -24.89,61.15 -14.08,7.68 -21.85,-5.3 -24.07,-16.41 -2.91,-14.59 0.2,-29.09 1.71,-43.04z"/>
  <path class="fil1" d="M3736.8 3720.8c-14.29,5.92 -78.74,49.55 -90.71,66.52l181.35 0c-8.48,-14.42 -73.46,-58.36 -90.64,-66.52z"/>
  <path class="fil1" d="M3736.8 3324.38c16.23,-8.14 84.05,-52.74 90.58,-66.52l-181.53 0c13.3,17.28 76.07,60.21 90.95,66.52z"/>
  <path class="fil2" d="M3195.16 2544.61l11.04 20.46c0.23,0.33 0.69,0.95 1.07,1.4l34.75 -17.06 53.48 105.43 26.64 -13.49 -53.94 -106.51 34.87 -16.9c-1.91,-3.68 -3.43,-6.95 -5.29,-10.59 -0.92,-1.79 -2.25,-4.41 -3.05,-5.74l-3.85 -5.6 -95.72 48.6z"/>
  <path class="fil1" d="M2776.53 3856.06c7.79,-24.18 -12.36,-47.45 -38.78,-45.38 -78.37,6.15 -68.2,84.54 -14.93,78.38 23.01,-2.65 48.01,-15.31 53.71,-33z"/>
  <path class="fil1" d="M3610.19 4524.21c-38.77,14.84 -32.84,115.45 25.42,92.61 36.99,-14.49 34.11,-115.38 -25.42,-92.61z"/>
  <path class="fil2" d="M4706.35 4007.88l-109.39 -48.12 -11.3 26.96c6.16,5.66 116.65,54.59 130.76,59.42l36.68 -80.62 -22.71 -10.22 -24.04 52.58z"/>
  <path class="fil2" d="M2788.71 4141.19c3.42,8.85 18.23,27.47 24.57,35.96 8.43,11.28 17.55,26.88 26.13,36.01 6.54,-3.6 14.51,-9.41 19.91,-14.06 -7.63,-15.12 -23.07,-30.62 -32.43,-47.19 0.36,-0.44 0.97,-1.63 1.17,-1.24 0.19,0.38 0.91,-0.96 1.18,-1.21 0.26,-0.25 0.86,-0.86 1.19,-1.16 0.32,-0.28 0.85,-0.76 1.21,-1.06 2.7,-2.26 4.2,-3.08 6.32,-4.52 16.03,-10.92 78.35,-54.88 83.79,-62.17 -5.42,-6.36 -12.61,-16.46 -16.31,-22.84 -9.8,4.46 -109.99,77.84 -116.73,83.48z"/>
  <path class="fil2" d="M4450.44 2869.89c9.44,11.34 18,20.59 27.87,32.38l28.73 33.29c7.26,-5.21 12.55,-8.89 18.22,-16.37 -6.03,-8.03 -11.78,-13.79 -18.23,-22.03 -6.48,-8.29 -13.54,-13.38 -18.23,-23.63 11.57,-6.49 22.16,-18.44 32.62,-27.19l56.33 -46.64c-3.42,-8.57 -13.49,-19.64 -19.86,-23.97 -11.81,8.56 -102.01,84.65 -107.45,94.16z"/>
  <path class="fil1" d="M2689.36 3266.14c-24.11,5.91 -34.54,37.18 -18.21,56.27 9.92,11.6 44.67,23.29 66.22,16.66 19.94,-6.13 31.75,-35.85 16.56,-54.43 -11.05,-13.52 -41.39,-24.18 -64.57,-18.5z"/>
  <path class="fil1" d="M2994.85 4236.88c-16.78,5.87 -40.02,28.31 -43.22,48.06 -4.06,25 22.08,47.69 47.19,37.96 15.14,-5.87 38.77,-30.37 41.94,-47.96 4.44,-24.59 -20.69,-46.88 -45.91,-38.06z"/>
  <path class="fil1" d="M3400.38 2483.35c-25.51,8.64 -30.57,27.83 -20.67,57.6 7.15,21.54 19.65,43.34 48.33,35.23 25.4,-7.17 30.06,-29.92 21.15,-57.53 -6.78,-21.03 -20.33,-44.94 -48.81,-35.3z"/>
  <polygon class="fil2" points="3718.16,4647.24 3807.2,4645.41 3806.22,4621.02 3747.93,4621.9 3744.18,4504.57 3714.09,4504.04 "/>
  <path class="fil2" d="M2633.59 3501.05c-4.86,30.91 0.96,11.2 -13.25,30.91 3.61,9.45 6.71,7.21 10.23,13.2 4.78,8.12 0.06,11.33 4.05,19.98 6.81,1.77 11.5,-0.6 18.19,2.66 3.26,1.6 7.81,7.66 12.57,10.72 5.48,-3.39 8.39,-8.21 11.98,-10.22 8.69,-4.88 11.62,0.2 19.51,-3.97 4.17,-7.89 -0.91,-10.82 3.97,-19.51 2.01,-3.59 6.83,-6.5 10.21,-11.98 -3.51,-5.48 -7.5,-7.41 -9.87,-11.18 -4.91,-7.82 -1.33,-11.22 -3.5,-19.58 -8.62,-3.91 -11.92,0.78 -20,-4.02 -5.96,-3.54 -3.7,-6.64 -13.19,-10.25 -19.54,14.08 -0.06,8.57 -30.9,13.24z"/>
  <path class="fil2" d="M4752.47 3502.49c-1.75,6.84 0.72,10.98 -2.59,17.87 -1.37,2.84 -7.43,7.94 -10.31,11.98 3.82,8.23 6.94,7 9.87,12.31 4.72,8.56 -0.13,11.93 3.78,19.41 2.52,2.72 12.59,0.35 19.63,4.05 2.44,1.28 8.21,7.75 11.79,10.35 7.23,-3.9 6.41,-6.4 11.33,-9.65 7.39,-4.9 11.06,-1.97 19.61,-3.33 0.25,-0.58 0.46,-2.08 0.52,-1.8 0.81,3.47 -0.01,-12.46 3.54,-18.36 4.04,-6.69 6.87,-3.14 10.23,-13.73 -16.21,-11.66 -10.07,-9.12 -13.21,-30.77 -25.43,-2.55 -16.04,3.49 -31.09,-12.94 -13.93,5.68 -4.02,10.2 -21.85,12.37l-11.25 2.24z"/>
  <path class="fil2" d="M4692.44 3386.55c0.37,9.31 1.16,21.72 4.81,28.47l141.01 -18.13 -3.52 -30.1c-21.61,2.05 -130.43,13.92 -142.3,19.76z"/>
  <polygon class="fil2" points="4680.98,3704.28 4822.93,3729.97 4828.33,3699.72 4686.58,3673.91 "/>
  <polygon class="fil2" points="4629.41,3886.65 4763.43,3939.8 4774.72,3911.33 4641.75,3858.03 "/>
  <path class="fil2" d="M3158.87 4493.84l26.03 15.63c12.89,-19.59 25.04,-42.74 36.41,-62.68 7.63,-13.37 32.16,-51.79 35.1,-63.02l-25.2 -13.82 -72.34 123.89z"/>
  <path class="fil2" d="M3032.61 2655.5l43.31 56.33c8.17,10.73 38.7,46.87 42.72,56.07 8.96,-2.86 19.09,-12.47 24.96,-18.07 -2.38,-4.67 -80.9,-106.83 -88.55,-112.24 -7.38,4.12 -17.77,12.47 -22.44,17.91z"/>
  <path class="fil2" d="M2858.04 4235.52c3.83,5.82 14.1,18 19.08,21.78l81.46 -68.95c7.78,-7.34 20.76,-16.39 27.09,-23.76 -5.26,-7.55 -12.93,-15.63 -18.83,-22.76 -7.31,4.63 -20.2,15.79 -26.61,21.76 -15.69,14.63 -73.41,60.91 -82.19,71.93z"/>
  <path class="fil2" d="M4491.22 4130.47c37.5,29.96 74.2,58.36 111.71,87.41 6.58,-5.01 14.3,-16.07 18.77,-23.09l-83.48 -66.07c-9.98,-7.32 -18.79,-16.82 -29.63,-21.62 -4.88,4.2 -14.78,17.6 -17.37,23.37z"/>
  <path class="fil2" d="M4523.37 2959.93c3.49,7.43 12.05,18.64 17.37,23.46 7.39,-3.74 22.06,-15.13 29.03,-20.19 10.17,-7.36 18.57,-13.85 28.5,-20.78 10.72,-7.48 18.28,-12.82 28.67,-20.64 8.5,-6.4 22.62,-14.56 28.97,-21.88 -2.49,-5.62 -11.22,-17.72 -16.55,-23.32 -6.99,2.19 -6.43,3.3 -14.36,8.95l-101.63 74.4z"/>
  <path class="fil1" d="M4391 2775.36c3.61,4.02 13.51,14.91 18.26,18.08 8.2,5.49 17.95,6.6 25.24,0.3 18.71,-16.18 -9.48,-40.76 -21.08,-44.74l-22.42 26.36z"/>
  <path class="fil1" d="M2834.56 3011.27l31.38 17.89c38.27,-42.93 -8.97,-79.26 -31.38,-17.89z"/>
  <path class="fil1" d="M4167.03 2569.75c14.95,10.61 36.42,14.47 43.29,-4.63 7.53,-20.88 -11.48,-26.53 -25.46,-33.05 -5.95,5.71 -15.35,28.26 -17.83,37.68z"/>
  <path class="fil1" d="M3787.74 2472.55c18.12,1.38 37.71,2.77 39.24,-16.58 1.57,-19.93 -17.93,-21.47 -36.45,-21.99l-2.79 38.57z"/>
  <path class="fil2" d="M2838.67 4040.21l10.06 18.36c13.07,-0.73 39.52,-4.17 49.57,-9.57 -1.19,-7.72 -9.12,-18.96 -13.21,-24.94l-46.42 16.15z"/>
  <path class="fil1" d="M4562.66 4072.46l31.44 20.18c33.86,-34.19 -6.73,-70.43 -31.44,-20.18z"/>
  <path class="fil2" d="M2670.38 3182.25c16.87,6.78 29.68,17.31 43.35,23.58l7.32 -20.86c-10.82,-6.65 -28.82,-26.91 -41.17,-29.62l-9.5 26.9z"/>
  <path class="fil1" d="M4433.27 2730.23c6.24,8.65 27.01,32.06 40.59,16.93 13.94,-15.53 -11.68,-35.75 -22,-39.05l-18.59 22.12z"/>
  <path class="fil1" d="M2785.73 2982.75l27.22 15.75c6.52,-10.04 24.33,-35.43 6.98,-43.8 -18.18,-8.77 -28.67,16.84 -34.2,28.05z"/>
  <path class="fil1" d="M4407.83 4336.03c5.15,-4.19 7.66,-5.75 12.78,-10.54 3.49,-3.26 3.5,-3.02 6.92,-5.9l6.33 -6.89c-6.77,-6.23 -42.4,-28.19 -51.64,-32.7 1.32,4.83 20.33,50.89 25.61,56.03z"/>
  <path class="fil1" d="M4691.6 3149.13l12.39 34.11c7.32,-3.62 44.84,-33.23 49.78,-38.69l-62.17 4.58z"/>
  <path class="fil1" d="M3860.54 4578.6l36.61 -4.31c-2.52,-8.05 -7.86,-18.95 -11.45,-26.77l-15.33 -28.3 -9.83 59.38z"/>
  <polygon class="fil1" points="3467.05,4554.7 3502.6,4564.06 3498.35,4501.13 "/>
  <path class="fil1" d="M3754.61 3115.8c8.74,5.72 18.73,6.17 21.84,-5.8 -2.86,-5.45 -5.13,-8.67 -13.44,-7.8 -8.37,0.87 -10.69,5.16 -8.4,13.6z"/>
 </g>
</svg>
