<svg width="146" height="44" viewBox="0 0 146 44" fill="none" xmlns="http://www.w3.org/2000/svg">
<g clip-path="url(#clip0_2514_2540)">
<path fill-rule="evenodd" clip-rule="evenodd" d="M20.0036 21.1543C20.6224 21.3387 21.2048 21.6282 21.7254 22.0101C21.2025 22.3883 20.6207 22.6774 20.0036 22.866C19.3942 22.6864 18.8214 22.4 18.3121 22.0202C18.8218 21.6386 19.3943 21.349 20.0036 21.1644" fill="#1B9C9F"/>
<path d="M22.9839 21.1341C22.8689 21.1258 22.7533 21.1405 22.6438 21.177C22.5344 21.2136 22.4333 21.2715 22.3463 21.3473C22.2593 21.423 22.1881 21.5153 22.1368 21.6186C22.0856 21.722 22.0552 21.8345 22.0476 21.9496C22.0345 22.1701 22.1034 22.3876 22.2409 22.5604C22.3784 22.7332 22.5749 22.8492 22.7926 22.886H22.9034L22.9839 21.1341Z" fill="#1B9C9F"/>
<path fill-rule="evenodd" clip-rule="evenodd" d="M20.8796 24.1848C21.3686 23.7626 21.9229 23.4226 22.5208 23.178C22.575 23.8208 22.5171 24.4681 22.3496 25.091C21.8667 25.5214 21.3109 25.8624 20.7084 26.0979C20.6597 25.4585 20.7175 24.8154 20.8796 24.1949" fill="#1B9C9F"/>
<path fill-rule="evenodd" clip-rule="evenodd" d="M22.2791 18.9996C22.4395 19.6204 22.4906 20.2643 22.4302 20.9026C22.4302 20.9026 21.0407 20.2985 20.8091 19.8957C20.6482 19.2716 20.5971 18.6243 20.6581 17.9827C21.2518 18.2236 21.8 18.5641 22.2791 18.9895" fill="#1B9C9F"/>
<path fill-rule="evenodd" clip-rule="evenodd" d="M25.9542 21.1543C25.3378 21.3367 24.7583 21.6264 24.2425 22.0101C24.7607 22.39 25.3394 22.6794 25.9542 22.866C26.5707 22.6805 27.1524 22.3948 27.6759 22.0202C27.1554 21.6383 26.573 21.3488 25.9542 21.1644" fill="#1B9C9F"/>
<path d="M22.9839 21.134C23.0959 21.1229 23.2089 21.1343 23.3164 21.1675C23.4239 21.2006 23.5237 21.2549 23.6099 21.3271C23.6962 21.3993 23.7672 21.4879 23.8188 21.5879C23.8703 21.6879 23.9014 21.7971 23.9103 21.9093C23.9184 22.0252 23.9035 22.1415 23.8663 22.2516C23.8291 22.3616 23.7703 22.4632 23.6935 22.5503C23.6167 22.6375 23.5233 22.7085 23.4187 22.7592C23.3142 22.8099 23.2006 22.8393 23.0846 22.8457H22.9739L22.9839 21.134Z" fill="#1B9C9F"/>
<path fill-rule="evenodd" clip-rule="evenodd" d="M25.1688 24.1848C24.6799 23.7626 24.1256 23.4226 23.5277 23.178C23.4735 23.8208 23.5314 24.4681 23.6988 25.091C24.1843 25.5179 24.7394 25.8585 25.34 26.0979C25.3899 25.4551 25.332 24.8085 25.1688 24.1848Z" fill="#1B9C9F"/>
<path fill-rule="evenodd" clip-rule="evenodd" d="M23.6888 18.9996C23.5299 19.6207 23.4855 20.2656 23.5579 20.9026C24.1519 20.6622 24.7002 20.3216 25.1789 19.8957C25.333 19.2704 25.3773 18.6231 25.3098 17.9827C24.7149 18.2212 24.1663 18.562 23.6888 18.9895" fill="#1B9C9F"/>
<path d="M42.054 16.8952V11.005L36.9391 8.06499L33.989 2.95011H28.0888L22.9839 0L17.8691 2.95011H11.9789L9.059 8.06499L3.92399 11.005V16.8952L1.00408 22.0201L3.92399 27.1249V33.0352L9.059 35.9652L11.999 41.06H17.8892L23.0041 44L28.1089 41.06H34.0091L36.9592 35.9552L42.0741 32.995V27.1249L44.994 22.0201L42.054 16.8952ZM40.4128 11.9515V16.6737H35.3785L33.1029 20.4897L28.9446 18.184V14.3579H33.9789L36.6068 9.81693L40.4128 11.9515ZM22.9839 26.7021L18.6142 29.2192V24.8897L13.751 22.0201L18.6142 19.06V14.7204L22.9839 17.167L27.3537 14.67V19.07L32.2169 21.9497L27.3537 24.789V29.2192L22.9839 26.7021ZM28.3405 4.55103H33.0526L35.3785 8.57849L33.0526 12.6059H28.9144L26.2965 8.06499L28.3405 4.55103ZM22.9839 1.88284L26.8 4.05767L24.4137 8.08513L27.1826 12.9584L22.994 15.3849L18.7853 12.9584L21.5743 8.13547L19.2283 4.10801L22.9839 1.88284ZM12.9153 4.55103H17.6274L19.6412 8.08513L17.1139 12.6462H12.9254L10.5995 8.61876L12.9153 4.55103ZM5.62559 11.9515L9.44161 9.74645L12.0796 14.2874H17.1139V18.1034L12.9556 20.4998L10.6398 16.6838H5.60545L5.62559 11.9515ZM2.93726 22.0201L5.03154 18.3048H9.63291L11.7473 22.0201L9.63291 25.7153H5.03154L2.93726 22.0201ZM5.62559 32.0888V27.3565H10.6599L12.9354 23.4499L17.1139 25.8462V29.6522H11.9789L9.44161 34.3341L5.62559 32.0888ZM17.708 39.449H12.9254L10.5995 35.4215L12.9254 31.3941H17.1139L19.7418 35.935L17.708 39.449ZM23.0544 42.1574L19.2384 39.9826L21.5844 35.9552L18.7853 31.0819L22.9839 28.595L27.1826 31.0819L24.4238 35.9048L26.7496 40.1034L23.0544 42.1574ZM33.1231 39.4691H28.3405L26.3267 35.9451L28.9446 31.4041H33.0828L35.4087 35.4316L33.1231 39.4691ZM40.4933 32.0888L36.6773 34.2838L34.0393 29.7428H29.005V25.9167L33.1633 23.5103L35.4389 27.427H40.4732L40.4933 32.0888ZM41.0471 25.7153H36.3551L34.2306 22.0201L36.3551 18.3149H40.9666L43.1011 22.0201L41.0471 25.7153Z" fill="#1B9C9F"/>
<path d="M67.719 31.6761V32.0889H66.2892V37.3548H65.816V32.0889H65.3528V31.6459H65.816V30.3369C65.816 29.4811 66.4201 29.0381 67.6082 29.0381H67.9707V29.4811H67.6082C66.7322 29.4811 66.2892 29.7731 66.2892 30.3571V31.6559L67.719 31.6761Z" fill="#343649"/>
<path d="M74.9583 36.1163C74.9583 36.9721 74.3643 37.4252 73.1762 37.4252C71.9881 37.4252 71.394 36.9721 71.394 36.1163V32.8842C71.394 32.0083 71.9881 31.5552 73.1762 31.5552C74.3643 31.5552 74.9583 32.0083 74.9583 32.8842V36.1163ZM74.5052 32.844C74.5052 32.26 74.0823 31.968 73.2064 31.968C72.3304 31.968 71.9075 32.26 71.9075 32.844V36.1163C71.9075 36.7003 72.3304 36.9721 73.2064 36.9721C74.0823 36.9721 74.5052 36.7405 74.5052 36.1163V32.844Z" fill="#343649"/>
<path d="M81.8956 31.676H82.3789V37.3849H81.946V37.2138C81.4639 37.423 80.9405 37.5194 80.4155 37.4957C79.5094 37.4957 78.865 37.093 78.865 36.1969V31.676H79.3483V36.1163C79.3483 36.7003 79.7711 36.9721 80.6471 36.9721C81.0404 36.9789 81.433 36.9349 81.8151 36.8412H81.946L81.8956 31.676Z" fill="#343649"/>
<path d="M86.8796 37.3849H86.4164V31.676H86.8192V31.8673C87.3079 31.6428 87.8424 31.5359 88.3798 31.5552C89.2659 31.5552 89.9103 31.9881 89.9103 32.8842V37.3849H89.4471V32.8842C89.4471 32.3003 88.994 32.0083 88.1281 32.0083C87.7405 32.0076 87.3545 32.0584 86.9803 32.1593H86.8192L86.8796 37.3849Z" fill="#343649"/>
<path d="M96.918 29.0681H97.3812V37.3748H96.9785V37.2036C96.487 37.417 95.9528 37.5135 95.4178 37.4855C94.5318 37.4855 93.8874 37.0828 93.8874 36.1867V32.8841C93.8874 31.988 94.5318 31.5551 95.4178 31.5551C95.8859 31.5624 96.3504 31.637 96.7972 31.7766H96.9785L96.918 29.0681ZM96.918 36.831V32.28C96.5126 32.1305 96.0809 32.0654 95.6494 32.0887C94.7734 32.0887 94.3304 32.3807 94.3304 32.9546V36.1162C94.3304 36.7002 94.7734 36.972 95.6494 36.972C96.0328 36.9788 96.4153 36.9348 96.7872 36.8411L96.918 36.831Z" fill="#343649"/>
<path d="M104.449 31.676H104.852V37.3849H104.449V37.2138C103.96 37.4223 103.43 37.5186 102.899 37.4957C102.003 37.4957 101.358 37.0929 101.358 36.1968V32.8842C101.358 31.9881 102.003 31.5552 102.899 31.5552C103.367 31.5645 103.831 31.6391 104.278 31.7767H104.449V31.676ZM104.449 36.8412V32.2801C104.029 32.1205 103.58 32.0486 103.13 32.0687C102.275 32.0687 101.832 32.3607 101.832 32.9346V36.1163C101.832 36.7003 102.275 36.9721 103.13 36.9721C103.52 36.9795 103.91 36.9355 104.288 36.8412H104.449Z" fill="#343649"/>
<path d="M110.974 32.0888H109.554V35.9753C109.554 36.5593 109.997 36.8312 110.853 36.8312H111.226V37.2742H110.853C109.675 37.2742 109.091 36.8312 109.091 35.9753V32.0888H108.598V31.666H109.091V30.6289L109.383 30.5081H109.554V31.6962H110.974V32.0888Z" fill="#343649"/>
<path d="M114.891 29.0681H115.354V31.0114H114.891V29.0681ZM114.891 31.6658H115.354V37.3748H114.891V31.6658Z" fill="#343649"/>
<path d="M122.835 36.1163C122.835 36.9721 122.241 37.4252 121.053 37.4252C119.865 37.4252 119.27 36.9721 119.27 36.1163V32.8842C119.27 32.0083 119.875 31.5552 121.053 31.5552C122.231 31.5552 122.835 32.0083 122.835 32.8842V36.1163ZM122.351 32.8037C122.351 32.2197 121.929 31.9277 121.053 31.9277C120.177 31.9277 119.754 32.2197 119.754 32.8037V36.1163C119.754 36.7003 120.177 36.9721 121.053 36.9721C121.929 36.9721 122.351 36.7003 122.351 36.1163V32.8037Z" fill="#343649"/>
<path d="M127.235 37.385H126.751V31.6761H127.174V31.8674C127.656 31.6438 128.184 31.5369 128.715 31.5552C129.621 31.5552 130.265 31.9882 130.265 32.8843V37.385H129.782V32.8843C129.782 32.3003 129.349 32.0083 128.483 32.0083C128.089 32.0083 127.697 32.0591 127.315 32.1594H127.174L127.235 37.385Z" fill="#343649"/>
<path d="M71.2732 6.23242H67.1954C66.1611 6.30819 65.1658 6.65896 64.3126 7.24844C63.4593 7.83792 62.7791 8.6447 62.3423 9.58528L56.875 22.1107C56.4686 22.9905 55.8359 23.7467 55.0417 24.3022C54.2475 24.8576 53.3201 25.1923 52.3542 25.2722C52.3155 25.2631 52.2748 25.2696 52.2408 25.2904C52.2069 25.3111 52.1825 25.3444 52.173 25.383C52.1695 25.4292 52.1829 25.475 52.2107 25.512C52.2385 25.549 52.2787 25.5748 52.324 25.5844H68.0311C68.0717 25.5783 68.1092 25.5594 68.1382 25.5304C68.1672 25.5014 68.1862 25.4638 68.1922 25.4233V19.8956C68.1925 19.8508 68.1762 19.8075 68.1464 19.7741C68.1167 19.7406 68.0756 19.7193 68.0311 19.7143C67.9848 19.7169 67.9412 19.7371 67.9094 19.7709C67.8776 19.8046 67.8598 19.8492 67.8599 19.8956C67.86 20.6068 67.7189 21.3109 67.4449 21.9672C67.171 22.6235 66.7695 23.2189 66.2638 23.719C65.7581 24.219 65.1583 24.6138 64.499 24.8804C63.8396 25.1471 63.134 25.2802 62.4228 25.2722H60.0567L66.7524 9.74638C67.1566 8.86404 67.7884 8.10521 68.5829 7.54782C69.3774 6.99043 70.306 6.65458 71.2732 6.57476C71.2988 6.58096 71.3254 6.58118 71.3511 6.5754C71.3768 6.56963 71.4008 6.55801 71.4212 6.54145C71.4417 6.52489 71.4581 6.50384 71.469 6.47993C71.48 6.45602 71.4854 6.4299 71.4846 6.40359C71.4821 6.35996 71.4629 6.31897 71.4311 6.28901C71.3993 6.25906 71.3572 6.24241 71.3135 6.24249" fill="#343649"/>
<path d="M55.6265 12.1126C55.6746 12.1126 55.7207 12.0935 55.7547 12.0595C55.7886 12.0256 55.8077 11.9795 55.8077 11.9314C55.8077 10.5054 56.3742 9.13784 57.3825 8.12952C58.3908 7.1212 59.7584 6.55474 61.1844 6.55474C61.2251 6.54316 61.2605 6.51769 61.2844 6.48275C61.3083 6.4478 61.3193 6.40559 61.3153 6.36343C61.3068 6.32976 61.2906 6.29855 61.2678 6.27232C61.2451 6.24608 61.2165 6.22556 61.1844 6.2124H55.6265C55.5811 6.2124 55.5376 6.23044 55.5055 6.26254C55.4734 6.29464 55.4553 6.33817 55.4553 6.38357V11.9515C55.4553 11.9979 55.473 12.0425 55.5048 12.0763C55.5367 12.11 55.5802 12.1302 55.6265 12.1328" fill="#343649"/>
<path d="M89.9908 25.2722H89.6082C89.2775 25.2521 88.9603 25.1342 88.6967 24.9334C88.4332 24.7326 88.2353 24.458 88.1281 24.1446L83.3858 9.56515C83.0447 8.63745 82.4417 7.82872 81.65 7.23711C80.8582 6.64551 79.9117 6.29649 78.9254 6.23242H75.0389C75.019 6.2337 74.9996 6.23889 74.9818 6.24769C74.9639 6.25648 74.948 6.26872 74.9349 6.28369C74.9218 6.29865 74.9118 6.31606 74.9055 6.33491C74.8991 6.35376 74.8965 6.37368 74.8979 6.39352C74.8979 6.42823 74.9117 6.46153 74.9362 6.48607C74.9608 6.51062 74.9941 6.52441 75.0288 6.52441C75.8971 6.58835 76.7313 6.88859 77.4412 7.39262C78.1511 7.89664 78.7096 8.58526 79.0563 9.38391L73.5688 24.1446C73.4399 24.4595 73.2254 24.732 72.9496 24.9313C72.6738 25.1306 72.3477 25.2487 72.0082 25.2722H71.6256C71.6022 25.2735 71.5793 25.2795 71.5583 25.2899C71.5373 25.3003 71.5186 25.315 71.5035 25.3329C71.4884 25.3509 71.4772 25.3717 71.4704 25.3942C71.4637 25.4167 71.4617 25.4403 71.4645 25.4635C71.4742 25.5025 71.4944 25.538 71.5227 25.5664C71.5511 25.5948 71.5867 25.6149 71.6256 25.6246H75.1798C75.2241 25.6132 75.2632 25.5871 75.2907 25.5505C75.3181 25.5139 75.3323 25.469 75.3309 25.4233C75.3197 25.3878 75.3001 25.3556 75.2738 25.3293C75.2475 25.303 75.2153 25.2834 75.1798 25.2722H74.8274C74.714 25.2806 74.6003 25.2622 74.4953 25.2184C74.3904 25.1747 74.2972 25.1069 74.2233 25.0205C74.164 24.9035 74.1331 24.7741 74.1331 24.6429C74.1331 24.5118 74.164 24.3824 74.2233 24.2654L75.9954 19.6237H82.4192L83.9295 24.2452C83.9888 24.3623 84.0196 24.4916 84.0196 24.6228C84.0196 24.754 83.9888 24.8833 83.9295 25.0004C83.8571 25.0898 83.7647 25.161 83.6598 25.2082C83.5549 25.2555 83.4403 25.2774 83.3254 25.2722H82.9629C82.9194 25.2678 82.8757 25.2783 82.8391 25.3021C82.8025 25.326 82.7751 25.3616 82.7615 25.4031C82.7555 25.423 82.7536 25.4438 82.7559 25.4644C82.7583 25.485 82.7649 25.5049 82.7753 25.5229C82.7857 25.5408 82.7996 25.5564 82.8163 25.5688C82.833 25.5811 82.8521 25.5898 82.8723 25.5944H89.9203C89.9614 25.5945 90.0009 25.5789 90.0308 25.5509C90.0608 25.5228 90.0789 25.4844 90.0814 25.4434C90.0862 25.427 90.0862 25.4095 90.0814 25.3931C90.0719 25.3588 90.0524 25.3282 90.0256 25.3049C89.9987 25.2816 89.9656 25.2668 89.9304 25.2622M76.3377 18.8786L79.5093 10.431L82.1675 18.8786H76.3377Z" fill="#343649"/>
<path d="M114.468 6.55477H114.83C114.877 6.55484 114.921 6.53714 114.955 6.50529C114.989 6.47345 115.009 6.4299 115.011 6.3836C115.011 6.34088 114.994 6.2999 114.964 6.26969C114.934 6.23948 114.893 6.2225 114.85 6.2225H109.594C109.574 6.22112 109.553 6.22401 109.534 6.23098C109.514 6.23795 109.496 6.24885 109.481 6.26302C109.466 6.27718 109.454 6.2943 109.446 6.31331C109.438 6.33233 109.433 6.35282 109.433 6.37353V7.68246L104.117 21.9296L100.09 9.60557C99.7586 8.67193 99.162 7.85534 98.3731 7.25612C97.5843 6.6569 96.6376 6.30115 95.6494 6.23257H91.8132C91.7922 6.22947 91.7708 6.23115 91.7505 6.23749C91.7303 6.24383 91.7117 6.25466 91.6962 6.26918C91.6807 6.2837 91.6687 6.30154 91.6611 6.32135C91.6534 6.34116 91.6504 6.36244 91.6521 6.3836C91.6493 6.40158 91.6502 6.41995 91.6549 6.43755C91.6596 6.45514 91.6678 6.47157 91.6792 6.48578C91.6906 6.49999 91.7048 6.51168 91.7209 6.52009C91.7371 6.5285 91.7548 6.53345 91.773 6.53463C92.7399 6.5668 93.6684 6.92119 94.4109 7.5415V24.1548C94.4109 24.4432 94.2964 24.7198 94.0924 24.9237C93.8885 25.1276 93.6119 25.2422 93.3235 25.2422H93.0315C92.9915 25.2328 92.9495 25.239 92.9139 25.2596C92.8783 25.2802 92.852 25.3136 92.8402 25.3529C92.8342 25.3728 92.8323 25.3936 92.8346 25.4142C92.837 25.4348 92.8436 25.4547 92.854 25.4727C92.8644 25.4906 92.8783 25.5063 92.895 25.5186C92.9117 25.5309 92.9308 25.5396 92.951 25.5442H96.475C96.5193 25.5328 96.5584 25.5067 96.5859 25.4701C96.6133 25.4335 96.6275 25.3886 96.626 25.3429C96.6193 25.3072 96.6007 25.2749 96.5733 25.2512C96.5459 25.2274 96.5112 25.2136 96.475 25.212H96.1025C95.8176 25.2067 95.5461 25.0898 95.3465 24.8864C95.1469 24.6831 95.0351 24.4095 95.0352 24.1246V8.28658C95.3962 8.69512 95.6733 9.17066 95.8508 9.68612L99.9487 22.2619C100.563 24.0843 100.643 25.6047 102.859 25.6047H103.342C103.376 25.6023 103.41 25.592 103.439 25.5746C103.469 25.5571 103.494 25.5329 103.513 25.504L104.641 22.574L109.413 9.79687V24.2957C109.415 24.4363 109.388 24.5756 109.335 24.7057C109.282 24.8358 109.203 24.954 109.104 25.0534C109.004 25.1528 108.886 25.2313 108.756 25.2845C108.626 25.3377 108.486 25.3644 108.346 25.363H107.983C107.94 25.3779 107.902 25.4048 107.874 25.4404C107.845 25.476 107.827 25.519 107.822 25.5644C107.834 25.6014 107.855 25.6349 107.883 25.6614C107.911 25.6879 107.946 25.7065 107.983 25.7154H114.78C114.802 25.7129 114.824 25.706 114.844 25.695C114.864 25.684 114.881 25.6691 114.895 25.6513C114.909 25.6335 114.92 25.6131 114.926 25.5913C114.932 25.5694 114.934 25.5466 114.931 25.5241C114.922 25.4864 114.903 25.4517 114.877 25.4234C114.85 25.3951 114.817 25.3743 114.78 25.363H114.427C114.142 25.3631 113.869 25.2513 113.666 25.0517C113.462 24.8521 113.345 24.5806 113.34 24.2957V7.62205C113.345 7.33715 113.462 7.06571 113.666 6.86611C113.869 6.66652 114.142 6.55472 114.427 6.55477" fill="#343649"/>
<path d="M123.781 6.55477H124.154C124.199 6.55477 124.243 6.53673 124.275 6.50463C124.307 6.47253 124.325 6.429 124.325 6.3836C124.325 6.34256 124.309 6.30304 124.281 6.2731C124.253 6.24317 124.215 6.22507 124.174 6.2225H117.357C117.336 6.22114 117.315 6.22397 117.295 6.23082C117.275 6.23768 117.256 6.24844 117.24 6.26247C117.225 6.2765 117.212 6.29353 117.202 6.31259C117.193 6.33165 117.188 6.35236 117.186 6.37353C117.185 6.39639 117.188 6.41931 117.196 6.44075C117.204 6.46218 117.217 6.48165 117.233 6.49785C117.249 6.51405 117.269 6.52661 117.29 6.53469C117.312 6.54276 117.335 6.54618 117.357 6.5447H117.73C118.016 6.5447 118.29 6.6582 118.492 6.86025C118.694 7.06229 118.807 7.33631 118.807 7.62204V24.2051C118.805 24.4874 118.691 24.7573 118.492 24.9569C118.292 25.1565 118.022 25.2698 117.74 25.2724H117.367C117.327 25.2774 117.289 25.298 117.263 25.3299C117.237 25.3617 117.224 25.4024 117.227 25.4436C117.225 25.4616 117.227 25.4797 117.233 25.4967C117.239 25.5138 117.249 25.5294 117.261 25.5427C117.273 25.5559 117.288 25.5665 117.305 25.5737C117.321 25.5809 117.339 25.5846 117.357 25.5845H124.174C124.218 25.5771 124.258 25.5534 124.286 25.518C124.314 25.4827 124.328 25.4382 124.325 25.3932C124.315 25.359 124.296 25.3283 124.269 25.3051C124.242 25.2818 124.209 25.2669 124.174 25.2623H123.801C123.519 25.2597 123.249 25.1464 123.05 24.9468C122.85 24.7472 122.737 24.4773 122.734 24.195V7.62204C122.737 7.3398 122.85 7.06985 123.05 6.87027C123.249 6.67068 123.519 6.55739 123.801 6.55477" fill="#343649"/>
<path d="M144.825 6.23248H141.27C141.25 6.22806 141.23 6.22807 141.21 6.2325C141.19 6.23694 141.171 6.24569 141.154 6.25816C141.138 6.27062 141.125 6.2865 141.115 6.30467C141.106 6.32284 141.1 6.34288 141.099 6.36337C141.099 6.40877 141.117 6.45231 141.149 6.48441C141.182 6.51651 141.225 6.53454 141.27 6.53454H141.643C141.925 6.53717 142.195 6.65045 142.395 6.85004C142.594 7.04963 142.708 7.31957 142.71 7.60182V23.7117C142.249 23.2591 141.874 22.727 141.603 22.1409L136.166 9.61555C135.733 8.66991 135.055 7.85788 134.201 7.26447C133.347 6.67107 132.35 6.31811 131.313 6.24255H127.194C127.15 6.24335 127.108 6.25856 127.073 6.28583C127.039 6.31311 127.014 6.35096 127.003 6.39358C127.003 6.43949 127.019 6.48408 127.048 6.5192C127.078 6.55432 127.119 6.57764 127.164 6.58488C128.307 6.6486 129.393 7.09961 130.245 7.8636V24.3158C130.227 24.5874 130.108 24.8422 129.91 25.029C129.712 25.2158 129.45 25.3207 129.178 25.3226H128.876C128.836 25.3132 128.794 25.3194 128.758 25.34C128.723 25.3606 128.696 25.394 128.685 25.4334C128.679 25.4532 128.677 25.4741 128.679 25.4947C128.681 25.5153 128.688 25.5352 128.698 25.5532C128.709 25.5711 128.723 25.5867 128.739 25.599C128.756 25.6113 128.775 25.6201 128.795 25.6247H132.43C132.477 25.6172 132.518 25.5921 132.546 25.5545C132.575 25.5169 132.587 25.4699 132.581 25.4233C132.576 25.3869 132.558 25.3534 132.53 25.3293C132.503 25.3052 132.467 25.2921 132.43 25.2924H132.058C131.775 25.2898 131.505 25.1765 131.306 24.9769C131.106 24.7773 130.993 24.5074 130.99 24.2252V8.57848C131.295 8.92172 131.546 9.30862 131.735 9.7263L137.162 22.2416C137.599 23.1794 138.276 23.9847 139.125 24.5755C139.974 25.1662 140.964 25.5213 141.995 25.6046H142.851C142.851 25.6046 143.415 25.6046 143.415 25.4435V7.62195C143.425 7.34208 143.541 7.07639 143.739 6.87836C143.937 6.68034 144.202 6.56468 144.482 6.55468H144.835C144.88 6.55468 144.924 6.53664 144.956 6.50454C144.988 6.47244 145.006 6.42891 145.006 6.38351C145.006 6.34247 144.99 6.30295 144.962 6.27301C144.934 6.24308 144.896 6.22498 144.855 6.22241" fill="#343649"/>
</g>
<defs>
<clipPath id="clip0_2514_2540">
<rect width="144.052" height="44" fill="white" transform="translate(0.973877)"/>
</clipPath>
</defs>
</svg>
