<svg width="82" height="84" viewBox="0 0 82 84" fill="none" xmlns="http://www.w3.org/2000/svg">
    <g clip-path="url(#clip0_938_1097)">
    <path d="M40.8837 0.10002V0.200039H40.9833H41.0829V0.10002V0H40.9833H40.8837V0.10002Z" fill="white"/>
    <path d="M40.0469 0.29997V0.39999H40.1465H40.2462V0.29997V0.199951H40.1465H40.0469V0.29997Z" fill="white"/>
    <path d="M40.7748 0.409443L40.6712 0.414777V0.51213V0.610816L40.4586 0.62015L40.2461 0.630819V0.728171V0.826858H40.1398H40.0336V0.933546V1.04023H39.8277H39.6218V1.14692V1.25361H39.4093H39.1967V1.3603V1.46699H38.9909H38.7849V1.56701V1.66702H38.688C38.6309 1.66702 38.5844 1.6737 38.5751 1.68303C38.5659 1.69236 38.5592 1.73637 38.5592 1.78972V1.88039H38.3532H38.1474V1.98708V2.09377H37.9349H37.7223V1.99376V1.89373H37.6227H37.5231V1.99376V2.09377H37.6227H37.7223V2.1978V2.30315L37.5802 2.31115C37.5032 2.31649 37.4101 2.32048 37.3742 2.32048H37.3105V2.42051V2.52053H37.2043H37.098V2.61921V2.71789L36.8854 2.72723L36.6729 2.7379V2.83391V2.92994L36.5308 2.93794C36.4538 2.94327 36.3608 2.94728 36.3249 2.94728H36.2612V3.0473V3.14731L33.6549 3.14865C32.2204 3.14998 30.8947 3.15531 30.7087 3.15931L30.37 3.16732L30.366 3.26333L30.362 3.36068H30.265H30.1681L30.1574 3.57406L30.1481 3.78744H30.0499H29.9516V3.99414V4.20085H29.8452H29.7391V4.3142V4.42757H29.6394H29.5398V4.49157C29.5398 4.52759 29.5358 4.62093 29.5305 4.69828L29.5225 4.84097H29.4269H29.3312L29.3206 5.05435L29.3113 5.26772H29.2064H29.1014V5.47443V5.68114H29.0018H28.9021V5.78783V5.89452H28.7959H28.6896V6.10789V6.32126H28.5834H28.4771V6.52797V6.73468H28.3708H28.2646V6.94806V7.16143H28.1583H28.0521V7.26812V7.37481H27.9538H27.8567L27.8461 7.58818L27.8368 7.80155H27.7385H27.6403V7.86557C27.6403 7.90158 27.6363 7.99493 27.631 8.07228L27.623 8.21497H27.4184H27.2152V8.31899V8.42435L27.0731 8.43235C26.996 8.43768 26.903 8.44169 26.8671 8.44169H26.8034V8.5417V8.64172H26.5909H26.3784V8.74841V8.8551H26.272H26.1659V8.95512V9.05514H25.9785C25.8762 9.05514 25.7806 9.06181 25.766 9.06847C25.7448 9.08047 25.7407 9.09781 25.7407 9.17383V9.26451L25.5986 9.27251C25.5215 9.27785 25.4286 9.28185 25.3927 9.28185H25.3289V9.38187V9.48189H25.2227H25.1164V9.58858V9.69526H24.9039H24.6914V9.80195V9.90864H24.4854H24.2796V10.0073V10.106L24.067 10.1153L23.8545 10.126V10.2234V10.3221H23.7483H23.642V10.4287V10.5354H23.4547C23.3523 10.5354 23.2568 10.5421 23.2421 10.5488C23.2209 10.5608 23.217 10.5781 23.217 10.6554V10.7488H23.011H22.8052V10.8555V10.9622H22.6989H22.5925V13.9161V16.8701H22.4863H22.38V17.0834V17.2968H22.2738H22.1675V17.5034V17.7102H22.0612H21.955V17.8169V17.9235H21.8567H21.7597L21.7491 18.1369L21.7398 18.3504H21.6416H21.5432V18.557V18.7636H21.4369H21.3307V18.9771V19.1905H21.2244H21.1181V19.2972V19.4038H21.0199H20.9229L20.9123 19.6172L20.903 19.8306H20.8046H20.7063V19.8945C20.7063 19.9306 20.7024 20.024 20.697 20.1013L20.6891 20.2439H20.5921H20.4951L20.4912 20.3533L20.4872 20.464L20.3849 20.4681L20.2813 20.472V20.6775V20.8841H20.175H20.0688V21.0909V21.2962L19.9731 21.3002C19.8842 21.3042 19.8762 21.3069 19.8682 21.3375C19.8628 21.3562 19.8589 21.4989 19.8576 21.6536L19.8563 21.9377H19.9625H20.0688V22.1511V22.3644H19.9691H19.8695V22.4644V22.5645H19.9691H20.0688V22.4644V22.3644H20.175H20.2813V22.4711V22.5778H20.3796H20.4779L20.4872 22.7912L20.4978 23.0046H20.5934H20.6891L20.697 23.1472C20.7024 23.2246 20.7063 23.318 20.7063 23.354V23.418H20.8033H20.9016L20.9096 23.5606C20.9149 23.638 20.9189 23.7314 20.9189 23.7674V23.8314H21.0186H21.1181V23.9447V24.058H21.2244H21.3307V24.2648V24.4715H21.4369H21.5432V24.6848V24.8983H21.6401H21.7384L21.7464 25.0409C21.7518 25.1183 21.7557 25.2117 21.7557 25.2477V25.3117H21.8554H21.955V25.409C21.955 25.4663 21.9617 25.5131 21.971 25.5224C21.9803 25.5318 22.024 25.5383 22.0772 25.5383H22.1675V25.7451V25.9518H22.2738H22.38V26.1585V26.3652H22.4863H22.5925V29.3258V32.2863H22.6989H22.8052V32.3864V32.4864H22.8689C22.9048 32.4864 22.9978 32.4904 23.0748 32.4957L23.217 32.5038V32.5997V32.6958L23.4295 32.7065L23.642 32.7158V32.8145V32.9131H23.7483H23.8545V33.0198V33.1266H24.067H24.2796V33.2332V33.3399H24.4854H24.6914V33.4465V33.5533H24.8043H24.9171V33.6533V33.7533H24.9809C25.0168 33.7533 25.1097 33.7573 25.1869 33.7627L25.3289 33.7707V33.8693V33.9667H25.5349H25.7407V34.0734V34.18H25.9532H26.1659V34.2868V34.3934H26.272H26.3784V34.4921V34.5895L26.5909 34.6002L26.8034 34.6095V34.7148V34.8202H27.0093H27.2152V34.9202V35.0203H27.2789C27.3148 35.0203 27.4065 35.0242 27.4835 35.0282L27.6243 35.0375L27.6336 35.2417L27.6429 35.447H27.7398H27.8368L27.8461 35.6603L27.8567 35.8737H27.9525H28.048L28.056 36.0164C28.0614 36.0937 28.0653 36.1871 28.0653 36.2231V36.2871H28.165H28.2646V36.3938V36.5006H28.3708H28.4771V36.7139V36.9273H28.5834H28.6896V37.1339V37.3394L28.7932 37.3433L28.8956 37.3474L28.8995 37.5567L28.9036 37.7674H29.0018H29.1014V37.8741V37.9809H29.2077H29.3139V38.1688C29.3139 38.2715 29.3206 38.3676 29.3273 38.3822C29.3392 38.4036 29.3565 38.4076 29.4321 38.4076H29.5225L29.5305 38.5502C29.5358 38.6276 29.5398 38.721 29.5398 38.757V38.821H29.6394H29.7391V38.9277V39.0343H29.8452H29.9516V39.2477V39.4612H30.0499H30.1481L30.1574 39.6745L30.1681 39.8879H30.265H30.3633V39.9879V40.0879L33.3096 40.0906L36.2545 40.0945L36.2585 40.1973L36.2625 40.3013H36.467H36.6729V40.408V40.5146H36.8854H37.098V40.6214V40.728H37.2043H37.3105V40.828V40.928H37.3742C37.4101 40.928 37.5032 40.9321 37.5802 40.9374L37.7223 40.9454V41.0414V41.1374L37.9349 41.1481L38.1474 41.1574V41.2561V41.3549H38.3532H38.5592V41.4615V41.5682H38.672H38.7849V41.6748V41.7816H38.9909H39.1967V41.8883V41.9949H39.4027H39.6085V42.0882C39.6085 42.1763 39.6099 42.183 39.6431 42.195C39.6616 42.203 39.7574 42.2083 39.8556 42.2083H40.0336V42.3083V42.4083H40.1398H40.2461V42.5151V42.6217H40.4586H40.6712V42.7284V42.8352H40.99H41.3088V42.7284V42.6217H41.5148H41.7206V42.5244V42.4257L41.8628 42.4177C41.9398 42.4124 42.0327 42.4083 42.0686 42.4083H42.1324V42.3083V42.2083H42.2452H42.3582V42.1017V41.9949H42.5641H42.77V41.8883V41.7816H42.9825H43.195V41.6748V41.5682H43.401H43.6068V41.4615V41.3549H43.7197H43.8327V41.2575V41.1587L43.9748 41.1507C44.0519 41.1455 44.1448 41.1414 44.1807 41.1414H44.2445V41.0428V40.9441L44.457 40.9347L44.6695 40.9241V40.8267V40.728H44.7758H44.882V40.6214V40.5146H45.088H45.2938V40.408V40.3013H45.5063H45.7189V40.1945V40.0879H48.6611H51.6034V39.9812V39.8746H51.7097H51.8159V39.6678V39.4612H51.9222H52.0285V39.3477V39.2344H52.128H52.2277V39.1704C52.2277 39.1344 52.2317 39.041 52.237 38.9636L52.245 38.821H52.3433H52.4403V38.757C52.4403 38.721 52.4442 38.6276 52.4496 38.5502L52.4575 38.4076H52.5558H52.6528V38.1942V37.9809H52.759H52.8653V37.8741V37.7674H52.9636H53.0605L53.0712 37.554L53.0804 37.3407H53.1855H53.2903V37.1339V36.9273H53.3966H53.503V36.7139V36.5006H53.6025H53.7008L53.7049 36.3965L53.7088 36.2938L53.8124 36.2899L53.9148 36.2858V36.0805V35.8737H54.0209H54.1273V35.6603V35.447H54.2335H54.3398V35.243V35.0375L54.4818 35.0296C54.559 35.0242 54.6519 35.0203 54.6878 35.0203H54.7516V34.9202V34.8202H54.9641H55.1766V34.7135V34.6069H55.3825H55.5884V34.5001V34.3934H55.7014H55.8142V34.2868V34.18H56.0201H56.226V34.0734V33.9667H56.4385H56.651V33.8667V33.7666H56.7573H56.8637V33.66V33.5533H57.0695H57.2753V33.4465V33.3399H57.4879H57.7005V33.2332V33.1266H57.9063H58.1122V33.0198V32.9131H58.2251H58.3381V32.8158V32.7171L58.4802 32.7091C58.5572 32.7038 58.6502 32.6998 58.6861 32.6998H58.7498V32.601V32.5024L58.9624 32.4931L59.1749 32.4825V32.3851V32.2877L59.2718 32.2837L59.3675 32.2796L59.3755 31.9397C59.3794 31.7529 59.3848 30.4219 59.3861 28.9817L59.3874 26.3652H59.4871H59.5867V26.3012C59.5867 26.2651 59.5906 26.1718 59.596 26.0945L59.604 25.9518H59.7022H59.7992V25.7451V25.5383H59.9055H60.0117V25.425V25.3117H60.118H60.2242V25.1049V24.8983H60.3305H60.4368V24.6848V24.4715H60.543H60.6494V24.3648V24.2581H60.749H60.8486V24.0515V23.8447H60.9548H61.0611V23.6313V23.418H61.1673H61.2737V23.2112V23.0046H61.38H61.4862V22.8911V22.7778H61.5858H61.6854V22.7138C61.6854 22.6778 61.6894 22.5845 61.6947 22.5072L61.7027 22.3644H61.7983H61.894L61.9046 22.1511L61.9139 21.9377H62.0109H62.1065L62.1132 21.7803C62.1171 21.6949 62.1171 21.551 62.1132 21.4603L62.1065 21.2975H62.0109H61.9152L61.9072 21.1549C61.902 21.0775 61.898 20.9841 61.898 20.9481V20.8841H61.8011H61.7027L61.6947 20.7415C61.6894 20.6641 61.6854 20.5707 61.6854 20.5347V20.4707H61.5858H61.4862V20.3574V20.2439H61.38H61.2737V20.0306V19.8172H61.1673H61.0611V19.6106V19.4038H60.9548H60.8486V19.1972V18.9904H60.749H60.6494V18.8931C60.6494 18.8357 60.6427 18.789 60.6334 18.7797C60.6241 18.7704 60.5802 18.7636 60.5272 18.7636H60.4368V18.557V18.3504H60.3305H60.2242V18.1436V17.9369H60.118H60.0117V17.8235V17.7102H59.9055H59.7992V17.5034V17.2968H59.7009H59.6027L59.5934 17.0834L59.5826 16.8701H59.4857H59.3874V13.9161V10.9622H59.2811H59.1749V10.8555V10.7488H58.9624H58.7498V10.6421V10.5354H58.5439H58.3381V10.4447C58.3381 10.3914 58.3314 10.3474 58.3221 10.3381C58.3128 10.3287 58.2664 10.3221 58.2091 10.3221H58.1122V10.222V10.122H58.0485C58.0126 10.122 57.9196 10.118 57.8425 10.1127L57.7005 10.1047V10.006V9.90864H57.4879H57.2753V9.80195V9.69526H57.0695H56.8637V9.58858V9.48189H56.7573H56.651V9.3752V9.26852H56.4385H56.226V9.16183V9.05514H56.0201H55.8142V8.95512V8.85644L55.7053 8.85243L55.595 8.84843L55.5911 8.74441L55.5871 8.64172H55.3825H55.1766V8.53504V8.42835H54.9707H54.7648V8.33499C54.7648 8.24698 54.7635 8.24032 54.7303 8.2283C54.7117 8.22031 54.616 8.21497 54.5177 8.21497H54.3398V8.00826V7.80155H54.2335H54.1273V7.58818V7.37481H54.0209H53.9148V7.1681V6.96273L53.8124 6.95873L53.7088 6.95472L53.7049 6.84404L53.7008 6.73468H53.6025H53.503V6.52797V6.32126H53.398H53.2931L53.2838 6.10789L53.2731 5.89452H53.1762H53.0778V5.78783V5.68114H52.9716H52.8653V5.46777V5.25439H52.759H52.6528V5.04768V4.84097H52.5558H52.4575L52.4496 4.69828C52.4442 4.62093 52.4403 4.52759 52.4403 4.49157V4.42757H52.3407H52.241V4.33021C52.241 4.27286 52.2343 4.22619 52.2251 4.21686C52.2158 4.20752 52.1719 4.20085 52.1187 4.20085H52.0285V3.99414V3.78744H51.9222H51.8159V3.5994C51.8159 3.49671 51.8093 3.4007 51.8027 3.38603C51.7907 3.36469 51.7735 3.36068 51.6963 3.36068H51.6034V3.254V3.14731H48.6611H45.7189V3.04863V2.95127L45.5063 2.9406L45.2938 2.93127V2.83258V2.7339H45.23C45.1941 2.7339 45.1012 2.72989 45.0242 2.72457L44.882 2.71656V2.61787V2.52053H44.7758H44.6695V2.41384V2.30715H44.457H44.2445V2.20045V2.09377H44.0385H43.8327V2.00042C43.8327 1.9124 43.8314 1.90574 43.7981 1.89373C43.7795 1.88573 43.6838 1.88039 43.5856 1.88039H43.4075V1.78972C43.4075 1.73637 43.401 1.69236 43.3916 1.68303C43.3823 1.6737 43.3385 1.66702 43.2854 1.66702H43.195V1.56701V1.46699H42.9825H42.77V1.3603V1.25361H42.5641H42.3582V1.14692V1.04023H42.2452H42.1324V0.940213V0.840194H42.0686C42.0327 0.840194 41.9398 0.836193 41.8628 0.830858L41.7206 0.822857V0.724171V0.626819H41.6568C41.6209 0.626819 41.528 0.622817 41.451 0.617483L41.3088 0.609481V0.510796V0.413443H41.2517C41.2198 0.413443 41.1229 0.410776 41.0352 0.408109C40.9489 0.405442 40.8306 0.405442 40.7748 0.409443ZM41.3062 2.62988L41.3101 2.7339H41.5148H41.7206V2.84059V2.94728H41.9331H42.1456V3.05396V3.16065H42.3516H42.5574V3.26734V3.37403H42.6637H42.77V3.47271V3.57006L42.9825 3.58073L43.195 3.59007V3.68875V3.78744H43.401H43.6068V3.89413V4.00082H43.7197H43.8327V4.10083V4.20085H43.8964C43.9323 4.20085 44.0253 4.20485 44.1023 4.21018L44.2445 4.21819V4.31554V4.4129L44.348 4.41689L44.4503 4.42089V4.52759V4.63428L44.348 4.63827L44.2445 4.64227V4.84765V5.05435H44.1382H44.0318V5.26106V5.46777H43.9256H43.8193V5.68114V5.89452H43.7131H43.6068V6.0012V6.10789H43.5085H43.4116L43.401 6.32126L43.3916 6.53464H43.2934H43.195V6.59866C43.195 6.63466 43.1911 6.72802 43.1857 6.80537L43.1778 6.94806H43.0794H42.9825V7.16143V7.37481H42.8762H42.77V7.48149V7.58818H42.6704H42.5707V7.6522C42.5707 7.6882 42.5667 7.78156 42.5628 7.85891L42.5535 8.00026L42.4592 8.00427L42.3648 8.00826V8.42835V8.84843L42.4592 8.85243L42.5535 8.85644L42.5628 8.99779C42.5667 9.07514 42.5707 9.16849 42.5707 9.2045V9.26852H42.6704H42.77V9.38187V9.49522H42.8762H42.9825V9.70193V9.90864H43.0809H43.1791L43.1884 10.122L43.199 10.3354H43.2947H43.3903L43.3983 10.4781C43.4036 10.5554 43.4075 10.6488 43.4075 10.6848V10.7488H43.5072H43.6068V10.8462C43.6068 10.9035 43.6135 10.9502 43.6228 10.9595C43.6321 10.9688 43.676 10.9755 43.729 10.9755H43.8193V11.1822V11.3889H43.9256H44.0318V11.5956V11.8023H44.1382H44.2445V11.9157V12.0291H44.3414H44.4397L44.4477 12.1718C44.4529 12.2491 44.457 12.3424 44.457 12.3785V12.4425H44.5566H44.6563V12.5492V12.6558H44.5566H44.457V12.7545V12.8533L44.2445 12.8626L44.0318 12.8732V12.9705V13.0692H43.9256H43.8193V13.176V13.2826H43.6321C43.5298 13.2826 43.4341 13.2893 43.4196 13.296C43.3982 13.308 43.3943 13.3253 43.3943 13.4026V13.4961H43.1884H42.9825V13.6027V13.7094H42.8762H42.77V13.8094V13.9095H42.5827C42.4804 13.9095 42.3848 13.9161 42.3702 13.9228C42.3489 13.9347 42.3449 13.9521 42.3449 14.0295V14.1228H42.139H41.9331V14.2294V14.3362H41.7459C41.6436 14.3362 41.5479 14.3429 41.5333 14.3495C41.512 14.3615 41.5081 14.3789 41.5081 14.4562V14.5495H41.3021H41.0963V14.6563V14.7629H40.9834H40.8704V14.6563V14.5495H40.6646H40.4586V14.4429V14.3362H40.2528H40.0469V14.2294V14.1228H39.8343H39.6218V14.0161V13.9095H39.5155H39.4093V13.8094V13.7107L39.2008 13.7067L38.9909 13.7027L38.9869 13.5987L38.9829 13.4961H38.7784H38.5724V13.3893V13.2826H38.3666H38.1606V13.1919C38.1606 13.1386 38.1541 13.0946 38.1448 13.0853C38.1355 13.0759 38.0889 13.0692 38.0318 13.0692H37.9349V12.9626V12.8559H37.7289H37.5231V12.7559V12.6558H37.4168H37.3105V12.5492V12.4425H37.4168H37.5231V12.3357V12.2291H37.6213H37.7183L37.7289 12.0158L37.7382 11.8023H37.8366H37.9349V11.7383C37.9349 11.7023 37.9388 11.609 37.9442 11.5316L37.9522 11.3889H38.0504H38.1474V11.3249C38.1474 11.2889 38.1513 11.1956 38.1567 11.1182L38.1647 10.9755H38.2629H38.3599V10.8622V10.7488H38.4595H38.5592V10.6848C38.5592 10.6488 38.5631 10.5554 38.5685 10.4781L38.5765 10.3354H38.6681C38.7531 10.3354 38.7598 10.3327 38.7717 10.3007C38.7797 10.282 38.7849 10.186 38.7849 10.0873V9.90864H38.8912H38.9975V9.70193V9.49522H39.0879C39.1409 9.49522 39.1848 9.48855 39.1941 9.47922C39.2034 9.46989 39.2101 9.42321 39.2101 9.36587V9.26852H39.3097H39.4093V9.06181V8.8551H39.5155H39.6218V8.42835V8.0016H39.5248H39.4266L39.4186 7.85891C39.4133 7.78156 39.4093 7.6882 39.4093 7.6522V7.58818H39.3097H39.2101V7.48149V7.37481H39.1037H38.9975V7.16143V6.94806H38.8912H38.7849V6.74135V6.53464H38.6787H38.5724V6.32126V6.10789H38.4662H38.3599V6.0012V5.89452H38.2616H38.1634L38.1541 5.68114L38.1433 5.46777H38.0478H37.9522L37.9442 5.32507C37.9388 5.24773 37.9349 5.15437 37.9349 5.11837V5.05435H37.8379H37.7395L37.7315 4.91166C37.7263 4.83431 37.7223 4.74096 37.7223 4.70495V4.64094H37.6227H37.5231V4.52759V4.41423H37.6227H37.7223V4.31554V4.21686L37.9349 4.20752L38.1474 4.19685V4.0995V4.00082H38.2536H38.3599V3.89413V3.78744H38.5724H38.7849V3.69009V3.5914L38.9271 3.5834C39.0041 3.57807 39.0972 3.57406 39.1329 3.57406H39.1967V3.47405V3.37403H39.2937C39.3508 3.37403 39.3973 3.36736 39.4066 3.35802C39.4159 3.34868 39.4226 3.30467 39.4226 3.25133V3.16065H39.6285H39.8343V3.05396V2.94728H40.0217C40.124 2.94728 40.2196 2.9406 40.2342 2.93393C40.2554 2.92193 40.2594 2.90459 40.2594 2.82725V2.7339H40.4653H40.6712V2.62722V2.52053L40.9874 2.5232L41.3021 2.52719L41.3062 2.62988ZM35.836 5.16104V5.26772H35.9343H36.0327L36.042 5.48111L36.0526 5.69448H36.1483H36.2439L36.2519 5.83718C36.2571 5.91452 36.2612 6.00787 36.2612 6.04389V6.10789H36.3595H36.4577L36.467 6.32126L36.4777 6.53464H36.5746H36.6729V6.64133V6.74801H36.7791H36.8854V6.95472V7.16143H36.9918H37.098V7.37481V7.58818H37.2043H37.3105V7.79489V8.0016H37.4101H37.5097V8.11495V8.2283H37.6161H37.7223V8.43501V8.64172H37.6161H37.5097V8.74841V8.8551H37.4101H37.3105V9.06181V9.26852H37.2043H37.098V9.48189V9.69526H36.9918H36.8854V9.90197V10.1087H36.7791H36.6729V10.222V10.3354H36.5666H36.4604V10.5421V10.7488H36.3621H36.2651L36.2545 10.9622L36.2452 11.1756H36.1469H36.0486V11.2822V11.3889H35.9423H35.836V11.5956V11.8023H35.7298H35.6235V12.0158V12.2291H33.5248H31.426V12.1224V12.0158H31.3197H31.2135V11.809V11.6036L31.1112 11.5996L31.0075 11.5956L31.0036 11.4849L30.9996 11.3756H30.9027H30.8056L30.7977 11.2329C30.7924 11.1555 30.7884 11.0622 30.7884 11.0262V10.9622H30.6915H30.5931L30.5852 10.8195C30.5799 10.7421 30.5759 10.6488 30.5759 10.6128V10.5488H30.4775H30.3793L30.37 10.3354L30.3593 10.122H30.2624H30.1641V10.0153V9.90864H30.0579H29.9516V9.69526V9.48189H29.8452H29.7391V9.27518V9.06847H29.6394H29.5398V8.97112C29.5398 8.91378 29.5331 8.8671 29.5238 8.85777C29.5145 8.84843 29.4706 8.84177 29.4176 8.84177H29.3273V8.63506V8.42835H29.4335H29.5398V8.22164V8.01493H29.6381H29.735L29.7456 7.80155L29.7549 7.58818H29.8532H29.9516V7.48149V7.37481H30.0579H30.1641V7.1681V6.9614H30.257C30.3448 6.9614 30.3514 6.96006 30.3633 6.92672C30.3713 6.90806 30.3766 6.81203 30.3766 6.71335V6.53464H30.4829H30.5892V6.42795V6.32126H30.6874H30.7844L30.795 6.10789L30.8043 5.89452H30.9027H31.001V5.83051C31.001 5.79449 31.0049 5.70115 31.0103 5.6238L31.0182 5.48111H31.1165H31.2135V5.36774V5.25439H31.3131H31.4128V5.15437V5.05435H33.6244H35.836V5.16104ZM50.7599 5.26772L50.7705 5.48111H50.8675H50.9658V5.68781V5.89452H51.0707H51.1756L51.1849 6.10789L51.1956 6.32126H51.2925H51.3909V6.42795V6.53464H51.4972H51.6034V6.74135V6.94806H51.7017H51.8L51.8093 7.16143L51.8199 7.37481H51.9168H52.0152V7.48149V7.58818H52.1215H52.2277V7.80155V8.01493H52.334H52.4403V8.22164V8.42835H52.5465H52.6528V8.63506V8.84177H52.5625C52.5093 8.84177 52.4654 8.84843 52.4562 8.85777C52.4469 8.8671 52.4403 8.91378 52.4403 8.97112V9.06847H52.334H52.2277V9.27518V9.48189H52.1295H52.0324L52.0218 9.69526L52.0125 9.90864H51.9142H51.8159V9.97266C51.8159 10.0087 51.812 10.102 51.8066 10.1794L51.7986 10.3221H51.7017H51.6047L51.6008 10.4314L51.5967 10.5421L51.4944 10.5461L51.3909 10.5501V10.7555V10.9622H51.2846H51.1784V11.1689V11.3756H51.0854C50.9977 11.3756 50.991 11.3769 50.9791 11.4103C50.9711 11.4289 50.9658 11.525 50.9658 11.6236V11.8023H50.8595H50.7532V11.909V12.0158H50.6536H50.5541V12.1224V12.2291H48.4566H46.3592L46.3499 12.0158L46.3392 11.8023H46.2423H46.1439V11.5956V11.3889H46.0376H45.9314V11.2916C45.9314 11.2342 45.9248 11.1876 45.9155 11.1782C45.9062 11.1689 45.8623 11.1622 45.8091 11.1622H45.7189V10.9555V10.7488H45.6126H45.5063V10.5421V10.3367L45.404 10.3327L45.3005 10.3287L45.2964 10.118L45.2925 9.90864H45.1941H45.0945V9.80195V9.69526H44.9883H44.882V9.48189V9.26852H44.7758H44.6695V9.06181V8.8551H44.5659H44.4609L44.4529 8.7124C44.4477 8.63506 44.4436 8.5417 44.4436 8.5057V8.44169H44.344H44.2445V8.33499V8.2283H44.3507H44.457V8.11495V8.0016H44.5632H44.6695V7.79489V7.58818H44.7758H44.882V7.38147V7.17477H44.9723C45.0255 7.17477 45.0694 7.1681 45.0787 7.15876C45.088 7.14943 45.0945 7.10275 45.0945 7.04541V6.94806H45.1941H45.2938V6.74135V6.53464H45.4001H45.5063V6.32126V6.10789H45.6126H45.7189V5.90118V5.69448H45.8251H45.9314V5.5878V5.48111H46.0298H46.1267L46.1373 5.26772L46.1466 5.05435H48.4486H50.7506L50.7599 5.26772ZM28.0653 10.0153V10.122H28.165H28.2646V10.3287V10.5354H28.3708H28.4771V10.6488V10.7621H28.5834H28.6896V10.9688V11.1756H28.7959H28.9021V11.3889V11.6023H28.9991H29.0975L29.1055 11.745C29.1107 11.8223 29.1148 11.9157 29.1148 11.9517V12.0158H29.2143H29.3139V12.1224V12.2291H29.4202H29.5265V12.4425V12.6558H29.6327H29.7391V12.8626V13.0692H29.8452H29.9516V13.1826V13.296H30.0512H30.1508V13.4774C30.1508 13.576 30.1574 13.6693 30.1641 13.684C30.176 13.7053 30.1933 13.7094 30.2704 13.7094H30.3633V13.816V13.9228H32.7809H35.1985V16.0298V18.1369H34.9925H34.7867V18.2436V18.3504H34.5807H34.3762L34.3723 18.453L34.3682 18.557L34.2593 18.5609L34.1491 18.565V18.6623V18.7597L34.007 18.7677C33.9299 18.7731 33.8369 18.7771 33.801 18.7771H33.7373V18.8758V18.9744L33.5248 18.9837L33.3122 18.9945V19.0904V19.1864L33.1701 19.1944C33.0931 19.1998 33.0001 19.2038 32.9642 19.2038H32.9005V19.3038V19.4038H32.7876H32.6746V19.5106V19.6172H32.4688H32.2628V19.7159V19.8146L32.0503 19.8239L31.8378 19.8346V19.9306V20.0266L31.6956 20.0347C31.6186 20.0399 31.5257 20.044 31.4898 20.044H31.426V20.144V20.2439H31.3197H31.2135V20.1373V20.0306H31.1165H31.0182L31.0103 19.888C31.0049 19.8105 31.001 19.7172 31.001 19.6812V19.6172H30.9027H30.8043L30.795 19.4038L30.7844 19.1905H30.6887H30.5931L30.5852 19.0477C30.5799 18.9704 30.5759 18.8771 30.5759 18.8411V18.7771H30.4762H30.3766V18.6703V18.5637H30.2704H30.1641V18.3504V18.1369H30.0579H29.9516V17.9302V17.7248L29.8493 17.7208L29.7456 17.7169L29.7417 17.6062L29.7377 17.4968H29.6394H29.5398V17.2901V17.0834H29.4335H29.3273V16.8701V16.6566H29.1148H28.9021V16.5566V16.4566H26.6998H24.4961L24.4881 15.3337C24.4762 13.9067 24.4762 12.7758 24.4881 12.2385L24.4961 11.8157H24.7007H24.9039V11.709V11.6023H25.1164H25.3289V11.4956V11.3889H25.5349H25.7407V11.2822V11.1756H25.8536H25.9666V11.0782V10.9795L26.1086 10.9715C26.1858 10.9662 26.2787 10.9622 26.3146 10.9622H26.3784V10.8635V10.7648L26.5909 10.7555L26.8034 10.7448V10.6488V10.5528L26.9456 10.5448C27.0226 10.5394 27.1155 10.5354 27.1514 10.5354H27.2152V10.4354V10.3354H27.3215H27.4277V10.2287V10.122H27.6403H27.8528V10.0153V9.90864H27.959H28.0653V10.0153ZM54.1273 10.0153V10.122H54.3331H54.539V10.2287V10.3354H54.7516H54.9641V10.4421V10.5488H55.0704H55.1766V10.6488V10.7488H55.2403C55.2762 10.7488 55.3692 10.7528 55.4463 10.7581L55.5884 10.7661V10.8622V10.9582L55.8009 10.9688L56.0135 10.9782V11.0769V11.1756H56.1197H56.226V11.2822V11.3889H56.4385H56.651V11.4956V11.6023H56.857H57.0628V11.709V11.8157H57.2753H57.4879V13.816V15.8165H55.0704H52.6528V16.0298V16.2432H52.5465H52.4403V16.4499V16.6566H52.334H52.2277V16.8701V17.0834H52.1215H52.0152V17.19V17.2968H51.9155H51.8159V17.3608C51.8159 17.3968 51.812 17.4901 51.8066 17.5674L51.7986 17.7102H51.703H51.6074L51.5967 17.9235L51.5874 18.1369H51.4892H51.3909V18.3437V18.5503H51.2846H51.1784V18.6637V18.7771H51.072H50.9658V18.9837V19.1905H50.8675H50.7705L50.7599 19.4038L50.7506 19.6172H50.6523H50.5554L50.5513 19.7198L50.5474 19.8239L50.4451 19.8279L50.3414 19.832V19.9306V20.0306H50.2352H50.1289V19.9306V19.8306H50.0652C50.0293 19.8306 49.9363 19.8266 49.8593 19.8213L49.7171 19.8133V19.7146V19.6172H49.5046H49.2921V19.5106V19.4038H49.1858H49.0796V19.2972V19.1905H48.8737H48.6678V19.0971C48.6678 19.0091 48.6664 19.0024 48.6333 18.9904C48.6147 18.9824 48.519 18.9771 48.4207 18.9771H48.2427V18.8704V18.7636H48.0302H47.8177V18.6637V18.565L47.7154 18.5609L47.6117 18.557L47.6078 18.453L47.6037 18.3504H47.3992H47.1934V18.2436V18.1369H46.9807H46.7682V16.0298V13.9228H49.1858H51.6034V13.816V13.7094H51.7097H51.8159V13.5026V13.296H51.9222H52.0285V13.1826V13.0692H52.1347H52.241V12.8626V12.6558H52.3407H52.4389L52.4429 12.5451L52.4469 12.4358L52.5505 12.4318L52.6528 12.4278V12.2224V12.0158H52.759H52.8653V11.809V11.6023H52.9716H53.0778V11.3889V11.1756H53.1841H53.2903V11.0689V10.9622H53.39H53.4896V10.8982C53.4896 10.8622 53.4937 10.7688 53.4989 10.6915L53.5069 10.5488H53.6025H53.6982L53.7088 10.3354L53.7181 10.122H53.8164H53.9148V10.0153V9.90864H54.0209H54.1273V10.0153ZM37.098 14.6563V14.7629H37.3105H37.5231V14.8696V14.9764H37.7289H37.9349V15.083V15.1897H38.1474H38.3599V15.2963V15.4031H38.5659H38.7717V15.5098V15.6164H38.878H38.9842V15.7164V15.8165H39.1967H39.4093V15.9232V16.0298H39.6152H39.8211V16.1366V16.2432H40.0336H40.2461V16.3499V16.4566H40.3524H40.4586V16.5552V16.6526L40.6712 16.6633L40.8838 16.6726V16.778V16.8833H40.9741C41.0272 16.8833 41.071 16.8766 41.0803 16.8673C41.0896 16.858 41.0963 16.8139 41.0963 16.7607V16.67H41.3021H41.5081V16.5646V16.4593L41.7206 16.4499L41.9331 16.4393V16.3419V16.2432H42.0394H42.1456V16.1366V16.0298H42.3582H42.5707V15.9325V15.8338L42.7128 15.8258C42.7899 15.8204 42.8829 15.8165 42.9188 15.8165H42.9825V15.7191V15.6205L43.1246 15.6125C43.2017 15.6071 43.2947 15.6031 43.3306 15.6031H43.3943V15.5031V15.4031H43.5072H43.6201V15.2963V15.1897H43.826H44.0318V15.083V14.9764H44.2445H44.457V14.8696V14.7629H44.5632H44.6695V14.6656V14.5669L44.8117 14.5589C44.8887 14.5536 44.9816 14.5495 45.0175 14.5495H45.0813V16.8686V19.1864L45.2938 19.1972L45.5063 19.2065V19.3051V19.4038H45.5701C45.6059 19.4038 45.6989 19.4079 45.776 19.4132L45.9181 19.4212V19.5199V19.6172H46.0311H46.1439V19.7239V19.8306H46.3499H46.5557V19.9373V20.044H46.7616H46.9675V20.1347C46.9675 20.1879 46.9742 20.232 46.9835 20.2413C46.9928 20.2506 47.0393 20.2573 47.0964 20.2573H47.1934V20.3574V20.4574H47.2571C47.2929 20.4574 47.386 20.4614 47.463 20.4667L47.6052 20.4748V20.5707V20.6667L47.8177 20.6775L48.0302 20.6868V20.7854V20.8841H48.236H48.442V20.9908V21.0975H48.5548H48.6678V21.3042V21.5109H48.5548H48.442V21.6176V21.7242H48.236H48.0302V21.831V21.9377H47.8177H47.6052V22.0443V22.1511H47.4988H47.3925V22.2498V22.3484L47.18 22.3577L46.9675 22.3685V22.4658V22.5645H46.7616H46.5557V22.6711V22.7778H46.3499H46.1439V22.8846V22.9912H46.0311H45.9181V23.0979V23.2045H45.7122H45.5063V23.3032V23.402L45.2938 23.4113L45.0813 23.4219V25.9465V28.4722H44.9816H44.882V28.3723V28.2736L44.7731 28.2695L44.6628 28.2656L44.6589 28.1616L44.6548 28.0588H44.4503H44.2445V27.9522V27.8455H44.0385H43.8327V27.7521C43.8327 27.6642 43.8314 27.6575 43.7981 27.6454C43.7795 27.6375 43.6838 27.6321 43.5856 27.6321H43.4075V27.5254V27.4188H43.3014H43.195V27.32V27.2226L42.9825 27.212L42.77 27.2027V27.1041V27.0053H42.7063C42.6704 27.0053 42.5774 27.0013 42.5003 26.996L42.3582 26.988V26.8893V26.792H42.1456H41.9331V26.6853V26.5785H41.8269H41.7206V26.4719V26.3652H41.5148H41.3101L41.3062 26.2692C41.3021 26.1798 41.2995 26.1718 41.269 26.1638C41.2504 26.1585 41.1082 26.1545 40.9541 26.1531L40.6712 26.1518V26.2558V26.3612L40.5291 26.3692C40.4521 26.3745 40.359 26.3786 40.3231 26.3786H40.2594V26.4786V26.5785H40.1465H40.0336V26.6853V26.792H39.8277H39.6231L39.6192 26.8947L39.6152 26.9986L39.4066 27.0027L39.1967 27.0067V27.1041V27.2013L39.0546 27.2094C38.9776 27.2147 38.8846 27.2187 38.8487 27.2187H38.7849V27.3187V27.4188H38.688C38.6309 27.4188 38.5844 27.4255 38.5751 27.4348C38.5659 27.4441 38.5592 27.488 38.5592 27.5414V27.6321H38.3532H38.1474V27.7388V27.8455H37.9414H37.7356V27.9522V28.0588H37.6227H37.5097V28.1562V28.2549L37.3677 28.2629C37.2906 28.2682 37.1976 28.2723 37.1617 28.2723H37.098V28.3723V28.4722H36.9918H36.8854V26.3652V24.2581H36.7791H36.6729V24.1581V24.058H36.6092C36.5733 24.058 36.4803 24.0541 36.4032 24.0487L36.2612 24.0407V23.9487C36.2612 23.8634 36.2585 23.8567 36.2266 23.8447C36.208 23.8367 36.1124 23.8314 36.0141 23.8314H35.836V23.7247V23.6179H35.6302H35.4243V23.518V23.4193L35.3154 23.4152L35.2052 23.4113L35.2011 23.3073L35.1972 23.2045H34.9925H34.7867V23.0979V22.9912H34.5742H34.3616V22.8846V22.7778H34.1557H33.9499V22.6711V22.5645H33.8436H33.7373V22.4658V22.3685L33.5248 22.3577L33.3122 22.3484V22.2498V22.1511H33.2485C33.2126 22.1511 33.1196 22.147 33.0425 22.1417L32.9005 22.1337V22.035V21.9377H32.688H32.4754V21.7336V21.5282L32.6175 21.5202C32.6945 21.5149 32.7876 21.5109 32.8235 21.5109H32.8871V21.4123V21.3136L33.0997 21.3042L33.3122 21.2936V21.1962V21.0975H33.4186H33.5248V20.9908V20.8841H33.7373H33.9499V20.7775V20.6708H34.1557H34.3616V20.572V20.4733L34.5742 20.464L34.7867 20.4533V20.3561V20.2573H34.893H34.9992V20.1506V20.044H35.2117H35.4243V19.9373V19.8306H35.6302H35.836V19.7239V19.6172H36.042H36.2465L36.2505 19.5132L36.2545 19.4105L36.3647 19.4065L36.4737 19.4025V19.3038V19.2038H36.6796H36.8854V16.8766V14.5495H36.9918H37.098V14.6563ZM57.8997 17.7169V17.9235H58.0059H58.1122V18.1369V18.3504H58.2158H58.3208L58.3287 18.493C58.334 18.5703 58.3381 18.6637 58.3381 18.6998V18.7636H58.4376H58.5373V18.8771V18.9904H58.6343H58.7326L58.7405 19.1332C58.7458 19.2105 58.7498 19.3038 58.7498 19.3398V19.4038H58.8481H58.9464L58.9557 19.6172L58.9663 19.8306H59.0634H59.1616V19.9373V20.044H59.2679H59.3742V20.232C59.3742 20.3346 59.3807 20.4307 59.3874 20.4453C59.3993 20.4667 59.4166 20.4707 59.4937 20.4707H59.5867V20.6775V20.8841H59.6929H59.7992V21.0909V21.2962L59.9028 21.3002L60.0052 21.3042L60.0091 21.4136L60.013 21.5243H60.1114H60.211V21.6243V21.7242H60.1114H60.0117V21.7882C60.0117 21.8243 60.0078 21.9177 60.0024 21.995L59.9944 22.1376H59.8962H59.7992V22.2511V22.3644H59.6929H59.5867V22.5712V22.7778H59.4804H59.3742V22.9912V23.2045H59.2679H59.1616V23.3113V23.418H59.0634H58.9663L58.9557 23.6313L58.9464 23.8447H58.8481H58.7498V24.0515V24.2581H58.6436H58.5373V24.4649V24.6715H58.4311H58.3248V24.8849V25.0982H56.0215H53.7181L53.7088 24.8849L53.6982 24.6715H53.6025H53.5069L53.4989 24.5289C53.4937 24.4515 53.4896 24.3581 53.4896 24.3221V24.2581H53.3927H53.2944L53.2864 24.1155C53.281 24.0381 53.2771 23.9447 53.2771 23.9087V23.8447H53.1775H53.0778V23.7314V23.6179H52.9716H52.8653V23.4113V23.2045H52.759H52.6528V22.9912V22.7778H52.5558H52.4575L52.4496 22.6352C52.4442 22.5578 52.4403 22.4644 52.4403 22.4284V22.3644H52.3407H52.241V22.2577V22.1511H52.1347H52.0285V21.9377V21.7242H51.9222H51.8159V21.3042V20.8841H51.9222H52.0285V20.6775V20.4707H52.1187C52.1719 20.4707 52.2158 20.464 52.2251 20.4547C52.2343 20.4453 52.241 20.3987 52.241 20.3413V20.2439H52.3407H52.4403V20.18C52.4403 20.144 52.4442 20.0506 52.4496 19.9733L52.4575 19.8306H52.5558H52.6528V19.6172V19.4038H52.759H52.8653V19.1972V18.9904H52.9716H53.0778V18.8771V18.7636H53.1775H53.2771V18.6998C53.2771 18.6637 53.281 18.5703 53.2864 18.493L53.2944 18.3504H53.3927H53.4896V18.2863C53.4896 18.2503 53.4937 18.1569 53.4989 18.0796L53.5069 17.9369H53.6025H53.6982L53.7088 17.7235L53.7181 17.5101H55.8089H57.8997V17.7169ZM28.2646 18.5637V18.7771H28.3708H28.4771V18.9837V19.1905H28.5834H28.6896V19.3038V19.4172H28.7866H28.8848L28.8928 19.5599C28.8982 19.6372 28.9021 19.7306 28.9021 19.7666V19.8306H28.9991H29.0975L29.1055 19.9733C29.1107 20.0506 29.1148 20.144 29.1148 20.18V20.2439H29.213H29.3113L29.3206 20.4574L29.3312 20.6708H29.4282H29.5265V20.7775V20.8841H29.6327H29.7391V21.0975V21.3109H29.8452H29.9516V21.7309V22.1511H29.8452H29.7391V22.3577V22.5645H29.6327H29.5265V22.6711V22.7778H29.4282H29.3312L29.3206 22.9912L29.3113 23.2045H29.2064H29.1014V23.4113V23.6179H29.0018H28.9036L28.8995 23.7273L28.8956 23.838L28.7932 23.8421L28.6896 23.846V24.0515V24.2581H28.5834H28.4771V24.4715V24.6848H28.3708H28.2646V24.8916V25.0982H26.0595H23.8545V24.9983V24.8983H23.7548H23.6552V24.8009C23.6552 24.7436 23.6486 24.6969 23.6393 24.6876C23.63 24.6782 23.5862 24.6715 23.533 24.6715H23.4427V24.4649V24.2581H23.3365H23.2302V24.0701C23.2302 23.9673 23.2235 23.8714 23.217 23.8567C23.2049 23.8354 23.1876 23.8314 23.1106 23.8314H23.0177V23.6246V23.418H22.9114H22.8052V23.3113V23.2045H22.7068H22.6085L22.5992 22.9912L22.5886 22.7778H22.493H22.3973L22.3893 22.6352C22.3841 22.5578 22.38 22.4644 22.38 22.4284V22.3644H22.2817H22.1835L22.1742 22.1511L22.1636 21.9377H22.0666H21.9682V21.831V21.7242H21.862H21.7557V21.6243V21.5243H21.862H21.9682V21.4108V21.2975H22.0679H22.1675V21.2335C22.1675 21.1975 22.1715 21.1042 22.1768 21.0269L22.1848 20.8841H22.2831H22.38V20.8201C22.38 20.7841 22.3841 20.6907 22.3893 20.6134L22.3973 20.4707H22.493H22.5886L22.5992 20.2573L22.6085 20.044H22.7068H22.8052V19.9373V19.8306H22.9114H23.0177V19.6172V19.4038H23.1239H23.2302V19.1972V18.9904H23.3365H23.4427V18.8771V18.7636H23.5423H23.642V18.6998C23.642 18.6637 23.6459 18.5703 23.6513 18.493L23.6593 18.3504H25.9625H28.2646V18.5637ZM50.3414 22.6778V22.7778H50.4411H50.5407V22.8752C50.5407 22.9325 50.5474 22.9792 50.5567 22.9885C50.566 22.9979 50.6098 23.0046 50.6629 23.0046H50.7532V23.2112V23.418H50.8595H50.9658V23.606C50.9658 23.7086 50.9724 23.8047 50.9791 23.8193C50.991 23.8407 51.0083 23.8447 51.0854 23.8447H51.1784V24.0515V24.2581H51.2846H51.3909V24.3648V24.4715H51.4892H51.5874L51.5967 24.6848L51.6074 24.8983H51.703H51.7986L51.8066 25.0409C51.812 25.1183 51.8159 25.2117 51.8159 25.2477V25.3117H51.9142H52.0125L52.0218 25.5251L52.0324 25.7384H52.1295H52.2277V25.8451V25.9518H52.334H52.4403V26.1399C52.4403 26.2425 52.4469 26.3385 52.4535 26.3532C52.4654 26.3745 52.4827 26.3786 52.5598 26.3786H52.6528V26.5852V26.792H55.0704H57.4879V29.1124V31.4328H57.3006C57.1983 31.4328 57.1027 31.4395 57.0881 31.4462C57.0669 31.4582 57.0628 31.4755 57.0628 31.5528V31.6463H56.9566H56.8503V31.7449V31.8436L56.6378 31.8529L56.4253 31.8636V31.9597V32.0556L56.2831 32.0637C56.2061 32.069 56.1131 32.073 56.0773 32.073H56.0135V32.1704V32.269L55.8713 32.277C55.7943 32.2824 55.7014 32.2863 55.6655 32.2863H55.6017V32.3851V32.4838L55.3892 32.4931L55.1766 32.5038V32.601V32.6998H55.0704H54.9641V32.8065V32.9131H54.7516H54.539V33.0198V33.1266H54.2269H53.9148V33.0198V32.9131H53.8164H53.7181L53.7088 32.6998L53.6982 32.4864H53.6025H53.5069L53.4989 32.3436C53.4937 32.2663 53.4896 32.173 53.4896 32.137V32.073H53.3913H53.2931L53.2838 31.8596L53.2731 31.6463H53.1762H53.0778V31.5395V31.4328H52.9716H52.8653V31.2195V31.0061H52.759H52.6528V30.7995V30.5927H52.5558H52.4575L52.4496 30.4499C52.4442 30.3726 52.4403 30.2793 52.4403 30.2433V30.1793H52.3407H52.241V30.066V29.9525H52.1347H52.0285V29.7645C52.0285 29.6619 52.0218 29.5658 52.0152 29.5512C52.0032 29.5298 51.986 29.5258 51.909 29.5258H51.8159V29.3192V29.1124H51.7097H51.6034V29.0057V28.8991H49.1858H46.7682V26.6853V24.4715H46.9807H47.1934V24.3742V24.2755L47.3354 24.2674C47.4126 24.2621 47.5055 24.2581 47.5414 24.2581H47.6052V24.1594V24.0608L47.8177 24.0515L48.0302 24.0407V23.9434V23.8447H48.1365H48.2427V23.738V23.6313H48.43C48.5323 23.6313 48.6279 23.6246 48.6426 23.6179C48.6638 23.606 48.6678 23.5886 48.6678 23.5113V23.418H48.8737H49.0796V23.3113V23.2045H49.1858H49.2921V23.1059V23.0072L49.5046 22.9979L49.7171 22.9872V22.8898V22.7912H49.9231H50.1289V22.6845V22.5778H50.2352H50.3414V22.6778ZM31.6253 23.3113V23.418H31.8378H32.0503V23.5246V23.6313H32.1566H32.2628V23.738V23.8447H32.4688H32.6746V23.938C32.6746 24.0261 32.6759 24.0328 32.7092 24.0448C32.7278 24.0528 32.8235 24.058 32.9217 24.058H33.0997V24.1581V24.2581H33.2059H33.3122V24.3648V24.4715H33.5248H33.7373V24.5782V24.6848H33.9432H34.1491V24.7915V24.8983H34.3616H34.5742V25.0049V25.1116H34.6804H34.7867V25.2117V25.3117H34.8505C34.8863 25.3117 34.9793 25.3156 35.0563 25.321L35.1985 25.3291V25.5344V25.7384H35.0988H34.9992V25.8384V25.9385H35.0988H35.1985V27.4188V28.8991L33.0639 28.9004C31.8882 28.9017 30.803 28.9071 30.6489 28.911L30.37 28.919L30.366 29.015L30.362 29.1124H30.265H30.1681L30.1574 29.3258L30.1481 29.5391H30.0499H29.9516V29.7459V29.9525H29.8452H29.7391V30.166V30.3793H29.6327H29.5265V30.486V30.5927H29.4269H29.3273V30.6567C29.3273 30.6927 29.3232 30.7861 29.318 30.8634L29.31 31.0061H29.2143H29.1187L29.1081 31.2195L29.0988 31.4328H29.0005H28.9021V31.4968C28.9021 31.5328 28.8982 31.6262 28.8928 31.7036L28.8848 31.8462H28.7866H28.6896V31.9597V32.073H28.5834H28.4771V32.2796V32.4864H28.3708H28.2646V32.6998V32.9131H28.1583H28.0521V33.0198V33.1266H27.89C27.7997 33.1266 27.6589 33.1225 27.5778 33.1172L27.4277 33.1092V33.0105V32.9131H27.2218H27.0159V32.8065V32.6998H26.903H26.7901V32.5997V32.4997H26.7264C26.6905 32.4997 26.5975 32.4957 26.5204 32.4904L26.3784 32.4825V32.377V32.2731H26.1659H25.9532V32.173V32.073H25.8895C25.8536 32.073 25.7606 32.069 25.6836 32.0637L25.5414 32.0556V31.9569V31.8596H25.4352H25.3289V31.7529V31.6463H25.1164H24.9039V31.5395V31.4328H24.7007H24.4961L24.4881 31.2502C24.4828 31.1502 24.4788 30.1059 24.4788 28.9297V26.792H26.8963H29.3139V26.728C29.3139 26.692 29.318 26.5986 29.3232 26.5212L29.3312 26.3786H29.4269H29.5225L29.5331 26.1651L29.5424 25.9518H29.6407H29.7377L29.7417 25.8411L29.7456 25.7317L29.8493 25.7278L29.9516 25.7237V25.5184V25.3117H30.0579H30.1641V25.1049V24.8983H30.2704H30.3766V24.6848V24.4715H30.4829H30.5892V24.3648V24.2581H30.6887H30.7884V24.1941C30.7884 24.1581 30.7924 24.0647 30.7977 23.9874L30.8056 23.8447H30.904H31.001V23.6313V23.418H31.1072H31.2135V23.3113V23.2045H31.4193H31.6253V23.3113ZM41.3088 28.3789V28.4856H41.5148H41.7206V28.5922V28.699H41.9265H42.1324V28.7897C42.1324 28.8431 42.1391 28.8871 42.1483 28.8964C42.1576 28.9058 42.2041 28.9123 42.2612 28.9123H42.3582V29.0124V29.1124H42.5641H42.77V29.2191V29.3258H42.9825H43.195V29.4325V29.5391H43.401H43.6068V29.6458V29.7526H43.7197H43.8327V29.8526V29.9525H43.8964C43.9323 29.9525 44.0253 29.9566 44.1023 29.9619L44.2445 29.9699V30.0686V30.166H44.3507H44.457V30.23C44.457 30.2659 44.4529 30.3594 44.4477 30.4367L44.4397 30.5794H44.3414H44.2445V30.6927V30.806H44.1382H44.0318V31.0128V31.2195H43.9256H43.8193V31.4328V31.6463H43.7131H43.6068V31.8529V32.0597H43.5165C43.4633 32.0597 43.4196 32.0663 43.4103 32.0756C43.401 32.0849 43.3943 32.1316 43.3943 32.1891V32.2863H43.2947H43.195V32.4931V32.6998H43.0887H42.9825V32.9065V33.1132H42.8922C42.839 33.1132 42.7952 33.1199 42.7859 33.1292C42.7766 33.1385 42.77 33.1852 42.77 33.2425V33.3399H42.6704H42.5707V33.4039C42.5707 33.44 42.5667 33.5333 42.5614 33.6106L42.5535 33.7533H42.4579H42.3622L42.3542 33.9361C42.341 34.2121 42.3436 34.5522 42.3582 34.5815C42.3702 34.6028 42.3874 34.6069 42.4631 34.6069H42.5535L42.5614 34.7495C42.5667 34.8269 42.5707 34.9202 42.5707 34.9563V35.0203H42.6704H42.77V35.1176C42.77 35.1749 42.7766 35.2215 42.7859 35.2309C42.7952 35.2402 42.839 35.2469 42.8922 35.2469H42.9825V35.4537V35.6603H43.0887H43.195V35.8671V36.0738H43.2947H43.3943V36.1712C43.3943 36.2285 43.401 36.2751 43.4103 36.2845C43.4196 36.2938 43.4633 36.3005 43.5165 36.3005H43.6068V36.4819C43.6068 36.5805 43.6135 36.6738 43.6201 36.6886C43.6321 36.7099 43.6494 36.7139 43.7264 36.7139H43.8193V36.9019C43.8193 37.0046 43.826 37.1007 43.8327 37.1153C43.8446 37.1367 43.8619 37.1406 43.9389 37.1406H44.0318V37.3474V37.554H44.1382H44.2445V37.6608V37.7674H44.3427H44.441L44.4503 37.9809L44.4609 38.1942H44.5566H44.6522L44.6602 38.3435C44.6656 38.4262 44.6695 38.5675 44.6695 38.6569V38.821H44.5566H44.4436V38.9277V39.0343H44.2378H44.0318V39.1317V39.2303L43.8898 39.2384C43.8127 39.2437 43.7197 39.2477 43.6838 39.2477H43.6201V39.3464V39.4451L43.4075 39.4545L43.195 39.4651V39.5625V39.6611H43.0887H42.9825V39.7678V39.8746H42.77H42.5574V39.9812V40.0879H42.3516H42.147L42.143 40.1919L42.139 40.2946L41.9305 40.2986L41.7206 40.3026V40.408V40.5146H41.6143H41.5081V40.6147V40.7147H41.3207C41.2185 40.7147 41.1229 40.7214 41.1082 40.728C41.087 40.7401 41.0829 40.7574 41.0829 40.8347V40.928H40.9834H40.8838V40.828V40.728H40.7775H40.6712V40.6214V40.5159L40.4627 40.512L40.2528 40.5079L40.2488 40.4039L40.2448 40.3013H40.0403H39.8343V40.1945V40.0879H39.6218H39.4093V39.9812V39.8746H39.2034H38.9975V39.7678V39.6611H38.8912H38.7849V39.5625V39.4651L38.5724 39.4545L38.3599 39.4451V39.3464V39.2477H38.2961C38.2603 39.2477 38.1673 39.2437 38.0903 39.2384L37.9481 39.2303V39.1317V39.0343H37.7356H37.5231V38.8277V38.6209H37.6134C37.6665 38.6209 37.7103 38.6142 37.7196 38.6049C37.7289 38.5956 37.7356 38.5489 37.7356 38.4916V38.3943H37.8352H37.9349V38.3303C37.9349 38.2942 37.9388 38.2008 37.9442 38.1235L37.9522 37.9809H38.0491H38.1461L38.15 37.7701L38.1541 37.5607L38.2576 37.5567L38.3599 37.5527V37.3474V37.1406H38.4662H38.5724V37.034V36.9273H38.6707H38.7678L38.7784 36.7139L38.7877 36.5006H38.886H38.9842V36.4366C38.9842 36.4005 38.9882 36.3072 38.9935 36.2298L39.0015 36.0872H39.0972H39.1928L39.2034 35.8737L39.2127 35.6603H39.311H39.4093V35.5537V35.447H39.5155H39.6218V35.0203V34.5935H39.5155H39.4093V34.3868V34.18H39.3123H39.214L39.206 34.0374C39.2008 33.96 39.1967 33.8667 39.1967 33.8306V33.7666H39.0972H38.9975V33.6533V33.54H38.8912H38.7849V33.3332V33.1266H38.6787H38.5724V32.9131V32.6998H38.4662H38.3599V32.4931V32.2877L38.2576 32.2837L38.1541 32.2796L38.15 32.1689L38.1461 32.0597H38.0491H37.9522L37.9442 31.917C37.9388 31.8397 37.9349 31.7462 37.9349 31.7103V31.6463H37.8366H37.7382L37.7289 31.4328L37.7183 31.2195H37.6213H37.5231V31.1128V31.0061H37.4168H37.3105V30.7995V30.5927H37.2043H37.098V30.486V30.3793H37.2043H37.3105V30.2806V30.1819L37.5231 30.1726L37.7356 30.1619V30.0646V29.9659H37.9414H38.1474V29.8592V29.7526H38.2536H38.3599V29.6458V29.5391H38.5724H38.7849V29.4325V29.3258H38.9909H39.1954L39.1994 29.2218L39.2034 29.1191L39.4133 29.115L39.6218 29.1111V29.0124V28.9123H39.728H39.8343V28.8057V28.699H40.0217C40.124 28.699 40.2196 28.6923 40.2342 28.6857C40.2554 28.6736 40.2594 28.6563 40.2594 28.579V28.4856H40.4653H40.6712V28.3789V28.2723H40.99H41.3088V28.3789ZM35.411 30.9941C35.411 31.0968 35.4177 31.1928 35.4243 31.2075C35.4363 31.2288 35.4535 31.2329 35.5305 31.2329H35.6235V31.4395V31.6463H35.7298H35.836V31.7529V31.8596H35.9343H36.0327L36.042 32.073L36.0526 32.2863H36.1483H36.2439L36.2519 32.4291C36.2571 32.5064 36.2612 32.5997 36.2612 32.6357V32.6998H36.3595H36.4577L36.467 32.9131L36.4777 33.1266H36.5746H36.6729V33.2332V33.3399H36.7791H36.8854V33.5533V33.7666H36.9918H37.098V33.9734V34.18H37.2043H37.3105V34.2868V34.3934H37.4101H37.5097V34.5815C37.5097 34.6842 37.5164 34.7801 37.5231 34.7948C37.535 34.8161 37.5523 34.8202 37.6293 34.8202H37.7223V35.0269V35.2336H37.6161H37.5097V35.3402V35.447H37.4101H37.3105V35.6536V35.8604H37.2043H37.098V36.0738V36.2871H36.9918H36.8854V36.3938V36.5006H36.7871H36.6902L36.6796 36.7139L36.6703 36.9273H36.5653H36.4604V37.1339V37.3407H36.3621H36.2651L36.2545 37.554L36.2452 37.7674H36.1469H36.0486V37.8741V37.9809H35.9423H35.836V38.0875V38.1942H35.7365H35.6369V38.2943V38.3943H35.5305H35.4243V38.2943V38.1942H33.4889C32.4236 38.1942 31.4764 38.1901 31.3835 38.1849L31.2135 38.1769V37.9715V37.7674H31.1072H31.001V37.554V37.3407H30.904H30.8056L30.7977 37.1979C30.7924 37.1206 30.7884 37.0273 30.7884 36.9913V36.9273H30.6887H30.5892V36.8205V36.7139H30.4829H30.3766V36.5006V36.2871H30.273H30.1681L30.1601 36.1445C30.1548 36.0671 30.1508 35.9737 30.1508 35.9377V35.8737H30.0512H29.9516V35.7604V35.6471H29.8545H29.7563L29.7483 35.5043C29.743 35.427 29.7391 35.3337 29.7391 35.2976V35.2336H29.642H29.5437L29.5358 35.0909C29.5305 35.0136 29.5265 34.9202 29.5265 34.8842V34.8202H29.4269H29.3273V34.5001V34.18H29.4269H29.5265V34.116C29.5265 34.08 29.5305 33.9867 29.5358 33.9094L29.5437 33.7666H29.6394H29.735L29.7456 33.5533L29.7549 33.3399H29.8532H29.9516V33.2332V33.1266H30.0579H30.1641V32.9131V32.6998H30.2704H30.3766V32.4931V32.2863H30.4829H30.5892V32.173V32.0597H30.6887H30.7884V31.9957C30.7884 31.9597 30.7924 31.8663 30.7977 31.7889L30.8056 31.6463H30.904H31.001V31.5823C31.001 31.5463 31.0049 31.4529 31.0103 31.3755L31.0182 31.2329H31.1165H31.2135V31.1194V31.0061H31.3131H31.4128V30.9061V30.806H33.4119H35.411V30.9941ZM50.7532 31.0128V31.2195H50.8595H50.9658V31.4328V31.6463H51.072H51.1784V31.7529V31.8596H51.2846H51.3909V32.073V32.2863H51.4972H51.6034V32.4931V32.6998H51.7017H51.8L51.8093 32.9131L51.8199 33.1266H51.9168H52.0152V33.2332V33.3399H52.1215H52.2277V33.5279C52.2277 33.6306 52.2343 33.7267 52.241 33.7413C52.2529 33.7627 52.2702 33.7666 52.3472 33.7666H52.4403V33.9734V34.18H52.5465H52.6528V34.5001V34.8202H52.5465H52.4403V35.0269V35.2336H52.334H52.2277V35.4403V35.6471H52.1373C52.0843 35.6471 52.0404 35.6536 52.0311 35.663C52.0218 35.6723 52.0152 35.7191 52.0152 35.7764V35.8737H51.9155H51.8159V36.0805V36.2871H51.7097H51.6047L51.6008 36.4965L51.5967 36.7072L51.4944 36.7112L51.3909 36.7152V36.9206V37.1273H51.2846H51.1784V37.234V37.3407H51.0854C50.9977 37.3407 50.991 37.342 50.9791 37.3754C50.9711 37.3941 50.9658 37.49 50.9658 37.5887V37.7674H50.8595H50.7532V37.9715V38.1769L50.5846 38.1849C50.4903 38.1901 49.5457 38.1942 48.4858 38.1942H46.5557V38.0875V37.9809H46.4574H46.3592L46.3499 37.7674L46.3392 37.554H46.2423H46.1439V37.4474V37.3407H46.0376H45.9314V37.1526C45.9314 37.0499 45.9248 36.954 45.9181 36.9392C45.9062 36.9179 45.8889 36.914 45.8119 36.914H45.7189V36.7072V36.5006H45.6126H45.5063V36.2938V36.0885L45.404 36.0844L45.3005 36.0805L45.2964 35.9698L45.2925 35.8604H45.1941H45.0945V35.6536V35.447H44.9883H44.882V35.259C44.882 35.1562 44.8754 35.0602 44.8688 35.0455C44.8567 35.0242 44.8396 35.0203 44.7625 35.0203H44.6695V34.8135V34.6069H44.5646H44.4596L44.4503 34.3934L44.4397 34.18H44.3427H44.2445V34.08V33.98H44.3507H44.457V33.8667V33.7533H44.5632H44.6695V33.5466V33.3399H44.7758H44.882V33.1266V32.9131H44.9883H45.0945V32.8065V32.6998H45.1941H45.2925L45.2964 32.489L45.3005 32.2796L45.404 32.2757L45.5063 32.2717V32.0663V31.8596H45.6126H45.7189V31.6529V31.4462H45.8251H45.9314V31.3329V31.2195H46.0311H46.1307V31.1554C46.1307 31.1194 46.1346 31.0261 46.14 30.9488L46.1479 30.806H48.4513H50.7532V31.0128Z" fill="white"/>
    <path d="M41.9332 3.68742V3.78745H42.0329H42.1325V3.68742V3.5874H42.0329H41.9332V3.68742Z" fill="white"/>
    <path d="M42.5707 3.68742V3.78745H42.6704H42.7699V3.68742V3.5874H42.6704H42.5707V3.68742Z" fill="white"/>
    <path d="M38.5725 4.10076V4.20078H38.6721H38.7718V4.10076V4.00073H38.6721H38.5725V4.10076Z" fill="white"/>
    <path d="M39.6218 4.31413V4.41416H39.7213H39.821V4.31413V4.21411H39.7213H39.6218V4.31413Z" fill="white"/>
    <path d="M43.6201 4.31413V4.41416H43.7197H43.8193V4.31413V4.21411H43.7197H43.6201V4.31413Z" fill="white"/>
    <path d="M37.7355 4.52751V4.62752H37.8351H37.9348V4.52751V4.42749H37.8351H37.7355V4.52751Z" fill="white"/>
    <path d="M44.0451 4.52751V4.62752H44.1447H44.2444V4.52751V4.42749H44.1447H44.0451V4.52751Z" fill="white"/>
    <path d="M39.6218 6.42131V6.52133H39.7213H39.821V6.42131V6.32129H39.7213H39.6218V6.42131Z" fill="white"/>
    <path d="M39.4227 7.48154V7.57489H39.5156H39.6086V7.48154V7.38818H39.5156H39.4227V7.48154Z" fill="white"/>
    <path d="M39.6218 9.16837V9.26839H39.7213H39.821V9.16837V9.06836H39.7213H39.6218V9.16837Z" fill="white"/>
    <path d="M42.1456 9.59513V9.69515H42.2453H42.3449V9.59513V9.49512H42.2453H42.1456V9.59513Z" fill="white"/>
    <path d="M39.6218 9.80852V9.90854H39.7213H39.821V9.80852V9.7085H39.7213H39.6218V9.80852Z" fill="white"/>
    <path d="M38.7849 10.6489V10.7489H38.8846H38.9842V10.6489V10.5488H38.8846H38.7849V10.6489Z" fill="white"/>
    <path d="M42.9959 10.6489V10.7489H43.0889H43.1818V10.6489V10.5488H43.0889H42.9959V10.6489Z" fill="white"/>
    <path d="M37.9481 12.7558V12.8558H38.0476H38.1473V12.7558V12.6558H38.0476H37.9481V12.7558Z" fill="white"/>
    <path d="M39.4227 13.5961V13.696H39.5156H39.6086V13.5961V13.4961H39.5156H39.4227V13.5961Z" fill="white"/>
    <path d="M41.7206 13.5867C41.7206 13.64 41.7273 13.6841 41.7366 13.6934C41.7458 13.7027 41.7896 13.7094 41.8427 13.7094H41.9331V13.6027V13.4961H41.8269H41.7206V13.5867Z" fill="white"/>
    <path d="M40.8837 14.4495V14.5496H40.9833H41.0829V14.4495V14.3496H40.9833H40.8837V14.4495Z" fill="white"/>
    <path d="M36.0486 10.0087V10.1087H36.1483H36.2479V10.0087V9.90869H36.1483H36.0486V10.0087Z" fill="white"/>
    <path d="M46.1439 5.58766V5.69434H46.2436H46.3432V5.58766V5.48096H46.2436H46.1439V5.58766Z" fill="white"/>
    <path d="M45.3032 7.17071C45.298 7.17472 45.2939 7.22273 45.2939 7.2774V7.37475H45.4003H45.5066V7.26806V7.16138H45.4096C45.3551 7.16138 45.3073 7.16539 45.3032 7.17071Z" fill="white"/>
    <path d="M45.7189 10.2221V10.3221H45.8186H45.9182V10.2221V10.1221H45.8186H45.7189V10.2221Z" fill="white"/>
    <path d="M53.9147 10.6489V10.7489H54.021H54.1274V10.6489V10.5488H54.021H53.9147V10.6489Z" fill="white"/>
    <path d="M53.7155 10.8622V10.9623H53.815H53.9146V10.8622V10.7622H53.815H53.7155V10.8622Z" fill="white"/>
    <path d="M56.0135 11.4889V11.5889H56.1197H56.226V11.4889V11.3889H56.1197H56.0135V11.4889Z" fill="white"/>
    <path d="M53.0779 12.7558V12.8558H53.1776H53.2772V12.7558V12.6558H53.1776H53.0779V12.7558Z" fill="white"/>
    <path d="M44.0451 15.2897V15.3898H44.1447H44.2444V15.2897V15.1897H44.1447H44.0451V15.2897Z" fill="white"/>
    <path d="M44.6695 15.2897V15.3898H44.7691H44.8688V15.2897V15.1897H44.7691H44.6695V15.2897Z" fill="white"/>
    <path d="M43.6201 15.7096V15.8164H43.7197H43.8193V15.7096V15.603H43.7197H43.6201V15.7096Z" fill="white"/>
    <path d="M43.1951 15.9229V16.0164H43.2947H43.3943V15.9229V15.8296H43.2947H43.1951V15.9229Z" fill="white"/>
    <path d="M39.1968 16.1298V16.2299H39.3032H39.4093V16.1298V16.0298H39.3032H39.1968V16.1298Z" fill="white"/>
    <path d="M43.4075 16.3432V16.4432H43.5072H43.6068V16.3432V16.2432H43.5072H43.4075V16.3432Z" fill="white"/>
    <path d="M38.7849 16.9833V17.0834H38.8846H38.9842V16.9833V16.8833H38.8846H38.7849V16.9833Z" fill="white"/>
    <path d="M42.5707 16.9833V17.0834H42.6704H42.7699V16.9833V16.8833H42.6704H42.5707V16.9833Z" fill="white"/>
    <path d="M42.1456 17.1967V17.2967H42.2453H42.3449V17.1967V17.0967H42.2453H42.1456V17.1967Z" fill="white"/>
    <path d="M42.9825 17.3954V17.4939L42.7699 17.5033L42.5574 17.5139V17.6113V17.71H42.3516H42.1456V17.8167V17.9234H42.0394H41.9331V18.0301V18.1368H41.7273H41.5213V18.2008C41.5213 18.2368 41.5174 18.3301 41.5133 18.4075L41.504 18.5489L41.4098 18.5528L41.3155 18.5569L41.3062 18.6702C41.3021 18.7329 41.2982 19.1596 41.2969 19.6198L41.2955 20.4573H41.5081H41.7206V20.3572V20.2572H41.8269H41.9331V20.1505V20.0439H42.1456H42.3583V19.9371V19.8304H42.5641H42.7699V19.7238V19.617H42.8762H42.9825V19.553C42.9825 19.517 42.9865 19.4237 42.9918 19.3464L42.9998 19.2036H43.098H43.1951V18.2502V17.2966H43.0887H42.9825V17.3954Z" fill="white"/>
    <path d="M38.36 18.3502V19.2037H38.4569H38.5553L38.5633 19.3465C38.5685 19.4238 38.5726 19.5171 38.5726 19.5532V19.6172H38.6787H38.7851V19.7239V19.8305H38.991H39.1969V19.9373V20.044H39.3032H39.4094V20.1426V20.24L39.6219 20.2506L39.8345 20.26V20.3587V20.4574H40.047H40.2595V19.5106V18.5637H40.1532H40.047V18.457V18.3502H39.9407H39.8345V18.2436V18.1369H39.7282H39.6219V18.0303V17.9235H39.416H39.2101V17.8302C39.2101 17.7421 39.2088 17.7355 39.1756 17.7235C39.157 17.7154 39.0613 17.7102 38.963 17.7102H38.7851V17.6034V17.4968H38.5726H38.36V18.3502Z" fill="white"/>
    <path d="M41.5213 17.61V17.7101H41.6209H41.7206V17.61V17.51H41.6209H41.5213V17.61Z" fill="white"/>
    <path d="M41.9332 17.61V17.7101H42.0329H42.1325V17.61V17.51H42.0329H41.9332V17.61Z" fill="white"/>
    <path d="M37.0981 18.457V18.5637H37.2043H37.3106V18.457V18.3503H37.2043H37.0981V18.457Z" fill="white"/>
    <path d="M36.4737 19.7172V19.8173H36.5733H36.673V19.7172V19.6172H36.5733H36.4737V19.7172Z" fill="white"/>
    <path d="M38.36 19.7172V19.8173H38.4596H38.5592V19.7172V19.6172H38.4596H38.36V19.7172Z" fill="white"/>
    <path d="M45.0945 20.3574V20.4574H45.1942H45.2938V20.3574V20.2573H45.1942H45.0945V20.3574Z" fill="white"/>
    <path d="M40.4588 20.564V20.6706H40.2542H40.0509L40.0403 20.884L40.031 21.0974H39.9327H39.8345V21.5174V21.9376H39.934H40.0337V22.0443V22.1509H40.14H40.2463V22.2577V22.3643H40.1466H40.047V22.4643V22.5643H39.934H39.8211V22.6711V22.7777H39.6153H39.4094V22.8844V22.9912H39.2035H38.9976V23.0978V23.2045H38.8847H38.7718V23.3111V23.4179H38.6748H38.5765L38.5685 23.5872C38.5633 23.6819 38.5592 23.8699 38.5592 24.0073V24.258H38.4596H38.36V24.4714V24.6848H38.4596H38.5592V25.1048V25.5249H38.7718H38.983L38.987 25.4209L38.991 25.3183L39.1013 25.3142L39.2101 25.3102V25.2115V25.1115H39.416H39.6219V25.0049V24.8981H39.7282H39.8345V24.7914V24.6848H39.9407H40.047V24.5781V24.4714H40.1532H40.2595V24.258V24.0446H40.3592H40.4588V23.5179V22.9912H40.3592H40.2595V22.8404C40.2595 22.7564 40.2556 22.6151 40.2502 22.527L40.2422 22.3643H40.7749H41.3089L41.3116 23.2071L41.3155 24.0513L41.4125 24.0553L41.5081 24.0593V24.2647V24.4714H41.6144H41.7207V24.5781V24.6848H41.8269H41.9332V24.7914V24.8981H42.0394H42.1458V24.9969V25.0941L42.3583 25.1048L42.5708 25.1141V25.2128V25.3116H42.6345C42.6704 25.3116 42.7634 25.3155 42.8405 25.3209L42.9826 25.3289V25.4276V25.5249H43.0889H43.1952V25.3116V25.0982H43.2947H43.3943V24.9982V24.8981H43.2947H43.1952V24.7848V24.6714H43.2947H43.3943V24.5714V24.4714H43.2947H43.1952V23.9446V23.4179H43.0889H42.9826V23.3111V23.2045H42.8764H42.7701V23.0978V22.9912H42.5642H42.3583V22.8844V22.7777H42.1458H41.9332V22.6711V22.5643H41.8269H41.7207V22.4643V22.3643H41.5148H41.3089V22.2577V22.1509H41.4151H41.5215V22.0443V21.9376H41.6211H41.7207V21.4108V20.884H41.6211H41.5215V20.7906C41.5215 20.7027 41.5201 20.696 41.4869 20.684C41.4683 20.676 41.3727 20.6706 41.2744 20.6706H41.0963V20.564V20.4573H40.7776H40.4588V20.564Z" fill="white"/>
    <path d="M43.3944 20.5639V20.6706H43.1885H42.9827V20.7693V20.8679L42.77 20.8773L42.5575 20.888V20.984V21.0801L42.4155 21.088C42.3383 21.0934 42.2454 21.0973 42.2108 21.0973H42.147L42.1431 21.2001L42.1392 21.3041L42.0368 21.308L41.9332 21.3121V21.4174V21.5241H42.0329H42.1325V21.6175C42.1325 21.7055 42.1338 21.7121 42.1671 21.7242C42.1857 21.7321 42.2813 21.7375 42.3796 21.7375H42.5575V21.8375V21.9376H42.6705H42.7834V22.0442V22.1509H43.0889H43.3944V22.2577V22.3643H43.7132H44.032V22.4643V22.5643H44.1383H44.2445V22.4643V22.3643H44.1383H44.032V22.2577V22.1509H44.2445H44.4571V22.0442V21.9376H44.6696H44.8821V21.8375V21.7375H44.9725C45.0256 21.7375 45.0695 21.7308 45.0788 21.7215C45.0881 21.7121 45.0946 21.6682 45.0946 21.6175V21.5281L45.2368 21.5201C45.3138 21.5148 45.4068 21.5107 45.4427 21.5107H45.5064V21.4108V21.3121L45.4042 21.308L45.3006 21.3041L45.2965 21.2001L45.2926 21.0973H45.2288C45.1943 21.0973 45.1013 21.0934 45.0243 21.088L44.8821 21.0801V20.984V20.888L44.6696 20.8773L44.4571 20.8679V20.7693V20.6706H44.2512H44.0453V20.5639V20.4573H43.7198H43.3944V20.5639Z" fill="white"/>
    <path d="M41.9332 20.5707V20.6708H42.0329H42.1325V20.5707V20.4707H42.0329H41.9332V20.5707Z" fill="white"/>
    <path d="M46.9809 20.5707V20.6708H47.0805H47.1801V20.5707V20.4707H47.0805H46.9809V20.5707Z" fill="white"/>
    <path d="M37.3105 20.7694V20.868L37.098 20.8773L36.8854 20.8881V20.9854V21.0841H36.7951C36.742 21.0841 36.6981 21.0908 36.6888 21.1001C36.6795 21.1094 36.6729 21.1534 36.6729 21.2067V21.2974H36.4882C36.386 21.2974 36.2943 21.3015 36.2824 21.3054C36.2637 21.3121 36.2611 21.3441 36.2611 21.5175C36.2611 21.7588 36.2372 21.7375 36.4975 21.7375H36.6729V21.8376V21.9376H36.7792H36.8854V22.0442V22.1509H36.7857H36.6862V22.251V22.351H36.7857H36.8854V22.251V22.1509H37.098H37.3105V22.2576V22.3643H37.9415H38.5724V22.2576V22.1509H38.7783H38.9842V22.0442V21.9376H39.0971H39.21V21.8402V21.7415L39.3522 21.7335C39.4292 21.7282 39.5221 21.7241 39.558 21.7241H39.6218V21.5108V21.2974H39.5156H39.4092V21.1974V21.0974H39.3455C39.3096 21.0974 39.2166 21.0934 39.1396 21.088L38.9975 21.08V20.9814V20.884H38.785H38.5724V20.7773V20.6707H37.9415H37.3105V20.7694Z" fill="white"/>
    <path d="M45.2939 20.7775V20.8709H45.4003H45.5066V20.7775V20.6841H45.4003H45.2939V20.7775Z" fill="white"/>
    <path d="M45.9315 20.9841V21.0841H46.0311H46.1307V20.9841V20.884H46.0311H45.9315V20.9841Z" fill="white"/>
    <path d="M46.7682 22.0378V22.1378H46.8679H46.9675V22.0378V21.9377H46.8679H46.7682V22.0378Z" fill="white"/>
    <path d="M45.7189 22.2509V22.3509H45.8186H45.9182V22.2509V22.1509H45.8186H45.7189V22.2509Z" fill="white"/>
    <path d="M42.5707 22.4643V22.5643H42.6704H42.7699V22.4643V22.3643H42.6704H42.5707V22.4643Z" fill="white"/>
    <path d="M45.9315 22.6777V22.7777H46.0311H46.1307V22.6777V22.5776H46.0311H45.9315V22.6777Z" fill="white"/>
    <path d="M40.6713 23.0979V23.2047H40.7776H40.8838V23.0979V22.9912H40.7776H40.6713V23.0979Z" fill="white"/>
    <path d="M36.6862 23.1044V23.2045H36.7858H36.8853V23.1044V23.0044H36.7858H36.6862V23.1044Z" fill="white"/>
    <path d="M36.8854 23.9448V24.0448H36.9916H37.0979V23.9448V23.8447H36.9916H36.8854V23.9448Z" fill="white"/>
    <path d="M42.4685 25.5342L42.3582 25.5396V25.6316V25.725H42.564H42.7699V25.6249V25.5249L42.6743 25.5275C42.6211 25.5289 42.5282 25.5329 42.4685 25.5342Z" fill="white"/>
    <path d="M39.2101 26.2651V26.3651H39.3097H39.4094V26.2651V26.165H39.3097H39.2101V26.2651Z" fill="white"/>
    <path d="M41.9332 26.2651V26.3651H42.0329H42.1325V26.2651V26.165H42.0329H41.9332V26.2651Z" fill="white"/>
    <path d="M42.1456 26.4785V26.5785H42.2453H42.3449V26.4785V26.3784H42.2453H42.1456V26.4785Z" fill="white"/>
    <path d="M44.6695 27.1121V27.2187H44.7691H44.8688V27.1121V27.0054H44.7691H44.6695V27.1121Z" fill="white"/>
    <path d="M37.3106 27.3188V27.4188H37.4102H37.5099V27.3188V27.2188H37.4102H37.3106V27.3188Z" fill="white"/>
    <path d="M37.523 27.7453V27.8453H37.6226H37.7223V27.7453V27.6453H37.6226H37.523V27.7453Z" fill="white"/>
    <path d="M44.6695 27.9589V28.0588H44.7691H44.8688V27.9589V27.8589H44.7691H44.6695V27.9589Z" fill="white"/>
    <path d="M57.7003 19.3036V19.4037H57.8H57.8996V19.3036V19.2036H57.8H57.7003V19.3036Z" fill="white"/>
    <path d="M59.1749 20.7775V20.8709H59.2746H59.3742V20.7775V20.6841H59.2746H59.1749V20.7775Z" fill="white"/>
    <path d="M23.4427 19.0903V19.1903H23.5423H23.642V19.0903V18.9902H23.5423H23.4427V19.0903Z" fill="white"/>
    <path d="M49.5045 23.3046V23.4045H49.6042H49.7038V23.3046V23.2046H49.6042H49.5045V23.3046Z" fill="white"/>
    <path d="M48.4553 24.1581V24.2582H48.555H48.6546V24.1581V24.0581H48.555H48.4553V24.1581Z" fill="white"/>
    <path d="M50.3416 24.1581V24.2582H50.4412H50.5408V24.1581V24.0581H50.4412H50.3416V24.1581Z" fill="white"/>
    <path d="M50.5541 24.7847V24.8848H50.6537H50.7534V24.7847V24.6848H50.6537H50.5541V24.7847Z" fill="white"/>
    <path d="M50.3416 28.5856V28.6857H50.4412H50.5408V28.5856V28.4856H50.4412H50.3416V28.5856Z" fill="white"/>
    <path d="M50.9792 28.5856V28.6857H51.0787H51.1783V28.5856V28.4856H51.0787H50.9792V28.5856Z" fill="white"/>
    <path d="M41.3088 28.799V28.899H41.4085H41.5081V28.799V28.699H41.4085H41.3088V28.799Z" fill="white"/>
    <path d="M39.6218 29.2258V29.3258H39.7213H39.821V29.2258V29.1257H39.7213H39.6218V29.2258Z" fill="white"/>
    <path d="M41.9332 29.4257V29.5258H42.0329H42.1325V29.4257V29.3257H42.0329H41.9332V29.4257Z" fill="white"/>
    <path d="M37.9481 31.3329V31.433H38.0476H38.1473V31.3329V31.2329H38.0476H37.9481V31.3329Z" fill="white"/>
    <path d="M39.2101 33.2265V33.3264H39.3097H39.4094V33.2265V33.1265H39.3097H39.2101V33.2265Z" fill="white"/>
    <path d="M41.9332 33.4398V33.5398H42.0329H42.1325V33.4398V33.3398H42.0329H41.9332V33.4398Z" fill="white"/>
    <path d="M34.9992 31.1194V31.2195H35.0988H35.1985V31.1194V31.0195H35.0988H34.9992V31.1194Z" fill="white"/>
    <path d="M35.2119 32.5997V32.6997H35.3114H35.411V32.5997V32.4998H35.3114H35.2119V32.5997Z" fill="white"/>
    <path d="M31.426 37.874V37.9807H31.5322H31.6385V37.874V37.7673H31.5322H31.426V37.874Z" fill="white"/>
    <path d="M45.7189 32.173V32.2731H45.8186H45.9182V32.173V32.073H45.8186H45.7189V32.173Z" fill="white"/>
    <path d="M45.5064 32.5997V32.6997H45.6126H45.7189V32.5997V32.4998H45.6126H45.5064V32.5997Z" fill="white"/>
    <path d="M50.3416 37.8674V37.9674H50.4412H50.5408V37.8674V37.7673H50.4412H50.3416V37.8674Z" fill="white"/>
    <path d="M39.1968 0.940108V1.04013H39.3032H39.4093V0.940108V0.840088H39.3032H39.1968V0.940108Z" fill="white"/>
    <path d="M42.9825 0.940108V1.04013H43.0887H43.1951V0.940108V0.840088H43.0887H42.9825V0.940108Z" fill="white"/>
    <path d="M38.36 1.15349V1.25351H38.4596H38.5592V1.15349V1.05347H38.4596H38.36V1.15349Z" fill="white"/>
    <path d="M46.1439 1.99382V2.09384H46.2436H46.3432V1.99382V1.8938H46.2436H46.1439V1.99382Z" fill="white"/>
    <path d="M44.882 2.2072V2.30722H45.088H45.2938V2.2072V2.10718H45.088H44.882V2.2072Z" fill="white"/>
    <path d="M45.7189 2.2072V2.30722H45.8186H45.9182V2.2072V2.10718H45.8186H45.7189V2.2072Z" fill="white"/>
    <path d="M36.261 2.62729V2.72064H36.3607H36.4603V2.62729V2.53394H36.3607H36.261V2.62729Z" fill="white"/>
    <path d="M35.2119 2.83391V2.93393H35.3114H35.411V2.83391V2.73389H35.3114H35.2119V2.83391Z" fill="white"/>
    <path d="M46.3431 2.83391V2.93393H46.5491H46.7549V2.83391V2.73389H46.5491H46.3431V2.83391Z" fill="white"/>
    <path d="M29.5399 3.47405V3.57407H29.6396H29.7391V3.47405V3.37402H29.6396H29.5399V3.47405Z" fill="white"/>
    <path d="M56.6511 8.54166V8.64168H56.7507H56.8503V8.54166V8.44165H56.7507H56.6511V8.54166Z" fill="white"/>
    <path d="M58.5505 10.2221V10.3221H58.6434H58.7364V10.2221V10.1221H58.6434H58.5505V10.2221Z" fill="white"/>
    <path d="M22.1809 11.2756V11.3756H22.2804H22.3801V11.2756V11.1755H22.2804H22.1809V11.2756Z" fill="white"/>
    <path d="M20.7063 19.3036V19.4037H20.8059H20.9056V19.3036V19.2036H20.8059H20.7063V19.3036Z" fill="white"/>
    <path d="M25.3289 34.4935V34.5935H25.4351H25.5414V34.4935V34.3936H25.4351H25.3289V34.4935Z" fill="white"/>
    <path d="M25.7541 34.7067V34.8068H25.8537H25.9534V34.7067V34.6067H25.8537H25.7541V34.7067Z" fill="white"/>
    <path d="M25.9666 34.9201V35.0201H26.0663H26.1659V34.9201V34.8201H26.0663H25.9666V34.9201Z" fill="white"/>
    <path d="M53.9147 36.4006V36.5006H54.0144H54.114V36.4006V36.3005H54.0144H53.9147V36.4006Z" fill="white"/>
    <path d="M27.6402 36.6071V36.7138H27.7398H27.8395V36.6071V36.5005H27.7398H27.6402V36.6071Z" fill="white"/>
    <path d="M53.0779 37.8674V37.9674H53.1776H53.2772V37.8674V37.7673H53.1776H53.0779V37.8674Z" fill="white"/>
    <path d="M52.2409 40.1947V40.288H52.3405H52.4402V40.1947V40.1013H52.3405H52.2409V40.1947Z" fill="white"/>
    <path d="M45.5064 40.6147V40.7147H45.6059H45.7056V40.6147V40.5146H45.6059H45.5064V40.6147Z" fill="white"/>
    <path d="M37.7355 41.4548V41.5548H37.8351H37.9348V41.4548V41.3547H37.8351H37.7355V41.4548Z" fill="white"/>
    <path d="M45.0945 41.4548V41.5548H45.1942H45.2938V41.4548V41.3547H45.1942H45.0945V41.4548Z" fill="white"/>
    <path d="M38.1608 41.6681V41.7681H38.2604H38.3599V41.6681V41.5681H38.2604H38.1608V41.6681Z" fill="white"/>
    <path d="M43.8327 41.6681V41.7681H43.9322H44.0319V41.6681V41.5681H43.9322H43.8327V41.6681Z" fill="white"/>
    <path d="M37.9481 41.8815V41.9816H38.0476H38.1473V41.8815V41.7815H38.0476H37.9481V41.8815Z" fill="white"/>
    <path d="M45.307 41.8815V41.9816H45.4066H45.5062V41.8815V41.7815H45.4066H45.307V41.8815Z" fill="white"/>
    <path d="M42.5707 42.3082V42.4082H42.6704H42.7699V42.3082V42.2083H42.6704H42.5707V42.3082Z" fill="white"/>
    <path d="M41.9332 42.7283V42.8351H42.0236C42.0767 42.8351 42.1206 42.8284 42.1299 42.819C42.1392 42.8097 42.1457 42.7656 42.1457 42.7123V42.6216H42.0395H41.9332V42.7283Z" fill="white"/>
    <path d="M42.5707 42.7216V42.8217H42.6704H42.7699V42.7216V42.6216H42.6704H42.5707V42.7216Z" fill="white"/>
    <path d="M40.8837 43.1484V43.2484H40.9833H41.0829V43.1484V43.0483H40.9833H40.8837V43.1484Z" fill="white"/>
    <path d="M41.7339 43.1484V43.2484H41.8336H41.9332V43.1484V43.0483H41.8336H41.7339V43.1484Z" fill="white"/>
    <path d="M41.0963 43.5751V43.6752H41.1958H41.2955V43.5751V43.4751H41.1958H41.0963V43.5751Z" fill="white"/>
    <path d="M2.50781 57.5267V60.0107H2.61392H2.72002V59.3341V58.6576H2.83578H2.95152V58.3193V57.9809H3.0557H3.15988L3.17338 57.749L3.18882 57.517H3.29106H3.39524V57.4108V57.3044H3.51098H3.62673V57.1884V57.0725H3.73284H3.83701L3.8428 56.9604L3.84858 56.8502L3.95856 56.8443L4.06852 56.8386L4.0743 56.7283L4.08009 56.6181L4.19198 56.6124L4.30194 56.6065V56.5022V56.3958H4.40804H4.51222L4.51802 56.2837L4.5238 56.1736L4.63569 56.1678L4.74565 56.162V56.0596V55.957L4.97716 55.9416L5.20865 55.9281V55.8237V55.7193H5.4305H5.65237V55.6033V55.4874H5.98996H6.32757V55.381V55.2747H6.71919C6.93526 55.2747 7.19185 55.2689 7.28831 55.2631L7.46579 55.2496V55.1471V55.0427H4.9868H2.50781V57.5267Z" fill="white"/>
    <path d="M12.2117 55.1588V55.2747H11.8741H11.5364V55.3791V55.4835L11.3049 55.4971L11.0734 55.5106V55.6149V55.7194H10.8516H10.6297V55.8353V55.9513H10.514H10.3982V56.0558V56.1601L10.1764 56.1736L9.95646 56.1871L9.95066 56.2954L9.94488 56.4056L9.83491 56.4114L9.72302 56.4172V56.5216V56.6278H9.61692H9.51274L9.50696 56.738L9.50117 56.8502L9.39121 56.856L9.28124 56.8618L9.27545 56.972L9.26967 57.0822L9.15971 57.0879L9.04975 57.0938L9.04396 57.3102L9.03816 57.5267L8.93786 57.5326L8.83754 57.5383L8.83175 57.6485L8.82597 57.7587L8.71599 57.7645L8.60603 57.7703L8.60025 57.9868L8.59446 58.2034L8.4845 58.2091L8.37261 58.215V58.5513V58.8896H8.26842H8.16426L8.15075 59.1215L8.13532 59.3535H8.035H7.93275L7.91925 59.5759L7.90574 59.7981H7.80157H7.69739V59.976C7.69739 60.0746 7.69161 60.2273 7.68389 60.3143L7.67232 60.4747H7.57007H7.4659V60.7066V60.9386H7.36172H7.25755L7.24404 61.161L7.23053 61.3832H7.12636H7.02411L7.01833 61.6094L7.01254 61.8375L6.90258 61.8433L6.79068 61.8491L6.78682 62.1815L6.78104 62.5141L6.68072 62.5198L6.58234 62.5257L6.56883 62.7461L6.55533 62.9683H6.45115H6.3489L6.34312 63.1944L6.33733 63.4226L6.22736 63.4284L6.11547 63.4342V63.7609V64.0895H6.0113H5.90712L5.89362 64.3215L5.87818 64.5534H5.77787H5.67563L5.66212 64.7757L5.64861 64.998H5.54444H5.44026V65.1759C5.44026 65.2745 5.43448 65.4271 5.42676 65.5141L5.41518 65.6746H5.31293H5.20876V65.9066V66.1385H5.10458H5.00041L4.98691 66.3608L4.97341 66.5832H4.86923H4.76506V66.761C4.76506 66.8596 4.75927 67.0122 4.75155 67.0992L4.73997 67.2597H4.63773H4.53355V67.4917V67.7236H4.42938H4.3252L4.3117 67.9459L4.29819 68.1683H4.19401H4.09178L4.08598 68.3944L4.0802 68.6225L3.97023 68.6283L3.85834 68.6341V68.9183C3.85834 69.0749 3.85256 69.274 3.84484 69.3609L3.83326 69.5214H3.73101H3.62684V69.6374V69.7534H3.52073H3.41463V69.8693V69.9854H3.30081H3.18699L3.17348 70.2076L3.15998 70.4299H3.05581H2.95163V70.5363V70.6406L2.84167 70.6464L2.72978 70.6522L2.72399 70.7625L2.7182 70.8727L2.60824 70.8784L2.49828 70.8843L2.49249 70.9924L2.4867 71.1026L2.27642 71.1162L2.06422 71.1297V71.2341V71.3385H1.94847H1.83464L1.82885 71.4487L1.82307 71.5608L1.607 71.5666L1.38901 71.5724V71.6748V71.7773L1.1575 71.7927L0.926002 71.8062V71.9107V72.015H0.463001H0V72.1194V72.2238L0.237288 72.2354C0.528593 72.2509 13.3035 72.249 13.5776 72.2335L13.7743 72.2238V69.7515V67.2791H13.6681H13.5621V67.7236V68.1683H13.4579H13.3537L13.3403 68.6225L13.3267 69.0768H13.2245H13.1223L13.1087 69.3087L13.0952 69.5407H12.991H12.8888L12.8831 69.7572L12.8772 69.9757L12.7672 69.9814L12.6554 69.9873V70.1013V70.2173H12.5492H12.4431V70.3237V70.4299H12.3293H12.2155L12.202 70.6503L12.1886 70.8706L11.9801 70.8843L11.7699 70.8978L11.7641 71.0079L11.7583 71.1162L11.6483 71.122L11.5364 71.1278V71.2321V71.3385H11.4111H11.2857V71.4428V71.5453L11.1275 71.5569C11.0387 71.5646 10.8921 71.5704 10.7995 71.5704H10.6297V71.6748V71.7792L10.4079 71.7927L10.186 71.8062V71.9107V72.015H8.37261H6.55918V71.7831V71.5511H6.66529H6.77139V71.4447V71.3385H6.67493H6.57847V71.2341V71.1278L6.68072 71.122L6.78104 71.1162L6.78682 70.9943L6.79262 70.8746H6.89485H6.99903L7.01254 70.6522L7.02604 70.4299H7.13022H7.23246L7.23825 70.2019L7.24404 69.9757L7.35594 69.9698L7.4659 69.9641V69.8501V69.734H7.35979H7.25369V69.6374V69.5407H7.35979H7.4659V69.4151V69.2895H7.57007H7.67425L7.68775 69.0671L7.70125 68.8448H7.80542H7.90767L7.91346 68.6167L7.91925 68.3906L8.02921 68.3847L8.1411 68.379L8.14496 68.0465L8.15075 67.714L8.25107 67.7082L8.34946 67.7024L8.36296 67.482L8.37647 67.2597H8.48064H8.58288L8.58867 67.0316L8.59446 66.8055L8.70635 66.7996L8.81631 66.7939V66.6334C8.81631 66.5445 8.8221 66.3937 8.82788 66.2971L8.84139 66.1192H8.934H9.02466L9.03816 65.8969L9.05167 65.6746H9.15392H9.25617L9.26967 65.4427L9.28318 65.2107H9.38734H9.49152V65.0502C9.49152 64.9613 9.49732 64.8086 9.5031 64.7119L9.5166 64.5341H9.61885H9.72302V64.3118V64.0895H9.8272H9.93138L9.94488 63.8576L9.96031 63.6256H10.0626H10.1667V63.4651C10.1667 63.3762 10.1725 63.2235 10.1783 63.1268L10.1918 62.949H10.2941H10.3982V62.7267V62.5044H10.5024H10.6066L10.6201 62.2725L10.6355 62.0405H10.7378H10.8419V61.8703C10.8419 61.7776 10.8477 61.6306 10.8555 61.5417L10.867 61.3832H10.9693H11.0734V61.2034C11.0734 61.1068 11.0792 60.9541 11.0869 60.8652L11.0985 60.7066H11.2008H11.3049V60.581V60.4553H11.4111H11.5172V60.3046C11.5172 60.2195 11.5229 60.0726 11.5287 59.976L11.5422 59.7981H11.6445H11.7467L11.7525 59.57L11.7583 59.3438L11.8702 59.3381L11.9801 59.3322V59.1022V58.8702H12.0843H12.1886L12.202 58.6479L12.2155 58.4256H12.3197H12.4238V58.3096V58.1937H12.3178H12.2117V58.097V58.0023L12.3236 57.9965L12.4335 57.9907L12.4393 57.8689L12.4451 57.749H12.5492H12.6554V57.6331V57.5171H12.7596H12.8638L12.8772 57.2948L12.8907 57.0725H12.9949H13.0971L13.103 56.9604L13.1087 56.8502L13.2187 56.8444L13.3287 56.8386L13.3344 56.7283L13.3403 56.6183L13.4405 56.6124L13.5408 56.6067L13.5467 56.5061L13.5524 56.4056L13.6643 56.3998L13.7743 56.394V56.2915V56.1871L14.0058 56.1736L14.2373 56.1601V56.0461V55.932H14.3434H14.4495V55.8256V55.7194H14.681H14.9124V55.6033V55.4874H15.2501H15.5877V55.3811V55.2747H15.8635C16.016 55.2747 16.2205 55.269 16.3169 55.2631L16.4944 55.2496V55.1472V55.0427H14.353H12.2117V55.1588Z" fill="white"/>
    <path d="M19.8897 55.1471V55.2496L20.0672 55.2631C20.1638 55.2689 20.3682 55.2747 20.5206 55.2747H20.7965V55.381V55.4874H21.0183H21.2402V55.6033V55.7193H21.4717H21.7032V55.8237V55.9281L21.9251 55.9416L22.1469 55.9551V56.0595V56.162L22.2588 56.1678L22.3687 56.1736L22.3745 56.2818L22.3804 56.392L22.5887 56.4055L22.799 56.419L22.8124 56.6298L22.826 56.8405H22.9282H23.0304L23.044 57.0725L23.0575 57.3044H23.1616H23.2658V57.4108V57.517H23.37H23.4722L23.4857 57.6948C23.4915 57.7915 23.4973 57.9481 23.4973 58.0428V58.2129H23.3815H23.2658V58.5512V58.8895H23.1616H23.0594L23.0459 59.0673C23.0401 59.164 23.0343 59.3167 23.0343 59.4057V59.566H22.9282H22.824L22.8183 59.7923L22.8124 60.0204L22.7025 60.0261L22.5906 60.032V60.3683V60.7066H22.4864H22.3823L22.3687 60.9289L22.3552 61.1512H22.2511H22.1469V61.3213C22.1469 61.4161 22.1412 61.5726 22.1353 61.6693L22.1219 61.8471H22.0196H21.9154L21.9115 62.1796L21.9058 62.5141L21.8054 62.5198L21.7071 62.5257L21.6935 62.746L21.68 62.9683H21.5759H21.4717V63.1461C21.4717 63.2447 21.4659 63.3974 21.4582 63.4844L21.4465 63.6448H21.3444H21.2402V63.8226C21.2402 63.9212 21.2344 64.074 21.2267 64.161L21.2151 64.3214H21.1128H21.0087V64.5534V64.7854H20.9026H20.7965V64.9457C20.7965 65.0348 20.7907 65.1875 20.7849 65.284L20.7714 65.462H20.6691H20.5649V65.6224C20.5649 65.7113 20.5592 65.864 20.5534 65.9607L20.5399 66.1385H20.4376H20.3335V66.3608V66.5832H20.2274H20.1213V66.7416C20.1213 66.8305 20.1155 66.9871 20.1077 67.0895L20.0962 67.279H19.992H19.8897V67.4297C19.8897 67.5148 19.884 67.6618 19.8782 67.7584L19.8647 67.9362H19.7625H19.6583V68.1683V68.4002H19.5522H19.446V68.5606C19.446 68.6495 19.4403 68.8022 19.4345 68.8989L19.421 69.0767H19.3187H19.2146V69.2372C19.2146 69.3261 19.2087 69.4789 19.203 69.5754L19.1895 69.7534H19.0873H18.9831V69.9853V70.2173H18.8672H18.7515V70.5556V70.8938H18.6473H18.5432L18.5297 71.1162L18.5162 71.3385H18.4121H18.3078V71.4544V71.5704H18.1921H18.0763V71.6863V71.8024H17.9702H17.8642V71.9087V72.015H17.5169H17.1697V72.1175V72.2218L17.5034 72.2334C17.9297 72.2509 18.7458 72.2509 19.3746 72.2334L19.8704 72.2218V72.1175V72.015H19.5329H19.1952V71.9087V71.8024H19.0892H18.9831V71.4544V71.1065H19.0892H19.1952V70.9267C19.1952 70.8301 19.2011 70.6774 19.2087 70.5883L19.2204 70.4299H19.3225H19.4267L19.4306 70.0858L19.4364 69.7437L19.5348 69.7378L19.6331 69.7321L19.6467 69.5851C19.6524 69.504 19.6583 69.4054 19.6583 69.3628V69.2893H19.7644H19.8704V69.129C19.8704 69.04 19.8763 68.8873 19.882 68.7906L19.8956 68.6128H19.9978H20.102V68.4523C20.102 68.3634 20.1077 68.2107 20.1136 68.1141L20.127 67.9362H20.2293H20.3335V67.7042V67.4723H20.4395H20.5457V67.25V67.0277H23.4876H26.4296V67.1436V67.2597H26.5454H26.6612V67.598V67.9362H26.7653H26.8676L26.8811 68.1141C26.8869 68.2107 26.8926 68.3634 26.8926 68.4523V68.6128H26.9987H27.1049V68.9511V69.2874L27.2167 69.2933L27.3267 69.299L27.3326 69.6316L27.3364 69.966H27.4405H27.5428L27.5563 70.1438C27.5621 70.2405 27.5678 70.3932 27.5678 70.4821V70.6426H27.674H27.7801V71.1065V71.5704H27.8862H27.9922V71.6768V71.783H27.8862H27.7801V71.899V72.015H27.6644H27.5485V72.131V72.2469H29.6958C30.8783 72.2469 32.1458 72.2412 32.5124 72.2334L33.1817 72.2218V72.1175V72.015H32.6223H32.0628V71.9087V71.8043L31.9529 71.7985L31.841 71.7927L31.8352 71.6806L31.8294 71.5704H31.7253H31.6191V71.3481V71.1278L31.5092 71.1219L31.3973 71.1162L31.3914 70.772L31.3876 70.4299H31.2835H31.1812L31.1696 70.2695C31.1619 70.1825 31.1562 70.0298 31.1562 69.9312V69.7534H31.052H30.9497L30.9361 69.5754C30.9304 69.4789 30.9246 69.3261 30.9246 69.2372V69.0767H30.8185H30.7124V68.7384V68.4002H30.6083H30.506L30.4925 68.2223C30.4867 68.1257 30.481 67.973 30.481 67.8841V67.7236H30.3767H30.2745L30.261 67.5458C30.2552 67.4491 30.2494 67.2964 30.2494 67.2075V67.0471H30.1433H30.0372V66.815V66.5832H29.9331H29.8289L29.8153 66.1288L29.8018 65.6746H29.6977H29.5935V65.5141C29.5935 65.4252 29.5877 65.2725 29.582 65.1759L29.5684 64.998H29.4662H29.3621V64.6596V64.3214H29.2462H29.1305V63.9831V63.6448H29.0263H28.924L28.9106 63.467C28.9047 63.3703 28.899 63.2176 28.899 63.1287V62.9683H28.7929H28.6867V62.7886C28.6867 62.6919 28.681 62.5392 28.6733 62.4522L28.6617 62.2936L28.5633 62.2878L28.4649 62.282L28.4591 61.9476L28.4553 61.6152H28.3511H28.2489L28.2373 61.4256C28.2295 61.3232 28.2238 61.1705 28.2238 61.0874V60.9385H28.1197H28.0155L28.0019 60.4843L27.9884 60.0301H27.8843H27.7801V59.6917V59.3554L27.6701 59.3496L27.5582 59.3438L27.5525 59.0094L27.5485 58.6769H27.4443H27.3422L27.3286 58.4991C27.3229 58.4024 27.3171 58.2497 27.3171 58.1608V58.0003H27.211H27.1049V57.7683V57.5364H26.9891H26.8733V57.3141V57.0937L26.7634 57.0879L26.6515 57.0821L26.6457 56.972L26.64 56.8618L26.53 56.8559L26.4201 56.8502L26.4142 56.738L26.4084 56.6278H26.3042H26.1981V56.5119V56.3958H26.0824H25.9667V56.2896V56.1852L25.8567 56.1794L25.7448 56.1736L25.739 56.0615L25.7332 55.9513H25.629H25.523V55.8353V55.7193H25.2915H25.0599V55.6149V55.5106L24.8381 55.4969L24.6162 55.4834V55.3791V55.2747H24.2786H23.941V55.1587V55.0427H21.9154H19.8897V55.1471ZM23.941 59.3341V59.566H24.0452H24.1474L24.159 59.7246C24.1667 59.8135 24.1726 60.0185 24.1726 60.1789V60.4746H24.2883H24.404V60.8129V61.1512H24.5101H24.6162V61.3116C24.6162 61.4005 24.622 61.5533 24.6279 61.6499L24.6413 61.8278H24.7436H24.8478V62.1661V62.5024L24.9597 62.5082L25.0696 62.5141L25.0754 62.8465L25.0792 63.1809H25.1834H25.2857L25.2972 63.3684C25.305 63.4728 25.3107 63.6256 25.3107 63.7067V63.8575H25.4169H25.523V64.2054V64.5534H25.6387H25.7544V64.8917V65.2299H25.8586H25.9608L25.9724 65.3885C25.9801 65.4774 25.986 65.6301 25.986 65.7268V65.9065H26.0921H26.1981V66.1288V66.3511H23.6035H21.0087V66.0129V65.6746H21.1244H21.2402V65.3363V64.998H21.3463H21.4505L21.4562 64.7699L21.462 64.5437L21.5721 64.538L21.6838 64.5321L21.6878 64.1997L21.6935 63.8672L21.8054 63.8614L21.9154 63.8555V63.6351V63.4129H22.0215H22.1276V63.2331C22.1276 63.1364 22.1334 62.9837 22.1412 62.8948L22.1527 62.7363H22.2549H22.3592V62.398V62.0597H22.4749H22.5906V61.8278V61.5958H22.6967H22.8028V61.4353C22.8028 61.3464 22.8086 61.1937 22.8144 61.0971L22.8279 60.9193H22.9302H23.0343L23.0382 60.5848L23.044 60.2523L23.1558 60.2465L23.2658 60.2407V60.0107V59.7787H23.37H23.4722L23.4838 59.6183C23.4915 59.5313 23.4973 59.3844 23.4973 59.2915V59.1234L23.6188 59.1156C23.6844 59.1118 23.7847 59.108 23.8408 59.1061L23.941 59.1021V59.3341Z" fill="white"/>
    <path d="M34.9952 55.1491V55.2554H35.2268H35.4582V55.3713V55.4874H35.7957H36.1334V55.6033V55.7193H36.3649H36.5964V55.8237V55.9281L36.8067 55.9416L37.0169 55.9551L37.0305 56.1755L37.044 56.3958H37.1482H37.2523V56.5119V56.6278H37.1462H37.0402V64.045C37.0402 68.1257 37.0343 71.5356 37.0266 71.6226L37.015 71.783H36.9128H36.8086V71.899V72.015H36.3552H35.9019V72.1175V72.2218L36.4093 72.2334C37.0555 72.2509 37.8252 72.2509 38.2709 72.2334L38.622 72.2218V72.1175V72.015H38.2748H37.9275V71.899V71.783H37.8233H37.7192L37.7057 71.5453C37.6999 71.4158 37.6961 68.1083 37.6999 64.1957L37.7057 57.0821L37.8273 57.0763L37.9468 57.0705V57.1884V57.3044H38.0625H38.1783V57.4108V57.517H38.2845H38.3905V57.8553V58.1916L38.5025 58.1975L38.6124 58.2033L38.6182 58.5455L38.622 58.8895H38.7281H38.8343V59.05C38.8343 59.1389 38.84 59.2915 38.8458 59.3882L38.8593 59.566H38.9616H39.0657V59.744C39.0657 59.8426 39.0716 59.9953 39.0792 60.0822L39.0909 60.2427H39.193H39.2972V60.581V60.9193H39.4014H39.5036L39.5172 61.0971C39.5229 61.1937 39.5288 61.3464 39.5288 61.4353V61.5958H39.6349H39.7409V61.7736C39.7409 61.8722 39.7468 62.0249 39.7545 62.1119L39.7661 62.2704L39.8644 62.2763L39.9629 62.282L39.9686 62.6146L39.9725 62.9489H40.0767H40.1789L40.1924 63.1268C40.1981 63.2234 40.204 63.38 40.204 63.4748V63.6448H40.31H40.4142L40.42 63.871L40.4258 64.0992L40.5377 64.1049L40.6477 64.1108V64.2151V64.3214H40.5416H40.4354V64.4278V64.534H40.5416H40.6477V64.8724V65.2086L40.7596 65.2145L40.8695 65.2202L40.8753 65.5528L40.8792 65.8872H40.9833H41.0856L41.0991 66.065C41.1049 66.1617 41.1106 66.3182 41.1106 66.413V66.5832H41.2149H41.317L41.3306 66.761C41.3363 66.8577 41.3422 67.0103 41.3422 67.0992V67.2597H41.4483H41.5543V67.598V67.9362H41.6585H41.7608L41.7744 68.1141C41.7801 68.2107 41.7859 68.3634 41.7859 68.4523V68.6128H41.892H41.9981V68.7906C41.9981 68.8892 42.0039 69.042 42.0115 69.129L42.0232 69.2893H42.1254H42.2295V69.6276V69.966H42.3338H42.436L42.4495 70.1438C42.4553 70.2405 42.4611 70.397 42.4611 70.4918V70.6618H42.5653H42.6675L42.681 70.8398C42.6868 70.9363 42.6926 71.0833 42.6926 71.1683V71.3191H42.7986H42.9048V71.435V71.5511H43.0109H43.1151L43.1209 71.6709L43.1266 71.7927L43.2482 71.7985L43.3678 71.8043V71.9087V72.015H43.4836H43.5993V72.1175V72.2218L43.9215 72.2334C44.0971 72.2412 44.4482 72.2469 44.7028 72.2469H45.162V72.131V72.015H45.2681H45.3741V71.8546C45.3741 71.7676 45.38 71.6109 45.3876 71.5066L45.3992 71.3191H45.4995H45.6018L45.6152 70.8744L45.6288 70.4299H45.733H45.8372V70.3139V70.1979H45.9432H46.0493V70.0374C46.0493 69.9485 46.0552 69.7959 46.0609 69.6992L46.0745 69.5214H46.1766H46.2809V69.3609C46.2809 69.272 46.2866 69.1193 46.2925 69.0226L46.3059 68.8448H46.4082H46.5124V68.6128V68.3809H46.6184H46.7245V68.2301C46.7245 68.1489 46.7304 67.9962 46.7381 67.8917L46.7497 67.7042H46.8538H46.9561V67.5439C46.9561 67.4549 46.9618 67.3022 46.9677 67.2055L46.9811 67.0277H47.0834H47.1876V66.8054V66.5832H47.3033H47.419V66.2352V65.8872H47.5252H47.6313V65.7365C47.6313 65.6552 47.637 65.5025 47.6447 65.3982L47.6563 65.2107H47.7605H47.8627V64.9883V64.766H47.9785H48.0943V64.4799C48.0943 64.3234 48.1 64.1243 48.1078 64.0353L48.1193 63.8768H48.21H48.3027L48.3161 63.6448L48.3296 63.4129H48.4338H48.5379V63.2525C48.5379 63.1636 48.5438 63.0108 48.5496 62.9142L48.5631 62.7363H48.6653H48.7695V62.5044V62.2723H48.8756H48.9817V62.1216C48.9817 62.0405 48.9875 61.8876 48.9952 61.7833L49.0068 61.5958H49.107H49.2074L49.2209 61.418C49.2267 61.3213 49.2324 61.1222 49.2324 60.9733V60.7066H49.3367H49.4409L49.4543 60.4843L49.4678 60.262H49.572H49.6762V60.0204V59.7787H49.7803H49.8826L49.8941 59.6183C49.9019 59.5313 49.9077 59.3785 49.9077 59.2799V59.1021H50.0138H50.1199V58.9959V58.8895H50.2356H50.3513V58.7735V58.6556L50.4633 58.6614L50.5733 58.6672L50.579 65.1178L50.5829 71.5704H50.4788H50.3726L50.3668 71.6806L50.361 71.7927L50.2511 71.7985L50.1392 71.8043V71.9087V72.015H49.6858H49.2324V72.1175V72.2218L49.9019 72.2334C50.2684 72.2412 51.3352 72.2469 52.271 72.2469C53.2066 72.2469 54.2734 72.2412 54.6399 72.2334L55.3094 72.2218V72.1175V72.015H54.856H54.4027V71.9087V71.8024H54.2965H54.1904V71.6863V71.5704H54.0747H53.959V63.6448V55.7193H54.0747H54.1904V55.6033V55.4874H54.2965H54.4027V55.381V55.2747H54.6785C54.831 55.2747 55.0355 55.2689 55.1319 55.2631L55.3094 55.2496V55.1471V55.0427H52.9461H50.5829V55.7735C50.5829 56.1774 50.5771 56.5854 50.5714 56.6819L50.5578 56.8599H50.4652H50.3746L50.361 57.0821L50.3475 57.3044H50.2434H50.1392V57.4648C50.1392 57.5538 50.1334 57.7064 50.1276 57.8031L50.1142 57.9809H50.0119H49.9077L49.9038 58.3232L49.8981 58.6672L49.7881 58.673L49.6762 58.6788V58.8992V59.1215H49.5701H49.464V59.282C49.464 59.3709 49.4582 59.5236 49.4524 59.6202L49.4389 59.7981H49.3367H49.2324V59.9585C49.2324 60.0474 49.2267 60.2001 49.2209 60.2968L49.2074 60.4746H49.1051H49.001V60.7066V60.9385H48.8949H48.7888V61.099C48.7888 61.1879 48.783 61.3407 48.7771 61.4373L48.7637 61.6152H48.6614H48.5572V61.7755C48.5572 61.8646 48.5515 62.0172 48.5457 62.1139L48.5322 62.2917H48.4299H48.3258V62.5141V62.7363H48.2216H48.1174L48.104 63.1809L48.0904 63.6235L47.9805 63.6294L47.8724 63.6351L47.8667 63.871L47.8608 64.1087H47.7567H47.6506V64.3311V64.5534H47.5349H47.419V64.8917V65.2299H47.3148H47.2126L47.201 65.3885C47.1934 65.4774 47.1876 65.6301 47.1876 65.7268V65.9065H47.0815H46.9773L46.9715 66.1326L46.9657 66.3608L46.8557 66.3666L46.7438 66.3724V66.7088V67.0471H46.6397H46.5374L46.5258 67.2055C46.5181 67.2945 46.5124 67.4472 46.5124 67.5439V67.7236H46.4063H46.3001V67.9459V68.1683H46.1844H46.0686V68.5065V68.8448H45.8372H45.6056V68.6225V68.4002H45.5014H45.3992L45.3857 68.2223C45.38 68.1257 45.3741 67.973 45.3741 67.8841V67.7236H45.2681H45.162V67.3853V67.049L45.052 67.0431L44.9401 67.0374L44.9343 66.7029L44.9304 66.3705H44.8243H44.7183V66.1907C44.7183 66.094 44.7124 65.9413 44.7047 65.8524L44.6931 65.6939H44.5908H44.4867V65.5044C44.4867 65.402 44.481 65.2454 44.4732 65.1565L44.4616 64.998H44.3594H44.2552V64.6596V64.3214H44.151H44.0488L44.0353 64.1436C44.0295 64.0469 44.0238 63.8942 44.0238 63.8053V63.6448H43.9176H43.8115V63.4651C43.8115 63.3684 43.8058 63.2157 43.798 63.1287L43.7865 62.9702L43.688 62.9645L43.5897 62.9586L43.5838 62.6241L43.58 62.2917H43.4759H43.3736L43.3601 62.1139C43.3543 62.0172 43.3485 61.8646 43.3485 61.7755V61.6152H43.2443H43.1401L43.1266 61.1608L43.1132 60.7066H43.009H42.9048V60.581V60.4553H42.8007H42.6965L42.6829 60.0107L42.6675 59.566H42.5672H42.4649L42.4515 59.1215L42.438 58.6769H42.3357H42.2354L42.2238 58.4874C42.2161 58.385 42.2103 58.2323 42.2103 58.1511V58.0022L42.11 57.9965L42.0077 57.9906L42.002 57.7645L41.9962 57.5383L41.8862 57.5326L41.7763 57.5267L41.7704 57.3102L41.7647 57.0937L41.6547 57.0879L41.5447 57.0821L41.539 56.9699L41.5331 56.8599H41.429H41.3229V56.7438V56.6278H41.2072H41.0914V56.5216V56.4171L40.9814 56.4114L40.8695 56.4055L40.8638 56.2934L40.8579 56.1832H40.7538H40.6477V56.0672V55.9513H40.532H40.4161V55.8353V55.7193H40.1847H39.9532V55.6149V55.5106L39.7313 55.4969L39.5095 55.4834V55.3791V55.2747H39.2336C39.0812 55.2747 38.8767 55.2689 38.7803 55.2631L38.6027 55.2496V55.1471V55.0427H37.2523H35.9019V55.1491V55.2554H35.7957H35.6897V55.1491V55.0427H35.3425H34.9952V55.1491Z" fill="white"/>
    <path d="M57.8019 55.1529L57.8077 55.265L58.1511 55.2708L58.4926 55.2747V55.381V55.4874H58.5987H58.7047V55.7096V55.93L58.8166 55.9359L58.9267 55.9416L58.9324 63.6448C58.9363 67.8822 58.9324 71.4447 58.9267 71.5626L58.9131 71.7792L58.7028 71.7927L58.4926 71.8062V71.9106V72.015H58.0392H57.5858V72.1175V72.2218L58.0932 72.2334C58.7472 72.2509 62.5997 72.2509 62.8293 72.2353L63.0068 72.2218V72.1194V72.015H62.7772H62.5476L62.5342 71.7927L62.5207 71.5704H62.4164H62.3123V63.6448V55.7193H62.4185H62.5226L62.5283 55.6072L62.5342 55.4969L62.6461 55.4912L62.756 55.4853V55.381V55.2747H63.0319C63.1843 55.2747 63.3887 55.2689 63.4853 55.2631L63.6628 55.2496V55.1471V55.0427H60.7304H57.7961L57.8019 55.1529Z" fill="white"/>
    <path d="M66.3828 55.1471V55.2515L66.8362 55.265L67.2895 55.2786V55.3829V55.4874H67.6271H67.9646V55.6033V55.7193H68.1866H68.4084V55.8256V55.9319H68.5241H68.64V56.048V56.162L68.8676 56.1678L69.0932 56.1736L69.0991 63.7512C69.1029 67.9189 69.0991 71.435 69.0932 71.5646L69.0798 71.8024H68.9756H68.8714V71.9087V72.015H68.64H68.4084V72.1194V72.2218L68.5858 72.2353C68.8116 72.2509 69.5909 72.2509 70.4398 72.2334L71.1093 72.2218V72.1175V72.015H70.5498H69.9903V71.899V71.783H69.8862H69.7839L69.7723 71.6226C69.7646 71.5356 69.7589 68.3499 69.7589 64.5437C69.7589 60.7375 69.7646 57.5518 69.7723 57.4629L69.7839 57.3044H69.8862H69.9903V57.4108V57.5151L70.1022 57.521L70.2121 57.5267L70.218 57.6369L70.2238 57.749H70.326H70.4301L70.4437 57.9714L70.4572 58.1936H70.5594H70.6598L70.6752 58.4256L70.6886 58.6576H70.7793H70.872L70.8835 58.816C70.8913 58.9049 70.8971 59.0558 70.8971 59.1543V59.3322L71.0089 59.338L71.1189 59.3438L71.1246 59.5603L71.1305 59.7787H71.2327H71.335L71.3504 60.0107L71.364 60.2427H71.4681H71.5723V60.581V60.9193H71.688H71.8037V61.1416V61.3638H71.9079H72.0121L72.0256 61.5958L72.0391 61.8278H72.1433H72.2475V62.1661V62.5044H72.3632H72.4789V62.7267V62.9489H72.5831H72.6873L72.7009 63.1809L72.7143 63.4129H72.8166H72.9168L72.9304 63.5907C72.9361 63.6874 72.942 63.8401 72.942 63.929V64.0895H73.0481H73.1541V64.3118V64.5321L73.266 64.538L73.3761 64.5437L73.3818 64.7699L73.3876 64.998H73.4899H73.594L73.6075 65.2202L73.621 65.4426H73.7253H73.8294V65.7808V66.1172L73.9412 66.1231L74.0512 66.1288L74.0571 66.355L74.0628 66.5832H74.1651H74.2692L74.2827 66.8054L74.2963 67.0277H74.4005H74.5046V67.366V67.7042H74.6204H74.7361V67.9362V68.1683H74.8403H74.9444L74.958 68.3905L74.9715 68.6128H75.0737H75.174L75.1876 68.7906C75.1933 68.8873 75.1991 69.04 75.1991 69.129V69.2893H75.3052H75.4113V69.5117V69.7321L75.5232 69.7378L75.6332 69.7437L75.6389 69.8539L75.6448 69.966H75.747H75.8493L75.8647 70.1979L75.8781 70.4299H75.9823H76.0865V70.5362V70.6406L76.1984 70.6464L76.3084 70.6522L76.3141 70.7623L76.3199 70.8725L76.43 70.8784L76.5398 70.8841L76.5457 70.9924L76.5514 71.1026L76.7618 71.1162L76.972 71.1297L76.9777 71.2302L76.9836 71.3288L77.1051 71.3345L77.2247 71.3404V71.4428V71.5472L77.4466 71.5607L77.6684 71.5742V71.6768V71.7792L77.8903 71.7927L78.1121 71.8062V71.9106V72.015H78.3436H78.5752V72.1194V72.2237L79.0246 72.2374C79.2697 72.2431 79.6767 72.2469 79.9256 72.2431L80.3789 72.2374L80.3847 72.1252L80.3905 72.015H80.4947H80.6008V72.1213V72.2277H80.703H80.8072L80.8187 71.7308C80.8265 71.4583 80.8323 67.7449 80.8323 63.4767V55.7193H80.9384H81.0445V55.6033V55.4874H81.1602H81.2759V55.381V55.2747L81.6194 55.2708L81.9608 55.265L81.9666 55.1529L81.9725 55.0427H80.4947H79.0189V55.1471V55.2496L79.1964 55.2631C79.2928 55.2689 79.4491 55.2747 79.5436 55.2747H79.7134V55.381V55.4874H79.8195H79.9256V55.6033V55.7193H80.0413H80.157V63.0745V70.4299H80.0316H79.9063V70.3235V70.2173H79.8002H79.6941V70.1033V69.9891L79.4722 69.9756L79.2504 69.9621V69.7959C79.2504 69.703 79.2445 69.5562 79.2369 69.4673L79.2252 69.3087H79.1231H79.0189V68.9705V68.6341L78.9089 68.6282L78.797 68.6225L78.7913 68.3944L78.7854 68.1683H78.6832H78.579L78.5655 67.9459L78.5519 67.7236H78.4478H78.3436V67.3853V67.0471H78.2279H78.1121V66.815V66.5832H78.008H77.9038L77.8903 66.3608L77.8768 66.1385H77.7745H77.6743L77.6627 65.9491C77.655 65.8467 77.6491 65.6938 77.6491 65.6108V65.462H77.543H77.437V65.3363V65.2107H77.3328H77.2305L77.219 65.0502C77.2112 64.9632 77.2054 64.8163 77.2054 64.7215V64.5534H77.1012H76.997L76.9836 64.3214L76.9701 64.0895H76.8659H76.7618V63.7608V63.4341L76.6518 63.4284L76.5398 63.4225L76.5341 63.1944L76.5283 62.9683H76.426H76.3219L76.3084 62.746L76.2949 62.5236H76.1907H76.0865V62.1854V61.849L75.9766 61.8433L75.8647 61.8374L75.8588 61.6093L75.8531 61.3832H75.7508H75.6467L75.6332 61.1512L75.6196 60.9193H75.5175H75.4171L75.4036 60.7414C75.3978 60.6448 75.392 60.4978 75.392 60.4147V60.2639L75.2917 60.2581L75.1895 60.2523L75.1836 60.0242L75.1779 59.7981H75.0756H74.9715L74.958 59.566L74.9444 59.3341H74.8403H74.7361V59.2182V59.1021H74.6204H74.5046V58.9959V58.8895H74.6107H74.7168V58.7832V58.6769H74.6107H74.5046V58.445V58.2129H74.3889H74.273V57.9906V57.7683H74.1689H74.0647L74.0512 57.5364L74.0378 57.3044H73.9336H73.8294V57.1981V57.0937L73.7194 57.0879L73.6075 57.0821L73.6018 56.972L73.5959 56.8618L73.4859 56.8559L73.3761 56.8502L73.3702 56.74L73.3645 56.6298L73.2545 56.624L73.1445 56.6181L73.1388 56.5176L73.1329 56.4171L73.0327 56.4114L72.9323 56.4055L72.9265 56.2953L72.9208 56.1852L72.8108 56.1794L72.7009 56.1736L72.695 56.0653L72.6893 55.9551L72.4693 55.9416L72.2475 55.9281V55.8237V55.7193H72.1318H72.016V55.613V55.5066H71.8558C71.7672 55.5066 71.6147 55.5009 71.5182 55.495L71.3407 55.4815V55.3791V55.2747H71.0032H70.6655V55.1587V55.0427H68.5241H66.3828V55.1471Z" fill="white"/>
    <path d="M26.8926 72.1215V72.2278H27.1144H27.3364V72.1215V72.0151H27.1144H26.8926V72.1215Z" fill="white"/>
    <path d="M63.219 72.1215V72.2278H63.4408H63.6627V72.1215V72.0151H63.4408H63.219V72.1215Z" fill="white"/>
    <path d="M67.9647 72.1215V72.2278H68.0804H68.1962V72.1215V72.0151H68.0804H67.9647V72.1215Z" fill="white"/>
    <path d="M15.3756 77.5514V77.6558L15.5878 77.6694C15.7055 77.677 15.9042 77.677 16.0315 77.6694L16.2631 77.6558V77.5514V77.447H15.8193H15.3756V77.5514Z" fill="white"/>
    <path d="M39.0792 77.6056C39.0716 77.6945 39.0657 78.1487 39.0657 78.6185V79.4709L38.9076 79.4825C38.8188 79.4903 38.6144 79.496 38.4542 79.496H38.1591V79.3801V79.264H37.8214H37.4838V79.3801V79.496H37.262H37.0402V79.6024V79.7087H36.9243H36.8086V79.8246V79.9407H36.7025H36.5964V80.0586V80.1785L36.7565 80.1669C36.8434 80.1591 36.9379 80.1533 36.9667 80.1533H37.0169L37.0305 79.931L37.044 79.7087H38.0549H39.0657V81.6321V83.5554H38.7282H38.3905V83.6734V83.7932L38.8246 83.7835C39.0638 83.7778 39.2663 83.7681 39.2741 83.7604C39.2915 83.741 39.3049 78.0018 39.2877 77.6829L39.2741 77.447H39.1815H39.0909L39.0792 77.6056Z" fill="white"/>
    <path d="M53.0715 78.1236V78.8001H53.1776H53.2838V78.1236V77.447H53.1776H53.0715V78.1236Z" fill="white"/>
    <path d="M14.9221 77.9013L14.9086 78.1235H14.8082H14.706L14.6944 78.4754C14.6868 78.6667 14.681 78.9761 14.681 79.1615V79.496H14.5749H14.4687V79.6023V79.7086H14.573H14.6771L14.6906 80.1765C14.6984 80.4355 14.6984 81.2764 14.6925 82.0477C14.6868 82.8189 14.6868 83.5207 14.6944 83.6077L14.706 83.7681H14.8082H14.9124V81.7384V79.7086H15.4815H16.0526L16.0468 79.5965L16.041 79.4864L15.5973 79.4844C15.3542 79.4844 15.0995 79.4824 15.034 79.4805L14.9124 79.4767V78.8002V78.1235H15.0186H15.1247V77.9013V77.679H15.0302H14.9357L14.9221 77.9013Z" fill="white"/>
    <path d="M48.5573 78.9779C48.5573 79.0765 48.5515 79.2291 48.5457 79.3142L48.5322 79.4726L48.3239 79.4863L48.1136 79.4998V79.6041V79.7066L48.3316 79.7124L48.5476 79.7182L48.5534 81.5198L48.5573 83.3234H48.6635H48.7695V81.5159V79.7085H49.329H49.8884V79.6041V79.5017L49.7303 79.4901C49.6415 79.4823 49.3907 79.4766 49.1708 79.4766H48.7695V79.1383V78.8H48.6635H48.5573V78.9779Z" fill="white"/>
    <path d="M20.3335 79.3703V79.4767H20.4396H20.5456V79.3703V79.2639H20.4396H20.3335V79.3703Z" fill="white"/>
    <path d="M32.0823 79.3703V79.4767H32.2944H32.5067V79.3703V79.2639H32.2944H32.0823V79.3703Z" fill="white"/>
    <path d="M43.3638 79.3741L43.3581 79.4862L43.0263 79.4921L42.6926 79.4959V79.5597C42.6926 79.5926 42.6867 79.6931 42.679 79.7801L42.6674 79.9405H42.7871H42.9047V79.8245V79.7086L43.9233 79.7124L44.9401 79.7183L44.9458 81.6358L44.9497 83.5553H44.7799C44.6854 83.5553 44.5291 83.5612 44.4307 83.5689L44.2532 83.5805L44.259 83.6791L44.2648 83.7777L44.4963 83.7834C44.6236 83.7874 44.8262 83.7834 44.9458 83.7777L45.1619 83.7641V81.7363V79.7086H45.0558H44.9497V79.6022V79.4959H44.4867H44.0236V79.38V79.2639H43.6956H43.3697L43.3638 79.3741Z" fill="white"/>
    <path d="M57.5858 79.3703V79.4767H57.6919H57.7981V79.3703V79.2639H57.6919H57.5858V79.3703Z" fill="white"/>
    <path d="M63.6819 79.3703V79.4767H63.788H63.8941V79.3703V79.2639H63.788H63.6819V79.3703Z" fill="white"/>
    <path d="M27.3364 81.5141V83.5496L27.1589 83.5631C27.0624 83.5689 26.6071 83.5747 26.1461 83.5747H25.3107V83.6713V83.768H26.0978C26.53 83.768 27.0336 83.7738 27.2168 83.7815L27.5486 83.7931V81.6358V79.4766H27.4425H27.3364V81.5141Z" fill="white"/>
    <path d="M30.9439 81.6202V83.768H31.05H31.1561V81.7382V79.7085H31.2816H31.4069V79.6022V79.4958H31.3356C31.295 79.4958 31.1909 79.4901 31.104 79.4823L30.9439 79.4707V81.6202Z" fill="white"/>
    <path d="M53.0715 81.6318V83.7872H53.1776H53.2838V81.6318V79.4766H53.1776H53.0715V81.6318Z" fill="white"/>
    <path d="M62.4433 79.4902L62.3354 79.498L62.3219 79.7144C62.316 79.8343 62.3122 80.7486 62.316 81.748L62.3219 83.565H62.428H62.534L62.5399 81.6359L62.5437 79.7087H62.9874H63.4312V79.6023V79.4959H63.1475C62.9893 79.4959 62.7926 79.4921 62.7077 79.4883C62.6228 79.4844 62.5051 79.4844 62.4433 79.4902Z" fill="white"/>
    <path d="M19.4421 79.6061L19.4363 79.7182L19.3264 79.7239L19.2145 79.7298V79.8979C19.2145 79.9908 19.2086 80.1377 19.201 80.2247L19.1893 80.385H19.0872H18.9829V81.6319V82.8787H19.0872H19.1893L19.201 83.0373C19.2086 83.1262 19.2145 83.2788 19.2145 83.3755V83.5553H19.4266H19.637L19.6427 83.6655L19.6486 83.7776L19.9919 83.7834L20.3334 83.7873V83.8935V83.9999H20.4395H20.5456V83.8935V83.7873H20.4395H20.3334V83.6829V83.5804L20.1559 83.5669C20.0594 83.5611 19.9031 83.5553 19.8086 83.5553H19.6389V83.449V83.3426H19.5328H19.4266V81.6319V79.9211H19.5328H19.6389V79.8149V79.7085H19.8704H20.1018V79.6022V79.4958H19.7739H19.4479L19.4421 79.6061Z" fill="white"/>
    <path d="M20.5651 79.6022V79.7085H20.7869H21.0088V79.6022V79.4958H20.7869H20.5651V79.6022Z" fill="white"/>
    <path d="M21.2402 79.7085V79.9192L21.3521 79.9249L21.462 79.9308V81.6319V83.3329L21.3521 83.3388L21.2402 83.3445V83.4606V83.5765L21.3521 83.5707L21.462 83.5649L21.4678 83.4528L21.4735 83.3426H21.5778H21.6839V81.5352V79.7298L21.5739 79.7239L21.462 79.7182L21.4563 79.6061L21.4504 79.4958H21.3462H21.2402V79.7085Z" fill="white"/>
    <path d="M31.6192 79.6022V79.7085H31.7253H31.8314V79.6022V79.4958H31.7253H31.6192V79.6022Z" fill="white"/>
    <path d="M32.5258 79.6022V79.7085H32.7477H32.9695V79.6022V79.4958H32.7477H32.5258V79.6022Z" fill="white"/>
    <path d="M56.9105 79.6022V79.7085H57.2385H57.5664V79.6022V79.4958H57.2385H56.9105V79.6022Z" fill="white"/>
    <path d="M58.0297 79.6022V79.7085H58.3672H58.7049V79.8246V79.9405H58.8206H58.9363V81.6319V83.3234H59.0425H59.1486V81.6319V79.9405H59.0425H58.9363V79.8246V79.7085H58.8206H58.7049V79.6022V79.4958H58.3672H58.0297V79.6022Z" fill="white"/>
    <path d="M63.9134 79.6022V79.7085H64.2414H64.5693V79.6022V79.4958H64.2414H63.9134V79.6022Z" fill="white"/>
    <path d="M24.8477 81.4097V83.1107H24.9518H25.056L25.0695 83.3331L25.0829 83.5553H25.1871H25.2913V83.3331V83.1107H25.1814H25.0695L25.0753 81.4097L25.081 79.7085H24.9653H24.8477V81.4097Z" fill="white"/>
    <path d="M32.9888 79.813V79.9213H33.0948H33.201V81.748V83.5767L33.3128 83.5709L33.4228 83.5651V81.6572C33.4228 80.6094 33.419 79.7454 33.4132 79.7416C33.4075 79.7357 33.3109 79.726 33.1971 79.7184L32.9888 79.7048V79.813Z" fill="white"/>
    <path d="M56.679 79.8246V79.9405H56.5633H56.4474V80.0565V80.1724H56.5112C56.544 80.1724 56.6442 80.1667 56.733 80.1589L56.8912 80.1473V79.9289V79.7085H56.7851H56.679V79.8246Z" fill="white"/>
    <path d="M64.5887 79.8244V79.9405H64.6851H64.7816V79.8244V79.7085H64.6851H64.5887V79.8244Z" fill="white"/>
    <path d="M64.8008 81.8544V83.7682H64.905H65.0092L65.0169 83.6464C65.0188 83.5807 65.0209 82.7204 65.0169 81.7326L65.0112 79.9407H64.905H64.8008V81.8544Z" fill="white"/>
    <path d="M42.4611 81.7384V83.3235H42.5672H42.6733V81.7384V80.1533H42.5672H42.4611V81.7384Z" fill="white"/>
    <path d="M36.5964 81.8543V83.3235H36.8086H37.0209V83.2171V83.1108H36.9147H36.8086V81.748V80.3853H36.7025H36.5964V81.8543Z" fill="white"/>
    <path d="M56.4474 81.8543V83.3235H56.6694H56.8912V83.2171V83.1108H56.7813H56.6694L56.6751 81.748L56.6828 80.3853H56.5652H56.4474V81.8543Z" fill="white"/>
    <path d="M58.7047 83.4394V83.5553H58.8204H58.9381L58.9324 83.4432L58.9265 83.3331L58.8166 83.3273L58.7047 83.3215V83.4394Z" fill="white"/>
    <path d="M42.6734 83.4491V83.5554H42.7891H42.9049V83.4491V83.3428H42.7891H42.6734V83.4491Z" fill="white"/>
    <path d="M48.7889 83.4491V83.5554H48.895H49.0011V83.6599V83.7623L49.3772 83.7758C49.5837 83.7836 49.8365 83.7836 49.9367 83.7758L50.12 83.7623V83.6715V83.5786L49.8943 83.5651C49.7689 83.5574 49.5933 83.5554 49.5026 83.5613C49.412 83.569 49.2634 83.569 49.1708 83.5613L49.0011 83.5497V83.4472V83.3428H48.895H48.7889V83.4491Z" fill="white"/>
    <path d="M20.7907 83.5689C20.7831 83.5748 20.7772 83.627 20.7772 83.685V83.7874H20.893H21.0088V83.6715V83.5554H20.9065C20.8486 83.5554 20.7965 83.5613 20.7907 83.5689Z" fill="white"/>
    <path d="M37.152 83.569L37.04 83.5767V83.6695V83.7623L37.2099 83.7758C37.3025 83.7817 37.4548 83.7817 37.5474 83.7758L37.7153 83.7623V83.6715V83.5806L37.5378 83.5671C37.4413 83.5613 37.3391 83.5574 37.3121 83.5593C37.2851 83.5612 37.2118 83.5651 37.152 83.569Z" fill="white"/>
    <path d="M57.0224 83.5689L56.9105 83.5767V83.6695V83.7623L57.0707 83.7739C57.1575 83.7816 57.3041 83.7874 57.3986 83.7874H57.5664V83.6715V83.5554L57.3504 83.5594C57.2308 83.5613 57.0823 83.5651 57.0224 83.5689Z" fill="white"/>
    <path d="M58.0297 83.6715V83.7874H58.1897C58.2785 83.7874 58.431 83.7816 58.5274 83.7758L58.7049 83.7623V83.6715V83.5806L58.5274 83.567C58.431 83.5613 58.2785 83.5554 58.1897 83.5554H58.0297V83.6715Z" fill="white"/>
    <path d="M43.1364 83.681V83.7873H43.2425H43.3486V83.681V83.5747H43.2425H43.1364V83.681Z" fill="white"/>
    </g>
    <defs>
    <clipPath id="clip0_938_1097">
    <rect width="82" height="84" fill="white"/>
    </clipPath>
    </defs>
    </svg>
    