<svg width="1052" height="696" viewBox="0 0 1052 696" fill="none" xmlns="http://www.w3.org/2000/svg">
<g clip-path="url(#clip0_102_17)">
<path d="M556.427 471.193L553.968 473.106L548.684 478.39L548.046 478.937L547.408 479.21L546.862 479.119L546.224 479.21L545.86 479.392L545.495 479.666L541.487 484.038L541.031 484.767L540.667 485.314L540.576 485.678V486.043L540.667 486.407L540.758 486.68L541.031 487.318L541.396 487.865L543.036 489.96L543.218 490.233L543.4 490.506V490.962L543.309 491.509L543.036 491.782L542.762 491.964L533.926 495.153L531.101 496.155L523.813 499.161L521.354 500.801L516.525 506.176L515.706 506.996L514.066 504.9L512.79 504.171L511.242 504.354L507.142 506.358L505.776 506.722L504.227 506.358L502.587 505.538L494.115 499.434L486.736 494.15L480.814 489.96L477.626 486.589L471.978 478.663L468.607 475.384L461.228 470.191L443.737 457.71L435.173 451.516L427.976 446.323L421.781 441.95L418.684 438.853L418.137 438.488L414.311 433.66L413.765 431.838L412.854 427.921L412.671 426.372L412.854 424.914L413.309 423.639L413.582 422.364L413.4 420.906L411.76 417.353L411.578 415.896V414.074L411.305 412.707L410.941 411.432L409.574 408.699L409.21 407.423L409.027 404.508L408.572 403.87L404.199 401.32L401.648 400.591L400.464 399.68L400.282 399.224L411.305 385.468L414.038 379.547L413.4 377.178L411.669 374.536L403.015 364.788L414.949 359.049V358.047L399.917 337.094L418.684 329.988L423.148 330.079L424.788 333.997L426.154 336.274L434.991 346.842L442.188 359.505L443.463 360.233L448.109 361.236L455.033 363.969L463.232 368.615L479.174 378.453L480.359 380.549L482.272 382.462L482.181 383.828L488.558 381.642L492.293 375.994L495.481 369.435L496.392 368.068L497.394 367.157L498.488 366.793L499.49 367.066L500.492 367.977L501.585 369.617L501.858 371.985L501.949 376.54L502.678 378.089L504.956 378.909L519.258 380.64L520.443 379.456L522.083 373.261L523.085 372.714L524.907 371.985L531.921 371.712L534.199 371.257L535.93 370.528L537.57 368.068L538.207 368.159L538.663 369.799L539.847 376.905L540.303 378.727L541.031 380.822L542.853 382.28L544.675 383.373L549.959 384.648L565.993 385.741L568.544 385.013L567.268 389.385L566.995 391.116L566.904 392.938V394.669L566.995 396.127L567.268 396.947L567.177 397.767L566.448 397.676L563.715 397.129L563.169 397.038L562.713 397.22L562.258 397.584L561.711 398.495L561.62 399.315L560.162 403.779L558.978 405.146L558.067 406.057L556.883 409.883L556.245 411.067L550.05 410.976L548.866 410.612L547.682 409.792L546.68 408.881L545.586 408.608H544.402L542.58 408.881L541.669 409.427L541.214 409.974L541.031 410.612L540.94 411.341V411.887L541.214 413.254L542.58 414.62L541.669 417.171L541.214 417.626L540.94 417.718V417.9L541.031 418.173L541.578 419.175L543.127 420.724L543.947 421.817L544.22 422.273L544.129 422.455L542.58 422.637L542.216 422.728L541.851 423.001L541.487 423.275L540.94 423.366L540.211 424.003L537.661 429.105L536.932 430.107L536.021 431.018L535.019 431.747L531.83 433.205L531.375 434.116L531.01 434.571L530.828 434.844L529.097 437.031L528.186 438.944L527.457 440.675L528.277 442.406L532.104 447.781L533.652 448.783L536.112 450.149L536.203 450.514L536.476 451.151L536.659 451.698L537.387 452.153H538.389L540.667 451.151L541.487 451.242L541.942 452.062L548.319 455.069L549.23 456.617L549.686 458.166V459.35L549.868 460.808L550.324 462.265L551.326 462.812L552.601 463.268L553.421 463.723L554.332 464.725L555.152 465.818L555.425 466.274L555.698 467.003L556.245 468.825L556.336 469.28L556.427 471.193Z" fill="#BCE1E2" stroke="white" stroke-width="1.822" stroke-linecap="round" stroke-linejoin="round"/>
<path d="M403.015 364.788L411.669 374.536L413.4 377.178L414.038 379.546L411.305 385.468L400.282 399.224L400.191 399.133L399.735 397.493L399.462 396.855L397.458 394.214L396.729 392.756L395.636 388.474L394.998 387.472L393.267 385.559L392.72 384.648L392.265 383.19L391.718 380.002L389.987 374.08L389.441 372.714L389.805 372.167L389.532 371.165L389.441 366.246L389.259 364.788L388.803 363.604L384.886 357.045L383.884 355.952L372.041 347.206L367.486 345.202L362.293 343.835L360.38 343.562L359.196 344.2L358.467 345.657L357.92 348.117L356.645 348.846L355.643 351.123L354.094 352.763L352.272 353.674L350.268 353.765L348.173 352.854L342.707 348.937H341.704L338.607 349.483L338.334 348.846L338.152 348.208L337.969 348.026L336.967 349.757L336.603 350.121L336.238 350.486L333.688 347.844L330.044 346.933L319.385 347.57L312.917 349.757H309.728L307.906 349.301L306.449 348.208L303.534 345.293L300.345 342.924L295.243 340.282L289.413 337.276L287.955 335.818L287.591 334.179L288.229 328.439L288.684 327.255L289.322 326.253L290.233 325.433L292.419 324.34L293.148 323.52L292.693 322.153L289.14 317.143L287.591 314.046L287.044 311.495L288.411 309.582L289.869 308.58L291.508 308.397L293.513 309.035L295.335 310.219L296.428 310.675L297.248 310.584L297.794 309.673L297.703 308.671L297.248 307.669L296.61 306.849L295.881 306.211L293.33 304.662L292.51 303.842L291.964 302.931L292.602 302.294L293.148 300.654L293.057 299.925L292.51 298.65L292.328 298.376L292.237 298.012L292.419 297.739L292.784 297.465L293.604 297.283L295.061 297.192L296.154 296.737L298.887 294.823L299.89 293.912L300.163 293.73L301.074 293.639L302.167 294.459L302.714 294.823L305.356 295.461L307.997 295.734L308.726 296.372L308.908 297.83V301.018L309.364 302.203L310.73 304.389L311.368 306.211L312.826 308.853L313.555 309.855L314.466 310.493L315.65 310.766H318.11L319.021 311.313L319.567 312.497L320.478 315.23L321.845 317.69L323.576 319.603L336.056 330.99L337.423 331.263L338.152 331.537L338.698 331.992L340.611 334.088L342.251 335.636L343.435 336.092L346.533 336.638L347.535 337.276L350.359 340.373L350.997 341.376L351.634 343.471L352.454 343.835L352.819 344.109L354.003 344.564L355.369 344.473L356.28 343.744L358.376 339.645L359.287 338.643L360.107 338.005L361.018 337.549L362.111 337.276H364.935L375.047 339.736L377.598 340.829L380.058 342.287L383.155 344.655L392.174 354.676L398.46 364.788L398.733 364.97L399.462 365.426L400.191 365.699L403.015 364.788Z" fill="#1B9C9F" stroke="white" stroke-width="1.822" stroke-linecap="round" stroke-linejoin="round"/>
<path d="M391.81 187.234L397.549 196.982L400.191 199.442L414.494 203.359L415.314 203.815V204.543L414.949 205.454L400.555 232.693L386.982 258.839L384.066 265.672L382.882 280.521V281.341L383.064 282.07L389.077 293.184L390.17 295.461L389.897 295.826L389.259 296.463L377.872 302.931L376.778 303.934V304.845L377.234 305.847L399.918 337.094L414.949 358.047V359.049L403.015 364.788L400.191 365.699L399.462 365.426L398.733 364.971L398.46 364.788L392.174 354.676L383.155 344.655L380.058 342.287L377.598 340.829L375.047 339.736L364.935 337.276H362.111L361.018 337.549L360.107 338.005L359.287 338.643L358.376 339.645L356.281 343.744L355.37 344.473L354.003 344.564L352.819 344.109L352.455 343.835L351.635 343.471L350.997 341.376L350.359 340.374L347.535 337.276L346.533 336.638L343.436 336.092L342.251 335.636L340.612 334.088L338.699 331.992L338.152 331.537L337.423 331.264L336.057 330.99L323.576 319.603L321.845 317.69L320.479 315.23L319.568 312.497L319.021 311.313L318.11 310.766H315.65L314.466 310.493L313.555 309.855L312.826 308.853L311.369 306.211L310.731 304.389L309.364 302.203L308.909 301.018V297.83L308.727 296.372L307.998 295.735L305.356 295.461L302.714 294.824L302.167 294.459L301.074 293.639L300.163 293.73L299.89 293.913L298.888 294.824L296.155 296.737L295.062 297.192L293.604 297.283L292.784 297.465L292.42 297.739L292.238 298.012L292.329 298.376L292.511 298.65L293.057 299.925L293.149 300.654L292.602 302.294L291.964 302.931L290.689 301.109L289.14 299.743L283.583 297.648L280.85 297.739L280.121 297.374L279.484 296.372L279.575 295.461L280.212 294.732L281.123 294.459H281.214L284.312 293.275L284.13 290.451L283.128 286.898L283.583 283.618L284.494 282.981L285.587 282.525L286.407 281.887L286.589 280.703L285.952 279.792L284.767 279.063L282.399 278.152L280.486 276.421L279.028 274.144L277.388 272.322L275.02 272.049L272.651 272.322L268.005 271.866L256.8 273.597L254.067 273.506L252.791 273.051L250.696 270.773L249.421 270.318L246.688 270.044L245.23 269.133L244.501 267.858L243.863 262.392L243.408 261.025L242.588 259.841L239.217 256.288L237.942 255.468L236.667 255.651L235.118 256.379L233.569 256.835L232.02 256.926L229.652 256.47L225.917 254.831L222.364 251.46L210.976 238.068L209.701 237.248L208.699 238.888L207.97 244.992L206.877 247.087L204.69 247.816L201.957 247.634L199.224 246.996L193.576 244.627H192.21L191.299 244.901L188.475 246.632L186.47 247.543L185.468 248.271L185.013 249.274L185.286 250.731L186.288 251.551L192.939 254.74L194.761 256.197L196.4 258.657L197.858 262.028L201.775 268.405L203.871 270.955L204.508 271.502L204.782 272.14L204.508 272.777L203.871 273.142L200.5 273.688L199.589 273.415L199.042 272.504V271.411L199.316 270.135L199.498 268.86L198.951 266.309L197.585 264.487L195.763 263.121L190.57 260.661L189.386 260.388L188.384 260.57L186.47 261.39L185.651 261.481L184.74 261.025L183.555 259.203L182.826 258.475L181.824 258.11L180.64 258.019L179.456 258.292L178.454 258.748L177.907 259.386L177.452 260.297L176.085 261.845L174.627 262.483L173.716 263.212L174.081 265.125L175.174 267.585L175.265 268.678L174.81 270.409L172.623 275.328L171.894 276.148L169.89 276.877L169.435 277.788L169.799 278.881L170.528 279.701L170.619 280.339L169.526 281.159L168.433 281.432L164.88 281.25L163.878 281.523L160.871 282.981L159.687 283.163L159.323 280.156L158.867 278.334L158.138 276.877L157.136 275.693L155.861 274.69L153.037 273.142L150.759 272.868L150.213 272.686L149.666 272.231L148.937 271.684L147.844 269.953L147.206 269.407L146.295 269.224L144.929 269.316L141.923 270.318L139.645 271.593L138.279 272.868L137.732 273.415L136.092 276.877L129.442 297.739L129.26 298.832V299.196L124.522 301.474L122.974 303.569V306.302L124.158 311.859L123.976 314.592L123.611 316.87L123.52 319.056L124.522 321.607L125.707 323.52L126.253 325.433L126.436 327.437V329.897L126.709 331.901L127.347 333.814L128.44 335.636L129.533 336.912L130.353 337.458L131.082 337.823L133.815 338.46L134.179 338.825L134.088 339.28L133.45 340.009L132.357 340.829L129.897 342.013L128.804 343.289L127.164 346.204L126.162 346.842L119.694 345.475L114.684 344.473L102.841 343.744L89.996 343.107L80.157 342.56L71.593 342.104L71.502 309.582V293.275V276.877V260.479V243.99V227.41V210.738V194.067V177.305L71.411 160.542V143.689V126.653V109.708V92.5815V75.3636L71.593 75.2725L76.513 73.6327L81.432 72.084L86.443 70.4442L96.373 67.2557L101.292 65.6159L106.302 64.0672L111.222 62.4274L121.152 59.2389L126.162 57.6902L131.082 56.0504L136.092 54.5017L141.012 52.8619L150.941 49.6734L157.592 47.5781L164.151 45.5739L170.801 43.5697L177.452 41.4744L180.458 40.5634L183.555 39.6524L189.659 37.8304L192.847 36.9194L199.224 35.0974L202.413 34.1864L206.695 32.911L207.97 33.0021L209.428 33.6398L209.883 34.0042L209.792 34.0953L208.972 36.2817L208.79 37.6482L208.517 38.4681L207.788 40.0168L207.606 40.9278V43.0231L207.423 43.5697L207.241 43.7519L206.786 44.0252L206.604 44.2074L206.421 44.4807L205.966 45.8472L204.053 48.4891L203.779 48.9446L203.688 49.1268L203.142 49.6734L200.682 53.1352L200.409 53.6818L200.318 54.2284L200.135 56.1415L199.498 58.1457L198.769 59.6944L198.496 60.8787L198.222 63.2473L197.949 64.4316L197.494 65.6159L196.947 66.7091L196.583 67.1646L195.854 67.8934L195.489 68.3489L195.307 68.8955L195.216 69.4421L195.034 70.5353L194.852 71.6285L191.299 80.283L190.843 83.6537L190.661 85.8401L190.752 88.0265L191.845 91.215L192.939 94.0391L194.396 96.4077L195.307 99.6873L195.216 101.418L194.852 102.603L194.396 103.696L193.303 104.425L192.028 106.247L191.754 107.522L191.39 108.251L191.117 108.797L191.025 109.435L191.39 112.168L192.301 115.174L193.667 116.45L194.669 117.543L196.765 117.907L199.316 117.725L201.957 116.268L204.69 113.99L207.059 111.804L208.608 109.799L209.428 108.524L210.065 107.34L211.159 106.064L212.434 104.242L213.618 102.238L214.529 100.872L215.44 99.5962L215.714 98.6852L214.985 97.3187L213.892 96.8632L212.616 96.3166L213.345 98.0475L212.434 98.3208L211.159 97.9564L210.612 97.0454L211.159 94.2213L211.796 92.9459L212.161 92.0349L213.254 91.6705L213.983 91.3061L215.076 91.6705L215.349 93.1281L215.622 94.0391L216.351 94.7679L217.444 95.0412L219.175 94.5857L220.086 93.4925L219.813 92.0349L218.629 90.9417L217.991 89.8485L218.538 87.9354L218.629 85.5668L217.991 83.1071L217.536 80.9207V79.372L218.629 79.0987L220.086 78.8254L220.815 77.1856L221.088 75.3636L221.544 73.9971L221.908 71.8107L220.724 71.0819L219.54 71.9929L218.629 73.8149L216.625 74.9992L215.349 75.1814L213.983 76.2746L212.434 75.1814L212.343 73.4505L212.981 71.6285L213.892 69.5332L214.711 67.7112L216.351 65.8892L217.171 64.3405L218.629 62.8829L220.177 61.3342L221.362 60.7876L218.902 58.9656L217.536 57.2347L216.351 52.5886L215.896 49.5823L215.714 47.5781L215.896 45.3006L216.625 42.6587L217.444 40.4723L217.9 39.3791L223.093 42.932L229.834 47.487L234.48 50.5844L246.961 59.1478L255.069 64.5227L254.887 64.8871L253.611 66.618L252.882 68.0756L251.88 71.4463L251.06 73.6327L249.512 76.2746L248.327 77.7322L247.781 80.3741L247.143 82.9249L246.323 84.838L245.412 86.4778L243.59 88.9375L242.77 90.7595L242.133 92.5815L241.768 94.4035L242.406 98.1386L243.772 101.327L245.412 103.514L249.785 108.524L256.344 115.083L259.806 118.454L262.539 120.458L265.272 122.645L265.91 123.282L266.092 124.284L265.819 126.38L264.725 128.019L262.266 129.659L261.446 131.846L260.535 134.032L259.35 136.218L260.17 138.223L262.812 138.678L265.181 138.496L267.276 137.858L268.643 136.583L270.556 136.401L272.651 136.765L274.655 136.036L276.842 134.579L279.848 132.574L281.214 130.752L281.488 129.841L280.759 129.022L279.757 128.93L278.846 128.566L278.299 128.019L278.117 127.382V126.562L278.39 126.015L278.755 125.104L279.392 124.558L279.848 124.011H280.759L282.125 124.102L283.583 124.375L284.585 124.102L285.405 123.282L285.769 122.28L286.498 119.82L286.863 117.452L286.589 115.083L285.952 111.166L285.041 108.16L283.856 105.7L283.492 103.331L283.401 101.327L284.312 100.052L285.223 99.3229L286.225 98.1386L286.954 96.4988L287.409 94.4035V91.6705L287.5 88.1176V86.2956L288.502 87.0244L298.797 93.8569L308.453 100.416L317.381 106.247L325.034 111.439L336.057 118.727L339.336 120.914L340.703 122.462L341.614 124.467L341.978 126.197L342.343 130.024L342.889 131.755L345.987 136.765L351.999 143.415L354.914 146.513L357.83 149.701L361.565 153.983L364.571 157.445L370.675 164.551L373.681 168.012L376.687 171.474L379.694 174.936L385.615 181.768L389.623 186.323L391.719 187.234H391.81Z" fill="#1B9C9F" stroke="white" stroke-width="1.822" stroke-linecap="round" stroke-linejoin="round"/>
<path d="M642.244 353.947V354.221L635.776 356.863L635.32 357.956L634.682 358.776L635.502 368.614L635.593 368.979L635.776 369.252L636.049 369.89L636.504 370.436L636.869 370.619L637.598 371.074L642.335 372.35L642.608 372.623L642.79 372.896L642.973 373.169V373.716V374.354L642.79 375.629V376.813L642.881 377.178L643.337 378.362L644.521 380.457L643.064 384.193L634.956 399.953L633.954 398.951L633.316 398.131L633.134 397.858L633.043 397.584L632.952 397.311V396.947L633.316 395.853V395.216L633.225 394.942L633.134 394.669L631.312 392.574L629.763 391.207L629.216 390.934L628.761 390.843L628.214 391.025L624.388 393.667L623.204 394.214L622.111 394.396L621.291 394.214L620.289 393.849L619.378 393.303L618.284 392.483L617.465 392.118L616.736 392.027L616.007 392.209L615.369 392.756L614.732 393.394L614.276 394.214L613.821 395.125L613.183 397.038L613.001 398.131V399.224L613.456 400.499L613.821 401.046L614.094 401.593L614.003 402.139L613.638 402.959L613.274 403.324L612.181 403.779L611.907 404.235V404.781L612.545 406.421L612.727 408.881L612.363 410.429L611.634 411.978L611.543 412.434L611.634 412.889L611.907 413.253L612.636 413.982V414.62L612.363 415.075L610.996 416.989L610.541 417.9L610.268 418.811L609.812 420.359L608.446 423.639L608.355 424.094L608.446 424.55L608.719 424.641H609.083L610.085 424.459H610.541L610.996 424.55L611.452 424.732L611.725 425.188L611.907 425.552V426.099L611.634 426.736L611.088 427.283L607.717 430.471L607.079 430.836L595.692 433.204L593.414 432.749L591.137 431.291L590.043 431.656L589.041 431.109L588.039 430.38L585.853 429.56L585.033 428.649L583.666 426.736L583.12 426.645L582.938 426.554L581.936 426.372L577.107 424.185H576.287L575.923 424.368L575.65 424.641L575.376 425.37L575.194 425.825L575.103 426.099L575.194 427.01L575.012 428.376V428.74L574.921 429.105L574.739 429.287L574.648 429.651L573.281 431.656L573.19 432.111L573.372 432.384H573.737L574.101 432.476L574.374 432.658L574.648 432.931L574.739 433.295L574.648 433.66L574.465 434.206L573.645 436.028L573.463 436.484L572.552 440.037L572.188 440.857L571.732 441.13L571.095 441.403H569.546L568.088 441.221L566.54 440.492L564.718 439.49L564.353 439.399L563.989 439.581L563.716 440.037L563.624 440.492L563.442 441.677L562.987 442.041L562.531 442.405L559.343 443.225L556.792 443.59L556.245 443.681L555.972 443.863L555.699 444.136L555.608 444.501L555.972 445.321L557.612 447.143L558.614 448.054L559.069 448.509L559.525 449.147L561.074 454.977L561.165 455.524L561.074 456.526L560.983 457.164L560.8 457.71L559.252 461.263V461.628L559.889 463.723L562.713 469.371L561.711 470.009L556.428 471.193L556.336 469.28L556.245 468.824L555.699 467.002L555.425 466.274L555.152 465.818L554.332 464.725L553.421 463.723L552.601 463.267L551.326 462.812L550.324 462.265L549.868 460.808L549.686 459.35V458.166L549.231 456.617L548.32 455.068L541.943 452.062L541.487 451.242L540.667 451.151L538.39 452.153H537.388L536.659 451.698L536.477 451.151L536.203 450.513L536.112 450.149L533.652 448.782L532.104 447.78L528.278 442.405L527.458 440.675L528.186 438.944L529.097 437.031L530.828 434.844L531.011 434.571L531.375 434.115L531.83 433.204L535.019 431.747L536.021 431.018L536.932 430.107L537.661 429.105L540.212 424.003L540.941 423.366L541.487 423.274L541.852 423.001L542.216 422.728L542.58 422.637L544.129 422.455L544.22 422.272L543.947 421.817L543.127 420.724L541.578 419.175L541.032 418.173L540.941 417.9V417.717L541.214 417.626L541.669 417.171L542.58 414.62L541.214 413.253L540.941 411.887V411.34L541.032 410.612L541.214 409.974L541.669 409.427L542.58 408.881L544.402 408.607H545.587L546.68 408.881L547.682 409.792L548.866 410.612L550.051 410.976L556.245 411.067L556.883 409.883L558.067 406.057L558.978 405.146L560.163 403.779L561.62 399.315L561.711 398.495L562.258 397.584L562.713 397.22L563.169 397.038L563.716 397.129L566.449 397.675L567.177 397.766L567.268 396.947L566.995 396.127L566.904 394.669V392.938L566.995 391.116L567.268 389.385L568.544 385.012L565.993 385.741L549.959 384.648L544.676 383.373L542.854 382.279L541.032 380.822L540.303 378.727L539.847 376.905L538.663 369.799L538.208 368.159L537.57 368.068L535.93 370.528L534.199 371.256L531.922 371.712L524.907 371.985L523.085 372.714L522.083 373.261L520.443 379.455L519.259 380.64L504.956 378.909L502.678 378.089L501.95 376.54L501.859 371.985L501.585 369.617L500.492 367.977L499.49 367.066L498.488 366.792L497.395 367.157L496.393 368.068L495.482 369.434L492.293 375.994L488.558 381.642L482.181 383.828L482.272 382.462L480.359 380.549L479.175 378.453L463.232 368.614L455.033 363.968L448.11 361.235L443.464 360.233L442.188 359.504L434.991 346.842L426.155 336.274L424.788 333.996L423.148 330.079L418.684 329.988L399.918 337.094L377.234 305.847L376.778 304.844V303.933L377.872 302.931L389.259 296.463L389.897 295.826L390.17 295.461L389.077 293.184L383.064 282.069L382.882 281.341V280.521L384.066 265.671L386.982 258.839L400.555 232.693L414.949 205.454L415.314 204.543V203.815L414.494 203.359L400.191 199.442L397.549 196.982L391.81 187.234L396.183 186.414L399.918 185.777L406.659 184.501L412.672 183.408L415.678 182.862L420.506 182.042L425.335 181.222L449.476 177.304L454.304 176.485L462.412 177.304L470.429 178.033L478.537 178.762L486.554 179.491L493.933 180.129L501.221 180.766L508.6 181.495L515.888 182.133L518.803 182.406L520.625 181.859L526 178.944L531.102 176.12L536.385 173.114L541.487 170.29L542.489 169.925L543.4 169.561L545.131 169.834L545.951 170.654L546.862 171.383L552.601 178.853L558.25 186.323L560.891 189.147L563.533 191.88L568.999 195.342L574.465 198.713L576.561 200.626L581.025 209.918L583.94 215.84L587.857 224.039L591.319 231.053L592.23 231.145L599.882 227.045L607.444 222.854L606.35 240.801L605.166 258.657L604.893 262.483L604.437 263.758L603.162 264.214L602.889 265.216L602.615 279.154L602.433 293.001L602.615 293.821L603.071 294.186H609.448H615.187L621.017 294.277H627.394L627.759 294.186L628.214 294.277H628.579L628.852 294.459L629.763 303.478L630.674 312.406L632.314 321.151L634.045 329.897L636.322 340.373L638.6 350.668L639.784 352.125L640.968 353.583L642.244 353.947Z" fill="#BCE1E2" stroke="white" stroke-width="1.822" stroke-linecap="round" stroke-linejoin="round"/>
<path d="M634.956 399.953L635.411 400.317L642.061 400.59L644.248 401.228L645.068 401.41L645.979 401.593L647.163 401.501L648.529 401.228L648.894 401.137L649.167 401.41L649.44 401.775L649.805 402.686L650.078 403.323L650.169 404.052L650.078 404.963L649.805 405.965L649.349 407.059L649.258 407.423L649.167 407.878V408.334L649.258 411.614L649.349 412.798L650.078 416.442L650.26 416.715L650.443 417.08L650.807 417.444L651.9 417.899L652.173 418.173L652.356 418.446V418.993L652.173 419.357V419.904L652.356 420.45L653.813 422.181L653.722 423.821L653.54 424.459L653.358 424.641L653.084 424.914L652.082 425.187L651.809 425.37L651.718 425.734L651.627 426.098L651.9 429.196L652.082 429.56L652.265 429.834L652.902 430.016H653.358L653.813 429.925L654.087 429.834L655.089 429.378L655.362 429.287H655.726H656.091L656.455 429.56L656.728 430.016L656.82 430.927L656.637 431.382V432.02L656.728 432.384L658.55 434.389L659.279 434.115H659.553L659.735 434.024L660.372 435.026L664.563 436.211L665.201 436.302L666.021 436.211L666.385 436.119H666.749L667.66 436.666L668.025 436.848L668.48 436.939L669.027 436.757L670.211 436.848L679.412 438.579L680.323 440.037L681.69 446.505L681.508 447.051L680.688 447.234H680.323L678.866 447.598L677.773 447.962L676.042 448.873L675.222 449.511L674.857 449.876L674.766 450.24L674.584 450.695V451.698V452.335L674.675 452.791L674.766 453.155L674.857 453.793V454.248V455.068L674.766 455.433L674.493 455.797L674.037 455.979L673.582 456.07H671.942L671.304 456.253L670.94 456.89L670.758 457.437L670.667 462.174L671.213 463.358L671.942 464.269L674.129 466.182L678.137 469.735L677.681 470.373L677.044 473.015L676.679 475.748L676.588 478.299L675.951 480.576L675.586 482.854L675.222 483.036L674.675 482.854L674.129 483.036L674.037 483.127L661.375 479.939L658.55 479.756V480.121L658.642 480.85V481.123V481.487L658.459 481.852L658.277 482.125L658.004 482.398L657.731 482.489L657.093 482.672L651.262 482.854L650.534 482.763L650.169 482.58L649.805 482.398L649.44 482.125L649.258 481.761L649.167 481.214L649.258 480.121L649.623 478.299L649.44 477.297L648.347 475.292L647.254 475.11L642.699 474.199L638.6 473.562H637.871L636.96 473.835L636.14 474.29L635.684 474.655L635.32 475.019L633.589 477.661L633.134 478.117L629.125 479.756H628.761L628.032 479.574L627.212 479.119L624.024 476.659L622.748 475.748L621.746 475.839L614.094 477.57L613.82 477.661L608.719 480.121L607.626 480.85L606.806 481.123H604.893L601.34 480.212L601.066 479.939L600.793 479.483L600.702 478.754L600.611 478.208V477.752L600.702 476.659V475.657L600.52 475.201L600.338 474.837L599.062 473.835L597.422 472.742L594.689 470.009L594.143 469.28L593.778 468.733L593.687 468.369L593.141 466.091L593.05 465.818L592.867 465.545L592.594 465.271L592.321 465.089L591.956 464.998L591.501 464.907H589.861L589.223 464.998L588.768 465.271L588.677 465.636V466V467.002V467.367L588.586 467.731L588.403 468.004L588.221 468.278L587.037 469.098L585.944 469.735L585.306 469.918L562.713 469.371L559.889 463.723L559.251 461.627V461.263L560.8 457.71L560.982 457.164L561.073 456.526L561.164 455.524L561.073 454.977L559.525 449.147L559.069 448.509L558.614 448.054L557.612 447.143L555.972 445.321L555.607 444.501L555.698 444.136L555.972 443.863L556.245 443.681L556.792 443.59L559.342 443.225L562.531 442.405L562.986 442.041L563.442 441.677L563.624 440.492L563.715 440.037L563.989 439.581L564.353 439.399L564.717 439.49L566.539 440.492L568.088 441.221L569.546 441.403H571.094L571.732 441.13L572.188 440.857L572.552 440.037L573.463 436.484L573.645 436.028L574.465 434.206L574.647 433.66L574.738 433.295L574.647 432.931L574.374 432.658L574.101 432.475L573.736 432.384H573.372L573.19 432.111L573.281 431.656L574.647 429.651L574.738 429.287L574.921 429.105L575.012 428.74V428.376L575.194 427.009L575.103 426.098L575.194 425.825L575.376 425.37L575.649 424.641L575.923 424.368L576.287 424.185H577.107L581.935 426.372L582.937 426.554L583.12 426.645L583.666 426.736L585.033 428.649L585.853 429.56L588.039 430.38L589.041 431.109L590.043 431.656L591.136 431.291L593.414 432.749L595.691 433.204L607.079 430.836L607.717 430.471L611.087 427.283L611.634 426.736L611.907 426.098V425.552L611.725 425.187L611.452 424.732L610.996 424.55L610.541 424.459H610.085L609.083 424.641H608.719L608.445 424.55L608.354 424.094L608.445 423.639L609.812 420.359L610.267 418.81L610.541 417.899L610.996 416.988L612.363 415.075L612.636 414.62V413.982L611.907 413.253L611.634 412.889L611.543 412.433L611.634 411.978L612.363 410.429L612.727 408.881L612.545 406.421L611.907 404.781V404.234L612.181 403.779L613.274 403.323L613.638 402.959L614.003 402.139L614.094 401.593L613.82 401.046L613.456 400.499L613 399.224V398.131L613.183 397.038L613.82 395.124L614.276 394.213L614.731 393.394L615.369 392.756L616.007 392.209L616.736 392.027L617.464 392.118L618.284 392.483L619.377 393.302L620.288 393.849L621.291 394.213L622.11 394.396L623.204 394.213L624.388 393.667L628.214 391.025L628.761 390.843L629.216 390.934L629.763 391.207L631.312 392.574L633.134 394.669L633.225 394.942L633.316 395.216V395.853L632.951 396.946V397.311L633.042 397.584L633.134 397.857L633.316 398.131L633.953 398.951L634.956 399.953Z" fill="#1B9C9F" stroke="white" stroke-width="1.822" stroke-linecap="round" stroke-linejoin="round"/>
<path d="M674.037 483.127L673.673 483.492L673.4 483.765L673.309 484.22L673.217 485.223L673.582 487.956L675.039 489.322L681.508 491.6L685.789 491.782L687.885 492.602L688.067 492.875L688.522 493.695L688.796 493.968L689.16 494.059L690.071 493.877L690.435 493.968L690.891 494.788L690.982 495.699L690.344 500.983L690.618 502.714H690.709L689.889 503.351L688.978 503.716L685.152 503.898L684.423 504.08L683.876 504.354L683.512 504.536L683.238 504.809L682.783 505.173L682.51 505.72L682.327 506.176V506.722L682.783 508.362L683.056 510.822L684.332 513.099L684.423 513.372L684.514 513.737V514.192L684.423 514.557L684.332 515.012V515.377L684.241 515.741V516.105L684.332 516.47V516.834L684.514 517.108L684.605 517.836L684.696 518.201V518.565L684.514 519.112L684.241 519.658L683.694 520.478L683.421 521.025L683.33 521.571V522.756L683.238 523.029L683.056 523.302L682.692 523.211L682.419 523.029L681.416 522.027L681.234 521.845L680.961 521.663L680.597 521.48L679.777 521.298L678.957 521.207H678.228L677.499 521.389L676.77 521.754L676.315 522.118L675.95 522.482L675.677 522.756L672.489 528.951L671.942 529.679L671.031 530.681L670.484 531.046L669.665 531.501L667.569 532.048L667.205 532.959L666.567 533.961L665.656 534.963L663.652 536.603L663.379 537.058L663.014 537.969L662.741 539.063L662.194 542.524L661.739 544.164L661.648 544.529L660.919 545.257L655.089 549.995L652.082 551.634L651.445 551.817L649.531 552.181L649.076 552.454L648.62 553.092L647.801 554.459L647.254 555.825L646.981 556.554L646.707 557.374L646.343 558.194L645.979 558.922L639.51 564.935L639.055 565.573L638.782 566.666L638.508 569.308L638.235 570.219L637.415 571.859L635.775 572.861L635.138 571.039L633.407 569.763L631.494 568.761L629.398 568.215H625.39L623.75 567.759L618.375 565.208L615.916 562.111L614.367 560.562L612.636 559.833L609.174 558.831L605.895 556.189L604.437 555.37L600.884 554.823L595.6 552.272L593.778 552.09L592.321 552.728L589.77 554.732L588.403 555.552L584.759 555.825L581.206 554.641L572.461 548.719L567.177 545.166L560.071 540.338L555.061 535.692L547.955 529.315L544.402 527.037L536.659 524.304L529.826 520.387L518.712 510.913L515.706 506.995L516.525 506.176L521.354 500.801L523.813 499.161L531.101 496.155L533.926 495.152L542.762 491.964L543.036 491.782L543.309 491.508L543.4 490.962V490.506L543.218 490.233L543.036 489.96L541.396 487.864L541.031 487.318L540.758 486.68L540.667 486.407L540.576 486.042V485.678L540.667 485.314L541.031 484.767L541.487 484.038L545.495 479.665L545.86 479.392L546.224 479.21L546.862 479.119L547.408 479.21L548.046 478.937L548.684 478.39L553.968 473.106L556.427 471.193L561.711 470.009L562.713 469.371L585.306 469.918L585.944 469.736L587.037 469.098L588.221 468.278L588.403 468.005L588.586 467.731L588.677 467.367V467.003V466V465.636L588.768 465.272L589.223 464.998L589.861 464.907H591.501L591.956 464.998L592.321 465.089L592.594 465.272L592.867 465.545L593.049 465.818L593.141 466.092L593.687 468.369L593.778 468.733L594.143 469.28L594.689 470.009L597.422 472.742L599.062 473.835L600.337 474.837L600.52 475.202L600.702 475.657V476.659L600.611 477.752V478.208L600.702 478.754L600.793 479.483L601.066 479.939L601.34 480.212L604.892 481.123H606.806L607.625 480.85L608.719 480.121L613.82 477.661L614.094 477.57L621.746 475.839L622.748 475.748L624.023 476.659L627.212 479.119L628.032 479.574L628.761 479.757H629.125L633.133 478.117L633.589 477.661L635.32 475.019L635.684 474.655L636.14 474.291L636.96 473.835L637.871 473.562H638.599L642.699 474.199L647.254 475.11L648.347 475.293L649.44 477.297L649.623 478.299L649.258 480.121L649.167 481.214L649.258 481.761L649.44 482.125L649.805 482.398L650.169 482.581L650.534 482.763L651.262 482.854L657.093 482.672L657.73 482.49L658.004 482.398L658.277 482.125L658.459 481.852L658.641 481.487V481.123V480.85L658.55 480.121V479.757L661.374 479.939L674.037 483.127Z" fill="#BCE1E2" stroke="white" stroke-width="1.822" stroke-linecap="round" stroke-linejoin="round"/>
<path d="M635.776 572.861L637.415 571.858L638.235 570.219L638.509 569.308L638.782 566.666L639.055 565.573L639.511 564.935L645.979 558.922L646.343 558.193L646.708 557.374L646.981 556.554L647.254 555.825L647.801 554.458L648.621 553.092L649.076 552.454L649.532 552.181L651.445 551.816L652.083 551.634L655.089 549.994L660.919 545.257L661.648 544.528L661.739 544.164L662.195 542.524L662.741 539.062L663.015 537.969L663.379 537.058L663.652 536.603L665.656 534.963L666.567 533.961L667.205 532.959L667.57 532.048L669.665 531.501L670.485 531.046L671.031 530.681L671.942 529.679L672.489 528.95L675.677 522.756L675.951 522.482L676.315 522.118L676.771 521.753L677.499 521.389L678.228 521.207H678.957L679.777 521.298L680.597 521.48L680.961 521.662L681.235 521.845L681.417 522.027L682.419 523.029L682.692 523.211L683.057 523.302L683.239 523.029L683.33 522.756V521.571L683.421 521.025L683.694 520.478L684.241 519.658L684.514 519.112L684.696 518.565V518.201L684.605 517.836L684.514 517.107L684.332 516.834V516.47L684.241 516.105V515.741L684.332 515.376V515.012L684.423 514.557L684.514 514.192V513.737L684.423 513.372L684.332 513.099L683.057 510.821L682.783 508.362L682.328 506.722V506.175L682.51 505.72L682.783 505.173L683.239 504.809L683.512 504.536L683.876 504.353L684.423 504.08L685.152 503.898L688.978 503.716L689.889 503.351L690.709 502.714L691.62 503.625L698.361 504.809L699.819 504.718L703.827 503.351L704.556 502.987L705.285 502.805H706.105L706.925 503.169L707.38 503.351L708.2 504.171L709.02 504.353L709.931 503.989L710.842 503.351L711.206 503.26H711.662H712.117L712.573 503.351L713.393 504.353L715.124 508.362L716.672 510.639L717.219 512.006L717.128 513.463L716.672 514.648L716.035 515.559L715.215 516.287L714.304 516.743L713.028 517.016H712.117L711.571 517.381L711.389 518.838L711.48 519.567L711.844 520.114L712.026 520.751V521.571L711.753 521.936L710.387 522.938L710.022 523.94L710.113 525.124L710.842 527.675L710.933 529.041L710.751 532.959L710.933 534.416L711.298 535.327L712.573 537.332L712.937 538.334L713.028 540.52L713.211 541.431L713.666 542.433L715.761 544.437L717.766 547.99L718.677 548.992L721.41 550.541L725.6 554.276L726.876 556.28L727.058 558.922L726.238 562.84L724.963 566.575L722.867 569.763L722.23 571.039L721.774 572.132L721.592 573.225L721.136 574.045L720.316 574.683L719.497 574.865L717.037 575.229L715.397 575.776L714.486 576.778L712.209 583.61L710.66 586.708L706.834 592.083L703.918 594.816L701.185 598.277L698.999 602.195L697.45 606.294L697.268 609.118L698.361 614.402L698.544 617.226L698.27 619.595L697.633 621.872L696.63 623.877L696.357 624.788L696.175 623.603L695.537 622.692L694.626 622.146L693.533 621.872L691.62 621.963L690.891 621.872L690.345 621.508L689.16 620.688L688.614 620.506L687.976 620.597L686.974 620.87L686.427 620.961L686.063 621.235L685.79 621.872L685.334 622.51L684.787 622.783L683.876 621.963L682.874 619.23L681.69 618.593L680.597 618.957L679.595 619.686L677.864 621.417L676.862 622.237L675.769 622.783L674.584 623.057L673.309 623.239L671.942 623.512L669.938 624.788L668.754 625.061L667.57 624.605L667.023 623.603L666.567 622.328L666.112 621.144L665.019 620.233L662.65 619.322L661.557 618.593L661.101 617.591L660.19 614.675L659.553 614.129L658.46 613.764L656.364 612.307L655.362 611.76H652.811L647.983 612.853L641.059 613.218L640.513 613.4L639.42 614.311L638.873 614.493H637.415L636.778 614.311L633.316 612.853L632.041 612.671L630.674 612.853L629.672 613.127L628.305 612.125L628.397 610.94L629.216 609.756L630.219 608.754L631.038 607.387L630.856 606.294L630.036 605.383L628.943 604.472L628.214 602.65L628.488 600.191L629.581 595.727L629.763 593.085L629.399 587.801L629.581 585.159L631.403 581.879L634.409 578.053L636.322 574.227L635.776 572.861Z" fill="#1B9C9F" stroke="white" stroke-width="1.822" stroke-linecap="round" stroke-linejoin="round"/>
<path d="M931.85 402.504L931.76 402.139L931.3 400.5L931.21 399.589L931.39 398.313L931.58 397.038V396.218V395.762L931.49 395.398L930.76 394.76L928.02 393.94L927.39 393.849L927.02 393.576L926.02 392.027L925.29 391.481L924.74 391.936L924.2 392.665L923.29 392.756L920.1 392.118L917.55 391.298L916.09 391.39L915 391.572L913.72 391.39L913.27 391.207L912.81 390.934L910.72 388.019L910.26 387.199L909.8 386.743L909.17 386.379L906.43 385.468L905.61 385.377L904.98 385.468L904.7 385.65L904.25 385.559L903.52 385.377L902.06 384.557H901.51L901.24 384.83L901.15 386.015L900.88 385.924L900.33 385.104L899.24 382.917L897.6 380.549L899.15 379L898.33 377.269L897.69 376.449L897.6 375.903L897.87 375.538L899.6 373.898L900.24 373.443L900.97 372.441L906.43 370.983L908.16 371.803L910.35 370.801L910.99 370.619H912.17L913.45 370.71L914.91 370.528L921.83 372.259L922.74 372.35L923.65 372.167L926.84 372.076L927.57 371.894L927.93 371.712L928.12 371.621L928.57 371.256L929.85 365.426L930.12 364.242L933.13 363.331L935.13 363.057L935.49 362.693L936.13 360.871L936.41 360.416L937.41 359.596L938.05 360.051L939.59 362.42L940.69 363.149L942.24 363.604L945.06 363.877L945.33 364.06L945.42 364.333V364.697L945.33 365.153V366.793L946.34 367.248L947.61 367.339L948.7 367.795L950.89 371.348L952.53 373.078L954.63 373.989L956.9 374.263L963.74 373.625L965.74 374.263L966.01 376.267L965.83 377.451L966.56 377.36L969.02 375.629L972.94 373.807L973.76 374.354L974.49 375.447L975.58 376.176L978.68 375.994L980.32 376.358L980.59 377.725L978.95 379.911L976.49 381.369L971.48 383.191L966.92 386.015L963.1 387.017L961.28 387.837L960 389.75L959.36 394.396L957.81 395.125L955.9 394.214H954.9L954.53 395.398L954.44 396.4L954.17 397.402L953.71 398.222L952.89 398.951L950.8 399.042L947.06 396.491L945.06 396.218L943.51 395.398L941.78 393.394L939.96 391.845L938.41 392.574L938.23 393.667L939.41 395.58L939.32 396.856L939.05 398.04V398.769L939.5 399.406L941.78 401.046L942.33 402.504V404.144L941.69 405.874L940.6 407.332L939.41 407.605L937.95 407.059L934.86 405.237L934.04 404.963L931.67 405.055L930.94 404.781L931.21 404.144L931.85 403.961L932.76 403.87L933.49 403.688L933.76 402.959L933.22 402.504L932.31 402.413L931.85 402.504Z" fill="#BCE1E2" stroke="white" stroke-width="1.822" stroke-linecap="round" stroke-linejoin="round"/>
<path d="M906.89 441.039L906.07 441.221L904.79 440.766L903.7 440.31L902.61 439.49L902.06 438.488L902.97 437.395H904.25L905.16 436.94L907.07 435.482L908.44 435.026L908.62 435.755L907.44 440.219L906.89 441.039ZM875.82 431.382L876.19 431.474L876.46 431.291L877.01 430.836L877.37 430.654L878.65 430.289L879.38 430.471L879.74 431.109L879.38 432.202L876.92 433.933L876.1 434.753L876.19 436.575L878.56 439.035L878.47 441.221L877.83 442.041L877.1 442.314H875.37L872.82 443.043L872.09 442.952L871.45 442.314L871.36 441.586L871.09 441.039L870.08 440.948L869.45 441.403L868.72 442.132L867.99 442.588L867.35 442.223L867.26 440.492L869.54 436.94L869.26 434.844L868.63 434.389L867.26 434.115L866.53 433.751L865.99 432.84L864.62 430.016L864.35 428.832L864.44 427.738L864.71 426.463L865.62 424.368L867.26 423.457L868.44 424.186L869.36 425.825L870.08 427.738L871 428.923L872.45 429.834L875.37 431.109L875.55 431.291L875.82 431.382ZM897.6 380.549L899.24 382.917L900.33 385.104L900.88 385.924L901.15 386.015L901.24 384.83L901.51 384.557H902.06L903.52 385.377L904.25 385.559L904.7 385.65L904.98 385.468L905.61 385.377L906.43 385.468L909.17 386.379L909.8 386.743L910.26 387.199L910.72 388.019L912.81 390.934L913.27 391.207L913.72 391.39L915 391.572L916.09 391.39L917.55 391.298L920.1 392.118L923.29 392.756L924.2 392.665L924.74 391.936L925.29 391.481L926.02 392.027L927.02 393.576L927.39 393.849L928.02 393.94L930.76 394.76L931.49 395.398L931.58 395.762V396.218V397.038L931.4 398.313L931.21 399.589L931.3 400.5L931.76 402.139L931.85 402.504L929.48 402.595L928.57 402.777L925.02 404.781L924.56 405.51L924.2 406.785L923.47 408.699L922.1 410.156L917.46 412.434L917.18 413.436L917.55 414.529L918.55 415.167L920.1 415.895L920.83 416.442L921.1 416.989L920.74 417.717L920.01 417.9L919.19 417.809L918.55 417.535L918.19 417.444H917.82L917.18 417.626L915.18 417.444L913.08 416.989L911.08 417.08L909.44 418.72L908.53 420.906L907.89 421.908L907.07 422.728L904.25 424.368L903.52 424.55L902.43 424.094L902.15 423.001V420.177L901.79 418.811L901.06 417.262L900.06 416.442L899.15 417.262L898.78 418.628L898.69 419.813L898.23 420.633L896.96 420.724L894.41 420.268L893.22 419.722L892.13 419.084L891.13 418.082L890.67 417.08L890.22 416.26L887.85 415.531L886.21 413.982L885.12 413.891L883.48 414.073L882.57 413.982L881.84 413.618L881.29 412.98L880.83 412.251L880.29 411.887L879.56 412.069L878.65 413.345L878.19 414.893L877.46 416.078L875.82 416.26L869.63 415.349L866.53 415.895L864.62 417.809L863.53 417.717L858.88 418.173L851.32 420.45L849.041 420.633L846.854 420.542L844.668 418.993L843.757 416.078L843.028 412.798L841.662 410.521L840.477 410.065L839.475 410.156L838.473 410.429L837.289 410.521L836.196 410.247L833.554 409.063L834.282 406.603L834.1 406.33L833.645 405.783L833.554 405.692L832.916 404.69L832.825 404.508L832.734 404.144L832.643 402.686L833.463 401.319L835.011 400.317L838.655 399.497L839.202 399.224L839.748 398.586L841.024 396.4L841.753 395.671L842.481 395.307L843.21 395.125L844.03 394.76L844.668 394.123L846.581 391.845L849.769 389.203L850.59 388.474L851.32 387.837L851.77 387.654L852.68 387.472L852.87 387.199L852.96 386.835L853.14 386.561L853.96 386.015L855.33 385.195L855.87 384.466L856.33 383.828L856.97 383.191L857.79 382.735L858.52 382.644L859.97 382.826L860.7 382.735L863.16 380.458H864.25L865.07 380.822L865.53 381.095L865.89 381.46L867.53 381.642L873.55 381.369L870.18 385.924L870.45 386.288L872.54 386.47L872.91 386.652L874.46 388.292L874.82 388.474L875.37 388.657L876.37 388.839L876.92 389.021L878.01 389.932L880.47 391.298L881.2 391.481L882.38 391.298L885.85 388.019L887.48 385.377L888.58 384.557L893.22 382.006L897.6 380.549Z" fill="#BCE1E2" stroke="white" stroke-width="1.822" stroke-linecap="round" stroke-linejoin="round"/>
<path d="M930.12 364.241L929.85 365.426L928.57 371.256L928.12 371.621L927.93 371.712L927.57 371.894L926.84 372.076L923.65 372.167L922.74 372.349L921.83 372.258L914.91 370.527L913.45 370.71L912.17 370.618H910.99L910.35 370.801L908.16 371.803L906.43 370.983L900.97 372.44L900.24 373.443L899.6 373.898L897.87 375.538L897.6 375.902L897.69 376.449L898.33 377.269L899.15 379L897.6 380.548L893.22 382.006L888.58 384.557L887.48 385.377L885.84 388.019L882.38 391.298L881.2 391.48L880.47 391.298L878.01 389.932L876.92 389.021L876.37 388.838L875.37 388.656L874.82 388.474L874.46 388.292L872.91 386.652L872.54 386.47L870.45 386.288L870.18 385.923L873.55 381.368L867.53 381.642L865.89 381.459L865.53 381.095L865.07 380.822L864.25 380.457H863.16L860.7 382.735L859.97 382.826L858.51 382.644L857.79 382.735L856.97 383.19L856.33 383.828L855.87 384.466L855.33 385.194L853.96 386.014L854.05 385.468L854.51 383.099L852.5 381.915L847.674 380.731L846.854 379.728L846.672 378.453L847.218 377.633L848.221 377.451L850.04 379.091L851.14 379.455L851.23 378.18L850.77 377.542L841.115 366.61L839.475 365.152L839.293 364.97L839.202 364.697L838.108 363.604L838.564 361.964L838.382 356.771L838.2 355.223L837.106 353.401L836.013 351.943L835.74 351.396L835.558 350.941V350.394L835.649 350.03L836.651 347.843L836.833 347.388L837.106 346.477L836.924 345.839L835.467 345.657L835.284 345.384L835.102 345.019L835.011 343.926L834.92 343.106L835.011 342.651L835.102 342.195L837.744 338.733L838.2 337.914L838.837 336.183H839.202L840.933 335.545L847.492 331.81L849.223 331.537L850.22 332.174L851.14 333.359L854.14 338.46L854.6 339.918L854.69 341.375L853.96 345.748L854.05 346.932L854.69 347.935L855.51 347.843L856.6 347.297L857.79 347.206L858.79 347.661L859.7 348.299L860.61 349.21L861.34 350.212L862.25 351.123L863.34 351.214L865.62 350.941L868.17 351.396L869.36 351.943L870.45 352.763L871.36 353.309L873.36 353.583L874.18 354.312L875.55 356.498L876.37 357.136L876.92 355.769L876.83 354.312L876.55 353.036L876.64 352.034L877.74 351.396L879.01 351.579L879.65 352.398L880.29 355.04L880.74 356.042L881.47 356.771L882.2 356.68L882.75 355.314L884.02 353.674L887.67 356.771L888.85 355.769L889.12 353.309L888.67 341.193L889.03 340.282L889.76 340.464L892.31 342.833L894.59 343.835L896.41 343.471L897.87 341.922L899.6 338.096L900.33 335.727L900.6 334.361L900.42 333.085L898.87 331.081L898.33 329.897L899.42 327.255L900.06 326.435L901.24 325.979L902.43 326.162L903.06 327.073L903.34 328.439V329.897L902.33 333.905L902.43 334.725L902.88 334.907L903.24 334.361L903.43 333.632L903.7 333.176L904.25 333.45L904.52 334.543L905.07 334.816L905.43 334.452L905.52 332.903L905.89 332.63L906.25 332.812L906.71 333.176L911.72 340.647L912.54 342.742L912.81 345.11L912.72 348.026L912.99 351.032L914.36 351.67L918.55 350.941L919.83 352.034L920.65 353.218L921.56 353.674L923.1 352.763L924.29 351.67L925.56 350.941L926.84 350.668L928.21 351.487L928.75 352.854L929.03 354.767L929.12 356.771L929.57 360.415V361.782L929.21 363.057L928.48 364.788L930.12 364.241ZM847.947 368.068L847.31 366.337L846.581 365.152L845.305 364.059L843.848 363.422L843.028 363.604L843.574 365.061L844.577 366.063L846.125 368.159L847.036 368.979L848.038 369.252L847.947 368.068Z" fill="#BCE1E2" stroke="white" stroke-width="1.822" stroke-linecap="round" stroke-linejoin="round"/>
<path d="M722.139 388.292L721.956 391.116L721.319 391.845L718.404 392.392L717.675 392.483L717.401 392.665L717.128 392.847L717.037 393.211L716.946 394.851L716.582 397.493L716.764 397.858L717.037 398.131L717.857 397.949L718.859 397.675H719.315L719.497 398.495L713.211 412.889L713.029 413.891L712.846 414.984L713.12 416.897L713.302 417.444L713.575 417.991L713.849 418.173L715.306 418.446L727.331 418.719L743.183 414.802H743.365L743.456 414.893L743.183 415.44L742.909 415.804L742.727 416.169L742.454 416.624L741.725 419.266L741.543 419.722L741.361 420.359L741.998 421.544V421.635L739.903 422.181L738.81 423.001L740.176 424.459L742.545 426.007L744.367 426.736L744.914 426.645L742.636 429.651L741.816 431.109L741.543 431.838V432.384V432.84L741.634 433.204L741.816 433.842L742.181 434.571L742.545 435.846L742.727 436.484L742.818 436.848V437.486L742.727 439.764L742.545 440.128H742.272L742.181 439.855L741.907 439.581L741.634 439.49L741.361 439.399L740.905 439.672L740.814 439.946L740.996 440.219L741.179 440.492L742.181 441.039L742.454 441.312L742.545 441.586L742.454 441.95L742.363 442.405L742.09 443.043L741.998 444.136L741.907 444.774H741.725L741.179 444.683L740.632 446.232L740.085 457.346L739.812 458.986L739.083 460.352L737.808 461.628L735.53 463.085L734.802 464.087L735.439 465.454L734.346 465.909L731.066 466.82L728.516 467.002L725.874 466.82L721.592 465.272L713.666 465.089L695.537 460.352L693.078 460.261L691.074 460.899L686.154 464.452L681.964 465.089L680.87 466.183L681.235 469.189L681.053 469.462L680.87 469.644L680.597 469.735L680.324 469.827L678.957 469.644L678.137 469.735L674.129 466.183L671.943 464.269L671.214 463.358L670.667 462.174L670.758 457.437L670.94 456.89L671.305 456.253L671.943 456.07H673.582L674.038 455.979L674.493 455.797L674.767 455.433L674.858 455.068V454.248V453.793L674.767 453.155L674.676 452.791L674.584 452.335V451.698V450.696L674.767 450.24L674.858 449.876L675.222 449.511L676.042 448.874L677.773 447.963L678.866 447.598L680.324 447.234H680.688L681.508 447.052L681.69 446.505L680.324 440.037L679.413 438.579L670.212 436.848L669.027 436.757L668.481 436.939L668.025 436.848L667.661 436.666L666.75 436.12H666.385L666.021 436.211L665.201 436.302L664.563 436.211L660.373 435.026L659.735 434.024L659.553 434.115H659.28L658.551 434.389L656.729 432.384L656.638 432.02V431.382L656.82 430.927L656.729 430.016L656.456 429.56L656.091 429.287H655.727H655.362L655.089 429.378L654.087 429.834L653.814 429.925L653.358 430.016H652.903L652.265 429.834L652.083 429.56L651.901 429.196L651.627 426.099L651.718 425.734L651.809 425.37L652.083 425.188L653.085 424.914L653.358 424.641L653.54 424.459L653.723 423.821L653.814 422.181L652.356 420.45L652.174 419.904V419.357L652.356 418.993V418.446L652.174 418.173L651.901 417.9L650.807 417.444L650.443 417.08L650.261 416.715L650.079 416.442L649.35 412.798L649.259 411.614L649.168 408.334V407.879L649.259 407.423L649.35 407.059L649.805 405.965L650.079 404.963L650.17 404.052L650.079 403.324L649.805 402.686L649.441 401.775L649.168 401.41L648.894 401.137L648.53 401.228L647.163 401.502L645.979 401.593L645.068 401.41L644.248 401.228L642.062 400.591L635.411 400.317L634.956 399.953L643.064 384.193L644.521 380.457L643.337 378.362L642.882 377.178L642.791 376.813V375.629L642.973 374.354V373.716V373.169L642.791 372.896L642.608 372.623L642.335 372.35L637.598 371.074L636.869 370.619L636.505 370.436L636.049 369.89L635.776 369.252L635.594 368.979L635.503 368.614L634.683 358.776L635.32 357.956L635.776 356.863L642.244 354.221V353.947L645.25 354.767L651.445 354.403L656.638 354.038L669.938 353.219L676.771 352.854L687.885 352.125L694.626 351.761L695.902 352.125L698.088 353.31L699.273 353.674L700.275 353.492L701.823 352.49L703.372 351.488L704.647 350.577L705.012 351.67L705.285 352.581L705.467 352.763L705.832 353.492L707.016 355.041L708.2 356.589L708.747 357.865L708.929 359.231L709.111 360.507L709.476 361.144L709.84 361.691L710.478 361.144L711.116 360.871L711.753 360.962L712.391 361.691L713.12 360.142L714.213 360.051L714.395 361.509V361.691L714.304 362.329L714.851 362.511L714.942 362.602L713.757 363.513L713.302 363.786L713.757 363.968L713.94 364.333L714.395 365.153V367.157L714.122 368.341L713.849 369.525L713.484 370.619L713.12 371.803L712.3 373.625L711.662 374.536L710.933 375.447L710.022 376.085L708.2 376.996L707.654 377.36L707.563 377.907L707.836 378.18L709.931 378.635L711.571 379.546L716.399 384.375L718.221 385.741L719.952 387.199L722.139 388.292Z" fill="#1B9C9F" stroke="white" stroke-width="1.822" stroke-linecap="round" stroke-linejoin="round"/>
<path d="M741.907 444.774L741.998 444.136L742.089 443.043L742.363 442.405L742.454 441.95L742.545 441.586L742.454 441.312L742.18 441.039L741.178 440.492L740.996 440.219L740.814 439.946L740.905 439.672L741.361 439.399L741.634 439.49L741.907 439.581L742.18 439.855L742.272 440.128H742.545L742.727 439.764L742.818 437.486V436.848L742.727 436.484L742.545 435.846L742.18 434.571L741.816 433.842L741.634 433.204L741.543 432.84V432.384V431.838L741.816 431.109L742.636 429.651L744.913 426.645L757.303 424.185L759.763 425.916L760.127 426.918L760.218 428.012V429.014L759.763 429.834L758.578 430.016L754.661 429.469L753.659 429.743L751.746 431.382L751.017 431.656L749.833 429.469L749.013 428.832L748.375 430.107L748.466 430.745L749.377 431.473L749.56 432.02L749.468 433.387L749.56 434.024L749.833 434.753L754.479 441.221L754.661 442.77L752.384 443.681L751.199 441.768L750.379 438.853L749.286 436.484L748.193 435.664L747.829 436.211L748.011 437.486L748.557 439.035L749.742 441.494L749.651 442.497L749.013 443.863L748.831 443.954L748.284 444.045L748.102 444.136L747.738 445.23V445.685L747.646 446.323L747.282 446.778L746.553 446.414L745.187 444.136L744.276 443.408L742.454 445.047L741.907 444.774ZM764.864 419.357L763.133 418.446L761.949 418.264L753.386 419.63L752.293 420.086L750.471 421.088L749.195 421.27L746.189 420.724L745.005 420.815L741.998 421.635V421.544L741.361 420.359L741.543 419.722L741.725 419.266L742.454 416.624L742.727 416.169L742.909 415.804L743.183 415.44L743.456 414.893L743.365 414.802H743.183L727.331 418.719L715.306 418.446L713.848 418.173L713.575 417.991L713.302 417.444L713.12 416.897L712.846 414.984L713.028 413.891L713.211 412.889L719.497 398.495L719.314 397.675H718.859L717.857 397.949L717.037 398.131L716.764 397.858L716.581 397.493L716.946 394.851L717.037 393.211L717.128 392.847L717.401 392.665L717.675 392.483L718.403 392.392L721.319 391.845L721.956 391.116L722.138 388.292L726.238 390.478L732.433 393.758L732.615 393.394L733.253 392.756H734.073L734.437 392.3L734.801 391.663L735.257 391.389L735.895 391.481L737.99 392.483L739.356 392.756L740.541 392.027L740.814 391.116L739.812 390.57L741.087 388.474L741.178 388.019L740.723 387.199L740.45 386.379L740.176 385.468L740.267 384.557L738.901 384.284L738.445 384.01L737.99 383.464L737.625 382.097L737.352 379.182L737.079 376.267L737.17 375.72L737.261 375.174L737.625 374.809L737.899 374.536L738.263 373.807L738.354 373.078L738.172 371.53L738.263 370.801L738.445 370.892L738.992 371.074L739.174 371.256L739.812 369.617L741.269 368.614L742.363 368.068L745.096 370.528L745.46 371.165L745.642 371.894L745.733 373.534L745.916 374.08L746.189 374.263L746.644 373.898H746.827L747.009 374.354L747.191 375.538L748.011 375.174L749.195 375.447L750.379 375.902L751.199 376.54L751.655 377.178L752.201 378.362L752.657 378.818L753.021 379.091L754.388 379.82L755.026 380.275L755.299 380.64L755.845 381.824V382.097L755.754 382.917L755.845 383.282L756.21 383.555L756.574 383.646L756.939 383.555L757.303 383.646L758.032 384.375L758.578 385.195L758.761 386.106L758.032 387.017L758.852 387.563L759.581 387.29L760.309 386.834L761.129 386.561L761.676 386.834L761.403 387.563L760.583 388.93L762.86 388.565L763.771 388.656L764.409 390.387L765.411 391.207L765.684 391.845L765.411 392.392L764.591 393.211V393.758L764.955 394.031L765.502 393.667L766.049 393.029L766.595 392.756L767.051 393.029L767.415 393.485V393.94L766.049 394.578L765.593 395.58L764.955 398.04L765.593 397.949L766.14 398.04L766.686 398.222L767.142 398.586L766.14 399.133L766.231 399.68L766.777 400.226L767.142 400.682L767.233 401.228L767.415 401.866L767.506 402.504L767.324 403.05L766.504 404.052L766.231 404.599L765.958 405.237L765.775 405.783L764.682 412.16L765.411 414.073L765.775 414.62L765.866 415.622L765.138 418.355L764.864 419.357Z" fill="#1B9C9F" stroke="white" stroke-width="1.822" stroke-linecap="round" stroke-linejoin="round"/>
<path d="M838.837 336.183L838.2 337.914L837.744 338.734L835.102 342.196L835.011 342.651L834.92 343.107L835.011 343.927L835.102 345.02L835.284 345.384L835.467 345.657L836.924 345.84L837.106 346.477L836.833 347.388L836.651 347.844L835.649 350.03L835.558 350.395V350.941L835.74 351.397L836.013 351.943L837.106 353.401L838.2 355.223L838.382 356.772L838.564 361.964L838.108 363.604L837.471 362.875L835.102 361.873L833.098 362.42L831.64 369.799L828.725 373.261L824.899 375.629L819.433 377.816L814.422 381.642L804.675 384.739L803.49 385.286L802.397 386.197L800.211 389.021L798.935 390.114L797.569 390.57L795.929 390.023L795.2 389.385L794.654 388.657L793.743 387.017L793.105 386.288L791.83 385.377L791.192 384.83L789.097 381.642L787.912 380.458L786.181 380.275L785.362 379.82L784.724 379.091L783.995 378.545L783.084 378.453L781.353 379L780.533 379.456L779.713 380.093L778.438 381.824L777.618 383.646L777.254 385.741L777.163 388.292L777.527 392.027L777.345 392.938L776.525 393.394L773.336 393.667L771.423 395.034V396.491L773.519 400.044H773.61L774.703 403.961L775.249 405.237L776.616 407.697L777.163 409.063L777.527 410.612L777.071 413.982L775.432 414.256L773.336 413.527L771.97 413.709L772.243 415.713L776.069 419.175V420.815L774.065 421.726L771.423 421.635L766.686 420.268L764.864 419.357L765.137 418.355L765.866 415.622L765.775 414.62L765.411 414.074L764.682 412.16L765.775 405.783L765.957 405.237L766.231 404.599L766.504 404.053L767.324 403.05L767.506 402.504L767.415 401.866L767.233 401.228L767.142 400.682L766.777 400.226L766.231 399.68L766.139 399.133L767.142 398.587L766.686 398.222L766.139 398.04L765.593 397.949L764.955 398.04L765.593 395.58L766.048 394.578L767.415 393.94V393.485L767.05 393.029L766.595 392.756L766.048 393.029L765.502 393.667L764.955 394.032L764.591 393.758V393.212L765.411 392.392L765.684 391.845L765.411 391.207L764.409 390.388L763.771 388.657L762.86 388.566L760.582 388.93L761.402 387.563L761.676 386.835L761.129 386.561L760.309 386.835L759.58 387.29L758.851 387.563L758.032 387.017L758.76 386.106L758.578 385.195L758.032 384.375L757.303 383.646L756.938 383.555L756.574 383.646L756.21 383.555L755.845 383.282L755.754 382.917L755.845 382.097V381.824L755.299 380.64L755.025 380.275L754.388 379.82L753.021 379.091L752.657 378.818L752.201 378.362L751.655 377.178L751.199 376.54L750.379 375.903L749.195 375.447L748.011 375.174L747.191 375.538L747.008 374.354L746.826 373.898H746.644L746.189 374.263L745.915 374.081L745.733 373.534L745.642 371.894L745.46 371.165L745.095 370.528L742.362 368.068L744.458 367.157L745.551 365.882L746.553 363.058L747.555 360.233L748.193 359.414L749.013 358.594L750.835 357.774L752.566 356.954L753.932 354.676L754.296 354.221L754.57 353.765L755.663 353.401L757.94 353.128L758.943 352.672L759.854 352.217L760.765 351.579L761.676 350.941L762.587 350.03L763.042 349.21L763.406 345.84L763.862 342.56L763.771 341.376L763.68 340.556L763.498 340.283L763.224 340.1L762.769 339.463L762.587 338.916L762.86 338.369L763.315 338.005L765.775 336.821L766.777 336.547L767.688 336.912L768.235 335.454L769.601 334.179L770.968 333.268L772.425 332.357L773.336 332.084L774.885 332.721L775.614 332.63L777.709 331.264L778.438 331.081L780.078 331.355L781.626 331.628L782.264 331.264L782.173 330.535L781.262 328.895L781.08 328.166L781.444 327.255L781.809 326.344L783.175 325.251L786.181 324.34L788.914 322.154L791.556 320.058L792.376 319.147L793.105 318.327L794.016 317.599L797.569 316.597L801.122 315.594L804.128 315.503L807.043 315.321L809.23 314.41L810.87 312.497L811.598 311.404L812.418 310.766L813.876 310.22L815.333 309.673L819.797 306.393L820.435 305.573L821.073 304.845L822.895 301.656L824.717 298.559L825.446 297.739L826.357 297.283L827.359 296.919L828.179 296.463L828.907 295.735L829.09 295.097L829.272 294.459L830.547 291.544L831.731 290.542L832.825 289.54L838.017 287.353L838.746 287.445L839.748 288.173L840.568 289.084L841.024 290.086L841.388 291.362L842.208 292.182L843.301 292.637L844.577 292.819L845.396 292.455L846.216 292.091L847.31 289.995L847.856 288.629L848.312 287.353L849.496 284.985L850.32 284.165L851.04 283.254L851.59 282.252L852.05 280.976L852.78 279.883H854.05L856.51 280.521L858.51 280.248L859.52 279.792L860.52 279.246L864.07 276.33L865.26 275.237L867.53 273.415L869.26 273.233L870.9 273.962L878.37 279.246L880.2 279.883L879.47 282.616L877.46 283.983L873.09 285.258L865.62 290.815L863.43 291.362L860.79 291.271L858.7 291.817L857.69 294.459L857.6 298.559L856.97 299.743L855.14 300.472L849.86 301.018L848.221 302.021L843.028 306.484L840.75 309.217L839.202 312.588L837.926 314.501L836.286 315.503L834.556 316.414L831.458 318.874L822.895 323.976L821.71 325.798L822.713 328.075L824.626 329.077L832.096 329.897L832.187 329.988L834.1 331.173L835.011 331.992L835.831 332.995L837.106 335.454L837.926 336.183H838.837ZM780.169 343.744L779.622 343.107L780.078 342.469L779.531 341.649L778.802 341.194L779.622 339.827L779.349 338.643L777.436 337.367L775.796 337.185L774.521 336.274L772.79 336.365L769.966 339.189L769.51 341.376L768.144 344.838L768.326 344.929L769.237 344.473L769.328 345.293L769.692 346.113L770.968 347.571L771.879 346.751V347.024L771.605 347.662L772.243 348.846L773.792 349.301L775.523 347.206L778.165 344.746L780.169 343.744Z" fill="#1B9C9F"/>
<path d="M838.837 336.183L838.2 337.914L837.744 338.734L835.102 342.196L835.011 342.651L834.92 343.107L835.011 343.927L835.102 345.02L835.284 345.384L835.467 345.657L836.924 345.84L837.106 346.477L836.833 347.388L836.651 347.844L835.649 350.03L835.558 350.395V350.941L835.74 351.397L836.013 351.943L837.106 353.401L838.2 355.223L838.382 356.772L838.564 361.964L838.108 363.604L837.471 362.875L835.102 361.873L833.098 362.42L831.64 369.799L828.725 373.261L824.899 375.629L819.433 377.816L814.422 381.642L804.675 384.739L803.49 385.286L802.397 386.197L800.211 389.021L798.935 390.114L797.569 390.57L795.929 390.023L795.2 389.385L794.654 388.657L793.743 387.017L793.105 386.288L791.83 385.377L791.192 384.83L789.097 381.642L787.912 380.458L786.181 380.275L785.362 379.82L784.724 379.091L783.995 378.545L783.084 378.453L781.353 379L780.533 379.456L779.713 380.093L778.438 381.824L777.618 383.646L777.254 385.741L777.163 388.292L777.527 392.027L777.345 392.938L776.525 393.394L773.336 393.667L771.423 395.034V396.491L773.519 400.044H773.61L774.703 403.961L775.249 405.237L776.616 407.697L777.163 409.063L777.527 410.612L777.071 413.982L775.432 414.256L773.336 413.527L771.97 413.709L772.243 415.713L776.069 419.175V420.815L774.065 421.726L771.423 421.635L766.686 420.268L764.864 419.357L765.137 418.355L765.866 415.622L765.775 414.62L765.411 414.074L764.682 412.16L765.775 405.783L765.957 405.237L766.231 404.599L766.504 404.053L767.324 403.05L767.506 402.504L767.415 401.866L767.233 401.228L767.142 400.682L766.777 400.226L766.231 399.68L766.139 399.133L767.142 398.587L766.686 398.222L766.139 398.04L765.593 397.949L764.955 398.04L765.593 395.58L766.048 394.578L767.415 393.94V393.485L767.05 393.029L766.595 392.756L766.048 393.029L765.502 393.667L764.955 394.032L764.591 393.758V393.212L765.411 392.392L765.684 391.845L765.411 391.207L764.409 390.388L763.771 388.657L762.86 388.566L760.582 388.93L761.402 387.563L761.676 386.835L761.129 386.561L760.309 386.835L759.58 387.29L758.851 387.563L758.032 387.017L758.76 386.106L758.578 385.195L758.032 384.375L757.303 383.646L756.938 383.555L756.574 383.646L756.21 383.555L755.845 383.282L755.754 382.917L755.845 382.097V381.824L755.299 380.64L755.025 380.275L754.388 379.82L753.021 379.091L752.657 378.818L752.201 378.362L751.655 377.178L751.199 376.54L750.379 375.903L749.195 375.447L748.011 375.174L747.191 375.538L747.008 374.354L746.826 373.898H746.644L746.189 374.263L745.915 374.081L745.733 373.534L745.642 371.894L745.46 371.165L745.095 370.528L742.362 368.068L744.458 367.157L745.551 365.882L746.553 363.058L747.555 360.233L748.193 359.414L749.013 358.594L750.835 357.774L752.566 356.954L753.932 354.676L754.296 354.221L754.57 353.765L755.663 353.401L757.94 353.128L758.943 352.672L759.854 352.217L760.765 351.579L761.676 350.941L762.587 350.03L763.042 349.21L763.406 345.84L763.862 342.56L763.771 341.376L763.68 340.556L763.498 340.283L763.224 340.1L762.769 339.463L762.587 338.916L762.86 338.369L763.315 338.005L765.775 336.821L766.777 336.547L767.688 336.912L768.235 335.454L769.601 334.179L770.968 333.268L772.425 332.357L773.336 332.084L774.885 332.721L775.614 332.63L777.709 331.264L778.438 331.081L780.078 331.355L781.626 331.628L782.264 331.264L782.173 330.535L781.262 328.895L781.08 328.166L781.444 327.255L781.809 326.344L783.175 325.251L786.181 324.34L788.914 322.154L791.556 320.058L792.376 319.147L793.105 318.327L794.016 317.599L797.569 316.597L801.122 315.594L804.128 315.503L807.043 315.321L809.23 314.41L810.87 312.497L811.598 311.404L812.418 310.766L813.876 310.22L815.333 309.673L819.797 306.393L820.435 305.573L821.073 304.845L822.895 301.656L824.717 298.559L825.446 297.739L826.357 297.283L827.359 296.919L828.179 296.463L828.907 295.735L829.09 295.097L829.272 294.459L830.547 291.544L831.731 290.542L832.825 289.54L838.017 287.353L838.746 287.445L839.748 288.173L840.568 289.084L841.024 290.086L841.388 291.362L842.208 292.182L843.301 292.637L844.577 292.819L845.396 292.455L846.216 292.091L847.31 289.995L847.856 288.629L848.312 287.353L849.496 284.985L850.32 284.165L851.04 283.254L851.59 282.252L852.05 280.976L852.78 279.883H854.05L856.51 280.521L858.51 280.248L859.52 279.792L860.52 279.246L864.07 276.33L865.26 275.237L867.53 273.415L869.26 273.233L870.9 273.962L878.37 279.246L880.2 279.883L879.47 282.616L877.46 283.983L873.09 285.258L865.62 290.815L863.43 291.362L860.79 291.271L858.7 291.817L857.69 294.459L857.6 298.559L856.97 299.743L855.14 300.472L849.86 301.018L848.221 302.021L843.028 306.484L840.75 309.217L839.202 312.588L837.926 314.501L836.286 315.503L834.556 316.414L831.458 318.874L822.895 323.976L821.71 325.798L822.713 328.075L824.626 329.077L832.096 329.897L832.187 329.988L834.1 331.173L835.011 331.992L835.831 332.995L837.106 335.454L837.926 336.183H838.837ZM780.169 343.744L779.622 343.107L780.078 342.469L779.531 341.649L778.802 341.194L779.622 339.827L779.349 338.643L777.436 337.367L775.796 337.185L774.521 336.274L772.79 336.365L769.966 339.189L769.51 341.376L768.144 344.838L768.326 344.929L769.237 344.473L769.328 345.293L769.692 346.113L770.968 347.571L771.879 346.751V347.024L771.605 347.662L772.243 348.846L773.792 349.301L775.523 347.206L778.165 344.746L780.169 343.744Z" fill="#1B9C9F"/>
<path d="M838.837 336.183L838.2 337.914L837.744 338.734L835.102 342.196L835.011 342.651L834.92 343.107L835.011 343.927L835.102 345.02L835.284 345.384L835.467 345.657L836.924 345.84L837.106 346.477L836.833 347.388L836.651 347.844L835.649 350.03L835.558 350.395V350.941L835.74 351.397L836.013 351.943L837.106 353.401L838.2 355.223L838.382 356.772L838.564 361.964L838.108 363.604L837.471 362.875L835.102 361.873L833.098 362.42L831.64 369.799L828.725 373.261L824.899 375.629L819.433 377.816L814.422 381.642L804.675 384.739L803.49 385.286L802.397 386.197L800.211 389.021L798.935 390.114L797.569 390.57L795.929 390.023L795.2 389.385L794.654 388.657L793.743 387.017L793.105 386.288L791.83 385.377L791.192 384.83L789.097 381.642L787.912 380.458L786.181 380.275L785.362 379.82L784.724 379.091L783.995 378.545L783.084 378.453L781.353 379L780.533 379.456L779.713 380.093L778.438 381.824L777.618 383.646L777.254 385.741L777.163 388.292L777.527 392.027L777.345 392.938L776.525 393.394L773.336 393.667L771.423 395.034V396.491L773.519 400.044H773.61L774.703 403.961L775.249 405.237L776.616 407.697L777.163 409.063L777.527 410.612L777.071 413.982L775.432 414.256L773.336 413.527L771.97 413.709L772.243 415.713L776.069 419.175V420.815L774.065 421.726L771.423 421.635L766.686 420.268L764.864 419.357L765.137 418.355L765.866 415.622L765.775 414.62L765.411 414.074L764.682 412.16L765.775 405.783L765.957 405.237L766.231 404.599L766.504 404.053L767.324 403.05L767.506 402.504L767.415 401.866L767.233 401.228L767.142 400.682L766.777 400.226L766.231 399.68L766.139 399.133L767.142 398.587L766.686 398.222L766.139 398.04L765.593 397.949L764.955 398.04L765.593 395.58L766.048 394.578L767.415 393.94V393.485L767.05 393.029L766.595 392.756L766.048 393.029L765.502 393.667L764.955 394.032L764.591 393.758V393.212L765.411 392.392L765.684 391.845L765.411 391.207L764.409 390.388L763.771 388.657L762.86 388.566L760.582 388.93L761.402 387.563L761.676 386.835L761.129 386.561L760.309 386.835L759.58 387.29L758.851 387.563L758.032 387.017L758.76 386.106L758.578 385.195L758.032 384.375L757.303 383.646L756.938 383.555L756.574 383.646L756.21 383.555L755.845 383.282L755.754 382.917L755.845 382.097V381.824L755.299 380.64L755.025 380.275L754.388 379.82L753.021 379.091L752.657 378.818L752.201 378.362L751.655 377.178L751.199 376.54L750.379 375.903L749.195 375.447L748.011 375.174L747.191 375.538L747.008 374.354L746.826 373.898H746.644L746.189 374.263L745.915 374.081L745.733 373.534L745.642 371.894L745.46 371.165L745.095 370.528L742.362 368.068L744.458 367.157L745.551 365.882L746.553 363.058L747.555 360.233L748.193 359.414L749.013 358.594L750.835 357.774L752.566 356.954L753.932 354.676L754.296 354.221L754.57 353.765L755.663 353.401L757.94 353.128L758.943 352.672L759.854 352.217L760.765 351.579L761.676 350.941L762.587 350.03L763.042 349.21L763.406 345.84L763.862 342.56L763.771 341.376L763.68 340.556L763.498 340.283L763.224 340.1L762.769 339.463L762.587 338.916L762.86 338.369L763.315 338.005L765.775 336.821L766.777 336.547L767.688 336.912L768.235 335.454L769.601 334.179L770.968 333.268L772.425 332.357L773.336 332.084L774.885 332.721L775.614 332.63L777.709 331.264L778.438 331.081L780.078 331.355L781.626 331.628L782.264 331.264L782.173 330.535L781.262 328.895L781.08 328.166L781.444 327.255L781.809 326.344L783.175 325.251L786.181 324.34L788.914 322.154L791.556 320.058L792.376 319.147L793.105 318.327L794.016 317.599L797.569 316.597L801.122 315.594L804.128 315.503L807.043 315.321L809.23 314.41L810.87 312.497L811.598 311.404L812.418 310.766L813.876 310.22L815.333 309.673L819.797 306.393L820.435 305.573L821.073 304.845L822.895 301.656L824.717 298.559L825.446 297.739L826.357 297.283L827.359 296.919L828.179 296.463L828.907 295.735L829.09 295.097L829.272 294.459L830.547 291.544L831.731 290.542L832.825 289.54L838.017 287.353L838.746 287.445L839.748 288.173L840.568 289.084L841.024 290.086L841.388 291.362L842.208 292.182L843.301 292.637L844.577 292.819L845.396 292.455L846.216 292.091L847.31 289.995L847.856 288.629L848.312 287.353L849.496 284.985L850.32 284.165L851.04 283.254L851.59 282.252L852.05 280.976L852.78 279.883H854.05L856.51 280.521L858.51 280.248L859.52 279.792L860.52 279.246L864.07 276.33L865.26 275.237L867.53 273.415L869.26 273.233L870.9 273.962L878.37 279.246L880.2 279.883L879.47 282.616L877.46 283.983L873.09 285.258L865.62 290.815L863.43 291.362L860.79 291.271L858.7 291.817L857.69 294.459L857.6 298.559L856.97 299.743L855.14 300.472L849.86 301.018L848.221 302.021L843.028 306.484L840.75 309.217L839.202 312.588L837.926 314.501L836.286 315.503L834.556 316.414L831.458 318.874L822.895 323.976L821.71 325.798L822.713 328.075L824.626 329.077L832.096 329.897L832.187 329.988L834.1 331.173L835.011 331.992L835.831 332.995L837.106 335.454L837.926 336.183H838.837ZM780.169 343.744L779.622 343.107L780.078 342.469L779.531 341.649L778.802 341.194L779.622 339.827L779.349 338.643L777.436 337.367L775.796 337.185L774.521 336.274L772.79 336.365L769.966 339.189L769.51 341.376L768.144 344.838L768.326 344.929L769.237 344.473L769.328 345.293L769.692 346.113L770.968 347.571L771.879 346.751V347.024L771.605 347.662L772.243 348.846L773.792 349.301L775.523 347.206L778.165 344.746L780.169 343.744Z" stroke="white" stroke-width="1.822" stroke-linecap="round" stroke-linejoin="round"/>
<path d="M838.837 336.183L838.2 337.914L837.744 338.734L835.102 342.196L835.011 342.651L834.92 343.107L835.011 343.927L835.102 345.02L835.284 345.384L835.467 345.657L836.924 345.84L837.106 346.477L836.833 347.388L836.651 347.844L835.649 350.03L835.558 350.395V350.941L835.74 351.397L836.013 351.943L837.106 353.401L838.2 355.223L838.382 356.772L838.564 361.964L838.108 363.604L837.471 362.875L835.102 361.873L833.098 362.42L831.64 369.799L828.725 373.261L824.899 375.629L819.433 377.816L814.422 381.642L804.675 384.739L803.49 385.286L802.397 386.197L800.211 389.021L798.935 390.114L797.569 390.57L795.929 390.023L795.2 389.385L794.654 388.657L793.743 387.017L793.105 386.288L791.83 385.377L791.192 384.83L789.097 381.642L787.912 380.458L786.181 380.275L785.362 379.82L784.724 379.091L783.995 378.545L783.084 378.453L781.353 379L780.533 379.456L779.713 380.093L778.438 381.824L777.618 383.646L777.254 385.741L777.163 388.292L777.527 392.027L777.345 392.938L776.525 393.394L773.336 393.667L771.423 395.034V396.491L773.519 400.044H773.61L774.703 403.961L775.249 405.237L776.616 407.697L777.163 409.063L777.527 410.612L777.071 413.982L775.432 414.256L773.336 413.527L771.97 413.709L772.243 415.713L776.069 419.175V420.815L774.065 421.726L771.423 421.635L766.686 420.268L764.864 419.357L765.137 418.355L765.866 415.622L765.775 414.62L765.411 414.074L764.682 412.16L765.775 405.783L765.957 405.237L766.231 404.599L766.504 404.053L767.324 403.05L767.506 402.504L767.415 401.866L767.233 401.228L767.142 400.682L766.777 400.226L766.231 399.68L766.139 399.133L767.142 398.587L766.686 398.222L766.139 398.04L765.593 397.949L764.955 398.04L765.593 395.58L766.048 394.578L767.415 393.94V393.485L767.05 393.029L766.595 392.756L766.048 393.029L765.502 393.667L764.955 394.032L764.591 393.758V393.212L765.411 392.392L765.684 391.845L765.411 391.207L764.409 390.388L763.771 388.657L762.86 388.566L760.582 388.93L761.402 387.563L761.676 386.835L761.129 386.561L760.309 386.835L759.58 387.29L758.851 387.563L758.032 387.017L758.76 386.106L758.578 385.195L758.032 384.375L757.303 383.646L756.938 383.555L756.574 383.646L756.21 383.555L755.845 383.282L755.754 382.917L755.845 382.097V381.824L755.299 380.64L755.025 380.275L754.388 379.82L753.021 379.091L752.657 378.818L752.201 378.362L751.655 377.178L751.199 376.54L750.379 375.903L749.195 375.447L748.011 375.174L747.191 375.538L747.008 374.354L746.826 373.898H746.644L746.189 374.263L745.915 374.081L745.733 373.534L745.642 371.894L745.46 371.165L745.095 370.528L742.362 368.068L744.458 367.157L745.551 365.882L746.553 363.058L747.555 360.233L748.193 359.414L749.013 358.594L750.835 357.774L752.566 356.954L753.932 354.676L754.296 354.221L754.57 353.765L755.663 353.401L757.94 353.128L758.943 352.672L759.854 352.217L760.765 351.579L761.676 350.941L762.587 350.03L763.042 349.21L763.406 345.84L763.862 342.56L763.771 341.376L763.68 340.556L763.498 340.283L763.224 340.1L762.769 339.463L762.587 338.916L762.86 338.369L763.315 338.005L765.775 336.821L766.777 336.547L767.688 336.912L768.235 335.454L769.601 334.179L770.968 333.268L772.425 332.357L773.336 332.084L774.885 332.721L775.614 332.63L777.709 331.264L778.438 331.081L780.078 331.355L781.626 331.628L782.264 331.264L782.173 330.535L781.262 328.895L781.08 328.166L781.444 327.255L781.809 326.344L783.175 325.251L786.181 324.34L788.914 322.154L791.556 320.058L792.376 319.147L793.105 318.327L794.016 317.599L797.569 316.597L801.122 315.594L804.128 315.503L807.043 315.321L809.23 314.41L810.87 312.497L811.598 311.404L812.418 310.766L813.876 310.22L815.333 309.673L819.797 306.393L820.435 305.573L821.073 304.845L822.895 301.656L824.717 298.559L825.446 297.739L826.357 297.283L827.359 296.919L828.179 296.463L828.907 295.735L829.09 295.097L829.272 294.459L830.547 291.544L831.731 290.542L832.825 289.54L838.017 287.353L838.746 287.445L839.748 288.173L840.568 289.084L841.024 290.086L841.388 291.362L842.208 292.182L843.301 292.637L844.577 292.819L845.396 292.455L846.216 292.091L847.31 289.995L847.856 288.629L848.312 287.353L849.496 284.985L850.32 284.165L851.04 283.254L851.59 282.252L852.05 280.976L852.78 279.883H854.05L856.51 280.521L858.51 280.248L859.52 279.792L860.52 279.246L864.07 276.33L865.26 275.237L867.53 273.415L869.26 273.233L870.9 273.962L878.37 279.246L880.2 279.883L879.47 282.616L877.46 283.983L873.09 285.258L865.62 290.815L863.43 291.362L860.79 291.271L858.7 291.817L857.69 294.459L857.6 298.559L856.97 299.743L855.14 300.472L849.86 301.018L848.221 302.021L843.028 306.484L840.75 309.217L839.202 312.588L837.926 314.501L836.286 315.503L834.556 316.414L831.458 318.874L822.895 323.976L821.71 325.798L822.713 328.075L824.626 329.077L832.096 329.897L832.187 329.988L834.1 331.173L835.011 331.992L835.831 332.995L837.106 335.454L837.926 336.183H838.837ZM780.169 343.744L779.622 343.107L780.078 342.469L779.531 341.649L778.802 341.194L779.622 339.827L779.349 338.643L777.436 337.367L775.796 337.185L774.521 336.274L772.79 336.365L769.966 339.189L769.51 341.376L768.144 344.838L768.326 344.929L769.237 344.473L769.328 345.293L769.692 346.113L770.968 347.571L771.879 346.751V347.024L771.605 347.662L772.243 348.846L773.792 349.301L775.523 347.206L778.165 344.746L780.169 343.744Z" stroke="white" stroke-width="1.822" stroke-linecap="round" stroke-linejoin="round"/>
<path d="M780.025 343.47L779.478 342.833L779.934 342.195L779.387 341.375L778.658 340.92L779.478 339.553L779.205 338.369L777.292 337.093L775.652 336.911L774.377 336L772.646 336.091L769.822 338.915L769.366 341.102L768 344.564L768.182 344.655L769.093 344.199L769.184 345.019L769.548 345.839L770.824 347.297L771.735 346.477V346.75L771.461 347.388L772.099 348.572L773.648 349.027L775.379 346.932L778.021 344.472L780.025 343.47Z" fill="#1B9C9F"/>
<path d="M780.025 343.47L779.478 342.833L779.934 342.195L779.387 341.375L778.658 340.92L779.478 339.553L779.205 338.369L777.292 337.093L775.652 336.911L774.377 336L772.646 336.091L769.822 338.915L769.366 341.102L768 344.564L768.182 344.655L769.093 344.199L769.184 345.019L769.548 345.839L770.824 347.297L771.735 346.477V346.75L771.461 347.388L772.099 348.572L773.648 349.027L775.379 346.932L778.021 344.472L780.025 343.47Z" fill="#1B9C9F"/>
<path d="M780.025 343.47L779.478 342.833L779.934 342.195L779.387 341.375L778.658 340.92L779.478 339.553L779.205 338.369L777.292 337.093L775.652 336.911L774.377 336L772.646 336.091L769.822 338.915L769.366 341.102L768 344.564L768.182 344.655L769.093 344.199L769.184 345.019L769.548 345.839L770.824 347.297L771.735 346.477V346.75L771.461 347.388L772.099 348.572L773.648 349.027L775.379 346.932L778.021 344.472L780.025 343.47Z" fill="#1B9C9F"/>
<path d="M780.025 343.47L779.478 342.833L779.934 342.195L779.387 341.375L778.658 340.92L779.478 339.553L779.205 338.369L777.292 337.093L775.652 336.911L774.377 336L772.646 336.091L769.822 338.915L769.366 341.102L768 344.564L768.182 344.655L769.093 344.199L769.184 345.019L769.548 345.839L770.824 347.297L771.735 346.477V346.75L771.461 347.388L772.099 348.572L773.648 349.027L775.379 346.932L778.021 344.472L780.025 343.47Z" stroke="white" stroke-width="1.822" stroke-linecap="round" stroke-linejoin="round"/>
<path d="M780.025 343.47L779.478 342.833L779.934 342.195L779.387 341.375L778.658 340.92L779.478 339.553L779.205 338.369L777.292 337.093L775.652 336.911L774.377 336L772.646 336.091L769.822 338.915L769.366 341.102L768 344.564L768.182 344.655L769.093 344.199L769.184 345.019L769.548 345.839L770.824 347.297L771.735 346.477V346.75L771.461 347.388L772.099 348.572L773.648 349.027L775.379 346.932L778.021 344.472L780.025 343.47Z" stroke="white" stroke-width="1.822" stroke-linecap="round" stroke-linejoin="round"/>
<path d="M780.025 343.47L779.478 342.833L779.934 342.195L779.387 341.375L778.658 340.92L779.478 339.553L779.205 338.369L777.292 337.093L775.652 336.911L774.377 336L772.646 336.091L769.822 338.915L769.366 341.102L768 344.564L768.182 344.655L769.093 344.199L769.184 345.019L769.548 345.839L770.824 347.297L771.735 346.477V346.75L771.461 347.388L772.099 348.572L773.648 349.027L775.379 346.932L778.021 344.472L780.025 343.47Z" stroke="white" stroke-width="1.822" stroke-linecap="round" stroke-linejoin="round"/>
</g>
<defs>
<clipPath id="clip0_102_17">
<rect width="1052" height="696" fill="white"/>
</clipPath>
</defs>
</svg>
