<svg width="46" height="55" viewBox="0 0 46 55" fill="none" xmlns="http://www.w3.org/2000/svg">
<rect width="45" height="54" transform="translate(0.5 0.712158)" fill="#F7F7F7"/>
<path d="M42.2302 12.5657H36.8907C36.6611 12.5657 36.4761 12.7827 36.4761 13.0535V42.2925C36.4761 42.5584 36.6611 42.7779 36.8907 42.7779H42.2302C42.4578 42.7779 42.6448 42.5608 42.6448 42.2925V13.0535C42.6448 12.7852 42.4578 12.5657 42.2302 12.5657Z" fill="#B3B6BF"/>
<path d="M23.9962 12.5657H3.65479C3.42511 12.5657 3.24219 12.7827 3.24219 13.0535V42.2925C3.24219 42.5584 3.42511 42.7779 3.65479 42.7779H8.99625C9.22389 42.7779 9.41292 42.5608 9.41292 42.2925V19.3437C9.41292 19.0779 9.59584 18.8584 9.82552 18.8584H21.3316C24.5674 18.8584 25.4861 21.8315 25.4861 23.7486V42.2901C25.4861 42.5559 25.6731 42.7754 25.9007 42.7754H31.2381C31.4658 42.7754 31.6507 42.5584 31.6507 42.2901V21.5486C31.6507 19.8364 31.48 17.3779 29.6406 15.212C27.7158 12.9535 25.9576 12.5657 23.9962 12.5657Z" fill="#B3B6BF"/>
<path d="M20.2585 24.2096H14.6508C14.4211 24.2096 14.2341 24.4267 14.2341 24.695V42.2925C14.2341 42.5584 14.4211 42.7779 14.6508 42.7779H20.2585C20.4841 42.7779 20.6711 42.5608 20.6711 42.2925V24.695C20.6711 24.4291 20.4862 24.2096 20.2585 24.2096Z" fill="#B3B6BF"/>
</svg>
