<svg width="31" height="30" viewBox="0 0 31 30" fill="none" xmlns="http://www.w3.org/2000/svg">
<path d="M28.0091 11.5195V7.50343L24.5217 5.49886L22.5102 2.01144H18.4873L15.0068 0L11.5194 2.01144H7.50334L5.5125 5.49886L2.01135 7.50343V11.5195L0.0205078 15.0137L2.01135 18.4943V22.524L5.5125 24.5217L7.51708 27.9954H11.5331L15.0205 30L18.5011 27.9954H22.5239L24.5354 24.5149L28.0228 22.4966V18.4943L30.0136 15.0137L28.0091 11.5195ZM26.8901 8.14874V11.3684H23.4576L21.9061 13.9703L19.0709 12.3982V9.78947H22.5033L24.2951 6.69336L26.8901 8.14874ZM15.0068 18.2059L12.0274 19.9222V16.9703L8.71158 15.0137L12.0274 12.9954V10.0366L15.0068 11.7048L17.9862 10.0023V13.0023L21.302 14.9657L17.9862 16.9016V19.9222L15.0068 18.2059ZM18.659 3.10297H21.8718L23.4576 5.84897L21.8718 8.59496H19.0503L17.2654 5.49886L18.659 3.10297ZM15.0068 1.28375L17.6086 2.76659L15.9816 5.51259L17.8695 8.83524L15.0136 10.4897L12.1441 8.83524L14.0457 5.54691L12.4461 2.80092L15.0068 1.28375ZM8.14179 3.10297H11.3546L12.7276 5.51259L11.0045 8.62243H8.14865L6.56284 5.87643L8.14179 3.10297ZM3.17154 8.14874L5.77337 6.64531L7.57199 9.74142H11.0045V12.3432L8.16925 13.9771L6.5903 11.3753H3.15781L3.17154 8.14874ZM1.33859 15.0137L2.7665 12.4805H5.9038L7.34545 15.0137L5.9038 17.5332H2.7665L1.33859 15.0137ZM3.17154 21.8787V18.6522H6.60403L8.15552 15.9886L11.0045 17.6224V20.2174H7.50334L5.77337 23.4096L3.17154 21.8787ZM11.4095 26.897H8.14865L6.56284 24.151L8.14865 21.405H11.0045L12.7963 24.5011L11.4095 26.897ZM15.0548 28.7437L12.453 27.2609L14.0525 24.5149L12.1441 21.1922L15.0068 19.4966L17.8695 21.1922L15.9885 24.4805L17.5743 27.3432L15.0548 28.7437ZM21.9198 26.9108H18.659L17.286 24.508L19.0709 21.4119H21.8924L23.4782 24.1579L21.9198 26.9108ZM26.945 21.8787L24.3432 23.3753L22.5445 20.2792H19.112V17.6705L21.9473 16.0297L23.4988 18.7002H26.9313L26.945 21.8787ZM27.3226 17.5332H24.1235L22.675 15.0137L24.1235 12.4874H27.2676L28.723 15.0137L27.3226 17.5332Z" fill="#1B9C9F"/>
</svg>
