<svg width="99" height="30" viewBox="0 0 99 30" fill="none" xmlns="http://www.w3.org/2000/svg">
<g clip-path="url(#clip0_2515_10869)">
<path fill-rule="evenodd" clip-rule="evenodd" d="M12.9749 14.4219C13.3967 14.5476 13.7938 14.745 14.1488 15.0054C13.7923 15.2632 13.3956 15.4604 12.9749 15.5889C12.5593 15.4665 12.1688 15.2712 11.8215 15.0123C12.1691 14.7521 12.5594 14.5546 12.9749 14.4287" fill="#1B9C9F"/>
<path d="M15.0069 14.4078C14.9285 14.4022 14.8497 14.4121 14.775 14.4371C14.7004 14.462 14.6315 14.5015 14.5722 14.5531C14.5128 14.6048 14.4643 14.6677 14.4294 14.7382C14.3944 14.8086 14.3737 14.8853 14.3685 14.9638C14.3596 15.1141 14.4066 15.2624 14.5003 15.3803C14.5941 15.4981 14.728 15.5772 14.8765 15.6023H14.952L15.0069 14.4078Z" fill="#1B9C9F"/>
<path fill-rule="evenodd" clip-rule="evenodd" d="M13.572 16.4912C13.9054 16.2033 14.2833 15.9715 14.691 15.8047C14.7279 16.2429 14.6884 16.6843 14.5743 17.109C14.245 17.4025 13.8661 17.635 13.4553 17.7955C13.422 17.3596 13.4615 16.9211 13.572 16.4981" fill="#1B9C9F"/>
<path fill-rule="evenodd" clip-rule="evenodd" d="M14.5263 12.9551C14.6356 13.3783 14.6705 13.8174 14.6293 14.2526C14.6293 14.2526 13.6819 13.8407 13.524 13.5661C13.4143 13.1405 13.3795 12.6992 13.421 12.2617C13.8259 12.426 14.1996 12.6581 14.5263 12.9482" fill="#1B9C9F"/>
<path fill-rule="evenodd" clip-rule="evenodd" d="M17.032 14.4219C16.6117 14.5463 16.2167 14.7438 15.865 15.0054C16.2183 15.2644 16.6129 15.4617 17.032 15.5889C17.4524 15.4625 17.849 15.2677 18.206 15.0123C17.851 14.7519 17.4539 14.5545 17.032 14.4287" fill="#1B9C9F"/>
<path d="M15.0069 14.409C15.0832 14.4015 15.1602 14.4093 15.2335 14.4319C15.3068 14.4545 15.3749 14.4915 15.4337 14.5407C15.4925 14.5899 15.5409 14.6504 15.5761 14.7185C15.6112 14.7867 15.6324 14.8612 15.6384 14.9376C15.644 15.0167 15.6338 15.096 15.6085 15.171C15.5831 15.2461 15.543 15.3153 15.4907 15.3747C15.4383 15.4342 15.3746 15.4826 15.3033 15.5171C15.232 15.5517 15.1546 15.5717 15.0755 15.5761H15L15.0069 14.409Z" fill="#1B9C9F"/>
<path fill-rule="evenodd" clip-rule="evenodd" d="M16.4967 16.4912C16.1633 16.2033 15.7854 15.9715 15.3777 15.8047C15.3407 16.2429 15.3802 16.6843 15.4944 17.109C15.8254 17.4001 16.2039 17.6323 16.6134 17.7955C16.6474 17.3573 16.6079 16.9164 16.4967 16.4912Z" fill="#1B9C9F"/>
<path fill-rule="evenodd" clip-rule="evenodd" d="M15.4875 12.9551C15.3791 13.3786 15.3489 13.8182 15.3982 14.2526C15.8032 14.0887 16.1771 13.8565 16.5035 13.5661C16.6086 13.1397 16.6388 12.6984 16.5927 12.2617C16.1871 12.4244 15.8131 12.6567 15.4875 12.9482" fill="#1B9C9F"/>
<path d="M28.0091 11.5195V7.50343L24.5217 5.49886L22.5102 2.01144H18.4873L15.0068 0L11.5194 2.01144H7.50334L5.5125 5.49886L2.01135 7.50343V11.5195L0.0205078 15.0137L2.01135 18.4943V22.524L5.5125 24.5217L7.51708 27.9954H11.5331L15.0205 30L18.5011 27.9954H22.5239L24.5354 24.5149L28.0228 22.4966V18.4943L30.0136 15.0137L28.0091 11.5195ZM26.8901 8.14874V11.3684H23.4576L21.9061 13.9703L19.0709 12.3982V9.78947H22.5033L24.2951 6.69336L26.8901 8.14874ZM15.0068 18.2059L12.0274 19.9222V16.9703L8.71158 15.0137L12.0274 12.9954V10.0366L15.0068 11.7048L17.9862 10.0023V13.0023L21.302 14.9657L17.9862 16.9016V19.9222L15.0068 18.2059ZM18.659 3.10297H21.8718L23.4576 5.84897L21.8718 8.59496H19.0503L17.2654 5.49886L18.659 3.10297ZM15.0068 1.28375L17.6086 2.76659L15.9816 5.51259L17.8695 8.83524L15.0136 10.4897L12.1441 8.83524L14.0457 5.54691L12.4461 2.80092L15.0068 1.28375ZM8.14179 3.10297H11.3546L12.7276 5.51259L11.0045 8.62243H8.14865L6.56284 5.87643L8.14179 3.10297ZM3.17154 8.14874L5.77337 6.64531L7.57199 9.74142H11.0045V12.3432L8.16925 13.9771L6.5903 11.3753H3.15781L3.17154 8.14874ZM1.33859 15.0137L2.7665 12.4805H5.9038L7.34545 15.0137L5.9038 17.5332H2.7665L1.33859 15.0137ZM3.17154 21.8787V18.6522H6.60403L8.15552 15.9886L11.0045 17.6224V20.2174H7.50334L5.77337 23.4096L3.17154 21.8787ZM11.4095 26.897H8.14865L6.56284 24.151L8.14865 21.405H11.0045L12.7963 24.5011L11.4095 26.897ZM15.0548 28.7437L12.453 27.2609L14.0525 24.5149L12.1441 21.1922L15.0068 19.4966L17.8695 21.1922L15.9885 24.4805L17.5743 27.3432L15.0548 28.7437ZM21.9198 26.9108H18.659L17.286 24.508L19.0709 21.4119H21.8924L23.4782 24.1579L21.9198 26.9108ZM26.945 21.8787L24.3432 23.3753L22.5445 20.2792H19.112V17.6705L21.9473 16.0297L23.4988 18.7002H26.9313L26.945 21.8787ZM27.3226 17.5332H24.1235L22.675 15.0137L24.1235 12.4874H27.2676L28.723 15.0137L27.3226 17.5332Z" fill="#1B9C9F"/>
<path d="M45.508 21.5955V21.877H44.5332V25.4674H44.2106V21.877H43.8948V21.5749H44.2106V20.6825C44.2106 20.0989 44.6225 19.7969 45.4325 19.7969H45.6797V20.0989H45.4325C44.8353 20.0989 44.5332 20.298 44.5332 20.6962V21.5818L45.508 21.5955Z" fill="#343649"/>
<path d="M50.4439 24.6255C50.4439 25.209 50.0388 25.5179 49.2288 25.5179C48.4187 25.5179 48.0137 25.209 48.0137 24.6255V22.4218C48.0137 21.8246 48.4187 21.5156 49.2288 21.5156C50.0388 21.5156 50.4439 21.8246 50.4439 22.4218V24.6255ZM50.135 22.3943C50.135 21.9962 49.8466 21.7971 49.2494 21.7971C48.6521 21.7971 48.3638 21.9962 48.3638 22.3943V24.6255C48.3638 25.0236 48.6521 25.209 49.2494 25.209C49.8466 25.209 50.135 25.0511 50.135 24.6255V22.3943Z" fill="#343649"/>
<path d="M55.174 21.5977H55.5035V25.4901H55.2084V25.3734C54.8797 25.516 54.5228 25.5818 54.1649 25.5656C53.547 25.5656 53.1077 25.291 53.1077 24.68V21.5977H53.4372V24.6251C53.4372 25.0233 53.7255 25.2086 54.3228 25.2086C54.5909 25.2133 54.8586 25.1833 55.1191 25.1194H55.2084L55.174 21.5977Z" fill="#343649"/>
<path d="M58.5721 25.4881H58.2563V21.5956H58.5309V21.726C58.8642 21.573 59.2286 21.5001 59.595 21.5132C60.1991 21.5132 60.6385 21.8084 60.6385 22.4194V25.4881H60.3227V22.4194C60.3227 22.0212 60.0138 21.8221 59.4234 21.8221C59.1591 21.8217 58.8959 21.8563 58.6408 21.9251H58.5309L58.5721 25.4881Z" fill="#343649"/>
<path d="M65.4165 19.8203H65.7322V25.4839H65.4576V25.3672C65.1226 25.5127 64.7584 25.5785 64.3936 25.5594C63.7895 25.5594 63.3501 25.2848 63.3501 24.6739V22.4221C63.3501 21.8112 63.7895 21.516 64.3936 21.516C64.7127 21.521 65.0294 21.5718 65.3341 21.667H65.4576L65.4165 19.8203ZM65.4165 25.1132V22.0102C65.14 21.9083 64.8457 21.8639 64.5515 21.8798C63.9542 21.8798 63.6522 22.0789 63.6522 22.4702V24.6258C63.6522 25.024 63.9542 25.2093 64.5515 25.2093C64.8129 25.214 65.0737 25.184 65.3272 25.1201L65.4165 25.1132Z" fill="#343649"/>
<path d="M70.5514 21.598H70.826V25.4905H70.5514V25.3737C70.2178 25.5159 69.8565 25.5816 69.4942 25.566C68.8832 25.566 68.4438 25.2914 68.4438 24.6804V22.4218C68.4438 21.8108 68.8832 21.5156 69.4942 21.5156C69.8132 21.522 70.1297 21.5728 70.4347 21.6667H70.5514V21.598ZM70.5514 25.1197V22.0099C70.2646 21.9011 69.9585 21.852 69.6521 21.8657C69.0686 21.8657 68.7665 22.0648 68.7665 22.4561V24.6255C68.7665 25.0236 69.0686 25.209 69.6521 25.209C69.918 25.214 70.1835 25.184 70.4416 25.1197H70.5514Z" fill="#343649"/>
<path d="M75 21.8786H74.0321V24.5285C74.0321 24.9266 74.3341 25.112 74.9176 25.112H75.1716V25.4141H74.9176C74.1144 25.4141 73.7163 25.112 73.7163 24.5285V21.8786H73.3799V21.5903H73.7163V20.8832L73.9154 20.8008H74.0321V21.6108H75V21.8786Z" fill="#343649"/>
<path d="M77.6704 19.8203H77.9862V21.1453H77.6704V19.8203ZM77.6704 21.5915H77.9862V25.4839H77.6704V21.5915Z" fill="#343649"/>
<path d="M83.0869 24.6255C83.0869 25.209 82.6819 25.5179 81.8718 25.5179C81.0618 25.5179 80.6567 25.209 80.6567 24.6255V22.4218C80.6567 21.8246 81.0686 21.5156 81.8718 21.5156C82.675 21.5156 83.0869 21.8246 83.0869 22.4218V24.6255ZM82.7574 22.3669C82.7574 21.9687 82.4691 21.7696 81.8718 21.7696C81.2746 21.7696 80.9863 21.9687 80.9863 22.3669V24.6255C80.9863 25.0236 81.2746 25.209 81.8718 25.209C82.4691 25.209 82.7574 25.0236 82.7574 24.6255V22.3669Z" fill="#343649"/>
<path d="M86.0868 25.4879H85.7573V21.5955H86.0457V21.7259C86.3742 21.5735 86.734 21.5006 87.096 21.5131C87.7138 21.5131 88.1532 21.8083 88.1532 22.4193V25.4879H87.8237V22.4193C87.8237 22.0211 87.5285 21.822 86.9381 21.822C86.6693 21.822 86.4017 21.8566 86.1418 21.925H86.0457L86.0868 25.4879Z" fill="#343649"/>
<path d="M47.9314 4.25H45.1511C44.4459 4.30166 43.7673 4.54082 43.1856 4.94274C42.6038 5.34466 42.14 5.89473 41.8422 6.53604L38.1145 15.0761C37.8374 15.676 37.406 16.1916 36.8645 16.5703C36.323 16.949 35.6907 17.1772 35.0321 17.2317C35.0057 17.2255 34.978 17.2299 34.9548 17.2441C34.9317 17.2582 34.9151 17.2809 34.9086 17.3072C34.9062 17.3387 34.9154 17.3699 34.9343 17.3952C34.9532 17.4204 34.9807 17.438 35.0115 17.4445H45.7209C45.7486 17.4404 45.7742 17.4275 45.794 17.4077C45.8138 17.3879 45.8267 17.3623 45.8308 17.3347V13.5658C45.831 13.5353 45.8198 13.5057 45.7996 13.4829C45.7793 13.4601 45.7513 13.4456 45.7209 13.4422C45.6894 13.444 45.6597 13.4578 45.6379 13.4808C45.6162 13.5037 45.6042 13.5342 45.6042 13.5658C45.6042 14.0507 45.5081 14.5308 45.3213 14.9782C45.1345 15.4257 44.8608 15.8317 44.516 16.1726C44.1712 16.5136 43.7622 16.7828 43.3127 16.9646C42.8631 17.1463 42.382 17.2371 41.8971 17.2317H40.2839L44.8491 6.64588C45.1247 6.04429 45.5555 5.5269 46.0972 5.14686C46.6389 4.76683 47.272 4.53783 47.9314 4.48341C47.9489 4.48764 47.9671 4.48779 47.9846 4.48385C48.0021 4.47991 48.0184 4.47199 48.0324 4.4607C48.0463 4.44941 48.0575 4.43506 48.065 4.41875C48.0725 4.40245 48.0761 4.38464 48.0756 4.3667C48.0739 4.33696 48.0608 4.30901 48.0391 4.28859C48.0174 4.26816 47.9887 4.25681 47.9589 4.25686" fill="#343649"/>
<path d="M37.2632 8.25726C37.296 8.25726 37.3274 8.24424 37.3506 8.22107C37.3737 8.19789 37.3868 8.16646 37.3868 8.13369C37.3868 7.16143 37.773 6.22899 38.4605 5.5415C39.148 4.85401 40.0804 4.46778 41.0527 4.46778C41.0804 4.45989 41.1046 4.44253 41.1209 4.4187C41.1372 4.39487 41.1446 4.36609 41.1419 4.33735C41.1361 4.31439 41.1251 4.29311 41.1096 4.27523C41.0941 4.25734 41.0746 4.24335 41.0527 4.23438H37.2632C37.2322 4.23438 37.2026 4.24667 37.1807 4.26856C37.1588 4.29044 37.1465 4.32013 37.1465 4.35108V8.14742C37.1464 8.17904 37.1585 8.20947 37.1802 8.23245C37.2019 8.25544 37.2316 8.26923 37.2632 8.27099" fill="#343649"/>
<path d="M60.6934 17.2317H60.4326C60.2071 17.218 59.9908 17.1376 59.8111 17.0007C59.6314 16.8638 59.4965 16.6766 59.4234 16.4628L56.19 6.52231C55.9575 5.8898 55.5463 5.33838 55.0065 4.93502C54.4666 4.53165 53.8213 4.29368 53.1488 4.25H50.4989C50.4854 4.25087 50.4722 4.25441 50.46 4.26041C50.4478 4.2664 50.437 4.27475 50.4281 4.28495C50.4191 4.29516 50.4123 4.30703 50.408 4.31988C50.4036 4.33273 50.4019 4.34631 50.4028 4.35984C50.4028 4.38351 50.4122 4.40621 50.429 4.42295C50.4457 4.43968 50.4684 4.44908 50.4921 4.44908C51.0841 4.49268 51.6529 4.69739 52.1369 5.04104C52.6209 5.3847 53.0017 5.85421 53.2381 6.39874L49.4966 16.4628C49.4088 16.6775 49.2625 16.8634 49.0744 16.9993C48.8864 17.1351 48.664 17.2157 48.4326 17.2317H48.1717C48.1557 17.2325 48.1401 17.2366 48.1258 17.2437C48.1115 17.2509 48.0988 17.2608 48.0885 17.2731C48.0782 17.2853 48.0705 17.2995 48.0659 17.3148C48.0613 17.3302 48.06 17.3463 48.0619 17.3621C48.0685 17.3887 48.0822 17.4129 48.1016 17.4323C48.1209 17.4516 48.1452 17.4653 48.1717 17.472H50.595C50.6253 17.4642 50.6519 17.4463 50.6706 17.4214C50.6893 17.3964 50.699 17.3658 50.698 17.3347C50.6904 17.3105 50.677 17.2885 50.6591 17.2706C50.6412 17.2527 50.6192 17.2393 50.595 17.2317H50.3548C50.2775 17.2374 50.1999 17.2248 50.1283 17.195C50.0568 17.1652 49.9933 17.119 49.9429 17.0601C49.9025 16.9803 49.8814 16.8921 49.8814 16.8026C49.8814 16.7132 49.9025 16.625 49.9429 16.5452L51.1511 13.3804H55.531L56.5607 16.5315C56.6011 16.6113 56.6222 16.6995 56.6222 16.7889C56.6222 16.8783 56.6011 16.9665 56.5607 17.0463C56.5114 17.1073 56.4484 17.1559 56.3768 17.1881C56.3053 17.2202 56.2272 17.2352 56.1488 17.2317H55.9017C55.872 17.2287 55.8423 17.2358 55.8173 17.2521C55.7923 17.2683 55.7736 17.2926 55.7644 17.3209C55.7603 17.3345 55.759 17.3487 55.7606 17.3627C55.7622 17.3768 55.7667 17.3904 55.7738 17.4026C55.7808 17.4148 55.7904 17.4255 55.8017 17.4339C55.8131 17.4423 55.8261 17.4482 55.8399 17.4514H60.6454C60.6734 17.4514 60.7003 17.4408 60.7207 17.4217C60.7411 17.4025 60.7535 17.3763 60.7552 17.3484C60.7585 17.3372 60.7585 17.3253 60.7552 17.3141C60.7487 17.2907 60.7355 17.2698 60.7172 17.254C60.6988 17.2381 60.6763 17.228 60.6523 17.2248M51.3845 12.8724L53.547 7.1127L55.3593 12.8724H51.3845Z" fill="#343649"/>
<path d="M77.3821 4.46896H77.6292C77.6609 4.46901 77.6913 4.45694 77.7143 4.43523C77.7373 4.41352 77.7511 4.38382 77.7528 4.35226C77.7528 4.32312 77.7412 4.29519 77.7206 4.27459C77.7 4.25399 77.6721 4.24242 77.643 4.24242H74.0595C74.0454 4.24148 74.0312 4.24344 74.0179 4.24819C74.0046 4.25295 73.9925 4.26038 73.9822 4.27004C73.9719 4.2797 73.9637 4.29137 73.9581 4.30433C73.9525 4.31729 73.9496 4.33127 73.9496 4.34539V5.23784L70.3249 14.9518L67.5789 6.54905C67.3532 5.91248 66.9464 5.35571 66.4085 4.94715C65.8707 4.53859 65.2252 4.29604 64.5514 4.24928H61.9359C61.9216 4.24716 61.9069 4.24831 61.8931 4.25263C61.8793 4.25695 61.8667 4.26434 61.8561 4.27424C61.8455 4.28414 61.8373 4.2963 61.8321 4.30981C61.8269 4.32332 61.8249 4.33783 61.826 4.35226C61.8241 4.36451 61.8247 4.37704 61.8279 4.38904C61.8311 4.40103 61.8368 4.41223 61.8445 4.42192C61.8523 4.43161 61.862 4.43958 61.873 4.44532C61.884 4.45105 61.896 4.45443 61.9084 4.45523C62.5677 4.47716 63.2008 4.71879 63.707 5.14173V16.469C63.707 16.6656 63.6289 16.8542 63.4899 16.9932C63.3509 17.1323 63.1623 17.2104 62.9656 17.2104H62.7665C62.7393 17.204 62.7106 17.2082 62.6863 17.2222C62.6621 17.2363 62.6441 17.259 62.6361 17.2859C62.632 17.2994 62.6307 17.3136 62.6323 17.3277C62.6339 17.3417 62.6384 17.3553 62.6455 17.3675C62.6526 17.3798 62.6621 17.3904 62.6735 17.3988C62.6849 17.4072 62.6978 17.4132 62.7116 17.4163H65.1144C65.1446 17.4085 65.1712 17.3907 65.19 17.3658C65.2087 17.3408 65.2183 17.3102 65.2173 17.279C65.2127 17.2547 65.2001 17.2327 65.1814 17.2165C65.1627 17.2003 65.1391 17.1909 65.1144 17.1898H64.8604C64.6661 17.1862 64.481 17.1065 64.345 16.9678C64.2089 16.8292 64.1326 16.6426 64.1327 16.4484V5.64974C64.3788 5.92829 64.5677 6.25252 64.6887 6.60397L67.4828 15.1783C67.9016 16.4209 67.9565 17.4575 69.4668 17.4575H69.7963C69.8197 17.4559 69.8425 17.4489 69.8628 17.437C69.883 17.4251 69.9002 17.4086 69.913 17.3889L70.6819 15.3912L73.9359 6.67949V16.5651C73.9368 16.6609 73.9186 16.7559 73.8824 16.8446C73.8461 16.9333 73.7925 17.0139 73.7248 17.0817C73.657 17.1494 73.5765 17.203 73.4878 17.2392C73.399 17.2755 73.304 17.2937 73.2082 17.2928H72.9611C72.9316 17.3029 72.9057 17.3212 72.8863 17.3455C72.8668 17.3698 72.8547 17.3991 72.8512 17.4301C72.8589 17.4553 72.8731 17.4781 72.8924 17.4962C72.9117 17.5143 72.9353 17.527 72.9611 17.533H77.5949C77.6103 17.5313 77.6252 17.5266 77.6387 17.5191C77.6522 17.5116 77.6641 17.5015 77.6737 17.4894C77.6833 17.4772 77.6903 17.4633 77.6945 17.4484C77.6987 17.4335 77.6998 17.4179 77.6979 17.4026C77.6918 17.3769 77.6791 17.3532 77.6611 17.3339C77.643 17.3147 77.6202 17.3005 77.5949 17.2928H77.3546C77.1604 17.2928 76.9738 17.2166 76.8352 17.0805C76.6965 16.9444 76.6168 16.7593 76.6132 16.5651V5.19665C76.6168 5.0024 76.6965 4.81733 76.8352 4.68124C76.9738 4.54515 77.1604 4.46893 77.3546 4.46896" fill="#343649"/>
<path d="M83.7322 4.46896H83.9862C84.0171 4.46896 84.0468 4.45666 84.0687 4.43478C84.0906 4.41289 84.1029 4.38321 84.1029 4.35225C84.1029 4.32427 84.0923 4.29733 84.0732 4.27692C84.054 4.2565 84.0278 4.24416 83.9999 4.24241H79.3523C79.3379 4.24148 79.3234 4.24341 79.3097 4.24809C79.296 4.25277 79.2834 4.2601 79.2725 4.26967C79.2617 4.27923 79.2529 4.29085 79.2465 4.30384C79.2402 4.31684 79.2365 4.33096 79.2356 4.34539C79.2346 4.36098 79.2369 4.3766 79.2424 4.39122C79.2479 4.40583 79.2565 4.41911 79.2675 4.43015C79.2786 4.4412 79.2918 4.44976 79.3065 4.45527C79.3211 4.46078 79.3367 4.4631 79.3523 4.46209H79.6063C79.8011 4.46209 79.9879 4.53948 80.1257 4.67724C80.2635 4.815 80.3408 5.00183 80.3408 5.19665V16.5033C80.3391 16.6957 80.2618 16.8798 80.1257 17.0159C79.9897 17.1519 79.8056 17.2292 79.6132 17.231H79.3592C79.3312 17.2344 79.3057 17.2484 79.2878 17.2702C79.2699 17.2919 79.2611 17.3196 79.263 17.3477C79.2621 17.36 79.2637 17.3723 79.2678 17.3839C79.2718 17.3956 79.2782 17.4062 79.2866 17.4153C79.295 17.4243 79.3052 17.4315 79.3165 17.4364C79.3278 17.4413 79.34 17.4438 79.3523 17.4438H83.9999C84.0302 17.4387 84.0575 17.4226 84.0766 17.3985C84.0956 17.3744 84.105 17.344 84.1029 17.3134C84.0963 17.29 84.0831 17.2691 84.0648 17.2533C84.0465 17.2374 84.0239 17.2273 83.9999 17.2241H83.7459C83.5534 17.2223 83.3694 17.1451 83.2333 17.009C83.0972 16.8729 83.02 16.6889 83.0182 16.4964V5.19665C83.02 5.00421 83.0972 4.82016 83.2333 4.68407C83.3694 4.54799 83.5534 4.47075 83.7459 4.46896" fill="#343649"/>
<path d="M98.08 4.24905H95.6567C95.643 4.24604 95.6288 4.24604 95.6152 4.24907C95.6015 4.25209 95.5887 4.25806 95.5776 4.26656C95.5665 4.27506 95.5573 4.28588 95.5508 4.29827C95.5443 4.31066 95.5406 4.32432 95.5399 4.3383C95.5399 4.36925 95.5522 4.39893 95.5741 4.42082C95.596 4.44271 95.6257 4.455 95.6567 4.455H95.9107C96.1031 4.45679 96.2872 4.53403 96.4232 4.67012C96.5593 4.8062 96.6366 4.99025 96.6384 5.18269V16.1667C96.3241 15.8581 96.0683 15.4953 95.8832 15.0957L92.1761 6.55569C91.8814 5.91094 91.4187 5.35728 90.8366 4.95268C90.2544 4.54809 89.5742 4.30743 88.8672 4.25592H86.0594C86.0294 4.25647 86.0004 4.26683 85.9768 4.28543C85.9533 4.30403 85.9365 4.32983 85.929 4.35889C85.9286 4.3902 85.9395 4.4206 85.9596 4.44454C85.9798 4.46849 86.0079 4.48439 86.0388 4.48933C86.8178 4.53277 87.5587 4.84028 88.1395 5.36118V16.5786C88.1274 16.7638 88.0456 16.9375 87.9106 17.0648C87.7756 17.1922 87.5974 17.2637 87.4118 17.2651H87.2059C87.1786 17.2586 87.1499 17.2629 87.1256 17.2769C87.1014 17.291 87.0834 17.3137 87.0754 17.3406C87.0713 17.3541 87.07 17.3683 87.0716 17.3824C87.0732 17.3964 87.0777 17.41 87.0848 17.4222C87.0919 17.4345 87.1014 17.4451 87.1128 17.4535C87.1242 17.4619 87.1371 17.4679 87.1509 17.471H89.6292C89.6608 17.4659 89.6892 17.4488 89.7084 17.4232C89.7276 17.3976 89.7361 17.3655 89.7322 17.3337C89.7288 17.3089 89.7165 17.2861 89.6976 17.2696C89.6786 17.2532 89.6543 17.2443 89.6292 17.2445H89.3752C89.1828 17.2427 88.9987 17.1654 88.8626 17.0294C88.7265 16.8933 88.6493 16.7092 88.6475 16.5168V5.84859C88.855 6.08262 89.0262 6.34642 89.1555 6.6312L92.8557 15.1644C93.1533 15.8038 93.615 16.3528 94.1938 16.7556C94.7727 17.1584 95.448 17.4005 96.1509 17.4573H96.7345C96.7345 17.4573 97.1189 17.4573 97.1189 17.3475V5.19642C97.1257 5.0056 97.2046 4.82445 97.3396 4.68943C97.4746 4.55441 97.6558 4.47555 97.8466 4.46873H98.0869C98.1178 4.46873 98.1475 4.45644 98.1694 4.43455C98.1913 4.41266 98.2036 4.38298 98.2036 4.35203C98.2036 4.32405 98.193 4.2971 98.1739 4.27669C98.1547 4.25628 98.1285 4.24394 98.1006 4.24219" fill="#343649"/>
</g>
<defs>
<clipPath id="clip0_2515_10869">
<rect width="98.2174" height="30" fill="white"/>
</clipPath>
</defs>
</svg>
