<svg width="120" height="81" viewBox="0 0 120 81" fill="none" xmlns="http://www.w3.org/2000/svg">
<rect width="120" height="80" transform="translate(0 0.712158)" fill="#F7F7F7"/>
<path d="M46.7329 48.8377C43.3891 48.8377 40.2851 47.8349 38.2132 45.9753C36.6478 44.5702 35.8957 42.6618 35.8957 40.6976C35.8957 38.7573 36.6803 36.8357 38.213 35.4381C40.1372 33.6844 43.5344 32.5862 46.7329 32.5862C50.2725 32.5862 53.1055 33.4777 55.2712 35.4429C56.8121 36.8412 57.557 38.7543 57.557 40.6978C57.557 42.5816 56.7665 44.5877 55.2712 45.9753C53.2545 47.847 50.0853 48.8377 46.7329 48.8377V46.6943C48.5077 46.6943 50.1541 46.0815 51.3038 44.9374C52.4456 43.8012 52.9776 42.4045 52.9776 40.6976C52.9776 39.0624 52.4037 37.5335 51.3038 36.4492C50.1694 35.3319 48.4838 34.7031 46.7329 34.7031C44.9767 34.7031 43.2899 35.3254 42.1546 36.4492C41.0606 37.5332 40.4853 39.0664 40.4853 40.6976C40.4853 42.3237 41.0673 43.8561 42.1546 44.9376C43.2908 46.0679 44.9717 46.6944 46.7329 46.6944V48.8379V48.8377ZM22.2929 32.594C20.5042 32.594 18.4721 32.9285 16.7455 33.6996C15.152 34.4106 13.8477 35.5606 13.8477 37.467C13.8469 39.184 14.9381 40.1895 14.9085 40.1617C15.3726 40.589 16.1198 41.3165 18.0732 41.7437C18.9463 41.9347 20.8128 42.2279 22.6716 42.4221C24.5166 42.6168 26.3324 42.8018 27.0719 42.989C27.6595 43.1385 28.6465 43.3423 28.6465 44.4496C28.6465 45.5525 27.6067 45.8891 27.426 45.9621C27.2454 46.0335 25.998 46.6058 23.7555 46.6058C22.0999 46.6058 20.1096 46.108 19.3841 45.8485C18.5477 45.5508 17.6705 45.1571 16.8521 44.1575C16.6486 43.9096 16.3275 43.2281 16.3275 42.5532H14.2981V48.2399H16.5539V47.4716C16.5539 47.3841 16.6632 47.0244 17.0419 47.1955C17.5131 47.4095 18.8962 47.9602 20.3424 48.2622C21.5281 48.5102 22.2927 48.688 23.7668 48.688C26.172 48.688 27.4642 48.2961 28.3574 48.0411C29.1989 47.8001 30.2388 47.3675 31.0834 46.6939C31.5409 46.3297 32.544 45.396 32.544 43.7013C32.544 42.0746 31.671 41.065 31.3639 40.7578C30.9455 40.3393 30.4345 40.0149 29.902 39.7649C29.438 39.5465 28.7059 39.2842 28.1068 39.1376C26.944 38.8522 24.3149 38.5 23.0577 38.3684C21.7392 38.2307 19.4521 38.0412 18.5387 37.7586C18.2617 37.6727 17.6971 37.4038 17.6971 36.7484C17.6971 36.2822 17.9553 35.887 18.4656 35.5676C19.2756 35.0601 20.9118 34.7447 22.6173 34.7447C24.6336 34.7372 26.3411 35.1982 27.4273 35.6839C27.7967 35.8488 28.2289 36.0857 28.5722 36.366C28.9596 36.6818 29.5034 37.3382 29.7001 38.2537H31.5222V33.3035H29.4877V33.8789C29.4877 34.0646 29.2958 34.3059 28.9331 34.1065C28.0226 33.6288 25.4484 32.5982 22.2925 32.594H22.2929ZM66.8775 33.4935L76.8019 42.4499L76.6999 36.4197C76.6899 35.629 76.5442 35.2989 75.689 35.2989H73.823V33.495H82.3086V35.2989H80.4884C79.6161 35.2989 79.5611 35.5778 79.5505 36.4197L79.7044 47.9421H76.7983L65.3674 37.74L65.3698 44.9804C65.3798 45.7675 65.4167 46.1382 66.2276 46.1382H68.2656V47.9413H59.932V46.1384H61.8801C62.6078 46.1384 62.5789 45.4446 62.5789 44.9395V36.4883C62.5789 35.9428 62.5023 35.3002 61.3598 35.3002H59.7791V33.4935H66.8775ZM92.0052 46.1348C92.0849 46.1348 92.4389 46.1247 92.5075 46.1037C92.7034 46.0425 92.8363 45.9028 92.8979 45.7571C92.9238 45.6959 92.9368 45.4253 92.9368 45.3665L92.9383 42.5158C92.9383 42.4472 92.9333 42.4175 92.8169 42.2648C92.689 42.098 87.6186 36.3519 87.3865 36.0989C87.0983 35.7847 86.5922 35.2991 85.8234 35.2991H84.0601V33.4944H94.0113V35.2968H92.8117C92.5342 35.2968 92.3498 35.56 92.5869 35.8525C92.5869 35.8525 95.935 39.8575 95.9667 39.8994C95.9978 39.9421 96.0245 39.9523 96.0671 39.9133C96.109 39.8735 99.4992 35.8892 99.5259 35.8577C99.6871 35.6646 99.5778 35.2989 99.2302 35.2989H97.9996V33.4944H106.155V35.2989H104.333C103.672 35.2989 103.403 35.4212 102.906 35.9834C102.679 36.2407 97.554 42.09 97.4147 42.2485C97.3416 42.3313 97.3479 42.4468 97.3479 42.5154V45.3658C97.3479 45.4236 97.3609 45.6946 97.3869 45.7554C97.4486 45.9018 97.5822 46.0416 97.778 46.102C97.8465 46.1232 98.1958 46.1335 98.2753 46.1335H100.139V47.9378H90.2391V46.1334L92.0056 46.1348H92.0052Z" fill="#B3B6BF"/>
</svg>
