<svg width="120" height="81" viewBox="0 0 120 81" fill="none" xmlns="http://www.w3.org/2000/svg">
<rect width="120" height="80" transform="translate(0 0.712158)" fill="#F7F7F7"/>
<path d="M96.9596 48.7653H89.0215C84.5594 48.7653 84.1626 45.0876 84.1626 43.9641C84.1626 42.8406 84.5594 39.1628 89.0215 39.1628H96.9596C101.422 39.1628 101.819 42.8406 101.819 43.9641C101.819 45.0876 101.422 48.7653 96.9596 48.7653ZM97.1321 35.136H89.159C80.873 35.136 80.1358 41.898 80.1358 43.9641C80.1358 46.0301 80.873 52.7921 89.159 52.7921H97.1321C105.418 52.7921 106.155 46.0301 106.155 43.9641C106.155 41.898 105.418 35.136 97.1321 35.136ZM78.5421 35.7555H75.9572C74.8501 35.7555 74.6221 35.9417 74.1952 36.5668C73.7678 37.1915 66.3745 48.3258 66.3745 48.3258C66.1385 48.668 65.8882 48.8065 65.5772 48.8065C65.2659 48.8065 65.0159 48.668 64.7802 48.3258C64.7802 48.3258 57.3863 37.1915 56.9591 36.5668C56.5323 35.9413 56.3043 35.7555 55.1972 35.7555H52.6123C52.0176 35.7555 51.745 36.2142 52.1192 36.7746L60.9497 50.0006C62.3198 51.9886 63.3253 52.7921 65.5772 52.7921C67.8291 52.7921 68.8346 51.9886 70.205 50.0006L79.0352 36.7746C79.4094 36.2142 79.1374 35.7555 78.5421 35.7555ZM44.5137 36.8356C44.5137 36.0618 44.8157 35.7555 45.578 35.7555H47.4765C48.2385 35.7555 48.5405 36.0622 48.5405 36.8356V51.7117C48.5405 52.4855 48.2385 52.7921 47.4765 52.7921H45.578C44.816 52.7921 44.5137 52.4855 44.5137 51.7117L44.5137 36.8356ZM44.3551 32.122C43.7406 31.5078 43.7406 31.0205 44.3551 30.406L45.6688 29.0923C46.2833 28.4774 46.7706 28.4774 47.3851 29.092L48.6994 30.4057C49.3137 31.0206 49.3137 31.5078 48.6994 32.1223L47.3851 33.436C46.7706 34.0506 46.2833 34.0506 45.6691 33.436L44.3551 32.1223V32.122ZM40.428 35.7555H37.8459C36.74 35.7555 36.5121 35.942 36.0858 36.5668C35.659 37.1915 28.2731 48.3254 28.2731 48.3254C28.0377 48.6677 27.7877 48.8062 27.477 48.8062C27.1657 48.8062 26.9161 48.6677 26.6804 48.3254C26.6804 48.3254 19.2945 37.1912 18.8683 36.5664C18.4421 35.942 18.2141 35.7555 17.1082 35.7555H14.5261C13.8626 35.7555 13.6597 36.2142 14.0336 36.7746C14.4069 37.3352 22.8543 50.0003 22.8543 50.0003C24.2231 51.9886 25.2279 52.7921 27.4771 52.7921C29.7259 52.7921 30.7311 51.9886 32.0996 50.0003L40.9205 36.7746C41.2941 36.2142 41.0915 35.7555 40.428 35.7555" fill="#B3B6BF"/>
</svg>
